  0
SECTION
  2
HEADER
  9
$ACADVER
  1
AC1009
  9
$INSBASE
 10
0.0
 20
0.0
 30
0.0
  9
$EXTMIN
 10
0.0
 20
0.0
 30
0.0
  9
$EXTMAX
 10
100.0
 20
100.0
 30
0.0
  9
$UNITMODE
 70
0
  9
$AUNITS
 70
0
  9
$ANGBASE
 50
0.0
  9
$ANGDIR
 70
0
  0
ENDSEC
  0
SECTION
  2
TABLES
  0
TABLE
  2
LTYPE
 70
19
  0
LTYPE
  2
CONTINUOUS
 70
0
  3
Solid
 72
65
 73
0
 40
0.0
  0
LTYPE
  2
CENTER
 70
0
  3
Center ____ _ ____ _ ____ _ ____ _ ____ _ ____
 72
65
 73
4
 40
2.0
 49
1.25
 49
-0.25
 49
0.25
 49
-0.25
  0
LTYPE
  2
CENTERX2
 70
0
  3
Center (2x) ________  __  ________  __  ________
 72
65
 73
4
 40
3.5
 49
2.5
 49
-0.25
 49
0.5
 49
-0.25
  0
LTYPE
  2
CENTER2
 70
0
  3
Center (.5x) ____ _ ____ _ ____ _ ____ _ ____
 72
65
 73
4
 40
1.0
 49
0.625
 49
-0.125
 49
0.125
 49
-0.125
  0
LTYPE
  2
DASHED
 70
0
  3
Dashed __ __ __ __ __ __ __ __ __ __ __ __ __ _
 72
65
 73
2
 40
0.6
 49
0.5
 49
-0.1
  0
LTYPE
  2
DASHEDX2
 70
0
  3
Dashed (2x) ____  ____  ____  ____  ____  ____
 72
65
 73
2
 40
1.2
 49
1.0
 49
-0.2
  0
LTYPE
  2
DASHED2
 70
0
  3
Dashed (.5x) _ _ _ _ _ _ _ _ _ _ _ _ _ _
 72
65
 73
2
 40
0.3
 49
0.25
 49
-0.05
  0
LTYPE
  2
PHANTOM
 70
0
  3
Phantom ______  __  __  ______  __  __  ______
 72
65
 73
6
 40
2.5
 49
1.25
 49
-0.25
 49
0.25
 49
-0.25
 49
0.25
 49
-0.25
  0
LTYPE
  2
PHANTOMX2
 70
0
  3
Phantom (2x)____________    ____    ____    ____________
 72
65
 73
6
 40
4.25
 49
2.5
 49
-0.25
 49
0.5
 49
-0.25
 49
0.5
 49
-0.25
  0
LTYPE
  2
PHANTOM2
 70
0
  3
Phantom (.5x) ___ _ _ ___ _ _ ___ _ _ ___ _ _ ___
 72
65
 73
6
 40
1.25
 49
0.625
 49
-0.125
 49
0.125
 49
-0.125
 49
0.125
 49
-0.125
  0
LTYPE
  2
DASHDOT
 70
0
  3
Dash dot __ . __ . __ . __ . __ . __ . __ . __
 72
65
 73
4
 40
1.4
 49
1.0
 49
-0.2
 49
0.0
 49
-0.2
  0
LTYPE
  2
DASHDOTX2
 70
0
  3
Dash dot (2x) ____  .  ____  .  ____  .  ____
 72
65
 73
4
 40
2.4
 49
2.0
 49
-0.2
 49
0.0
 49
-0.2
  0
LTYPE
  2
DASHDOT2
 70
0
  3
Dash dot (.5x) _ . _ . _ . _ . _ . _ . _ . _
 72
65
 73
4
 40
0.7
 49
0.5
 49
-0.1
 49
0.0
 49
-0.1
  0
LTYPE
  2
DOT
 70
0
  3
Dot .  .  .  .  .  .  .  .  .  .  .  .  .  .  .  .
 72
65
 73
2
 40
0.2
 49
0.0
 49
-0.2
  0
LTYPE
  2
DOTX2
 70
0
  3
Dot (2x) .    .    .    .    .    .    .    . 
 72
65
 73
2
 40
0.4
 49
0.0
 49
-0.4
  0
LTYPE
  2
DOT2
 70
0
  3
Dot (.5) . . . . . . . . . . . . . . . . . . . 
 72
65
 73
2
 40
0.1
 49
0.0
 49
-0.1
  0
LTYPE
  2
DIVIDE
 70
0
  3
Divide __ . . __ . . __ . . __ . . __ . . __
 72
65
 73
6
 40
1.6
 49
1.0
 49
-0.2
 49
0.0
 49
-0.2
 49
0.0
 49
-0.2
  0
LTYPE
  2
DIVIDEX2
 70
0
  3
Divide (2x) ____  . .  ____  . .  ____  . .  ____
 72
65
 73
6
 40
2.6
 49
2.0
 49
-0.2
 49
0.0
 49
-0.2
 49
0.0
 49
-0.2
  0
LTYPE
  2
DIVIDE2
 70
0
  3
Divide(.5x) _ . _ . _ . _ . _ . _ . _ . _
 72
65
 73
6
 40
0.8
 49
0.5
 49
-0.1
 49
0.0
 49
-0.1
 49
0.0
 49
-0.1
  0
ENDTAB
  0
TABLE
  2
LAYER
 70
5
  0
LAYER
  2
DIMENSIONS
 70
0
 62
1
  6
CONTINUOUS
  0
LAYER
  2
TABLEBACKGROUND
 70
0
 62
1
  6
CONTINUOUS
  0
LAYER
  2
TABLECONTENT
 70
0
 62
1
  6
CONTINUOUS
  0
LAYER
  2
TABLEGRID
 70
0
 62
1
  6
CONTINUOUS
  0
LAYER
  2
VIEWPORTS
 70
0
 62
7
  6
CONTINUOUS
  0
ENDTAB
  0
TABLE
  2
STYLE
 70
12
  0
STYLE
  2
STANDARD
 70
0
 40
0.0
 41
1.0
 42
1.0
 50
0.0
 71
0
  3
arial.ttf
  4

  0
STYLE
  2
ARIAL
 70
0
 40
0.0
 41
1.0
 42
1.0
 50
0.0
 71
0
  3
arial.ttf
  4

  0
STYLE
  2
ARIAL_BOLD
 70
0
 40
0.0
 41
1.0
 42
1.0
 50
0.0
 71
0
  3
arialbd.ttf
  4

  0
STYLE
  2
ARIAL_ITALIC
 70
0
 40
0.0
 41
1.0
 42
1.0
 50
0.0
 71
0
  3
ariali.ttf
  4

  0
STYLE
  2
ARIAL_BOLD_ITALIC
 70
0
 40
0.0
 41
1.0
 42
1.0
 50
0.0
 71
0
  3
arialbi.ttf
  4

  0
STYLE
  2
ARIAL_BLACK
 70
0
 40
0.0
 41
1.0
 42
1.0
 50
0.0
 71
0
  3
ariblk.ttf
  4

  0
STYLE
  2
ISOCPEUR
 70
0
 40
0.0
 41
1.0
 42
1.0
 50
0.0
 71
0
  3
isocpeur.ttf
  4

  0
STYLE
  2
ISOCPEUR_ITALIC
 70
0
 40
0.0
 41
1.0
 42
1.0
 50
0.0
 71
0
  3
isocpeui.ttf
  4

  0
STYLE
  2
TIMES
 70
0
 40
0.0
 41
1.0
 42
1.0
 50
0.0
 71
0
  3
times.ttf
  4

  0
STYLE
  2
TIMES_BOLD
 70
0
 40
0.0
 41
1.0
 42
1.0
 50
0.0
 71
0
  3
timesbd.ttf
  4

  0
STYLE
  2
TIMES_ITALIC
 70
0
 40
0.0
 41
1.0
 42
1.0
 50
0.0
 71
0
  3
timesi.ttf
  4

  0
STYLE
  2
TIMES_BOLD_ITALIC
 70
0
 40
0.0
 41
1.0
 42
1.0
 50
0.0
 71
0
  3
timesbi.ttf
  4

  0
ENDTAB
  0
TABLE
  2
VIEW
 70
0
  0
ENDTAB
  0
TABLE
  2
APPID
 70
1
  0
APPID
  2
DXFWRITE
 70
0
  0
ENDTAB
  0
TABLE
  2
VPORT
 70
0
  0
ENDTAB
  0
TABLE
  2
UCS
 70
0
  0
ENDTAB
  0
ENDSEC
  0
SECTION
  2
BLOCKS
  0
ENDSEC
  0
SECTION
  2
ENTITIES
  0
VIEWPORT
  8
VIEWPORTS
 67
1
 10
0.0
 20
0.0
 30
0.0
 40
1.0
 41
1.0
 68
1
 69
1
1001
ACAD
1000
MVIEW
1002
{
1070
16
1010
0.0
1020
0.0
1030
0.0
1010
0.0
1020
0.0
1030
0.0
1040
0.0
1040
1.0
1040
0.0
1040
0.0
1040
50.0
1040
0.0
1040
0.0
1070
0
1070
100
1070
1
1070
3
1070
0
1070
0
1070
0
1070
0
1040
0.0
1040
0.0
1040
0.0
1040
0.1
1040
0.1
1040
0.1
1040
0.1
1070
0
1002
{
1002
}
1002
}
  0
POLYLINE
  8
0
 66
1
 10
0.0
 20
0.0
 30
0.0
 70
8
  0
VERTEX
  8
0
 10
2.0
 20
-0.9293181818181816
 30
0.0
  0
VERTEX
  8
0
 10
6.67
 20
-0.9293181818181816
 30
0.0
  0
VERTEX
  8
0
 10
6.67
 20
-2.7443181818181817
 30
0.0
  0
VERTEX
  8
0
 10
7.34
 20
-2.7443181818181817
 30
0.0
  0
VERTEX
  8
0
 10
7.34
 20
2.7443181818181817
 30
0.0
  0
VERTEX
  8
0
 10
6.67
 20
2.7443181818181817
 30
0.0
  0
VERTEX
  8
0
 10
6.67
 20
0.9293181818181817
 30
0.0
  0
VERTEX
  8
0
 10
2.0
 20
0.9293181818181812
 30
0.0
  0
SEQEND
  0
LINE
  8
0
 10
1.5196152422706635
 20
1.761368989387059
 30
0.0
 11
2.0
 21
0.9293181818181812
 31
0.0
  0
POLYLINE
  8
0
 66
1
 10
0.0
 20
0.0
 30
0.0
 70
8
  0
VERTEX
  8
0
 10
1.5196152422706635
 20
1.761368989387059
 30
0.0
  0
VERTEX
  8
0
 10
3.854615242270664
 20
5.805707625060387
 30
0.0
  0
VERTEX
  8
0
 10
5.42645135013942
 20
4.898207625060388
 30
0.0
  0
VERTEX
  8
0
 10
5.76145135013942
 20
5.478444645595961
 30
0.0
  0
VERTEX
  8
0
 10
1.0081528270952846
 20
8.222762827414142
 30
0.0
  0
VERTEX
  8
0
 10
0.6731528270952843
 20
7.642525806878568
 30
0.0
  0
VERTEX
  8
0
 10
2.2449889349640406
 20
6.735025806878569
 30
0.0
  0
VERTEX
  8
0
 10
-0.09001106503595846
 20
2.69068717120524
 30
0.0
  0
SEQEND
  0
LINE
  8
0
 10
-1.0507805804946322
 20
2.6906871712052407
 30
0.0
 11
-0.09001106503595846
 21
2.69068717120524
 31
0.0
  0
POLYLINE
  8
0
 66
1
 10
0.0
 20
0.0
 30
0.0
 70
8
  0
VERTEX
  8
0
 10
-1.0507805804946322
 20
2.6906871712052407
 30
0.0
  0
VERTEX
  8
0
 10
-3.3857805804946315
 20
6.7350258068785696
 30
0.0
  0
VERTEX
  8
0
 10
-1.8139444726258753
 20
7.642525806878569
 30
0.0
  0
VERTEX
  8
0
 10
-2.148944472625875
 20
8.222762827414144
 30
0.0
  0
VERTEX
  8
0
 10
-6.90224299567001
 20
5.478444645595962
 30
0.0
  0
VERTEX
  8
0
 10
-6.56724299567001
 20
4.8982076250603885
 30
0.0
  0
VERTEX
  8
0
 10
-4.995406887801254
 20
5.805707625060388
 30
0.0
  0
VERTEX
  8
0
 10
-2.6604068878012535
 20
1.7613689893870603
 30
0.0
  0
SEQEND
  0
LINE
  8
0
 10
-3.1407916455305918
 20
0.9293181818181817
 30
0.0
 11
-2.6604068878012535
 21
1.7613689893870603
 31
0.0
  0
POLYLINE
  8
0
 66
1
 10
0.0
 20
0.0
 30
0.0
 70
8
  0
VERTEX
  8
0
 10
-3.1407916455305918
 20
0.9293181818181817
 30
0.0
  0
VERTEX
  8
0
 10
-7.810791645530592
 20
0.9293181818181823
 30
0.0
  0
VERTEX
  8
0
 10
-7.810791645530592
 20
2.744318181818182
 30
0.0
  0
VERTEX
  8
0
 10
-8.480791645530593
 20
2.744318181818182
 30
0.0
  0
VERTEX
  8
0
 10
-8.480791645530594
 20
-2.744318181818181
 30
0.0
  0
VERTEX
  8
0
 10
-7.810791645530594
 20
-2.744318181818181
 30
0.0
  0
VERTEX
  8
0
 10
-7.810791645530594
 20
-0.9293181818181813
 30
0.0
  0
VERTEX
  8
0
 10
-3.1407916455305944
 20
-0.9293181818181813
 30
0.0
  0
SEQEND
  0
LINE
  8
0
 10
-2.6604068878012557
 20
-1.7613689893870585
 30
0.0
 11
-3.1407916455305944
 21
-0.9293181818181813
 31
0.0
  0
POLYLINE
  8
0
 66
1
 10
0.0
 20
0.0
 30
0.0
 70
8
  0
VERTEX
  8
0
 10
-2.6604068878012557
 20
-1.7613689893870585
 30
0.0
  0
VERTEX
  8
0
 10
-4.995406887801257
 20
-5.805707625060386
 30
0.0
  0
VERTEX
  8
0
 10
-6.567242995670013
 20
-4.898207625060386
 30
0.0
  0
VERTEX
  8
0
 10
-6.902242995670013
 20
-5.4784446455959595
 30
0.0
  0
VERTEX
  8
0
 10
-2.14894447262588
 20
-8.222762827414144
 30
0.0
  0
VERTEX
  8
0
 10
-1.81394447262588
 20
-7.64252580687857
 30
0.0
  0
VERTEX
  8
0
 10
-3.385780580494636
 20
-6.73502580687857
 30
0.0
  0
VERTEX
  8
0
 10
-1.0507805804946355
 20
-2.6906871712052425
 30
0.0
  0
SEQEND
  0
LINE
  8
0
 10
-0.09001106503595913
 20
-2.6906871712052407
 30
0.0
 11
-1.0507805804946355
 21
-2.6906871712052425
 31
0.0
  0
POLYLINE
  8
0
 66
1
 10
0.0
 20
0.0
 30
0.0
 70
8
  0
VERTEX
  8
0
 10
-0.09001106503595913
 20
-2.6906871712052407
 30
0.0
  0
VERTEX
  8
0
 10
2.2449889349640415
 20
-6.735025806878569
 30
0.0
  0
VERTEX
  8
0
 10
0.6731528270952853
 20
-7.642525806878568
 30
0.0
  0
VERTEX
  8
0
 10
1.0081528270952855
 20
-8.222762827414142
 30
0.0
  0
VERTEX
  8
0
 10
5.761451350139421
 20
-5.47844464559596
 30
0.0
  0
VERTEX
  8
0
 10
5.426451350139421
 20
-4.898207625060387
 30
0.0
  0
VERTEX
  8
0
 10
3.8546152422706648
 20
-5.8057076250603865
 30
0.0
  0
VERTEX
  8
0
 10
1.5196152422706626
 20
-1.7613689893870594
 30
0.0
  0
SEQEND
  0
LINE
  8
0
 10
1.5196152422706626
 20
-1.7613689893870594
 30
0.0
 11
2.0
 21
-0.9293181818181816
 31
0.0
  0
POLYLINE
  8
0
 66
1
 10
0.0
 20
0.0
 30
0.0
 70
8
  0
VERTEX
  8
0
 10
13.0
 20
2.7443181818181817
 30
0.0
  0
VERTEX
  8
0
 10
13.67
 20
2.7443181818181817
 30
0.0
  0
VERTEX
  8
0
 10
13.67
 20
0.9293181818181817
 30
0.0
  0
VERTEX
  8
0
 10
15.33
 20
0.9293181818181817
 30
0.0
  0
VERTEX
  8
0
 10
15.33
 20
2.7443181818181817
 30
0.0
  0
VERTEX
  8
0
 10
16.0
 20
2.7443181818181817
 30
0.0
  0
VERTEX
  8
0
 10
16.0
 20
-2.7443181818181817
 30
0.0
  0
VERTEX
  8
0
 10
15.33
 20
-2.7443181818181817
 30
0.0
  0
VERTEX
  8
0
 10
15.33
 20
-0.9293181818181817
 30
0.0
  0
VERTEX
  8
0
 10
13.67
 20
-0.9293181818181815
 30
0.0
  0
VERTEX
  8
0
 10
13.67
 20
-2.7443181818181817
 30
0.0
  0
VERTEX
  8
0
 10
13.0
 20
-2.7443181818181817
 30
0.0
  0
VERTEX
  8
0
 10
13.0
 20
2.7443181818181817
 30
0.0
  0
SEQEND
  0
POLYLINE
  8
0
 66
1
 10
0.0
 20
0.0
 30
0.0
 70
8
  0
VERTEX
  8
0
 10
3.8381528270952856
 20
13.124466612834066
 30
0.0
  0
VERTEX
  8
0
 10
4.173152827095286
 20
13.70470363336964
 30
0.0
  0
VERTEX
  8
0
 10
5.7449889349640415
 20
12.797203633369639
 30
0.0
  0
VERTEX
  8
0
 10
6.574988934964042
 20
14.234805803651808
 30
0.0
  0
VERTEX
  8
0
 10
5.003152827095286
 20
15.142305803651809
 30
0.0
  0
VERTEX
  8
0
 10
5.338152827095286
 20
15.722542824187382
 30
0.0
  0
VERTEX
  8
0
 10
10.09145135013942
 20
12.9782246423692
 30
0.0
  0
VERTEX
  8
0
 10
9.75645135013942
 20
12.397987621833627
 30
0.0
  0
VERTEX
  8
0
 10
8.184615242270663
 20
13.305487621833628
 30
0.0
  0
VERTEX
  8
0
 10
7.354615242270662
 20
11.86788545155146
 30
0.0
  0
VERTEX
  8
0
 10
8.926451350139418
 20
10.96038545155146
 30
0.0
  0
VERTEX
  8
0
 10
8.591451350139417
 20
10.380148431015886
 30
0.0
  0
VERTEX
  8
0
 10
3.8381528270952856
 20
13.124466612834066
 30
0.0
  0
SEQEND
  0
POLYLINE
  8
0
 66
1
 10
0.0
 20
0.0
 30
0.0
 70
8
  0
VERTEX
  8
0
 10
-9.732242995670008
 20
10.380148431015884
 30
0.0
  0
VERTEX
  8
0
 10
-10.067242995670007
 20
10.960385451551458
 30
0.0
  0
VERTEX
  8
0
 10
-8.49540688780125
 20
11.867885451551459
 30
0.0
  0
VERTEX
  8
0
 10
-9.32540688780125
 20
13.305487621833628
 30
0.0
  0
VERTEX
  8
0
 10
-10.897242995670005
 20
12.397987621833627
 30
0.0
  0
VERTEX
  8
0
 10
-11.232242995670005
 20
12.9782246423692
 30
0.0
  0
VERTEX
  8
0
 10
-6.478944472625869
 20
15.722542824187382
 30
0.0
  0
VERTEX
  8
0
 10
-6.143944472625869
 20
15.142305803651809
 30
0.0
  0
VERTEX
  8
0
 10
-7.715780580494625
 20
14.234805803651808
 30
0.0
  0
VERTEX
  8
0
 10
-6.885780580494625
 20
12.797203633369639
 30
0.0
  0
VERTEX
  8
0
 10
-5.313944472625869
 20
13.70470363336964
 30
0.0
  0
VERTEX
  8
0
 10
-4.978944472625869
 20
13.124466612834066
 30
0.0
  0
VERTEX
  8
0
 10
-9.732242995670008
 20
10.380148431015884
 30
0.0
  0
SEQEND
  0
POLYLINE
  8
0
 66
1
 10
0.0
 20
0.0
 30
0.0
 70
8
  0
VERTEX
  8
0
 10
-14.140791645530593
 20
-2.7443181818181803
 30
0.0
  0
VERTEX
  8
0
 10
-14.810791645530593
 20
-2.7443181818181803
 30
0.0
  0
VERTEX
  8
0
 10
-14.810791645530593
 20
-0.9293181818181804
 30
0.0
  0
VERTEX
  8
0
 10
-16.470791645530593
 20
-0.9293181818181802
 30
0.0
  0
VERTEX
  8
0
 10
-16.470791645530593
 20
-2.74431818181818
 30
0.0
  0
VERTEX
  8
0
 10
-17.140791645530594
 20
-2.74431818181818
 30
0.0
  0
VERTEX
  8
0
 10
-17.140791645530594
 20
2.7443181818181834
 30
0.0
  0
VERTEX
  8
0
 10
-16.470791645530593
 20
2.7443181818181834
 30
0.0
  0
VERTEX
  8
0
 10
-16.470791645530593
 20
0.9293181818181835
 30
0.0
  0
VERTEX
  8
0
 10
-14.810791645530593
 20
0.929318181818183
 30
0.0
  0
VERTEX
  8
0
 10
-14.810791645530593
 20
2.744318181818183
 30
0.0
  0
VERTEX
  8
0
 10
-14.140791645530593
 20
2.744318181818183
 30
0.0
  0
VERTEX
  8
0
 10
-14.140791645530593
 20
-2.7443181818181803
 30
0.0
  0
SEQEND
  0
POLYLINE
  8
0
 66
1
 10
0.0
 20
0.0
 30
0.0
 70
8
  0
VERTEX
  8
0
 10
-4.978944472625884
 20
-13.124466612834066
 30
0.0
  0
VERTEX
  8
0
 10
-5.3139444726258835
 20
-13.70470363336964
 30
0.0
  0
VERTEX
  8
0
 10
-6.8857805804946395
 20
-12.797203633369639
 30
0.0
  0
VERTEX
  8
0
 10
-7.71578058049464
 20
-14.234805803651806
 30
0.0
  0
VERTEX
  8
0
 10
-6.1439444726258845
 20
-15.142305803651807
 30
0.0
  0
VERTEX
  8
0
 10
-6.4789444726258845
 20
-15.72254282418738
 30
0.0
  0
VERTEX
  8
0
 10
-11.23224299567002
 20
-12.978224642369199
 30
0.0
  0
VERTEX
  8
0
 10
-10.897242995670021
 20
-12.397987621833625
 30
0.0
  0
VERTEX
  8
0
 10
-9.325406887801266
 20
-13.305487621833626
 30
0.0
  0
VERTEX
  8
0
 10
-8.495406887801266
 20
-11.867885451551457
 30
0.0
  0
VERTEX
  8
0
 10
-10.067242995670023
 20
-10.960385451551456
 30
0.0
  0
VERTEX
  8
0
 10
-9.732242995670024
 20
-10.380148431015883
 30
0.0
  0
VERTEX
  8
0
 10
-4.978944472625884
 20
-13.124466612834066
 30
0.0
  0
SEQEND
  0
POLYLINE
  8
0
 66
1
 10
0.0
 20
0.0
 30
0.0
 70
8
  0
VERTEX
  8
0
 10
8.59145135013942
 20
-10.380148431015883
 30
0.0
  0
VERTEX
  8
0
 10
8.926451350139422
 20
-10.960385451551456
 30
0.0
  0
VERTEX
  8
0
 10
7.354615242270666
 20
-11.867885451551457
 30
0.0
  0
VERTEX
  8
0
 10
8.184615242270667
 20
-13.305487621833626
 30
0.0
  0
VERTEX
  8
0
 10
9.756451350139423
 20
-12.397987621833625
 30
0.0
  0
VERTEX
  8
0
 10
10.091451350139424
 20
-12.978224642369199
 30
0.0
  0
VERTEX
  8
0
 10
5.338152827095289
 20
-15.72254282418738
 30
0.0
  0
VERTEX
  8
0
 10
5.003152827095289
 20
-15.142305803651807
 30
0.0
  0
VERTEX
  8
0
 10
6.574988934964045
 20
-14.234805803651806
 30
0.0
  0
VERTEX
  8
0
 10
5.744988934964045
 20
-12.797203633369637
 30
0.0
  0
VERTEX
  8
0
 10
4.173152827095289
 20
-13.704703633369638
 30
0.0
  0
VERTEX
  8
0
 10
3.838152827095289
 20
-13.124466612834064
 30
0.0
  0
VERTEX
  8
0
 10
8.59145135013942
 20
-10.380148431015883
 30
0.0
  0
SEQEND
  0
POLYLINE
  8
0
 66
1
 10
0.0
 20
0.0
 30
0.0
 70
8
  0
VERTEX
  8
0
 10
32.14079164553059
 20
-0.9293181818181824
 30
0.0
  0
VERTEX
  8
0
 10
36.81079164553059
 20
-0.9293181818181824
 30
0.0
  0
VERTEX
  8
0
 10
36.81079164553059
 20
-2.7443181818181825
 30
0.0
  0
VERTEX
  8
0
 10
37.480791645530594
 20
-2.7443181818181825
 30
0.0
  0
VERTEX
  8
0
 10
37.480791645530594
 20
2.7443181818181808
 30
0.0
  0
VERTEX
  8
0
 10
36.81079164553059
 20
2.7443181818181808
 30
0.0
  0
VERTEX
  8
0
 10
36.81079164553059
 20
0.9293181818181808
 30
0.0
  0
VERTEX
  8
0
 10
32.14079164553059
 20
0.9293181818181803
 30
0.0
  0
SEQEND
  0
LINE
  8
0
 10
31.660406887801255
 20
1.7613689893870585
 30
0.0
 11
32.14079164553059
 21
0.9293181818181803
 31
0.0
  0
POLYLINE
  8
0
 66
1
 10
0.0
 20
0.0
 30
0.0
 70
8
  0
VERTEX
  8
0
 10
31.660406887801255
 20
1.7613689893870585
 30
0.0
  0
VERTEX
  8
0
 10
33.99540688780125
 20
5.8057076250603865
 30
0.0
  0
VERTEX
  8
0
 10
35.56724299567001
 20
4.898207625060387
 30
0.0
  0
VERTEX
  8
0
 10
35.90224299567001
 20
5.47844464559596
 30
0.0
  0
VERTEX
  8
0
 10
31.14894447262587
 20
8.222762827414142
 30
0.0
  0
VERTEX
  8
0
 10
30.81394447262587
 20
7.642525806878568
 30
0.0
  0
VERTEX
  8
0
 10
32.385780580494625
 20
6.735025806878569
 30
0.0
  0
VERTEX
  8
0
 10
30.050780580494624
 20
2.69068717120524
 30
0.0
  0
SEQEND
  0
LINE
  8
0
 10
29.09001106503596
 20
2.69068717120524
 30
0.0
 11
30.050780580494624
 21
2.69068717120524
 31
0.0
  0
POLYLINE
  8
0
 66
1
 10
0.0
 20
0.0
 30
0.0
 70
8
  0
VERTEX
  8
0
 10
29.09001106503596
 20
2.69068717120524
 30
0.0
  0
VERTEX
  8
0
 10
26.75501106503596
 20
6.735025806878569
 30
0.0
  0
VERTEX
  8
0
 10
28.326847172904714
 20
7.642525806878568
 30
0.0
  0
VERTEX
  8
0
 10
27.991847172904713
 20
8.222762827414142
 30
0.0
  0
VERTEX
  8
0
 10
23.23854864986058
 20
5.47844464559596
 30
0.0
  0
VERTEX
  8
0
 10
23.57354864986058
 20
4.898207625060387
 30
0.0
  0
VERTEX
  8
0
 10
25.145384757729335
 20
5.8057076250603865
 30
0.0
  0
VERTEX
  8
0
 10
27.480384757729336
 20
1.7613689893870585
 30
0.0
  0
SEQEND
  0
LINE
  8
0
 10
27.0
 20
0.929318181818181
 30
0.0
 11
27.480384757729336
 21
1.7613689893870585
 31
0.0
  0
POLYLINE
  8
0
 66
1
 10
0.0
 20
0.0
 30
0.0
 70
8
  0
VERTEX
  8
0
 10
27.0
 20
0.929318181818181
 30
0.0
  0
VERTEX
  8
0
 10
22.33
 20
0.9293181818181816
 30
0.0
  0
VERTEX
  8
0
 10
22.33
 20
2.7443181818181817
 30
0.0
  0
VERTEX
  8
0
 10
21.659999999999997
 20
2.7443181818181817
 30
0.0
  0
VERTEX
  8
0
 10
21.659999999999997
 20
-2.7443181818181817
 30
0.0
  0
VERTEX
  8
0
 10
22.33
 20
-2.7443181818181817
 30
0.0
  0
VERTEX
  8
0
 10
22.33
 20
-0.9293181818181817
 30
0.0
  0
VERTEX
  8
0
 10
27.0
 20
-0.9293181818181817
 30
0.0
  0
SEQEND
  0
LINE
  8
0
 10
27.480384757729336
 20
-1.7613689893870594
 30
0.0
 11
27.0
 21
-0.9293181818181817
 31
0.0
  0
POLYLINE
  8
0
 66
1
 10
0.0
 20
0.0
 30
0.0
 70
8
  0
VERTEX
  8
0
 10
27.480384757729336
 20
-1.7613689893870594
 30
0.0
  0
VERTEX
  8
0
 10
25.145384757729335
 20
-5.8057076250603865
 30
0.0
  0
VERTEX
  8
0
 10
23.57354864986058
 20
-4.898207625060387
 30
0.0
  0
VERTEX
  8
0
 10
23.23854864986058
 20
-5.47844464559596
 30
0.0
  0
VERTEX
  8
0
 10
27.991847172904713
 20
-8.222762827414144
 30
0.0
  0
VERTEX
  8
0
 10
28.326847172904714
 20
-7.64252580687857
 30
0.0
  0
VERTEX
  8
0
 10
26.75501106503596
 20
-6.73502580687857
 30
0.0
  0
VERTEX
  8
0
 10
29.09001106503596
 20
-2.6906871712052425
 30
0.0
  0
SEQEND
  0
LINE
  8
0
 10
30.05078058049463
 20
-2.690687171205241
 30
0.0
 11
29.09001106503596
 21
-2.6906871712052425
 31
0.0
  0
POLYLINE
  8
0
 66
1
 10
0.0
 20
0.0
 30
0.0
 70
8
  0
VERTEX
  8
0
 10
30.05078058049463
 20
-2.690687171205241
 30
0.0
  0
VERTEX
  8
0
 10
32.38578058049463
 20
-6.7350258068785696
 30
0.0
  0
VERTEX
  8
0
 10
30.813944472625877
 20
-7.642525806878569
 30
0.0
  0
VERTEX
  8
0
 10
31.148944472625878
 20
-8.222762827414144
 30
0.0
  0
VERTEX
  8
0
 10
35.902242995670015
 20
-5.478444645595962
 30
0.0
  0
VERTEX
  8
0
 10
35.567242995670014
 20
-4.8982076250603885
 30
0.0
  0
VERTEX
  8
0
 10
33.99540688780126
 20
-5.805707625060388
 30
0.0
  0
VERTEX
  8
0
 10
31.66040688780126
 20
-1.7613689893870612
 30
0.0
  0
SEQEND
  0
LINE
  8
0
 10
31.66040688780126
 20
-1.7613689893870612
 30
0.0
 11
32.14079164553059
 21
-0.9293181818181824
 31
0.0
  0
POLYLINE
  8
0
 66
1
 10
0.0
 20
0.0
 30
0.0
 70
8
  0
VERTEX
  8
0
 10
43.14079164553059
 20
2.7443181818181808
 30
0.0
  0
VERTEX
  8
0
 10
43.81079164553059
 20
2.7443181818181808
 30
0.0
  0
VERTEX
  8
0
 10
43.81079164553059
 20
0.9293181818181808
 30
0.0
  0
VERTEX
  8
0
 10
45.470791645530596
 20
0.9293181818181808
 30
0.0
  0
VERTEX
  8
0
 10
45.470791645530596
 20
2.7443181818181808
 30
0.0
  0
VERTEX
  8
0
 10
46.1407916455306
 20
2.7443181818181808
 30
0.0
  0
VERTEX
  8
0
 10
46.1407916455306
 20
-2.7443181818181825
 30
0.0
  0
VERTEX
  8
0
 10
45.470791645530596
 20
-2.7443181818181825
 30
0.0
  0
VERTEX
  8
0
 10
45.470791645530596
 20
-0.9293181818181826
 30
0.0
  0
VERTEX
  8
0
 10
43.8107916455306
 20
-0.9293181818181824
 30
0.0
  0
VERTEX
  8
0
 10
43.8107916455306
 20
-2.7443181818181825
 30
0.0
  0
VERTEX
  8
0
 10
43.1407916455306
 20
-2.7443181818181825
 30
0.0
  0
VERTEX
  8
0
 10
43.14079164553059
 20
2.7443181818181808
 30
0.0
  0
SEQEND
  0
POLYLINE
  8
0
 66
1
 10
0.0
 20
0.0
 30
0.0
 70
8
  0
VERTEX
  8
0
 10
33.97894447262588
 20
13.124466612834066
 30
0.0
  0
VERTEX
  8
0
 10
34.31394447262588
 20
13.70470363336964
 30
0.0
  0
VERTEX
  8
0
 10
35.88578058049463
 20
12.797203633369639
 30
0.0
  0
VERTEX
  8
0
 10
36.71578058049463
 20
14.234805803651808
 30
0.0
  0
VERTEX
  8
0
 10
35.143944472625876
 20
15.142305803651809
 30
0.0
  0
VERTEX
  8
0
 10
35.47894447262588
 20
15.722542824187382
 30
0.0
  0
VERTEX
  8
0
 10
40.23224299567001
 20
12.9782246423692
 30
0.0
  0
VERTEX
  8
0
 10
39.89724299567001
 20
12.397987621833627
 30
0.0
  0
VERTEX
  8
0
 10
38.32540688780126
 20
13.305487621833628
 30
0.0
  0
VERTEX
  8
0
 10
37.49540688780126
 20
11.86788545155146
 30
0.0
  0
VERTEX
  8
0
 10
39.067242995670014
 20
10.96038545155146
 30
0.0
  0
VERTEX
  8
0
 10
38.73224299567001
 20
10.380148431015886
 30
0.0
  0
VERTEX
  8
0
 10
33.97894447262588
 20
13.124466612834066
 30
0.0
  0
SEQEND
  0
POLYLINE
  8
0
 66
1
 10
0.0
 20
0.0
 30
0.0
 70
8
  0
VERTEX
  8
0
 10
20.408548649860588
 20
10.380148431015884
 30
0.0
  0
VERTEX
  8
0
 10
20.073548649860587
 20
10.960385451551458
 30
0.0
  0
VERTEX
  8
0
 10
21.645384757729342
 20
11.867885451551459
 30
0.0
  0
VERTEX
  8
0
 10
20.815384757729344
 20
13.305487621833628
 30
0.0
  0
VERTEX
  8
0
 10
19.24354864986059
 20
12.397987621833627
 30
0.0
  0
VERTEX
  8
0
 10
18.908548649860588
 20
12.9782246423692
 30
0.0
  0
VERTEX
  8
0
 10
23.66184717290472
 20
15.722542824187382
 30
0.0
  0
VERTEX
  8
0
 10
23.996847172904722
 20
15.142305803651809
 30
0.0
  0
VERTEX
  8
0
 10
22.425011065035967
 20
14.234805803651808
 30
0.0
  0
VERTEX
  8
0
 10
23.25501106503597
 20
12.797203633369639
 30
0.0
  0
VERTEX
  8
0
 10
24.826847172904724
 20
13.70470363336964
 30
0.0
  0
VERTEX
  8
0
 10
25.161847172904725
 20
13.124466612834066
 30
0.0
  0
VERTEX
  8
0
 10
20.408548649860588
 20
10.380148431015884
 30
0.0
  0
SEQEND
  0
POLYLINE
  8
0
 66
1
 10
0.0
 20
0.0
 30
0.0
 70
8
  0
VERTEX
  8
0
 10
25.161847172904704
 20
-13.124466612834066
 30
0.0
  0
VERTEX
  8
0
 10
24.826847172904703
 20
-13.70470363336964
 30
0.0
  0
VERTEX
  8
0
 10
23.255011065035948
 20
-12.797203633369639
 30
0.0
  0
VERTEX
  8
0
 10
22.425011065035946
 20
-14.234805803651806
 30
0.0
  0
VERTEX
  8
0
 10
23.9968471729047
 20
-15.142305803651807
 30
0.0
  0
VERTEX
  8
0
 10
23.6618471729047
 20
-15.72254282418738
 30
0.0
  0
VERTEX
  8
0
 10
18.908548649860563
 20
-12.978224642369199
 30
0.0
  0
VERTEX
  8
0
 10
19.243548649860564
 20
-12.397987621833625
 30
0.0
  0
VERTEX
  8
0
 10
20.81538475772932
 20
-13.305487621833626
 30
0.0
  0
VERTEX
  8
0
 10
21.645384757729317
 20
-11.867885451551457
 30
0.0
  0
VERTEX
  8
0
 10
20.073548649860562
 20
-10.960385451551456
 30
0.0
  0
VERTEX
  8
0
 10
20.408548649860563
 20
-10.380148431015883
 30
0.0
  0
VERTEX
  8
0
 10
25.161847172904704
 20
-13.124466612834066
 30
0.0
  0
SEQEND
  0
POLYLINE
  8
0
 66
1
 10
0.0
 20
0.0
 30
0.0
 70
8
  0
VERTEX
  8
0
 10
38.73224299567001
 20
-10.380148431015884
 30
0.0
  0
VERTEX
  8
0
 10
39.067242995670014
 20
-10.960385451551458
 30
0.0
  0
VERTEX
  8
0
 10
37.49540688780126
 20
-11.867885451551459
 30
0.0
  0
VERTEX
  8
0
 10
38.32540688780126
 20
-13.305487621833628
 30
0.0
  0
VERTEX
  8
0
 10
39.89724299567001
 20
-12.397987621833627
 30
0.0
  0
VERTEX
  8
0
 10
40.23224299567001
 20
-12.9782246423692
 30
0.0
  0
VERTEX
  8
0
 10
35.47894447262588
 20
-15.722542824187382
 30
0.0
  0
VERTEX
  8
0
 10
35.143944472625876
 20
-15.142305803651809
 30
0.0
  0
VERTEX
  8
0
 10
36.71578058049463
 20
-14.234805803651808
 30
0.0
  0
VERTEX
  8
0
 10
35.88578058049463
 20
-12.797203633369639
 30
0.0
  0
VERTEX
  8
0
 10
34.31394447262588
 20
-13.70470363336964
 30
0.0
  0
VERTEX
  8
0
 10
33.97894447262588
 20
-13.124466612834066
 30
0.0
  0
VERTEX
  8
0
 10
38.73224299567001
 20
-10.380148431015884
 30
0.0
  0
SEQEND
  0
POLYLINE
  8
0
 66
1
 10
0.0
 20
0.0
 30
0.0
 70
8
  0
VERTEX
  8
0
 10
62.28158329106119
 20
-0.9293181818181832
 30
0.0
  0
VERTEX
  8
0
 10
66.95158329106118
 20
-0.9293181818181832
 30
0.0
  0
VERTEX
  8
0
 10
66.95158329106118
 20
-2.744318181818183
 30
0.0
  0
VERTEX
  8
0
 10
67.62158329106119
 20
-2.744318181818183
 30
0.0
  0
VERTEX
  8
0
 10
67.62158329106119
 20
2.7443181818181803
 30
0.0
  0
VERTEX
  8
0
 10
66.95158329106118
 20
2.7443181818181803
 30
0.0
  0
VERTEX
  8
0
 10
66.95158329106118
 20
0.9293181818181804
 30
0.0
  0
VERTEX
  8
0
 10
62.28158329106118
 20
0.9293181818181798
 30
0.0
  0
SEQEND
  0
LINE
  8
0
 10
61.80119853333185
 20
1.7613689893870577
 30
0.0
 11
62.28158329106118
 21
0.9293181818181798
 31
0.0
  0
POLYLINE
  8
0
 66
1
 10
0.0
 20
0.0
 30
0.0
 70
8
  0
VERTEX
  8
0
 10
61.80119853333185
 20
1.7613689893870577
 30
0.0
  0
VERTEX
  8
0
 10
64.13619853333185
 20
5.805707625060386
 30
0.0
  0
VERTEX
  8
0
 10
65.70803464120061
 20
4.898207625060386
 30
0.0
  0
VERTEX
  8
0
 10
66.0430346412006
 20
5.4784446455959595
 30
0.0
  0
VERTEX
  8
0
 10
61.28973611815647
 20
8.22276282741414
 30
0.0
  0
VERTEX
  8
0
 10
60.95473611815647
 20
7.642525806878567
 30
0.0
  0
VERTEX
  8
0
 10
62.52657222602522
 20
6.735025806878567
 30
0.0
  0
VERTEX
  8
0
 10
60.19157222602522
 20
2.690687171205238
 30
0.0
  0
SEQEND
  0
LINE
  8
0
 10
59.23080271056655
 20
2.690687171205239
 30
0.0
 11
60.19157222602522
 21
2.690687171205238
 31
0.0
  0
POLYLINE
  8
0
 66
1
 10
0.0
 20
0.0
 30
0.0
 70
8
  0
VERTEX
  8
0
 10
59.23080271056655
 20
2.690687171205239
 30
0.0
  0
VERTEX
  8
0
 10
56.89580271056655
 20
6.735025806878568
 30
0.0
  0
VERTEX
  8
0
 10
58.467638818435304
 20
7.6425258068785675
 30
0.0
  0
VERTEX
  8
0
 10
58.132638818435304
 20
8.222762827414142
 30
0.0
  0
VERTEX
  8
0
 10
53.37934029539117
 20
5.47844464559596
 30
0.0
  0
VERTEX
  8
0
 10
53.71434029539117
 20
4.898207625060387
 30
0.0
  0
VERTEX
  8
0
 10
55.28617640325992
 20
5.8057076250603865
 30
0.0
  0
VERTEX
  8
0
 10
57.62117640325992
 20
1.7613689893870585
 30
0.0
  0
SEQEND
  0
LINE
  8
0
 10
57.14079164553059
 20
0.9293181818181802
 30
0.0
 11
57.62117640325992
 21
1.7613689893870585
 31
0.0
  0
POLYLINE
  8
0
 66
1
 10
0.0
 20
0.0
 30
0.0
 70
8
  0
VERTEX
  8
0
 10
57.14079164553059
 20
0.9293181818181802
 30
0.0
  0
VERTEX
  8
0
 10
52.47079164553059
 20
0.9293181818181807
 30
0.0
  0
VERTEX
  8
0
 10
52.47079164553059
 20
2.7443181818181808
 30
0.0
  0
VERTEX
  8
0
 10
51.80079164553059
 20
2.7443181818181808
 30
0.0
  0
VERTEX
  8
0
 10
51.80079164553059
 20
-2.7443181818181825
 30
0.0
  0
VERTEX
  8
0
 10
52.47079164553059
 20
-2.7443181818181825
 30
0.0
  0
VERTEX
  8
0
 10
52.47079164553059
 20
-0.9293181818181826
 30
0.0
  0
VERTEX
  8
0
 10
57.14079164553059
 20
-0.9293181818181826
 30
0.0
  0
SEQEND
  0
LINE
  8
0
 10
57.62117640325993
 20
-1.7613689893870603
 30
0.0
 11
57.14079164553059
 21
-0.9293181818181826
 31
0.0
  0
POLYLINE
  8
0
 66
1
 10
0.0
 20
0.0
 30
0.0
 70
8
  0
VERTEX
  8
0
 10
57.62117640325993
 20
-1.7613689893870603
 30
0.0
  0
VERTEX
  8
0
 10
55.28617640325993
 20
-5.805707625060387
 30
0.0
  0
VERTEX
  8
0
 10
53.714340295391175
 20
-4.898207625060388
 30
0.0
  0
VERTEX
  8
0
 10
53.379340295391174
 20
-5.478444645595961
 30
0.0
  0
VERTEX
  8
0
 10
58.13263881843531
 20
-8.222762827414146
 30
0.0
  0
VERTEX
  8
0
 10
58.46763881843531
 20
-7.642525806878572
 30
0.0
  0
VERTEX
  8
0
 10
56.89580271056656
 20
-6.735025806878572
 30
0.0
  0
VERTEX
  8
0
 10
59.23080271056656
 20
-2.6906871712052443
 30
0.0
  0
SEQEND
  0
LINE
  8
0
 10
60.19157222602523
 20
-2.690687171205242
 30
0.0
 11
59.23080271056656
 21
-2.6906871712052443
 31
0.0
  0
POLYLINE
  8
0
 66
1
 10
0.0
 20
0.0
 30
0.0
 70
8
  0
VERTEX
  8
0
 10
60.19157222602523
 20
-2.690687171205242
 30
0.0
  0
VERTEX
  8
0
 10
62.52657222602523
 20
-6.7350258068785696
 30
0.0
  0
VERTEX
  8
0
 10
60.954736118156475
 20
-7.642525806878569
 30
0.0
  0
VERTEX
  8
0
 10
61.289736118156476
 20
-8.222762827414144
 30
0.0
  0
VERTEX
  8
0
 10
66.0430346412006
 20
-5.478444645595962
 30
0.0
  0
VERTEX
  8
0
 10
65.70803464120061
 20
-4.8982076250603885
 30
0.0
  0
VERTEX
  8
0
 10
64.13619853333185
 20
-5.805707625060388
 30
0.0
  0
VERTEX
  8
0
 10
61.80119853333185
 20
-1.7613689893870612
 30
0.0
  0
SEQEND
  0
LINE
  8
0
 10
61.80119853333185
 20
-1.7613689893870612
 30
0.0
 11
62.28158329106119
 21
-0.9293181818181832
 31
0.0
  0
POLYLINE
  8
0
 66
1
 10
0.0
 20
0.0
 30
0.0
 70
8
  0
VERTEX
  8
0
 10
73.2815832910612
 20
2.7443181818181803
 30
0.0
  0
VERTEX
  8
0
 10
73.9515832910612
 20
2.7443181818181803
 30
0.0
  0
VERTEX
  8
0
 10
73.9515832910612
 20
0.9293181818181804
 30
0.0
  0
VERTEX
  8
0
 10
75.6115832910612
 20
0.9293181818181804
 30
0.0
  0
VERTEX
  8
0
 10
75.6115832910612
 20
2.7443181818181803
 30
0.0
  0
VERTEX
  8
0
 10
76.2815832910612
 20
2.7443181818181803
 30
0.0
  0
VERTEX
  8
0
 10
76.2815832910612
 20
-2.744318181818183
 30
0.0
  0
VERTEX
  8
0
 10
75.6115832910612
 20
-2.744318181818183
 30
0.0
  0
VERTEX
  8
0
 10
75.6115832910612
 20
-0.929318181818183
 30
0.0
  0
VERTEX
  8
0
 10
73.9515832910612
 20
-0.9293181818181828
 30
0.0
  0
VERTEX
  8
0
 10
73.9515832910612
 20
-2.7443181818181825
 30
0.0
  0
VERTEX
  8
0
 10
73.2815832910612
 20
-2.7443181818181825
 30
0.0
  0
VERTEX
  8
0
 10
73.2815832910612
 20
2.7443181818181803
 30
0.0
  0
SEQEND
  0
POLYLINE
  8
0
 66
1
 10
0.0
 20
0.0
 30
0.0
 70
8
  0
VERTEX
  8
0
 10
64.11973611815647
 20
13.124466612834064
 30
0.0
  0
VERTEX
  8
0
 10
64.45473611815646
 20
13.704703633369638
 30
0.0
  0
VERTEX
  8
0
 10
66.02657222602522
 20
12.797203633369637
 30
0.0
  0
VERTEX
  8
0
 10
66.85657222602522
 20
14.234805803651806
 30
0.0
  0
VERTEX
  8
0
 10
65.28473611815646
 20
15.142305803651807
 30
0.0
  0
VERTEX
  8
0
 10
65.61973611815645
 20
15.72254282418738
 30
0.0
  0
VERTEX
  8
0
 10
70.37303464120059
 20
12.978224642369199
 30
0.0
  0
VERTEX
  8
0
 10
70.0380346412006
 20
12.397987621833625
 30
0.0
  0
VERTEX
  8
0
 10
68.46619853333183
 20
13.305487621833626
 30
0.0
  0
VERTEX
  8
0
 10
67.63619853333184
 20
11.867885451551459
 30
0.0
  0
VERTEX
  8
0
 10
69.2080346412006
 20
10.960385451551458
 30
0.0
  0
VERTEX
  8
0
 10
68.8730346412006
 20
10.380148431015884
 30
0.0
  0
VERTEX
  8
0
 10
64.11973611815647
 20
13.124466612834064
 30
0.0
  0
SEQEND
  0
POLYLINE
  8
0
 66
1
 10
0.0
 20
0.0
 30
0.0
 70
8
  0
VERTEX
  8
0
 10
50.54934029539117
 20
10.380148431015883
 30
0.0
  0
VERTEX
  8
0
 10
50.21434029539117
 20
10.960385451551456
 30
0.0
  0
VERTEX
  8
0
 10
51.78617640325992
 20
11.867885451551457
 30
0.0
  0
VERTEX
  8
0
 10
50.956176403259924
 20
13.305487621833626
 30
0.0
  0
VERTEX
  8
0
 10
49.38434029539117
 20
12.397987621833625
 30
0.0
  0
VERTEX
  8
0
 10
49.04934029539117
 20
12.978224642369199
 30
0.0
  0
VERTEX
  8
0
 10
53.802638818435305
 20
15.72254282418738
 30
0.0
  0
VERTEX
  8
0
 10
54.137638818435306
 20
15.142305803651807
 30
0.0
  0
VERTEX
  8
0
 10
52.56580271056655
 20
14.234805803651806
 30
0.0
  0
VERTEX
  8
0
 10
53.39580271056655
 20
12.797203633369637
 30
0.0
  0
VERTEX
  8
0
 10
54.967638818435304
 20
13.704703633369638
 30
0.0
  0
VERTEX
  8
0
 10
55.302638818435305
 20
13.124466612834064
 30
0.0
  0
VERTEX
  8
0
 10
50.54934029539117
 20
10.380148431015883
 30
0.0
  0
SEQEND
  0
POLYLINE
  8
0
 66
1
 10
0.0
 20
0.0
 30
0.0
 70
8
  0
VERTEX
  8
0
 10
55.3026388184353
 20
-13.124466612834068
 30
0.0
  0
VERTEX
  8
0
 10
54.9676388184353
 20
-13.704703633369641
 30
0.0
  0
VERTEX
  8
0
 10
53.39580271056654
 20
-12.79720363336964
 30
0.0
  0
VERTEX
  8
0
 10
52.565802710566544
 20
-14.234805803651808
 30
0.0
  0
VERTEX
  8
0
 10
54.1376388184353
 20
-15.142305803651809
 30
0.0
  0
VERTEX
  8
0
 10
53.8026388184353
 20
-15.722542824187382
 30
0.0
  0
VERTEX
  8
0
 10
49.04934029539116
 20
-12.9782246423692
 30
0.0
  0
VERTEX
  8
0
 10
49.38434029539116
 20
-12.397987621833627
 30
0.0
  0
VERTEX
  8
0
 10
50.95617640325992
 20
-13.305487621833628
 30
0.0
  0
VERTEX
  8
0
 10
51.786176403259915
 20
-11.867885451551459
 30
0.0
  0
VERTEX
  8
0
 10
50.21434029539116
 20
-10.960385451551458
 30
0.0
  0
VERTEX
  8
0
 10
50.54934029539116
 20
-10.380148431015884
 30
0.0
  0
VERTEX
  8
0
 10
55.3026388184353
 20
-13.124466612834068
 30
0.0
  0
SEQEND
  0
POLYLINE
  8
0
 66
1
 10
0.0
 20
0.0
 30
0.0
 70
8
  0
VERTEX
  8
0
 10
68.87303464120062
 20
-10.380148431015884
 30
0.0
  0
VERTEX
  8
0
 10
69.20803464120061
 20
-10.960385451551458
 30
0.0
  0
VERTEX
  8
0
 10
67.63619853333185
 20
-11.867885451551459
 30
0.0
  0
VERTEX
  8
0
 10
68.46619853333185
 20
-13.305487621833628
 30
0.0
  0
VERTEX
  8
0
 10
70.03803464120061
 20
-12.397987621833627
 30
0.0
  0
VERTEX
  8
0
 10
70.3730346412006
 20
-12.9782246423692
 30
0.0
  0
VERTEX
  8
0
 10
65.61973611815647
 20
-15.722542824187382
 30
0.0
  0
VERTEX
  8
0
 10
65.28473611815647
 20
-15.142305803651809
 30
0.0
  0
VERTEX
  8
0
 10
66.85657222602524
 20
-14.234805803651808
 30
0.0
  0
VERTEX
  8
0
 10
66.02657222602524
 20
-12.797203633369639
 30
0.0
  0
VERTEX
  8
0
 10
64.45473611815648
 20
-13.70470363336964
 30
0.0
  0
VERTEX
  8
0
 10
64.11973611815648
 20
-13.124466612834066
 30
0.0
  0
VERTEX
  8
0
 10
68.87303464120062
 20
-10.380148431015884
 30
0.0
  0
SEQEND
  0
POLYLINE
  8
0
 66
1
 10
0.0
 20
0.0
 30
0.0
 70
8
  0
VERTEX
  8
0
 10
-13.07039582276531
 20
-27.032009437021436
 30
0.0
  0
VERTEX
  8
0
 10
-8.40039582276531
 20
-27.032009437021436
 30
0.0
  0
VERTEX
  8
0
 10
-8.40039582276531
 20
-28.847009437021438
 30
0.0
  0
VERTEX
  8
0
 10
-7.73039582276531
 20
-28.847009437021438
 30
0.0
  0
VERTEX
  8
0
 10
-7.73039582276531
 20
-23.358373073385074
 30
0.0
  0
VERTEX
  8
0
 10
-8.40039582276531
 20
-23.358373073385074
 30
0.0
  0
VERTEX
  8
0
 10
-8.40039582276531
 20
-25.173373073385076
 30
0.0
  0
VERTEX
  8
0
 10
-13.07039582276531
 20
-25.173373073385076
 30
0.0
  0
SEQEND
  0
LINE
  8
0
 10
-13.550780580494646
 20
-24.341322265816196
 30
0.0
 11
-13.07039582276531
 21
-25.173373073385076
 31
0.0
  0
POLYLINE
  8
0
 66
1
 10
0.0
 20
0.0
 30
0.0
 70
8
  0
VERTEX
  8
0
 10
-13.550780580494646
 20
-24.341322265816196
 30
0.0
  0
VERTEX
  8
0
 10
-11.215780580494645
 20
-20.29698363014287
 30
0.0
  0
VERTEX
  8
0
 10
-9.643944472625888
 20
-21.204483630142867
 30
0.0
  0
VERTEX
  8
0
 10
-9.308944472625887
 20
-20.624246609607294
 30
0.0
  0
VERTEX
  8
0
 10
-14.062242995670022
 20
-17.879928427789114
 30
0.0
  0
VERTEX
  8
0
 10
-14.397242995670023
 20
-18.460165448324688
 30
0.0
  0
VERTEX
  8
0
 10
-12.825406887801266
 20
-19.367665448324686
 30
0.0
  0
VERTEX
  8
0
 10
-15.160406887801265
 20
-23.412004083998013
 30
0.0
  0
SEQEND
  0
LINE
  8
0
 10
-16.12117640325994
 20
-23.412004083998013
 30
0.0
 11
-15.160406887801265
 21
-23.412004083998013
 31
0.0
  0
POLYLINE
  8
0
 66
1
 10
0.0
 20
0.0
 30
0.0
 70
8
  0
VERTEX
  8
0
 10
-16.12117640325994
 20
-23.412004083998013
 30
0.0
  0
VERTEX
  8
0
 10
-18.45617640325994
 20
-19.367665448324686
 30
0.0
  0
VERTEX
  8
0
 10
-16.884340295391183
 20
-18.460165448324688
 30
0.0
  0
VERTEX
  8
0
 10
-17.219340295391184
 20
-17.879928427789114
 30
0.0
  0
VERTEX
  8
0
 10
-21.972638818435318
 20
-20.624246609607297
 30
0.0
  0
VERTEX
  8
0
 10
-21.637638818435317
 20
-21.20448363014287
 30
0.0
  0
VERTEX
  8
0
 10
-20.06580271056656
 20
-20.296983630142872
 30
0.0
  0
VERTEX
  8
0
 10
-17.73080271056656
 20
-24.3413222658162
 30
0.0
  0
SEQEND
  0
LINE
  8
0
 10
-18.2111874682959
 20
-25.173373073385072
 30
0.0
 11
-17.73080271056656
 21
-24.3413222658162
 31
0.0
  0
POLYLINE
  8
0
 66
1
 10
0.0
 20
0.0
 30
0.0
 70
8
  0
VERTEX
  8
0
 10
-18.2111874682959
 20
-25.173373073385072
 30
0.0
  0
VERTEX
  8
0
 10
-22.8811874682959
 20
-25.173373073385072
 30
0.0
  0
VERTEX
  8
0
 10
-22.8811874682959
 20
-23.35837307338507
 30
0.0
  0
VERTEX
  8
0
 10
-23.5511874682959
 20
-23.35837307338507
 30
0.0
  0
VERTEX
  8
0
 10
-23.5511874682959
 20
-28.847009437021434
 30
0.0
  0
VERTEX
  8
0
 10
-22.8811874682959
 20
-28.847009437021434
 30
0.0
  0
VERTEX
  8
0
 10
-22.8811874682959
 20
-27.032009437021433
 30
0.0
  0
VERTEX
  8
0
 10
-18.211187468295897
 20
-27.032009437021433
 30
0.0
  0
SEQEND
  0
LINE
  8
0
 10
-17.730802710566564
 20
-27.86406024459031
 30
0.0
 11
-18.211187468295897
 21
-27.032009437021433
 31
0.0
  0
POLYLINE
  8
0
 66
1
 10
0.0
 20
0.0
 30
0.0
 70
8
  0
VERTEX
  8
0
 10
-17.730802710566564
 20
-27.86406024459031
 30
0.0
  0
VERTEX
  8
0
 10
-20.065802710566565
 20
-31.908398880263636
 30
0.0
  0
VERTEX
  8
0
 10
-21.63763881843532
 20
-31.000898880263637
 30
0.0
  0
VERTEX
  8
0
 10
-21.97263881843532
 20
-31.58113590079921
 30
0.0
  0
VERTEX
  8
0
 10
-17.219340295391188
 20
-34.3254540826174
 30
0.0
  0
VERTEX
  8
0
 10
-16.884340295391187
 20
-33.74521706208182
 30
0.0
  0
VERTEX
  8
0
 10
-18.456176403259942
 20
-32.83771706208182
 30
0.0
  0
VERTEX
  8
0
 10
-16.12117640325994
 20
-28.793378426408495
 30
0.0
  0
SEQEND
  0
LINE
  8
0
 10
-15.160406887801269
 20
-28.7933784264085
 30
0.0
 11
-16.12117640325994
 21
-28.793378426408495
 31
0.0
  0
POLYLINE
  8
0
 66
1
 10
0.0
 20
0.0
 30
0.0
 70
8
  0
VERTEX
  8
0
 10
-15.160406887801269
 20
-28.7933784264085
 30
0.0
  0
VERTEX
  8
0
 10
-12.825406887801268
 20
-32.83771706208183
 30
0.0
  0
VERTEX
  8
0
 10
-14.397242995670025
 20
-33.74521706208183
 30
0.0
  0
VERTEX
  8
0
 10
-14.062242995670024
 20
-34.325454082617405
 30
0.0
  0
VERTEX
  8
0
 10
-9.308944472625889
 20
-31.581135900799225
 30
0.0
  0
VERTEX
  8
0
 10
-9.643944472625888
 20
-31.00089888026365
 30
0.0
  0
VERTEX
  8
0
 10
-11.215780580494645
 20
-31.90839888026365
 30
0.0
  0
VERTEX
  8
0
 10
-13.550780580494648
 20
-27.864060244590323
 30
0.0
  0
SEQEND
  0
LINE
  8
0
 10
-13.550780580494648
 20
-27.864060244590323
 30
0.0
 11
-13.07039582276531
 21
-27.032009437021436
 31
0.0
  0
POLYLINE
  8
0
 66
1
 10
0.0
 20
0.0
 30
0.0
 70
8
  0
VERTEX
  8
0
 10
-2.070395822765309
 20
-23.35837307338507
 30
0.0
  0
VERTEX
  8
0
 10
-1.4003958227653093
 20
-23.35837307338507
 30
0.0
  0
VERTEX
  8
0
 10
-1.400395822765309
 20
-25.173373073385072
 30
0.0
  0
VERTEX
  8
0
 10
0.2596041772346911
 20
-25.173373073385072
 30
0.0
  0
VERTEX
  8
0
 10
0.2596041772346912
 20
-23.35837307338507
 30
0.0
  0
VERTEX
  8
0
 10
0.9296041772346912
 20
-23.35837307338507
 30
0.0
  0
VERTEX
  8
0
 10
0.9296041772346916
 20
-28.847009437021434
 30
0.0
  0
VERTEX
  8
0
 10
0.25960417723469154
 20
-28.847009437021434
 30
0.0
  0
VERTEX
  8
0
 10
0.25960417723469165
 20
-27.032009437021433
 30
0.0
  0
VERTEX
  8
0
 10
-1.4003958227653084
 20
-27.032009437021433
 30
0.0
  0
VERTEX
  8
0
 10
-1.4003958227653082
 20
-28.847009437021434
 30
0.0
  0
VERTEX
  8
0
 10
-2.0703958227653083
 20
-28.847009437021434
 30
0.0
  0
VERTEX
  8
0
 10
-2.070395822765309
 20
-23.35837307338507
 30
0.0
  0
SEQEND
  0
POLYLINE
  8
0
 66
1
 10
0.0
 20
0.0
 30
0.0
 70
8
  0
VERTEX
  8
0
 10
-24.802638818435316
 20
-15.72254282418737
 30
0.0
  0
VERTEX
  8
0
 10
-25.137638818435317
 20
-15.142305803651796
 30
0.0
  0
VERTEX
  8
0
 10
-23.56580271056656
 20
-14.234805803651795
 30
0.0
  0
VERTEX
  8
0
 10
-24.39580271056656
 20
-12.797203633369627
 30
0.0
  0
VERTEX
  8
0
 10
-25.967638818435315
 20
-13.704703633369627
 30
0.0
  0
VERTEX
  8
0
 10
-26.302638818435316
 20
-13.124466612834054
 30
0.0
  0
VERTEX
  8
0
 10
-21.549340295391183
 20
-10.380148431015872
 30
0.0
  0
VERTEX
  8
0
 10
-21.21434029539118
 20
-10.960385451551446
 30
0.0
  0
VERTEX
  8
0
 10
-22.786176403259937
 20
-11.867885451551446
 30
0.0
  0
VERTEX
  8
0
 10
-21.956176403259935
 20
-13.305487621833615
 30
0.0
  0
VERTEX
  8
0
 10
-20.38434029539118
 20
-12.397987621833614
 30
0.0
  0
VERTEX
  8
0
 10
-20.04934029539118
 20
-12.978224642369188
 30
0.0
  0
VERTEX
  8
0
 10
-24.802638818435316
 20
-15.72254282418737
 30
0.0
  0
SEQEND
  0
POLYLINE
  8
0
 66
1
 10
0.0
 20
0.0
 30
0.0
 70
8
  0
VERTEX
  8
0
 10
-29.2111874682959
 20
-28.847009437021438
 30
0.0
  0
VERTEX
  8
0
 10
-29.881187468295902
 20
-28.847009437021438
 30
0.0
  0
VERTEX
  8
0
 10
-29.881187468295902
 20
-27.032009437021436
 30
0.0
  0
VERTEX
  8
0
 10
-31.541187468295902
 20
-27.032009437021436
 30
0.0
  0
VERTEX
  8
0
 10
-31.541187468295902
 20
-28.847009437021438
 30
0.0
  0
VERTEX
  8
0
 10
-32.211187468295904
 20
-28.847009437021438
 30
0.0
  0
VERTEX
  8
0
 10
-32.211187468295904
 20
-23.358373073385074
 30
0.0
  0
VERTEX
  8
0
 10
-31.541187468295902
 20
-23.358373073385074
 30
0.0
  0
VERTEX
  8
0
 10
-31.541187468295902
 20
-25.173373073385076
 30
0.0
  0
VERTEX
  8
0
 10
-29.881187468295902
 20
-25.173373073385076
 30
0.0
  0
VERTEX
  8
0
 10
-29.881187468295902
 20
-23.358373073385074
 30
0.0
  0
VERTEX
  8
0
 10
-29.2111874682959
 20
-23.358373073385074
 30
0.0
  0
VERTEX
  8
0
 10
-29.2111874682959
 20
-28.847009437021438
 30
0.0
  0
SEQEND
  0
POLYLINE
  8
0
 66
1
 10
0.0
 20
0.0
 30
0.0
 70
8
  0
VERTEX
  8
0
 10
-20.049340295391193
 20
-39.22715786803732
 30
0.0
  0
VERTEX
  8
0
 10
-20.384340295391194
 20
-39.807394888572894
 30
0.0
  0
VERTEX
  8
0
 10
-21.95617640325995
 20
-38.899894888572895
 30
0.0
  0
VERTEX
  8
0
 10
-22.78617640325995
 20
-40.337497058855064
 30
0.0
  0
VERTEX
  8
0
 10
-21.214340295391196
 20
-41.24499705885506
 30
0.0
  0
VERTEX
  8
0
 10
-21.549340295391197
 20
-41.82523407939064
 30
0.0
  0
VERTEX
  8
0
 10
-26.302638818435334
 20
-39.08091589757246
 30
0.0
  0
VERTEX
  8
0
 10
-25.967638818435333
 20
-38.50067887703688
 30
0.0
  0
VERTEX
  8
0
 10
-24.395802710566578
 20
-39.40817887703688
 30
0.0
  0
VERTEX
  8
0
 10
-23.56580271056658
 20
-37.97057670675471
 30
0.0
  0
VERTEX
  8
0
 10
-25.137638818435335
 20
-37.063076706754714
 30
0.0
  0
VERTEX
  8
0
 10
-24.802638818435334
 20
-36.48283968621914
 30
0.0
  0
VERTEX
  8
0
 10
-20.049340295391193
 20
-39.22715786803732
 30
0.0
  0
SEQEND
  0
POLYLINE
  8
0
 66
1
 10
0.0
 20
0.0
 30
0.0
 70
8
  0
VERTEX
  8
0
 10
-6.478944472625889
 20
-36.482839686219144
 30
0.0
  0
VERTEX
  8
0
 10
-6.143944472625889
 20
-37.06307670675472
 30
0.0
  0
VERTEX
  8
0
 10
-7.715780580494645
 20
-37.97057670675472
 30
0.0
  0
VERTEX
  8
0
 10
-6.885780580494645
 20
-39.40817887703689
 30
0.0
  0
VERTEX
  8
0
 10
-5.313944472625889
 20
-38.50067887703689
 30
0.0
  0
VERTEX
  8
0
 10
-4.978944472625889
 20
-39.08091589757247
 30
0.0
  0
VERTEX
  8
0
 10
-9.732242995670024
 20
-41.82523407939065
 30
0.0
  0
VERTEX
  8
0
 10
-10.067242995670023
 20
-41.24499705885507
 30
0.0
  0
VERTEX
  8
0
 10
-8.495406887801266
 20
-40.33749705885507
 30
0.0
  0
VERTEX
  8
0
 10
-9.325406887801266
 20
-38.8998948885729
 30
0.0
  0
VERTEX
  8
0
 10
-10.897242995670023
 20
-39.8073948885729
 30
0.0
  0
VERTEX
  8
0
 10
-11.232242995670022
 20
-39.227157868037324
 30
0.0
  0
VERTEX
  8
0
 10
-6.478944472625889
 20
-36.482839686219144
 30
0.0
  0
SEQEND
  0
POLYLINE
  8
0
 66
1
 10
0.0
 20
0.0
 30
0.0
 70
8
  0
VERTEX
  8
0
 10
17.07039582276528
 20
-27.032009437021436
 30
0.0
  0
VERTEX
  8
0
 10
21.74039582276528
 20
-27.032009437021436
 30
0.0
  0
VERTEX
  8
0
 10
21.74039582276528
 20
-28.847009437021438
 30
0.0
  0
VERTEX
  8
0
 10
22.41039582276528
 20
-28.847009437021438
 30
0.0
  0
VERTEX
  8
0
 10
22.41039582276528
 20
-23.358373073385074
 30
0.0
  0
VERTEX
  8
0
 10
21.74039582276528
 20
-23.358373073385074
 30
0.0
  0
VERTEX
  8
0
 10
21.74039582276528
 20
-25.173373073385076
 30
0.0
  0
VERTEX
  8
0
 10
17.070395822765278
 20
-25.173373073385076
 30
0.0
  0
SEQEND
  0
LINE
  8
0
 10
16.590011065035945
 20
-24.341322265816196
 30
0.0
 11
17.070395822765278
 21
-25.173373073385076
 31
0.0
  0
POLYLINE
  8
0
 66
1
 10
0.0
 20
0.0
 30
0.0
 70
8
  0
VERTEX
  8
0
 10
16.590011065035945
 20
-24.341322265816196
 30
0.0
  0
VERTEX
  8
0
 10
18.925011065035946
 20
-20.29698363014287
 30
0.0
  0
VERTEX
  8
0
 10
20.4968471729047
 20
-21.204483630142867
 30
0.0
  0
VERTEX
  8
0
 10
20.831847172904702
 20
-20.624246609607294
 30
0.0
  0
VERTEX
  8
0
 10
16.078548649860565
 20
-17.879928427789114
 30
0.0
  0
VERTEX
  8
0
 10
15.743548649860564
 20
-18.460165448324688
 30
0.0
  0
VERTEX
  8
0
 10
17.31538475772932
 20
-19.367665448324686
 30
0.0
  0
VERTEX
  8
0
 10
14.98038475772932
 20
-23.412004083998013
 30
0.0
  0
SEQEND
  0
LINE
  8
0
 10
14.01961524227065
 20
-23.412004083998013
 30
0.0
 11
14.98038475772932
 21
-23.412004083998013
 31
0.0
  0
POLYLINE
  8
0
 66
1
 10
0.0
 20
0.0
 30
0.0
 70
8
  0
VERTEX
  8
0
 10
14.01961524227065
 20
-23.412004083998013
 30
0.0
  0
VERTEX
  8
0
 10
11.68461524227065
 20
-19.367665448324686
 30
0.0
  0
VERTEX
  8
0
 10
13.256451350139407
 20
-18.460165448324688
 30
0.0
  0
VERTEX
  8
0
 10
12.921451350139408
 20
-17.879928427789114
 30
0.0
  0
VERTEX
  8
0
 10
8.168152827095273
 20
-20.624246609607297
 30
0.0
  0
VERTEX
  8
0
 10
8.503152827095274
 20
-21.20448363014287
 30
0.0
  0
VERTEX
  8
0
 10
10.074988934964031
 20
-20.296983630142872
 30
0.0
  0
VERTEX
  8
0
 10
12.409988934964032
 20
-24.3413222658162
 30
0.0
  0
SEQEND
  0
LINE
  8
0
 10
11.92960417723469
 20
-25.173373073385072
 30
0.0
 11
12.409988934964032
 21
-24.3413222658162
 31
0.0
  0
POLYLINE
  8
0
 66
1
 10
0.0
 20
0.0
 30
0.0
 70
8
  0
VERTEX
  8
0
 10
11.92960417723469
 20
-25.173373073385072
 30
0.0
  0
VERTEX
  8
0
 10
7.25960417723469
 20
-25.173373073385072
 30
0.0
  0
VERTEX
  8
0
 10
7.25960417723469
 20
-23.35837307338507
 30
0.0
  0
VERTEX
  8
0
 10
6.5896041772346905
 20
-23.35837307338507
 30
0.0
  0
VERTEX
  8
0
 10
6.58960417723469
 20
-28.847009437021434
 30
0.0
  0
VERTEX
  8
0
 10
7.2596041772346895
 20
-28.847009437021434
 30
0.0
  0
VERTEX
  8
0
 10
7.2596041772346895
 20
-27.032009437021433
 30
0.0
  0
VERTEX
  8
0
 10
11.92960417723469
 20
-27.032009437021433
 30
0.0
  0
SEQEND
  0
LINE
  8
0
 10
12.409988934964026
 20
-27.86406024459031
 30
0.0
 11
11.92960417723469
 21
-27.032009437021433
 31
0.0
  0
POLYLINE
  8
0
 66
1
 10
0.0
 20
0.0
 30
0.0
 70
8
  0
VERTEX
  8
0
 10
12.409988934964026
 20
-27.86406024459031
 30
0.0
  0
VERTEX
  8
0
 10
10.074988934964024
 20
-31.908398880263636
 30
0.0
  0
VERTEX
  8
0
 10
8.503152827095267
 20
-31.000898880263637
 30
0.0
  0
VERTEX
  8
0
 10
8.168152827095266
 20
-31.58113590079921
 30
0.0
  0
VERTEX
  8
0
 10
12.9214513501394
 20
-34.3254540826174
 30
0.0
  0
VERTEX
  8
0
 10
13.256451350139399
 20
-33.74521706208182
 30
0.0
  0
VERTEX
  8
0
 10
11.684615242270642
 20
-32.83771706208182
 30
0.0
  0
VERTEX
  8
0
 10
14.019615242270643
 20
-28.793378426408495
 30
0.0
  0
SEQEND
  0
LINE
  8
0
 10
14.980384757729322
 20
-28.7933784264085
 30
0.0
 11
14.019615242270643
 21
-28.793378426408495
 31
0.0
  0
POLYLINE
  8
0
 66
1
 10
0.0
 20
0.0
 30
0.0
 70
8
  0
VERTEX
  8
0
 10
14.980384757729322
 20
-28.7933784264085
 30
0.0
  0
VERTEX
  8
0
 10
17.315384757729323
 20
-32.83771706208183
 30
0.0
  0
VERTEX
  8
0
 10
15.743548649860566
 20
-33.74521706208183
 30
0.0
  0
VERTEX
  8
0
 10
16.078548649860565
 20
-34.325454082617405
 30
0.0
  0
VERTEX
  8
0
 10
20.831847172904702
 20
-31.581135900799225
 30
0.0
  0
VERTEX
  8
0
 10
20.4968471729047
 20
-31.00089888026365
 30
0.0
  0
VERTEX
  8
0
 10
18.925011065035946
 20
-31.90839888026365
 30
0.0
  0
VERTEX
  8
0
 10
16.590011065035945
 20
-27.864060244590323
 30
0.0
  0
SEQEND
  0
LINE
  8
0
 10
16.590011065035945
 20
-27.864060244590323
 30
0.0
 11
17.07039582276528
 21
-27.032009437021436
 31
0.0
  0
POLYLINE
  8
0
 66
1
 10
0.0
 20
0.0
 30
0.0
 70
8
  0
VERTEX
  8
0
 10
28.07039582276528
 20
-23.35837307338507
 30
0.0
  0
VERTEX
  8
0
 10
28.740395822765283
 20
-23.35837307338507
 30
0.0
  0
VERTEX
  8
0
 10
28.740395822765283
 20
-25.173373073385072
 30
0.0
  0
VERTEX
  8
0
 10
30.400395822765283
 20
-25.173373073385072
 30
0.0
  0
VERTEX
  8
0
 10
30.400395822765283
 20
-23.35837307338507
 30
0.0
  0
VERTEX
  8
0
 10
31.070395822765285
 20
-23.35837307338507
 30
0.0
  0
VERTEX
  8
0
 10
31.070395822765285
 20
-28.847009437021434
 30
0.0
  0
VERTEX
  8
0
 10
30.400395822765283
 20
-28.847009437021434
 30
0.0
  0
VERTEX
  8
0
 10
30.400395822765283
 20
-27.032009437021433
 30
0.0
  0
VERTEX
  8
0
 10
28.740395822765283
 20
-27.032009437021433
 30
0.0
  0
VERTEX
  8
0
 10
28.740395822765283
 20
-28.847009437021434
 30
0.0
  0
VERTEX
  8
0
 10
28.07039582276528
 20
-28.847009437021434
 30
0.0
  0
VERTEX
  8
0
 10
28.07039582276528
 20
-23.35837307338507
 30
0.0
  0
SEQEND
  0
POLYLINE
  8
0
 66
1
 10
0.0
 20
0.0
 30
0.0
 70
8
  0
VERTEX
  8
0
 10
10.091451350139398
 20
-39.22715786803732
 30
0.0
  0
VERTEX
  8
0
 10
9.756451350139397
 20
-39.807394888572894
 30
0.0
  0
VERTEX
  8
0
 10
8.18461524227064
 20
-38.899894888572895
 30
0.0
  0
VERTEX
  8
0
 10
7.354615242270639
 20
-40.337497058855064
 30
0.0
  0
VERTEX
  8
0
 10
8.926451350139395
 20
-41.24499705885506
 30
0.0
  0
VERTEX
  8
0
 10
8.591451350139394
 20
-41.82523407939064
 30
0.0
  0
VERTEX
  8
0
 10
3.838152827095259
 20
-39.08091589757246
 30
0.0
  0
VERTEX
  8
0
 10
4.173152827095259
 20
-38.50067887703688
 30
0.0
  0
VERTEX
  8
0
 10
5.744988934964015
 20
-39.40817887703688
 30
0.0
  0
VERTEX
  8
0
 10
6.574988934964015
 20
-37.97057670675471
 30
0.0
  0
VERTEX
  8
0
 10
5.003152827095259
 20
-37.063076706754714
 30
0.0
  0
VERTEX
  8
0
 10
5.338152827095259
 20
-36.48283968621914
 30
0.0
  0
VERTEX
  8
0
 10
10.091451350139398
 20
-39.22715786803732
 30
0.0
  0
SEQEND
  0
POLYLINE
  8
0
 66
1
 10
0.0
 20
0.0
 30
0.0
 70
8
  0
VERTEX
  8
0
 10
23.6618471729047
 20
-36.482839686219144
 30
0.0
  0
VERTEX
  8
0
 10
23.9968471729047
 20
-37.06307670675472
 30
0.0
  0
VERTEX
  8
0
 10
22.425011065035946
 20
-37.97057670675472
 30
0.0
  0
VERTEX
  8
0
 10
23.255011065035948
 20
-39.40817887703689
 30
0.0
  0
VERTEX
  8
0
 10
24.826847172904703
 20
-38.50067887703689
 30
0.0
  0
VERTEX
  8
0
 10
25.161847172904704
 20
-39.08091589757247
 30
0.0
  0
VERTEX
  8
0
 10
20.40854864986057
 20
-41.82523407939065
 30
0.0
  0
VERTEX
  8
0
 10
20.07354864986057
 20
-41.24499705885507
 30
0.0
  0
VERTEX
  8
0
 10
21.645384757729325
 20
-40.33749705885507
 30
0.0
  0
VERTEX
  8
0
 10
20.815384757729326
 20
-38.8998948885729
 30
0.0
  0
VERTEX
  8
0
 10
19.24354864986057
 20
-39.8073948885729
 30
0.0
  0
VERTEX
  8
0
 10
18.90854864986057
 20
-39.227157868037324
 30
0.0
  0
VERTEX
  8
0
 10
23.6618471729047
 20
-36.482839686219144
 30
0.0
  0
SEQEND
  0
POLYLINE
  8
0
 66
1
 10
0.0
 20
0.0
 30
0.0
 70
8
  0
VERTEX
  8
0
 10
47.211187468295876
 20
-27.032009437021436
 30
0.0
  0
VERTEX
  8
0
 10
51.88118746829588
 20
-27.032009437021436
 30
0.0
  0
VERTEX
  8
0
 10
51.88118746829588
 20
-28.847009437021438
 30
0.0
  0
VERTEX
  8
0
 10
52.55118746829588
 20
-28.847009437021438
 30
0.0
  0
VERTEX
  8
0
 10
52.55118746829588
 20
-23.358373073385074
 30
0.0
  0
VERTEX
  8
0
 10
51.88118746829588
 20
-23.358373073385074
 30
0.0
  0
VERTEX
  8
0
 10
51.88118746829588
 20
-25.173373073385076
 30
0.0
  0
VERTEX
  8
0
 10
47.211187468295876
 20
-25.173373073385076
 30
0.0
  0
SEQEND
  0
LINE
  8
0
 10
46.730802710566536
 20
-24.341322265816196
 30
0.0
 11
47.211187468295876
 21
-25.173373073385076
 31
0.0
  0
POLYLINE
  8
0
 66
1
 10
0.0
 20
0.0
 30
0.0
 70
8
  0
VERTEX
  8
0
 10
46.730802710566536
 20
-24.341322265816196
 30
0.0
  0
VERTEX
  8
0
 10
49.06580271056654
 20
-20.29698363014287
 30
0.0
  0
VERTEX
  8
0
 10
50.63763881843529
 20
-21.204483630142867
 30
0.0
  0
VERTEX
  8
0
 10
50.97263881843529
 20
-20.624246609607294
 30
0.0
  0
VERTEX
  8
0
 10
46.219340295391156
 20
-17.879928427789114
 30
0.0
  0
VERTEX
  8
0
 10
45.884340295391155
 20
-18.460165448324688
 30
0.0
  0
VERTEX
  8
0
 10
47.45617640325991
 20
-19.367665448324686
 30
0.0
  0
VERTEX
  8
0
 10
45.12117640325991
 20
-23.412004083998013
 30
0.0
  0
SEQEND
  0
LINE
  8
0
 10
44.16040688780124
 20
-23.412004083998013
 30
0.0
 11
45.12117640325991
 21
-23.412004083998013
 31
0.0
  0
POLYLINE
  8
0
 66
1
 10
0.0
 20
0.0
 30
0.0
 70
8
  0
VERTEX
  8
0
 10
44.16040688780124
 20
-23.412004083998013
 30
0.0
  0
VERTEX
  8
0
 10
41.825406887801236
 20
-19.367665448324686
 30
0.0
  0
VERTEX
  8
0
 10
43.39724299566999
 20
-18.460165448324688
 30
0.0
  0
VERTEX
  8
0
 10
43.06224299566999
 20
-17.879928427789114
 30
0.0
  0
VERTEX
  8
0
 10
38.30894447262585
 20
-20.624246609607297
 30
0.0
  0
VERTEX
  8
0
 10
38.643944472625854
 20
-21.20448363014287
 30
0.0
  0
VERTEX
  8
0
 10
40.21578058049461
 20
-20.296983630142872
 30
0.0
  0
VERTEX
  8
0
 10
42.55078058049461
 20
-24.3413222658162
 30
0.0
  0
SEQEND
  0
LINE
  8
0
 10
42.07039582276528
 20
-25.173373073385072
 30
0.0
 11
42.55078058049461
 21
-24.3413222658162
 31
0.0
  0
POLYLINE
  8
0
 66
1
 10
0.0
 20
0.0
 30
0.0
 70
8
  0
VERTEX
  8
0
 10
42.07039582276528
 20
-25.173373073385072
 30
0.0
  0
VERTEX
  8
0
 10
37.400395822765276
 20
-25.173373073385072
 30
0.0
  0
VERTEX
  8
0
 10
37.400395822765276
 20
-23.35837307338507
 30
0.0
  0
VERTEX
  8
0
 10
36.730395822765274
 20
-23.35837307338507
 30
0.0
  0
VERTEX
  8
0
 10
36.730395822765274
 20
-28.847009437021434
 30
0.0
  0
VERTEX
  8
0
 10
37.400395822765276
 20
-28.847009437021434
 30
0.0
  0
VERTEX
  8
0
 10
37.400395822765276
 20
-27.032009437021433
 30
0.0
  0
VERTEX
  8
0
 10
42.07039582276528
 20
-27.032009437021433
 30
0.0
  0
SEQEND
  0
LINE
  8
0
 10
42.55078058049462
 20
-27.86406024459031
 30
0.0
 11
42.07039582276528
 21
-27.032009437021433
 31
0.0
  0
POLYLINE
  8
0
 66
1
 10
0.0
 20
0.0
 30
0.0
 70
8
  0
VERTEX
  8
0
 10
42.55078058049462
 20
-27.86406024459031
 30
0.0
  0
VERTEX
  8
0
 10
40.21578058049462
 20
-31.908398880263636
 30
0.0
  0
VERTEX
  8
0
 10
38.64394447262586
 20
-31.000898880263637
 30
0.0
  0
VERTEX
  8
0
 10
38.30894447262586
 20
-31.58113590079921
 30
0.0
  0
VERTEX
  8
0
 10
43.06224299566999
 20
-34.3254540826174
 30
0.0
  0
VERTEX
  8
0
 10
43.39724299566999
 20
-33.74521706208182
 30
0.0
  0
VERTEX
  8
0
 10
41.825406887801236
 20
-32.83771706208182
 30
0.0
  0
VERTEX
  8
0
 10
44.16040688780124
 20
-28.793378426408495
 30
0.0
  0
SEQEND
  0
LINE
  8
0
 10
45.121176403259916
 20
-28.7933784264085
 30
0.0
 11
44.16040688780124
 21
-28.793378426408495
 31
0.0
  0
POLYLINE
  8
0
 66
1
 10
0.0
 20
0.0
 30
0.0
 70
8
  0
VERTEX
  8
0
 10
45.121176403259916
 20
-28.7933784264085
 30
0.0
  0
VERTEX
  8
0
 10
47.45617640325992
 20
-32.83771706208183
 30
0.0
  0
VERTEX
  8
0
 10
45.88434029539116
 20
-33.74521706208183
 30
0.0
  0
VERTEX
  8
0
 10
46.21934029539116
 20
-34.325454082617405
 30
0.0
  0
VERTEX
  8
0
 10
50.9726388184353
 20
-31.581135900799225
 30
0.0
  0
VERTEX
  8
0
 10
50.6376388184353
 20
-31.00089888026365
 30
0.0
  0
VERTEX
  8
0
 10
49.065802710566544
 20
-31.90839888026365
 30
0.0
  0
VERTEX
  8
0
 10
46.73080271056654
 20
-27.864060244590323
 30
0.0
  0
SEQEND
  0
LINE
  8
0
 10
46.73080271056654
 20
-27.864060244590323
 30
0.0
 11
47.211187468295876
 21
-27.032009437021436
 31
0.0
  0
POLYLINE
  8
0
 66
1
 10
0.0
 20
0.0
 30
0.0
 70
8
  0
VERTEX
  8
0
 10
58.211187468295876
 20
-23.35837307338507
 30
0.0
  0
VERTEX
  8
0
 10
58.88118746829588
 20
-23.35837307338507
 30
0.0
  0
VERTEX
  8
0
 10
58.88118746829588
 20
-25.173373073385072
 30
0.0
  0
VERTEX
  8
0
 10
60.541187468295874
 20
-25.173373073385072
 30
0.0
  0
VERTEX
  8
0
 10
60.541187468295874
 20
-23.35837307338507
 30
0.0
  0
VERTEX
  8
0
 10
61.211187468295876
 20
-23.35837307338507
 30
0.0
  0
VERTEX
  8
0
 10
61.211187468295876
 20
-28.847009437021434
 30
0.0
  0
VERTEX
  8
0
 10
60.541187468295874
 20
-28.847009437021434
 30
0.0
  0
VERTEX
  8
0
 10
60.541187468295874
 20
-27.032009437021433
 30
0.0
  0
VERTEX
  8
0
 10
58.88118746829588
 20
-27.032009437021433
 30
0.0
  0
VERTEX
  8
0
 10
58.88118746829588
 20
-28.847009437021434
 30
0.0
  0
VERTEX
  8
0
 10
58.211187468295876
 20
-28.847009437021434
 30
0.0
  0
VERTEX
  8
0
 10
58.211187468295876
 20
-23.35837307338507
 30
0.0
  0
SEQEND
  0
POLYLINE
  8
0
 66
1
 10
0.0
 20
0.0
 30
0.0
 70
8
  0
VERTEX
  8
0
 10
40.23224299566999
 20
-39.22715786803732
 30
0.0
  0
VERTEX
  8
0
 10
39.89724299566999
 20
-39.807394888572894
 30
0.0
  0
VERTEX
  8
0
 10
38.325406887801236
 20
-38.899894888572895
 30
0.0
  0
VERTEX
  8
0
 10
37.49540688780124
 20
-40.337497058855064
 30
0.0
  0
VERTEX
  8
0
 10
39.06724299566999
 20
-41.24499705885506
 30
0.0
  0
VERTEX
  8
0
 10
38.73224299566999
 20
-41.82523407939064
 30
0.0
  0
VERTEX
  8
0
 10
33.978944472625855
 20
-39.08091589757246
 30
0.0
  0
VERTEX
  8
0
 10
34.313944472625856
 20
-38.50067887703688
 30
0.0
  0
VERTEX
  8
0
 10
35.88578058049461
 20
-39.40817887703688
 30
0.0
  0
VERTEX
  8
0
 10
36.71578058049461
 20
-37.97057670675471
 30
0.0
  0
VERTEX
  8
0
 10
35.143944472625854
 20
-37.063076706754714
 30
0.0
  0
VERTEX
  8
0
 10
35.478944472625855
 20
-36.48283968621914
 30
0.0
  0
VERTEX
  8
0
 10
40.23224299566999
 20
-39.22715786803732
 30
0.0
  0
SEQEND
  0
POLYLINE
  8
0
 66
1
 10
0.0
 20
0.0
 30
0.0
 70
8
  0
VERTEX
  8
0
 10
53.8026388184353
 20
-36.482839686219144
 30
0.0
  0
VERTEX
  8
0
 10
54.1376388184353
 20
-37.06307670675472
 30
0.0
  0
VERTEX
  8
0
 10
52.565802710566544
 20
-37.97057670675472
 30
0.0
  0
VERTEX
  8
0
 10
53.39580271056654
 20
-39.40817887703689
 30
0.0
  0
VERTEX
  8
0
 10
54.9676388184353
 20
-38.50067887703689
 30
0.0
  0
VERTEX
  8
0
 10
55.3026388184353
 20
-39.08091589757247
 30
0.0
  0
VERTEX
  8
0
 10
50.54934029539116
 20
-41.82523407939065
 30
0.0
  0
VERTEX
  8
0
 10
50.21434029539116
 20
-41.24499705885507
 30
0.0
  0
VERTEX
  8
0
 10
51.786176403259915
 20
-40.33749705885507
 30
0.0
  0
VERTEX
  8
0
 10
50.95617640325992
 20
-38.8998948885729
 30
0.0
  0
VERTEX
  8
0
 10
49.38434029539116
 20
-39.8073948885729
 30
0.0
  0
VERTEX
  8
0
 10
49.04934029539116
 20
-39.227157868037324
 30
0.0
  0
VERTEX
  8
0
 10
53.8026388184353
 20
-36.482839686219144
 30
0.0
  0
SEQEND
  0
POLYLINE
  8
0
 66
1
 10
0.0
 20
0.0
 30
0.0
 70
8
  0
VERTEX
  8
0
 10
1.9999999999999902
 20
-53.134700692224705
 30
0.0
  0
VERTEX
  8
0
 10
6.66999999999999
 20
-53.134700692224705
 30
0.0
  0
VERTEX
  8
0
 10
6.66999999999999
 20
-54.9497006922247
 30
0.0
  0
VERTEX
  8
0
 10
7.33999999999999
 20
-54.9497006922247
 30
0.0
  0
VERTEX
  8
0
 10
7.33999999999999
 20
-49.461064328588336
 30
0.0
  0
VERTEX
  8
0
 10
6.66999999999999
 20
-49.461064328588336
 30
0.0
  0
VERTEX
  8
0
 10
6.66999999999999
 20
-51.27606432858833
 30
0.0
  0
VERTEX
  8
0
 10
1.9999999999999902
 20
-51.27606432858833
 30
0.0
  0
SEQEND
  0
LINE
  8
0
 10
1.5196152422706537
 20
-50.444013521019464
 30
0.0
 11
1.9999999999999902
 21
-51.27606432858833
 31
0.0
  0
POLYLINE
  8
0
 66
1
 10
0.0
 20
0.0
 30
0.0
 70
8
  0
VERTEX
  8
0
 10
1.5196152422706537
 20
-50.444013521019464
 30
0.0
  0
VERTEX
  8
0
 10
3.854615242270654
 20
-46.39967488534614
 30
0.0
  0
VERTEX
  8
0
 10
5.42645135013941
 20
-47.307174885346136
 30
0.0
  0
VERTEX
  8
0
 10
5.76145135013941
 20
-46.72693786481056
 30
0.0
  0
VERTEX
  8
0
 10
1.0081528270952749
 20
-43.98261968299238
 30
0.0
  0
VERTEX
  8
0
 10
0.6731528270952746
 20
-44.562856703527956
 30
0.0
  0
VERTEX
  8
0
 10
2.244988934964031
 20
-45.470356703527955
 30
0.0
  0
VERTEX
  8
0
 10
-0.09001106503596823
 20
-49.51469533920128
 30
0.0
  0
SEQEND
  0
LINE
  8
0
 10
-1.050780580494642
 20
-49.51469533920129
 30
0.0
 11
-0.09001106503596823
 21
-49.51469533920128
 31
0.0
  0
POLYLINE
  8
0
 66
1
 10
0.0
 20
0.0
 30
0.0
 70
8
  0
VERTEX
  8
0
 10
-1.050780580494642
 20
-49.51469533920129
 30
0.0
  0
VERTEX
  8
0
 10
-3.3857805804946413
 20
-45.47035670352796
 30
0.0
  0
VERTEX
  8
0
 10
-1.813944472625885
 20
-44.56285670352796
 30
0.0
  0
VERTEX
  8
0
 10
-2.148944472625885
 20
-43.982619682992386
 30
0.0
  0
VERTEX
  8
0
 10
-6.902242995670019
 20
-46.726937864810566
 30
0.0
  0
VERTEX
  8
0
 10
-6.567242995670019
 20
-47.30717488534614
 30
0.0
  0
VERTEX
  8
0
 10
-4.995406887801263
 20
-46.399674885346144
 30
0.0
  0
VERTEX
  8
0
 10
-2.6604068878012623
 20
-50.44401352101947
 30
0.0
  0
SEQEND
  0
LINE
  8
0
 10
-3.1407916455306015
 20
-51.27606432858834
 30
0.0
 11
-2.6604068878012623
 21
-50.44401352101947
 31
0.0
  0
POLYLINE
  8
0
 66
1
 10
0.0
 20
0.0
 30
0.0
 70
8
  0
VERTEX
  8
0
 10
-3.1407916455306015
 20
-51.27606432858834
 30
0.0
  0
VERTEX
  8
0
 10
-7.8107916455306015
 20
-51.27606432858834
 30
0.0
  0
VERTEX
  8
0
 10
-7.8107916455306015
 20
-49.46106432858834
 30
0.0
  0
VERTEX
  8
0
 10
-8.480791645530601
 20
-49.46106432858834
 30
0.0
  0
VERTEX
  8
0
 10
-8.480791645530603
 20
-54.94970069222471
 30
0.0
  0
VERTEX
  8
0
 10
-7.810791645530603
 20
-54.94970069222471
 30
0.0
  0
VERTEX
  8
0
 10
-7.810791645530603
 20
-53.13470069222471
 30
0.0
  0
VERTEX
  8
0
 10
-3.1407916455306033
 20
-53.13470069222471
 30
0.0
  0
SEQEND
  0
LINE
  8
0
 10
-2.6604068878012654
 20
-53.96675149979358
 30
0.0
 11
-3.1407916455306033
 21
-53.13470069222471
 31
0.0
  0
POLYLINE
  8
0
 66
1
 10
0.0
 20
0.0
 30
0.0
 70
8
  0
VERTEX
  8
0
 10
-2.6604068878012654
 20
-53.96675149979358
 30
0.0
  0
VERTEX
  8
0
 10
-4.995406887801268
 20
-58.01109013546691
 30
0.0
  0
VERTEX
  8
0
 10
-6.567242995670024
 20
-57.10359013546691
 30
0.0
  0
VERTEX
  8
0
 10
-6.902242995670024
 20
-57.683827156002486
 30
0.0
  0
VERTEX
  8
0
 10
-2.1489444726258906
 20
-60.42814533782067
 30
0.0
  0
VERTEX
  8
0
 10
-1.8139444726258906
 20
-59.847908317285096
 30
0.0
  0
VERTEX
  8
0
 10
-3.3857805804946466
 20
-58.9404083172851
 30
0.0
  0
VERTEX
  8
0
 10
-1.0507805804946462
 20
-54.89606968161177
 30
0.0
  0
SEQEND
  0
LINE
  8
0
 10
-0.0900110650359689
 20
-54.896069681611756
 30
0.0
 11
-1.0507805804946462
 21
-54.89606968161177
 31
0.0
  0
POLYLINE
  8
0
 66
1
 10
0.0
 20
0.0
 30
0.0
 70
8
  0
VERTEX
  8
0
 10
-0.0900110650359689
 20
-54.896069681611756
 30
0.0
  0
VERTEX
  8
0
 10
2.2449889349640317
 20
-58.94040831728508
 30
0.0
  0
VERTEX
  8
0
 10
0.6731528270952756
 20
-59.84790831728508
 30
0.0
  0
VERTEX
  8
0
 10
1.0081528270952758
 20
-60.42814533782066
 30
0.0
  0
VERTEX
  8
0
 10
5.761451350139411
 20
-57.68382715600248
 30
0.0
  0
VERTEX
  8
0
 10
5.426451350139411
 20
-57.1035901354669
 30
0.0
  0
VERTEX
  8
0
 10
3.854615242270655
 20
-58.0110901354669
 30
0.0
  0
VERTEX
  8
0
 10
1.5196152422706528
 20
-53.966751499793574
 30
0.0
  0
SEQEND
  0
LINE
  8
0
 10
1.5196152422706528
 20
-53.966751499793574
 30
0.0
 11
1.9999999999999902
 21
-53.134700692224705
 31
0.0
  0
POLYLINE
  8
0
 66
1
 10
0.0
 20
0.0
 30
0.0
 70
8
  0
VERTEX
  8
0
 10
12.99999999999999
 20
-49.461064328588336
 30
0.0
  0
VERTEX
  8
0
 10
13.66999999999999
 20
-49.461064328588336
 30
0.0
  0
VERTEX
  8
0
 10
13.66999999999999
 20
-51.27606432858833
 30
0.0
  0
VERTEX
  8
0
 10
15.32999999999999
 20
-51.27606432858833
 30
0.0
  0
VERTEX
  8
0
 10
15.32999999999999
 20
-49.461064328588336
 30
0.0
  0
VERTEX
  8
0
 10
15.99999999999999
 20
-49.461064328588336
 30
0.0
  0
VERTEX
  8
0
 10
15.99999999999999
 20
-54.949700692224695
 30
0.0
  0
VERTEX
  8
0
 10
15.32999999999999
 20
-54.949700692224695
 30
0.0
  0
VERTEX
  8
0
 10
15.32999999999999
 20
-53.1347006922247
 30
0.0
  0
VERTEX
  8
0
 10
13.66999999999999
 20
-53.1347006922247
 30
0.0
  0
VERTEX
  8
0
 10
13.66999999999999
 20
-54.949700692224695
 30
0.0
  0
VERTEX
  8
0
 10
12.99999999999999
 20
-54.949700692224695
 30
0.0
  0
VERTEX
  8
0
 10
12.99999999999999
 20
-49.461064328588336
 30
0.0
  0
SEQEND
  0
POLYLINE
  8
0
 66
1
 10
0.0
 20
0.0
 30
0.0
 70
8
  0
VERTEX
  8
0
 10
-14.140791645530603
 20
-54.94970069222471
 30
0.0
  0
VERTEX
  8
0
 10
-14.810791645530603
 20
-54.94970069222471
 30
0.0
  0
VERTEX
  8
0
 10
-14.810791645530603
 20
-53.13470069222471
 30
0.0
  0
VERTEX
  8
0
 10
-16.470791645530603
 20
-53.13470069222471
 30
0.0
  0
VERTEX
  8
0
 10
-16.470791645530603
 20
-54.94970069222471
 30
0.0
  0
VERTEX
  8
0
 10
-17.140791645530605
 20
-54.94970069222471
 30
0.0
  0
VERTEX
  8
0
 10
-17.140791645530605
 20
-49.46106432858835
 30
0.0
  0
VERTEX
  8
0
 10
-16.470791645530603
 20
-49.46106432858835
 30
0.0
  0
VERTEX
  8
0
 10
-16.470791645530603
 20
-51.27606432858835
 30
0.0
  0
VERTEX
  8
0
 10
-14.810791645530603
 20
-51.27606432858835
 30
0.0
  0
VERTEX
  8
0
 10
-14.810791645530603
 20
-49.46106432858835
 30
0.0
  0
VERTEX
  8
0
 10
-14.140791645530603
 20
-49.46106432858835
 30
0.0
  0
VERTEX
  8
0
 10
-14.140791645530603
 20
-54.94970069222471
 30
0.0
  0
SEQEND
  0
POLYLINE
  8
0
 66
1
 10
0.0
 20
0.0
 30
0.0
 70
8
  0
VERTEX
  8
0
 10
-4.978944472625894
 20
-65.32984912324059
 30
0.0
  0
VERTEX
  8
0
 10
-5.313944472625894
 20
-65.91008614377617
 30
0.0
  0
VERTEX
  8
0
 10
-6.88578058049465
 20
-65.00258614377617
 30
0.0
  0
VERTEX
  8
0
 10
-7.715780580494651
 20
-66.44018831405833
 30
0.0
  0
VERTEX
  8
0
 10
-6.143944472625895
 20
-67.34768831405833
 30
0.0
  0
VERTEX
  8
0
 10
-6.478944472625895
 20
-67.92792533459391
 30
0.0
  0
VERTEX
  8
0
 10
-11.232242995670031
 20
-65.18360715277572
 30
0.0
  0
VERTEX
  8
0
 10
-10.897242995670032
 20
-64.60337013224014
 30
0.0
  0
VERTEX
  8
0
 10
-9.325406887801277
 20
-65.51087013224014
 30
0.0
  0
VERTEX
  8
0
 10
-8.495406887801277
 20
-64.07326796195798
 30
0.0
  0
VERTEX
  8
0
 10
-10.067242995670034
 20
-63.16576796195798
 30
0.0
  0
VERTEX
  8
0
 10
-9.732242995670035
 20
-62.585530941422405
 30
0.0
  0
VERTEX
  8
0
 10
-4.978944472625894
 20
-65.32984912324059
 30
0.0
  0
SEQEND
  0
POLYLINE
  8
0
 66
1
 10
0.0
 20
0.0
 30
0.0
 70
8
  0
VERTEX
  8
0
 10
8.591451350139412
 20
-62.5855309414224
 30
0.0
  0
VERTEX
  8
0
 10
8.926451350139413
 20
-63.165767961957975
 30
0.0
  0
VERTEX
  8
0
 10
7.354615242270657
 20
-64.07326796195798
 30
0.0
  0
VERTEX
  8
0
 10
8.184615242270658
 20
-65.51087013224014
 30
0.0
  0
VERTEX
  8
0
 10
9.756451350139415
 20
-64.60337013224014
 30
0.0
  0
VERTEX
  8
0
 10
10.091451350139415
 20
-65.18360715277572
 30
0.0
  0
VERTEX
  8
0
 10
5.33815282709528
 20
-67.92792533459391
 30
0.0
  0
VERTEX
  8
0
 10
5.00315282709528
 20
-67.34768831405833
 30
0.0
  0
VERTEX
  8
0
 10
6.574988934964036
 20
-66.44018831405833
 30
0.0
  0
VERTEX
  8
0
 10
5.744988934964036
 20
-65.00258614377617
 30
0.0
  0
VERTEX
  8
0
 10
4.17315282709528
 20
-65.91008614377617
 30
0.0
  0
VERTEX
  8
0
 10
3.8381528270952803
 20
-65.32984912324059
 30
0.0
  0
VERTEX
  8
0
 10
8.591451350139412
 20
-62.5855309414224
 30
0.0
  0
SEQEND
  0
POLYLINE
  8
0
 66
1
 10
0.0
 20
0.0
 30
0.0
 70
8
  0
VERTEX
  8
0
 10
32.140791645530584
 20
-53.134700692224705
 30
0.0
  0
VERTEX
  8
0
 10
36.810791645530585
 20
-53.134700692224705
 30
0.0
  0
VERTEX
  8
0
 10
36.810791645530585
 20
-54.9497006922247
 30
0.0
  0
VERTEX
  8
0
 10
37.48079164553059
 20
-54.9497006922247
 30
0.0
  0
VERTEX
  8
0
 10
37.48079164553059
 20
-49.461064328588336
 30
0.0
  0
VERTEX
  8
0
 10
36.810791645530585
 20
-49.461064328588336
 30
0.0
  0
VERTEX
  8
0
 10
36.810791645530585
 20
-51.27606432858833
 30
0.0
  0
VERTEX
  8
0
 10
32.140791645530584
 20
-51.27606432858833
 30
0.0
  0
SEQEND
  0
LINE
  8
0
 10
31.660406887801244
 20
-50.444013521019464
 30
0.0
 11
32.140791645530584
 21
-51.27606432858833
 31
0.0
  0
POLYLINE
  8
0
 66
1
 10
0.0
 20
0.0
 30
0.0
 70
8
  0
VERTEX
  8
0
 10
31.660406887801244
 20
-50.444013521019464
 30
0.0
  0
VERTEX
  8
0
 10
33.995406887801245
 20
-46.39967488534614
 30
0.0
  0
VERTEX
  8
0
 10
35.56724299567
 20
-47.307174885346136
 30
0.0
  0
VERTEX
  8
0
 10
35.90224299567
 20
-46.72693786481056
 30
0.0
  0
VERTEX
  8
0
 10
31.148944472625864
 20
-43.98261968299238
 30
0.0
  0
VERTEX
  8
0
 10
30.813944472625863
 20
-44.562856703527956
 30
0.0
  0
VERTEX
  8
0
 10
32.38578058049462
 20
-45.470356703527955
 30
0.0
  0
VERTEX
  8
0
 10
30.050780580494617
 20
-49.51469533920128
 30
0.0
  0
SEQEND
  0
LINE
  8
0
 10
29.09001106503595
 20
-49.51469533920129
 30
0.0
 11
30.050780580494617
 21
-49.51469533920128
 31
0.0
  0
POLYLINE
  8
0
 66
1
 10
0.0
 20
0.0
 30
0.0
 70
8
  0
VERTEX
  8
0
 10
29.09001106503595
 20
-49.51469533920129
 30
0.0
  0
VERTEX
  8
0
 10
26.75501106503595
 20
-45.47035670352796
 30
0.0
  0
VERTEX
  8
0
 10
28.326847172904706
 20
-44.56285670352796
 30
0.0
  0
VERTEX
  8
0
 10
27.991847172904706
 20
-43.982619682992386
 30
0.0
  0
VERTEX
  8
0
 10
23.238548649860572
 20
-46.726937864810566
 30
0.0
  0
VERTEX
  8
0
 10
23.573548649860573
 20
-47.30717488534614
 30
0.0
  0
VERTEX
  8
0
 10
25.145384757729328
 20
-46.399674885346144
 30
0.0
  0
VERTEX
  8
0
 10
27.48038475772933
 20
-50.44401352101947
 30
0.0
  0
SEQEND
  0
LINE
  8
0
 10
26.99999999999999
 20
-51.27606432858834
 30
0.0
 11
27.48038475772933
 21
-50.44401352101947
 31
0.0
  0
POLYLINE
  8
0
 66
1
 10
0.0
 20
0.0
 30
0.0
 70
8
  0
VERTEX
  8
0
 10
26.99999999999999
 20
-51.27606432858834
 30
0.0
  0
VERTEX
  8
0
 10
22.32999999999999
 20
-51.27606432858834
 30
0.0
  0
VERTEX
  8
0
 10
22.32999999999999
 20
-49.46106432858834
 30
0.0
  0
VERTEX
  8
0
 10
21.65999999999999
 20
-49.46106432858834
 30
0.0
  0
VERTEX
  8
0
 10
21.65999999999999
 20
-54.94970069222471
 30
0.0
  0
VERTEX
  8
0
 10
22.32999999999999
 20
-54.94970069222471
 30
0.0
  0
VERTEX
  8
0
 10
22.32999999999999
 20
-53.13470069222471
 30
0.0
  0
VERTEX
  8
0
 10
26.999999999999993
 20
-53.13470069222471
 30
0.0
  0
SEQEND
  0
LINE
  8
0
 10
27.480384757729325
 20
-53.96675149979358
 30
0.0
 11
26.999999999999993
 21
-53.13470069222471
 31
0.0
  0
POLYLINE
  8
0
 66
1
 10
0.0
 20
0.0
 30
0.0
 70
8
  0
VERTEX
  8
0
 10
27.480384757729325
 20
-53.96675149979358
 30
0.0
  0
VERTEX
  8
0
 10
25.145384757729325
 20
-58.01109013546691
 30
0.0
  0
VERTEX
  8
0
 10
23.57354864986057
 20
-57.10359013546691
 30
0.0
  0
VERTEX
  8
0
 10
23.23854864986057
 20
-57.683827156002486
 30
0.0
  0
VERTEX
  8
0
 10
27.991847172904702
 20
-60.42814533782067
 30
0.0
  0
VERTEX
  8
0
 10
28.326847172904703
 20
-59.847908317285096
 30
0.0
  0
VERTEX
  8
0
 10
26.755011065035948
 20
-58.9404083172851
 30
0.0
  0
VERTEX
  8
0
 10
29.09001106503595
 20
-54.89606968161177
 30
0.0
  0
SEQEND
  0
LINE
  8
0
 10
30.05078058049462
 20
-54.896069681611756
 30
0.0
 11
29.09001106503595
 21
-54.89606968161177
 31
0.0
  0
POLYLINE
  8
0
 66
1
 10
0.0
 20
0.0
 30
0.0
 70
8
  0
VERTEX
  8
0
 10
30.05078058049462
 20
-54.896069681611756
 30
0.0
  0
VERTEX
  8
0
 10
32.38578058049462
 20
-58.94040831728508
 30
0.0
  0
VERTEX
  8
0
 10
30.813944472625863
 20
-59.84790831728508
 30
0.0
  0
VERTEX
  8
0
 10
31.148944472625864
 20
-60.42814533782066
 30
0.0
  0
VERTEX
  8
0
 10
35.90224299567
 20
-57.68382715600248
 30
0.0
  0
VERTEX
  8
0
 10
35.56724299567
 20
-57.1035901354669
 30
0.0
  0
VERTEX
  8
0
 10
33.995406887801245
 20
-58.0110901354669
 30
0.0
  0
VERTEX
  8
0
 10
31.660406887801244
 20
-53.966751499793574
 30
0.0
  0
SEQEND
  0
LINE
  8
0
 10
31.660406887801244
 20
-53.966751499793574
 30
0.0
 11
32.140791645530584
 21
-53.134700692224705
 31
0.0
  0
POLYLINE
  8
0
 66
1
 10
0.0
 20
0.0
 30
0.0
 70
8
  0
VERTEX
  8
0
 10
43.140791645530584
 20
-49.461064328588336
 30
0.0
  0
VERTEX
  8
0
 10
43.810791645530585
 20
-49.461064328588336
 30
0.0
  0
VERTEX
  8
0
 10
43.810791645530585
 20
-51.27606432858833
 30
0.0
  0
VERTEX
  8
0
 10
45.47079164553058
 20
-51.27606432858833
 30
0.0
  0
VERTEX
  8
0
 10
45.47079164553058
 20
-49.461064328588336
 30
0.0
  0
VERTEX
  8
0
 10
46.140791645530584
 20
-49.461064328588336
 30
0.0
  0
VERTEX
  8
0
 10
46.140791645530584
 20
-54.949700692224695
 30
0.0
  0
VERTEX
  8
0
 10
45.47079164553058
 20
-54.949700692224695
 30
0.0
  0
VERTEX
  8
0
 10
45.47079164553058
 20
-53.1347006922247
 30
0.0
  0
VERTEX
  8
0
 10
43.810791645530585
 20
-53.1347006922247
 30
0.0
  0
VERTEX
  8
0
 10
43.810791645530585
 20
-54.949700692224695
 30
0.0
  0
VERTEX
  8
0
 10
43.140791645530584
 20
-54.949700692224695
 30
0.0
  0
VERTEX
  8
0
 10
43.140791645530584
 20
-49.461064328588336
 30
0.0
  0
SEQEND
  0
POLYLINE
  8
0
 66
1
 10
0.0
 20
0.0
 30
0.0
 70
8
  0
VERTEX
  8
0
 10
25.161847172904697
 20
-65.32984912324059
 30
0.0
  0
VERTEX
  8
0
 10
24.826847172904696
 20
-65.91008614377617
 30
0.0
  0
VERTEX
  8
0
 10
23.25501106503594
 20
-65.00258614377617
 30
0.0
  0
VERTEX
  8
0
 10
22.42501106503594
 20
-66.44018831405833
 30
0.0
  0
VERTEX
  8
0
 10
23.996847172904694
 20
-67.34768831405833
 30
0.0
  0
VERTEX
  8
0
 10
23.661847172904693
 20
-67.92792533459391
 30
0.0
  0
VERTEX
  8
0
 10
18.908548649860556
 20
-65.18360715277572
 30
0.0
  0
VERTEX
  8
0
 10
19.243548649860557
 20
-64.60337013224014
 30
0.0
  0
VERTEX
  8
0
 10
20.815384757729312
 20
-65.51087013224014
 30
0.0
  0
VERTEX
  8
0
 10
21.64538475772931
 20
-64.07326796195798
 30
0.0
  0
VERTEX
  8
0
 10
20.073548649860555
 20
-63.16576796195798
 30
0.0
  0
VERTEX
  8
0
 10
20.408548649860556
 20
-62.585530941422405
 30
0.0
  0
VERTEX
  8
0
 10
25.161847172904697
 20
-65.32984912324059
 30
0.0
  0
SEQEND
  0
POLYLINE
  8
0
 66
1
 10
0.0
 20
0.0
 30
0.0
 70
8
  0
VERTEX
  8
0
 10
38.73224299567
 20
-62.5855309414224
 30
0.0
  0
VERTEX
  8
0
 10
39.06724299567
 20
-63.165767961957975
 30
0.0
  0
VERTEX
  8
0
 10
37.495406887801245
 20
-64.07326796195798
 30
0.0
  0
VERTEX
  8
0
 10
38.32540688780124
 20
-65.51087013224014
 30
0.0
  0
VERTEX
  8
0
 10
39.89724299567
 20
-64.60337013224014
 30
0.0
  0
VERTEX
  8
0
 10
40.23224299567
 20
-65.18360715277572
 30
0.0
  0
VERTEX
  8
0
 10
35.47894447262586
 20
-67.92792533459391
 30
0.0
  0
VERTEX
  8
0
 10
35.14394447262586
 20
-67.34768831405833
 30
0.0
  0
VERTEX
  8
0
 10
36.71578058049462
 20
-66.44018831405833
 30
0.0
  0
VERTEX
  8
0
 10
35.88578058049462
 20
-65.00258614377617
 30
0.0
  0
VERTEX
  8
0
 10
34.31394447262586
 20
-65.91008614377617
 30
0.0
  0
VERTEX
  8
0
 10
33.97894447262586
 20
-65.32984912324059
 30
0.0
  0
VERTEX
  8
0
 10
38.73224299567
 20
-62.5855309414224
 30
0.0
  0
SEQEND
  0
POLYLINE
  8
0
 66
1
 10
0.0
 20
0.0
 30
0.0
 70
8
  0
VERTEX
  8
0
 10
62.28158329106118
 20
-53.134700692224705
 30
0.0
  0
VERTEX
  8
0
 10
66.95158329106118
 20
-53.134700692224705
 30
0.0
  0
VERTEX
  8
0
 10
66.95158329106118
 20
-54.9497006922247
 30
0.0
  0
VERTEX
  8
0
 10
67.62158329106119
 20
-54.9497006922247
 30
0.0
  0
VERTEX
  8
0
 10
67.62158329106119
 20
-49.461064328588336
 30
0.0
  0
VERTEX
  8
0
 10
66.95158329106118
 20
-49.461064328588336
 30
0.0
  0
VERTEX
  8
0
 10
66.95158329106118
 20
-51.27606432858833
 30
0.0
  0
VERTEX
  8
0
 10
62.28158329106118
 20
-51.27606432858833
 30
0.0
  0
SEQEND
  0
LINE
  8
0
 10
61.80119853333184
 20
-50.444013521019464
 30
0.0
 11
62.28158329106118
 21
-51.27606432858833
 31
0.0
  0
POLYLINE
  8
0
 66
1
 10
0.0
 20
0.0
 30
0.0
 70
8
  0
VERTEX
  8
0
 10
61.80119853333184
 20
-50.444013521019464
 30
0.0
  0
VERTEX
  8
0
 10
64.13619853333184
 20
-46.39967488534614
 30
0.0
  0
VERTEX
  8
0
 10
65.7080346412006
 20
-47.307174885346136
 30
0.0
  0
VERTEX
  8
0
 10
66.04303464120059
 20
-46.72693786481056
 30
0.0
  0
VERTEX
  8
0
 10
61.289736118156455
 20
-43.98261968299238
 30
0.0
  0
VERTEX
  8
0
 10
60.954736118156454
 20
-44.562856703527956
 30
0.0
  0
VERTEX
  8
0
 10
62.52657222602521
 20
-45.470356703527955
 30
0.0
  0
VERTEX
  8
0
 10
60.19157222602521
 20
-49.51469533920128
 30
0.0
  0
SEQEND
  0
LINE
  8
0
 10
59.23080271056654
 20
-49.51469533920129
 30
0.0
 11
60.19157222602521
 21
-49.51469533920128
 31
0.0
  0
POLYLINE
  8
0
 66
1
 10
0.0
 20
0.0
 30
0.0
 70
8
  0
VERTEX
  8
0
 10
59.23080271056654
 20
-49.51469533920129
 30
0.0
  0
VERTEX
  8
0
 10
56.89580271056654
 20
-45.47035670352796
 30
0.0
  0
VERTEX
  8
0
 10
58.4676388184353
 20
-44.56285670352796
 30
0.0
  0
VERTEX
  8
0
 10
58.1326388184353
 20
-43.982619682992386
 30
0.0
  0
VERTEX
  8
0
 10
53.37934029539116
 20
-46.726937864810566
 30
0.0
  0
VERTEX
  8
0
 10
53.71434029539116
 20
-47.30717488534614
 30
0.0
  0
VERTEX
  8
0
 10
55.286176403259915
 20
-46.399674885346144
 30
0.0
  0
VERTEX
  8
0
 10
57.621176403259916
 20
-50.44401352101947
 30
0.0
  0
SEQEND
  0
LINE
  8
0
 10
57.140791645530584
 20
-51.27606432858834
 30
0.0
 11
57.621176403259916
 21
-50.44401352101947
 31
0.0
  0
POLYLINE
  8
0
 66
1
 10
0.0
 20
0.0
 30
0.0
 70
8
  0
VERTEX
  8
0
 10
57.140791645530584
 20
-51.27606432858834
 30
0.0
  0
VERTEX
  8
0
 10
52.47079164553058
 20
-51.27606432858834
 30
0.0
  0
VERTEX
  8
0
 10
52.47079164553058
 20
-49.46106432858834
 30
0.0
  0
VERTEX
  8
0
 10
51.80079164553058
 20
-49.46106432858834
 30
0.0
  0
VERTEX
  8
0
 10
51.80079164553058
 20
-54.94970069222471
 30
0.0
  0
VERTEX
  8
0
 10
52.47079164553058
 20
-54.94970069222471
 30
0.0
  0
VERTEX
  8
0
 10
52.47079164553058
 20
-53.13470069222471
 30
0.0
  0
VERTEX
  8
0
 10
57.140791645530584
 20
-53.13470069222471
 30
0.0
  0
SEQEND
  0
LINE
  8
0
 10
57.62117640325992
 20
-53.96675149979358
 30
0.0
 11
57.140791645530584
 21
-53.13470069222471
 31
0.0
  0
POLYLINE
  8
0
 66
1
 10
0.0
 20
0.0
 30
0.0
 70
8
  0
VERTEX
  8
0
 10
57.62117640325992
 20
-53.96675149979358
 30
0.0
  0
VERTEX
  8
0
 10
55.28617640325992
 20
-58.01109013546691
 30
0.0
  0
VERTEX
  8
0
 10
53.71434029539117
 20
-57.10359013546691
 30
0.0
  0
VERTEX
  8
0
 10
53.37934029539117
 20
-57.683827156002486
 30
0.0
  0
VERTEX
  8
0
 10
58.1326388184353
 20
-60.42814533782067
 30
0.0
  0
VERTEX
  8
0
 10
58.4676388184353
 20
-59.847908317285096
 30
0.0
  0
VERTEX
  8
0
 10
56.89580271056654
 20
-58.9404083172851
 30
0.0
  0
VERTEX
  8
0
 10
59.23080271056654
 20
-54.89606968161177
 30
0.0
  0
SEQEND
  0
LINE
  8
0
 10
60.19157222602522
 20
-54.896069681611756
 30
0.0
 11
59.23080271056654
 21
-54.89606968161177
 31
0.0
  0
POLYLINE
  8
0
 66
1
 10
0.0
 20
0.0
 30
0.0
 70
8
  0
VERTEX
  8
0
 10
60.19157222602522
 20
-54.896069681611756
 30
0.0
  0
VERTEX
  8
0
 10
62.52657222602522
 20
-58.94040831728508
 30
0.0
  0
VERTEX
  8
0
 10
60.95473611815647
 20
-59.84790831728508
 30
0.0
  0
VERTEX
  8
0
 10
61.28973611815647
 20
-60.42814533782066
 30
0.0
  0
VERTEX
  8
0
 10
66.0430346412006
 20
-57.68382715600248
 30
0.0
  0
VERTEX
  8
0
 10
65.70803464120061
 20
-57.1035901354669
 30
0.0
  0
VERTEX
  8
0
 10
64.13619853333185
 20
-58.0110901354669
 30
0.0
  0
VERTEX
  8
0
 10
61.80119853333185
 20
-53.966751499793574
 30
0.0
  0
SEQEND
  0
LINE
  8
0
 10
61.80119853333185
 20
-53.966751499793574
 30
0.0
 11
62.28158329106118
 21
-53.134700692224705
 31
0.0
  0
POLYLINE
  8
0
 66
1
 10
0.0
 20
0.0
 30
0.0
 70
8
  0
VERTEX
  8
0
 10
73.28158329106118
 20
-49.461064328588336
 30
0.0
  0
VERTEX
  8
0
 10
73.95158329106118
 20
-49.461064328588336
 30
0.0
  0
VERTEX
  8
0
 10
73.95158329106118
 20
-51.27606432858833
 30
0.0
  0
VERTEX
  8
0
 10
75.61158329106118
 20
-51.27606432858833
 30
0.0
  0
VERTEX
  8
0
 10
75.61158329106118
 20
-49.461064328588336
 30
0.0
  0
VERTEX
  8
0
 10
76.28158329106118
 20
-49.461064328588336
 30
0.0
  0
VERTEX
  8
0
 10
76.28158329106118
 20
-54.949700692224695
 30
0.0
  0
VERTEX
  8
0
 10
75.61158329106118
 20
-54.949700692224695
 30
0.0
  0
VERTEX
  8
0
 10
75.61158329106118
 20
-53.1347006922247
 30
0.0
  0
VERTEX
  8
0
 10
73.95158329106118
 20
-53.1347006922247
 30
0.0
  0
VERTEX
  8
0
 10
73.95158329106118
 20
-54.949700692224695
 30
0.0
  0
VERTEX
  8
0
 10
73.28158329106118
 20
-54.949700692224695
 30
0.0
  0
VERTEX
  8
0
 10
73.28158329106118
 20
-49.461064328588336
 30
0.0
  0
SEQEND
  0
POLYLINE
  8
0
 66
1
 10
0.0
 20
0.0
 30
0.0
 70
8
  0
VERTEX
  8
0
 10
64.11973611815645
 20
-39.08091589757247
 30
0.0
  0
VERTEX
  8
0
 10
64.45473611815645
 20
-38.50067887703689
 30
0.0
  0
VERTEX
  8
0
 10
66.02657222602521
 20
-39.40817887703689
 30
0.0
  0
VERTEX
  8
0
 10
66.85657222602521
 20
-37.97057670675472
 30
0.0
  0
VERTEX
  8
0
 10
65.28473611815645
 20
-37.06307670675472
 30
0.0
  0
VERTEX
  8
0
 10
65.61973611815644
 20
-36.482839686219144
 30
0.0
  0
VERTEX
  8
0
 10
70.37303464120058
 20
-39.227157868037324
 30
0.0
  0
VERTEX
  8
0
 10
70.03803464120058
 20
-39.8073948885729
 30
0.0
  0
VERTEX
  8
0
 10
68.46619853333182
 20
-38.8998948885729
 30
0.0
  0
VERTEX
  8
0
 10
67.63619853333182
 20
-40.33749705885507
 30
0.0
  0
VERTEX
  8
0
 10
69.20803464120058
 20
-41.24499705885507
 30
0.0
  0
VERTEX
  8
0
 10
68.87303464120059
 20
-41.82523407939065
 30
0.0
  0
VERTEX
  8
0
 10
64.11973611815645
 20
-39.08091589757247
 30
0.0
  0
SEQEND
  0
POLYLINE
  8
0
 66
1
 10
0.0
 20
0.0
 30
0.0
 70
8
  0
VERTEX
  8
0
 10
55.3026388184353
 20
-65.32984912324059
 30
0.0
  0
VERTEX
  8
0
 10
54.9676388184353
 20
-65.91008614377617
 30
0.0
  0
VERTEX
  8
0
 10
53.39580271056654
 20
-65.00258614377617
 30
0.0
  0
VERTEX
  8
0
 10
52.565802710566544
 20
-66.44018831405833
 30
0.0
  0
VERTEX
  8
0
 10
54.1376388184353
 20
-67.34768831405833
 30
0.0
  0
VERTEX
  8
0
 10
53.8026388184353
 20
-67.92792533459391
 30
0.0
  0
VERTEX
  8
0
 10
49.04934029539116
 20
-65.18360715277572
 30
0.0
  0
VERTEX
  8
0
 10
49.38434029539116
 20
-64.60337013224014
 30
0.0
  0
VERTEX
  8
0
 10
50.95617640325992
 20
-65.51087013224014
 30
0.0
  0
VERTEX
  8
0
 10
51.786176403259915
 20
-64.07326796195798
 30
0.0
  0
VERTEX
  8
0
 10
50.21434029539116
 20
-63.16576796195798
 30
0.0
  0
VERTEX
  8
0
 10
50.54934029539116
 20
-62.585530941422405
 30
0.0
  0
VERTEX
  8
0
 10
55.3026388184353
 20
-65.32984912324059
 30
0.0
  0
SEQEND
  0
POLYLINE
  8
0
 66
1
 10
0.0
 20
0.0
 30
0.0
 70
8
  0
VERTEX
  8
0
 10
68.87303464120062
 20
-62.5855309414224
 30
0.0
  0
VERTEX
  8
0
 10
69.20803464120061
 20
-63.165767961957975
 30
0.0
  0
VERTEX
  8
0
 10
67.63619853333185
 20
-64.07326796195798
 30
0.0
  0
VERTEX
  8
0
 10
68.46619853333185
 20
-65.51087013224014
 30
0.0
  0
VERTEX
  8
0
 10
70.03803464120061
 20
-64.60337013224014
 30
0.0
  0
VERTEX
  8
0
 10
70.3730346412006
 20
-65.18360715277572
 30
0.0
  0
VERTEX
  8
0
 10
65.61973611815647
 20
-67.92792533459391
 30
0.0
  0
VERTEX
  8
0
 10
65.28473611815647
 20
-67.34768831405833
 30
0.0
  0
VERTEX
  8
0
 10
66.85657222602524
 20
-66.44018831405833
 30
0.0
  0
VERTEX
  8
0
 10
66.02657222602524
 20
-65.00258614377617
 30
0.0
  0
VERTEX
  8
0
 10
64.45473611815648
 20
-65.91008614377617
 30
0.0
  0
VERTEX
  8
0
 10
64.11973611815648
 20
-65.32984912324059
 30
0.0
  0
VERTEX
  8
0
 10
68.87303464120062
 20
-62.5855309414224
 30
0.0
  0
SEQEND
  0
ENDSEC
  0
EOF
