  0
SECTION
  2
HEADER
  9
$ACADVER
  1
AC1009
  9
$INSBASE
 10
0.0
 20
0.0
 30
0.0
  9
$EXTMIN
 10
0.0
 20
0.0
 30
0.0
  9
$EXTMAX
 10
100.0
 20
100.0
 30
0.0
  9
$UNITMODE
 70
0
  9
$AUNITS
 70
0
  9
$ANGBASE
 50
0.0
  9
$ANGDIR
 70
0
  0
ENDSEC
  0
SECTION
  2
TABLES
  0
TABLE
  2
LTYPE
 70
19
  0
LTYPE
  2
CONTINUOUS
 70
0
  3
Solid
 72
65
 73
0
 40
0.0
  0
LTYPE
  2
CENTER
 70
0
  3
Center ____ _ ____ _ ____ _ ____ _ ____ _ ____
 72
65
 73
4
 40
2.0
 49
1.25
 49
-0.25
 49
0.25
 49
-0.25
  0
LTYPE
  2
CENTERX2
 70
0
  3
Center (2x) ________  __  ________  __  ________
 72
65
 73
4
 40
3.5
 49
2.5
 49
-0.25
 49
0.5
 49
-0.25
  0
LTYPE
  2
CENTER2
 70
0
  3
Center (.5x) ____ _ ____ _ ____ _ ____ _ ____
 72
65
 73
4
 40
1.0
 49
0.625
 49
-0.125
 49
0.125
 49
-0.125
  0
LTYPE
  2
DASHED
 70
0
  3
Dashed __ __ __ __ __ __ __ __ __ __ __ __ __ _
 72
65
 73
2
 40
0.6
 49
0.5
 49
-0.1
  0
LTYPE
  2
DASHEDX2
 70
0
  3
Dashed (2x) ____  ____  ____  ____  ____  ____
 72
65
 73
2
 40
1.2
 49
1.0
 49
-0.2
  0
LTYPE
  2
DASHED2
 70
0
  3
Dashed (.5x) _ _ _ _ _ _ _ _ _ _ _ _ _ _
 72
65
 73
2
 40
0.3
 49
0.25
 49
-0.05
  0
LTYPE
  2
PHANTOM
 70
0
  3
Phantom ______  __  __  ______  __  __  ______
 72
65
 73
6
 40
2.5
 49
1.25
 49
-0.25
 49
0.25
 49
-0.25
 49
0.25
 49
-0.25
  0
LTYPE
  2
PHANTOMX2
 70
0
  3
Phantom (2x)____________    ____    ____    ____________
 72
65
 73
6
 40
4.25
 49
2.5
 49
-0.25
 49
0.5
 49
-0.25
 49
0.5
 49
-0.25
  0
LTYPE
  2
PHANTOM2
 70
0
  3
Phantom (.5x) ___ _ _ ___ _ _ ___ _ _ ___ _ _ ___
 72
65
 73
6
 40
1.25
 49
0.625
 49
-0.125
 49
0.125
 49
-0.125
 49
0.125
 49
-0.125
  0
LTYPE
  2
DASHDOT
 70
0
  3
Dash dot __ . __ . __ . __ . __ . __ . __ . __
 72
65
 73
4
 40
1.4
 49
1.0
 49
-0.2
 49
0.0
 49
-0.2
  0
LTYPE
  2
DASHDOTX2
 70
0
  3
Dash dot (2x) ____  .  ____  .  ____  .  ____
 72
65
 73
4
 40
2.4
 49
2.0
 49
-0.2
 49
0.0
 49
-0.2
  0
LTYPE
  2
DASHDOT2
 70
0
  3
Dash dot (.5x) _ . _ . _ . _ . _ . _ . _ . _
 72
65
 73
4
 40
0.7
 49
0.5
 49
-0.1
 49
0.0
 49
-0.1
  0
LTYPE
  2
DOT
 70
0
  3
Dot .  .  .  .  .  .  .  .  .  .  .  .  .  .  .  .
 72
65
 73
2
 40
0.2
 49
0.0
 49
-0.2
  0
LTYPE
  2
DOTX2
 70
0
  3
Dot (2x) .    .    .    .    .    .    .    . 
 72
65
 73
2
 40
0.4
 49
0.0
 49
-0.4
  0
LTYPE
  2
DOT2
 70
0
  3
Dot (.5) . . . . . . . . . . . . . . . . . . . 
 72
65
 73
2
 40
0.1
 49
0.0
 49
-0.1
  0
LTYPE
  2
DIVIDE
 70
0
  3
Divide __ . . __ . . __ . . __ . . __ . . __
 72
65
 73
6
 40
1.6
 49
1.0
 49
-0.2
 49
0.0
 49
-0.2
 49
0.0
 49
-0.2
  0
LTYPE
  2
DIVIDEX2
 70
0
  3
Divide (2x) ____  . .  ____  . .  ____  . .  ____
 72
65
 73
6
 40
2.6
 49
2.0
 49
-0.2
 49
0.0
 49
-0.2
 49
0.0
 49
-0.2
  0
LTYPE
  2
DIVIDE2
 70
0
  3
Divide(.5x) _ . _ . _ . _ . _ . _ . _ . _
 72
65
 73
6
 40
0.8
 49
0.5
 49
-0.1
 49
0.0
 49
-0.1
 49
0.0
 49
-0.1
  0
ENDTAB
  0
TABLE
  2
LAYER
 70
5
  0
LAYER
  2
DIMENSIONS
 70
0
 62
1
  6
CONTINUOUS
  0
LAYER
  2
TABLEBACKGROUND
 70
0
 62
1
  6
CONTINUOUS
  0
LAYER
  2
TABLECONTENT
 70
0
 62
1
  6
CONTINUOUS
  0
LAYER
  2
TABLEGRID
 70
0
 62
1
  6
CONTINUOUS
  0
LAYER
  2
VIEWPORTS
 70
0
 62
7
  6
CONTINUOUS
  0
ENDTAB
  0
TABLE
  2
STYLE
 70
12
  0
STYLE
  2
STANDARD
 70
0
 40
0.0
 41
1.0
 42
1.0
 50
0.0
 71
0
  3
arial.ttf
  4

  0
STYLE
  2
ARIAL
 70
0
 40
0.0
 41
1.0
 42
1.0
 50
0.0
 71
0
  3
arial.ttf
  4

  0
STYLE
  2
ARIAL_BOLD
 70
0
 40
0.0
 41
1.0
 42
1.0
 50
0.0
 71
0
  3
arialbd.ttf
  4

  0
STYLE
  2
ARIAL_ITALIC
 70
0
 40
0.0
 41
1.0
 42
1.0
 50
0.0
 71
0
  3
ariali.ttf
  4

  0
STYLE
  2
ARIAL_BOLD_ITALIC
 70
0
 40
0.0
 41
1.0
 42
1.0
 50
0.0
 71
0
  3
arialbi.ttf
  4

  0
STYLE
  2
ARIAL_BLACK
 70
0
 40
0.0
 41
1.0
 42
1.0
 50
0.0
 71
0
  3
ariblk.ttf
  4

  0
STYLE
  2
ISOCPEUR
 70
0
 40
0.0
 41
1.0
 42
1.0
 50
0.0
 71
0
  3
isocpeur.ttf
  4

  0
STYLE
  2
ISOCPEUR_ITALIC
 70
0
 40
0.0
 41
1.0
 42
1.0
 50
0.0
 71
0
  3
isocpeui.ttf
  4

  0
STYLE
  2
TIMES
 70
0
 40
0.0
 41
1.0
 42
1.0
 50
0.0
 71
0
  3
times.ttf
  4

  0
STYLE
  2
TIMES_BOLD
 70
0
 40
0.0
 41
1.0
 42
1.0
 50
0.0
 71
0
  3
timesbd.ttf
  4

  0
STYLE
  2
TIMES_ITALIC
 70
0
 40
0.0
 41
1.0
 42
1.0
 50
0.0
 71
0
  3
timesi.ttf
  4

  0
STYLE
  2
TIMES_BOLD_ITALIC
 70
0
 40
0.0
 41
1.0
 42
1.0
 50
0.0
 71
0
  3
timesbi.ttf
  4

  0
ENDTAB
  0
TABLE
  2
VIEW
 70
0
  0
ENDTAB
  0
TABLE
  2
APPID
 70
1
  0
APPID
  2
DXFWRITE
 70
0
  0
ENDTAB
  0
TABLE
  2
VPORT
 70
0
  0
ENDTAB
  0
TABLE
  2
UCS
 70
0
  0
ENDTAB
  0
ENDSEC
  0
SECTION
  2
BLOCKS
  0
ENDSEC
  0
SECTION
  2
ENTITIES
  0
VIEWPORT
  8
VIEWPORTS
 67
1
 10
0.0
 20
0.0
 30
0.0
 40
1.0
 41
1.0
 68
1
 69
1
1001
ACAD
1000
MVIEW
1002
{
1070
16
1010
0.0
1020
0.0
1030
0.0
1010
0.0
1020
0.0
1030
0.0
1040
0.0
1040
1.0
1040
0.0
1040
0.0
1040
50.0
1040
0.0
1040
0.0
1070
0
1070
100
1070
1
1070
3
1070
0
1070
0
1070
0
1070
0
1040
0.0
1040
0.0
1040
0.0
1040
0.1
1040
0.1
1040
0.1
1040
0.1
1070
0
1002
{
1002
}
1002
}
  0
POLYLINE
  8
0
 66
1
 10
0.0
 20
0.0
 30
0.0
 70
8
  0
VERTEX
  8
0
 10
2.5
 20
-0.9293181818181816
 30
0.0
  0
VERTEX
  8
0
 10
16.683422179807295
 20
-0.9293181818181816
 30
0.0
  0
VERTEX
  8
0
 10
16.683422179807295
 20
-2.7443181818181817
 30
0.0
  0
VERTEX
  8
0
 10
17.353422179807296
 20
-2.7443181818181817
 30
0.0
  0
VERTEX
  8
0
 10
17.353422179807296
 20
2.7443181818181817
 30
0.0
  0
VERTEX
  8
0
 10
16.683422179807295
 20
2.7443181818181817
 30
0.0
  0
VERTEX
  8
0
 10
16.683422179807295
 20
0.9293181818181817
 30
0.0
  0
VERTEX
  8
0
 10
2.5
 20
0.9293181818181799
 30
0.0
  0
SEQEND
  0
LINE
  8
0
 10
2.3007836736093683
 20
1.476660540163143
 30
0.0
 11
2.5
 21
0.9293181818181799
 31
0.0
  0
POLYLINE
  8
0
 66
1
 10
0.0
 20
0.0
 30
0.0
 70
8
  0
VERTEX
  8
0
 10
2.3007836736093683
 20
1.476660540163143
 30
0.0
  0
VERTEX
  8
0
 10
6.644255666093974
 20
5.12126628708582
 30
0.0
  0
VERTEX
  8
0
 10
7.810915177675043
 20
3.7308956228248755
 30
0.0
  0
VERTEX
  8
0
 10
8.324164954564758
 20
4.161563321314857
 30
0.0
  0
VERTEX
  8
0
 10
4.79613750594432
 20
8.366102707979248
 30
0.0
  0
VERTEX
  8
0
 10
4.282887729054605
 20
7.935435009489267
 30
0.0
  0
VERTEX
  8
0
 10
5.449547240635674
 20
6.545064345228322
 30
0.0
  0
VERTEX
  8
0
 10
1.1060752481510692
 20
2.9004585983056437
 30
0.0
  0
SEQEND
  0
LINE
  8
0
 10
-1.9528018358199737
 20
2.900458598305644
 30
0.0
 11
1.1060752481510692
 21
2.9004585983056437
 31
0.0
  0
POLYLINE
  8
0
 66
1
 10
0.0
 20
0.0
 30
0.0
 70
8
  0
VERTEX
  8
0
 10
-1.9528018358199737
 20
2.900458598305644
 30
0.0
  0
VERTEX
  8
0
 10
-6.296273828304578
 20
6.545064345228322
 30
0.0
  0
VERTEX
  8
0
 10
-5.129614316723509
 20
7.935435009489267
 30
0.0
  0
VERTEX
  8
0
 10
-5.642864093613224
 20
8.366102707979248
 30
0.0
  0
VERTEX
  8
0
 10
-9.170891542233662
 20
4.161563321314858
 30
0.0
  0
VERTEX
  8
0
 10
-8.657641765343946
 20
3.730895622824877
 30
0.0
  0
VERTEX
  8
0
 10
-7.490982253762877
 20
5.121266287085822
 30
0.0
  0
VERTEX
  8
0
 10
-3.1475102612782715
 20
1.4766605401631447
 30
0.0
  0
SEQEND
  0
LINE
  8
0
 10
-3.3467265876689045
 20
0.929318181818182
 30
0.0
 11
-3.1475102612782715
 21
1.4766605401631447
 31
0.0
  0
POLYLINE
  8
0
 66
1
 10
0.0
 20
0.0
 30
0.0
 70
8
  0
VERTEX
  8
0
 10
-3.3467265876689045
 20
0.929318181818182
 30
0.0
  0
VERTEX
  8
0
 10
-17.5301487674762
 20
0.9293181818181838
 30
0.0
  0
VERTEX
  8
0
 10
-17.5301487674762
 20
2.744318181818184
 30
0.0
  0
VERTEX
  8
0
 10
-18.2001487674762
 20
2.744318181818184
 30
0.0
  0
VERTEX
  8
0
 10
-18.2001487674762
 20
-2.7443181818181794
 30
0.0
  0
VERTEX
  8
0
 10
-17.5301487674762
 20
-2.7443181818181794
 30
0.0
  0
VERTEX
  8
0
 10
-17.5301487674762
 20
-0.9293181818181795
 30
0.0
  0
VERTEX
  8
0
 10
-3.346726587668904
 20
-0.9293181818181795
 30
0.0
  0
SEQEND
  0
LINE
  8
0
 10
-3.1475102612782733
 20
-1.4766605401631425
 30
0.0
 11
-3.346726587668904
 21
-0.9293181818181795
 31
0.0
  0
POLYLINE
  8
0
 66
1
 10
0.0
 20
0.0
 30
0.0
 70
8
  0
VERTEX
  8
0
 10
-3.1475102612782733
 20
-1.4766605401631425
 30
0.0
  0
VERTEX
  8
0
 10
-7.490982253762879
 20
-5.12126628708582
 30
0.0
  0
VERTEX
  8
0
 10
-8.657641765343948
 20
-3.7308956228248755
 30
0.0
  0
VERTEX
  8
0
 10
-9.170891542233663
 20
-4.161563321314857
 30
0.0
  0
VERTEX
  8
0
 10
-5.642864093613227
 20
-8.366102707979248
 30
0.0
  0
VERTEX
  8
0
 10
-5.1296143167235115
 20
-7.935435009489267
 30
0.0
  0
VERTEX
  8
0
 10
-6.296273828304581
 20
-6.545064345228322
 30
0.0
  0
VERTEX
  8
0
 10
-1.952801835819975
 20
-2.900458598305645
 30
0.0
  0
SEQEND
  0
LINE
  8
0
 10
1.1060752481510692
 20
-2.9004585983056432
 30
0.0
 11
-1.952801835819975
 21
-2.900458598305645
 31
0.0
  0
POLYLINE
  8
0
 66
1
 10
0.0
 20
0.0
 30
0.0
 70
8
  0
VERTEX
  8
0
 10
1.1060752481510692
 20
-2.9004585983056432
 30
0.0
  0
VERTEX
  8
0
 10
5.449547240635675
 20
-6.545064345228321
 30
0.0
  0
VERTEX
  8
0
 10
4.282887729054606
 20
-7.935435009489265
 30
0.0
  0
VERTEX
  8
0
 10
4.796137505944321
 20
-8.366102707979246
 30
0.0
  0
VERTEX
  8
0
 10
8.324164954564758
 20
-4.161563321314856
 30
0.0
  0
VERTEX
  8
0
 10
7.810915177675042
 20
-3.730895622824874
 30
0.0
  0
VERTEX
  8
0
 10
6.644255666093973
 20
-5.121266287085819
 30
0.0
  0
VERTEX
  8
0
 10
2.3007836736093674
 20
-1.476660540163142
 30
0.0
  0
SEQEND
  0
LINE
  8
0
 10
2.3007836736093674
 20
-1.476660540163142
 30
0.0
 11
2.5
 21
-0.9293181818181816
 31
0.0
  0
POLYLINE
  8
0
 66
1
 10
0.0
 20
0.0
 30
0.0
 70
8
  0
VERTEX
  8
0
 10
23.013422179807293
 20
2.7443181818181817
 30
0.0
  0
VERTEX
  8
0
 10
23.683422179807295
 20
2.7443181818181817
 30
0.0
  0
VERTEX
  8
0
 10
23.683422179807295
 20
0.9293181818181817
 30
0.0
  0
VERTEX
  8
0
 10
25.343422179807295
 20
0.9293181818181817
 30
0.0
  0
VERTEX
  8
0
 10
25.343422179807295
 20
2.7443181818181817
 30
0.0
  0
VERTEX
  8
0
 10
26.013422179807296
 20
2.7443181818181817
 30
0.0
  0
VERTEX
  8
0
 10
26.013422179807296
 20
-2.7443181818181817
 30
0.0
  0
VERTEX
  8
0
 10
25.343422179807295
 20
-2.7443181818181817
 30
0.0
  0
VERTEX
  8
0
 10
25.343422179807295
 20
-0.9293181818181817
 30
0.0
  0
VERTEX
  8
0
 10
23.683422179807295
 20
-0.9293181818181815
 30
0.0
  0
VERTEX
  8
0
 10
23.683422179807295
 20
-2.7443181818181817
 30
0.0
  0
VERTEX
  8
0
 10
23.013422179807293
 20
-2.7443181818181817
 30
0.0
  0
VERTEX
  8
0
 10
23.013422179807293
 20
2.7443181818181817
 30
0.0
  0
SEQEND
  0
POLYLINE
  8
0
 66
1
 10
0.0
 20
0.0
 30
0.0
 70
8
  0
VERTEX
  8
0
 10
9.131949053997737
 20
12.004280578805059
 30
0.0
  0
VERTEX
  8
0
 10
9.645198830887452
 20
12.43494827729504
 30
0.0
  0
VERTEX
  8
0
 10
10.81185834246852
 20
11.044577613034095
 30
0.0
  0
VERTEX
  8
0
 10
12.083492118046024
 20
12.11160504511375
 30
0.0
  0
VERTEX
  8
0
 10
10.916832606464956
 20
13.501975709374696
 30
0.0
  0
VERTEX
  8
0
 10
11.430082383354671
 20
13.932643407864678
 30
0.0
  0
VERTEX
  8
0
 10
14.958109831975108
 20
9.728104021200288
 30
0.0
  0
VERTEX
  8
0
 10
14.444860055085393
 20
9.297436322710306
 30
0.0
  0
VERTEX
  8
0
 10
13.278200543504324
 20
10.687806986971252
 30
0.0
  0
VERTEX
  8
0
 10
12.00656676792682
 20
9.620779554891596
 30
0.0
  0
VERTEX
  8
0
 10
13.173226279507888
 20
8.23040889063065
 30
0.0
  0
VERTEX
  8
0
 10
12.659976502618173
 20
7.79974119214067
 30
0.0
  0
VERTEX
  8
0
 10
9.131949053997737
 20
12.004280578805059
 30
0.0
  0
SEQEND
  0
POLYLINE
  8
0
 66
1
 10
0.0
 20
0.0
 30
0.0
 70
8
  0
VERTEX
  8
0
 10
-13.506703090287077
 20
7.799741192140672
 30
0.0
  0
VERTEX
  8
0
 10
-14.019952867176793
 20
8.230408890630654
 30
0.0
  0
VERTEX
  8
0
 10
-12.853293355595724
 20
9.6207795548916
 30
0.0
  0
VERTEX
  8
0
 10
-14.124927131173228
 20
10.687806986971255
 30
0.0
  0
VERTEX
  8
0
 10
-15.291586642754297
 20
9.297436322710311
 30
0.0
  0
VERTEX
  8
0
 10
-15.804836419644012
 20
9.728104021200293
 30
0.0
  0
VERTEX
  8
0
 10
-12.276808971023573
 20
13.932643407864685
 30
0.0
  0
VERTEX
  8
0
 10
-11.763559194133858
 20
13.501975709374703
 30
0.0
  0
VERTEX
  8
0
 10
-12.930218705714928
 20
12.111605045113759
 30
0.0
  0
VERTEX
  8
0
 10
-11.658584930137424
 20
11.044577613034104
 30
0.0
  0
VERTEX
  8
0
 10
-10.491925418556356
 20
12.43494827729505
 30
0.0
  0
VERTEX
  8
0
 10
-9.97867564166664
 20
12.004280578805067
 30
0.0
  0
VERTEX
  8
0
 10
-13.506703090287077
 20
7.799741192140672
 30
0.0
  0
SEQEND
  0
POLYLINE
  8
0
 66
1
 10
0.0
 20
0.0
 30
0.0
 70
8
  0
VERTEX
  8
0
 10
-23.860148767476197
 20
-2.744318181818179
 30
0.0
  0
VERTEX
  8
0
 10
-24.5301487674762
 20
-2.744318181818179
 30
0.0
  0
VERTEX
  8
0
 10
-24.5301487674762
 20
-0.929318181818179
 30
0.0
  0
VERTEX
  8
0
 10
-26.1901487674762
 20
-0.9293181818181788
 30
0.0
  0
VERTEX
  8
0
 10
-26.1901487674762
 20
-2.744318181818179
 30
0.0
  0
VERTEX
  8
0
 10
-26.8601487674762
 20
-2.744318181818179
 30
0.0
  0
VERTEX
  8
0
 10
-26.8601487674762
 20
2.7443181818181843
 30
0.0
  0
VERTEX
  8
0
 10
-26.1901487674762
 20
2.7443181818181843
 30
0.0
  0
VERTEX
  8
0
 10
-26.1901487674762
 20
0.9293181818181844
 30
0.0
  0
VERTEX
  8
0
 10
-24.5301487674762
 20
0.9293181818181839
 30
0.0
  0
VERTEX
  8
0
 10
-24.5301487674762
 20
2.744318181818184
 30
0.0
  0
VERTEX
  8
0
 10
-23.860148767476197
 20
2.744318181818184
 30
0.0
  0
VERTEX
  8
0
 10
-23.860148767476197
 20
-2.744318181818179
 30
0.0
  0
SEQEND
  0
POLYLINE
  8
0
 66
1
 10
0.0
 20
0.0
 30
0.0
 70
8
  0
VERTEX
  8
0
 10
-9.97867564166664
 20
-12.004280578805059
 30
0.0
  0
VERTEX
  8
0
 10
-10.491925418556356
 20
-12.43494827729504
 30
0.0
  0
VERTEX
  8
0
 10
-11.658584930137424
 20
-11.044577613034095
 30
0.0
  0
VERTEX
  8
0
 10
-12.930218705714928
 20
-12.11160504511375
 30
0.0
  0
VERTEX
  8
0
 10
-11.76355919413386
 20
-13.501975709374696
 30
0.0
  0
VERTEX
  8
0
 10
-12.276808971023575
 20
-13.932643407864678
 30
0.0
  0
VERTEX
  8
0
 10
-15.804836419644012
 20
-9.728104021200288
 30
0.0
  0
VERTEX
  8
0
 10
-15.291586642754297
 20
-9.297436322710306
 30
0.0
  0
VERTEX
  8
0
 10
-14.124927131173228
 20
-10.687806986971252
 30
0.0
  0
VERTEX
  8
0
 10
-12.853293355595724
 20
-9.620779554891596
 30
0.0
  0
VERTEX
  8
0
 10
-14.019952867176793
 20
-8.23040889063065
 30
0.0
  0
VERTEX
  8
0
 10
-13.506703090287077
 20
-7.79974119214067
 30
0.0
  0
VERTEX
  8
0
 10
-9.97867564166664
 20
-12.004280578805059
 30
0.0
  0
SEQEND
  0
POLYLINE
  8
0
 66
1
 10
0.0
 20
0.0
 30
0.0
 70
8
  0
VERTEX
  8
0
 10
12.659976502618175
 20
-7.799741192140669
 30
0.0
  0
VERTEX
  8
0
 10
13.17322627950789
 20
-8.23040889063065
 30
0.0
  0
VERTEX
  8
0
 10
12.006566767926822
 20
-9.620779554891596
 30
0.0
  0
VERTEX
  8
0
 10
13.278200543504326
 20
-10.687806986971252
 30
0.0
  0
VERTEX
  8
0
 10
14.444860055085394
 20
-9.297436322710306
 30
0.0
  0
VERTEX
  8
0
 10
14.95810983197511
 20
-9.728104021200288
 30
0.0
  0
VERTEX
  8
0
 10
11.430082383354673
 20
-13.932643407864678
 30
0.0
  0
VERTEX
  8
0
 10
10.916832606464958
 20
-13.501975709374696
 30
0.0
  0
VERTEX
  8
0
 10
12.083492118046026
 20
-12.11160504511375
 30
0.0
  0
VERTEX
  8
0
 10
10.811858342468522
 20
-11.044577613034095
 30
0.0
  0
VERTEX
  8
0
 10
9.645198830887454
 20
-12.43494827729504
 30
0.0
  0
VERTEX
  8
0
 10
9.131949053997738
 20
-12.004280578805059
 30
0.0
  0
VERTEX
  8
0
 10
12.659976502618175
 20
-7.799741192140669
 30
0.0
  0
SEQEND
  0
POLYLINE
  8
0
 66
1
 10
0.0
 20
0.0
 30
0.0
 70
8
  0
VERTEX
  8
0
 10
52.373570947283504
 20
-0.9293181818181825
 30
0.0
  0
VERTEX
  8
0
 10
66.5569931270908
 20
-0.9293181818181825
 30
0.0
  0
VERTEX
  8
0
 10
66.5569931270908
 20
-2.7443181818181825
 30
0.0
  0
VERTEX
  8
0
 10
67.22699312709081
 20
-2.7443181818181825
 30
0.0
  0
VERTEX
  8
0
 10
67.22699312709081
 20
2.7443181818181808
 30
0.0
  0
VERTEX
  8
0
 10
66.5569931270908
 20
2.7443181818181808
 30
0.0
  0
VERTEX
  8
0
 10
66.5569931270908
 20
0.9293181818181808
 30
0.0
  0
VERTEX
  8
0
 10
52.37357094728351
 20
0.929318181818179
 30
0.0
  0
SEQEND
  0
LINE
  8
0
 10
52.17435462089287
 20
1.476660540163142
 30
0.0
 11
52.37357094728351
 21
0.929318181818179
 31
0.0
  0
POLYLINE
  8
0
 66
1
 10
0.0
 20
0.0
 30
0.0
 70
8
  0
VERTEX
  8
0
 10
52.17435462089287
 20
1.476660540163142
 30
0.0
  0
VERTEX
  8
0
 10
56.51782661337748
 20
5.121266287085819
 30
0.0
  0
VERTEX
  8
0
 10
57.684486124958546
 20
3.7308956228248746
 30
0.0
  0
VERTEX
  8
0
 10
58.19773590184826
 20
4.161563321314856
 30
0.0
  0
VERTEX
  8
0
 10
54.66970845322783
 20
8.366102707979246
 30
0.0
  0
VERTEX
  8
0
 10
54.15645867633811
 20
7.935435009489265
 30
0.0
  0
VERTEX
  8
0
 10
55.32311818791918
 20
6.545064345228321
 30
0.0
  0
VERTEX
  8
0
 10
50.979646195434576
 20
2.900458598305642
 30
0.0
  0
SEQEND
  0
LINE
  8
0
 10
47.92076911146353
 20
2.9004585983056432
 30
0.0
 11
50.979646195434576
 21
2.900458598305642
 31
0.0
  0
POLYLINE
  8
0
 66
1
 10
0.0
 20
0.0
 30
0.0
 70
8
  0
VERTEX
  8
0
 10
47.92076911146353
 20
2.9004585983056432
 30
0.0
  0
VERTEX
  8
0
 10
43.577297118978926
 20
6.545064345228322
 30
0.0
  0
VERTEX
  8
0
 10
44.74395663055999
 20
7.935435009489267
 30
0.0
  0
VERTEX
  8
0
 10
44.23070685367028
 20
8.366102707979248
 30
0.0
  0
VERTEX
  8
0
 10
40.70267940504984
 20
4.161563321314858
 30
0.0
  0
VERTEX
  8
0
 10
41.21592918193956
 20
3.730895622824877
 30
0.0
  0
VERTEX
  8
0
 10
42.382588693520624
 20
5.121266287085822
 30
0.0
  0
VERTEX
  8
0
 10
46.726060686005226
 20
1.4766605401631447
 30
0.0
  0
SEQEND
  0
LINE
  8
0
 10
46.52684435961459
 20
0.9293181818181812
 30
0.0
 11
46.726060686005226
 21
1.4766605401631447
 31
0.0
  0
POLYLINE
  8
0
 66
1
 10
0.0
 20
0.0
 30
0.0
 70
8
  0
VERTEX
  8
0
 10
46.52684435961459
 20
0.9293181818181812
 30
0.0
  0
VERTEX
  8
0
 10
32.3434221798073
 20
0.9293181818181829
 30
0.0
  0
VERTEX
  8
0
 10
32.3434221798073
 20
2.744318181818183
 30
0.0
  0
VERTEX
  8
0
 10
31.673422179807297
 20
2.744318181818183
 30
0.0
  0
VERTEX
  8
0
 10
31.673422179807297
 20
-2.7443181818181803
 30
0.0
  0
VERTEX
  8
0
 10
32.3434221798073
 20
-2.7443181818181803
 30
0.0
  0
VERTEX
  8
0
 10
32.3434221798073
 20
-0.9293181818181804
 30
0.0
  0
VERTEX
  8
0
 10
46.52684435961459
 20
-0.9293181818181804
 30
0.0
  0
SEQEND
  0
LINE
  8
0
 10
46.726060686005226
 20
-1.4766605401631434
 30
0.0
 11
46.52684435961459
 21
-0.9293181818181804
 31
0.0
  0
POLYLINE
  8
0
 66
1
 10
0.0
 20
0.0
 30
0.0
 70
8
  0
VERTEX
  8
0
 10
46.726060686005226
 20
-1.4766605401631434
 30
0.0
  0
VERTEX
  8
0
 10
42.38258869352062
 20
-5.12126628708582
 30
0.0
  0
VERTEX
  8
0
 10
41.21592918193955
 20
-3.7308956228248755
 30
0.0
  0
VERTEX
  8
0
 10
40.702679405049835
 20
-4.161563321314857
 30
0.0
  0
VERTEX
  8
0
 10
44.23070685367027
 20
-8.366102707979248
 30
0.0
  0
VERTEX
  8
0
 10
44.743956630559985
 20
-7.935435009489267
 30
0.0
  0
VERTEX
  8
0
 10
43.57729711897892
 20
-6.545064345228322
 30
0.0
  0
VERTEX
  8
0
 10
47.92076911146353
 20
-2.900458598305645
 30
0.0
  0
SEQEND
  0
LINE
  8
0
 10
50.97964619543457
 20
-2.900458598305644
 30
0.0
 11
47.92076911146353
 21
-2.900458598305645
 31
0.0
  0
POLYLINE
  8
0
 66
1
 10
0.0
 20
0.0
 30
0.0
 70
8
  0
VERTEX
  8
0
 10
50.97964619543457
 20
-2.900458598305644
 30
0.0
  0
VERTEX
  8
0
 10
55.32311818791918
 20
-6.5450643452283215
 30
0.0
  0
VERTEX
  8
0
 10
54.15645867633811
 20
-7.935435009489266
 30
0.0
  0
VERTEX
  8
0
 10
54.66970845322783
 20
-8.366102707979248
 30
0.0
  0
VERTEX
  8
0
 10
58.19773590184826
 20
-4.1615633213148575
 30
0.0
  0
VERTEX
  8
0
 10
57.684486124958546
 20
-3.730895622824876
 30
0.0
  0
VERTEX
  8
0
 10
56.51782661337748
 20
-5.121266287085821
 30
0.0
  0
VERTEX
  8
0
 10
52.17435462089287
 20
-1.4766605401631439
 30
0.0
  0
SEQEND
  0
LINE
  8
0
 10
52.17435462089287
 20
-1.4766605401631439
 30
0.0
 11
52.373570947283504
 21
-0.9293181818181825
 31
0.0
  0
POLYLINE
  8
0
 66
1
 10
0.0
 20
0.0
 30
0.0
 70
8
  0
VERTEX
  8
0
 10
72.88699312709079
 20
2.744318181818181
 30
0.0
  0
VERTEX
  8
0
 10
73.55699312709079
 20
2.744318181818181
 30
0.0
  0
VERTEX
  8
0
 10
73.55699312709079
 20
0.9293181818181813
 30
0.0
  0
VERTEX
  8
0
 10
75.21699312709079
 20
0.9293181818181813
 30
0.0
  0
VERTEX
  8
0
 10
75.21699312709079
 20
2.744318181818181
 30
0.0
  0
VERTEX
  8
0
 10
75.88699312709079
 20
2.744318181818181
 30
0.0
  0
VERTEX
  8
0
 10
75.88699312709079
 20
-2.744318181818182
 30
0.0
  0
VERTEX
  8
0
 10
75.21699312709079
 20
-2.744318181818182
 30
0.0
  0
VERTEX
  8
0
 10
75.21699312709079
 20
-0.9293181818181822
 30
0.0
  0
VERTEX
  8
0
 10
73.55699312709079
 20
-0.9293181818181819
 30
0.0
  0
VERTEX
  8
0
 10
73.55699312709079
 20
-2.7443181818181817
 30
0.0
  0
VERTEX
  8
0
 10
72.88699312709079
 20
-2.7443181818181817
 30
0.0
  0
VERTEX
  8
0
 10
72.88699312709079
 20
2.744318181818181
 30
0.0
  0
SEQEND
  0
POLYLINE
  8
0
 66
1
 10
0.0
 20
0.0
 30
0.0
 70
8
  0
VERTEX
  8
0
 10
59.00552000128124
 20
12.004280578805059
 30
0.0
  0
VERTEX
  8
0
 10
59.518769778170956
 20
12.43494827729504
 30
0.0
  0
VERTEX
  8
0
 10
60.68542928975202
 20
11.044577613034095
 30
0.0
  0
VERTEX
  8
0
 10
61.95706306532953
 20
12.11160504511375
 30
0.0
  0
VERTEX
  8
0
 10
60.79040355374846
 20
13.501975709374696
 30
0.0
  0
VERTEX
  8
0
 10
61.30365333063818
 20
13.932643407864678
 30
0.0
  0
VERTEX
  8
0
 10
64.83168077925862
 20
9.728104021200288
 30
0.0
  0
VERTEX
  8
0
 10
64.3184310023689
 20
9.297436322710306
 30
0.0
  0
VERTEX
  8
0
 10
63.15177149078783
 20
10.687806986971252
 30
0.0
  0
VERTEX
  8
0
 10
61.880137715210324
 20
9.620779554891596
 30
0.0
  0
VERTEX
  8
0
 10
63.04679722679139
 20
8.23040889063065
 30
0.0
  0
VERTEX
  8
0
 10
62.533547449901675
 20
7.79974119214067
 30
0.0
  0
VERTEX
  8
0
 10
59.00552000128124
 20
12.004280578805059
 30
0.0
  0
SEQEND
  0
POLYLINE
  8
0
 66
1
 10
0.0
 20
0.0
 30
0.0
 70
8
  0
VERTEX
  8
0
 10
36.36686785699642
 20
7.7997411921406705
 30
0.0
  0
VERTEX
  8
0
 10
35.853618080106706
 20
8.230408890630653
 30
0.0
  0
VERTEX
  8
0
 10
37.02027759168777
 20
9.620779554891598
 30
0.0
  0
VERTEX
  8
0
 10
35.74864381611027
 20
10.687806986971253
 30
0.0
  0
VERTEX
  8
0
 10
34.5819843045292
 20
9.297436322710308
 30
0.0
  0
VERTEX
  8
0
 10
34.068734527639485
 20
9.72810402120029
 30
0.0
  0
VERTEX
  8
0
 10
37.59676197625992
 20
13.932643407864681
 30
0.0
  0
VERTEX
  8
0
 10
38.110011753149635
 20
13.5019757093747
 30
0.0
  0
VERTEX
  8
0
 10
36.94335224156857
 20
12.111605045113755
 30
0.0
  0
VERTEX
  8
0
 10
38.214986017146074
 20
11.0445776130341
 30
0.0
  0
VERTEX
  8
0
 10
39.38164552872714
 20
12.434948277295046
 30
0.0
  0
VERTEX
  8
0
 10
39.894895305616856
 20
12.004280578805064
 30
0.0
  0
VERTEX
  8
0
 10
36.36686785699642
 20
7.7997411921406705
 30
0.0
  0
SEQEND
  0
POLYLINE
  8
0
 66
1
 10
0.0
 20
0.0
 30
0.0
 70
8
  0
VERTEX
  8
0
 10
39.894895305616856
 20
-12.004280578805059
 30
0.0
  0
VERTEX
  8
0
 10
39.38164552872714
 20
-12.43494827729504
 30
0.0
  0
VERTEX
  8
0
 10
38.214986017146074
 20
-11.044577613034095
 30
0.0
  0
VERTEX
  8
0
 10
36.94335224156857
 20
-12.11160504511375
 30
0.0
  0
VERTEX
  8
0
 10
38.110011753149635
 20
-13.501975709374696
 30
0.0
  0
VERTEX
  8
0
 10
37.59676197625992
 20
-13.932643407864678
 30
0.0
  0
VERTEX
  8
0
 10
34.068734527639485
 20
-9.728104021200288
 30
0.0
  0
VERTEX
  8
0
 10
34.5819843045292
 20
-9.297436322710306
 30
0.0
  0
VERTEX
  8
0
 10
35.74864381611027
 20
-10.687806986971252
 30
0.0
  0
VERTEX
  8
0
 10
37.02027759168777
 20
-9.620779554891596
 30
0.0
  0
VERTEX
  8
0
 10
35.853618080106706
 20
-8.23040889063065
 30
0.0
  0
VERTEX
  8
0
 10
36.36686785699642
 20
-7.79974119214067
 30
0.0
  0
VERTEX
  8
0
 10
39.894895305616856
 20
-12.004280578805059
 30
0.0
  0
SEQEND
  0
POLYLINE
  8
0
 66
1
 10
0.0
 20
0.0
 30
0.0
 70
8
  0
VERTEX
  8
0
 10
62.533547449901675
 20
-7.7997411921406705
 30
0.0
  0
VERTEX
  8
0
 10
63.04679722679139
 20
-8.230408890630653
 30
0.0
  0
VERTEX
  8
0
 10
61.880137715210324
 20
-9.620779554891598
 30
0.0
  0
VERTEX
  8
0
 10
63.15177149078783
 20
-10.687806986971253
 30
0.0
  0
VERTEX
  8
0
 10
64.3184310023689
 20
-9.297436322710308
 30
0.0
  0
VERTEX
  8
0
 10
64.83168077925862
 20
-9.72810402120029
 30
0.0
  0
VERTEX
  8
0
 10
61.303653330638184
 20
-13.932643407864681
 30
0.0
  0
VERTEX
  8
0
 10
60.79040355374847
 20
-13.5019757093747
 30
0.0
  0
VERTEX
  8
0
 10
61.957063065329535
 20
-12.111605045113754
 30
0.0
  0
VERTEX
  8
0
 10
60.68542928975203
 20
-11.044577613034098
 30
0.0
  0
VERTEX
  8
0
 10
59.51876977817096
 20
-12.434948277295044
 30
0.0
  0
VERTEX
  8
0
 10
59.00552000128125
 20
-12.004280578805062
 30
0.0
  0
VERTEX
  8
0
 10
62.533547449901675
 20
-7.7997411921406705
 30
0.0
  0
SEQEND
  0
POLYLINE
  8
0
 66
1
 10
0.0
 20
0.0
 30
0.0
 70
8
  0
VERTEX
  8
0
 10
102.24714189456701
 20
-0.9293181818181834
 30
0.0
  0
VERTEX
  8
0
 10
116.4305640743743
 20
-0.9293181818181834
 30
0.0
  0
VERTEX
  8
0
 10
116.4305640743743
 20
-2.7443181818181834
 30
0.0
  0
VERTEX
  8
0
 10
117.1005640743743
 20
-2.7443181818181834
 30
0.0
  0
VERTEX
  8
0
 10
117.1005640743743
 20
2.74431818181818
 30
0.0
  0
VERTEX
  8
0
 10
116.4305640743743
 20
2.74431818181818
 30
0.0
  0
VERTEX
  8
0
 10
116.4305640743743
 20
0.9293181818181799
 30
0.0
  0
VERTEX
  8
0
 10
102.24714189456701
 20
0.9293181818181782
 30
0.0
  0
SEQEND
  0
LINE
  8
0
 10
102.04792556817637
 20
1.4766605401631412
 30
0.0
 11
102.24714189456701
 21
0.9293181818181782
 31
0.0
  0
POLYLINE
  8
0
 66
1
 10
0.0
 20
0.0
 30
0.0
 70
8
  0
VERTEX
  8
0
 10
102.04792556817637
 20
1.4766605401631412
 30
0.0
  0
VERTEX
  8
0
 10
106.39139756066098
 20
5.1212662870858185
 30
0.0
  0
VERTEX
  8
0
 10
107.55805707224205
 20
3.7308956228248737
 30
0.0
  0
VERTEX
  8
0
 10
108.07130684913176
 20
4.161563321314855
 30
0.0
  0
VERTEX
  8
0
 10
104.54327940051132
 20
8.366102707979245
 30
0.0
  0
VERTEX
  8
0
 10
104.0300296236216
 20
7.935435009489264
 30
0.0
  0
VERTEX
  8
0
 10
105.19668913520267
 20
6.545064345228319
 30
0.0
  0
VERTEX
  8
0
 10
100.85321714271807
 20
2.90045859830564
 30
0.0
  0
SEQEND
  0
LINE
  8
0
 10
97.79434005874703
 20
2.9004585983056423
 30
0.0
 11
100.85321714271807
 21
2.90045859830564
 31
0.0
  0
POLYLINE
  8
0
 66
1
 10
0.0
 20
0.0
 30
0.0
 70
8
  0
VERTEX
  8
0
 10
97.79434005874703
 20
2.9004585983056423
 30
0.0
  0
VERTEX
  8
0
 10
93.45086806626242
 20
6.545064345228321
 30
0.0
  0
VERTEX
  8
0
 10
94.61752757784349
 20
7.935435009489265
 30
0.0
  0
VERTEX
  8
0
 10
94.10427780095378
 20
8.366102707979246
 30
0.0
  0
VERTEX
  8
0
 10
90.57625035233335
 20
4.161563321314857
 30
0.0
  0
VERTEX
  8
0
 10
91.08950012922305
 20
3.730895622824875
 30
0.0
  0
VERTEX
  8
0
 10
92.25615964080413
 20
5.12126628708582
 30
0.0
  0
VERTEX
  8
0
 10
96.59963163328874
 20
1.476660540163143
 30
0.0
  0
SEQEND
  0
LINE
  8
0
 10
96.4004153068981
 20
0.9293181818181803
 30
0.0
 11
96.59963163328874
 21
1.476660540163143
 31
0.0
  0
POLYLINE
  8
0
 66
1
 10
0.0
 20
0.0
 30
0.0
 70
8
  0
VERTEX
  8
0
 10
96.4004153068981
 20
0.9293181818181803
 30
0.0
  0
VERTEX
  8
0
 10
82.2169931270908
 20
0.929318181818182
 30
0.0
  0
VERTEX
  8
0
 10
82.2169931270908
 20
2.744318181818182
 30
0.0
  0
VERTEX
  8
0
 10
81.5469931270908
 20
2.744318181818182
 30
0.0
  0
VERTEX
  8
0
 10
81.5469931270908
 20
-2.744318181818181
 30
0.0
  0
VERTEX
  8
0
 10
82.2169931270908
 20
-2.744318181818181
 30
0.0
  0
VERTEX
  8
0
 10
82.2169931270908
 20
-0.9293181818181813
 30
0.0
  0
VERTEX
  8
0
 10
96.4004153068981
 20
-0.9293181818181813
 30
0.0
  0
SEQEND
  0
LINE
  8
0
 10
96.59963163328874
 20
-1.4766605401631443
 30
0.0
 11
96.4004153068981
 21
-0.9293181818181813
 31
0.0
  0
POLYLINE
  8
0
 66
1
 10
0.0
 20
0.0
 30
0.0
 70
8
  0
VERTEX
  8
0
 10
96.59963163328874
 20
-1.4766605401631443
 30
0.0
  0
VERTEX
  8
0
 10
92.25615964080413
 20
-5.121266287085822
 30
0.0
  0
VERTEX
  8
0
 10
91.08950012922305
 20
-3.7308956228248773
 30
0.0
  0
VERTEX
  8
0
 10
90.57625035233335
 20
-4.161563321314858
 30
0.0
  0
VERTEX
  8
0
 10
94.10427780095378
 20
-8.366102707979248
 30
0.0
  0
VERTEX
  8
0
 10
94.6175275778435
 20
-7.935435009489267
 30
0.0
  0
VERTEX
  8
0
 10
93.45086806626243
 20
-6.545064345228322
 30
0.0
  0
VERTEX
  8
0
 10
97.79434005874704
 20
-2.900458598305645
 30
0.0
  0
SEQEND
  0
LINE
  8
0
 10
100.85321714271808
 20
-2.900458598305645
 30
0.0
 11
97.79434005874704
 21
-2.900458598305645
 31
0.0
  0
POLYLINE
  8
0
 66
1
 10
0.0
 20
0.0
 30
0.0
 70
8
  0
VERTEX
  8
0
 10
100.85321714271808
 20
-2.900458598305645
 30
0.0
  0
VERTEX
  8
0
 10
105.19668913520269
 20
-6.545064345228322
 30
0.0
  0
VERTEX
  8
0
 10
104.03002962362162
 20
-7.935435009489267
 30
0.0
  0
VERTEX
  8
0
 10
104.54327940051132
 20
-8.366102707979248
 30
0.0
  0
VERTEX
  8
0
 10
108.07130684913176
 20
-4.1615633213148575
 30
0.0
  0
VERTEX
  8
0
 10
107.55805707224205
 20
-3.730895622824876
 30
0.0
  0
VERTEX
  8
0
 10
106.39139756066098
 20
-5.121266287085821
 30
0.0
  0
VERTEX
  8
0
 10
102.04792556817637
 20
-1.4766605401631439
 30
0.0
  0
SEQEND
  0
LINE
  8
0
 10
102.04792556817637
 20
-1.4766605401631439
 30
0.0
 11
102.24714189456701
 21
-0.9293181818181834
 31
0.0
  0
POLYLINE
  8
0
 66
1
 10
0.0
 20
0.0
 30
0.0
 70
8
  0
VERTEX
  8
0
 10
122.7605640743743
 20
2.7443181818181803
 30
0.0
  0
VERTEX
  8
0
 10
123.4305640743743
 20
2.7443181818181803
 30
0.0
  0
VERTEX
  8
0
 10
123.4305640743743
 20
0.9293181818181804
 30
0.0
  0
VERTEX
  8
0
 10
125.0905640743743
 20
0.9293181818181804
 30
0.0
  0
VERTEX
  8
0
 10
125.0905640743743
 20
2.7443181818181803
 30
0.0
  0
VERTEX
  8
0
 10
125.7605640743743
 20
2.7443181818181803
 30
0.0
  0
VERTEX
  8
0
 10
125.7605640743743
 20
-2.744318181818183
 30
0.0
  0
VERTEX
  8
0
 10
125.0905640743743
 20
-2.744318181818183
 30
0.0
  0
VERTEX
  8
0
 10
125.0905640743743
 20
-0.929318181818183
 30
0.0
  0
VERTEX
  8
0
 10
123.4305640743743
 20
-0.9293181818181828
 30
0.0
  0
VERTEX
  8
0
 10
123.4305640743743
 20
-2.7443181818181825
 30
0.0
  0
VERTEX
  8
0
 10
122.7605640743743
 20
-2.7443181818181825
 30
0.0
  0
VERTEX
  8
0
 10
122.7605640743743
 20
2.7443181818181803
 30
0.0
  0
SEQEND
  0
POLYLINE
  8
0
 66
1
 10
0.0
 20
0.0
 30
0.0
 70
8
  0
VERTEX
  8
0
 10
108.87909094856474
 20
12.004280578805057
 30
0.0
  0
VERTEX
  8
0
 10
109.39234072545446
 20
12.434948277295039
 30
0.0
  0
VERTEX
  8
0
 10
110.55900023703553
 20
11.044577613034093
 30
0.0
  0
VERTEX
  8
0
 10
111.83063401261303
 20
12.111605045113748
 30
0.0
  0
VERTEX
  8
0
 10
110.66397450103196
 20
13.501975709374694
 30
0.0
  0
VERTEX
  8
0
 10
111.17722427792168
 20
13.932643407864676
 30
0.0
  0
VERTEX
  8
0
 10
114.70525172654212
 20
9.728104021200284
 30
0.0
  0
VERTEX
  8
0
 10
114.1920019496524
 20
9.297436322710302
 30
0.0
  0
VERTEX
  8
0
 10
113.02534243807132
 20
10.687806986971248
 30
0.0
  0
VERTEX
  8
0
 10
111.75370866249382
 20
9.620779554891593
 30
0.0
  0
VERTEX
  8
0
 10
112.9203681740749
 20
8.230408890630647
 30
0.0
  0
VERTEX
  8
0
 10
112.40711839718517
 20
7.799741192140666
 30
0.0
  0
VERTEX
  8
0
 10
108.87909094856474
 20
12.004280578805057
 30
0.0
  0
SEQEND
  0
POLYLINE
  8
0
 66
1
 10
0.0
 20
0.0
 30
0.0
 70
8
  0
VERTEX
  8
0
 10
86.24043880427993
 20
7.7997411921406705
 30
0.0
  0
VERTEX
  8
0
 10
85.72718902739022
 20
8.230408890630653
 30
0.0
  0
VERTEX
  8
0
 10
86.8938485389713
 20
9.620779554891598
 30
0.0
  0
VERTEX
  8
0
 10
85.6222147633938
 20
10.687806986971253
 30
0.0
  0
VERTEX
  8
0
 10
84.45555525181273
 20
9.297436322710308
 30
0.0
  0
VERTEX
  8
0
 10
83.94230547492302
 20
9.72810402120029
 30
0.0
  0
VERTEX
  8
0
 10
87.47033292354345
 20
13.932643407864681
 30
0.0
  0
VERTEX
  8
0
 10
87.98358270043316
 20
13.5019757093747
 30
0.0
  0
VERTEX
  8
0
 10
86.81692318885209
 20
12.111605045113755
 30
0.0
  0
VERTEX
  8
0
 10
88.08855696442959
 20
11.0445776130341
 30
0.0
  0
VERTEX
  8
0
 10
89.25521647601066
 20
12.434948277295046
 30
0.0
  0
VERTEX
  8
0
 10
89.76846625290037
 20
12.004280578805064
 30
0.0
  0
VERTEX
  8
0
 10
86.24043880427993
 20
7.7997411921406705
 30
0.0
  0
SEQEND
  0
POLYLINE
  8
0
 66
1
 10
0.0
 20
0.0
 30
0.0
 70
8
  0
VERTEX
  8
0
 10
89.76846625290037
 20
-12.00428057880506
 30
0.0
  0
VERTEX
  8
0
 10
89.25521647601065
 20
-12.434948277295042
 30
0.0
  0
VERTEX
  8
0
 10
88.08855696442957
 20
-11.044577613034097
 30
0.0
  0
VERTEX
  8
0
 10
86.81692318885207
 20
-12.111605045113752
 30
0.0
  0
VERTEX
  8
0
 10
87.98358270043315
 20
-13.501975709374697
 30
0.0
  0
VERTEX
  8
0
 10
87.47033292354342
 20
-13.93264340786468
 30
0.0
  0
VERTEX
  8
0
 10
83.94230547492299
 20
-9.728104021200288
 30
0.0
  0
VERTEX
  8
0
 10
84.45555525181271
 20
-9.297436322710306
 30
0.0
  0
VERTEX
  8
0
 10
85.62221476339379
 20
-10.687806986971252
 30
0.0
  0
VERTEX
  8
0
 10
86.89384853897128
 20
-9.620779554891596
 30
0.0
  0
VERTEX
  8
0
 10
85.72718902739021
 20
-8.23040889063065
 30
0.0
  0
VERTEX
  8
0
 10
86.24043880427993
 20
-7.79974119214067
 30
0.0
  0
VERTEX
  8
0
 10
89.76846625290037
 20
-12.00428057880506
 30
0.0
  0
SEQEND
  0
POLYLINE
  8
0
 66
1
 10
0.0
 20
0.0
 30
0.0
 70
8
  0
VERTEX
  8
0
 10
112.40711839718517
 20
-7.7997411921406705
 30
0.0
  0
VERTEX
  8
0
 10
112.9203681740749
 20
-8.230408890630653
 30
0.0
  0
VERTEX
  8
0
 10
111.75370866249382
 20
-9.620779554891598
 30
0.0
  0
VERTEX
  8
0
 10
113.02534243807132
 20
-10.687806986971253
 30
0.0
  0
VERTEX
  8
0
 10
114.1920019496524
 20
-9.297436322710308
 30
0.0
  0
VERTEX
  8
0
 10
114.70525172654212
 20
-9.72810402120029
 30
0.0
  0
VERTEX
  8
0
 10
111.17722427792168
 20
-13.932643407864681
 30
0.0
  0
VERTEX
  8
0
 10
110.66397450103197
 20
-13.5019757093747
 30
0.0
  0
VERTEX
  8
0
 10
111.83063401261305
 20
-12.111605045113754
 30
0.0
  0
VERTEX
  8
0
 10
110.55900023703555
 20
-11.044577613034098
 30
0.0
  0
VERTEX
  8
0
 10
109.39234072545447
 20
-12.434948277295044
 30
0.0
  0
VERTEX
  8
0
 10
108.87909094856477
 20
-12.004280578805062
 30
0.0
  0
VERTEX
  8
0
 10
112.40711839718517
 20
-7.7997411921406705
 30
0.0
  0
SEQEND
  0
POLYLINE
  8
0
 66
1
 10
0.0
 20
0.0
 30
0.0
 70
8
  0
VERTEX
  8
0
 10
27.43678547364175
 20
-22.661702781823525
 30
0.0
  0
VERTEX
  8
0
 10
41.62020765344904
 20
-22.661702781823525
 30
0.0
  0
VERTEX
  8
0
 10
41.62020765344904
 20
-24.476702781823526
 30
0.0
  0
VERTEX
  8
0
 10
42.290207653449045
 20
-24.476702781823526
 30
0.0
  0
VERTEX
  8
0
 10
42.290207653449045
 20
-18.988066418187163
 30
0.0
  0
VERTEX
  8
0
 10
41.62020765344904
 20
-18.988066418187163
 30
0.0
  0
VERTEX
  8
0
 10
41.62020765344904
 20
-20.803066418187164
 30
0.0
  0
VERTEX
  8
0
 10
27.43678547364175
 20
-20.803066418187164
 30
0.0
  0
SEQEND
  0
LINE
  8
0
 10
27.237569147251115
 20
-20.2557240598422
 30
0.0
 11
27.43678547364175
 21
-20.803066418187164
 31
0.0
  0
POLYLINE
  8
0
 66
1
 10
0.0
 20
0.0
 30
0.0
 70
8
  0
VERTEX
  8
0
 10
27.237569147251115
 20
-20.2557240598422
 30
0.0
  0
VERTEX
  8
0
 10
31.58104113973572
 20
-16.611118312919523
 30
0.0
  0
VERTEX
  8
0
 10
32.74770065131679
 20
-18.00148897718047
 30
0.0
  0
VERTEX
  8
0
 10
33.260950428206506
 20
-17.570821278690488
 30
0.0
  0
VERTEX
  8
0
 10
29.732922979586068
 20
-13.366281892026098
 30
0.0
  0
VERTEX
  8
0
 10
29.219673202696352
 20
-13.79694959051608
 30
0.0
  0
VERTEX
  8
0
 10
30.386332714277422
 20
-15.187320254777026
 30
0.0
  0
VERTEX
  8
0
 10
26.042860721792817
 20
-18.831926001699706
 30
0.0
  0
SEQEND
  0
LINE
  8
0
 10
22.983983637821776
 20
-18.831926001699703
 30
0.0
 11
26.042860721792817
 21
-18.831926001699706
 31
0.0
  0
POLYLINE
  8
0
 66
1
 10
0.0
 20
0.0
 30
0.0
 70
8
  0
VERTEX
  8
0
 10
22.983983637821776
 20
-18.831926001699703
 30
0.0
  0
VERTEX
  8
0
 10
18.64051164533717
 20
-15.187320254777024
 30
0.0
  0
VERTEX
  8
0
 10
19.80717115691824
 20
-13.796949590516078
 30
0.0
  0
VERTEX
  8
0
 10
19.293921380028525
 20
-13.366281892026096
 30
0.0
  0
VERTEX
  8
0
 10
15.765893931408087
 20
-17.570821278690488
 30
0.0
  0
VERTEX
  8
0
 10
16.279143708297802
 20
-18.00148897718047
 30
0.0
  0
VERTEX
  8
0
 10
17.445803219878872
 20
-16.611118312919523
 30
0.0
  0
VERTEX
  8
0
 10
21.789275212363478
 20
-20.2557240598422
 30
0.0
  0
SEQEND
  0
LINE
  8
0
 10
21.590058885972844
 20
-20.80306641818716
 30
0.0
 11
21.789275212363478
 21
-20.2557240598422
 31
0.0
  0
POLYLINE
  8
0
 66
1
 10
0.0
 20
0.0
 30
0.0
 70
8
  0
VERTEX
  8
0
 10
21.590058885972844
 20
-20.80306641818716
 30
0.0
  0
VERTEX
  8
0
 10
7.40663670616555
 20
-20.80306641818716
 30
0.0
  0
VERTEX
  8
0
 10
7.40663670616555
 20
-18.98806641818716
 30
0.0
  0
VERTEX
  8
0
 10
6.73663670616555
 20
-18.98806641818716
 30
0.0
  0
VERTEX
  8
0
 10
6.736636706165549
 20
-24.476702781823523
 30
0.0
  0
VERTEX
  8
0
 10
7.406636706165549
 20
-24.476702781823523
 30
0.0
  0
VERTEX
  8
0
 10
7.406636706165549
 20
-22.66170278182352
 30
0.0
  0
VERTEX
  8
0
 10
21.590058885972844
 20
-22.66170278182352
 30
0.0
  0
SEQEND
  0
LINE
  8
0
 10
21.789275212363478
 20
-23.209045140168488
 30
0.0
 11
21.590058885972844
 21
-22.66170278182352
 31
0.0
  0
POLYLINE
  8
0
 66
1
 10
0.0
 20
0.0
 30
0.0
 70
8
  0
VERTEX
  8
0
 10
21.789275212363478
 20
-23.209045140168488
 30
0.0
  0
VERTEX
  8
0
 10
17.445803219878872
 20
-26.853650887091167
 30
0.0
  0
VERTEX
  8
0
 10
16.279143708297802
 20
-25.46328022283022
 30
0.0
  0
VERTEX
  8
0
 10
15.765893931408087
 20
-25.8939479213202
 30
0.0
  0
VERTEX
  8
0
 10
19.29392138002852
 20
-30.09848730798459
 30
0.0
  0
VERTEX
  8
0
 10
19.807171156918237
 20
-29.66781960949461
 30
0.0
  0
VERTEX
  8
0
 10
18.640511645337167
 20
-28.277448945233665
 30
0.0
  0
VERTEX
  8
0
 10
22.983983637821773
 20
-24.632843198310987
 30
0.0
  0
SEQEND
  0
LINE
  8
0
 10
26.042860721792817
 20
-24.632843198310987
 30
0.0
 11
22.983983637821773
 21
-24.632843198310987
 31
0.0
  0
POLYLINE
  8
0
 66
1
 10
0.0
 20
0.0
 30
0.0
 70
8
  0
VERTEX
  8
0
 10
26.042860721792817
 20
-24.632843198310987
 30
0.0
  0
VERTEX
  8
0
 10
30.386332714277422
 20
-28.277448945233665
 30
0.0
  0
VERTEX
  8
0
 10
29.219673202696352
 20
-29.66781960949461
 30
0.0
  0
VERTEX
  8
0
 10
29.732922979586068
 20
-30.09848730798459
 30
0.0
  0
VERTEX
  8
0
 10
33.260950428206506
 20
-25.8939479213202
 30
0.0
  0
VERTEX
  8
0
 10
32.74770065131679
 20
-25.46328022283022
 30
0.0
  0
VERTEX
  8
0
 10
31.58104113973572
 20
-26.853650887091167
 30
0.0
  0
VERTEX
  8
0
 10
27.237569147251115
 20
-23.209045140168488
 30
0.0
  0
SEQEND
  0
LINE
  8
0
 10
27.237569147251115
 20
-23.209045140168488
 30
0.0
 11
27.43678547364175
 21
-22.661702781823525
 31
0.0
  0
POLYLINE
  8
0
 66
1
 10
0.0
 20
0.0
 30
0.0
 70
8
  0
VERTEX
  8
0
 10
47.95020765344904
 20
-18.98806641818716
 30
0.0
  0
VERTEX
  8
0
 10
48.62020765344904
 20
-18.98806641818716
 30
0.0
  0
VERTEX
  8
0
 10
48.62020765344904
 20
-20.80306641818716
 30
0.0
  0
VERTEX
  8
0
 10
50.28020765344904
 20
-20.80306641818716
 30
0.0
  0
VERTEX
  8
0
 10
50.28020765344904
 20
-18.98806641818716
 30
0.0
  0
VERTEX
  8
0
 10
50.95020765344904
 20
-18.98806641818716
 30
0.0
  0
VERTEX
  8
0
 10
50.95020765344904
 20
-24.476702781823523
 30
0.0
  0
VERTEX
  8
0
 10
50.28020765344904
 20
-24.476702781823523
 30
0.0
  0
VERTEX
  8
0
 10
50.28020765344904
 20
-22.66170278182352
 30
0.0
  0
VERTEX
  8
0
 10
48.62020765344904
 20
-22.66170278182352
 30
0.0
  0
VERTEX
  8
0
 10
48.62020765344904
 20
-24.476702781823523
 30
0.0
  0
VERTEX
  8
0
 10
47.95020765344904
 20
-24.476702781823523
 30
0.0
  0
VERTEX
  8
0
 10
47.95020765344904
 20
-18.98806641818716
 30
0.0
  0
SEQEND
  0
POLYLINE
  8
0
 66
1
 10
0.0
 20
0.0
 30
0.0
 70
8
  0
VERTEX
  8
0
 10
11.430082383354671
 20
-13.932643407864676
 30
0.0
  0
VERTEX
  8
0
 10
10.916832606464956
 20
-13.501975709374694
 30
0.0
  0
VERTEX
  8
0
 10
12.083492118046024
 20
-12.111605045113748
 30
0.0
  0
VERTEX
  8
0
 10
10.81185834246852
 20
-11.044577613034093
 30
0.0
  0
VERTEX
  8
0
 10
9.645198830887452
 20
-12.434948277295039
 30
0.0
  0
VERTEX
  8
0
 10
9.131949053997737
 20
-12.004280578805057
 30
0.0
  0
VERTEX
  8
0
 10
12.659976502618175
 20
-7.799741192140666
 30
0.0
  0
VERTEX
  8
0
 10
13.17322627950789
 20
-8.230408890630647
 30
0.0
  0
VERTEX
  8
0
 10
12.00656676792682
 20
-9.620779554891591
 30
0.0
  0
VERTEX
  8
0
 10
13.278200543504324
 20
-10.687806986971246
 30
0.0
  0
VERTEX
  8
0
 10
14.444860055085393
 20
-9.2974363227103
 30
0.0
  0
VERTEX
  8
0
 10
14.958109831975108
 20
-9.728104021200283
 30
0.0
  0
VERTEX
  8
0
 10
11.430082383354671
 20
-13.932643407864676
 30
0.0
  0
SEQEND
  0
POLYLINE
  8
0
 66
1
 10
0.0
 20
0.0
 30
0.0
 70
8
  0
VERTEX
  8
0
 10
1.076636706165551
 20
-24.47670278182352
 30
0.0
  0
VERTEX
  8
0
 10
0.40663670616555103
 20
-24.47670278182352
 30
0.0
  0
VERTEX
  8
0
 10
0.40663670616555114
 20
-22.661702781823518
 30
0.0
  0
VERTEX
  8
0
 10
-1.253363293834449
 20
-22.661702781823518
 30
0.0
  0
VERTEX
  8
0
 10
-1.2533632938344494
 20
-24.47670278182352
 30
0.0
  0
VERTEX
  8
0
 10
-1.9233632938344494
 20
-24.47670278182352
 30
0.0
  0
VERTEX
  8
0
 10
-1.923363293834449
 20
-18.988066418187156
 30
0.0
  0
VERTEX
  8
0
 10
-1.253363293834449
 20
-18.988066418187156
 30
0.0
  0
VERTEX
  8
0
 10
-1.2533632938344494
 20
-20.803066418187157
 30
0.0
  0
VERTEX
  8
0
 10
0.4066367061655507
 20
-20.803066418187157
 30
0.0
  0
VERTEX
  8
0
 10
0.4066367061655508
 20
-18.988066418187156
 30
0.0
  0
VERTEX
  8
0
 10
1.0766367061655508
 20
-18.988066418187156
 30
0.0
  0
VERTEX
  8
0
 10
1.076636706165551
 20
-24.47670278182352
 30
0.0
  0
SEQEND
  0
POLYLINE
  8
0
 66
1
 10
0.0
 20
0.0
 30
0.0
 70
8
  0
VERTEX
  8
0
 10
14.958109831975111
 20
-33.736665178810405
 30
0.0
  0
VERTEX
  8
0
 10
14.444860055085396
 20
-34.16733287730039
 30
0.0
  0
VERTEX
  8
0
 10
13.278200543504328
 20
-32.77696221303945
 30
0.0
  0
VERTEX
  8
0
 10
12.006566767926824
 20
-33.8439896451191
 30
0.0
  0
VERTEX
  8
0
 10
13.173226279507892
 20
-35.234360309380044
 30
0.0
  0
VERTEX
  8
0
 10
12.659976502618177
 20
-35.66502800787003
 30
0.0
  0
VERTEX
  8
0
 10
9.13194905399774
 20
-31.460488621205638
 30
0.0
  0
VERTEX
  8
0
 10
9.645198830887455
 20
-31.029820922715658
 30
0.0
  0
VERTEX
  8
0
 10
10.811858342468524
 20
-32.4201915869766
 30
0.0
  0
VERTEX
  8
0
 10
12.083492118046028
 20
-31.353164154896945
 30
0.0
  0
VERTEX
  8
0
 10
10.91683260646496
 20
-29.962793490636
 30
0.0
  0
VERTEX
  8
0
 10
11.430082383354675
 20
-29.53212579214602
 30
0.0
  0
VERTEX
  8
0
 10
14.958109831975111
 20
-33.736665178810405
 30
0.0
  0
SEQEND
  0
POLYLINE
  8
0
 66
1
 10
0.0
 20
0.0
 30
0.0
 70
8
  0
VERTEX
  8
0
 10
37.59676197625992
 20
-29.532125792146008
 30
0.0
  0
VERTEX
  8
0
 10
38.110011753149635
 20
-29.96279349063599
 30
0.0
  0
VERTEX
  8
0
 10
36.94335224156857
 20
-31.353164154896934
 30
0.0
  0
VERTEX
  8
0
 10
38.214986017146074
 20
-32.42019158697659
 30
0.0
  0
VERTEX
  8
0
 10
39.38164552872714
 20
-31.029820922715647
 30
0.0
  0
VERTEX
  8
0
 10
39.894895305616856
 20
-31.460488621205627
 30
0.0
  0
VERTEX
  8
0
 10
36.36686785699642
 20
-35.66502800787002
 30
0.0
  0
VERTEX
  8
0
 10
35.853618080106706
 20
-35.23436030938004
 30
0.0
  0
VERTEX
  8
0
 10
37.02027759168777
 20
-33.843989645119095
 30
0.0
  0
VERTEX
  8
0
 10
35.74864381611027
 20
-32.77696221303944
 30
0.0
  0
VERTEX
  8
0
 10
34.5819843045292
 20
-34.16733287730038
 30
0.0
  0
VERTEX
  8
0
 10
34.068734527639485
 20
-33.7366651788104
 30
0.0
  0
VERTEX
  8
0
 10
37.59676197625992
 20
-29.532125792146008
 30
0.0
  0
SEQEND
  0
POLYLINE
  8
0
 66
1
 10
0.0
 20
0.0
 30
0.0
 70
8
  0
VERTEX
  8
0
 10
77.31035642092525
 20
-22.661702781823525
 30
0.0
  0
VERTEX
  8
0
 10
91.49377860073254
 20
-22.661702781823525
 30
0.0
  0
VERTEX
  8
0
 10
91.49377860073254
 20
-24.476702781823526
 30
0.0
  0
VERTEX
  8
0
 10
92.16377860073254
 20
-24.476702781823526
 30
0.0
  0
VERTEX
  8
0
 10
92.16377860073254
 20
-18.988066418187163
 30
0.0
  0
VERTEX
  8
0
 10
91.49377860073254
 20
-18.988066418187163
 30
0.0
  0
VERTEX
  8
0
 10
91.49377860073254
 20
-20.803066418187164
 30
0.0
  0
VERTEX
  8
0
 10
77.31035642092525
 20
-20.803066418187164
 30
0.0
  0
SEQEND
  0
LINE
  8
0
 10
77.1111400945346
 20
-20.2557240598422
 30
0.0
 11
77.31035642092525
 21
-20.803066418187164
 31
0.0
  0
POLYLINE
  8
0
 66
1
 10
0.0
 20
0.0
 30
0.0
 70
8
  0
VERTEX
  8
0
 10
77.1111400945346
 20
-20.2557240598422
 30
0.0
  0
VERTEX
  8
0
 10
81.45461208701921
 20
-16.611118312919523
 30
0.0
  0
VERTEX
  8
0
 10
82.62127159860029
 20
-18.00148897718047
 30
0.0
  0
VERTEX
  8
0
 10
83.13452137549001
 20
-17.570821278690488
 30
0.0
  0
VERTEX
  8
0
 10
79.60649392686958
 20
-13.366281892026098
 30
0.0
  0
VERTEX
  8
0
 10
79.09324414997985
 20
-13.79694959051608
 30
0.0
  0
VERTEX
  8
0
 10
80.25990366156093
 20
-15.187320254777026
 30
0.0
  0
VERTEX
  8
0
 10
75.91643166907632
 20
-18.831926001699706
 30
0.0
  0
SEQEND
  0
LINE
  8
0
 10
72.85755458510526
 20
-18.831926001699703
 30
0.0
 11
75.91643166907632
 21
-18.831926001699706
 31
0.0
  0
POLYLINE
  8
0
 66
1
 10
0.0
 20
0.0
 30
0.0
 70
8
  0
VERTEX
  8
0
 10
72.85755458510526
 20
-18.831926001699703
 30
0.0
  0
VERTEX
  8
0
 10
68.51408259262065
 20
-15.187320254777024
 30
0.0
  0
VERTEX
  8
0
 10
69.68074210420173
 20
-13.796949590516078
 30
0.0
  0
VERTEX
  8
0
 10
69.16749232731202
 20
-13.366281892026096
 30
0.0
  0
VERTEX
  8
0
 10
65.63946487869158
 20
-17.570821278690488
 30
0.0
  0
VERTEX
  8
0
 10
66.15271465558129
 20
-18.00148897718047
 30
0.0
  0
VERTEX
  8
0
 10
67.31937416716237
 20
-16.611118312919523
 30
0.0
  0
VERTEX
  8
0
 10
71.66284615964697
 20
-20.2557240598422
 30
0.0
  0
SEQEND
  0
LINE
  8
0
 10
71.46362983325633
 20
-20.80306641818716
 30
0.0
 11
71.66284615964697
 21
-20.2557240598422
 31
0.0
  0
POLYLINE
  8
0
 66
1
 10
0.0
 20
0.0
 30
0.0
 70
8
  0
VERTEX
  8
0
 10
71.46362983325633
 20
-20.80306641818716
 30
0.0
  0
VERTEX
  8
0
 10
57.28020765344904
 20
-20.80306641818716
 30
0.0
  0
VERTEX
  8
0
 10
57.28020765344904
 20
-18.98806641818716
 30
0.0
  0
VERTEX
  8
0
 10
56.61020765344904
 20
-18.98806641818716
 30
0.0
  0
VERTEX
  8
0
 10
56.61020765344904
 20
-24.476702781823523
 30
0.0
  0
VERTEX
  8
0
 10
57.28020765344904
 20
-24.476702781823523
 30
0.0
  0
VERTEX
  8
0
 10
57.28020765344904
 20
-22.66170278182352
 30
0.0
  0
VERTEX
  8
0
 10
71.46362983325633
 20
-22.66170278182352
 30
0.0
  0
SEQEND
  0
LINE
  8
0
 10
71.66284615964697
 20
-23.209045140168488
 30
0.0
 11
71.46362983325633
 21
-22.66170278182352
 31
0.0
  0
POLYLINE
  8
0
 66
1
 10
0.0
 20
0.0
 30
0.0
 70
8
  0
VERTEX
  8
0
 10
71.66284615964697
 20
-23.209045140168488
 30
0.0
  0
VERTEX
  8
0
 10
67.31937416716237
 20
-26.853650887091167
 30
0.0
  0
VERTEX
  8
0
 10
66.15271465558129
 20
-25.46328022283022
 30
0.0
  0
VERTEX
  8
0
 10
65.63946487869157
 20
-25.8939479213202
 30
0.0
  0
VERTEX
  8
0
 10
69.167492327312
 20
-30.09848730798459
 30
0.0
  0
VERTEX
  8
0
 10
69.68074210420173
 20
-29.66781960949461
 30
0.0
  0
VERTEX
  8
0
 10
68.51408259262065
 20
-28.277448945233665
 30
0.0
  0
VERTEX
  8
0
 10
72.85755458510526
 20
-24.632843198310987
 30
0.0
  0
SEQEND
  0
LINE
  8
0
 10
75.91643166907632
 20
-24.632843198310987
 30
0.0
 11
72.85755458510526
 21
-24.632843198310987
 31
0.0
  0
POLYLINE
  8
0
 66
1
 10
0.0
 20
0.0
 30
0.0
 70
8
  0
VERTEX
  8
0
 10
75.91643166907632
 20
-24.632843198310987
 30
0.0
  0
VERTEX
  8
0
 10
80.25990366156093
 20
-28.277448945233665
 30
0.0
  0
VERTEX
  8
0
 10
79.09324414997985
 20
-29.66781960949461
 30
0.0
  0
VERTEX
  8
0
 10
79.60649392686958
 20
-30.09848730798459
 30
0.0
  0
VERTEX
  8
0
 10
83.13452137549001
 20
-25.8939479213202
 30
0.0
  0
VERTEX
  8
0
 10
82.6212715986003
 20
-25.46328022283022
 30
0.0
  0
VERTEX
  8
0
 10
81.45461208701923
 20
-26.853650887091167
 30
0.0
  0
VERTEX
  8
0
 10
77.11114009453462
 20
-23.209045140168488
 30
0.0
  0
SEQEND
  0
LINE
  8
0
 10
77.11114009453462
 20
-23.209045140168488
 30
0.0
 11
77.31035642092525
 21
-22.661702781823525
 31
0.0
  0
POLYLINE
  8
0
 66
1
 10
0.0
 20
0.0
 30
0.0
 70
8
  0
VERTEX
  8
0
 10
97.82377860073254
 20
-18.98806641818716
 30
0.0
  0
VERTEX
  8
0
 10
98.49377860073254
 20
-18.98806641818716
 30
0.0
  0
VERTEX
  8
0
 10
98.49377860073254
 20
-20.80306641818716
 30
0.0
  0
VERTEX
  8
0
 10
100.15377860073254
 20
-20.80306641818716
 30
0.0
  0
VERTEX
  8
0
 10
100.15377860073254
 20
-18.98806641818716
 30
0.0
  0
VERTEX
  8
0
 10
100.82377860073254
 20
-18.98806641818716
 30
0.0
  0
VERTEX
  8
0
 10
100.82377860073254
 20
-24.476702781823523
 30
0.0
  0
VERTEX
  8
0
 10
100.15377860073254
 20
-24.476702781823523
 30
0.0
  0
VERTEX
  8
0
 10
100.15377860073254
 20
-22.66170278182352
 30
0.0
  0
VERTEX
  8
0
 10
98.49377860073254
 20
-22.66170278182352
 30
0.0
  0
VERTEX
  8
0
 10
98.49377860073254
 20
-24.476702781823523
 30
0.0
  0
VERTEX
  8
0
 10
97.82377860073254
 20
-24.476702781823523
 30
0.0
  0
VERTEX
  8
0
 10
97.82377860073254
 20
-18.98806641818716
 30
0.0
  0
SEQEND
  0
POLYLINE
  8
0
 66
1
 10
0.0
 20
0.0
 30
0.0
 70
8
  0
VERTEX
  8
0
 10
64.8316807792586
 20
-33.736665178810405
 30
0.0
  0
VERTEX
  8
0
 10
64.3184310023689
 20
-34.16733287730039
 30
0.0
  0
VERTEX
  8
0
 10
63.15177149078783
 20
-32.77696221303945
 30
0.0
  0
VERTEX
  8
0
 10
61.880137715210324
 20
-33.8439896451191
 30
0.0
  0
VERTEX
  8
0
 10
63.04679722679139
 20
-35.234360309380044
 30
0.0
  0
VERTEX
  8
0
 10
62.533547449901675
 20
-35.66502800787003
 30
0.0
  0
VERTEX
  8
0
 10
59.00552000128124
 20
-31.460488621205638
 30
0.0
  0
VERTEX
  8
0
 10
59.518769778170956
 20
-31.029820922715658
 30
0.0
  0
VERTEX
  8
0
 10
60.68542928975202
 20
-32.4201915869766
 30
0.0
  0
VERTEX
  8
0
 10
61.95706306532953
 20
-31.353164154896945
 30
0.0
  0
VERTEX
  8
0
 10
60.79040355374846
 20
-29.962793490636
 30
0.0
  0
VERTEX
  8
0
 10
61.30365333063818
 20
-29.53212579214602
 30
0.0
  0
VERTEX
  8
0
 10
64.8316807792586
 20
-33.736665178810405
 30
0.0
  0
SEQEND
  0
POLYLINE
  8
0
 66
1
 10
0.0
 20
0.0
 30
0.0
 70
8
  0
VERTEX
  8
0
 10
87.47033292354341
 20
-29.532125792146008
 30
0.0
  0
VERTEX
  8
0
 10
87.98358270043312
 20
-29.96279349063599
 30
0.0
  0
VERTEX
  8
0
 10
86.81692318885204
 20
-31.353164154896934
 30
0.0
  0
VERTEX
  8
0
 10
88.08855696442954
 20
-32.42019158697659
 30
0.0
  0
VERTEX
  8
0
 10
89.25521647601062
 20
-31.029820922715647
 30
0.0
  0
VERTEX
  8
0
 10
89.76846625290034
 20
-31.460488621205627
 30
0.0
  0
VERTEX
  8
0
 10
86.2404388042799
 20
-35.66502800787002
 30
0.0
  0
VERTEX
  8
0
 10
85.7271890273902
 20
-35.23436030938004
 30
0.0
  0
VERTEX
  8
0
 10
86.89384853897127
 20
-33.843989645119095
 30
0.0
  0
VERTEX
  8
0
 10
85.62221476339377
 20
-32.77696221303944
 30
0.0
  0
VERTEX
  8
0
 10
84.4555552518127
 20
-34.16733287730038
 30
0.0
  0
VERTEX
  8
0
 10
83.94230547492299
 20
-33.7366651788104
 30
0.0
  0
VERTEX
  8
0
 10
87.47033292354341
 20
-29.532125792146008
 30
0.0
  0
SEQEND
  0
POLYLINE
  8
0
 66
1
 10
0.0
 20
0.0
 30
0.0
 70
8
  0
VERTEX
  8
0
 10
127.18392736820874
 20
-22.661702781823525
 30
0.0
  0
VERTEX
  8
0
 10
141.36734954801602
 20
-22.661702781823525
 30
0.0
  0
VERTEX
  8
0
 10
141.36734954801602
 20
-24.476702781823526
 30
0.0
  0
VERTEX
  8
0
 10
142.037349548016
 20
-24.476702781823526
 30
0.0
  0
VERTEX
  8
0
 10
142.037349548016
 20
-18.988066418187163
 30
0.0
  0
VERTEX
  8
0
 10
141.36734954801602
 20
-18.988066418187163
 30
0.0
  0
VERTEX
  8
0
 10
141.36734954801602
 20
-20.803066418187164
 30
0.0
  0
VERTEX
  8
0
 10
127.18392736820873
 20
-20.803066418187164
 30
0.0
  0
SEQEND
  0
LINE
  8
0
 10
126.9847110418181
 20
-20.2557240598422
 30
0.0
 11
127.18392736820873
 21
-20.803066418187164
 31
0.0
  0
POLYLINE
  8
0
 66
1
 10
0.0
 20
0.0
 30
0.0
 70
8
  0
VERTEX
  8
0
 10
126.9847110418181
 20
-20.2557240598422
 30
0.0
  0
VERTEX
  8
0
 10
131.3281830343027
 20
-16.611118312919523
 30
0.0
  0
VERTEX
  8
0
 10
132.49484254588376
 20
-18.00148897718047
 30
0.0
  0
VERTEX
  8
0
 10
133.00809232277348
 20
-17.570821278690488
 30
0.0
  0
VERTEX
  8
0
 10
129.48006487415304
 20
-13.366281892026098
 30
0.0
  0
VERTEX
  8
0
 10
128.96681509726332
 20
-13.79694959051608
 30
0.0
  0
VERTEX
  8
0
 10
130.13347460884438
 20
-15.187320254777026
 30
0.0
  0
VERTEX
  8
0
 10
125.79000261635977
 20
-18.831926001699706
 30
0.0
  0
SEQEND
  0
LINE
  8
0
 10
122.73112553238876
 20
-18.831926001699703
 30
0.0
 11
125.79000261635977
 21
-18.831926001699706
 31
0.0
  0
POLYLINE
  8
0
 66
1
 10
0.0
 20
0.0
 30
0.0
 70
8
  0
VERTEX
  8
0
 10
122.73112553238876
 20
-18.831926001699703
 30
0.0
  0
VERTEX
  8
0
 10
118.38765353990415
 20
-15.187320254777024
 30
0.0
  0
VERTEX
  8
0
 10
119.55431305148522
 20
-13.796949590516078
 30
0.0
  0
VERTEX
  8
0
 10
119.04106327459552
 20
-13.366281892026096
 30
0.0
  0
VERTEX
  8
0
 10
115.51303582597508
 20
-17.570821278690488
 30
0.0
  0
VERTEX
  8
0
 10
116.02628560286479
 20
-18.00148897718047
 30
0.0
  0
VERTEX
  8
0
 10
117.19294511444586
 20
-16.611118312919523
 30
0.0
  0
VERTEX
  8
0
 10
121.53641710693047
 20
-20.2557240598422
 30
0.0
  0
SEQEND
  0
LINE
  8
0
 10
121.33720078053983
 20
-20.80306641818716
 30
0.0
 11
121.53641710693047
 21
-20.2557240598422
 31
0.0
  0
POLYLINE
  8
0
 66
1
 10
0.0
 20
0.0
 30
0.0
 70
8
  0
VERTEX
  8
0
 10
121.33720078053983
 20
-20.80306641818716
 30
0.0
  0
VERTEX
  8
0
 10
107.15377860073254
 20
-20.80306641818716
 30
0.0
  0
VERTEX
  8
0
 10
107.15377860073254
 20
-18.98806641818716
 30
0.0
  0
VERTEX
  8
0
 10
106.48377860073253
 20
-18.98806641818716
 30
0.0
  0
VERTEX
  8
0
 10
106.48377860073253
 20
-24.476702781823523
 30
0.0
  0
VERTEX
  8
0
 10
107.15377860073254
 20
-24.476702781823523
 30
0.0
  0
VERTEX
  8
0
 10
107.15377860073254
 20
-22.66170278182352
 30
0.0
  0
VERTEX
  8
0
 10
121.33720078053983
 20
-22.66170278182352
 30
0.0
  0
SEQEND
  0
LINE
  8
0
 10
121.53641710693047
 20
-23.209045140168488
 30
0.0
 11
121.33720078053983
 21
-22.66170278182352
 31
0.0
  0
POLYLINE
  8
0
 66
1
 10
0.0
 20
0.0
 30
0.0
 70
8
  0
VERTEX
  8
0
 10
121.53641710693047
 20
-23.209045140168488
 30
0.0
  0
VERTEX
  8
0
 10
117.19294511444586
 20
-26.853650887091167
 30
0.0
  0
VERTEX
  8
0
 10
116.02628560286479
 20
-25.46328022283022
 30
0.0
  0
VERTEX
  8
0
 10
115.51303582597507
 20
-25.8939479213202
 30
0.0
  0
VERTEX
  8
0
 10
119.0410632745955
 20
-30.09848730798459
 30
0.0
  0
VERTEX
  8
0
 10
119.55431305148522
 20
-29.66781960949461
 30
0.0
  0
VERTEX
  8
0
 10
118.38765353990415
 20
-28.277448945233665
 30
0.0
  0
VERTEX
  8
0
 10
122.73112553238876
 20
-24.632843198310987
 30
0.0
  0
SEQEND
  0
LINE
  8
0
 10
125.79000261635981
 20
-24.632843198310987
 30
0.0
 11
122.73112553238876
 21
-24.632843198310987
 31
0.0
  0
POLYLINE
  8
0
 66
1
 10
0.0
 20
0.0
 30
0.0
 70
8
  0
VERTEX
  8
0
 10
125.79000261635981
 20
-24.632843198310987
 30
0.0
  0
VERTEX
  8
0
 10
130.1334746088444
 20
-28.277448945233665
 30
0.0
  0
VERTEX
  8
0
 10
128.96681509726335
 20
-29.66781960949461
 30
0.0
  0
VERTEX
  8
0
 10
129.48006487415307
 20
-30.09848730798459
 30
0.0
  0
VERTEX
  8
0
 10
133.0080923227735
 20
-25.8939479213202
 30
0.0
  0
VERTEX
  8
0
 10
132.49484254588378
 20
-25.46328022283022
 30
0.0
  0
VERTEX
  8
0
 10
131.32818303430273
 20
-26.853650887091167
 30
0.0
  0
VERTEX
  8
0
 10
126.98471104181812
 20
-23.209045140168488
 30
0.0
  0
SEQEND
  0
LINE
  8
0
 10
126.98471104181812
 20
-23.209045140168488
 30
0.0
 11
127.18392736820874
 21
-22.661702781823525
 31
0.0
  0
POLYLINE
  8
0
 66
1
 10
0.0
 20
0.0
 30
0.0
 70
8
  0
VERTEX
  8
0
 10
147.69734954801604
 20
-18.98806641818716
 30
0.0
  0
VERTEX
  8
0
 10
148.36734954801602
 20
-18.98806641818716
 30
0.0
  0
VERTEX
  8
0
 10
148.36734954801602
 20
-20.80306641818716
 30
0.0
  0
VERTEX
  8
0
 10
150.02734954801602
 20
-20.80306641818716
 30
0.0
  0
VERTEX
  8
0
 10
150.02734954801602
 20
-18.98806641818716
 30
0.0
  0
VERTEX
  8
0
 10
150.697349548016
 20
-18.98806641818716
 30
0.0
  0
VERTEX
  8
0
 10
150.697349548016
 20
-24.476702781823523
 30
0.0
  0
VERTEX
  8
0
 10
150.02734954801602
 20
-24.476702781823523
 30
0.0
  0
VERTEX
  8
0
 10
150.02734954801602
 20
-22.66170278182352
 30
0.0
  0
VERTEX
  8
0
 10
148.36734954801602
 20
-22.66170278182352
 30
0.0
  0
VERTEX
  8
0
 10
148.36734954801602
 20
-24.476702781823523
 30
0.0
  0
VERTEX
  8
0
 10
147.69734954801604
 20
-24.476702781823523
 30
0.0
  0
VERTEX
  8
0
 10
147.69734954801604
 20
-18.98806641818716
 30
0.0
  0
SEQEND
  0
POLYLINE
  8
0
 66
1
 10
0.0
 20
0.0
 30
0.0
 70
8
  0
VERTEX
  8
0
 10
114.7052517265421
 20
-33.736665178810405
 30
0.0
  0
VERTEX
  8
0
 10
114.1920019496524
 20
-34.16733287730039
 30
0.0
  0
VERTEX
  8
0
 10
113.02534243807132
 20
-32.77696221303945
 30
0.0
  0
VERTEX
  8
0
 10
111.75370866249382
 20
-33.8439896451191
 30
0.0
  0
VERTEX
  8
0
 10
112.9203681740749
 20
-35.234360309380044
 30
0.0
  0
VERTEX
  8
0
 10
112.40711839718517
 20
-35.66502800787003
 30
0.0
  0
VERTEX
  8
0
 10
108.87909094856474
 20
-31.460488621205638
 30
0.0
  0
VERTEX
  8
0
 10
109.39234072545446
 20
-31.029820922715658
 30
0.0
  0
VERTEX
  8
0
 10
110.55900023703553
 20
-32.4201915869766
 30
0.0
  0
VERTEX
  8
0
 10
111.83063401261303
 20
-31.353164154896945
 30
0.0
  0
VERTEX
  8
0
 10
110.66397450103196
 20
-29.962793490636
 30
0.0
  0
VERTEX
  8
0
 10
111.17722427792168
 20
-29.53212579214602
 30
0.0
  0
VERTEX
  8
0
 10
114.7052517265421
 20
-33.736665178810405
 30
0.0
  0
SEQEND
  0
POLYLINE
  8
0
 66
1
 10
0.0
 20
0.0
 30
0.0
 70
8
  0
VERTEX
  8
0
 10
137.34390387082692
 20
-29.532125792146008
 30
0.0
  0
VERTEX
  8
0
 10
137.85715364771664
 20
-29.96279349063599
 30
0.0
  0
VERTEX
  8
0
 10
136.69049413613558
 20
-31.353164154896934
 30
0.0
  0
VERTEX
  8
0
 10
137.96212791171308
 20
-32.42019158697659
 30
0.0
  0
VERTEX
  8
0
 10
139.12878742329414
 20
-31.029820922715647
 30
0.0
  0
VERTEX
  8
0
 10
139.64203720018386
 20
-31.460488621205627
 30
0.0
  0
VERTEX
  8
0
 10
136.11400975156343
 20
-35.66502800787002
 30
0.0
  0
VERTEX
  8
0
 10
135.6007599746737
 20
-35.23436030938004
 30
0.0
  0
VERTEX
  8
0
 10
136.76741948625477
 20
-33.843989645119095
 30
0.0
  0
VERTEX
  8
0
 10
135.49578571067727
 20
-32.77696221303944
 30
0.0
  0
VERTEX
  8
0
 10
134.3291261990962
 20
-34.16733287730038
 30
0.0
  0
VERTEX
  8
0
 10
133.8158764222065
 20
-33.7366651788104
 30
0.0
  0
VERTEX
  8
0
 10
137.34390387082692
 20
-29.532125792146008
 30
0.0
  0
SEQEND
  0
POLYLINE
  8
0
 66
1
 10
0.0
 20
0.0
 30
0.0
 70
8
  0
VERTEX
  8
0
 10
2.5000000000000036
 20
-44.39408738182887
 30
0.0
  0
VERTEX
  8
0
 10
16.683422179807298
 20
-44.39408738182887
 30
0.0
  0
VERTEX
  8
0
 10
16.683422179807298
 20
-46.209087381828866
 30
0.0
  0
VERTEX
  8
0
 10
17.3534221798073
 20
-46.209087381828866
 30
0.0
  0
VERTEX
  8
0
 10
17.3534221798073
 20
-40.720451018192506
 30
0.0
  0
VERTEX
  8
0
 10
16.683422179807298
 20
-40.720451018192506
 30
0.0
  0
VERTEX
  8
0
 10
16.683422179807298
 20
-42.535451018192504
 30
0.0
  0
VERTEX
  8
0
 10
2.5000000000000036
 20
-42.535451018192504
 30
0.0
  0
SEQEND
  0
LINE
  8
0
 10
2.3007836736093723
 20
-41.98810865984754
 30
0.0
 11
2.5000000000000036
 21
-42.535451018192504
 31
0.0
  0
POLYLINE
  8
0
 66
1
 10
0.0
 20
0.0
 30
0.0
 70
8
  0
VERTEX
  8
0
 10
2.3007836736093723
 20
-41.98810865984754
 30
0.0
  0
VERTEX
  8
0
 10
6.6442556660939776
 20
-38.34350291292486
 30
0.0
  0
VERTEX
  8
0
 10
7.810915177675047
 20
-39.733873577185804
 30
0.0
  0
VERTEX
  8
0
 10
8.324164954564761
 20
-39.30320587869582
 30
0.0
  0
VERTEX
  8
0
 10
4.796137505944324
 20
-35.09866649203143
 30
0.0
  0
VERTEX
  8
0
 10
4.282887729054608
 20
-35.52933419052141
 30
0.0
  0
VERTEX
  8
0
 10
5.4495472406356775
 20
-36.91970485478235
 30
0.0
  0
VERTEX
  8
0
 10
1.1060752481510727
 20
-40.56431060170503
 30
0.0
  0
SEQEND
  0
LINE
  8
0
 10
-1.9528018358199697
 20
-40.564310601705046
 30
0.0
 11
1.1060752481510727
 21
-40.56431060170503
 31
0.0
  0
POLYLINE
  8
0
 66
1
 10
0.0
 20
0.0
 30
0.0
 70
8
  0
VERTEX
  8
0
 10
-1.9528018358199697
 20
-40.564310601705046
 30
0.0
  0
VERTEX
  8
0
 10
-6.2962738283045745
 20
-36.91970485478237
 30
0.0
  0
VERTEX
  8
0
 10
-5.129614316723505
 20
-35.529334190521425
 30
0.0
  0
VERTEX
  8
0
 10
-5.642864093613221
 20
-35.09866649203144
 30
0.0
  0
VERTEX
  8
0
 10
-9.170891542233658
 20
-39.303205878695834
 30
0.0
  0
VERTEX
  8
0
 10
-8.657641765343943
 20
-39.73387357718582
 30
0.0
  0
VERTEX
  8
0
 10
-7.490982253762874
 20
-38.343502912924876
 30
0.0
  0
VERTEX
  8
0
 10
-3.147510261278268
 20
-41.988108659847555
 30
0.0
  0
SEQEND
  0
LINE
  8
0
 10
-3.346726587668901
 20
-42.535451018192504
 30
0.0
 11
-3.147510261278268
 21
-41.988108659847555
 31
0.0
  0
POLYLINE
  8
0
 66
1
 10
0.0
 20
0.0
 30
0.0
 70
8
  0
VERTEX
  8
0
 10
-3.346726587668901
 20
-42.535451018192504
 30
0.0
  0
VERTEX
  8
0
 10
-17.530148767476195
 20
-42.535451018192504
 30
0.0
  0
VERTEX
  8
0
 10
-17.530148767476195
 20
-40.720451018192506
 30
0.0
  0
VERTEX
  8
0
 10
-18.200148767476197
 20
-40.720451018192506
 30
0.0
  0
VERTEX
  8
0
 10
-18.200148767476197
 20
-46.209087381828866
 30
0.0
  0
VERTEX
  8
0
 10
-17.530148767476195
 20
-46.209087381828866
 30
0.0
  0
VERTEX
  8
0
 10
-17.530148767476195
 20
-44.39408738182887
 30
0.0
  0
VERTEX
  8
0
 10
-3.3467265876689005
 20
-44.39408738182887
 30
0.0
  0
SEQEND
  0
LINE
  8
0
 10
-3.1475102612782697
 20
-44.94142974017383
 30
0.0
 11
-3.3467265876689005
 21
-44.39408738182887
 31
0.0
  0
POLYLINE
  8
0
 66
1
 10
0.0
 20
0.0
 30
0.0
 70
8
  0
VERTEX
  8
0
 10
-3.1475102612782697
 20
-44.94142974017383
 30
0.0
  0
VERTEX
  8
0
 10
-7.490982253762875
 20
-48.58603548709651
 30
0.0
  0
VERTEX
  8
0
 10
-8.657641765343945
 20
-47.19566482283557
 30
0.0
  0
VERTEX
  8
0
 10
-9.17089154223366
 20
-47.62633252132555
 30
0.0
  0
VERTEX
  8
0
 10
-5.642864093613223
 20
-51.830871907989945
 30
0.0
  0
VERTEX
  8
0
 10
-5.129614316723508
 20
-51.40020420949996
 30
0.0
  0
VERTEX
  8
0
 10
-6.296273828304577
 20
-50.00983354523902
 30
0.0
  0
VERTEX
  8
0
 10
-1.9528018358199715
 20
-46.36522779831634
 30
0.0
  0
SEQEND
  0
LINE
  8
0
 10
1.1060752481510727
 20
-46.365227798316326
 30
0.0
 11
-1.9528018358199715
 21
-46.36522779831634
 31
0.0
  0
POLYLINE
  8
0
 66
1
 10
0.0
 20
0.0
 30
0.0
 70
8
  0
VERTEX
  8
0
 10
1.1060752481510727
 20
-46.365227798316326
 30
0.0
  0
VERTEX
  8
0
 10
5.449547240635678
 20
-50.009833545239005
 30
0.0
  0
VERTEX
  8
0
 10
4.282887729054609
 20
-51.40020420949995
 30
0.0
  0
VERTEX
  8
0
 10
4.7961375059443245
 20
-51.83087190798993
 30
0.0
  0
VERTEX
  8
0
 10
8.324164954564761
 20
-47.62633252132554
 30
0.0
  0
VERTEX
  8
0
 10
7.810915177675046
 20
-47.19566482283555
 30
0.0
  0
VERTEX
  8
0
 10
6.644255666093977
 20
-48.586035487096495
 30
0.0
  0
VERTEX
  8
0
 10
2.300783673609371
 20
-44.94142974017382
 30
0.0
  0
SEQEND
  0
LINE
  8
0
 10
2.300783673609371
 20
-44.94142974017382
 30
0.0
 11
2.5000000000000036
 21
-44.39408738182887
 31
0.0
  0
POLYLINE
  8
0
 66
1
 10
0.0
 20
0.0
 30
0.0
 70
8
  0
VERTEX
  8
0
 10
23.013422179807296
 20
-40.720451018192506
 30
0.0
  0
VERTEX
  8
0
 10
23.683422179807298
 20
-40.720451018192506
 30
0.0
  0
VERTEX
  8
0
 10
23.683422179807298
 20
-42.535451018192504
 30
0.0
  0
VERTEX
  8
0
 10
25.3434221798073
 20
-42.535451018192504
 30
0.0
  0
VERTEX
  8
0
 10
25.3434221798073
 20
-40.720451018192506
 30
0.0
  0
VERTEX
  8
0
 10
26.0134221798073
 20
-40.720451018192506
 30
0.0
  0
VERTEX
  8
0
 10
26.0134221798073
 20
-46.209087381828866
 30
0.0
  0
VERTEX
  8
0
 10
25.3434221798073
 20
-46.209087381828866
 30
0.0
  0
VERTEX
  8
0
 10
25.3434221798073
 20
-44.39408738182887
 30
0.0
  0
VERTEX
  8
0
 10
23.683422179807298
 20
-44.39408738182887
 30
0.0
  0
VERTEX
  8
0
 10
23.683422179807298
 20
-46.209087381828866
 30
0.0
  0
VERTEX
  8
0
 10
23.013422179807296
 20
-46.209087381828866
 30
0.0
  0
VERTEX
  8
0
 10
23.013422179807296
 20
-40.720451018192506
 30
0.0
  0
SEQEND
  0
POLYLINE
  8
0
 66
1
 10
0.0
 20
0.0
 30
0.0
 70
8
  0
VERTEX
  8
0
 10
-23.860148767476193
 20
-46.209087381828866
 30
0.0
  0
VERTEX
  8
0
 10
-24.530148767476195
 20
-46.209087381828866
 30
0.0
  0
VERTEX
  8
0
 10
-24.530148767476195
 20
-44.39408738182887
 30
0.0
  0
VERTEX
  8
0
 10
-26.190148767476195
 20
-44.39408738182887
 30
0.0
  0
VERTEX
  8
0
 10
-26.190148767476195
 20
-46.209087381828866
 30
0.0
  0
VERTEX
  8
0
 10
-26.860148767476197
 20
-46.209087381828866
 30
0.0
  0
VERTEX
  8
0
 10
-26.860148767476197
 20
-40.720451018192506
 30
0.0
  0
VERTEX
  8
0
 10
-26.190148767476195
 20
-40.720451018192506
 30
0.0
  0
VERTEX
  8
0
 10
-26.190148767476195
 20
-42.535451018192504
 30
0.0
  0
VERTEX
  8
0
 10
-24.530148767476195
 20
-42.535451018192504
 30
0.0
  0
VERTEX
  8
0
 10
-24.530148767476195
 20
-40.720451018192506
 30
0.0
  0
VERTEX
  8
0
 10
-23.860148767476193
 20
-40.720451018192506
 30
0.0
  0
VERTEX
  8
0
 10
-23.860148767476193
 20
-46.209087381828866
 30
0.0
  0
SEQEND
  0
POLYLINE
  8
0
 66
1
 10
0.0
 20
0.0
 30
0.0
 70
8
  0
VERTEX
  8
0
 10
-9.978675641666637
 20
-55.469049778815744
 30
0.0
  0
VERTEX
  8
0
 10
-10.491925418556352
 20
-55.89971747730573
 30
0.0
  0
VERTEX
  8
0
 10
-11.65858493013742
 20
-54.509346813044786
 30
0.0
  0
VERTEX
  8
0
 10
-12.930218705714925
 20
-55.57637424512444
 30
0.0
  0
VERTEX
  8
0
 10
-11.763559194133856
 20
-56.96674490938538
 30
0.0
  0
VERTEX
  8
0
 10
-12.276808971023572
 20
-57.39741260787537
 30
0.0
  0
VERTEX
  8
0
 10
-15.804836419644008
 20
-53.192873221210974
 30
0.0
  0
VERTEX
  8
0
 10
-15.291586642754293
 20
-52.76220552272099
 30
0.0
  0
VERTEX
  8
0
 10
-14.124927131173225
 20
-54.15257618698193
 30
0.0
  0
VERTEX
  8
0
 10
-12.85329335559572
 20
-53.08554875490228
 30
0.0
  0
VERTEX
  8
0
 10
-14.019952867176789
 20
-51.695178090641335
 30
0.0
  0
VERTEX
  8
0
 10
-13.506703090287074
 20
-51.26451039215135
 30
0.0
  0
VERTEX
  8
0
 10
-9.978675641666637
 20
-55.469049778815744
 30
0.0
  0
SEQEND
  0
POLYLINE
  8
0
 66
1
 10
0.0
 20
0.0
 30
0.0
 70
8
  0
VERTEX
  8
0
 10
12.659976502618179
 20
-51.26451039215135
 30
0.0
  0
VERTEX
  8
0
 10
13.173226279507894
 20
-51.695178090641335
 30
0.0
  0
VERTEX
  8
0
 10
12.006566767926826
 20
-53.08554875490228
 30
0.0
  0
VERTEX
  8
0
 10
13.27820054350433
 20
-54.15257618698193
 30
0.0
  0
VERTEX
  8
0
 10
14.444860055085398
 20
-52.76220552272099
 30
0.0
  0
VERTEX
  8
0
 10
14.958109831975113
 20
-53.192873221210974
 30
0.0
  0
VERTEX
  8
0
 10
11.430082383354677
 20
-57.39741260787537
 30
0.0
  0
VERTEX
  8
0
 10
10.916832606464961
 20
-56.96674490938538
 30
0.0
  0
VERTEX
  8
0
 10
12.08349211804603
 20
-55.57637424512444
 30
0.0
  0
VERTEX
  8
0
 10
10.811858342468526
 20
-54.509346813044786
 30
0.0
  0
VERTEX
  8
0
 10
9.645198830887457
 20
-55.89971747730573
 30
0.0
  0
VERTEX
  8
0
 10
9.131949053997742
 20
-55.469049778815744
 30
0.0
  0
VERTEX
  8
0
 10
12.659976502618179
 20
-51.26451039215135
 30
0.0
  0
SEQEND
  0
POLYLINE
  8
0
 66
1
 10
0.0
 20
0.0
 30
0.0
 70
8
  0
VERTEX
  8
0
 10
52.37357094728351
 20
-44.39408738182887
 30
0.0
  0
VERTEX
  8
0
 10
66.5569931270908
 20
-44.39408738182887
 30
0.0
  0
VERTEX
  8
0
 10
66.5569931270908
 20
-46.209087381828866
 30
0.0
  0
VERTEX
  8
0
 10
67.22699312709081
 20
-46.209087381828866
 30
0.0
  0
VERTEX
  8
0
 10
67.22699312709081
 20
-40.720451018192506
 30
0.0
  0
VERTEX
  8
0
 10
66.5569931270908
 20
-40.720451018192506
 30
0.0
  0
VERTEX
  8
0
 10
66.5569931270908
 20
-42.535451018192504
 30
0.0
  0
VERTEX
  8
0
 10
52.37357094728351
 20
-42.535451018192504
 30
0.0
  0
SEQEND
  0
LINE
  8
0
 10
52.17435462089288
 20
-41.98810865984754
 30
0.0
 11
52.37357094728351
 21
-42.535451018192504
 31
0.0
  0
POLYLINE
  8
0
 66
1
 10
0.0
 20
0.0
 30
0.0
 70
8
  0
VERTEX
  8
0
 10
52.17435462089288
 20
-41.98810865984754
 30
0.0
  0
VERTEX
  8
0
 10
56.51782661337748
 20
-38.34350291292486
 30
0.0
  0
VERTEX
  8
0
 10
57.684486124958546
 20
-39.733873577185804
 30
0.0
  0
VERTEX
  8
0
 10
58.19773590184826
 20
-39.30320587869582
 30
0.0
  0
VERTEX
  8
0
 10
54.66970845322783
 20
-35.09866649203143
 30
0.0
  0
VERTEX
  8
0
 10
54.15645867633811
 20
-35.52933419052141
 30
0.0
  0
VERTEX
  8
0
 10
55.32311818791918
 20
-36.91970485478235
 30
0.0
  0
VERTEX
  8
0
 10
50.979646195434576
 20
-40.56431060170503
 30
0.0
  0
SEQEND
  0
LINE
  8
0
 10
47.920769111463535
 20
-40.564310601705046
 30
0.0
 11
50.979646195434576
 21
-40.56431060170503
 31
0.0
  0
POLYLINE
  8
0
 66
1
 10
0.0
 20
0.0
 30
0.0
 70
8
  0
VERTEX
  8
0
 10
47.920769111463535
 20
-40.564310601705046
 30
0.0
  0
VERTEX
  8
0
 10
43.57729711897893
 20
-36.91970485478237
 30
0.0
  0
VERTEX
  8
0
 10
44.74395663056
 20
-35.529334190521425
 30
0.0
  0
VERTEX
  8
0
 10
44.230706853670284
 20
-35.09866649203144
 30
0.0
  0
VERTEX
  8
0
 10
40.70267940504985
 20
-39.303205878695834
 30
0.0
  0
VERTEX
  8
0
 10
41.215929181939565
 20
-39.73387357718582
 30
0.0
  0
VERTEX
  8
0
 10
42.38258869352063
 20
-38.343502912924876
 30
0.0
  0
VERTEX
  8
0
 10
46.72606068600524
 20
-41.988108659847555
 30
0.0
  0
SEQEND
  0
LINE
  8
0
 10
46.5268443596146
 20
-42.535451018192504
 30
0.0
 11
46.72606068600524
 21
-41.988108659847555
 31
0.0
  0
POLYLINE
  8
0
 66
1
 10
0.0
 20
0.0
 30
0.0
 70
8
  0
VERTEX
  8
0
 10
46.5268443596146
 20
-42.535451018192504
 30
0.0
  0
VERTEX
  8
0
 10
32.343422179807305
 20
-42.535451018192504
 30
0.0
  0
VERTEX
  8
0
 10
32.343422179807305
 20
-40.720451018192506
 30
0.0
  0
VERTEX
  8
0
 10
31.673422179807304
 20
-40.720451018192506
 30
0.0
  0
VERTEX
  8
0
 10
31.673422179807304
 20
-46.209087381828866
 30
0.0
  0
VERTEX
  8
0
 10
32.343422179807305
 20
-46.209087381828866
 30
0.0
  0
VERTEX
  8
0
 10
32.343422179807305
 20
-44.39408738182887
 30
0.0
  0
VERTEX
  8
0
 10
46.5268443596146
 20
-44.39408738182887
 30
0.0
  0
SEQEND
  0
LINE
  8
0
 10
46.72606068600523
 20
-44.94142974017383
 30
0.0
 11
46.5268443596146
 21
-44.39408738182887
 31
0.0
  0
POLYLINE
  8
0
 66
1
 10
0.0
 20
0.0
 30
0.0
 70
8
  0
VERTEX
  8
0
 10
46.72606068600523
 20
-44.94142974017383
 30
0.0
  0
VERTEX
  8
0
 10
42.38258869352063
 20
-48.58603548709651
 30
0.0
  0
VERTEX
  8
0
 10
41.215929181939565
 20
-47.19566482283557
 30
0.0
  0
VERTEX
  8
0
 10
40.70267940504985
 20
-47.62633252132555
 30
0.0
  0
VERTEX
  8
0
 10
44.230706853670284
 20
-51.830871907989945
 30
0.0
  0
VERTEX
  8
0
 10
44.74395663056
 20
-51.40020420949996
 30
0.0
  0
VERTEX
  8
0
 10
43.57729711897893
 20
-50.00983354523902
 30
0.0
  0
VERTEX
  8
0
 10
47.92076911146354
 20
-46.36522779831634
 30
0.0
  0
SEQEND
  0
LINE
  8
0
 10
50.979646195434576
 20
-46.365227798316326
 30
0.0
 11
47.92076911146354
 21
-46.36522779831634
 31
0.0
  0
POLYLINE
  8
0
 66
1
 10
0.0
 20
0.0
 30
0.0
 70
8
  0
VERTEX
  8
0
 10
50.979646195434576
 20
-46.365227798316326
 30
0.0
  0
VERTEX
  8
0
 10
55.32311818791918
 20
-50.009833545239005
 30
0.0
  0
VERTEX
  8
0
 10
54.15645867633811
 20
-51.40020420949995
 30
0.0
  0
VERTEX
  8
0
 10
54.66970845322783
 20
-51.83087190798993
 30
0.0
  0
VERTEX
  8
0
 10
58.19773590184826
 20
-47.62633252132554
 30
0.0
  0
VERTEX
  8
0
 10
57.684486124958546
 20
-47.19566482283555
 30
0.0
  0
VERTEX
  8
0
 10
56.51782661337748
 20
-48.586035487096495
 30
0.0
  0
VERTEX
  8
0
 10
52.17435462089287
 20
-44.94142974017382
 30
0.0
  0
SEQEND
  0
LINE
  8
0
 10
52.17435462089287
 20
-44.94142974017382
 30
0.0
 11
52.37357094728351
 21
-44.39408738182887
 31
0.0
  0
POLYLINE
  8
0
 66
1
 10
0.0
 20
0.0
 30
0.0
 70
8
  0
VERTEX
  8
0
 10
72.8869931270908
 20
-40.720451018192506
 30
0.0
  0
VERTEX
  8
0
 10
73.5569931270908
 20
-40.720451018192506
 30
0.0
  0
VERTEX
  8
0
 10
73.5569931270908
 20
-42.535451018192504
 30
0.0
  0
VERTEX
  8
0
 10
75.2169931270908
 20
-42.535451018192504
 30
0.0
  0
VERTEX
  8
0
 10
75.2169931270908
 20
-40.720451018192506
 30
0.0
  0
VERTEX
  8
0
 10
75.8869931270908
 20
-40.720451018192506
 30
0.0
  0
VERTEX
  8
0
 10
75.8869931270908
 20
-46.209087381828866
 30
0.0
  0
VERTEX
  8
0
 10
75.2169931270908
 20
-46.209087381828866
 30
0.0
  0
VERTEX
  8
0
 10
75.2169931270908
 20
-44.39408738182887
 30
0.0
  0
VERTEX
  8
0
 10
73.5569931270908
 20
-44.39408738182887
 30
0.0
  0
VERTEX
  8
0
 10
73.5569931270908
 20
-46.209087381828866
 30
0.0
  0
VERTEX
  8
0
 10
72.8869931270908
 20
-46.209087381828866
 30
0.0
  0
VERTEX
  8
0
 10
72.8869931270908
 20
-40.720451018192506
 30
0.0
  0
SEQEND
  0
POLYLINE
  8
0
 66
1
 10
0.0
 20
0.0
 30
0.0
 70
8
  0
VERTEX
  8
0
 10
39.89489530561686
 20
-55.469049778815744
 30
0.0
  0
VERTEX
  8
0
 10
39.38164552872715
 20
-55.89971747730573
 30
0.0
  0
VERTEX
  8
0
 10
38.21498601714608
 20
-54.509346813044786
 30
0.0
  0
VERTEX
  8
0
 10
36.943352241568576
 20
-55.57637424512444
 30
0.0
  0
VERTEX
  8
0
 10
38.11001175314964
 20
-56.96674490938538
 30
0.0
  0
VERTEX
  8
0
 10
37.59676197625993
 20
-57.39741260787537
 30
0.0
  0
VERTEX
  8
0
 10
34.06873452763949
 20
-53.192873221210974
 30
0.0
  0
VERTEX
  8
0
 10
34.58198430452921
 20
-52.76220552272099
 30
0.0
  0
VERTEX
  8
0
 10
35.748643816110274
 20
-54.15257618698193
 30
0.0
  0
VERTEX
  8
0
 10
37.02027759168778
 20
-53.08554875490228
 30
0.0
  0
VERTEX
  8
0
 10
35.85361808010671
 20
-51.695178090641335
 30
0.0
  0
VERTEX
  8
0
 10
36.36686785699643
 20
-51.26451039215135
 30
0.0
  0
VERTEX
  8
0
 10
39.89489530561686
 20
-55.469049778815744
 30
0.0
  0
SEQEND
  0
POLYLINE
  8
0
 66
1
 10
0.0
 20
0.0
 30
0.0
 70
8
  0
VERTEX
  8
0
 10
62.53354744990168
 20
-51.26451039215135
 30
0.0
  0
VERTEX
  8
0
 10
63.0467972267914
 20
-51.695178090641335
 30
0.0
  0
VERTEX
  8
0
 10
61.88013771521033
 20
-53.08554875490228
 30
0.0
  0
VERTEX
  8
0
 10
63.15177149078784
 20
-54.15257618698193
 30
0.0
  0
VERTEX
  8
0
 10
64.31843100236891
 20
-52.76220552272099
 30
0.0
  0
VERTEX
  8
0
 10
64.83168077925862
 20
-53.192873221210974
 30
0.0
  0
VERTEX
  8
0
 10
61.303653330638184
 20
-57.39741260787537
 30
0.0
  0
VERTEX
  8
0
 10
60.79040355374847
 20
-56.96674490938538
 30
0.0
  0
VERTEX
  8
0
 10
61.957063065329535
 20
-55.57637424512444
 30
0.0
  0
VERTEX
  8
0
 10
60.68542928975203
 20
-54.509346813044786
 30
0.0
  0
VERTEX
  8
0
 10
59.51876977817096
 20
-55.89971747730573
 30
0.0
  0
VERTEX
  8
0
 10
59.00552000128125
 20
-55.469049778815744
 30
0.0
  0
VERTEX
  8
0
 10
62.53354744990168
 20
-51.26451039215135
 30
0.0
  0
SEQEND
  0
POLYLINE
  8
0
 66
1
 10
0.0
 20
0.0
 30
0.0
 70
8
  0
VERTEX
  8
0
 10
102.24714189456702
 20
-44.39408738182887
 30
0.0
  0
VERTEX
  8
0
 10
116.43056407437432
 20
-44.39408738182887
 30
0.0
  0
VERTEX
  8
0
 10
116.43056407437432
 20
-46.209087381828866
 30
0.0
  0
VERTEX
  8
0
 10
117.10056407437432
 20
-46.209087381828866
 30
0.0
  0
VERTEX
  8
0
 10
117.10056407437432
 20
-40.720451018192506
 30
0.0
  0
VERTEX
  8
0
 10
116.43056407437432
 20
-40.720451018192506
 30
0.0
  0
VERTEX
  8
0
 10
116.43056407437432
 20
-42.535451018192504
 30
0.0
  0
VERTEX
  8
0
 10
102.24714189456702
 20
-42.535451018192504
 30
0.0
  0
SEQEND
  0
LINE
  8
0
 10
102.04792556817638
 20
-41.98810865984754
 30
0.0
 11
102.24714189456702
 21
-42.535451018192504
 31
0.0
  0
POLYLINE
  8
0
 66
1
 10
0.0
 20
0.0
 30
0.0
 70
8
  0
VERTEX
  8
0
 10
102.04792556817638
 20
-41.98810865984754
 30
0.0
  0
VERTEX
  8
0
 10
106.39139756066099
 20
-38.34350291292486
 30
0.0
  0
VERTEX
  8
0
 10
107.55805707224206
 20
-39.733873577185804
 30
0.0
  0
VERTEX
  8
0
 10
108.07130684913179
 20
-39.30320587869582
 30
0.0
  0
VERTEX
  8
0
 10
104.54327940051135
 20
-35.09866649203143
 30
0.0
  0
VERTEX
  8
0
 10
104.03002962362163
 20
-35.52933419052141
 30
0.0
  0
VERTEX
  8
0
 10
105.1966891352027
 20
-36.91970485478235
 30
0.0
  0
VERTEX
  8
0
 10
100.8532171427181
 20
-40.56431060170503
 30
0.0
  0
SEQEND
  0
LINE
  8
0
 10
97.79434005874704
 20
-40.564310601705046
 30
0.0
 11
100.8532171427181
 21
-40.56431060170503
 31
0.0
  0
POLYLINE
  8
0
 66
1
 10
0.0
 20
0.0
 30
0.0
 70
8
  0
VERTEX
  8
0
 10
97.79434005874704
 20
-40.564310601705046
 30
0.0
  0
VERTEX
  8
0
 10
93.45086806626243
 20
-36.91970485478237
 30
0.0
  0
VERTEX
  8
0
 10
94.6175275778435
 20
-35.529334190521425
 30
0.0
  0
VERTEX
  8
0
 10
94.1042778009538
 20
-35.09866649203144
 30
0.0
  0
VERTEX
  8
0
 10
90.57625035233336
 20
-39.303205878695834
 30
0.0
  0
VERTEX
  8
0
 10
91.08950012922307
 20
-39.73387357718582
 30
0.0
  0
VERTEX
  8
0
 10
92.25615964080414
 20
-38.343502912924876
 30
0.0
  0
VERTEX
  8
0
 10
96.59963163328875
 20
-41.988108659847555
 30
0.0
  0
SEQEND
  0
LINE
  8
0
 10
96.40041530689811
 20
-42.535451018192504
 30
0.0
 11
96.59963163328875
 21
-41.988108659847555
 31
0.0
  0
POLYLINE
  8
0
 66
1
 10
0.0
 20
0.0
 30
0.0
 70
8
  0
VERTEX
  8
0
 10
96.40041530689811
 20
-42.535451018192504
 30
0.0
  0
VERTEX
  8
0
 10
82.21699312709082
 20
-42.535451018192504
 30
0.0
  0
VERTEX
  8
0
 10
82.21699312709082
 20
-40.720451018192506
 30
0.0
  0
VERTEX
  8
0
 10
81.54699312709081
 20
-40.720451018192506
 30
0.0
  0
VERTEX
  8
0
 10
81.54699312709081
 20
-46.209087381828866
 30
0.0
  0
VERTEX
  8
0
 10
82.21699312709082
 20
-46.209087381828866
 30
0.0
  0
VERTEX
  8
0
 10
82.21699312709082
 20
-44.39408738182887
 30
0.0
  0
VERTEX
  8
0
 10
96.40041530689811
 20
-44.39408738182887
 30
0.0
  0
SEQEND
  0
LINE
  8
0
 10
96.59963163328875
 20
-44.94142974017383
 30
0.0
 11
96.40041530689811
 21
-44.39408738182887
 31
0.0
  0
POLYLINE
  8
0
 66
1
 10
0.0
 20
0.0
 30
0.0
 70
8
  0
VERTEX
  8
0
 10
96.59963163328875
 20
-44.94142974017383
 30
0.0
  0
VERTEX
  8
0
 10
92.25615964080414
 20
-48.58603548709651
 30
0.0
  0
VERTEX
  8
0
 10
91.08950012922307
 20
-47.19566482283557
 30
0.0
  0
VERTEX
  8
0
 10
90.57625035233335
 20
-47.62633252132555
 30
0.0
  0
VERTEX
  8
0
 10
94.10427780095378
 20
-51.830871907989945
 30
0.0
  0
VERTEX
  8
0
 10
94.6175275778435
 20
-51.40020420949996
 30
0.0
  0
VERTEX
  8
0
 10
93.45086806626243
 20
-50.00983354523902
 30
0.0
  0
VERTEX
  8
0
 10
97.79434005874704
 20
-46.36522779831634
 30
0.0
  0
SEQEND
  0
LINE
  8
0
 10
100.8532171427181
 20
-46.365227798316326
 30
0.0
 11
97.79434005874704
 21
-46.36522779831634
 31
0.0
  0
POLYLINE
  8
0
 66
1
 10
0.0
 20
0.0
 30
0.0
 70
8
  0
VERTEX
  8
0
 10
100.8532171427181
 20
-46.365227798316326
 30
0.0
  0
VERTEX
  8
0
 10
105.1966891352027
 20
-50.009833545239005
 30
0.0
  0
VERTEX
  8
0
 10
104.03002962362163
 20
-51.40020420949995
 30
0.0
  0
VERTEX
  8
0
 10
104.54327940051135
 20
-51.83087190798993
 30
0.0
  0
VERTEX
  8
0
 10
108.07130684913179
 20
-47.62633252132554
 30
0.0
  0
VERTEX
  8
0
 10
107.55805707224208
 20
-47.19566482283555
 30
0.0
  0
VERTEX
  8
0
 10
106.391397560661
 20
-48.586035487096495
 30
0.0
  0
VERTEX
  8
0
 10
102.0479255681764
 20
-44.94142974017382
 30
0.0
  0
SEQEND
  0
LINE
  8
0
 10
102.0479255681764
 20
-44.94142974017382
 30
0.0
 11
102.24714189456702
 21
-44.39408738182887
 31
0.0
  0
POLYLINE
  8
0
 66
1
 10
0.0
 20
0.0
 30
0.0
 70
8
  0
VERTEX
  8
0
 10
122.76056407437432
 20
-40.720451018192506
 30
0.0
  0
VERTEX
  8
0
 10
123.43056407437432
 20
-40.720451018192506
 30
0.0
  0
VERTEX
  8
0
 10
123.43056407437432
 20
-42.535451018192504
 30
0.0
  0
VERTEX
  8
0
 10
125.09056407437431
 20
-42.535451018192504
 30
0.0
  0
VERTEX
  8
0
 10
125.09056407437431
 20
-40.720451018192506
 30
0.0
  0
VERTEX
  8
0
 10
125.76056407437432
 20
-40.720451018192506
 30
0.0
  0
VERTEX
  8
0
 10
125.76056407437432
 20
-46.209087381828866
 30
0.0
  0
VERTEX
  8
0
 10
125.09056407437431
 20
-46.209087381828866
 30
0.0
  0
VERTEX
  8
0
 10
125.09056407437431
 20
-44.39408738182887
 30
0.0
  0
VERTEX
  8
0
 10
123.43056407437432
 20
-44.39408738182887
 30
0.0
  0
VERTEX
  8
0
 10
123.43056407437432
 20
-46.209087381828866
 30
0.0
  0
VERTEX
  8
0
 10
122.76056407437432
 20
-46.209087381828866
 30
0.0
  0
VERTEX
  8
0
 10
122.76056407437432
 20
-40.720451018192506
 30
0.0
  0
SEQEND
  0
POLYLINE
  8
0
 66
1
 10
0.0
 20
0.0
 30
0.0
 70
8
  0
VERTEX
  8
0
 10
108.87909094856475
 20
-31.460488621205627
 30
0.0
  0
VERTEX
  8
0
 10
109.39234072545446
 20
-31.029820922715647
 30
0.0
  0
VERTEX
  8
0
 10
110.55900023703553
 20
-32.42019158697659
 30
0.0
  0
VERTEX
  8
0
 10
111.83063401261303
 20
-31.353164154896938
 30
0.0
  0
VERTEX
  8
0
 10
110.66397450103196
 20
-29.962793490635992
 30
0.0
  0
VERTEX
  8
0
 10
111.17722427792168
 20
-29.53212579214601
 30
0.0
  0
VERTEX
  8
0
 10
114.70525172654212
 20
-33.736665178810405
 30
0.0
  0
VERTEX
  8
0
 10
114.1920019496524
 20
-34.16733287730039
 30
0.0
  0
VERTEX
  8
0
 10
113.02534243807132
 20
-32.77696221303945
 30
0.0
  0
VERTEX
  8
0
 10
111.75370866249382
 20
-33.8439896451191
 30
0.0
  0
VERTEX
  8
0
 10
112.9203681740749
 20
-35.234360309380044
 30
0.0
  0
VERTEX
  8
0
 10
112.40711839718517
 20
-35.66502800787003
 30
0.0
  0
VERTEX
  8
0
 10
108.87909094856475
 20
-31.460488621205627
 30
0.0
  0
SEQEND
  0
POLYLINE
  8
0
 66
1
 10
0.0
 20
0.0
 30
0.0
 70
8
  0
VERTEX
  8
0
 10
89.76846625290038
 20
-55.469049778815744
 30
0.0
  0
VERTEX
  8
0
 10
89.25521647601067
 20
-55.89971747730573
 30
0.0
  0
VERTEX
  8
0
 10
88.0885569644296
 20
-54.509346813044786
 30
0.0
  0
VERTEX
  8
0
 10
86.8169231888521
 20
-55.57637424512444
 30
0.0
  0
VERTEX
  8
0
 10
87.98358270043317
 20
-56.96674490938538
 30
0.0
  0
VERTEX
  8
0
 10
87.47033292354345
 20
-57.39741260787537
 30
0.0
  0
VERTEX
  8
0
 10
83.94230547492302
 20
-53.192873221210974
 30
0.0
  0
VERTEX
  8
0
 10
84.45555525181274
 20
-52.76220552272099
 30
0.0
  0
VERTEX
  8
0
 10
85.62221476339381
 20
-54.15257618698193
 30
0.0
  0
VERTEX
  8
0
 10
86.89384853897131
 20
-53.08554875490228
 30
0.0
  0
VERTEX
  8
0
 10
85.72718902739024
 20
-51.695178090641335
 30
0.0
  0
VERTEX
  8
0
 10
86.24043880427996
 20
-51.26451039215135
 30
0.0
  0
VERTEX
  8
0
 10
89.76846625290038
 20
-55.469049778815744
 30
0.0
  0
SEQEND
  0
POLYLINE
  8
0
 66
1
 10
0.0
 20
0.0
 30
0.0
 70
8
  0
VERTEX
  8
0
 10
112.40711839718519
 20
-51.26451039215135
 30
0.0
  0
VERTEX
  8
0
 10
112.9203681740749
 20
-51.695178090641335
 30
0.0
  0
VERTEX
  8
0
 10
111.75370866249382
 20
-53.08554875490228
 30
0.0
  0
VERTEX
  8
0
 10
113.02534243807132
 20
-54.15257618698193
 30
0.0
  0
VERTEX
  8
0
 10
114.1920019496524
 20
-52.76220552272099
 30
0.0
  0
VERTEX
  8
0
 10
114.70525172654212
 20
-53.192873221210974
 30
0.0
  0
VERTEX
  8
0
 10
111.17722427792168
 20
-57.39741260787537
 30
0.0
  0
VERTEX
  8
0
 10
110.66397450103197
 20
-56.96674490938538
 30
0.0
  0
VERTEX
  8
0
 10
111.83063401261305
 20
-55.57637424512444
 30
0.0
  0
VERTEX
  8
0
 10
110.55900023703555
 20
-54.509346813044786
 30
0.0
  0
VERTEX
  8
0
 10
109.39234072545447
 20
-55.89971747730573
 30
0.0
  0
VERTEX
  8
0
 10
108.87909094856477
 20
-55.469049778815744
 30
0.0
  0
VERTEX
  8
0
 10
112.40711839718519
 20
-51.26451039215135
 30
0.0
  0
SEQEND
  0
ENDSEC
  0
EOF
