  0
SECTION
  2
HEADER
  9
$ACADVER
  1
AC1009
  9
$INSBASE
 10
0.0
 20
0.0
 30
0.0
  9
$EXTMIN
 10
0.0
 20
0.0
 30
0.0
  9
$EXTMAX
 10
100.0
 20
100.0
 30
0.0
  9
$UNITMODE
 70
0
  9
$AUNITS
 70
0
  9
$ANGBASE
 50
0.0
  9
$ANGDIR
 70
0
  0
ENDSEC
  0
SECTION
  2
TABLES
  0
TABLE
  2
LTYPE
 70
19
  0
LTYPE
  2
CONTINUOUS
 70
0
  3
Solid
 72
65
 73
0
 40
0.0
  0
LTYPE
  2
CENTER
 70
0
  3
Center ____ _ ____ _ ____ _ ____ _ ____ _ ____
 72
65
 73
4
 40
2.0
 49
1.25
 49
-0.25
 49
0.25
 49
-0.25
  0
LTYPE
  2
CENTERX2
 70
0
  3
Center (2x) ________  __  ________  __  ________
 72
65
 73
4
 40
3.5
 49
2.5
 49
-0.25
 49
0.5
 49
-0.25
  0
LTYPE
  2
CENTER2
 70
0
  3
Center (.5x) ____ _ ____ _ ____ _ ____ _ ____
 72
65
 73
4
 40
1.0
 49
0.625
 49
-0.125
 49
0.125
 49
-0.125
  0
LTYPE
  2
DASHED
 70
0
  3
Dashed __ __ __ __ __ __ __ __ __ __ __ __ __ _
 72
65
 73
2
 40
0.6
 49
0.5
 49
-0.1
  0
LTYPE
  2
DASHEDX2
 70
0
  3
Dashed (2x) ____  ____  ____  ____  ____  ____
 72
65
 73
2
 40
1.2
 49
1.0
 49
-0.2
  0
LTYPE
  2
DASHED2
 70
0
  3
Dashed (.5x) _ _ _ _ _ _ _ _ _ _ _ _ _ _
 72
65
 73
2
 40
0.3
 49
0.25
 49
-0.05
  0
LTYPE
  2
PHANTOM
 70
0
  3
Phantom ______  __  __  ______  __  __  ______
 72
65
 73
6
 40
2.5
 49
1.25
 49
-0.25
 49
0.25
 49
-0.25
 49
0.25
 49
-0.25
  0
LTYPE
  2
PHANTOMX2
 70
0
  3
Phantom (2x)____________    ____    ____    ____________
 72
65
 73
6
 40
4.25
 49
2.5
 49
-0.25
 49
0.5
 49
-0.25
 49
0.5
 49
-0.25
  0
LTYPE
  2
PHANTOM2
 70
0
  3
Phantom (.5x) ___ _ _ ___ _ _ ___ _ _ ___ _ _ ___
 72
65
 73
6
 40
1.25
 49
0.625
 49
-0.125
 49
0.125
 49
-0.125
 49
0.125
 49
-0.125
  0
LTYPE
  2
DASHDOT
 70
0
  3
Dash dot __ . __ . __ . __ . __ . __ . __ . __
 72
65
 73
4
 40
1.4
 49
1.0
 49
-0.2
 49
0.0
 49
-0.2
  0
LTYPE
  2
DASHDOTX2
 70
0
  3
Dash dot (2x) ____  .  ____  .  ____  .  ____
 72
65
 73
4
 40
2.4
 49
2.0
 49
-0.2
 49
0.0
 49
-0.2
  0
LTYPE
  2
DASHDOT2
 70
0
  3
Dash dot (.5x) _ . _ . _ . _ . _ . _ . _ . _
 72
65
 73
4
 40
0.7
 49
0.5
 49
-0.1
 49
0.0
 49
-0.1
  0
LTYPE
  2
DOT
 70
0
  3
Dot .  .  .  .  .  .  .  .  .  .  .  .  .  .  .  .
 72
65
 73
2
 40
0.2
 49
0.0
 49
-0.2
  0
LTYPE
  2
DOTX2
 70
0
  3
Dot (2x) .    .    .    .    .    .    .    . 
 72
65
 73
2
 40
0.4
 49
0.0
 49
-0.4
  0
LTYPE
  2
DOT2
 70
0
  3
Dot (.5) . . . . . . . . . . . . . . . . . . . 
 72
65
 73
2
 40
0.1
 49
0.0
 49
-0.1
  0
LTYPE
  2
DIVIDE
 70
0
  3
Divide __ . . __ . . __ . . __ . . __ . . __
 72
65
 73
6
 40
1.6
 49
1.0
 49
-0.2
 49
0.0
 49
-0.2
 49
0.0
 49
-0.2
  0
LTYPE
  2
DIVIDEX2
 70
0
  3
Divide (2x) ____  . .  ____  . .  ____  . .  ____
 72
65
 73
6
 40
2.6
 49
2.0
 49
-0.2
 49
0.0
 49
-0.2
 49
0.0
 49
-0.2
  0
LTYPE
  2
DIVIDE2
 70
0
  3
Divide(.5x) _ . _ . _ . _ . _ . _ . _ . _
 72
65
 73
6
 40
0.8
 49
0.5
 49
-0.1
 49
0.0
 49
-0.1
 49
0.0
 49
-0.1
  0
ENDTAB
  0
TABLE
  2
LAYER
 70
5
  0
LAYER
  2
DIMENSIONS
 70
0
 62
1
  6
CONTINUOUS
  0
LAYER
  2
TABLEBACKGROUND
 70
0
 62
1
  6
CONTINUOUS
  0
LAYER
  2
TABLECONTENT
 70
0
 62
1
  6
CONTINUOUS
  0
LAYER
  2
TABLEGRID
 70
0
 62
1
  6
CONTINUOUS
  0
LAYER
  2
VIEWPORTS
 70
0
 62
7
  6
CONTINUOUS
  0
ENDTAB
  0
TABLE
  2
STYLE
 70
12
  0
STYLE
  2
STANDARD
 70
0
 40
0.0
 41
1.0
 42
1.0
 50
0.0
 71
0
  3
arial.ttf
  4

  0
STYLE
  2
ARIAL
 70
0
 40
0.0
 41
1.0
 42
1.0
 50
0.0
 71
0
  3
arial.ttf
  4

  0
STYLE
  2
ARIAL_BOLD
 70
0
 40
0.0
 41
1.0
 42
1.0
 50
0.0
 71
0
  3
arialbd.ttf
  4

  0
STYLE
  2
ARIAL_ITALIC
 70
0
 40
0.0
 41
1.0
 42
1.0
 50
0.0
 71
0
  3
ariali.ttf
  4

  0
STYLE
  2
ARIAL_BOLD_ITALIC
 70
0
 40
0.0
 41
1.0
 42
1.0
 50
0.0
 71
0
  3
arialbi.ttf
  4

  0
STYLE
  2
ARIAL_BLACK
 70
0
 40
0.0
 41
1.0
 42
1.0
 50
0.0
 71
0
  3
ariblk.ttf
  4

  0
STYLE
  2
ISOCPEUR
 70
0
 40
0.0
 41
1.0
 42
1.0
 50
0.0
 71
0
  3
isocpeur.ttf
  4

  0
STYLE
  2
ISOCPEUR_ITALIC
 70
0
 40
0.0
 41
1.0
 42
1.0
 50
0.0
 71
0
  3
isocpeui.ttf
  4

  0
STYLE
  2
TIMES
 70
0
 40
0.0
 41
1.0
 42
1.0
 50
0.0
 71
0
  3
times.ttf
  4

  0
STYLE
  2
TIMES_BOLD
 70
0
 40
0.0
 41
1.0
 42
1.0
 50
0.0
 71
0
  3
timesbd.ttf
  4

  0
STYLE
  2
TIMES_ITALIC
 70
0
 40
0.0
 41
1.0
 42
1.0
 50
0.0
 71
0
  3
timesi.ttf
  4

  0
STYLE
  2
TIMES_BOLD_ITALIC
 70
0
 40
0.0
 41
1.0
 42
1.0
 50
0.0
 71
0
  3
timesbi.ttf
  4

  0
ENDTAB
  0
TABLE
  2
VIEW
 70
0
  0
ENDTAB
  0
TABLE
  2
APPID
 70
1
  0
APPID
  2
DXFWRITE
 70
0
  0
ENDTAB
  0
TABLE
  2
VPORT
 70
0
  0
ENDTAB
  0
TABLE
  2
UCS
 70
0
  0
ENDTAB
  0
ENDSEC
  0
SECTION
  2
BLOCKS
  0
ENDSEC
  0
SECTION
  2
ENTITIES
  0
VIEWPORT
  8
VIEWPORTS
 67
1
 10
0.0
 20
0.0
 30
0.0
 40
1.0
 41
1.0
 68
1
 69
1
1001
ACAD
1000
MVIEW
1002
{
1070
16
1010
0.0
1020
0.0
1030
0.0
1010
0.0
1020
0.0
1030
0.0
1040
0.0
1040
1.0
1040
0.0
1040
0.0
1040
50.0
1040
0.0
1040
0.0
1070
0
1070
100
1070
1
1070
3
1070
0
1070
0
1070
0
1070
0
1040
0.0
1040
0.0
1040
0.0
1040
0.1
1040
0.1
1040
0.1
1040
0.1
1070
0
1002
{
1002
}
1002
}
  0
POLYLINE
  8
0
 66
1
 10
0.0
 20
0.0
 30
0.0
 70
8
  0
VERTEX
  8
0
 10
2.0
 20
-0.9293181818181816
 30
0.0
  0
VERTEX
  8
0
 10
12.676096654409879
 20
-0.9293181818181816
 30
0.0
  0
VERTEX
  8
0
 10
12.676096654409879
 20
-2.7443181818181817
 30
0.0
  0
VERTEX
  8
0
 10
13.346096654409878
 20
-2.7443181818181817
 30
0.0
  0
VERTEX
  8
0
 10
13.346096654409878
 20
2.7443181818181817
 30
0.0
  0
VERTEX
  8
0
 10
12.676096654409879
 20
2.7443181818181817
 30
0.0
  0
VERTEX
  8
0
 10
12.676096654409879
 20
0.9293181818181817
 30
0.0
  0
VERTEX
  8
0
 10
2.0
 20
0.9293181818181804
 30
0.0
  0
SEQEND
  0
LINE
  8
0
 10
1.8384776310850237
 20
1.319267675479348
 30
0.0
 11
2.0
 21
0.9293181818181804
 31
0.0
  0
POLYLINE
  8
0
 66
1
 10
0.0
 20
0.0
 30
0.0
 70
8
  0
VERTEX
  8
0
 10
1.8384776310850237
 20
1.319267675479348
 30
0.0
  0
VERTEX
  8
0
 10
5.140666299226201
 20
4.621456343620524
 30
0.0
  0
VERTEX
  8
0
 10
6.424065107079785
 20
3.3380575357669406
 30
0.0
  0
VERTEX
  8
0
 10
6.897826650474771
 20
3.8118190791619275
 30
0.0
  0
VERTEX
  8
0
 10
3.0167746582804256
 20
7.692871071356274
 30
0.0
  0
VERTEX
  8
0
 10
2.5430131148854387
 20
7.219109527961288
 30
0.0
  0
VERTEX
  8
0
 10
3.8264119227390223
 20
5.9357107201077035
 30
0.0
  0
VERTEX
  8
0
 10
0.5242232545978456
 20
2.6335220519665263
 30
0.0
  0
SEQEND
  0
LINE
  8
0
 10
-1.4556757327244876
 20
2.633522051966527
 30
0.0
 11
0.5242232545978456
 21
2.6335220519665263
 31
0.0
  0
POLYLINE
  8
0
 66
1
 10
0.0
 20
0.0
 30
0.0
 70
8
  0
VERTEX
  8
0
 10
-1.4556757327244876
 20
2.633522051966527
 30
0.0
  0
VERTEX
  8
0
 10
-4.757864400865664
 20
5.9357107201077035
 30
0.0
  0
VERTEX
  8
0
 10
-3.47446559301208
 20
7.219109527961287
 30
0.0
  0
VERTEX
  8
0
 10
-3.9482271364070667
 20
7.692871071356274
 30
0.0
  0
VERTEX
  8
0
 10
-7.829279128601414
 20
3.8118190791619284
 30
0.0
  0
VERTEX
  8
0
 10
-7.355517585206427
 20
3.3380575357669415
 30
0.0
  0
VERTEX
  8
0
 10
-6.072118777352843
 20
4.621456343620525
 30
0.0
  0
VERTEX
  8
0
 10
-2.769930109211666
 20
1.3192676754793484
 30
0.0
  0
SEQEND
  0
LINE
  8
0
 10
-2.9314524781266424
 20
0.9293181818181818
 30
0.0
 11
-2.769930109211666
 21
1.3192676754793484
 31
0.0
  0
POLYLINE
  8
0
 66
1
 10
0.0
 20
0.0
 30
0.0
 70
8
  0
VERTEX
  8
0
 10
-2.9314524781266424
 20
0.9293181818181818
 30
0.0
  0
VERTEX
  8
0
 10
-13.607549132536521
 20
0.9293181818181832
 30
0.0
  0
VERTEX
  8
0
 10
-13.607549132536521
 20
2.744318181818183
 30
0.0
  0
VERTEX
  8
0
 10
-14.277549132536521
 20
2.744318181818183
 30
0.0
  0
VERTEX
  8
0
 10
-14.277549132536523
 20
-2.7443181818181803
 30
0.0
  0
VERTEX
  8
0
 10
-13.607549132536523
 20
-2.7443181818181803
 30
0.0
  0
VERTEX
  8
0
 10
-13.607549132536523
 20
-0.9293181818181804
 30
0.0
  0
VERTEX
  8
0
 10
-2.9314524781266442
 20
-0.9293181818181804
 30
0.0
  0
SEQEND
  0
LINE
  8
0
 10
-2.7699301092116664
 20
-1.319267675479348
 30
0.0
 11
-2.9314524781266442
 21
-0.9293181818181804
 31
0.0
  0
POLYLINE
  8
0
 66
1
 10
0.0
 20
0.0
 30
0.0
 70
8
  0
VERTEX
  8
0
 10
-2.7699301092116664
 20
-1.319267675479348
 30
0.0
  0
VERTEX
  8
0
 10
-6.072118777352844
 20
-4.621456343620524
 30
0.0
  0
VERTEX
  8
0
 10
-7.355517585206428
 20
-3.33805753576694
 30
0.0
  0
VERTEX
  8
0
 10
-7.829279128601415
 20
-3.811819079161927
 30
0.0
  0
VERTEX
  8
0
 10
-3.9482271364070707
 20
-7.692871071356274
 30
0.0
  0
VERTEX
  8
0
 10
-3.474465593012084
 20
-7.219109527961288
 30
0.0
  0
VERTEX
  8
0
 10
-4.757864400865667
 20
-5.9357107201077035
 30
0.0
  0
VERTEX
  8
0
 10
-1.4556757327244902
 20
-2.633522051966527
 30
0.0
  0
SEQEND
  0
LINE
  8
0
 10
0.5242232545978452
 20
-2.6335220519665263
 30
0.0
 11
-1.4556757327244902
 21
-2.633522051966527
 31
0.0
  0
POLYLINE
  8
0
 66
1
 10
0.0
 20
0.0
 30
0.0
 70
8
  0
VERTEX
  8
0
 10
0.5242232545978452
 20
-2.6335220519665263
 30
0.0
  0
VERTEX
  8
0
 10
3.8264119227390223
 20
-5.9357107201077035
 30
0.0
  0
VERTEX
  8
0
 10
2.5430131148854387
 20
-7.219109527961288
 30
0.0
  0
VERTEX
  8
0
 10
3.0167746582804256
 20
-7.692871071356274
 30
0.0
  0
VERTEX
  8
0
 10
6.897826650474771
 20
-3.8118190791619284
 30
0.0
  0
VERTEX
  8
0
 10
6.424065107079785
 20
-3.3380575357669415
 30
0.0
  0
VERTEX
  8
0
 10
5.140666299226201
 20
-4.621456343620525
 30
0.0
  0
VERTEX
  8
0
 10
1.838477631085023
 20
-1.3192676754793484
 30
0.0
  0
SEQEND
  0
LINE
  8
0
 10
1.838477631085023
 20
-1.3192676754793484
 30
0.0
 11
2.0
 21
-0.9293181818181816
 31
0.0
  0
POLYLINE
  8
0
 66
1
 10
0.0
 20
0.0
 30
0.0
 70
8
  0
VERTEX
  8
0
 10
13.0
 20
2.7443181818181817
 30
0.0
  0
VERTEX
  8
0
 10
13.67
 20
2.7443181818181817
 30
0.0
  0
VERTEX
  8
0
 10
13.67
 20
0.9293181818181817
 30
0.0
  0
VERTEX
  8
0
 10
15.33
 20
0.9293181818181817
 30
0.0
  0
VERTEX
  8
0
 10
15.33
 20
2.7443181818181817
 30
0.0
  0
VERTEX
  8
0
 10
16.0
 20
2.7443181818181817
 30
0.0
  0
VERTEX
  8
0
 10
16.0
 20
-2.7443181818181817
 30
0.0
  0
VERTEX
  8
0
 10
15.33
 20
-2.7443181818181817
 30
0.0
  0
VERTEX
  8
0
 10
15.33
 20
-0.9293181818181817
 30
0.0
  0
VERTEX
  8
0
 10
13.67
 20
-0.9293181818181815
 30
0.0
  0
VERTEX
  8
0
 10
13.67
 20
-2.7443181818181817
 30
0.0
  0
VERTEX
  8
0
 10
13.0
 20
-2.7443181818181817
 30
0.0
  0
VERTEX
  8
0
 10
13.0
 20
2.7443181818181817
 30
0.0
  0
SEQEND
  0
POLYLINE
  8
0
 66
1
 10
0.0
 20
0.0
 30
0.0
 70
8
  0
VERTEX
  8
0
 10
6.786135920264625
 20
11.927958572403794
 30
0.0
  0
VERTEX
  8
0
 10
7.2598974636596125
 20
12.401720115798781
 30
0.0
  0
VERTEX
  8
0
 10
8.543296271513196
 20
11.118321307945198
 30
0.0
  0
VERTEX
  8
0
 10
9.717093528282865
 20
12.292118564714867
 30
0.0
  0
VERTEX
  8
0
 10
8.433694720429282
 20
13.57551737256845
 30
0.0
  0
VERTEX
  8
0
 10
8.907456263824269
 20
14.049278915963438
 30
0.0
  0
VERTEX
  8
0
 10
12.788508256018615
 20
10.168226923769092
 30
0.0
  0
VERTEX
  8
0
 10
12.314746712623627
 20
9.694465380374105
 30
0.0
  0
VERTEX
  8
0
 10
11.031347904770044
 20
10.977864188227688
 30
0.0
  0
VERTEX
  8
0
 10
9.857550648000375
 20
9.804066931458019
 30
0.0
  0
VERTEX
  8
0
 10
11.140949455853958
 20
8.520668123604436
 30
0.0
  0
VERTEX
  8
0
 10
10.66718791245897
 20
8.046906580209448
 30
0.0
  0
VERTEX
  8
0
 10
6.786135920264625
 20
11.927958572403794
 30
0.0
  0
SEQEND
  0
POLYLINE
  8
0
 66
1
 10
0.0
 20
0.0
 30
0.0
 70
8
  0
VERTEX
  8
0
 10
-12.064366629648932
 20
7.581180341146128
 30
0.0
  0
VERTEX
  8
0
 10
-12.53812817304392
 20
8.054941884541115
 30
0.0
  0
VERTEX
  8
0
 10
-11.254729365190336
 20
9.338340692394699
 30
0.0
  0
VERTEX
  8
0
 10
-12.428526621960005
 20
10.512137949164368
 30
0.0
  0
VERTEX
  8
0
 10
-13.71192542981359
 20
9.228739141310784
 30
0.0
  0
VERTEX
  8
0
 10
-14.185686973208577
 20
9.702500684705772
 30
0.0
  0
VERTEX
  8
0
 10
-10.304634981014232
 20
13.583552676900117
 30
0.0
  0
VERTEX
  8
0
 10
-9.830873437619244
 20
13.10979113350513
 30
0.0
  0
VERTEX
  8
0
 10
-11.11427224547283
 20
11.826392325651547
 30
0.0
  0
VERTEX
  8
0
 10
-9.94047498870316
 20
10.652595068881878
 30
0.0
  0
VERTEX
  8
0
 10
-8.657076180849577
 20
11.935993876735461
 30
0.0
  0
VERTEX
  8
0
 10
-8.18331463745459
 20
11.462232333340474
 30
0.0
  0
VERTEX
  8
0
 10
-12.064366629648932
 20
7.581180341146128
 30
0.0
  0
SEQEND
  0
POLYLINE
  8
0
 66
1
 10
0.0
 20
0.0
 30
0.0
 70
8
  0
VERTEX
  8
0
 10
-13.931452478126644
 20
-3.0736363636363615
 30
0.0
  0
VERTEX
  8
0
 10
-14.601452478126644
 20
-3.0736363636363615
 30
0.0
  0
VERTEX
  8
0
 10
-14.601452478126644
 20
-1.2586363636363616
 30
0.0
  0
VERTEX
  8
0
 10
-16.261452478126643
 20
-1.2586363636363613
 30
0.0
  0
VERTEX
  8
0
 10
-16.261452478126643
 20
-3.0736363636363615
 30
0.0
  0
VERTEX
  8
0
 10
-16.931452478126644
 20
-3.0736363636363615
 30
0.0
  0
VERTEX
  8
0
 10
-16.931452478126644
 20
2.415000000000002
 30
0.0
  0
VERTEX
  8
0
 10
-16.261452478126643
 20
2.415000000000002
 30
0.0
  0
VERTEX
  8
0
 10
-16.261452478126643
 20
0.6000000000000019
 30
0.0
  0
VERTEX
  8
0
 10
-14.601452478126642
 20
0.6000000000000014
 30
0.0
  0
VERTEX
  8
0
 10
-14.601452478126642
 20
2.4150000000000014
 30
0.0
  0
VERTEX
  8
0
 10
-13.931452478126642
 20
2.4150000000000014
 30
0.0
  0
VERTEX
  8
0
 10
-13.931452478126644
 20
-3.0736363636363615
 30
0.0
  0
SEQEND
  0
POLYLINE
  8
0
 66
1
 10
0.0
 20
0.0
 30
0.0
 70
8
  0
VERTEX
  8
0
 10
-7.71758839839127
 20
-11.927958572403794
 30
0.0
  0
VERTEX
  8
0
 10
-8.191349941786257
 20
-12.401720115798781
 30
0.0
  0
VERTEX
  8
0
 10
-9.47474874963984
 20
-11.118321307945198
 30
0.0
  0
VERTEX
  8
0
 10
-10.648546006409509
 20
-12.292118564714867
 30
0.0
  0
VERTEX
  8
0
 10
-9.365147198555926
 20
-13.575517372568452
 30
0.0
  0
VERTEX
  8
0
 10
-9.838908741950913
 20
-14.04927891596344
 30
0.0
  0
VERTEX
  8
0
 10
-13.719960734145259
 20
-10.168226923769094
 30
0.0
  0
VERTEX
  8
0
 10
-13.246199190750271
 20
-9.694465380374107
 30
0.0
  0
VERTEX
  8
0
 10
-11.962800382896688
 20
-10.977864188227691
 30
0.0
  0
VERTEX
  8
0
 10
-10.78900312612702
 20
-9.804066931458022
 30
0.0
  0
VERTEX
  8
0
 10
-12.072401933980602
 20
-8.52066812360444
 30
0.0
  0
VERTEX
  8
0
 10
-11.598640390585615
 20
-8.046906580209452
 30
0.0
  0
VERTEX
  8
0
 10
-7.71758839839127
 20
-11.927958572403794
 30
0.0
  0
SEQEND
  0
POLYLINE
  8
0
 66
1
 10
0.0
 20
0.0
 30
0.0
 70
8
  0
VERTEX
  8
0
 10
11.132914151522291
 20
-7.581180341146126
 30
0.0
  0
VERTEX
  8
0
 10
11.606675694917278
 20
-8.054941884541114
 30
0.0
  0
VERTEX
  8
0
 10
10.323276887063695
 20
-9.338340692394697
 30
0.0
  0
VERTEX
  8
0
 10
11.497074143833364
 20
-10.512137949164366
 30
0.0
  0
VERTEX
  8
0
 10
12.780472951686948
 20
-9.228739141310783
 30
0.0
  0
VERTEX
  8
0
 10
13.254234495081935
 20
-9.70250068470577
 30
0.0
  0
VERTEX
  8
0
 10
9.37318250288759
 20
-13.583552676900116
 30
0.0
  0
VERTEX
  8
0
 10
8.899420959492602
 20
-13.109791133505128
 30
0.0
  0
VERTEX
  8
0
 10
10.182819767346185
 20
-11.826392325651545
 30
0.0
  0
VERTEX
  8
0
 10
9.009022510576516
 20
-10.652595068881876
 30
0.0
  0
VERTEX
  8
0
 10
7.725623702722933
 20
-11.93599387673546
 30
0.0
  0
VERTEX
  8
0
 10
7.251862159327946
 20
-11.462232333340472
 30
0.0
  0
VERTEX
  8
0
 10
11.132914151522291
 20
-7.581180341146126
 30
0.0
  0
SEQEND
  0
POLYLINE
  8
0
 66
1
 10
0.0
 20
0.0
 30
0.0
 70
8
  0
VERTEX
  8
0
 10
31.931452478126644
 20
-0.9293181818181823
 30
0.0
  0
VERTEX
  8
0
 10
42.60754913253652
 20
-0.9293181818181823
 30
0.0
  0
VERTEX
  8
0
 10
42.60754913253652
 20
-2.744318181818182
 30
0.0
  0
VERTEX
  8
0
 10
43.27754913253652
 20
-2.744318181818182
 30
0.0
  0
VERTEX
  8
0
 10
43.27754913253652
 20
2.744318181818181
 30
0.0
  0
VERTEX
  8
0
 10
42.60754913253652
 20
2.744318181818181
 30
0.0
  0
VERTEX
  8
0
 10
42.60754913253652
 20
0.9293181818181813
 30
0.0
  0
VERTEX
  8
0
 10
31.93145247812664
 20
0.9293181818181799
 30
0.0
  0
SEQEND
  0
LINE
  8
0
 10
31.769930109211668
 20
1.3192676754793475
 30
0.0
 11
31.93145247812664
 21
0.9293181818181799
 31
0.0
  0
POLYLINE
  8
0
 66
1
 10
0.0
 20
0.0
 30
0.0
 70
8
  0
VERTEX
  8
0
 10
31.769930109211668
 20
1.3192676754793475
 30
0.0
  0
VERTEX
  8
0
 10
35.07211877735284
 20
4.621456343620524
 30
0.0
  0
VERTEX
  8
0
 10
36.35551758520643
 20
3.3380575357669406
 30
0.0
  0
VERTEX
  8
0
 10
36.829279128601414
 20
3.8118190791619275
 30
0.0
  0
VERTEX
  8
0
 10
32.94822713640707
 20
7.692871071356274
 30
0.0
  0
VERTEX
  8
0
 10
32.474465593012084
 20
7.219109527961288
 30
0.0
  0
VERTEX
  8
0
 10
33.75786440086567
 20
5.9357107201077035
 30
0.0
  0
VERTEX
  8
0
 10
30.455675732724494
 20
2.6335220519665263
 30
0.0
  0
SEQEND
  0
LINE
  8
0
 10
28.475776745402154
 20
2.633522051966526
 30
0.0
 11
30.455675732724494
 21
2.6335220519665263
 31
0.0
  0
POLYLINE
  8
0
 66
1
 10
0.0
 20
0.0
 30
0.0
 70
8
  0
VERTEX
  8
0
 10
28.475776745402154
 20
2.633522051966526
 30
0.0
  0
VERTEX
  8
0
 10
25.173588077260977
 20
5.9357107201077035
 30
0.0
  0
VERTEX
  8
0
 10
26.45698688511456
 20
7.219109527961287
 30
0.0
  0
VERTEX
  8
0
 10
25.983225341719574
 20
7.692871071356274
 30
0.0
  0
VERTEX
  8
0
 10
22.102173349525227
 20
3.8118190791619284
 30
0.0
  0
VERTEX
  8
0
 10
22.575934892920213
 20
3.3380575357669415
 30
0.0
  0
VERTEX
  8
0
 10
23.859333700773796
 20
4.621456343620525
 30
0.0
  0
VERTEX
  8
0
 10
27.161522368914973
 20
1.3192676754793484
 30
0.0
  0
SEQEND
  0
LINE
  8
0
 10
27.0
 20
0.9293181818181812
 30
0.0
 11
27.161522368914973
 21
1.3192676754793484
 31
0.0
  0
POLYLINE
  8
0
 66
1
 10
0.0
 20
0.0
 30
0.0
 70
8
  0
VERTEX
  8
0
 10
27.0
 20
0.9293181818181812
 30
0.0
  0
VERTEX
  8
0
 10
16.32390334559012
 20
0.9293181818181825
 30
0.0
  0
VERTEX
  8
0
 10
16.32390334559012
 20
2.7443181818181825
 30
0.0
  0
VERTEX
  8
0
 10
15.653903345590122
 20
2.7443181818181825
 30
0.0
  0
VERTEX
  8
0
 10
15.65390334559012
 20
-2.7443181818181808
 30
0.0
  0
VERTEX
  8
0
 10
16.32390334559012
 20
-2.7443181818181808
 30
0.0
  0
VERTEX
  8
0
 10
16.32390334559012
 20
-0.9293181818181808
 30
0.0
  0
VERTEX
  8
0
 10
27.0
 20
-0.9293181818181808
 30
0.0
  0
SEQEND
  0
LINE
  8
0
 10
27.161522368914977
 20
-1.3192676754793486
 30
0.0
 11
27.0
 21
-0.9293181818181808
 31
0.0
  0
POLYLINE
  8
0
 66
1
 10
0.0
 20
0.0
 30
0.0
 70
8
  0
VERTEX
  8
0
 10
27.161522368914977
 20
-1.3192676754793486
 30
0.0
  0
VERTEX
  8
0
 10
23.8593337007738
 20
-4.621456343620525
 30
0.0
  0
VERTEX
  8
0
 10
22.575934892920216
 20
-3.338057535766941
 30
0.0
  0
VERTEX
  8
0
 10
22.10217334952523
 20
-3.811819079161928
 30
0.0
  0
VERTEX
  8
0
 10
25.983225341719574
 20
-7.692871071356275
 30
0.0
  0
VERTEX
  8
0
 10
26.45698688511456
 20
-7.2191095279612885
 30
0.0
  0
VERTEX
  8
0
 10
25.173588077260977
 20
-5.935710720107704
 30
0.0
  0
VERTEX
  8
0
 10
28.475776745402154
 20
-2.6335220519665277
 30
0.0
  0
SEQEND
  0
LINE
  8
0
 10
30.45567573272449
 20
-2.6335220519665272
 30
0.0
 11
28.475776745402154
 21
-2.6335220519665277
 31
0.0
  0
POLYLINE
  8
0
 66
1
 10
0.0
 20
0.0
 30
0.0
 70
8
  0
VERTEX
  8
0
 10
30.45567573272449
 20
-2.6335220519665272
 30
0.0
  0
VERTEX
  8
0
 10
33.75786440086567
 20
-5.9357107201077035
 30
0.0
  0
VERTEX
  8
0
 10
32.474465593012084
 20
-7.219109527961288
 30
0.0
  0
VERTEX
  8
0
 10
32.94822713640707
 20
-7.692871071356274
 30
0.0
  0
VERTEX
  8
0
 10
36.829279128601414
 20
-3.8118190791619284
 30
0.0
  0
VERTEX
  8
0
 10
36.35551758520643
 20
-3.3380575357669415
 30
0.0
  0
VERTEX
  8
0
 10
35.07211877735284
 20
-4.621456343620525
 30
0.0
  0
VERTEX
  8
0
 10
31.769930109211664
 20
-1.3192676754793484
 30
0.0
  0
SEQEND
  0
LINE
  8
0
 10
31.769930109211664
 20
-1.3192676754793484
 30
0.0
 11
31.931452478126644
 21
-0.9293181818181823
 31
0.0
  0
POLYLINE
  8
0
 66
1
 10
0.0
 20
0.0
 30
0.0
 70
8
  0
VERTEX
  8
0
 10
42.931452478126644
 20
2.7443181818181808
 30
0.0
  0
VERTEX
  8
0
 10
43.601452478126646
 20
2.7443181818181808
 30
0.0
  0
VERTEX
  8
0
 10
43.601452478126646
 20
0.9293181818181808
 30
0.0
  0
VERTEX
  8
0
 10
45.26145247812664
 20
0.9293181818181808
 30
0.0
  0
VERTEX
  8
0
 10
45.26145247812664
 20
2.7443181818181808
 30
0.0
  0
VERTEX
  8
0
 10
45.931452478126644
 20
2.7443181818181808
 30
0.0
  0
VERTEX
  8
0
 10
45.931452478126644
 20
-2.7443181818181825
 30
0.0
  0
VERTEX
  8
0
 10
45.26145247812664
 20
-2.7443181818181825
 30
0.0
  0
VERTEX
  8
0
 10
45.26145247812664
 20
-0.9293181818181826
 30
0.0
  0
VERTEX
  8
0
 10
43.601452478126646
 20
-0.9293181818181824
 30
0.0
  0
VERTEX
  8
0
 10
43.601452478126646
 20
-2.7443181818181825
 30
0.0
  0
VERTEX
  8
0
 10
42.931452478126644
 20
-2.7443181818181825
 30
0.0
  0
VERTEX
  8
0
 10
42.931452478126644
 20
2.7443181818181808
 30
0.0
  0
SEQEND
  0
POLYLINE
  8
0
 66
1
 10
0.0
 20
0.0
 30
0.0
 70
8
  0
VERTEX
  8
0
 10
36.71758839839127
 20
11.92795857240379
 30
0.0
  0
VERTEX
  8
0
 10
37.19134994178626
 20
12.401720115798778
 30
0.0
  0
VERTEX
  8
0
 10
38.47474874963984
 20
11.118321307945195
 30
0.0
  0
VERTEX
  8
0
 10
39.64854600640951
 20
12.292118564714864
 30
0.0
  0
VERTEX
  8
0
 10
38.365147198555924
 20
13.575517372568447
 30
0.0
  0
VERTEX
  8
0
 10
38.83890874195091
 20
14.049278915963434
 30
0.0
  0
VERTEX
  8
0
 10
42.71996073414525
 20
10.168226923769089
 30
0.0
  0
VERTEX
  8
0
 10
42.24619919075027
 20
9.694465380374101
 30
0.0
  0
VERTEX
  8
0
 10
40.96280038289668
 20
10.977864188227684
 30
0.0
  0
VERTEX
  8
0
 10
39.789003126127014
 20
9.804066931458015
 30
0.0
  0
VERTEX
  8
0
 10
41.0724019339806
 20
8.520668123604432
 30
0.0
  0
VERTEX
  8
0
 10
40.598640390585615
 20
8.046906580209445
 30
0.0
  0
VERTEX
  8
0
 10
36.71758839839127
 20
11.92795857240379
 30
0.0
  0
SEQEND
  0
POLYLINE
  8
0
 66
1
 10
0.0
 20
0.0
 30
0.0
 70
8
  0
VERTEX
  8
0
 10
17.867085848477707
 20
7.581180341146128
 30
0.0
  0
VERTEX
  8
0
 10
17.39332430508272
 20
8.054941884541115
 30
0.0
  0
VERTEX
  8
0
 10
18.676723112936305
 20
9.338340692394699
 30
0.0
  0
VERTEX
  8
0
 10
17.502925856166637
 20
10.512137949164368
 30
0.0
  0
VERTEX
  8
0
 10
16.219527048313054
 20
9.228739141310784
 30
0.0
  0
VERTEX
  8
0
 10
15.745765504918067
 20
9.702500684705772
 30
0.0
  0
VERTEX
  8
0
 10
19.626817497112413
 20
13.583552676900117
 30
0.0
  0
VERTEX
  8
0
 10
20.100579040507398
 20
13.10979113350513
 30
0.0
  0
VERTEX
  8
0
 10
18.817180232653815
 20
11.826392325651547
 30
0.0
  0
VERTEX
  8
0
 10
19.990977489423482
 20
10.652595068881878
 30
0.0
  0
VERTEX
  8
0
 10
21.274376297277065
 20
11.935993876735461
 30
0.0
  0
VERTEX
  8
0
 10
21.74813784067205
 20
11.462232333340474
 30
0.0
  0
VERTEX
  8
0
 10
17.867085848477707
 20
7.581180341146128
 30
0.0
  0
SEQEND
  0
POLYLINE
  8
0
 66
1
 10
0.0
 20
0.0
 30
0.0
 70
8
  0
VERTEX
  8
0
 10
22.213864079735373
 20
-11.927958572403794
 30
0.0
  0
VERTEX
  8
0
 10
21.740102536340387
 20
-12.401720115798781
 30
0.0
  0
VERTEX
  8
0
 10
20.456703728486804
 20
-11.118321307945198
 30
0.0
  0
VERTEX
  8
0
 10
19.282906471717133
 20
-12.292118564714867
 30
0.0
  0
VERTEX
  8
0
 10
20.566305279570717
 20
-13.575517372568452
 30
0.0
  0
VERTEX
  8
0
 10
20.09254373617573
 20
-14.04927891596344
 30
0.0
  0
VERTEX
  8
0
 10
16.211491743981384
 20
-10.168226923769094
 30
0.0
  0
VERTEX
  8
0
 10
16.68525328737637
 20
-9.694465380374107
 30
0.0
  0
VERTEX
  8
0
 10
17.968652095229952
 20
-10.977864188227691
 30
0.0
  0
VERTEX
  8
0
 10
19.142449351999623
 20
-9.804066931458022
 30
0.0
  0
VERTEX
  8
0
 10
17.85905054414604
 20
-8.52066812360444
 30
0.0
  0
VERTEX
  8
0
 10
18.332812087541026
 20
-8.046906580209452
 30
0.0
  0
VERTEX
  8
0
 10
22.213864079735373
 20
-11.927958572403794
 30
0.0
  0
SEQEND
  0
POLYLINE
  8
0
 66
1
 10
0.0
 20
0.0
 30
0.0
 70
8
  0
VERTEX
  8
0
 10
41.06436662964894
 20
-7.581180341146126
 30
0.0
  0
VERTEX
  8
0
 10
41.53812817304392
 20
-8.054941884541114
 30
0.0
  0
VERTEX
  8
0
 10
40.254729365190336
 20
-9.338340692394697
 30
0.0
  0
VERTEX
  8
0
 10
41.42852662196
 20
-10.512137949164366
 30
0.0
  0
VERTEX
  8
0
 10
42.71192542981359
 20
-9.228739141310783
 30
0.0
  0
VERTEX
  8
0
 10
43.185686973208576
 20
-9.70250068470577
 30
0.0
  0
VERTEX
  8
0
 10
39.30463498101423
 20
-13.583552676900116
 30
0.0
  0
VERTEX
  8
0
 10
38.830873437619246
 20
-13.109791133505128
 30
0.0
  0
VERTEX
  8
0
 10
40.11427224547283
 20
-11.826392325651545
 30
0.0
  0
VERTEX
  8
0
 10
38.940474988703166
 20
-10.652595068881876
 30
0.0
  0
VERTEX
  8
0
 10
37.65707618084958
 20
-11.93599387673546
 30
0.0
  0
VERTEX
  8
0
 10
37.18331463745459
 20
-11.462232333340472
 30
0.0
  0
VERTEX
  8
0
 10
41.06436662964894
 20
-7.581180341146126
 30
0.0
  0
SEQEND
  0
POLYLINE
  8
0
 66
1
 10
0.0
 20
0.0
 30
0.0
 70
8
  0
VERTEX
  8
0
 10
61.86290495625329
 20
-0.9293181818181829
 30
0.0
  0
VERTEX
  8
0
 10
72.53900161066316
 20
-0.9293181818181829
 30
0.0
  0
VERTEX
  8
0
 10
72.53900161066316
 20
-2.744318181818183
 30
0.0
  0
VERTEX
  8
0
 10
73.20900161066317
 20
-2.744318181818183
 30
0.0
  0
VERTEX
  8
0
 10
73.20900161066317
 20
2.7443181818181803
 30
0.0
  0
VERTEX
  8
0
 10
72.53900161066316
 20
2.7443181818181803
 30
0.0
  0
VERTEX
  8
0
 10
72.53900161066316
 20
0.9293181818181804
 30
0.0
  0
VERTEX
  8
0
 10
61.86290495625329
 20
0.929318181818179
 30
0.0
  0
SEQEND
  0
LINE
  8
0
 10
61.701382587338315
 20
1.3192676754793466
 30
0.0
 11
61.86290495625329
 21
0.929318181818179
 31
0.0
  0
POLYLINE
  8
0
 66
1
 10
0.0
 20
0.0
 30
0.0
 70
8
  0
VERTEX
  8
0
 10
61.701382587338315
 20
1.3192676754793466
 30
0.0
  0
VERTEX
  8
0
 10
65.0035712554795
 20
4.621456343620523
 30
0.0
  0
VERTEX
  8
0
 10
66.28697006333309
 20
3.3380575357669398
 30
0.0
  0
VERTEX
  8
0
 10
66.76073160672807
 20
3.8118190791619266
 30
0.0
  0
VERTEX
  8
0
 10
62.87967961453373
 20
7.692871071356272
 30
0.0
  0
VERTEX
  8
0
 10
62.40591807113874
 20
7.219109527961286
 30
0.0
  0
VERTEX
  8
0
 10
63.68931687899233
 20
5.935710720107702
 30
0.0
  0
VERTEX
  8
0
 10
60.38712821085115
 20
2.6335220519665246
 30
0.0
  0
SEQEND
  0
LINE
  8
0
 10
58.40722922352881
 20
2.6335220519665254
 30
0.0
 11
60.38712821085115
 21
2.6335220519665246
 31
0.0
  0
POLYLINE
  8
0
 66
1
 10
0.0
 20
0.0
 30
0.0
 70
8
  0
VERTEX
  8
0
 10
58.40722922352881
 20
2.6335220519665254
 30
0.0
  0
VERTEX
  8
0
 10
55.10504055538763
 20
5.935710720107703
 30
0.0
  0
VERTEX
  8
0
 10
56.38843936324122
 20
7.219109527961287
 30
0.0
  0
VERTEX
  8
0
 10
55.91467781984623
 20
7.692871071356274
 30
0.0
  0
VERTEX
  8
0
 10
52.03362582765189
 20
3.8118190791619284
 30
0.0
  0
VERTEX
  8
0
 10
52.507387371046875
 20
3.3380575357669415
 30
0.0
  0
VERTEX
  8
0
 10
53.79078617890046
 20
4.621456343620525
 30
0.0
  0
VERTEX
  8
0
 10
57.09297484704164
 20
1.3192676754793484
 30
0.0
  0
SEQEND
  0
LINE
  8
0
 10
56.931452478126644
 20
0.9293181818181805
 30
0.0
 11
57.09297484704164
 21
1.3192676754793484
 31
0.0
  0
POLYLINE
  8
0
 66
1
 10
0.0
 20
0.0
 30
0.0
 70
8
  0
VERTEX
  8
0
 10
56.931452478126644
 20
0.9293181818181805
 30
0.0
  0
VERTEX
  8
0
 10
46.25535582371677
 20
0.9293181818181818
 30
0.0
  0
VERTEX
  8
0
 10
46.25535582371677
 20
2.7443181818181817
 30
0.0
  0
VERTEX
  8
0
 10
45.58535582371677
 20
2.7443181818181817
 30
0.0
  0
VERTEX
  8
0
 10
45.58535582371677
 20
-2.7443181818181817
 30
0.0
  0
VERTEX
  8
0
 10
46.25535582371677
 20
-2.7443181818181817
 30
0.0
  0
VERTEX
  8
0
 10
46.25535582371677
 20
-0.9293181818181817
 30
0.0
  0
VERTEX
  8
0
 10
56.931452478126644
 20
-0.9293181818181817
 30
0.0
  0
SEQEND
  0
LINE
  8
0
 10
57.09297484704162
 20
-1.3192676754793493
 30
0.0
 11
56.931452478126644
 21
-0.9293181818181817
 31
0.0
  0
POLYLINE
  8
0
 66
1
 10
0.0
 20
0.0
 30
0.0
 70
8
  0
VERTEX
  8
0
 10
57.09297484704162
 20
-1.3192676754793493
 30
0.0
  0
VERTEX
  8
0
 10
53.79078617890044
 20
-4.621456343620526
 30
0.0
  0
VERTEX
  8
0
 10
52.50738737104685
 20
-3.338057535766942
 30
0.0
  0
VERTEX
  8
0
 10
52.03362582765187
 20
-3.811819079161929
 30
0.0
  0
VERTEX
  8
0
 10
55.91467781984621
 20
-7.692871071356276
 30
0.0
  0
VERTEX
  8
0
 10
56.3884393632412
 20
-7.219109527961289
 30
0.0
  0
VERTEX
  8
0
 10
55.10504055538761
 20
-5.935710720107705
 30
0.0
  0
VERTEX
  8
0
 10
58.40722922352879
 20
-2.6335220519665286
 30
0.0
  0
SEQEND
  0
LINE
  8
0
 10
60.387128210851124
 20
-2.6335220519665277
 30
0.0
 11
58.40722922352879
 21
-2.6335220519665286
 31
0.0
  0
POLYLINE
  8
0
 66
1
 10
0.0
 20
0.0
 30
0.0
 70
8
  0
VERTEX
  8
0
 10
60.387128210851124
 20
-2.6335220519665277
 30
0.0
  0
VERTEX
  8
0
 10
63.6893168789923
 20
-5.935710720107704
 30
0.0
  0
VERTEX
  8
0
 10
62.405918071138714
 20
-7.2191095279612885
 30
0.0
  0
VERTEX
  8
0
 10
62.8796796145337
 20
-7.692871071356275
 30
0.0
  0
VERTEX
  8
0
 10
66.76073160672804
 20
-3.8118190791619293
 30
0.0
  0
VERTEX
  8
0
 10
66.28697006333306
 20
-3.3380575357669424
 30
0.0
  0
VERTEX
  8
0
 10
65.00357125547947
 20
-4.621456343620526
 30
0.0
  0
VERTEX
  8
0
 10
61.701382587338294
 20
-1.3192676754793493
 30
0.0
  0
SEQEND
  0
LINE
  8
0
 10
61.701382587338294
 20
-1.3192676754793493
 30
0.0
 11
61.86290495625329
 21
-0.9293181818181829
 31
0.0
  0
POLYLINE
  8
0
 66
1
 10
0.0
 20
0.0
 30
0.0
 70
8
  0
VERTEX
  8
0
 10
72.86290495625329
 20
2.7443181818181803
 30
0.0
  0
VERTEX
  8
0
 10
73.53290495625329
 20
2.7443181818181803
 30
0.0
  0
VERTEX
  8
0
 10
73.53290495625329
 20
0.9293181818181804
 30
0.0
  0
VERTEX
  8
0
 10
75.19290495625329
 20
0.9293181818181804
 30
0.0
  0
VERTEX
  8
0
 10
75.19290495625329
 20
2.7443181818181803
 30
0.0
  0
VERTEX
  8
0
 10
75.86290495625329
 20
2.7443181818181803
 30
0.0
  0
VERTEX
  8
0
 10
75.86290495625329
 20
-2.744318181818183
 30
0.0
  0
VERTEX
  8
0
 10
75.19290495625329
 20
-2.744318181818183
 30
0.0
  0
VERTEX
  8
0
 10
75.19290495625329
 20
-0.929318181818183
 30
0.0
  0
VERTEX
  8
0
 10
73.53290495625329
 20
-0.9293181818181828
 30
0.0
  0
VERTEX
  8
0
 10
73.53290495625329
 20
-2.7443181818181825
 30
0.0
  0
VERTEX
  8
0
 10
72.86290495625329
 20
-2.7443181818181825
 30
0.0
  0
VERTEX
  8
0
 10
72.86290495625329
 20
2.7443181818181803
 30
0.0
  0
SEQEND
  0
POLYLINE
  8
0
 66
1
 10
0.0
 20
0.0
 30
0.0
 70
8
  0
VERTEX
  8
0
 10
66.64904087651792
 20
11.92795857240379
 30
0.0
  0
VERTEX
  8
0
 10
67.1228024199129
 20
12.401720115798778
 30
0.0
  0
VERTEX
  8
0
 10
68.40620122776649
 20
11.118321307945195
 30
0.0
  0
VERTEX
  8
0
 10
69.57999848453616
 20
12.292118564714864
 30
0.0
  0
VERTEX
  8
0
 10
68.29659967668258
 20
13.575517372568447
 30
0.0
  0
VERTEX
  8
0
 10
68.77036122007756
 20
14.049278915963434
 30
0.0
  0
VERTEX
  8
0
 10
72.6514132122719
 20
10.168226923769089
 30
0.0
  0
VERTEX
  8
0
 10
72.17765166887692
 20
9.694465380374101
 30
0.0
  0
VERTEX
  8
0
 10
70.89425286102333
 20
10.977864188227684
 30
0.0
  0
VERTEX
  8
0
 10
69.72045560425366
 20
9.804066931458015
 30
0.0
  0
VERTEX
  8
0
 10
71.00385441210724
 20
8.520668123604432
 30
0.0
  0
VERTEX
  8
0
 10
70.53009286871226
 20
8.046906580209445
 30
0.0
  0
VERTEX
  8
0
 10
66.64904087651792
 20
11.92795857240379
 30
0.0
  0
SEQEND
  0
POLYLINE
  8
0
 66
1
 10
0.0
 20
0.0
 30
0.0
 70
8
  0
VERTEX
  8
0
 10
47.79853832660436
 20
7.5811803411461245
 30
0.0
  0
VERTEX
  8
0
 10
47.32477678320937
 20
8.054941884541112
 30
0.0
  0
VERTEX
  8
0
 10
48.60817559106296
 20
9.338340692394695
 30
0.0
  0
VERTEX
  8
0
 10
47.43437833429329
 20
10.512137949164364
 30
0.0
  0
VERTEX
  8
0
 10
46.150979526439706
 20
9.22873914131078
 30
0.0
  0
VERTEX
  8
0
 10
45.67721798304472
 20
9.702500684705768
 30
0.0
  0
VERTEX
  8
0
 10
49.558269975239064
 20
13.583552676900114
 30
0.0
  0
VERTEX
  8
0
 10
50.03203151863405
 20
13.109791133505126
 30
0.0
  0
VERTEX
  8
0
 10
48.74863271078046
 20
11.826392325651543
 30
0.0
  0
VERTEX
  8
0
 10
49.92242996755013
 20
10.652595068881874
 30
0.0
  0
VERTEX
  8
0
 10
51.20582877540372
 20
11.935993876735457
 30
0.0
  0
VERTEX
  8
0
 10
51.6795903187987
 20
11.46223233334047
 30
0.0
  0
VERTEX
  8
0
 10
47.79853832660436
 20
7.5811803411461245
 30
0.0
  0
SEQEND
  0
POLYLINE
  8
0
 66
1
 10
0.0
 20
0.0
 30
0.0
 70
8
  0
VERTEX
  8
0
 10
52.145316557862024
 20
-11.927958572403794
 30
0.0
  0
VERTEX
  8
0
 10
51.67155501446704
 20
-12.401720115798781
 30
0.0
  0
VERTEX
  8
0
 10
50.38815620661345
 20
-11.118321307945198
 30
0.0
  0
VERTEX
  8
0
 10
49.214358949843785
 20
-12.292118564714867
 30
0.0
  0
VERTEX
  8
0
 10
50.49775775769737
 20
-13.575517372568452
 30
0.0
  0
VERTEX
  8
0
 10
50.023996214302386
 20
-14.04927891596344
 30
0.0
  0
VERTEX
  8
0
 10
46.14294422210804
 20
-10.168226923769094
 30
0.0
  0
VERTEX
  8
0
 10
46.61670576550303
 20
-9.694465380374107
 30
0.0
  0
VERTEX
  8
0
 10
47.900104573356614
 20
-10.977864188227691
 30
0.0
  0
VERTEX
  8
0
 10
49.07390183012628
 20
-9.804066931458022
 30
0.0
  0
VERTEX
  8
0
 10
47.790503022272695
 20
-8.52066812360444
 30
0.0
  0
VERTEX
  8
0
 10
48.26426456566768
 20
-8.046906580209452
 30
0.0
  0
VERTEX
  8
0
 10
52.145316557862024
 20
-11.927958572403794
 30
0.0
  0
SEQEND
  0
POLYLINE
  8
0
 66
1
 10
0.0
 20
0.0
 30
0.0
 70
8
  0
VERTEX
  8
0
 10
70.99581910777557
 20
-7.581180341146128
 30
0.0
  0
VERTEX
  8
0
 10
71.46958065117056
 20
-8.054941884541115
 30
0.0
  0
VERTEX
  8
0
 10
70.18618184331697
 20
-9.338340692394699
 30
0.0
  0
VERTEX
  8
0
 10
71.35997910008665
 20
-10.512137949164368
 30
0.0
  0
VERTEX
  8
0
 10
72.64337790794023
 20
-9.228739141310784
 30
0.0
  0
VERTEX
  8
0
 10
73.11713945133522
 20
-9.702500684705772
 30
0.0
  0
VERTEX
  8
0
 10
69.23608745914088
 20
-13.583552676900117
 30
0.0
  0
VERTEX
  8
0
 10
68.76232591574589
 20
-13.10979113350513
 30
0.0
  0
VERTEX
  8
0
 10
70.04572472359948
 20
-11.826392325651547
 30
0.0
  0
VERTEX
  8
0
 10
68.8719274668298
 20
-10.652595068881878
 30
0.0
  0
VERTEX
  8
0
 10
67.58852865897622
 20
-11.935993876735461
 30
0.0
  0
VERTEX
  8
0
 10
67.11476711558123
 20
-11.462232333340474
 30
0.0
  0
VERTEX
  8
0
 10
70.99581910777557
 20
-7.581180341146128
 30
0.0
  0
SEQEND
  0
POLYLINE
  8
0
 66
1
 10
0.0
 20
0.0
 30
0.0
 70
8
  0
VERTEX
  8
0
 10
-18.971822893473202
 20
-22.559777438927743
 30
0.0
  0
VERTEX
  8
0
 10
-8.295726239063324
 20
-22.559777438927743
 30
0.0
  0
VERTEX
  8
0
 10
-8.295726239063324
 20
-24.374777438927744
 30
0.0
  0
VERTEX
  8
0
 10
-7.625726239063324
 20
-24.374777438927744
 30
0.0
  0
VERTEX
  8
0
 10
-7.625726239063324
 20
-18.88614107529138
 30
0.0
  0
VERTEX
  8
0
 10
-8.295726239063324
 20
-18.88614107529138
 30
0.0
  0
VERTEX
  8
0
 10
-8.295726239063324
 20
-20.701141075291382
 30
0.0
  0
VERTEX
  8
0
 10
-18.971822893473202
 20
-20.701141075291382
 30
0.0
  0
SEQEND
  0
LINE
  8
0
 10
-19.13334526238818
 20
-20.31119158163021
 30
0.0
 11
-18.971822893473202
 21
-20.701141075291382
 31
0.0
  0
POLYLINE
  8
0
 66
1
 10
0.0
 20
0.0
 30
0.0
 70
8
  0
VERTEX
  8
0
 10
-19.13334526238818
 20
-20.31119158163021
 30
0.0
  0
VERTEX
  8
0
 10
-15.831156594247002
 20
-17.009002913489034
 30
0.0
  0
VERTEX
  8
0
 10
-14.547757786393419
 20
-18.292401721342618
 30
0.0
  0
VERTEX
  8
0
 10
-14.073996242998431
 20
-17.818640177947632
 30
0.0
  0
VERTEX
  8
0
 10
-17.955048235192777
 20
-13.937588185753286
 30
0.0
  0
VERTEX
  8
0
 10
-18.428809778587762
 20
-14.411349729148274
 30
0.0
  0
VERTEX
  8
0
 10
-17.14541097073418
 20
-15.694748537001857
 30
0.0
  0
VERTEX
  8
0
 10
-20.447599638875356
 20
-18.996937205143034
 30
0.0
  0
SEQEND
  0
LINE
  8
0
 10
-22.427498626197693
 20
-18.996937205143034
 30
0.0
 11
-20.447599638875356
 21
-18.996937205143034
 31
0.0
  0
POLYLINE
  8
0
 66
1
 10
0.0
 20
0.0
 30
0.0
 70
8
  0
VERTEX
  8
0
 10
-22.427498626197693
 20
-18.996937205143034
 30
0.0
  0
VERTEX
  8
0
 10
-25.72968729433887
 20
-15.694748537001857
 30
0.0
  0
VERTEX
  8
0
 10
-24.446288486485287
 20
-14.411349729148274
 30
0.0
  0
VERTEX
  8
0
 10
-24.920050029880272
 20
-13.937588185753286
 30
0.0
  0
VERTEX
  8
0
 10
-28.80110202207462
 20
-17.818640177947632
 30
0.0
  0
VERTEX
  8
0
 10
-28.327340478679634
 20
-18.292401721342618
 30
0.0
  0
VERTEX
  8
0
 10
-27.04394167082605
 20
-17.009002913489034
 30
0.0
  0
VERTEX
  8
0
 10
-23.741753002684874
 20
-20.31119158163021
 30
0.0
  0
SEQEND
  0
LINE
  8
0
 10
-23.903275371599847
 20
-20.70114107529138
 30
0.0
 11
-23.741753002684874
 21
-20.31119158163021
 31
0.0
  0
POLYLINE
  8
0
 66
1
 10
0.0
 20
0.0
 30
0.0
 70
8
  0
VERTEX
  8
0
 10
-23.903275371599847
 20
-20.70114107529138
 30
0.0
  0
VERTEX
  8
0
 10
-34.57937202600972
 20
-20.70114107529138
 30
0.0
  0
VERTEX
  8
0
 10
-34.57937202600972
 20
-18.886141075291377
 30
0.0
  0
VERTEX
  8
0
 10
-35.24937202600972
 20
-18.886141075291377
 30
0.0
  0
VERTEX
  8
0
 10
-35.24937202600972
 20
-24.37477743892774
 30
0.0
  0
VERTEX
  8
0
 10
-34.57937202600972
 20
-24.37477743892774
 30
0.0
  0
VERTEX
  8
0
 10
-34.57937202600972
 20
-22.55977743892774
 30
0.0
  0
VERTEX
  8
0
 10
-23.903275371599843
 20
-22.55977743892774
 30
0.0
  0
SEQEND
  0
LINE
  8
0
 10
-23.74175300268487
 20
-22.94972693258891
 30
0.0
 11
-23.903275371599843
 21
-22.55977743892774
 31
0.0
  0
POLYLINE
  8
0
 66
1
 10
0.0
 20
0.0
 30
0.0
 70
8
  0
VERTEX
  8
0
 10
-23.74175300268487
 20
-22.94972693258891
 30
0.0
  0
VERTEX
  8
0
 10
-27.043941670826047
 20
-26.251915600730086
 30
0.0
  0
VERTEX
  8
0
 10
-28.32734047867963
 20
-24.968516792876503
 30
0.0
  0
VERTEX
  8
0
 10
-28.801102022074616
 20
-25.44227833627149
 30
0.0
  0
VERTEX
  8
0
 10
-24.920050029880272
 20
-29.323330328465836
 30
0.0
  0
VERTEX
  8
0
 10
-24.446288486485287
 20
-28.84956878507085
 30
0.0
  0
VERTEX
  8
0
 10
-25.72968729433887
 20
-27.566169977217267
 30
0.0
  0
VERTEX
  8
0
 10
-22.427498626197693
 20
-24.26398130907609
 30
0.0
  0
SEQEND
  0
LINE
  8
0
 10
-20.447599638875356
 20
-24.263981309076087
 30
0.0
 11
-22.427498626197693
 21
-24.26398130907609
 31
0.0
  0
POLYLINE
  8
0
 66
1
 10
0.0
 20
0.0
 30
0.0
 70
8
  0
VERTEX
  8
0
 10
-20.447599638875356
 20
-24.263981309076087
 30
0.0
  0
VERTEX
  8
0
 10
-17.14541097073418
 20
-27.566169977217264
 30
0.0
  0
VERTEX
  8
0
 10
-18.428809778587762
 20
-28.849568785070847
 30
0.0
  0
VERTEX
  8
0
 10
-17.955048235192777
 20
-29.323330328465833
 30
0.0
  0
VERTEX
  8
0
 10
-14.073996242998431
 20
-25.442278336271485
 30
0.0
  0
VERTEX
  8
0
 10
-14.547757786393419
 20
-24.9685167928765
 30
0.0
  0
VERTEX
  8
0
 10
-15.831156594247002
 20
-26.251915600730083
 30
0.0
  0
VERTEX
  8
0
 10
-19.13334526238818
 20
-22.949726932588906
 30
0.0
  0
SEQEND
  0
LINE
  8
0
 10
-19.13334526238818
 20
-22.949726932588906
 30
0.0
 11
-18.971822893473202
 21
-22.559777438927743
 31
0.0
  0
POLYLINE
  8
0
 66
1
 10
0.0
 20
0.0
 30
0.0
 70
8
  0
VERTEX
  8
0
 10
-7.9718228934732025
 20
-18.88614107529138
 30
0.0
  0
VERTEX
  8
0
 10
-7.301822893473203
 20
-18.88614107529138
 30
0.0
  0
VERTEX
  8
0
 10
-7.301822893473203
 20
-20.701141075291382
 30
0.0
  0
VERTEX
  8
0
 10
-5.641822893473202
 20
-20.701141075291382
 30
0.0
  0
VERTEX
  8
0
 10
-5.641822893473202
 20
-18.88614107529138
 30
0.0
  0
VERTEX
  8
0
 10
-4.9718228934732025
 20
-18.88614107529138
 30
0.0
  0
VERTEX
  8
0
 10
-4.9718228934732025
 20
-24.374777438927744
 30
0.0
  0
VERTEX
  8
0
 10
-5.641822893473202
 20
-24.374777438927744
 30
0.0
  0
VERTEX
  8
0
 10
-5.641822893473202
 20
-22.559777438927743
 30
0.0
  0
VERTEX
  8
0
 10
-7.301822893473203
 20
-22.559777438927743
 30
0.0
  0
VERTEX
  8
0
 10
-7.301822893473203
 20
-24.374777438927744
 30
0.0
  0
VERTEX
  8
0
 10
-7.9718228934732025
 20
-24.374777438927744
 30
0.0
  0
VERTEX
  8
0
 10
-7.9718228934732025
 20
-18.88614107529138
 30
0.0
  0
SEQEND
  0
POLYLINE
  8
0
 66
1
 10
0.0
 20
0.0
 30
0.0
 70
8
  0
VERTEX
  8
0
 10
-33.03618952312214
 20
-14.049278915963432
 30
0.0
  0
VERTEX
  8
0
 10
-33.509951066517125
 20
-13.575517372568445
 30
0.0
  0
VERTEX
  8
0
 10
-32.22655225866354
 20
-12.292118564714862
 30
0.0
  0
VERTEX
  8
0
 10
-33.400349515433206
 20
-11.118321307945193
 30
0.0
  0
VERTEX
  8
0
 10
-34.68374832328679
 20
-12.401720115798776
 30
0.0
  0
VERTEX
  8
0
 10
-35.15750986668178
 20
-11.927958572403789
 30
0.0
  0
VERTEX
  8
0
 10
-31.27645787448743
 20
-8.046906580209443
 30
0.0
  0
VERTEX
  8
0
 10
-30.802696331092445
 20
-8.52066812360443
 30
0.0
  0
VERTEX
  8
0
 10
-32.08609513894603
 20
-9.804066931458014
 30
0.0
  0
VERTEX
  8
0
 10
-30.91229788217636
 20
-10.977864188227683
 30
0.0
  0
VERTEX
  8
0
 10
-29.628899074322778
 20
-9.6944653803741
 30
0.0
  0
VERTEX
  8
0
 10
-29.155137530927792
 20
-10.168226923769087
 30
0.0
  0
VERTEX
  8
0
 10
-33.03618952312214
 20
-14.049278915963432
 30
0.0
  0
SEQEND
  0
POLYLINE
  8
0
 66
1
 10
0.0
 20
0.0
 30
0.0
 70
8
  0
VERTEX
  8
0
 10
-34.90327537159985
 20
-24.70409562074592
 30
0.0
  0
VERTEX
  8
0
 10
-35.57327537159985
 20
-24.70409562074592
 30
0.0
  0
VERTEX
  8
0
 10
-35.57327537159985
 20
-22.88909562074592
 30
0.0
  0
VERTEX
  8
0
 10
-37.233275371599845
 20
-22.88909562074592
 30
0.0
  0
VERTEX
  8
0
 10
-37.233275371599845
 20
-24.70409562074592
 30
0.0
  0
VERTEX
  8
0
 10
-37.90327537159985
 20
-24.70409562074592
 30
0.0
  0
VERTEX
  8
0
 10
-37.90327537159985
 20
-19.215459257109558
 30
0.0
  0
VERTEX
  8
0
 10
-37.233275371599845
 20
-19.215459257109558
 30
0.0
  0
VERTEX
  8
0
 10
-37.233275371599845
 20
-21.03045925710956
 30
0.0
  0
VERTEX
  8
0
 10
-35.57327537159985
 20
-21.03045925710956
 30
0.0
  0
VERTEX
  8
0
 10
-35.57327537159985
 20
-19.215459257109558
 30
0.0
  0
VERTEX
  8
0
 10
-34.90327537159985
 20
-19.215459257109558
 30
0.0
  0
VERTEX
  8
0
 10
-34.90327537159985
 20
-24.70409562074592
 30
0.0
  0
SEQEND
  0
POLYLINE
  8
0
 66
1
 10
0.0
 20
0.0
 30
0.0
 70
8
  0
VERTEX
  8
0
 10
-28.689411291864474
 20
-33.55841782951335
 30
0.0
  0
VERTEX
  8
0
 10
-29.16317283525946
 20
-34.03217937290834
 30
0.0
  0
VERTEX
  8
0
 10
-30.446571643113042
 20
-32.74878056505475
 30
0.0
  0
VERTEX
  8
0
 10
-31.620368899882713
 20
-33.92257782182442
 30
0.0
  0
VERTEX
  8
0
 10
-30.33697009202913
 20
-35.205976629678005
 30
0.0
  0
VERTEX
  8
0
 10
-30.810731635424116
 20
-35.67973817307299
 30
0.0
  0
VERTEX
  8
0
 10
-34.69178362761846
 20
-31.798686180878644
 30
0.0
  0
VERTEX
  8
0
 10
-34.21802208422348
 20
-31.324924637483658
 30
0.0
  0
VERTEX
  8
0
 10
-32.93462327636989
 20
-32.60832344533724
 30
0.0
  0
VERTEX
  8
0
 10
-31.76082601960022
 20
-31.434526188567574
 30
0.0
  0
VERTEX
  8
0
 10
-33.0442248274538
 20
-30.15112738071399
 30
0.0
  0
VERTEX
  8
0
 10
-32.57046328405882
 20
-29.677365837319005
 30
0.0
  0
VERTEX
  8
0
 10
-28.689411291864474
 20
-33.55841782951335
 30
0.0
  0
SEQEND
  0
POLYLINE
  8
0
 66
1
 10
0.0
 20
0.0
 30
0.0
 70
8
  0
VERTEX
  8
0
 10
-9.838908741950911
 20
-29.211639598255687
 30
0.0
  0
VERTEX
  8
0
 10
-9.365147198555924
 20
-29.685401141650672
 30
0.0
  0
VERTEX
  8
0
 10
-10.648546006409507
 20
-30.968799949504255
 30
0.0
  0
VERTEX
  8
0
 10
-9.474748749639838
 20
-32.142597206273926
 30
0.0
  0
VERTEX
  8
0
 10
-8.191349941786255
 20
-30.859198398420343
 30
0.0
  0
VERTEX
  8
0
 10
-7.717588398391268
 20
-31.33295994181533
 30
0.0
  0
VERTEX
  8
0
 10
-11.598640390585613
 20
-35.214011934009676
 30
0.0
  0
VERTEX
  8
0
 10
-12.0724019339806
 20
-34.74025039061469
 30
0.0
  0
VERTEX
  8
0
 10
-10.789003126127017
 20
-33.456851582761104
 30
0.0
  0
VERTEX
  8
0
 10
-11.962800382896686
 20
-32.283054325991436
 30
0.0
  0
VERTEX
  8
0
 10
-13.24619919075027
 20
-33.56645313384502
 30
0.0
  0
VERTEX
  8
0
 10
-13.719960734145257
 20
-33.09269159045004
 30
0.0
  0
VERTEX
  8
0
 10
-9.838908741950911
 20
-29.211639598255687
 30
0.0
  0
SEQEND
  0
POLYLINE
  8
0
 66
1
 10
0.0
 20
0.0
 30
0.0
 70
8
  0
VERTEX
  8
0
 10
10.95962958465344
 20
-22.559777438927743
 30
0.0
  0
VERTEX
  8
0
 10
21.635726239063317
 20
-22.559777438927743
 30
0.0
  0
VERTEX
  8
0
 10
21.635726239063317
 20
-24.374777438927744
 30
0.0
  0
VERTEX
  8
0
 10
22.30572623906332
 20
-24.374777438927744
 30
0.0
  0
VERTEX
  8
0
 10
22.30572623906332
 20
-18.88614107529138
 30
0.0
  0
VERTEX
  8
0
 10
21.635726239063317
 20
-18.88614107529138
 30
0.0
  0
VERTEX
  8
0
 10
21.635726239063317
 20
-20.701141075291382
 30
0.0
  0
VERTEX
  8
0
 10
10.959629584653438
 20
-20.701141075291382
 30
0.0
  0
SEQEND
  0
LINE
  8
0
 10
10.798107215738463
 20
-20.31119158163021
 30
0.0
 11
10.959629584653438
 21
-20.701141075291382
 31
0.0
  0
POLYLINE
  8
0
 66
1
 10
0.0
 20
0.0
 30
0.0
 70
8
  0
VERTEX
  8
0
 10
10.798107215738463
 20
-20.31119158163021
 30
0.0
  0
VERTEX
  8
0
 10
14.10029588387964
 20
-17.009002913489034
 30
0.0
  0
VERTEX
  8
0
 10
15.383694691733224
 20
-18.292401721342618
 30
0.0
  0
VERTEX
  8
0
 10
15.857456235128211
 20
-17.818640177947632
 30
0.0
  0
VERTEX
  8
0
 10
11.976404242933866
 20
-13.937588185753286
 30
0.0
  0
VERTEX
  8
0
 10
11.502642699538878
 20
-14.411349729148274
 30
0.0
  0
VERTEX
  8
0
 10
12.786041507392461
 20
-15.694748537001857
 30
0.0
  0
VERTEX
  8
0
 10
9.483852839251284
 20
-18.996937205143034
 30
0.0
  0
SEQEND
  0
LINE
  8
0
 10
7.5039538519289515
 20
-18.996937205143034
 30
0.0
 11
9.483852839251284
 21
-18.996937205143034
 31
0.0
  0
POLYLINE
  8
0
 66
1
 10
0.0
 20
0.0
 30
0.0
 70
8
  0
VERTEX
  8
0
 10
7.5039538519289515
 20
-18.996937205143034
 30
0.0
  0
VERTEX
  8
0
 10
4.201765183787774
 20
-15.694748537001857
 30
0.0
  0
VERTEX
  8
0
 10
5.485163991641358
 20
-14.411349729148274
 30
0.0
  0
VERTEX
  8
0
 10
5.011402448246372
 20
-13.937588185753286
 30
0.0
  0
VERTEX
  8
0
 10
1.130350456052025
 20
-17.818640177947632
 30
0.0
  0
VERTEX
  8
0
 10
1.6041119994470119
 20
-18.292401721342618
 30
0.0
  0
VERTEX
  8
0
 10
2.887510807300596
 20
-17.009002913489034
 30
0.0
  0
VERTEX
  8
0
 10
6.189699475441773
 20
-20.31119158163021
 30
0.0
  0
SEQEND
  0
LINE
  8
0
 10
6.0281771065267975
 20
-20.70114107529138
 30
0.0
 11
6.189699475441773
 21
-20.31119158163021
 31
0.0
  0
POLYLINE
  8
0
 66
1
 10
0.0
 20
0.0
 30
0.0
 70
8
  0
VERTEX
  8
0
 10
6.0281771065267975
 20
-20.70114107529138
 30
0.0
  0
VERTEX
  8
0
 10
-4.647919547883081
 20
-20.70114107529138
 30
0.0
  0
VERTEX
  8
0
 10
-4.647919547883081
 20
-18.886141075291377
 30
0.0
  0
VERTEX
  8
0
 10
-5.317919547883081
 20
-18.886141075291377
 30
0.0
  0
VERTEX
  8
0
 10
-5.317919547883082
 20
-24.37477743892774
 30
0.0
  0
VERTEX
  8
0
 10
-4.647919547883082
 20
-24.37477743892774
 30
0.0
  0
VERTEX
  8
0
 10
-4.647919547883082
 20
-22.55977743892774
 30
0.0
  0
VERTEX
  8
0
 10
6.028177106526797
 20
-22.55977743892774
 30
0.0
  0
SEQEND
  0
LINE
  8
0
 10
6.189699475441774
 20
-22.94972693258891
 30
0.0
 11
6.028177106526797
 21
-22.55977743892774
 31
0.0
  0
POLYLINE
  8
0
 66
1
 10
0.0
 20
0.0
 30
0.0
 70
8
  0
VERTEX
  8
0
 10
6.189699475441774
 20
-22.94972693258891
 30
0.0
  0
VERTEX
  8
0
 10
2.8875108073005964
 20
-26.251915600730086
 30
0.0
  0
VERTEX
  8
0
 10
1.6041119994470128
 20
-24.968516792876503
 30
0.0
  0
VERTEX
  8
0
 10
1.1303504560520259
 20
-25.44227833627149
 30
0.0
  0
VERTEX
  8
0
 10
5.01140244824637
 20
-29.323330328465836
 30
0.0
  0
VERTEX
  8
0
 10
5.4851639916413575
 20
-28.84956878507085
 30
0.0
  0
VERTEX
  8
0
 10
4.201765183787774
 20
-27.566169977217267
 30
0.0
  0
VERTEX
  8
0
 10
7.5039538519289515
 20
-24.26398130907609
 30
0.0
  0
SEQEND
  0
LINE
  8
0
 10
9.483852839251286
 20
-24.263981309076087
 30
0.0
 11
7.5039538519289515
 21
-24.26398130907609
 31
0.0
  0
POLYLINE
  8
0
 66
1
 10
0.0
 20
0.0
 30
0.0
 70
8
  0
VERTEX
  8
0
 10
9.483852839251286
 20
-24.263981309076087
 30
0.0
  0
VERTEX
  8
0
 10
12.786041507392463
 20
-27.566169977217264
 30
0.0
  0
VERTEX
  8
0
 10
11.50264269953888
 20
-28.849568785070847
 30
0.0
  0
VERTEX
  8
0
 10
11.976404242933867
 20
-29.323330328465833
 30
0.0
  0
VERTEX
  8
0
 10
15.857456235128213
 20
-25.442278336271485
 30
0.0
  0
VERTEX
  8
0
 10
15.383694691733226
 20
-24.9685167928765
 30
0.0
  0
VERTEX
  8
0
 10
14.100295883879642
 20
-26.251915600730083
 30
0.0
  0
VERTEX
  8
0
 10
10.798107215738465
 20
-22.949726932588906
 30
0.0
  0
SEQEND
  0
LINE
  8
0
 10
10.798107215738465
 20
-22.949726932588906
 30
0.0
 11
10.95962958465344
 21
-22.559777438927743
 31
0.0
  0
POLYLINE
  8
0
 66
1
 10
0.0
 20
0.0
 30
0.0
 70
8
  0
VERTEX
  8
0
 10
21.95962958465344
 20
-18.88614107529138
 30
0.0
  0
VERTEX
  8
0
 10
22.629629584653443
 20
-18.88614107529138
 30
0.0
  0
VERTEX
  8
0
 10
22.629629584653443
 20
-20.701141075291382
 30
0.0
  0
VERTEX
  8
0
 10
24.289629584653444
 20
-20.701141075291382
 30
0.0
  0
VERTEX
  8
0
 10
24.289629584653444
 20
-18.88614107529138
 30
0.0
  0
VERTEX
  8
0
 10
24.959629584653445
 20
-18.88614107529138
 30
0.0
  0
VERTEX
  8
0
 10
24.959629584653445
 20
-24.374777438927744
 30
0.0
  0
VERTEX
  8
0
 10
24.289629584653444
 20
-24.374777438927744
 30
0.0
  0
VERTEX
  8
0
 10
24.289629584653444
 20
-22.559777438927743
 30
0.0
  0
VERTEX
  8
0
 10
22.629629584653443
 20
-22.559777438927743
 30
0.0
  0
VERTEX
  8
0
 10
22.629629584653443
 20
-24.374777438927744
 30
0.0
  0
VERTEX
  8
0
 10
21.95962958465344
 20
-24.374777438927744
 30
0.0
  0
VERTEX
  8
0
 10
21.95962958465344
 20
-18.88614107529138
 30
0.0
  0
SEQEND
  0
POLYLINE
  8
0
 66
1
 10
0.0
 20
0.0
 30
0.0
 70
8
  0
VERTEX
  8
0
 10
1.2420411862621705
 20
-33.55841782951335
 30
0.0
  0
VERTEX
  8
0
 10
0.7682796428671835
 20
-34.03217937290834
 30
0.0
  0
VERTEX
  8
0
 10
-0.5151191649864001
 20
-32.74878056505475
 30
0.0
  0
VERTEX
  8
0
 10
-1.6889164217560695
 20
-33.92257782182442
 30
0.0
  0
VERTEX
  8
0
 10
-0.4055176139024861
 20
-35.205976629678005
 30
0.0
  0
VERTEX
  8
0
 10
-0.8792791572974731
 20
-35.67973817307299
 30
0.0
  0
VERTEX
  8
0
 10
-4.760331149491819
 20
-31.798686180878644
 30
0.0
  0
VERTEX
  8
0
 10
-4.2865696060968315
 20
-31.324924637483658
 30
0.0
  0
VERTEX
  8
0
 10
-3.0031707982432483
 20
-32.60832344533724
 30
0.0
  0
VERTEX
  8
0
 10
-1.829373541473579
 20
-31.434526188567574
 30
0.0
  0
VERTEX
  8
0
 10
-3.1127723493271624
 20
-30.15112738071399
 30
0.0
  0
VERTEX
  8
0
 10
-2.6390108059321755
 20
-29.677365837319005
 30
0.0
  0
VERTEX
  8
0
 10
1.2420411862621705
 20
-33.55841782951335
 30
0.0
  0
SEQEND
  0
POLYLINE
  8
0
 66
1
 10
0.0
 20
0.0
 30
0.0
 70
8
  0
VERTEX
  8
0
 10
20.092543736175735
 20
-29.211639598255687
 30
0.0
  0
VERTEX
  8
0
 10
20.56630527957072
 20
-29.685401141650672
 30
0.0
  0
VERTEX
  8
0
 10
19.282906471717137
 20
-30.968799949504255
 30
0.0
  0
VERTEX
  8
0
 10
20.456703728486808
 20
-32.142597206273926
 30
0.0
  0
VERTEX
  8
0
 10
21.74010253634039
 20
-30.859198398420343
 30
0.0
  0
VERTEX
  8
0
 10
22.213864079735377
 20
-31.33295994181533
 30
0.0
  0
VERTEX
  8
0
 10
18.33281208754103
 20
-35.214011934009676
 30
0.0
  0
VERTEX
  8
0
 10
17.859050544146044
 20
-34.74025039061469
 30
0.0
  0
VERTEX
  8
0
 10
19.142449351999627
 20
-33.456851582761104
 30
0.0
  0
VERTEX
  8
0
 10
17.96865209522996
 20
-32.283054325991436
 30
0.0
  0
VERTEX
  8
0
 10
16.685253287376376
 20
-33.56645313384502
 30
0.0
  0
VERTEX
  8
0
 10
16.21149174398139
 20
-33.09269159045004
 30
0.0
  0
VERTEX
  8
0
 10
20.092543736175735
 20
-29.211639598255687
 30
0.0
  0
SEQEND
  0
POLYLINE
  8
0
 66
1
 10
0.0
 20
0.0
 30
0.0
 70
8
  0
VERTEX
  8
0
 10
40.891082062780086
 20
-22.559777438927743
 30
0.0
  0
VERTEX
  8
0
 10
51.56717871718996
 20
-22.559777438927743
 30
0.0
  0
VERTEX
  8
0
 10
51.56717871718996
 20
-24.374777438927744
 30
0.0
  0
VERTEX
  8
0
 10
52.23717871718996
 20
-24.374777438927744
 30
0.0
  0
VERTEX
  8
0
 10
52.23717871718996
 20
-18.88614107529138
 30
0.0
  0
VERTEX
  8
0
 10
51.56717871718996
 20
-18.88614107529138
 30
0.0
  0
VERTEX
  8
0
 10
51.56717871718996
 20
-20.701141075291382
 30
0.0
  0
VERTEX
  8
0
 10
40.891082062780086
 20
-20.701141075291382
 30
0.0
  0
SEQEND
  0
LINE
  8
0
 10
40.72955969386511
 20
-20.31119158163021
 30
0.0
 11
40.891082062780086
 21
-20.701141075291382
 31
0.0
  0
POLYLINE
  8
0
 66
1
 10
0.0
 20
0.0
 30
0.0
 70
8
  0
VERTEX
  8
0
 10
40.72955969386511
 20
-20.31119158163021
 30
0.0
  0
VERTEX
  8
0
 10
44.03174836200629
 20
-17.009002913489034
 30
0.0
  0
VERTEX
  8
0
 10
45.31514716985988
 20
-18.292401721342618
 30
0.0
  0
VERTEX
  8
0
 10
45.78890871325486
 20
-17.818640177947632
 30
0.0
  0
VERTEX
  8
0
 10
41.90785672106052
 20
-13.937588185753286
 30
0.0
  0
VERTEX
  8
0
 10
41.43409517766553
 20
-14.411349729148274
 30
0.0
  0
VERTEX
  8
0
 10
42.71749398551912
 20
-15.694748537001857
 30
0.0
  0
VERTEX
  8
0
 10
39.41530531737794
 20
-18.996937205143034
 30
0.0
  0
SEQEND
  0
LINE
  8
0
 10
37.435406330055606
 20
-18.996937205143034
 30
0.0
 11
39.41530531737794
 21
-18.996937205143034
 31
0.0
  0
POLYLINE
  8
0
 66
1
 10
0.0
 20
0.0
 30
0.0
 70
8
  0
VERTEX
  8
0
 10
37.435406330055606
 20
-18.996937205143034
 30
0.0
  0
VERTEX
  8
0
 10
34.13321766191443
 20
-15.694748537001857
 30
0.0
  0
VERTEX
  8
0
 10
35.416616469768016
 20
-14.411349729148274
 30
0.0
  0
VERTEX
  8
0
 10
34.94285492637303
 20
-13.937588185753286
 30
0.0
  0
VERTEX
  8
0
 10
31.061802934178683
 20
-17.818640177947632
 30
0.0
  0
VERTEX
  8
0
 10
31.53556447757367
 20
-18.292401721342618
 30
0.0
  0
VERTEX
  8
0
 10
32.81896328542725
 20
-17.009002913489034
 30
0.0
  0
VERTEX
  8
0
 10
36.12115195356843
 20
-20.31119158163021
 30
0.0
  0
SEQEND
  0
LINE
  8
0
 10
35.95962958465344
 20
-20.70114107529138
 30
0.0
 11
36.12115195356843
 21
-20.31119158163021
 31
0.0
  0
POLYLINE
  8
0
 66
1
 10
0.0
 20
0.0
 30
0.0
 70
8
  0
VERTEX
  8
0
 10
35.95962958465344
 20
-20.70114107529138
 30
0.0
  0
VERTEX
  8
0
 10
25.283532930243563
 20
-20.70114107529138
 30
0.0
  0
VERTEX
  8
0
 10
25.283532930243563
 20
-18.886141075291377
 30
0.0
  0
VERTEX
  8
0
 10
24.61353293024356
 20
-18.886141075291377
 30
0.0
  0
VERTEX
  8
0
 10
24.61353293024356
 20
-24.37477743892774
 30
0.0
  0
VERTEX
  8
0
 10
25.283532930243563
 20
-24.37477743892774
 30
0.0
  0
VERTEX
  8
0
 10
25.283532930243563
 20
-22.55977743892774
 30
0.0
  0
VERTEX
  8
0
 10
35.95962958465344
 20
-22.55977743892774
 30
0.0
  0
SEQEND
  0
LINE
  8
0
 10
36.121151953568415
 20
-22.94972693258891
 30
0.0
 11
35.95962958465344
 21
-22.55977743892774
 31
0.0
  0
POLYLINE
  8
0
 66
1
 10
0.0
 20
0.0
 30
0.0
 70
8
  0
VERTEX
  8
0
 10
36.121151953568415
 20
-22.94972693258891
 30
0.0
  0
VERTEX
  8
0
 10
32.81896328542724
 20
-26.251915600730086
 30
0.0
  0
VERTEX
  8
0
 10
31.535564477573654
 20
-24.968516792876503
 30
0.0
  0
VERTEX
  8
0
 10
31.06180293417867
 20
-25.44227833627149
 30
0.0
  0
VERTEX
  8
0
 10
34.942854926373016
 20
-29.323330328465836
 30
0.0
  0
VERTEX
  8
0
 10
35.416616469768
 20
-28.84956878507085
 30
0.0
  0
VERTEX
  8
0
 10
34.133217661914415
 20
-27.566169977217267
 30
0.0
  0
VERTEX
  8
0
 10
37.43540633005559
 20
-24.26398130907609
 30
0.0
  0
SEQEND
  0
LINE
  8
0
 10
39.41530531737792
 20
-24.263981309076087
 30
0.0
 11
37.43540633005559
 21
-24.26398130907609
 31
0.0
  0
POLYLINE
  8
0
 66
1
 10
0.0
 20
0.0
 30
0.0
 70
8
  0
VERTEX
  8
0
 10
39.41530531737792
 20
-24.263981309076087
 30
0.0
  0
VERTEX
  8
0
 10
42.7174939855191
 20
-27.566169977217264
 30
0.0
  0
VERTEX
  8
0
 10
41.43409517766551
 20
-28.849568785070847
 30
0.0
  0
VERTEX
  8
0
 10
41.9078567210605
 20
-29.323330328465833
 30
0.0
  0
VERTEX
  8
0
 10
45.78890871325484
 20
-25.442278336271485
 30
0.0
  0
VERTEX
  8
0
 10
45.315147169859856
 20
-24.9685167928765
 30
0.0
  0
VERTEX
  8
0
 10
44.03174836200627
 20
-26.251915600730083
 30
0.0
  0
VERTEX
  8
0
 10
40.72955969386509
 20
-22.949726932588906
 30
0.0
  0
SEQEND
  0
LINE
  8
0
 10
40.72955969386509
 20
-22.949726932588906
 30
0.0
 11
40.891082062780086
 21
-22.559777438927743
 31
0.0
  0
POLYLINE
  8
0
 66
1
 10
0.0
 20
0.0
 30
0.0
 70
8
  0
VERTEX
  8
0
 10
51.891082062780086
 20
-18.88614107529138
 30
0.0
  0
VERTEX
  8
0
 10
52.56108206278009
 20
-18.88614107529138
 30
0.0
  0
VERTEX
  8
0
 10
52.56108206278009
 20
-20.701141075291382
 30
0.0
  0
VERTEX
  8
0
 10
54.221082062780084
 20
-20.701141075291382
 30
0.0
  0
VERTEX
  8
0
 10
54.221082062780084
 20
-18.88614107529138
 30
0.0
  0
VERTEX
  8
0
 10
54.891082062780086
 20
-18.88614107529138
 30
0.0
  0
VERTEX
  8
0
 10
54.891082062780086
 20
-24.374777438927744
 30
0.0
  0
VERTEX
  8
0
 10
54.221082062780084
 20
-24.374777438927744
 30
0.0
  0
VERTEX
  8
0
 10
54.221082062780084
 20
-22.559777438927743
 30
0.0
  0
VERTEX
  8
0
 10
52.56108206278009
 20
-22.559777438927743
 30
0.0
  0
VERTEX
  8
0
 10
52.56108206278009
 20
-24.374777438927744
 30
0.0
  0
VERTEX
  8
0
 10
51.891082062780086
 20
-24.374777438927744
 30
0.0
  0
VERTEX
  8
0
 10
51.891082062780086
 20
-18.88614107529138
 30
0.0
  0
SEQEND
  0
POLYLINE
  8
0
 66
1
 10
0.0
 20
0.0
 30
0.0
 70
8
  0
VERTEX
  8
0
 10
31.17349366438882
 20
-33.55841782951335
 30
0.0
  0
VERTEX
  8
0
 10
30.699732120993833
 20
-34.03217937290834
 30
0.0
  0
VERTEX
  8
0
 10
29.41633331314025
 20
-32.74878056505475
 30
0.0
  0
VERTEX
  8
0
 10
28.24253605637058
 20
-33.92257782182442
 30
0.0
  0
VERTEX
  8
0
 10
29.525934864224162
 20
-35.205976629678005
 30
0.0
  0
VERTEX
  8
0
 10
29.052173320829176
 20
-35.67973817307299
 30
0.0
  0
VERTEX
  8
0
 10
25.171121328634833
 20
-31.798686180878644
 30
0.0
  0
VERTEX
  8
0
 10
25.644882872029818
 20
-31.324924637483658
 30
0.0
  0
VERTEX
  8
0
 10
26.9282816798834
 20
-32.60832344533724
 30
0.0
  0
VERTEX
  8
0
 10
28.102078936653072
 20
-31.434526188567574
 30
0.0
  0
VERTEX
  8
0
 10
26.81868012879949
 20
-30.15112738071399
 30
0.0
  0
VERTEX
  8
0
 10
27.292441672194474
 20
-29.677365837319005
 30
0.0
  0
VERTEX
  8
0
 10
31.17349366438882
 20
-33.55841782951335
 30
0.0
  0
SEQEND
  0
POLYLINE
  8
0
 66
1
 10
0.0
 20
0.0
 30
0.0
 70
8
  0
VERTEX
  8
0
 10
50.02399621430237
 20
-29.211639598255687
 30
0.0
  0
VERTEX
  8
0
 10
50.49775775769736
 20
-29.685401141650672
 30
0.0
  0
VERTEX
  8
0
 10
49.21435894984377
 20
-30.968799949504255
 30
0.0
  0
VERTEX
  8
0
 10
50.38815620661344
 20
-32.142597206273926
 30
0.0
  0
VERTEX
  8
0
 10
51.671555014467025
 20
-30.859198398420343
 30
0.0
  0
VERTEX
  8
0
 10
52.14531655786201
 20
-31.33295994181533
 30
0.0
  0
VERTEX
  8
0
 10
48.264264565667666
 20
-35.214011934009676
 30
0.0
  0
VERTEX
  8
0
 10
47.79050302227268
 20
-34.74025039061469
 30
0.0
  0
VERTEX
  8
0
 10
49.07390183012627
 20
-33.456851582761104
 30
0.0
  0
VERTEX
  8
0
 10
47.9001045733566
 20
-32.283054325991436
 30
0.0
  0
VERTEX
  8
0
 10
46.61670576550301
 20
-33.56645313384502
 30
0.0
  0
VERTEX
  8
0
 10
46.14294422210803
 20
-33.09269159045004
 30
0.0
  0
VERTEX
  8
0
 10
50.02399621430237
 20
-29.211639598255687
 30
0.0
  0
SEQEND
  0
POLYLINE
  8
0
 66
1
 10
0.0
 20
0.0
 30
0.0
 70
8
  0
VERTEX
  8
0
 10
1.9999999999999976
 20
-44.190236696037296
 30
0.0
  0
VERTEX
  8
0
 10
12.676096654409877
 20
-44.190236696037296
 30
0.0
  0
VERTEX
  8
0
 10
12.676096654409877
 20
-46.005236696037294
 30
0.0
  0
VERTEX
  8
0
 10
13.346096654409877
 20
-46.005236696037294
 30
0.0
  0
VERTEX
  8
0
 10
13.346096654409877
 20
-40.51660033240093
 30
0.0
  0
VERTEX
  8
0
 10
12.676096654409877
 20
-40.51660033240093
 30
0.0
  0
VERTEX
  8
0
 10
12.676096654409877
 20
-42.331600332400924
 30
0.0
  0
VERTEX
  8
0
 10
1.9999999999999982
 20
-42.331600332400924
 30
0.0
  0
SEQEND
  0
LINE
  8
0
 10
1.8384776310850213
 20
-41.941650838739776
 30
0.0
 11
1.9999999999999982
 21
-42.331600332400924
 31
0.0
  0
POLYLINE
  8
0
 66
1
 10
0.0
 20
0.0
 30
0.0
 70
8
  0
VERTEX
  8
0
 10
1.8384776310850213
 20
-41.941650838739776
 30
0.0
  0
VERTEX
  8
0
 10
5.140666299226199
 20
-38.6394621705986
 30
0.0
  0
VERTEX
  8
0
 10
6.424065107079783
 20
-39.922860978452185
 30
0.0
  0
VERTEX
  8
0
 10
6.897826650474769
 20
-39.4490994350572
 30
0.0
  0
VERTEX
  8
0
 10
3.016774658280424
 20
-35.568047442862856
 30
0.0
  0
VERTEX
  8
0
 10
2.543013114885437
 20
-36.04180898625784
 30
0.0
  0
VERTEX
  8
0
 10
3.8264119227390205
 20
-37.32520779411143
 30
0.0
  0
VERTEX
  8
0
 10
0.5242232545978438
 20
-40.627396462252605
 30
0.0
  0
SEQEND
  0
LINE
  8
0
 10
-1.4556757327244902
 20
-40.627396462252584
 30
0.0
 11
0.5242232545978438
 21
-40.627396462252605
 31
0.0
  0
POLYLINE
  8
0
 66
1
 10
0.0
 20
0.0
 30
0.0
 70
8
  0
VERTEX
  8
0
 10
-1.4556757327244902
 20
-40.627396462252584
 30
0.0
  0
VERTEX
  8
0
 10
-4.757864400865667
 20
-37.32520779411141
 30
0.0
  0
VERTEX
  8
0
 10
-3.4744655930120834
 20
-36.04180898625782
 30
0.0
  0
VERTEX
  8
0
 10
-3.9482271364070702
 20
-35.568047442862834
 30
0.0
  0
VERTEX
  8
0
 10
-7.829279128601417
 20
-39.44909943505718
 30
0.0
  0
VERTEX
  8
0
 10
-7.355517585206431
 20
-39.922860978452164
 30
0.0
  0
VERTEX
  8
0
 10
-6.072118777352847
 20
-38.63946217059858
 30
0.0
  0
VERTEX
  8
0
 10
-2.7699301092116695
 20
-41.941650838739754
 30
0.0
  0
SEQEND
  0
LINE
  8
0
 10
-2.931452478126645
 20
-42.33160033240093
 30
0.0
 11
-2.7699301092116695
 21
-41.941650838739754
 31
0.0
  0
POLYLINE
  8
0
 66
1
 10
0.0
 20
0.0
 30
0.0
 70
8
  0
VERTEX
  8
0
 10
-2.931452478126645
 20
-42.33160033240093
 30
0.0
  0
VERTEX
  8
0
 10
-13.607549132536523
 20
-42.33160033240093
 30
0.0
  0
VERTEX
  8
0
 10
-13.607549132536523
 20
-40.516600332400934
 30
0.0
  0
VERTEX
  8
0
 10
-14.277549132536523
 20
-40.516600332400934
 30
0.0
  0
VERTEX
  8
0
 10
-14.277549132536524
 20
-46.0052366960373
 30
0.0
  0
VERTEX
  8
0
 10
-13.607549132536525
 20
-46.0052366960373
 30
0.0
  0
VERTEX
  8
0
 10
-13.607549132536525
 20
-44.1902366960373
 30
0.0
  0
VERTEX
  8
0
 10
-2.931452478126646
 20
-44.1902366960373
 30
0.0
  0
SEQEND
  0
LINE
  8
0
 10
-2.769930109211669
 20
-44.58018618969845
 30
0.0
 11
-2.931452478126646
 21
-44.1902366960373
 31
0.0
  0
POLYLINE
  8
0
 66
1
 10
0.0
 20
0.0
 30
0.0
 70
8
  0
VERTEX
  8
0
 10
-2.769930109211669
 20
-44.58018618969845
 30
0.0
  0
VERTEX
  8
0
 10
-6.072118777352847
 20
-47.88237485783963
 30
0.0
  0
VERTEX
  8
0
 10
-7.35551758520643
 20
-46.59897604998604
 30
0.0
  0
VERTEX
  8
0
 10
-7.829279128601417
 20
-47.07273759338103
 30
0.0
  0
VERTEX
  8
0
 10
-3.9482271364070725
 20
-50.95378958557537
 30
0.0
  0
VERTEX
  8
0
 10
-3.4744655930120856
 20
-50.480028042180386
 30
0.0
  0
VERTEX
  8
0
 10
-4.757864400865669
 20
-49.1966292343268
 30
0.0
  0
VERTEX
  8
0
 10
-1.455675732724492
 20
-45.89444056618562
 30
0.0
  0
SEQEND
  0
LINE
  8
0
 10
0.5242232545978426
 20
-45.894440566185644
 30
0.0
 11
-1.455675732724492
 21
-45.89444056618562
 31
0.0
  0
POLYLINE
  8
0
 66
1
 10
0.0
 20
0.0
 30
0.0
 70
8
  0
VERTEX
  8
0
 10
0.5242232545978426
 20
-45.894440566185644
 30
0.0
  0
VERTEX
  8
0
 10
3.8264119227390196
 20
-49.19662923432682
 30
0.0
  0
VERTEX
  8
0
 10
2.543013114885436
 20
-50.48002804218041
 30
0.0
  0
VERTEX
  8
0
 10
3.016774658280423
 20
-50.95378958557539
 30
0.0
  0
VERTEX
  8
0
 10
6.897826650474769
 20
-47.07273759338105
 30
0.0
  0
VERTEX
  8
0
 10
6.424065107079783
 20
-46.598976049986064
 30
0.0
  0
VERTEX
  8
0
 10
5.140666299226199
 20
-47.88237485783965
 30
0.0
  0
VERTEX
  8
0
 10
1.8384776310850213
 20
-44.58018618969847
 30
0.0
  0
SEQEND
  0
LINE
  8
0
 10
1.8384776310850213
 20
-44.58018618969847
 30
0.0
 11
1.9999999999999976
 21
-44.190236696037296
 31
0.0
  0
POLYLINE
  8
0
 66
1
 10
0.0
 20
0.0
 30
0.0
 70
8
  0
VERTEX
  8
0
 10
12.999999999999998
 20
-40.51660033240093
 30
0.0
  0
VERTEX
  8
0
 10
13.669999999999998
 20
-40.51660033240093
 30
0.0
  0
VERTEX
  8
0
 10
13.669999999999998
 20
-42.331600332400924
 30
0.0
  0
VERTEX
  8
0
 10
15.329999999999998
 20
-42.331600332400924
 30
0.0
  0
VERTEX
  8
0
 10
15.329999999999998
 20
-40.51660033240093
 30
0.0
  0
VERTEX
  8
0
 10
15.999999999999998
 20
-40.51660033240093
 30
0.0
  0
VERTEX
  8
0
 10
15.999999999999998
 20
-46.00523669603729
 30
0.0
  0
VERTEX
  8
0
 10
15.329999999999998
 20
-46.00523669603729
 30
0.0
  0
VERTEX
  8
0
 10
15.329999999999998
 20
-44.19023669603729
 30
0.0
  0
VERTEX
  8
0
 10
13.669999999999998
 20
-44.19023669603729
 30
0.0
  0
VERTEX
  8
0
 10
13.669999999999998
 20
-46.00523669603729
 30
0.0
  0
VERTEX
  8
0
 10
12.999999999999998
 20
-46.00523669603729
 30
0.0
  0
VERTEX
  8
0
 10
12.999999999999998
 20
-40.51660033240093
 30
0.0
  0
SEQEND
  0
POLYLINE
  8
0
 66
1
 10
0.0
 20
0.0
 30
0.0
 70
8
  0
VERTEX
  8
0
 10
-13.931452478126646
 20
-46.33455487785548
 30
0.0
  0
VERTEX
  8
0
 10
-14.601452478126646
 20
-46.33455487785548
 30
0.0
  0
VERTEX
  8
0
 10
-14.601452478126646
 20
-44.519554877855484
 30
0.0
  0
VERTEX
  8
0
 10
-16.261452478126646
 20
-44.519554877855484
 30
0.0
  0
VERTEX
  8
0
 10
-16.261452478126646
 20
-46.33455487785548
 30
0.0
  0
VERTEX
  8
0
 10
-16.931452478126648
 20
-46.33455487785548
 30
0.0
  0
VERTEX
  8
0
 10
-16.931452478126648
 20
-40.84591851421912
 30
0.0
  0
VERTEX
  8
0
 10
-16.261452478126646
 20
-40.84591851421912
 30
0.0
  0
VERTEX
  8
0
 10
-16.261452478126646
 20
-42.66091851421912
 30
0.0
  0
VERTEX
  8
0
 10
-14.601452478126646
 20
-42.66091851421912
 30
0.0
  0
VERTEX
  8
0
 10
-14.601452478126646
 20
-40.84591851421912
 30
0.0
  0
VERTEX
  8
0
 10
-13.931452478126646
 20
-40.84591851421912
 30
0.0
  0
VERTEX
  8
0
 10
-13.931452478126646
 20
-46.33455487785548
 30
0.0
  0
SEQEND
  0
POLYLINE
  8
0
 66
1
 10
0.0
 20
0.0
 30
0.0
 70
8
  0
VERTEX
  8
0
 10
-7.71758839839127
 20
-55.1888770866229
 30
0.0
  0
VERTEX
  8
0
 10
-8.191349941786257
 20
-55.66263863001789
 30
0.0
  0
VERTEX
  8
0
 10
-9.47474874963984
 20
-54.3792398221643
 30
0.0
  0
VERTEX
  8
0
 10
-10.648546006409509
 20
-55.55303707893397
 30
0.0
  0
VERTEX
  8
0
 10
-9.365147198555926
 20
-56.836435886787555
 30
0.0
  0
VERTEX
  8
0
 10
-9.838908741950913
 20
-57.31019743018254
 30
0.0
  0
VERTEX
  8
0
 10
-13.719960734145259
 20
-53.4291454379882
 30
0.0
  0
VERTEX
  8
0
 10
-13.246199190750271
 20
-52.95538389459321
 30
0.0
  0
VERTEX
  8
0
 10
-11.962800382896688
 20
-54.2387827024468
 30
0.0
  0
VERTEX
  8
0
 10
-10.78900312612702
 20
-53.06498544567713
 30
0.0
  0
VERTEX
  8
0
 10
-12.072401933980602
 20
-51.781586637823544
 30
0.0
  0
VERTEX
  8
0
 10
-11.598640390585615
 20
-51.30782509442856
 30
0.0
  0
VERTEX
  8
0
 10
-7.71758839839127
 20
-55.1888770866229
 30
0.0
  0
SEQEND
  0
POLYLINE
  8
0
 66
1
 10
0.0
 20
0.0
 30
0.0
 70
8
  0
VERTEX
  8
0
 10
11.13291415152229
 20
-50.842098855365236
 30
0.0
  0
VERTEX
  8
0
 10
11.606675694917277
 20
-51.31586039876022
 30
0.0
  0
VERTEX
  8
0
 10
10.323276887063694
 20
-52.59925920661381
 30
0.0
  0
VERTEX
  8
0
 10
11.497074143833363
 20
-53.773056463383476
 30
0.0
  0
VERTEX
  8
0
 10
12.780472951686946
 20
-52.48965765552989
 30
0.0
  0
VERTEX
  8
0
 10
13.254234495081933
 20
-52.963419198924875
 30
0.0
  0
VERTEX
  8
0
 10
9.373182502887587
 20
-56.84447119111922
 30
0.0
  0
VERTEX
  8
0
 10
8.8994209594926
 20
-56.37070964772423
 30
0.0
  0
VERTEX
  8
0
 10
10.182819767346183
 20
-55.087310839870646
 30
0.0
  0
VERTEX
  8
0
 10
9.009022510576514
 20
-53.91351358310098
 30
0.0
  0
VERTEX
  8
0
 10
7.725623702722931
 20
-55.196912390954566
 30
0.0
  0
VERTEX
  8
0
 10
7.251862159327945
 20
-54.72315084755958
 30
0.0
  0
VERTEX
  8
0
 10
11.13291415152229
 20
-50.842098855365236
 30
0.0
  0
SEQEND
  0
POLYLINE
  8
0
 66
1
 10
0.0
 20
0.0
 30
0.0
 70
8
  0
VERTEX
  8
0
 10
31.93145247812664
 20
-44.190236696037296
 30
0.0
  0
VERTEX
  8
0
 10
42.60754913253652
 20
-44.190236696037296
 30
0.0
  0
VERTEX
  8
0
 10
42.60754913253652
 20
-46.005236696037294
 30
0.0
  0
VERTEX
  8
0
 10
43.27754913253652
 20
-46.005236696037294
 30
0.0
  0
VERTEX
  8
0
 10
43.27754913253652
 20
-40.51660033240093
 30
0.0
  0
VERTEX
  8
0
 10
42.60754913253652
 20
-40.51660033240093
 30
0.0
  0
VERTEX
  8
0
 10
42.60754913253652
 20
-42.331600332400924
 30
0.0
  0
VERTEX
  8
0
 10
31.93145247812664
 20
-42.331600332400924
 30
0.0
  0
SEQEND
  0
LINE
  8
0
 10
31.769930109211664
 20
-41.941650838739776
 30
0.0
 11
31.93145247812664
 21
-42.331600332400924
 31
0.0
  0
POLYLINE
  8
0
 66
1
 10
0.0
 20
0.0
 30
0.0
 70
8
  0
VERTEX
  8
0
 10
31.769930109211664
 20
-41.941650838739776
 30
0.0
  0
VERTEX
  8
0
 10
35.07211877735284
 20
-38.6394621705986
 30
0.0
  0
VERTEX
  8
0
 10
36.35551758520643
 20
-39.922860978452185
 30
0.0
  0
VERTEX
  8
0
 10
36.829279128601414
 20
-39.4490994350572
 30
0.0
  0
VERTEX
  8
0
 10
32.94822713640707
 20
-35.568047442862856
 30
0.0
  0
VERTEX
  8
0
 10
32.474465593012084
 20
-36.04180898625784
 30
0.0
  0
VERTEX
  8
0
 10
33.75786440086567
 20
-37.32520779411143
 30
0.0
  0
VERTEX
  8
0
 10
30.455675732724494
 20
-40.627396462252605
 30
0.0
  0
SEQEND
  0
LINE
  8
0
 10
28.47577674540215
 20
-40.627396462252584
 30
0.0
 11
30.455675732724494
 21
-40.627396462252605
 31
0.0
  0
POLYLINE
  8
0
 66
1
 10
0.0
 20
0.0
 30
0.0
 70
8
  0
VERTEX
  8
0
 10
28.47577674540215
 20
-40.627396462252584
 30
0.0
  0
VERTEX
  8
0
 10
25.173588077260973
 20
-37.32520779411141
 30
0.0
  0
VERTEX
  8
0
 10
26.456986885114556
 20
-36.04180898625782
 30
0.0
  0
VERTEX
  8
0
 10
25.98322534171957
 20
-35.568047442862834
 30
0.0
  0
VERTEX
  8
0
 10
22.102173349525224
 20
-39.44909943505718
 30
0.0
  0
VERTEX
  8
0
 10
22.57593489292021
 20
-39.922860978452164
 30
0.0
  0
VERTEX
  8
0
 10
23.859333700773792
 20
-38.63946217059858
 30
0.0
  0
VERTEX
  8
0
 10
27.16152236891497
 20
-41.941650838739754
 30
0.0
  0
SEQEND
  0
LINE
  8
0
 10
26.999999999999996
 20
-42.33160033240093
 30
0.0
 11
27.16152236891497
 21
-41.941650838739754
 31
0.0
  0
POLYLINE
  8
0
 66
1
 10
0.0
 20
0.0
 30
0.0
 70
8
  0
VERTEX
  8
0
 10
26.999999999999996
 20
-42.33160033240093
 30
0.0
  0
VERTEX
  8
0
 10
16.323903345590118
 20
-42.33160033240093
 30
0.0
  0
VERTEX
  8
0
 10
16.323903345590118
 20
-40.516600332400934
 30
0.0
  0
VERTEX
  8
0
 10
15.653903345590118
 20
-40.516600332400934
 30
0.0
  0
VERTEX
  8
0
 10
15.653903345590116
 20
-46.0052366960373
 30
0.0
  0
VERTEX
  8
0
 10
16.323903345590118
 20
-46.0052366960373
 30
0.0
  0
VERTEX
  8
0
 10
16.323903345590118
 20
-44.1902366960373
 30
0.0
  0
VERTEX
  8
0
 10
26.999999999999996
 20
-44.1902366960373
 30
0.0
  0
SEQEND
  0
LINE
  8
0
 10
27.161522368914973
 20
-44.58018618969845
 30
0.0
 11
26.999999999999996
 21
-44.1902366960373
 31
0.0
  0
POLYLINE
  8
0
 66
1
 10
0.0
 20
0.0
 30
0.0
 70
8
  0
VERTEX
  8
0
 10
27.161522368914973
 20
-44.58018618969845
 30
0.0
  0
VERTEX
  8
0
 10
23.859333700773796
 20
-47.88237485783963
 30
0.0
  0
VERTEX
  8
0
 10
22.575934892920213
 20
-46.59897604998604
 30
0.0
  0
VERTEX
  8
0
 10
22.102173349525227
 20
-47.07273759338103
 30
0.0
  0
VERTEX
  8
0
 10
25.98322534171957
 20
-50.95378958557537
 30
0.0
  0
VERTEX
  8
0
 10
26.456986885114556
 20
-50.480028042180386
 30
0.0
  0
VERTEX
  8
0
 10
25.173588077260973
 20
-49.1966292343268
 30
0.0
  0
VERTEX
  8
0
 10
28.47577674540215
 20
-45.89444056618562
 30
0.0
  0
SEQEND
  0
LINE
  8
0
 10
30.455675732724487
 20
-45.894440566185644
 30
0.0
 11
28.47577674540215
 21
-45.89444056618562
 31
0.0
  0
POLYLINE
  8
0
 66
1
 10
0.0
 20
0.0
 30
0.0
 70
8
  0
VERTEX
  8
0
 10
30.455675732724487
 20
-45.894440566185644
 30
0.0
  0
VERTEX
  8
0
 10
33.757864400865664
 20
-49.19662923432682
 30
0.0
  0
VERTEX
  8
0
 10
32.47446559301208
 20
-50.48002804218041
 30
0.0
  0
VERTEX
  8
0
 10
32.94822713640706
 20
-50.95378958557539
 30
0.0
  0
VERTEX
  8
0
 10
36.82927912860141
 20
-47.07273759338105
 30
0.0
  0
VERTEX
  8
0
 10
36.35551758520642
 20
-46.598976049986064
 30
0.0
  0
VERTEX
  8
0
 10
35.072118777352834
 20
-47.88237485783965
 30
0.0
  0
VERTEX
  8
0
 10
31.769930109211657
 20
-44.58018618969847
 30
0.0
  0
SEQEND
  0
LINE
  8
0
 10
31.769930109211657
 20
-44.58018618969847
 30
0.0
 11
31.93145247812664
 21
-44.190236696037296
 31
0.0
  0
POLYLINE
  8
0
 66
1
 10
0.0
 20
0.0
 30
0.0
 70
8
  0
VERTEX
  8
0
 10
42.931452478126644
 20
-40.51660033240093
 30
0.0
  0
VERTEX
  8
0
 10
43.601452478126646
 20
-40.51660033240093
 30
0.0
  0
VERTEX
  8
0
 10
43.601452478126646
 20
-42.331600332400924
 30
0.0
  0
VERTEX
  8
0
 10
45.26145247812664
 20
-42.331600332400924
 30
0.0
  0
VERTEX
  8
0
 10
45.26145247812664
 20
-40.51660033240093
 30
0.0
  0
VERTEX
  8
0
 10
45.931452478126644
 20
-40.51660033240093
 30
0.0
  0
VERTEX
  8
0
 10
45.931452478126644
 20
-46.00523669603729
 30
0.0
  0
VERTEX
  8
0
 10
45.26145247812664
 20
-46.00523669603729
 30
0.0
  0
VERTEX
  8
0
 10
45.26145247812664
 20
-44.19023669603729
 30
0.0
  0
VERTEX
  8
0
 10
43.601452478126646
 20
-44.19023669603729
 30
0.0
  0
VERTEX
  8
0
 10
43.601452478126646
 20
-46.00523669603729
 30
0.0
  0
VERTEX
  8
0
 10
42.931452478126644
 20
-46.00523669603729
 30
0.0
  0
VERTEX
  8
0
 10
42.931452478126644
 20
-40.51660033240093
 30
0.0
  0
SEQEND
  0
POLYLINE
  8
0
 66
1
 10
0.0
 20
0.0
 30
0.0
 70
8
  0
VERTEX
  8
0
 10
22.21386407973537
 20
-55.1888770866229
 30
0.0
  0
VERTEX
  8
0
 10
21.740102536340384
 20
-55.66263863001789
 30
0.0
  0
VERTEX
  8
0
 10
20.4567037284868
 20
-54.3792398221643
 30
0.0
  0
VERTEX
  8
0
 10
19.28290647171713
 20
-55.55303707893397
 30
0.0
  0
VERTEX
  8
0
 10
20.566305279570713
 20
-56.836435886787555
 30
0.0
  0
VERTEX
  8
0
 10
20.092543736175728
 20
-57.31019743018254
 30
0.0
  0
VERTEX
  8
0
 10
16.211491743981384
 20
-53.4291454379882
 30
0.0
  0
VERTEX
  8
0
 10
16.68525328737637
 20
-52.95538389459321
 30
0.0
  0
VERTEX
  8
0
 10
17.968652095229952
 20
-54.2387827024468
 30
0.0
  0
VERTEX
  8
0
 10
19.142449351999623
 20
-53.06498544567713
 30
0.0
  0
VERTEX
  8
0
 10
17.85905054414604
 20
-51.781586637823544
 30
0.0
  0
VERTEX
  8
0
 10
18.332812087541026
 20
-51.30782509442856
 30
0.0
  0
VERTEX
  8
0
 10
22.21386407973537
 20
-55.1888770866229
 30
0.0
  0
SEQEND
  0
POLYLINE
  8
0
 66
1
 10
0.0
 20
0.0
 30
0.0
 70
8
  0
VERTEX
  8
0
 10
41.06436662964893
 20
-50.842098855365236
 30
0.0
  0
VERTEX
  8
0
 10
41.538128173043916
 20
-51.31586039876022
 30
0.0
  0
VERTEX
  8
0
 10
40.25472936519033
 20
-52.59925920661381
 30
0.0
  0
VERTEX
  8
0
 10
41.428526621959996
 20
-53.773056463383476
 30
0.0
  0
VERTEX
  8
0
 10
42.71192542981358
 20
-52.48965765552989
 30
0.0
  0
VERTEX
  8
0
 10
43.18568697320857
 20
-52.963419198924875
 30
0.0
  0
VERTEX
  8
0
 10
39.304634981014225
 20
-56.84447119111922
 30
0.0
  0
VERTEX
  8
0
 10
38.83087343761924
 20
-56.37070964772423
 30
0.0
  0
VERTEX
  8
0
 10
40.114272245472826
 20
-55.087310839870646
 30
0.0
  0
VERTEX
  8
0
 10
38.94047498870316
 20
-53.91351358310098
 30
0.0
  0
VERTEX
  8
0
 10
37.65707618084957
 20
-55.196912390954566
 30
0.0
  0
VERTEX
  8
0
 10
37.183314637454586
 20
-54.72315084755958
 30
0.0
  0
VERTEX
  8
0
 10
41.06436662964893
 20
-50.842098855365236
 30
0.0
  0
SEQEND
  0
POLYLINE
  8
0
 66
1
 10
0.0
 20
0.0
 30
0.0
 70
8
  0
VERTEX
  8
0
 10
61.86290495625329
 20
-44.190236696037296
 30
0.0
  0
VERTEX
  8
0
 10
72.53900161066316
 20
-44.190236696037296
 30
0.0
  0
VERTEX
  8
0
 10
72.53900161066316
 20
-46.005236696037294
 30
0.0
  0
VERTEX
  8
0
 10
73.20900161066317
 20
-46.005236696037294
 30
0.0
  0
VERTEX
  8
0
 10
73.20900161066317
 20
-40.51660033240093
 30
0.0
  0
VERTEX
  8
0
 10
72.53900161066316
 20
-40.51660033240093
 30
0.0
  0
VERTEX
  8
0
 10
72.53900161066316
 20
-42.331600332400924
 30
0.0
  0
VERTEX
  8
0
 10
61.86290495625329
 20
-42.331600332400924
 30
0.0
  0
SEQEND
  0
LINE
  8
0
 10
61.701382587338315
 20
-41.941650838739776
 30
0.0
 11
61.86290495625329
 21
-42.331600332400924
 31
0.0
  0
POLYLINE
  8
0
 66
1
 10
0.0
 20
0.0
 30
0.0
 70
8
  0
VERTEX
  8
0
 10
61.701382587338315
 20
-41.941650838739776
 30
0.0
  0
VERTEX
  8
0
 10
65.0035712554795
 20
-38.6394621705986
 30
0.0
  0
VERTEX
  8
0
 10
66.28697006333309
 20
-39.922860978452185
 30
0.0
  0
VERTEX
  8
0
 10
66.76073160672807
 20
-39.4490994350572
 30
0.0
  0
VERTEX
  8
0
 10
62.87967961453373
 20
-35.568047442862856
 30
0.0
  0
VERTEX
  8
0
 10
62.40591807113874
 20
-36.04180898625784
 30
0.0
  0
VERTEX
  8
0
 10
63.68931687899233
 20
-37.32520779411143
 30
0.0
  0
VERTEX
  8
0
 10
60.38712821085115
 20
-40.627396462252605
 30
0.0
  0
SEQEND
  0
LINE
  8
0
 10
58.40722922352881
 20
-40.627396462252584
 30
0.0
 11
60.38712821085115
 21
-40.627396462252605
 31
0.0
  0
POLYLINE
  8
0
 66
1
 10
0.0
 20
0.0
 30
0.0
 70
8
  0
VERTEX
  8
0
 10
58.40722922352881
 20
-40.627396462252584
 30
0.0
  0
VERTEX
  8
0
 10
55.10504055538763
 20
-37.32520779411141
 30
0.0
  0
VERTEX
  8
0
 10
56.38843936324122
 20
-36.04180898625782
 30
0.0
  0
VERTEX
  8
0
 10
55.91467781984623
 20
-35.568047442862834
 30
0.0
  0
VERTEX
  8
0
 10
52.03362582765189
 20
-39.44909943505718
 30
0.0
  0
VERTEX
  8
0
 10
52.507387371046875
 20
-39.922860978452164
 30
0.0
  0
VERTEX
  8
0
 10
53.79078617890046
 20
-38.63946217059858
 30
0.0
  0
VERTEX
  8
0
 10
57.09297484704164
 20
-41.941650838739754
 30
0.0
  0
SEQEND
  0
LINE
  8
0
 10
56.931452478126644
 20
-42.33160033240093
 30
0.0
 11
57.09297484704164
 21
-41.941650838739754
 31
0.0
  0
POLYLINE
  8
0
 66
1
 10
0.0
 20
0.0
 30
0.0
 70
8
  0
VERTEX
  8
0
 10
56.931452478126644
 20
-42.33160033240093
 30
0.0
  0
VERTEX
  8
0
 10
46.25535582371677
 20
-42.33160033240093
 30
0.0
  0
VERTEX
  8
0
 10
46.25535582371677
 20
-40.516600332400934
 30
0.0
  0
VERTEX
  8
0
 10
45.58535582371677
 20
-40.516600332400934
 30
0.0
  0
VERTEX
  8
0
 10
45.58535582371677
 20
-46.0052366960373
 30
0.0
  0
VERTEX
  8
0
 10
46.25535582371677
 20
-46.0052366960373
 30
0.0
  0
VERTEX
  8
0
 10
46.25535582371677
 20
-44.1902366960373
 30
0.0
  0
VERTEX
  8
0
 10
56.931452478126644
 20
-44.1902366960373
 30
0.0
  0
SEQEND
  0
LINE
  8
0
 10
57.09297484704162
 20
-44.58018618969845
 30
0.0
 11
56.931452478126644
 21
-44.1902366960373
 31
0.0
  0
POLYLINE
  8
0
 66
1
 10
0.0
 20
0.0
 30
0.0
 70
8
  0
VERTEX
  8
0
 10
57.09297484704162
 20
-44.58018618969845
 30
0.0
  0
VERTEX
  8
0
 10
53.79078617890044
 20
-47.88237485783963
 30
0.0
  0
VERTEX
  8
0
 10
52.50738737104685
 20
-46.59897604998604
 30
0.0
  0
VERTEX
  8
0
 10
52.03362582765187
 20
-47.07273759338103
 30
0.0
  0
VERTEX
  8
0
 10
55.91467781984621
 20
-50.95378958557537
 30
0.0
  0
VERTEX
  8
0
 10
56.3884393632412
 20
-50.480028042180386
 30
0.0
  0
VERTEX
  8
0
 10
55.10504055538761
 20
-49.1966292343268
 30
0.0
  0
VERTEX
  8
0
 10
58.40722922352879
 20
-45.89444056618562
 30
0.0
  0
SEQEND
  0
LINE
  8
0
 10
60.387128210851124
 20
-45.894440566185644
 30
0.0
 11
58.40722922352879
 21
-45.89444056618562
 31
0.0
  0
POLYLINE
  8
0
 66
1
 10
0.0
 20
0.0
 30
0.0
 70
8
  0
VERTEX
  8
0
 10
60.387128210851124
 20
-45.894440566185644
 30
0.0
  0
VERTEX
  8
0
 10
63.6893168789923
 20
-49.19662923432682
 30
0.0
  0
VERTEX
  8
0
 10
62.405918071138714
 20
-50.48002804218041
 30
0.0
  0
VERTEX
  8
0
 10
62.8796796145337
 20
-50.95378958557539
 30
0.0
  0
VERTEX
  8
0
 10
66.76073160672804
 20
-47.07273759338105
 30
0.0
  0
VERTEX
  8
0
 10
66.28697006333306
 20
-46.598976049986064
 30
0.0
  0
VERTEX
  8
0
 10
65.00357125547947
 20
-47.88237485783965
 30
0.0
  0
VERTEX
  8
0
 10
61.701382587338294
 20
-44.58018618969847
 30
0.0
  0
SEQEND
  0
LINE
  8
0
 10
61.701382587338294
 20
-44.58018618969847
 30
0.0
 11
61.86290495625329
 21
-44.190236696037296
 31
0.0
  0
POLYLINE
  8
0
 66
1
 10
0.0
 20
0.0
 30
0.0
 70
8
  0
VERTEX
  8
0
 10
72.86290495625329
 20
-40.51660033240093
 30
0.0
  0
VERTEX
  8
0
 10
73.53290495625329
 20
-40.51660033240093
 30
0.0
  0
VERTEX
  8
0
 10
73.53290495625329
 20
-42.331600332400924
 30
0.0
  0
VERTEX
  8
0
 10
75.19290495625329
 20
-42.331600332400924
 30
0.0
  0
VERTEX
  8
0
 10
75.19290495625329
 20
-40.51660033240093
 30
0.0
  0
VERTEX
  8
0
 10
75.86290495625329
 20
-40.51660033240093
 30
0.0
  0
VERTEX
  8
0
 10
75.86290495625329
 20
-46.00523669603729
 30
0.0
  0
VERTEX
  8
0
 10
75.19290495625329
 20
-46.00523669603729
 30
0.0
  0
VERTEX
  8
0
 10
75.19290495625329
 20
-44.19023669603729
 30
0.0
  0
VERTEX
  8
0
 10
73.53290495625329
 20
-44.19023669603729
 30
0.0
  0
VERTEX
  8
0
 10
73.53290495625329
 20
-46.00523669603729
 30
0.0
  0
VERTEX
  8
0
 10
72.86290495625329
 20
-46.00523669603729
 30
0.0
  0
VERTEX
  8
0
 10
72.86290495625329
 20
-40.51660033240093
 30
0.0
  0
SEQEND
  0
POLYLINE
  8
0
 66
1
 10
0.0
 20
0.0
 30
0.0
 70
8
  0
VERTEX
  8
0
 10
66.64904087651792
 20
-31.33295994181532
 30
0.0
  0
VERTEX
  8
0
 10
67.1228024199129
 20
-30.859198398420336
 30
0.0
  0
VERTEX
  8
0
 10
68.40620122776649
 20
-32.14259720627392
 30
0.0
  0
VERTEX
  8
0
 10
69.57999848453616
 20
-30.968799949504252
 30
0.0
  0
VERTEX
  8
0
 10
68.29659967668258
 20
-29.68540114165067
 30
0.0
  0
VERTEX
  8
0
 10
68.77036122007756
 20
-29.211639598255683
 30
0.0
  0
VERTEX
  8
0
 10
72.6514132122719
 20
-33.09269159045003
 30
0.0
  0
VERTEX
  8
0
 10
72.17765166887692
 20
-33.566453133845016
 30
0.0
  0
VERTEX
  8
0
 10
70.89425286102333
 20
-32.28305432599143
 30
0.0
  0
VERTEX
  8
0
 10
69.72045560425366
 20
-33.4568515827611
 30
0.0
  0
VERTEX
  8
0
 10
71.00385441210724
 20
-34.74025039061468
 30
0.0
  0
VERTEX
  8
0
 10
70.53009286871226
 20
-35.21401193400967
 30
0.0
  0
VERTEX
  8
0
 10
66.64904087651792
 20
-31.33295994181532
 30
0.0
  0
SEQEND
  0
POLYLINE
  8
0
 66
1
 10
0.0
 20
0.0
 30
0.0
 70
8
  0
VERTEX
  8
0
 10
52.145316557862024
 20
-55.1888770866229
 30
0.0
  0
VERTEX
  8
0
 10
51.67155501446704
 20
-55.66263863001789
 30
0.0
  0
VERTEX
  8
0
 10
50.38815620661345
 20
-54.3792398221643
 30
0.0
  0
VERTEX
  8
0
 10
49.214358949843785
 20
-55.55303707893397
 30
0.0
  0
VERTEX
  8
0
 10
50.49775775769737
 20
-56.836435886787555
 30
0.0
  0
VERTEX
  8
0
 10
50.023996214302386
 20
-57.31019743018254
 30
0.0
  0
VERTEX
  8
0
 10
46.14294422210804
 20
-53.4291454379882
 30
0.0
  0
VERTEX
  8
0
 10
46.61670576550303
 20
-52.95538389459321
 30
0.0
  0
VERTEX
  8
0
 10
47.900104573356614
 20
-54.2387827024468
 30
0.0
  0
VERTEX
  8
0
 10
49.07390183012628
 20
-53.06498544567713
 30
0.0
  0
VERTEX
  8
0
 10
47.790503022272695
 20
-51.781586637823544
 30
0.0
  0
VERTEX
  8
0
 10
48.26426456566768
 20
-51.30782509442856
 30
0.0
  0
VERTEX
  8
0
 10
52.145316557862024
 20
-55.1888770866229
 30
0.0
  0
SEQEND
  0
POLYLINE
  8
0
 66
1
 10
0.0
 20
0.0
 30
0.0
 70
8
  0
VERTEX
  8
0
 10
70.99581910777557
 20
-50.842098855365236
 30
0.0
  0
VERTEX
  8
0
 10
71.46958065117056
 20
-51.31586039876022
 30
0.0
  0
VERTEX
  8
0
 10
70.18618184331697
 20
-52.59925920661381
 30
0.0
  0
VERTEX
  8
0
 10
71.35997910008665
 20
-53.773056463383476
 30
0.0
  0
VERTEX
  8
0
 10
72.64337790794023
 20
-52.48965765552989
 30
0.0
  0
VERTEX
  8
0
 10
73.11713945133522
 20
-52.963419198924875
 30
0.0
  0
VERTEX
  8
0
 10
69.23608745914088
 20
-56.84447119111922
 30
0.0
  0
VERTEX
  8
0
 10
68.76232591574589
 20
-56.37070964772423
 30
0.0
  0
VERTEX
  8
0
 10
70.04572472359948
 20
-55.087310839870646
 30
0.0
  0
VERTEX
  8
0
 10
68.8719274668298
 20
-53.91351358310098
 30
0.0
  0
VERTEX
  8
0
 10
67.58852865897622
 20
-55.196912390954566
 30
0.0
  0
VERTEX
  8
0
 10
67.11476711558123
 20
-54.72315084755958
 30
0.0
  0
VERTEX
  8
0
 10
70.99581910777557
 20
-50.842098855365236
 30
0.0
  0
SEQEND
  0
ENDSEC
  0
EOF
