  0
SECTION
  2
HEADER
  9
$ACADVER
  1
AC1009
  9
$INSBASE
 10
0.0
 20
0.0
 30
0.0
  9
$EXTMIN
 10
0.0
 20
0.0
 30
0.0
  9
$EXTMAX
 10
100.0
 20
100.0
 30
0.0
  9
$UNITMODE
 70
0
  9
$AUNITS
 70
0
  9
$ANGBASE
 50
0.0
  9
$ANGDIR
 70
0
  0
ENDSEC
  0
SECTION
  2
TABLES
  0
TABLE
  2
LTYPE
 70
19
  0
LTYPE
  2
CONTINUOUS
 70
0
  3
Solid
 72
65
 73
0
 40
0.0
  0
LTYPE
  2
CENTER
 70
0
  3
Center ____ _ ____ _ ____ _ ____ _ ____ _ ____
 72
65
 73
4
 40
2.0
 49
1.25
 49
-0.25
 49
0.25
 49
-0.25
  0
LTYPE
  2
CENTERX2
 70
0
  3
Center (2x) ________  __  ________  __  ________
 72
65
 73
4
 40
3.5
 49
2.5
 49
-0.25
 49
0.5
 49
-0.25
  0
LTYPE
  2
CENTER2
 70
0
  3
Center (.5x) ____ _ ____ _ ____ _ ____ _ ____
 72
65
 73
4
 40
1.0
 49
0.625
 49
-0.125
 49
0.125
 49
-0.125
  0
LTYPE
  2
DASHED
 70
0
  3
Dashed __ __ __ __ __ __ __ __ __ __ __ __ __ _
 72
65
 73
2
 40
0.6
 49
0.5
 49
-0.1
  0
LTYPE
  2
DASHEDX2
 70
0
  3
Dashed (2x) ____  ____  ____  ____  ____  ____
 72
65
 73
2
 40
1.2
 49
1.0
 49
-0.2
  0
LTYPE
  2
DASHED2
 70
0
  3
Dashed (.5x) _ _ _ _ _ _ _ _ _ _ _ _ _ _
 72
65
 73
2
 40
0.3
 49
0.25
 49
-0.05
  0
LTYPE
  2
PHANTOM
 70
0
  3
Phantom ______  __  __  ______  __  __  ______
 72
65
 73
6
 40
2.5
 49
1.25
 49
-0.25
 49
0.25
 49
-0.25
 49
0.25
 49
-0.25
  0
LTYPE
  2
PHANTOMX2
 70
0
  3
Phantom (2x)____________    ____    ____    ____________
 72
65
 73
6
 40
4.25
 49
2.5
 49
-0.25
 49
0.5
 49
-0.25
 49
0.5
 49
-0.25
  0
LTYPE
  2
PHANTOM2
 70
0
  3
Phantom (.5x) ___ _ _ ___ _ _ ___ _ _ ___ _ _ ___
 72
65
 73
6
 40
1.25
 49
0.625
 49
-0.125
 49
0.125
 49
-0.125
 49
0.125
 49
-0.125
  0
LTYPE
  2
DASHDOT
 70
0
  3
Dash dot __ . __ . __ . __ . __ . __ . __ . __
 72
65
 73
4
 40
1.4
 49
1.0
 49
-0.2
 49
0.0
 49
-0.2
  0
LTYPE
  2
DASHDOTX2
 70
0
  3
Dash dot (2x) ____  .  ____  .  ____  .  ____
 72
65
 73
4
 40
2.4
 49
2.0
 49
-0.2
 49
0.0
 49
-0.2
  0
LTYPE
  2
DASHDOT2
 70
0
  3
Dash dot (.5x) _ . _ . _ . _ . _ . _ . _ . _
 72
65
 73
4
 40
0.7
 49
0.5
 49
-0.1
 49
0.0
 49
-0.1
  0
LTYPE
  2
DOT
 70
0
  3
Dot .  .  .  .  .  .  .  .  .  .  .  .  .  .  .  .
 72
65
 73
2
 40
0.2
 49
0.0
 49
-0.2
  0
LTYPE
  2
DOTX2
 70
0
  3
Dot (2x) .    .    .    .    .    .    .    . 
 72
65
 73
2
 40
0.4
 49
0.0
 49
-0.4
  0
LTYPE
  2
DOT2
 70
0
  3
Dot (.5) . . . . . . . . . . . . . . . . . . . 
 72
65
 73
2
 40
0.1
 49
0.0
 49
-0.1
  0
LTYPE
  2
DIVIDE
 70
0
  3
Divide __ . . __ . . __ . . __ . . __ . . __
 72
65
 73
6
 40
1.6
 49
1.0
 49
-0.2
 49
0.0
 49
-0.2
 49
0.0
 49
-0.2
  0
LTYPE
  2
DIVIDEX2
 70
0
  3
Divide (2x) ____  . .  ____  . .  ____  . .  ____
 72
65
 73
6
 40
2.6
 49
2.0
 49
-0.2
 49
0.0
 49
-0.2
 49
0.0
 49
-0.2
  0
LTYPE
  2
DIVIDE2
 70
0
  3
Divide(.5x) _ . _ . _ . _ . _ . _ . _ . _
 72
65
 73
6
 40
0.8
 49
0.5
 49
-0.1
 49
0.0
 49
-0.1
 49
0.0
 49
-0.1
  0
ENDTAB
  0
TABLE
  2
LAYER
 70
5
  0
LAYER
  2
DIMENSIONS
 70
0
 62
1
  6
CONTINUOUS
  0
LAYER
  2
TABLEBACKGROUND
 70
0
 62
1
  6
CONTINUOUS
  0
LAYER
  2
TABLECONTENT
 70
0
 62
1
  6
CONTINUOUS
  0
LAYER
  2
TABLEGRID
 70
0
 62
1
  6
CONTINUOUS
  0
LAYER
  2
VIEWPORTS
 70
0
 62
7
  6
CONTINUOUS
  0
ENDTAB
  0
TABLE
  2
STYLE
 70
12
  0
STYLE
  2
STANDARD
 70
0
 40
0.0
 41
1.0
 42
1.0
 50
0.0
 71
0
  3
arial.ttf
  4

  0
STYLE
  2
ARIAL
 70
0
 40
0.0
 41
1.0
 42
1.0
 50
0.0
 71
0
  3
arial.ttf
  4

  0
STYLE
  2
ARIAL_BOLD
 70
0
 40
0.0
 41
1.0
 42
1.0
 50
0.0
 71
0
  3
arialbd.ttf
  4

  0
STYLE
  2
ARIAL_ITALIC
 70
0
 40
0.0
 41
1.0
 42
1.0
 50
0.0
 71
0
  3
ariali.ttf
  4

  0
STYLE
  2
ARIAL_BOLD_ITALIC
 70
0
 40
0.0
 41
1.0
 42
1.0
 50
0.0
 71
0
  3
arialbi.ttf
  4

  0
STYLE
  2
ARIAL_BLACK
 70
0
 40
0.0
 41
1.0
 42
1.0
 50
0.0
 71
0
  3
ariblk.ttf
  4

  0
STYLE
  2
ISOCPEUR
 70
0
 40
0.0
 41
1.0
 42
1.0
 50
0.0
 71
0
  3
isocpeur.ttf
  4

  0
STYLE
  2
ISOCPEUR_ITALIC
 70
0
 40
0.0
 41
1.0
 42
1.0
 50
0.0
 71
0
  3
isocpeui.ttf
  4

  0
STYLE
  2
TIMES
 70
0
 40
0.0
 41
1.0
 42
1.0
 50
0.0
 71
0
  3
times.ttf
  4

  0
STYLE
  2
TIMES_BOLD
 70
0
 40
0.0
 41
1.0
 42
1.0
 50
0.0
 71
0
  3
timesbd.ttf
  4

  0
STYLE
  2
TIMES_ITALIC
 70
0
 40
0.0
 41
1.0
 42
1.0
 50
0.0
 71
0
  3
timesi.ttf
  4

  0
STYLE
  2
TIMES_BOLD_ITALIC
 70
0
 40
0.0
 41
1.0
 42
1.0
 50
0.0
 71
0
  3
timesbi.ttf
  4

  0
ENDTAB
  0
TABLE
  2
VIEW
 70
0
  0
ENDTAB
  0
TABLE
  2
APPID
 70
1
  0
APPID
  2
DXFWRITE
 70
0
  0
ENDTAB
  0
TABLE
  2
VPORT
 70
0
  0
ENDTAB
  0
TABLE
  2
UCS
 70
0
  0
ENDTAB
  0
ENDSEC
  0
SECTION
  2
BLOCKS
  0
ENDSEC
  0
SECTION
  2
ENTITIES
  0
VIEWPORT
  8
VIEWPORTS
 67
1
 10
0.0
 20
0.0
 30
0.0
 40
1.0
 41
1.0
 68
1
 69
1
1001
ACAD
1000
MVIEW
1002
{
1070
16
1010
0.0
1020
0.0
1030
0.0
1010
0.0
1020
0.0
1030
0.0
1040
0.0
1040
1.0
1040
0.0
1040
0.0
1040
50.0
1040
0.0
1040
0.0
1070
0
1070
100
1070
1
1070
3
1070
0
1070
0
1070
0
1070
0
1040
0.0
1040
0.0
1040
0.0
1040
0.1
1040
0.1
1040
0.1
1040
0.1
1070
0
1002
{
1002
}
1002
}
  0
LINE
  8
0
 10
22.56920350996926
 20
0.6
 30
0.0
 11
33.64340701993852
 21
0.6
 31
0.0
  0
LINE
  8
0
 10
59.70761052990778
 20
0.6
 30
0.0
 11
48.633407019938524
 21
0.5999999999999986
 31
0.0
  0
POLYLINE
  8
0
 66
1
 10
0.0
 20
0.0
 30
0.0
 70
8
  0
VERTEX
  8
0
 10
33.64340701993852
 20
0.6
 30
0.0
  0
VERTEX
  8
0
 10
33.64340701993852
 20
2.415
 30
0.0
  0
VERTEX
  8
0
 10
39.97340701993852
 20
2.415
 30
0.0
  0
VERTEX
  8
0
 10
39.97340701993852
 20
0.6000000000000001
 30
0.0
  0
VERTEX
  8
0
 10
42.30340701993852
 20
0.6000000000000001
 30
0.0
  0
SEQEND
  0
POLYLINE
  8
0
 66
1
 10
0.0
 20
0.0
 30
0.0
 70
8
  0
VERTEX
  8
0
 10
42.30340701993852
 20
0.6000000000000001
 30
0.0
  0
VERTEX
  8
0
 10
42.30340701993852
 20
2.415
 30
0.0
  0
VERTEX
  8
0
 10
48.63340701993852
 20
2.415
 30
0.0
  0
VERTEX
  8
0
 10
48.63340701993852
 20
0.6000000000000001
 30
0.0
  0
SEQEND
  0
LINE
  8
0
 10
22.56920350996926
 20
-0.6
 30
0.0
 11
33.64340701993852
 21
-0.6
 31
0.0
  0
LINE
  8
0
 10
59.70761052990778
 20
-0.6
 30
0.0
 11
48.633407019938524
 21
-0.6000000000000013
 31
0.0
  0
POLYLINE
  8
0
 66
1
 10
0.0
 20
0.0
 30
0.0
 70
8
  0
VERTEX
  8
0
 10
33.64340701993852
 20
-0.6
 30
0.0
  0
VERTEX
  8
0
 10
33.64340701993852
 20
-2.415
 30
0.0
  0
VERTEX
  8
0
 10
39.97340701993852
 20
-2.415
 30
0.0
  0
VERTEX
  8
0
 10
39.97340701993852
 20
-0.6000000000000001
 30
0.0
  0
VERTEX
  8
0
 10
42.30340701993852
 20
-0.6000000000000001
 30
0.0
  0
SEQEND
  0
POLYLINE
  8
0
 66
1
 10
0.0
 20
0.0
 30
0.0
 70
8
  0
VERTEX
  8
0
 10
42.30340701993852
 20
-0.6000000000000001
 30
0.0
  0
VERTEX
  8
0
 10
42.30340701993852
 20
-2.415
 30
0.0
  0
VERTEX
  8
0
 10
48.63340701993852
 20
-2.415
 30
0.0
  0
VERTEX
  8
0
 10
48.63340701993852
 20
-0.6000000000000001
 30
0.0
  0
SEQEND
  0
LINE
  8
0
 10
22.56920350996926
 20
-0.6
 30
0.0
 11
21.611377224748107
 21
-0.3126521144336546
 31
0.0
  0
LINE
  8
0
 10
22.56920350996926
 20
0.6
 30
0.0
 11
21.611377224748107
 21
0.3126521144336546
 31
0.0
  0
LINE
  8
0
 10
21.611377224748107
 20
-0.3126521144336546
 30
0.0
 11
21.611377224748107
 21
0.3126521144336546
 31
0.0
  0
LINE
  8
0
 10
21.395152063470952
 20
1.9177614520498798
 30
0.0
 11
25.57648546448189
 21
6.900880554538832
 31
0.0
  0
LINE
  8
0
 10
39.39320513469405
 20
23.367005859381266
 30
0.0
 11
35.21187173368311
 21
18.383886756892313
 31
0.0
  0
POLYLINE
  8
0
 66
1
 10
0.0
 20
0.0
 30
0.0
 70
8
  0
VERTEX
  8
0
 10
25.57648546448189
 20
6.900880554538832
 30
0.0
  0
VERTEX
  8
0
 10
24.186114800220945
 20
8.0675400661199
 30
0.0
  0
VERTEX
  8
0
 10
28.25496036953674
 20
12.91660139106303
 30
0.0
  0
VERTEX
  8
0
 10
29.645331033797685
 20
11.74994187948196
 30
0.0
  0
VERTEX
  8
0
 10
31.14302616436732
 20
13.53482543194918
 30
0.0
  0
SEQEND
  0
POLYLINE
  8
0
 66
1
 10
0.0
 20
0.0
 30
0.0
 70
8
  0
VERTEX
  8
0
 10
31.14302616436732
 20
13.53482543194918
 30
0.0
  0
VERTEX
  8
0
 10
29.752655500106375
 20
14.70148494353025
 30
0.0
  0
VERTEX
  8
0
 10
33.82150106942217
 20
19.550546268473383
 30
0.0
  0
VERTEX
  8
0
 10
35.21187173368311
 20
18.383886756892313
 30
0.0
  0
SEQEND
  0
LINE
  8
0
 10
22.314405395213726
 20
1.1464163204260325
 30
0.0
 11
26.495738796224664
 21
6.1295354229149845
 31
0.0
  0
LINE
  8
0
 10
40.31245846643683
 20
22.59566072775742
 30
0.0
 11
36.13112506542589
 21
17.612541625268467
 31
0.0
  0
POLYLINE
  8
0
 66
1
 10
0.0
 20
0.0
 30
0.0
 70
8
  0
VERTEX
  8
0
 10
26.495738796224664
 20
6.1295354229149845
 30
0.0
  0
VERTEX
  8
0
 10
27.88610946048561
 20
4.962875911333915
 30
0.0
  0
VERTEX
  8
0
 10
31.954955029801404
 20
9.811937236277046
 30
0.0
  0
VERTEX
  8
0
 10
30.56458436554046
 20
10.978596747858116
 30
0.0
  0
VERTEX
  8
0
 10
32.062279496110094
 20
12.763480300325336
 30
0.0
  0
SEQEND
  0
POLYLINE
  8
0
 66
1
 10
0.0
 20
0.0
 30
0.0
 70
8
  0
VERTEX
  8
0
 10
32.062279496110094
 20
12.763480300325336
 30
0.0
  0
VERTEX
  8
0
 10
33.452650160371036
 20
11.596820788744267
 30
0.0
  0
VERTEX
  8
0
 10
37.52149572968683
 20
16.445882113687396
 30
0.0
  0
VERTEX
  8
0
 10
36.13112506542589
 20
17.612541625268467
 30
0.0
  0
SEQEND
  0
LINE
  8
0
 10
22.314405395213726
 20
1.1464163204260325
 30
0.0
 11
21.478605275861398
 21
0.5973824776707486
 31
0.0
  0
LINE
  8
0
 10
21.395152063470952
 20
1.9177614520498798
 30
0.0
 11
20.9995944460788
 21
0.9993202882712512
 31
0.0
  0
LINE
  8
0
 10
21.478605275861398
 20
0.5973824776707486
 30
0.0
 11
20.9995944460788
 21
0.9993202882712512
 31
0.0
  0
LINE
  8
0
 10
18.824001624724794
 20
1.1464163204260325
 30
0.0
 11
14.642668223713855
 21
6.1295354229149845
 31
0.0
  0
LINE
  8
0
 10
0.8259485535016926
 20
22.59566072775742
 30
0.0
 11
5.0072819545126315
 21
17.612541625268467
 31
0.0
  0
POLYLINE
  8
0
 66
1
 10
0.0
 20
0.0
 30
0.0
 70
8
  0
VERTEX
  8
0
 10
14.642668223713855
 20
6.1295354229149845
 30
0.0
  0
VERTEX
  8
0
 10
13.25229755945291
 20
4.962875911333915
 30
0.0
  0
VERTEX
  8
0
 10
9.183451990137115
 20
9.811937236277046
 30
0.0
  0
VERTEX
  8
0
 10
10.573822654398061
 20
10.978596747858115
 30
0.0
  0
VERTEX
  8
0
 10
9.076127523828424
 20
12.763480300325334
 30
0.0
  0
SEQEND
  0
POLYLINE
  8
0
 66
1
 10
0.0
 20
0.0
 30
0.0
 70
8
  0
VERTEX
  8
0
 10
9.076127523828424
 20
12.763480300325334
 30
0.0
  0
VERTEX
  8
0
 10
7.685756859567479
 20
11.596820788744266
 30
0.0
  0
VERTEX
  8
0
 10
3.616911290251685
 20
16.445882113687396
 30
0.0
  0
VERTEX
  8
0
 10
5.00728195451263
 20
17.612541625268467
 30
0.0
  0
SEQEND
  0
LINE
  8
0
 10
19.743254956467567
 20
1.9177614520498796
 30
0.0
 11
15.561921555456628
 21
6.900880554538832
 31
0.0
  0
LINE
  8
0
 10
1.7452018852444662
 20
23.367005859381266
 30
0.0
 11
5.926535286255405
 21
18.383886756892313
 31
0.0
  0
POLYLINE
  8
0
 66
1
 10
0.0
 20
0.0
 30
0.0
 70
8
  0
VERTEX
  8
0
 10
15.561921555456628
 20
6.900880554538832
 30
0.0
  0
VERTEX
  8
0
 10
16.952292219717574
 20
8.0675400661199
 30
0.0
  0
VERTEX
  8
0
 10
12.88344665040178
 20
12.91660139106303
 30
0.0
  0
VERTEX
  8
0
 10
11.493075986140834
 20
11.749941879481963
 30
0.0
  0
VERTEX
  8
0
 10
9.995380855571197
 20
13.534825431949182
 30
0.0
  0
SEQEND
  0
POLYLINE
  8
0
 66
1
 10
0.0
 20
0.0
 30
0.0
 70
8
  0
VERTEX
  8
0
 10
9.995380855571197
 20
13.534825431949182
 30
0.0
  0
VERTEX
  8
0
 10
11.385751519832143
 20
14.70148494353025
 30
0.0
  0
VERTEX
  8
0
 10
7.3169059505163485
 20
19.550546268473383
 30
0.0
  0
VERTEX
  8
0
 10
5.926535286255404
 20
18.383886756892313
 30
0.0
  0
SEQEND
  0
LINE
  8
0
 10
19.743254956467567
 20
1.9177614520498796
 30
0.0
 11
20.13881257385972
 21
0.999320288271251
 31
0.0
  0
LINE
  8
0
 10
18.824001624724794
 20
1.1464163204260325
 30
0.0
 11
19.65980174407712
 21
0.5973824776707486
 31
0.0
  0
LINE
  8
0
 10
20.13881257385972
 20
0.999320288271251
 30
0.0
 11
19.65980174407712
 21
0.5973824776707486
 31
0.0
  0
LINE
  8
0
 10
18.56920350996926
 20
-0.5999999999999998
 30
0.0
 11
7.495000000000001
 21
-0.5999999999999984
 31
0.0
  0
LINE
  8
0
 10
-18.56920350996926
 20
-0.5999999999999952
 30
0.0
 11
-7.495000000000001
 21
-0.5999999999999952
 31
0.0
  0
POLYLINE
  8
0
 66
1
 10
0.0
 20
0.0
 30
0.0
 70
8
  0
VERTEX
  8
0
 10
7.495000000000001
 20
-0.5999999999999984
 30
0.0
  0
VERTEX
  8
0
 10
7.495000000000001
 20
-2.4149999999999983
 30
0.0
  0
VERTEX
  8
0
 10
1.165000000000001
 20
-2.4149999999999974
 30
0.0
  0
VERTEX
  8
0
 10
1.1650000000000016
 20
-0.5999999999999974
 30
0.0
  0
VERTEX
  8
0
 10
-1.1649999999999985
 20
-0.5999999999999971
 30
0.0
  0
SEQEND
  0
POLYLINE
  8
0
 66
1
 10
0.0
 20
0.0
 30
0.0
 70
8
  0
VERTEX
  8
0
 10
-1.1649999999999985
 20
-0.5999999999999971
 30
0.0
  0
VERTEX
  8
0
 10
-1.164999999999999
 20
-2.414999999999997
 30
0.0
  0
VERTEX
  8
0
 10
-7.494999999999999
 20
-2.414999999999996
 30
0.0
  0
VERTEX
  8
0
 10
-7.494999999999998
 20
-0.5999999999999961
 30
0.0
  0
SEQEND
  0
LINE
  8
0
 10
18.56920350996926
 20
0.6000000000000002
 30
0.0
 11
7.495000000000001
 21
0.6000000000000015
 31
0.0
  0
LINE
  8
0
 10
-18.56920350996926
 20
0.6000000000000048
 30
0.0
 11
-7.495000000000001
 21
0.6000000000000048
 31
0.0
  0
POLYLINE
  8
0
 66
1
 10
0.0
 20
0.0
 30
0.0
 70
8
  0
VERTEX
  8
0
 10
7.495000000000001
 20
0.6000000000000015
 30
0.0
  0
VERTEX
  8
0
 10
7.495000000000001
 20
2.4150000000000014
 30
0.0
  0
VERTEX
  8
0
 10
1.165000000000001
 20
2.4150000000000023
 30
0.0
  0
VERTEX
  8
0
 10
1.1650000000000005
 20
0.6000000000000023
 30
0.0
  0
VERTEX
  8
0
 10
-1.1649999999999996
 20
0.6000000000000026
 30
0.0
  0
SEQEND
  0
POLYLINE
  8
0
 66
1
 10
0.0
 20
0.0
 30
0.0
 70
8
  0
VERTEX
  8
0
 10
-1.1649999999999996
 20
0.6000000000000026
 30
0.0
  0
VERTEX
  8
0
 10
-1.1649999999999994
 20
2.4150000000000027
 30
0.0
  0
VERTEX
  8
0
 10
-7.494999999999999
 20
2.4150000000000036
 30
0.0
  0
VERTEX
  8
0
 10
-7.494999999999999
 20
0.6000000000000036
 30
0.0
  0
SEQEND
  0
LINE
  8
0
 10
18.56920350996926
 20
0.6000000000000002
 30
0.0
 11
19.527029795190412
 21
0.3126521144336547
 31
0.0
  0
LINE
  8
0
 10
18.56920350996926
 20
-0.5999999999999998
 30
0.0
 11
19.527029795190412
 21
-0.3126521144336544
 31
0.0
  0
LINE
  8
0
 10
19.527029795190412
 20
0.3126521144336547
 30
0.0
 11
19.527029795190412
 21
-0.3126521144336544
 31
0.0
  0
LINE
  8
0
 10
19.743254956467567
 20
-1.9177614520498796
 30
0.0
 11
15.561921555456628
 21
-6.900880554538831
 31
0.0
  0
LINE
  8
0
 10
1.7452018852444624
 20
-23.36700585938126
 30
0.0
 11
5.926535286255401
 21
-18.383886756892306
 31
0.0
  0
POLYLINE
  8
0
 66
1
 10
0.0
 20
0.0
 30
0.0
 70
8
  0
VERTEX
  8
0
 10
15.561921555456628
 20
-6.900880554538831
 30
0.0
  0
VERTEX
  8
0
 10
16.952292219717574
 20
-8.0675400661199
 30
0.0
  0
VERTEX
  8
0
 10
12.88344665040178
 20
-12.916601391063029
 30
0.0
  0
VERTEX
  8
0
 10
11.493075986140834
 20
-11.74994187948196
 30
0.0
  0
VERTEX
  8
0
 10
9.995380855571197
 20
-13.53482543194918
 30
0.0
  0
SEQEND
  0
POLYLINE
  8
0
 66
1
 10
0.0
 20
0.0
 30
0.0
 70
8
  0
VERTEX
  8
0
 10
9.995380855571197
 20
-13.53482543194918
 30
0.0
  0
VERTEX
  8
0
 10
11.38575151983214
 20
-14.70148494353025
 30
0.0
  0
VERTEX
  8
0
 10
7.316905950516346
 20
-19.55054626847338
 30
0.0
  0
VERTEX
  8
0
 10
5.9265352862554
 20
-18.38388675689231
 30
0.0
  0
SEQEND
  0
LINE
  8
0
 10
18.824001624724794
 20
-1.1464163204260323
 30
0.0
 11
14.642668223713855
 21
-6.129535422914984
 31
0.0
  0
LINE
  8
0
 10
0.825948553501689
 20
-22.595660727757412
 30
0.0
 11
5.007281954512628
 21
-17.61254162526846
 31
0.0
  0
POLYLINE
  8
0
 66
1
 10
0.0
 20
0.0
 30
0.0
 70
8
  0
VERTEX
  8
0
 10
14.642668223713855
 20
-6.129535422914984
 30
0.0
  0
VERTEX
  8
0
 10
13.25229755945291
 20
-4.9628759113339145
 30
0.0
  0
VERTEX
  8
0
 10
9.183451990137115
 20
-9.811937236277045
 30
0.0
  0
VERTEX
  8
0
 10
10.57382265439806
 20
-10.978596747858115
 30
0.0
  0
VERTEX
  8
0
 10
9.076127523828422
 20
-12.763480300325334
 30
0.0
  0
SEQEND
  0
POLYLINE
  8
0
 66
1
 10
0.0
 20
0.0
 30
0.0
 70
8
  0
VERTEX
  8
0
 10
9.076127523828422
 20
-12.763480300325334
 30
0.0
  0
VERTEX
  8
0
 10
7.685756859567477
 20
-11.596820788744264
 30
0.0
  0
VERTEX
  8
0
 10
3.6169112902516822
 20
-16.445882113687393
 30
0.0
  0
VERTEX
  8
0
 10
5.007281954512627
 20
-17.612541625268463
 30
0.0
  0
SEQEND
  0
LINE
  8
0
 10
18.824001624724794
 20
-1.1464163204260323
 30
0.0
 11
19.65980174407712
 21
-0.5973824776707485
 31
0.0
  0
LINE
  8
0
 10
19.743254956467567
 20
-1.9177614520498796
 30
0.0
 11
20.13881257385972
 21
-0.999320288271251
 31
0.0
  0
LINE
  8
0
 10
19.65980174407712
 20
-0.5973824776707485
 30
0.0
 11
20.13881257385972
 21
-0.999320288271251
 31
0.0
  0
LINE
  8
0
 10
22.314405395213726
 20
-1.1464163204260325
 30
0.0
 11
26.495738796224664
 21
-6.1295354229149845
 31
0.0
  0
LINE
  8
0
 10
40.31245846643683
 20
-22.59566072775742
 30
0.0
 11
36.13112506542589
 21
-17.61254162526847
 31
0.0
  0
POLYLINE
  8
0
 66
1
 10
0.0
 20
0.0
 30
0.0
 70
8
  0
VERTEX
  8
0
 10
26.495738796224664
 20
-6.1295354229149845
 30
0.0
  0
VERTEX
  8
0
 10
27.88610946048561
 20
-4.962875911333915
 30
0.0
  0
VERTEX
  8
0
 10
31.954955029801404
 20
-9.811937236277046
 30
0.0
  0
VERTEX
  8
0
 10
30.56458436554046
 20
-10.978596747858115
 30
0.0
  0
VERTEX
  8
0
 10
32.062279496110094
 20
-12.763480300325334
 30
0.0
  0
SEQEND
  0
POLYLINE
  8
0
 66
1
 10
0.0
 20
0.0
 30
0.0
 70
8
  0
VERTEX
  8
0
 10
32.062279496110094
 20
-12.763480300325334
 30
0.0
  0
VERTEX
  8
0
 10
33.452650160371036
 20
-11.596820788744266
 30
0.0
  0
VERTEX
  8
0
 10
37.52149572968683
 20
-16.445882113687396
 30
0.0
  0
VERTEX
  8
0
 10
36.13112506542589
 20
-17.612541625268467
 30
0.0
  0
SEQEND
  0
LINE
  8
0
 10
21.395152063470952
 20
-1.9177614520498798
 30
0.0
 11
25.57648546448189
 21
-6.900880554538832
 31
0.0
  0
LINE
  8
0
 10
39.39320513469405
 20
-23.367005859381266
 30
0.0
 11
35.21187173368311
 21
-18.383886756892316
 31
0.0
  0
POLYLINE
  8
0
 66
1
 10
0.0
 20
0.0
 30
0.0
 70
8
  0
VERTEX
  8
0
 10
25.57648546448189
 20
-6.900880554538832
 30
0.0
  0
VERTEX
  8
0
 10
24.186114800220945
 20
-8.0675400661199
 30
0.0
  0
VERTEX
  8
0
 10
28.25496036953674
 20
-12.91660139106303
 30
0.0
  0
VERTEX
  8
0
 10
29.645331033797685
 20
-11.749941879481963
 30
0.0
  0
VERTEX
  8
0
 10
31.14302616436732
 20
-13.534825431949182
 30
0.0
  0
SEQEND
  0
POLYLINE
  8
0
 66
1
 10
0.0
 20
0.0
 30
0.0
 70
8
  0
VERTEX
  8
0
 10
31.14302616436732
 20
-13.534825431949182
 30
0.0
  0
VERTEX
  8
0
 10
29.752655500106375
 20
-14.70148494353025
 30
0.0
  0
VERTEX
  8
0
 10
33.82150106942217
 20
-19.550546268473383
 30
0.0
  0
VERTEX
  8
0
 10
35.21187173368311
 20
-18.383886756892313
 30
0.0
  0
SEQEND
  0
LINE
  8
0
 10
21.395152063470952
 20
-1.9177614520498798
 30
0.0
 11
20.9995944460788
 21
-0.9993202882712512
 31
0.0
  0
LINE
  8
0
 10
22.314405395213726
 20
-1.1464163204260325
 30
0.0
 11
21.478605275861398
 21
-0.5973824776707486
 31
0.0
  0
LINE
  8
0
 10
20.9995944460788
 20
-0.9993202882712512
 30
0.0
 11
21.478605275861398
 21
-0.5973824776707486
 31
0.0
  0
LINE
  8
0
 10
63.70761052990778
 20
0.6
 30
0.0
 11
74.78181403987705
 21
0.6
 31
0.0
  0
LINE
  8
0
 10
100.8460175498463
 20
0.6
 30
0.0
 11
89.77181403987703
 21
0.5999999999999986
 31
0.0
  0
POLYLINE
  8
0
 66
1
 10
0.0
 20
0.0
 30
0.0
 70
8
  0
VERTEX
  8
0
 10
74.78181403987705
 20
0.6
 30
0.0
  0
VERTEX
  8
0
 10
74.78181403987705
 20
2.415
 30
0.0
  0
VERTEX
  8
0
 10
81.11181403987705
 20
2.415
 30
0.0
  0
VERTEX
  8
0
 10
81.11181403987705
 20
0.6000000000000001
 30
0.0
  0
VERTEX
  8
0
 10
83.44181403987704
 20
0.6000000000000001
 30
0.0
  0
SEQEND
  0
POLYLINE
  8
0
 66
1
 10
0.0
 20
0.0
 30
0.0
 70
8
  0
VERTEX
  8
0
 10
83.44181403987704
 20
0.6000000000000001
 30
0.0
  0
VERTEX
  8
0
 10
83.44181403987704
 20
2.415
 30
0.0
  0
VERTEX
  8
0
 10
89.77181403987704
 20
2.415
 30
0.0
  0
VERTEX
  8
0
 10
89.77181403987704
 20
0.6000000000000001
 30
0.0
  0
SEQEND
  0
LINE
  8
0
 10
63.70761052990778
 20
-0.6
 30
0.0
 11
74.78181403987705
 21
-0.6
 31
0.0
  0
LINE
  8
0
 10
100.8460175498463
 20
-0.6
 30
0.0
 11
89.77181403987703
 21
-0.6000000000000013
 31
0.0
  0
POLYLINE
  8
0
 66
1
 10
0.0
 20
0.0
 30
0.0
 70
8
  0
VERTEX
  8
0
 10
74.78181403987705
 20
-0.6
 30
0.0
  0
VERTEX
  8
0
 10
74.78181403987705
 20
-2.415
 30
0.0
  0
VERTEX
  8
0
 10
81.11181403987705
 20
-2.415
 30
0.0
  0
VERTEX
  8
0
 10
81.11181403987705
 20
-0.6000000000000001
 30
0.0
  0
VERTEX
  8
0
 10
83.44181403987704
 20
-0.6000000000000001
 30
0.0
  0
SEQEND
  0
POLYLINE
  8
0
 66
1
 10
0.0
 20
0.0
 30
0.0
 70
8
  0
VERTEX
  8
0
 10
83.44181403987704
 20
-0.6000000000000001
 30
0.0
  0
VERTEX
  8
0
 10
83.44181403987704
 20
-2.415
 30
0.0
  0
VERTEX
  8
0
 10
89.77181403987704
 20
-2.415
 30
0.0
  0
VERTEX
  8
0
 10
89.77181403987704
 20
-0.6000000000000001
 30
0.0
  0
SEQEND
  0
LINE
  8
0
 10
63.70761052990778
 20
-0.6
 30
0.0
 11
62.74978424468663
 21
-0.3126521144336546
 31
0.0
  0
LINE
  8
0
 10
63.70761052990778
 20
0.6
 30
0.0
 11
62.74978424468663
 21
0.3126521144336546
 31
0.0
  0
LINE
  8
0
 10
62.74978424468663
 20
-0.3126521144336546
 30
0.0
 11
62.74978424468663
 21
0.3126521144336546
 31
0.0
  0
LINE
  8
0
 10
62.53355908340947
 20
1.9177614520498798
 30
0.0
 11
66.7148924844204
 21
6.900880554538832
 31
0.0
  0
LINE
  8
0
 10
80.53161215463258
 20
23.367005859381266
 30
0.0
 11
76.35027875362164
 21
18.383886756892313
 31
0.0
  0
POLYLINE
  8
0
 66
1
 10
0.0
 20
0.0
 30
0.0
 70
8
  0
VERTEX
  8
0
 10
66.7148924844204
 20
6.900880554538832
 30
0.0
  0
VERTEX
  8
0
 10
65.32452182015946
 20
8.0675400661199
 30
0.0
  0
VERTEX
  8
0
 10
69.39336738947526
 20
12.91660139106303
 30
0.0
  0
VERTEX
  8
0
 10
70.7837380537362
 20
11.74994187948196
 30
0.0
  0
VERTEX
  8
0
 10
72.28143318430584
 20
13.53482543194918
 30
0.0
  0
SEQEND
  0
POLYLINE
  8
0
 66
1
 10
0.0
 20
0.0
 30
0.0
 70
8
  0
VERTEX
  8
0
 10
72.28143318430584
 20
13.53482543194918
 30
0.0
  0
VERTEX
  8
0
 10
70.8910625200449
 20
14.70148494353025
 30
0.0
  0
VERTEX
  8
0
 10
74.9599080893607
 20
19.550546268473383
 30
0.0
  0
VERTEX
  8
0
 10
76.35027875362164
 20
18.383886756892313
 30
0.0
  0
SEQEND
  0
LINE
  8
0
 10
63.45281241515225
 20
1.1464163204260325
 30
0.0
 11
67.6341458161632
 21
6.1295354229149845
 31
0.0
  0
LINE
  8
0
 10
81.45086548637535
 20
22.59566072775742
 30
0.0
 11
77.2695320853644
 21
17.612541625268467
 31
0.0
  0
POLYLINE
  8
0
 66
1
 10
0.0
 20
0.0
 30
0.0
 70
8
  0
VERTEX
  8
0
 10
67.6341458161632
 20
6.1295354229149845
 30
0.0
  0
VERTEX
  8
0
 10
69.02451648042414
 20
4.962875911333915
 30
0.0
  0
VERTEX
  8
0
 10
73.09336204973994
 20
9.811937236277046
 30
0.0
  0
VERTEX
  8
0
 10
71.702991385479
 20
10.978596747858116
 30
0.0
  0
VERTEX
  8
0
 10
73.20068651604863
 20
12.763480300325336
 30
0.0
  0
SEQEND
  0
POLYLINE
  8
0
 66
1
 10
0.0
 20
0.0
 30
0.0
 70
8
  0
VERTEX
  8
0
 10
73.20068651604863
 20
12.763480300325336
 30
0.0
  0
VERTEX
  8
0
 10
74.59105718030958
 20
11.596820788744267
 30
0.0
  0
VERTEX
  8
0
 10
78.65990274962537
 20
16.445882113687396
 30
0.0
  0
VERTEX
  8
0
 10
77.26953208536443
 20
17.612541625268467
 30
0.0
  0
SEQEND
  0
LINE
  8
0
 10
63.45281241515225
 20
1.1464163204260325
 30
0.0
 11
62.617012295799924
 21
0.5973824776707494
 31
0.0
  0
LINE
  8
0
 10
62.53355908340947
 20
1.9177614520498798
 30
0.0
 11
62.13800146601732
 21
0.9993202882712506
 31
0.0
  0
LINE
  8
0
 10
62.617012295799924
 20
0.5973824776707494
 30
0.0
 11
62.13800146601732
 21
0.9993202882712506
 31
0.0
  0
LINE
  8
0
 10
59.96240864466331
 20
1.1464163204260325
 30
0.0
 11
55.781075243652374
 21
6.1295354229149845
 31
0.0
  0
LINE
  8
0
 10
41.96435557344021
 20
22.59566072775742
 30
0.0
 11
46.14568897445115
 21
17.612541625268467
 31
0.0
  0
POLYLINE
  8
0
 66
1
 10
0.0
 20
0.0
 30
0.0
 70
8
  0
VERTEX
  8
0
 10
55.781075243652374
 20
6.1295354229149845
 30
0.0
  0
VERTEX
  8
0
 10
54.39070457939143
 20
4.962875911333915
 30
0.0
  0
VERTEX
  8
0
 10
50.32185901007564
 20
9.811937236277046
 30
0.0
  0
VERTEX
  8
0
 10
51.712229674336584
 20
10.978596747858115
 30
0.0
  0
VERTEX
  8
0
 10
50.214534543766945
 20
12.763480300325334
 30
0.0
  0
SEQEND
  0
POLYLINE
  8
0
 66
1
 10
0.0
 20
0.0
 30
0.0
 70
8
  0
VERTEX
  8
0
 10
50.214534543766945
 20
12.763480300325334
 30
0.0
  0
VERTEX
  8
0
 10
48.824163879506
 20
11.596820788744266
 30
0.0
  0
VERTEX
  8
0
 10
44.755318310190205
 20
16.445882113687396
 30
0.0
  0
VERTEX
  8
0
 10
46.14568897445115
 20
17.612541625268467
 30
0.0
  0
SEQEND
  0
LINE
  8
0
 10
60.88166197640609
 20
1.9177614520498796
 30
0.0
 11
56.700328575395154
 21
6.900880554538832
 31
0.0
  0
LINE
  8
0
 10
42.88360890518299
 20
23.367005859381266
 30
0.0
 11
47.06494230619393
 21
18.383886756892313
 31
0.0
  0
POLYLINE
  8
0
 66
1
 10
0.0
 20
0.0
 30
0.0
 70
8
  0
VERTEX
  8
0
 10
56.700328575395154
 20
6.900880554538832
 30
0.0
  0
VERTEX
  8
0
 10
58.0906992396561
 20
8.0675400661199
 30
0.0
  0
VERTEX
  8
0
 10
54.021853670340306
 20
12.91660139106303
 30
0.0
  0
VERTEX
  8
0
 10
52.631483006079364
 20
11.749941879481963
 30
0.0
  0
VERTEX
  8
0
 10
51.133787875509725
 20
13.534825431949182
 30
0.0
  0
SEQEND
  0
POLYLINE
  8
0
 66
1
 10
0.0
 20
0.0
 30
0.0
 70
8
  0
VERTEX
  8
0
 10
51.133787875509725
 20
13.534825431949182
 30
0.0
  0
VERTEX
  8
0
 10
52.52415853977067
 20
14.70148494353025
 30
0.0
  0
VERTEX
  8
0
 10
48.45531297045487
 20
19.550546268473383
 30
0.0
  0
VERTEX
  8
0
 10
47.06494230619393
 20
18.383886756892313
 30
0.0
  0
SEQEND
  0
LINE
  8
0
 10
60.88166197640609
 20
1.9177614520498796
 30
0.0
 11
61.27721959379824
 21
0.9993202882712505
 31
0.0
  0
LINE
  8
0
 10
59.96240864466331
 20
1.1464163204260325
 30
0.0
 11
60.79820876401564
 21
0.5973824776707494
 31
0.0
  0
LINE
  8
0
 10
61.27721959379824
 20
0.9993202882712505
 30
0.0
 11
60.79820876401564
 21
0.5973824776707494
 31
0.0
  0
LINE
  8
0
 10
59.70761052990778
 20
0.6000000000000002
 30
0.0
 11
60.665436815128935
 21
0.3126521144336547
 31
0.0
  0
LINE
  8
0
 10
59.70761052990778
 20
-0.5999999999999998
 30
0.0
 11
60.665436815128935
 21
-0.3126521144336544
 31
0.0
  0
LINE
  8
0
 10
60.665436815128935
 20
0.3126521144336547
 30
0.0
 11
60.665436815128935
 21
-0.3126521144336544
 31
0.0
  0
LINE
  8
0
 10
60.88166197640609
 20
-1.9177614520498796
 30
0.0
 11
56.700328575395154
 21
-6.900880554538831
 31
0.0
  0
LINE
  8
0
 10
42.88360890518299
 20
-23.36700585938126
 30
0.0
 11
47.06494230619393
 21
-18.383886756892306
 31
0.0
  0
POLYLINE
  8
0
 66
1
 10
0.0
 20
0.0
 30
0.0
 70
8
  0
VERTEX
  8
0
 10
56.700328575395154
 20
-6.900880554538831
 30
0.0
  0
VERTEX
  8
0
 10
58.0906992396561
 20
-8.0675400661199
 30
0.0
  0
VERTEX
  8
0
 10
54.0218536703403
 20
-12.916601391063029
 30
0.0
  0
VERTEX
  8
0
 10
52.63148300607935
 20
-11.74994187948196
 30
0.0
  0
VERTEX
  8
0
 10
51.13378787550971
 20
-13.53482543194918
 30
0.0
  0
SEQEND
  0
POLYLINE
  8
0
 66
1
 10
0.0
 20
0.0
 30
0.0
 70
8
  0
VERTEX
  8
0
 10
51.13378787550971
 20
-13.53482543194918
 30
0.0
  0
VERTEX
  8
0
 10
52.52415853977065
 20
-14.70148494353025
 30
0.0
  0
VERTEX
  8
0
 10
48.455312970454855
 20
-19.55054626847338
 30
0.0
  0
VERTEX
  8
0
 10
47.06494230619391
 20
-18.38388675689231
 30
0.0
  0
SEQEND
  0
LINE
  8
0
 10
59.96240864466331
 20
-1.1464163204260323
 30
0.0
 11
55.781075243652374
 21
-6.129535422914984
 31
0.0
  0
LINE
  8
0
 10
41.96435557344021
 20
-22.595660727757412
 30
0.0
 11
46.14568897445115
 21
-17.61254162526846
 31
0.0
  0
POLYLINE
  8
0
 66
1
 10
0.0
 20
0.0
 30
0.0
 70
8
  0
VERTEX
  8
0
 10
55.781075243652374
 20
-6.129535422914984
 30
0.0
  0
VERTEX
  8
0
 10
54.39070457939143
 20
-4.9628759113339145
 30
0.0
  0
VERTEX
  8
0
 10
50.321859010075634
 20
-9.811937236277045
 30
0.0
  0
VERTEX
  8
0
 10
51.71222967433658
 20
-10.978596747858115
 30
0.0
  0
VERTEX
  8
0
 10
50.21453454376694
 20
-12.763480300325334
 30
0.0
  0
SEQEND
  0
POLYLINE
  8
0
 66
1
 10
0.0
 20
0.0
 30
0.0
 70
8
  0
VERTEX
  8
0
 10
50.21453454376694
 20
-12.763480300325334
 30
0.0
  0
VERTEX
  8
0
 10
48.824163879505996
 20
-11.596820788744264
 30
0.0
  0
VERTEX
  8
0
 10
44.7553183101902
 20
-16.445882113687393
 30
0.0
  0
VERTEX
  8
0
 10
46.14568897445114
 20
-17.612541625268463
 30
0.0
  0
SEQEND
  0
LINE
  8
0
 10
59.96240864466331
 20
-1.1464163204260323
 30
0.0
 11
60.79820876401564
 21
-0.5973824776707493
 31
0.0
  0
LINE
  8
0
 10
60.88166197640609
 20
-1.9177614520498796
 30
0.0
 11
61.27721959379824
 21
-0.9993202882712505
 31
0.0
  0
LINE
  8
0
 10
60.79820876401564
 20
-0.5973824776707493
 30
0.0
 11
61.27721959379824
 21
-0.9993202882712505
 31
0.0
  0
LINE
  8
0
 10
63.45281241515225
 20
-1.1464163204260325
 30
0.0
 11
67.6341458161632
 21
-6.1295354229149845
 31
0.0
  0
LINE
  8
0
 10
81.45086548637535
 20
-22.59566072775742
 30
0.0
 11
77.2695320853644
 21
-17.61254162526847
 31
0.0
  0
POLYLINE
  8
0
 66
1
 10
0.0
 20
0.0
 30
0.0
 70
8
  0
VERTEX
  8
0
 10
67.6341458161632
 20
-6.1295354229149845
 30
0.0
  0
VERTEX
  8
0
 10
69.02451648042414
 20
-4.962875911333915
 30
0.0
  0
VERTEX
  8
0
 10
73.09336204973994
 20
-9.811937236277046
 30
0.0
  0
VERTEX
  8
0
 10
71.702991385479
 20
-10.978596747858115
 30
0.0
  0
VERTEX
  8
0
 10
73.20068651604863
 20
-12.763480300325334
 30
0.0
  0
SEQEND
  0
POLYLINE
  8
0
 66
1
 10
0.0
 20
0.0
 30
0.0
 70
8
  0
VERTEX
  8
0
 10
73.20068651604863
 20
-12.763480300325334
 30
0.0
  0
VERTEX
  8
0
 10
74.59105718030958
 20
-11.596820788744266
 30
0.0
  0
VERTEX
  8
0
 10
78.65990274962537
 20
-16.445882113687396
 30
0.0
  0
VERTEX
  8
0
 10
77.26953208536443
 20
-17.612541625268467
 30
0.0
  0
SEQEND
  0
LINE
  8
0
 10
62.53355908340947
 20
-1.9177614520498798
 30
0.0
 11
66.7148924844204
 21
-6.900880554538832
 31
0.0
  0
LINE
  8
0
 10
80.53161215463258
 20
-23.367005859381266
 30
0.0
 11
76.35027875362164
 21
-18.383886756892316
 31
0.0
  0
POLYLINE
  8
0
 66
1
 10
0.0
 20
0.0
 30
0.0
 70
8
  0
VERTEX
  8
0
 10
66.7148924844204
 20
-6.900880554538832
 30
0.0
  0
VERTEX
  8
0
 10
65.32452182015946
 20
-8.0675400661199
 30
0.0
  0
VERTEX
  8
0
 10
69.39336738947526
 20
-12.91660139106303
 30
0.0
  0
VERTEX
  8
0
 10
70.7837380537362
 20
-11.749941879481963
 30
0.0
  0
VERTEX
  8
0
 10
72.28143318430584
 20
-13.534825431949182
 30
0.0
  0
SEQEND
  0
POLYLINE
  8
0
 66
1
 10
0.0
 20
0.0
 30
0.0
 70
8
  0
VERTEX
  8
0
 10
72.28143318430584
 20
-13.534825431949182
 30
0.0
  0
VERTEX
  8
0
 10
70.8910625200449
 20
-14.70148494353025
 30
0.0
  0
VERTEX
  8
0
 10
74.9599080893607
 20
-19.550546268473383
 30
0.0
  0
VERTEX
  8
0
 10
76.35027875362164
 20
-18.383886756892313
 30
0.0
  0
SEQEND
  0
LINE
  8
0
 10
62.53355908340947
 20
-1.9177614520498798
 30
0.0
 11
62.13800146601732
 21
-0.9993202882712506
 31
0.0
  0
LINE
  8
0
 10
63.45281241515225
 20
-1.1464163204260325
 30
0.0
 11
62.617012295799924
 21
-0.5973824776707494
 31
0.0
  0
LINE
  8
0
 10
62.13800146601732
 20
-0.9993202882712506
 30
0.0
 11
62.617012295799924
 21
-0.5973824776707494
 31
0.0
  0
LINE
  8
0
 10
104.8460175498463
 20
0.6
 30
0.0
 11
115.92022105981556
 21
0.6
 31
0.0
  0
LINE
  8
0
 10
141.9844245697848
 20
0.6
 30
0.0
 11
130.91022105981554
 21
0.5999999999999986
 31
0.0
  0
POLYLINE
  8
0
 66
1
 10
0.0
 20
0.0
 30
0.0
 70
8
  0
VERTEX
  8
0
 10
115.92022105981556
 20
0.6
 30
0.0
  0
VERTEX
  8
0
 10
115.92022105981556
 20
2.415
 30
0.0
  0
VERTEX
  8
0
 10
122.25022105981556
 20
2.415
 30
0.0
  0
VERTEX
  8
0
 10
122.25022105981556
 20
0.6000000000000001
 30
0.0
  0
VERTEX
  8
0
 10
124.58022105981556
 20
0.6000000000000001
 30
0.0
  0
SEQEND
  0
POLYLINE
  8
0
 66
1
 10
0.0
 20
0.0
 30
0.0
 70
8
  0
VERTEX
  8
0
 10
124.58022105981556
 20
0.6000000000000001
 30
0.0
  0
VERTEX
  8
0
 10
124.58022105981556
 20
2.415
 30
0.0
  0
VERTEX
  8
0
 10
130.91022105981557
 20
2.415
 30
0.0
  0
VERTEX
  8
0
 10
130.91022105981557
 20
0.6000000000000001
 30
0.0
  0
SEQEND
  0
LINE
  8
0
 10
104.8460175498463
 20
-0.6
 30
0.0
 11
115.92022105981556
 21
-0.6
 31
0.0
  0
LINE
  8
0
 10
141.9844245697848
 20
-0.6
 30
0.0
 11
130.91022105981554
 21
-0.6000000000000013
 31
0.0
  0
POLYLINE
  8
0
 66
1
 10
0.0
 20
0.0
 30
0.0
 70
8
  0
VERTEX
  8
0
 10
115.92022105981556
 20
-0.6
 30
0.0
  0
VERTEX
  8
0
 10
115.92022105981556
 20
-2.415
 30
0.0
  0
VERTEX
  8
0
 10
122.25022105981556
 20
-2.415
 30
0.0
  0
VERTEX
  8
0
 10
122.25022105981556
 20
-0.6000000000000001
 30
0.0
  0
VERTEX
  8
0
 10
124.58022105981556
 20
-0.6000000000000001
 30
0.0
  0
SEQEND
  0
POLYLINE
  8
0
 66
1
 10
0.0
 20
0.0
 30
0.0
 70
8
  0
VERTEX
  8
0
 10
124.58022105981556
 20
-0.6000000000000001
 30
0.0
  0
VERTEX
  8
0
 10
124.58022105981556
 20
-2.415
 30
0.0
  0
VERTEX
  8
0
 10
130.91022105981557
 20
-2.415
 30
0.0
  0
VERTEX
  8
0
 10
130.91022105981557
 20
-0.6000000000000001
 30
0.0
  0
SEQEND
  0
LINE
  8
0
 10
104.8460175498463
 20
-0.6
 30
0.0
 11
103.88819126462515
 21
-0.3126521144336546
 31
0.0
  0
LINE
  8
0
 10
104.8460175498463
 20
0.6
 30
0.0
 11
103.88819126462515
 21
0.3126521144336546
 31
0.0
  0
LINE
  8
0
 10
103.88819126462515
 20
-0.3126521144336546
 30
0.0
 11
103.88819126462515
 21
0.3126521144336546
 31
0.0
  0
LINE
  8
0
 10
103.67196610334798
 20
1.9177614520498798
 30
0.0
 11
107.85329950435892
 21
6.900880554538832
 31
0.0
  0
LINE
  8
0
 10
121.67001917457108
 20
23.367005859381266
 30
0.0
 11
117.48868577356015
 21
18.383886756892313
 31
0.0
  0
POLYLINE
  8
0
 66
1
 10
0.0
 20
0.0
 30
0.0
 70
8
  0
VERTEX
  8
0
 10
107.85329950435892
 20
6.900880554538832
 30
0.0
  0
VERTEX
  8
0
 10
106.46292884009797
 20
8.0675400661199
 30
0.0
  0
VERTEX
  8
0
 10
110.53177440941377
 20
12.91660139106303
 30
0.0
  0
VERTEX
  8
0
 10
111.92214507367471
 20
11.74994187948196
 30
0.0
  0
VERTEX
  8
0
 10
113.41984020424435
 20
13.53482543194918
 30
0.0
  0
SEQEND
  0
POLYLINE
  8
0
 66
1
 10
0.0
 20
0.0
 30
0.0
 70
8
  0
VERTEX
  8
0
 10
113.41984020424435
 20
13.53482543194918
 30
0.0
  0
VERTEX
  8
0
 10
112.02946953998341
 20
14.70148494353025
 30
0.0
  0
VERTEX
  8
0
 10
116.09831510929921
 20
19.550546268473383
 30
0.0
  0
VERTEX
  8
0
 10
117.48868577356015
 20
18.383886756892313
 30
0.0
  0
SEQEND
  0
LINE
  8
0
 10
104.59121943509075
 20
1.1464163204260325
 30
0.0
 11
108.77255283610168
 21
6.1295354229149845
 31
0.0
  0
LINE
  8
0
 10
122.58927250631385
 20
22.59566072775742
 30
0.0
 11
118.40793910530292
 21
17.612541625268467
 31
0.0
  0
POLYLINE
  8
0
 66
1
 10
0.0
 20
0.0
 30
0.0
 70
8
  0
VERTEX
  8
0
 10
108.77255283610168
 20
6.1295354229149845
 30
0.0
  0
VERTEX
  8
0
 10
110.16292350036262
 20
4.962875911333915
 30
0.0
  0
VERTEX
  8
0
 10
114.23176906967842
 20
9.811937236277046
 30
0.0
  0
VERTEX
  8
0
 10
112.84139840541748
 20
10.978596747858116
 30
0.0
  0
VERTEX
  8
0
 10
114.33909353598712
 20
12.763480300325336
 30
0.0
  0
SEQEND
  0
POLYLINE
  8
0
 66
1
 10
0.0
 20
0.0
 30
0.0
 70
8
  0
VERTEX
  8
0
 10
114.33909353598712
 20
12.763480300325336
 30
0.0
  0
VERTEX
  8
0
 10
115.72946420024806
 20
11.596820788744267
 30
0.0
  0
VERTEX
  8
0
 10
119.79830976956386
 20
16.445882113687396
 30
0.0
  0
VERTEX
  8
0
 10
118.40793910530292
 20
17.612541625268467
 30
0.0
  0
SEQEND
  0
LINE
  8
0
 10
104.59121943509075
 20
1.1464163204260325
 30
0.0
 11
103.75541931573842
 21
0.5973824776707464
 31
0.0
  0
LINE
  8
0
 10
103.67196610334798
 20
1.9177614520498798
 30
0.0
 11
103.27640848595583
 21
0.9993202882712506
 31
0.0
  0
LINE
  8
0
 10
103.75541931573842
 20
0.5973824776707464
 30
0.0
 11
103.27640848595583
 21
0.9993202882712506
 31
0.0
  0
LINE
  8
0
 10
101.10081566460184
 20
1.1464163204260325
 30
0.0
 11
96.91948226359091
 21
6.1295354229149845
 31
0.0
  0
LINE
  8
0
 10
83.10276259337874
 20
22.59566072775742
 30
0.0
 11
87.28409599438967
 21
17.612541625268467
 31
0.0
  0
POLYLINE
  8
0
 66
1
 10
0.0
 20
0.0
 30
0.0
 70
8
  0
VERTEX
  8
0
 10
96.91948226359091
 20
6.1295354229149845
 30
0.0
  0
VERTEX
  8
0
 10
95.52911159932997
 20
4.962875911333915
 30
0.0
  0
VERTEX
  8
0
 10
91.46026603001417
 20
9.811937236277046
 30
0.0
  0
VERTEX
  8
0
 10
92.85063669427511
 20
10.978596747858115
 30
0.0
  0
VERTEX
  8
0
 10
91.35294156370547
 20
12.763480300325334
 30
0.0
  0
SEQEND
  0
POLYLINE
  8
0
 66
1
 10
0.0
 20
0.0
 30
0.0
 70
8
  0
VERTEX
  8
0
 10
91.35294156370547
 20
12.763480300325334
 30
0.0
  0
VERTEX
  8
0
 10
89.96257089944453
 20
11.596820788744266
 30
0.0
  0
VERTEX
  8
0
 10
85.89372533012873
 20
16.445882113687396
 30
0.0
  0
VERTEX
  8
0
 10
87.28409599438967
 20
17.612541625268467
 30
0.0
  0
SEQEND
  0
LINE
  8
0
 10
102.0200689963446
 20
1.9177614520498796
 30
0.0
 11
97.83873559533367
 21
6.900880554538832
 31
0.0
  0
LINE
  8
0
 10
84.02201592512151
 20
23.367005859381266
 30
0.0
 11
88.20334932613244
 21
18.383886756892313
 31
0.0
  0
POLYLINE
  8
0
 66
1
 10
0.0
 20
0.0
 30
0.0
 70
8
  0
VERTEX
  8
0
 10
97.83873559533367
 20
6.900880554538832
 30
0.0
  0
VERTEX
  8
0
 10
99.22910625959462
 20
8.0675400661199
 30
0.0
  0
VERTEX
  8
0
 10
95.16026069027882
 20
12.91660139106303
 30
0.0
  0
VERTEX
  8
0
 10
93.76989002601788
 20
11.749941879481963
 30
0.0
  0
VERTEX
  8
0
 10
92.27219489544824
 20
13.534825431949182
 30
0.0
  0
SEQEND
  0
POLYLINE
  8
0
 66
1
 10
0.0
 20
0.0
 30
0.0
 70
8
  0
VERTEX
  8
0
 10
92.27219489544824
 20
13.534825431949182
 30
0.0
  0
VERTEX
  8
0
 10
93.66256555970918
 20
14.70148494353025
 30
0.0
  0
VERTEX
  8
0
 10
89.59371999039338
 20
19.550546268473383
 30
0.0
  0
VERTEX
  8
0
 10
88.20334932613244
 20
18.383886756892313
 30
0.0
  0
SEQEND
  0
LINE
  8
0
 10
102.0200689963446
 20
1.9177614520498796
 30
0.0
 11
102.41562661373676
 21
0.9993202882712505
 31
0.0
  0
LINE
  8
0
 10
101.10081566460184
 20
1.1464163204260325
 30
0.0
 11
101.93661578395417
 21
0.5973824776707464
 31
0.0
  0
LINE
  8
0
 10
102.41562661373676
 20
0.9993202882712505
 30
0.0
 11
101.93661578395417
 21
0.5973824776707464
 31
0.0
  0
LINE
  8
0
 10
100.8460175498463
 20
0.6000000000000002
 30
0.0
 11
101.80384383506744
 21
0.3126521144336547
 31
0.0
  0
LINE
  8
0
 10
100.8460175498463
 20
-0.5999999999999998
 30
0.0
 11
101.80384383506744
 21
-0.3126521144336544
 31
0.0
  0
LINE
  8
0
 10
101.80384383506744
 20
0.3126521144336547
 30
0.0
 11
101.80384383506744
 21
-0.3126521144336544
 31
0.0
  0
LINE
  8
0
 10
102.0200689963446
 20
-1.9177614520498796
 30
0.0
 11
97.83873559533366
 21
-6.900880554538831
 31
0.0
  0
LINE
  8
0
 10
84.02201592512151
 20
-23.36700585938126
 30
0.0
 11
88.20334932613244
 21
-18.383886756892306
 31
0.0
  0
POLYLINE
  8
0
 66
1
 10
0.0
 20
0.0
 30
0.0
 70
8
  0
VERTEX
  8
0
 10
97.83873559533366
 20
-6.900880554538831
 30
0.0
  0
VERTEX
  8
0
 10
99.2291062595946
 20
-8.0675400661199
 30
0.0
  0
VERTEX
  8
0
 10
95.1602606902788
 20
-12.916601391063029
 30
0.0
  0
VERTEX
  8
0
 10
93.76989002601786
 20
-11.74994187948196
 30
0.0
  0
VERTEX
  8
0
 10
92.27219489544822
 20
-13.53482543194918
 30
0.0
  0
SEQEND
  0
POLYLINE
  8
0
 66
1
 10
0.0
 20
0.0
 30
0.0
 70
8
  0
VERTEX
  8
0
 10
92.27219489544822
 20
-13.53482543194918
 30
0.0
  0
VERTEX
  8
0
 10
93.66256555970917
 20
-14.70148494353025
 30
0.0
  0
VERTEX
  8
0
 10
89.59371999039337
 20
-19.55054626847338
 30
0.0
  0
VERTEX
  8
0
 10
88.20334932613243
 20
-18.38388675689231
 30
0.0
  0
SEQEND
  0
LINE
  8
0
 10
101.10081566460184
 20
-1.1464163204260323
 30
0.0
 11
96.9194822635909
 21
-6.129535422914984
 31
0.0
  0
LINE
  8
0
 10
83.10276259337874
 20
-22.595660727757412
 30
0.0
 11
87.28409599438967
 21
-17.61254162526846
 31
0.0
  0
POLYLINE
  8
0
 66
1
 10
0.0
 20
0.0
 30
0.0
 70
8
  0
VERTEX
  8
0
 10
96.9194822635909
 20
-6.129535422914984
 30
0.0
  0
VERTEX
  8
0
 10
95.52911159932995
 20
-4.9628759113339145
 30
0.0
  0
VERTEX
  8
0
 10
91.46026603001415
 20
-9.811937236277045
 30
0.0
  0
VERTEX
  8
0
 10
92.8506366942751
 20
-10.978596747858115
 30
0.0
  0
VERTEX
  8
0
 10
91.35294156370546
 20
-12.763480300325334
 30
0.0
  0
SEQEND
  0
POLYLINE
  8
0
 66
1
 10
0.0
 20
0.0
 30
0.0
 70
8
  0
VERTEX
  8
0
 10
91.35294156370546
 20
-12.763480300325334
 30
0.0
  0
VERTEX
  8
0
 10
89.96257089944451
 20
-11.596820788744264
 30
0.0
  0
VERTEX
  8
0
 10
85.89372533012872
 20
-16.445882113687393
 30
0.0
  0
VERTEX
  8
0
 10
87.28409599438966
 20
-17.612541625268463
 30
0.0
  0
SEQEND
  0
LINE
  8
0
 10
101.10081566460184
 20
-1.1464163204260323
 30
0.0
 11
101.93661578395417
 21
-0.5973824776707461
 31
0.0
  0
LINE
  8
0
 10
102.0200689963446
 20
-1.9177614520498796
 30
0.0
 11
102.41562661373676
 21
-0.9993202882712505
 31
0.0
  0
LINE
  8
0
 10
101.93661578395417
 20
-0.5973824776707461
 30
0.0
 11
102.41562661373676
 21
-0.9993202882712505
 31
0.0
  0
LINE
  8
0
 10
104.59121943509075
 20
-1.1464163204260325
 30
0.0
 11
108.77255283610168
 21
-6.1295354229149845
 31
0.0
  0
LINE
  8
0
 10
122.58927250631385
 20
-22.59566072775742
 30
0.0
 11
118.4079391053029
 21
-17.61254162526847
 31
0.0
  0
POLYLINE
  8
0
 66
1
 10
0.0
 20
0.0
 30
0.0
 70
8
  0
VERTEX
  8
0
 10
108.77255283610168
 20
-6.1295354229149845
 30
0.0
  0
VERTEX
  8
0
 10
110.16292350036262
 20
-4.962875911333915
 30
0.0
  0
VERTEX
  8
0
 10
114.23176906967842
 20
-9.811937236277046
 30
0.0
  0
VERTEX
  8
0
 10
112.84139840541748
 20
-10.978596747858115
 30
0.0
  0
VERTEX
  8
0
 10
114.33909353598712
 20
-12.763480300325334
 30
0.0
  0
SEQEND
  0
POLYLINE
  8
0
 66
1
 10
0.0
 20
0.0
 30
0.0
 70
8
  0
VERTEX
  8
0
 10
114.33909353598712
 20
-12.763480300325334
 30
0.0
  0
VERTEX
  8
0
 10
115.72946420024806
 20
-11.596820788744266
 30
0.0
  0
VERTEX
  8
0
 10
119.79830976956386
 20
-16.445882113687396
 30
0.0
  0
VERTEX
  8
0
 10
118.40793910530292
 20
-17.612541625268467
 30
0.0
  0
SEQEND
  0
LINE
  8
0
 10
103.67196610334798
 20
-1.9177614520498798
 30
0.0
 11
107.85329950435892
 21
-6.900880554538832
 31
0.0
  0
LINE
  8
0
 10
121.67001917457108
 20
-23.367005859381266
 30
0.0
 11
117.48868577356014
 21
-18.383886756892316
 31
0.0
  0
POLYLINE
  8
0
 66
1
 10
0.0
 20
0.0
 30
0.0
 70
8
  0
VERTEX
  8
0
 10
107.85329950435892
 20
-6.900880554538832
 30
0.0
  0
VERTEX
  8
0
 10
106.46292884009797
 20
-8.0675400661199
 30
0.0
  0
VERTEX
  8
0
 10
110.53177440941377
 20
-12.91660139106303
 30
0.0
  0
VERTEX
  8
0
 10
111.92214507367471
 20
-11.749941879481963
 30
0.0
  0
VERTEX
  8
0
 10
113.41984020424435
 20
-13.534825431949182
 30
0.0
  0
SEQEND
  0
POLYLINE
  8
0
 66
1
 10
0.0
 20
0.0
 30
0.0
 70
8
  0
VERTEX
  8
0
 10
113.41984020424435
 20
-13.534825431949182
 30
0.0
  0
VERTEX
  8
0
 10
112.02946953998341
 20
-14.70148494353025
 30
0.0
  0
VERTEX
  8
0
 10
116.09831510929921
 20
-19.550546268473383
 30
0.0
  0
VERTEX
  8
0
 10
117.48868577356015
 20
-18.383886756892313
 30
0.0
  0
SEQEND
  0
LINE
  8
0
 10
103.67196610334798
 20
-1.9177614520498798
 30
0.0
 11
103.27640848595583
 21
-0.9993202882712506
 31
0.0
  0
LINE
  8
0
 10
104.59121943509075
 20
-1.1464163204260325
 30
0.0
 11
103.75541931573842
 21
-0.5973824776707464
 31
0.0
  0
LINE
  8
0
 10
103.27640848595583
 20
-0.9993202882712506
 30
0.0
 11
103.75541931573842
 21
-0.5973824776707464
 31
0.0
  0
LINE
  8
0
 10
2.0
 20
-23.913422179807295
 30
0.0
 11
13.074203509969259
 21
-23.913422179807295
 31
0.0
  0
LINE
  8
0
 10
39.13840701993852
 20
-23.913422179807295
 30
0.0
 11
28.06420350996926
 21
-23.913422179807295
 31
0.0
  0
POLYLINE
  8
0
 66
1
 10
0.0
 20
0.0
 30
0.0
 70
8
  0
VERTEX
  8
0
 10
13.074203509969259
 20
-23.913422179807295
 30
0.0
  0
VERTEX
  8
0
 10
13.074203509969259
 20
-22.098422179807294
 30
0.0
  0
VERTEX
  8
0
 10
19.404203509969257
 20
-22.098422179807294
 30
0.0
  0
VERTEX
  8
0
 10
19.404203509969257
 20
-23.913422179807295
 30
0.0
  0
VERTEX
  8
0
 10
21.734203509969255
 20
-23.913422179807295
 30
0.0
  0
SEQEND
  0
POLYLINE
  8
0
 66
1
 10
0.0
 20
0.0
 30
0.0
 70
8
  0
VERTEX
  8
0
 10
21.734203509969255
 20
-23.913422179807295
 30
0.0
  0
VERTEX
  8
0
 10
21.734203509969255
 20
-22.098422179807294
 30
0.0
  0
VERTEX
  8
0
 10
28.064203509969254
 20
-22.098422179807294
 30
0.0
  0
VERTEX
  8
0
 10
28.064203509969254
 20
-23.913422179807295
 30
0.0
  0
SEQEND
  0
LINE
  8
0
 10
2.0
 20
-25.113422179807298
 30
0.0
 11
13.074203509969259
 21
-25.113422179807298
 31
0.0
  0
LINE
  8
0
 10
39.13840701993852
 20
-25.113422179807298
 30
0.0
 11
28.06420350996926
 21
-25.113422179807298
 31
0.0
  0
POLYLINE
  8
0
 66
1
 10
0.0
 20
0.0
 30
0.0
 70
8
  0
VERTEX
  8
0
 10
13.074203509969259
 20
-25.113422179807298
 30
0.0
  0
VERTEX
  8
0
 10
13.074203509969259
 20
-26.9284221798073
 30
0.0
  0
VERTEX
  8
0
 10
19.404203509969257
 20
-26.9284221798073
 30
0.0
  0
VERTEX
  8
0
 10
19.404203509969257
 20
-25.113422179807298
 30
0.0
  0
VERTEX
  8
0
 10
21.734203509969255
 20
-25.113422179807298
 30
0.0
  0
SEQEND
  0
POLYLINE
  8
0
 66
1
 10
0.0
 20
0.0
 30
0.0
 70
8
  0
VERTEX
  8
0
 10
21.734203509969255
 20
-25.113422179807298
 30
0.0
  0
VERTEX
  8
0
 10
21.734203509969255
 20
-26.9284221798073
 30
0.0
  0
VERTEX
  8
0
 10
28.064203509969254
 20
-26.9284221798073
 30
0.0
  0
VERTEX
  8
0
 10
28.064203509969254
 20
-25.113422179807298
 30
0.0
  0
SEQEND
  0
LINE
  8
0
 10
2.0
 20
-25.113422179807298
 30
0.0
 11
1.042173714778849
 21
-24.826074294240954
 31
0.0
  0
LINE
  8
0
 10
2.0
 20
-23.913422179807295
 30
0.0
 11
1.042173714778849
 21
-24.20077006537364
 31
0.0
  0
LINE
  8
0
 10
1.042173714778849
 20
-24.826074294240954
 30
0.0
 11
1.042173714778849
 21
-24.20077006537364
 31
0.0
  0
LINE
  8
0
 10
1.7452018852444655
 20
-23.367005859381262
 30
0.0
 11
0.9094017658921376
 21
-23.916039702136548
 31
0.0
  0
LINE
  8
0
 10
0.8259485535016919
 20
-22.595660727757416
 30
0.0
 11
0.4303909361095376
 21
-23.514101891536043
 31
0.0
  0
LINE
  8
0
 10
0.9094017658921376
 20
-23.916039702136548
 30
0.0
 11
0.4303909361095376
 21
-23.514101891536043
 31
0.0
  0
LINE
  8
0
 10
-1.7452018852444655
 20
-23.367005859381262
 30
0.0
 11
-5.926535286255405
 21
-18.38388675689231
 31
0.0
  0
LINE
  8
0
 10
-19.743254956467567
 20
-1.9177614520498776
 30
0.0
 11
-15.561921555456628
 21
-6.90088055453883
 31
0.0
  0
POLYLINE
  8
0
 66
1
 10
0.0
 20
0.0
 30
0.0
 70
8
  0
VERTEX
  8
0
 10
-5.926535286255405
 20
-18.38388675689231
 30
0.0
  0
VERTEX
  8
0
 10
-7.316905950516349
 20
-19.55054626847338
 30
0.0
  0
VERTEX
  8
0
 10
-11.385751519832144
 20
-14.701484943530248
 30
0.0
  0
VERTEX
  8
0
 10
-9.995380855571199
 20
-13.53482543194918
 30
0.0
  0
VERTEX
  8
0
 10
-11.493075986140836
 20
-11.74994187948196
 30
0.0
  0
SEQEND
  0
POLYLINE
  8
0
 66
1
 10
0.0
 20
0.0
 30
0.0
 70
8
  0
VERTEX
  8
0
 10
-11.493075986140836
 20
-11.74994187948196
 30
0.0
  0
VERTEX
  8
0
 10
-12.883446650401781
 20
-12.916601391063029
 30
0.0
  0
VERTEX
  8
0
 10
-16.952292219717577
 20
-8.067540066119898
 30
0.0
  0
VERTEX
  8
0
 10
-15.561921555456632
 20
-6.90088055453883
 30
0.0
  0
SEQEND
  0
LINE
  8
0
 10
-0.8259485535016919
 20
-22.595660727757416
 30
0.0
 11
-5.007281954512631
 21
-17.612541625268463
 31
0.0
  0
LINE
  8
0
 10
-18.824001624724794
 20
-1.1464163204260305
 30
0.0
 11
-14.642668223713855
 21
-6.129535422914982
 31
0.0
  0
POLYLINE
  8
0
 66
1
 10
0.0
 20
0.0
 30
0.0
 70
8
  0
VERTEX
  8
0
 10
-5.007281954512631
 20
-17.612541625268463
 30
0.0
  0
VERTEX
  8
0
 10
-3.616911290251686
 20
-16.445882113687393
 30
0.0
  0
VERTEX
  8
0
 10
-7.68575685956748
 20
-11.596820788744262
 30
0.0
  0
VERTEX
  8
0
 10
-9.076127523828426
 20
-12.76348030032533
 30
0.0
  0
VERTEX
  8
0
 10
-10.573822654398063
 20
-10.978596747858111
 30
0.0
  0
SEQEND
  0
POLYLINE
  8
0
 66
1
 10
0.0
 20
0.0
 30
0.0
 70
8
  0
VERTEX
  8
0
 10
-10.573822654398063
 20
-10.978596747858111
 30
0.0
  0
VERTEX
  8
0
 10
-9.183451990137117
 20
-9.811937236277043
 30
0.0
  0
VERTEX
  8
0
 10
-13.252297559452911
 20
-4.962875911333912
 30
0.0
  0
VERTEX
  8
0
 10
-14.642668223713857
 20
-6.12953542291498
 30
0.0
  0
SEQEND
  0
LINE
  8
0
 10
-0.8259485535016919
 20
-22.595660727757416
 30
0.0
 11
-0.4303909361095376
 21
-23.514101891536043
 31
0.0
  0
LINE
  8
0
 10
-1.7452018852444655
 20
-23.367005859381262
 30
0.0
 11
-0.9094017658921376
 21
-23.916039702136548
 31
0.0
  0
LINE
  8
0
 10
-0.4303909361095376
 20
-23.514101891536043
 30
0.0
 11
-0.9094017658921376
 21
-23.916039702136548
 31
0.0
  0
LINE
  8
0
 10
-2.0
 20
-25.113422179807298
 30
0.0
 11
-13.074203509969259
 21
-25.113422179807298
 31
0.0
  0
LINE
  8
0
 10
-39.13840701993852
 20
-25.113422179807294
 30
0.0
 11
-28.06420350996926
 21
-25.113422179807294
 31
0.0
  0
POLYLINE
  8
0
 66
1
 10
0.0
 20
0.0
 30
0.0
 70
8
  0
VERTEX
  8
0
 10
-13.074203509969259
 20
-25.113422179807298
 30
0.0
  0
VERTEX
  8
0
 10
-13.074203509969259
 20
-26.9284221798073
 30
0.0
  0
VERTEX
  8
0
 10
-19.404203509969257
 20
-26.9284221798073
 30
0.0
  0
VERTEX
  8
0
 10
-19.404203509969257
 20
-25.113422179807298
 30
0.0
  0
VERTEX
  8
0
 10
-21.734203509969255
 20
-25.113422179807298
 30
0.0
  0
SEQEND
  0
POLYLINE
  8
0
 66
1
 10
0.0
 20
0.0
 30
0.0
 70
8
  0
VERTEX
  8
0
 10
-21.734203509969255
 20
-25.113422179807298
 30
0.0
  0
VERTEX
  8
0
 10
-21.734203509969255
 20
-26.9284221798073
 30
0.0
  0
VERTEX
  8
0
 10
-28.064203509969254
 20
-26.9284221798073
 30
0.0
  0
VERTEX
  8
0
 10
-28.064203509969254
 20
-25.113422179807298
 30
0.0
  0
SEQEND
  0
LINE
  8
0
 10
-2.0
 20
-23.913422179807295
 30
0.0
 11
-13.074203509969259
 21
-23.913422179807295
 31
0.0
  0
LINE
  8
0
 10
-39.13840701993852
 20
-23.91342217980729
 30
0.0
 11
-28.06420350996926
 21
-23.91342217980729
 31
0.0
  0
POLYLINE
  8
0
 66
1
 10
0.0
 20
0.0
 30
0.0
 70
8
  0
VERTEX
  8
0
 10
-13.074203509969259
 20
-23.913422179807295
 30
0.0
  0
VERTEX
  8
0
 10
-13.074203509969259
 20
-22.098422179807294
 30
0.0
  0
VERTEX
  8
0
 10
-19.404203509969257
 20
-22.098422179807294
 30
0.0
  0
VERTEX
  8
0
 10
-19.404203509969257
 20
-23.913422179807295
 30
0.0
  0
VERTEX
  8
0
 10
-21.734203509969255
 20
-23.913422179807295
 30
0.0
  0
SEQEND
  0
POLYLINE
  8
0
 66
1
 10
0.0
 20
0.0
 30
0.0
 70
8
  0
VERTEX
  8
0
 10
-21.734203509969255
 20
-23.913422179807295
 30
0.0
  0
VERTEX
  8
0
 10
-21.734203509969255
 20
-22.098422179807294
 30
0.0
  0
VERTEX
  8
0
 10
-28.064203509969254
 20
-22.098422179807294
 30
0.0
  0
VERTEX
  8
0
 10
-28.064203509969254
 20
-23.913422179807295
 30
0.0
  0
SEQEND
  0
LINE
  8
0
 10
-2.0
 20
-23.913422179807295
 30
0.0
 11
-1.042173714778849
 21
-24.20077006537364
 31
0.0
  0
LINE
  8
0
 10
-2.0
 20
-25.113422179807298
 30
0.0
 11
-1.042173714778849
 21
-24.826074294240954
 31
0.0
  0
LINE
  8
0
 10
-1.042173714778849
 20
-24.20077006537364
 30
0.0
 11
-1.042173714778849
 21
-24.826074294240954
 31
0.0
  0
LINE
  8
0
 10
-0.8259485535016923
 20
-26.431183631857174
 30
0.0
 11
-5.0072819545126315
 21
-31.414302734346123
 31
0.0
  0
LINE
  8
0
 10
-18.824001624724797
 20
-47.88042803918855
 30
0.0
 11
-14.642668223713859
 21
-42.8973089366996
 31
0.0
  0
POLYLINE
  8
0
 66
1
 10
0.0
 20
0.0
 30
0.0
 70
8
  0
VERTEX
  8
0
 10
-5.0072819545126315
 20
-31.414302734346123
 30
0.0
  0
VERTEX
  8
0
 10
-3.6169112902516867
 20
-32.58096224592719
 30
0.0
  0
VERTEX
  8
0
 10
-7.685756859567482
 20
-37.43002357087032
 30
0.0
  0
VERTEX
  8
0
 10
-9.076127523828427
 20
-36.26336405928925
 30
0.0
  0
VERTEX
  8
0
 10
-10.573822654398064
 20
-38.04824761175647
 30
0.0
  0
SEQEND
  0
POLYLINE
  8
0
 66
1
 10
0.0
 20
0.0
 30
0.0
 70
8
  0
VERTEX
  8
0
 10
-10.573822654398064
 20
-38.04824761175647
 30
0.0
  0
VERTEX
  8
0
 10
-9.18345199013712
 20
-39.21490712333754
 30
0.0
  0
VERTEX
  8
0
 10
-13.252297559452916
 20
-44.06396844828067
 30
0.0
  0
VERTEX
  8
0
 10
-14.642668223713862
 20
-42.8973089366996
 30
0.0
  0
SEQEND
  0
LINE
  8
0
 10
-1.7452018852444657
 20
-25.659838500233327
 30
0.0
 11
-5.9265352862554055
 21
-30.642957602722277
 31
0.0
  0
LINE
  8
0
 10
-19.74325495646757
 20
-47.109082907564705
 30
0.0
 11
-15.561921555456632
 21
-42.125963805075756
 31
0.0
  0
POLYLINE
  8
0
 66
1
 10
0.0
 20
0.0
 30
0.0
 70
8
  0
VERTEX
  8
0
 10
-5.9265352862554055
 20
-30.642957602722277
 30
0.0
  0
VERTEX
  8
0
 10
-7.31690595051635
 20
-29.476298091141206
 30
0.0
  0
VERTEX
  8
0
 10
-11.385751519832144
 20
-34.32535941608434
 30
0.0
  0
VERTEX
  8
0
 10
-9.9953808555712
 20
-35.492018927665406
 30
0.0
  0
VERTEX
  8
0
 10
-11.493075986140838
 20
-37.27690248013263
 30
0.0
  0
SEQEND
  0
POLYLINE
  8
0
 66
1
 10
0.0
 20
0.0
 30
0.0
 70
8
  0
VERTEX
  8
0
 10
-11.493075986140838
 20
-37.27690248013263
 30
0.0
  0
VERTEX
  8
0
 10
-12.883446650401783
 20
-36.11024296855156
 30
0.0
  0
VERTEX
  8
0
 10
-16.952292219717577
 20
-40.95930429349469
 30
0.0
  0
VERTEX
  8
0
 10
-15.561921555456633
 20
-42.125963805075756
 30
0.0
  0
SEQEND
  0
LINE
  8
0
 10
-1.7452018852444657
 20
-25.659838500233327
 30
0.0
 11
-0.9094017658921372
 21
-25.110804657478045
 31
0.0
  0
LINE
  8
0
 10
-0.8259485535016923
 20
-26.431183631857174
 30
0.0
 11
-0.4303909361095372
 21
-25.512742468078546
 31
0.0
  0
LINE
  8
0
 10
-0.9094017658921372
 20
-25.110804657478045
 30
0.0
 11
-0.4303909361095372
 21
-25.512742468078546
 31
0.0
  0
LINE
  8
0
 10
1.7452018852444655
 20
-25.65983850023333
 30
0.0
 11
5.926535286255405
 21
-30.642957602722284
 31
0.0
  0
LINE
  8
0
 10
19.743254956467567
 20
-47.10908290756472
 30
0.0
 11
15.561921555456628
 21
-42.12596380507577
 31
0.0
  0
POLYLINE
  8
0
 66
1
 10
0.0
 20
0.0
 30
0.0
 70
8
  0
VERTEX
  8
0
 10
5.926535286255405
 20
-30.642957602722284
 30
0.0
  0
VERTEX
  8
0
 10
7.316905950516349
 20
-29.476298091141214
 30
0.0
  0
VERTEX
  8
0
 10
11.385751519832144
 20
-34.325359416084346
 30
0.0
  0
VERTEX
  8
0
 10
9.995380855571199
 20
-35.49201892766541
 30
0.0
  0
VERTEX
  8
0
 10
11.493075986140836
 20
-37.276902480132634
 30
0.0
  0
SEQEND
  0
POLYLINE
  8
0
 66
1
 10
0.0
 20
0.0
 30
0.0
 70
8
  0
VERTEX
  8
0
 10
11.493075986140836
 20
-37.276902480132634
 30
0.0
  0
VERTEX
  8
0
 10
12.883446650401781
 20
-36.11024296855157
 30
0.0
  0
VERTEX
  8
0
 10
16.952292219717577
 20
-40.9593042934947
 30
0.0
  0
VERTEX
  8
0
 10
15.561921555456632
 20
-42.12596380507576
 30
0.0
  0
SEQEND
  0
LINE
  8
0
 10
0.8259485535016919
 20
-26.431183631857177
 30
0.0
 11
5.007281954512631
 21
-31.41430273434613
 31
0.0
  0
LINE
  8
0
 10
18.824001624724794
 20
-47.880428039188565
 30
0.0
 11
14.642668223713855
 21
-42.897308936699616
 31
0.0
  0
POLYLINE
  8
0
 66
1
 10
0.0
 20
0.0
 30
0.0
 70
8
  0
VERTEX
  8
0
 10
5.007281954512631
 20
-31.41430273434613
 30
0.0
  0
VERTEX
  8
0
 10
3.616911290251686
 20
-32.580962245927196
 30
0.0
  0
VERTEX
  8
0
 10
7.68575685956748
 20
-37.430023570870325
 30
0.0
  0
VERTEX
  8
0
 10
9.076127523828426
 20
-36.26336405928926
 30
0.0
  0
VERTEX
  8
0
 10
10.573822654398063
 20
-38.04824761175648
 30
0.0
  0
SEQEND
  0
POLYLINE
  8
0
 66
1
 10
0.0
 20
0.0
 30
0.0
 70
8
  0
VERTEX
  8
0
 10
10.573822654398063
 20
-38.04824761175648
 30
0.0
  0
VERTEX
  8
0
 10
9.183451990137119
 20
-39.21490712333755
 30
0.0
  0
VERTEX
  8
0
 10
13.252297559452913
 20
-44.063968448280676
 30
0.0
  0
VERTEX
  8
0
 10
14.642668223713859
 20
-42.89730893669961
 30
0.0
  0
SEQEND
  0
LINE
  8
0
 10
0.8259485535016919
 20
-26.431183631857177
 30
0.0
 11
0.4303909361095376
 21
-25.51274246807855
 31
0.0
  0
LINE
  8
0
 10
1.7452018852444655
 20
-25.65983850023333
 30
0.0
 11
0.9094017658921376
 21
-25.110804657478045
 31
0.0
  0
LINE
  8
0
 10
0.4303909361095376
 20
-25.51274246807855
 30
0.0
 11
0.9094017658921376
 21
-25.110804657478045
 31
0.0
  0
LINE
  8
0
 10
43.13840701993852
 20
-23.913422179807295
 30
0.0
 11
54.21261052990778
 21
-23.913422179807295
 31
0.0
  0
LINE
  8
0
 10
80.27681403987704
 20
-23.913422179807295
 30
0.0
 11
69.20261052990779
 21
-23.913422179807295
 31
0.0
  0
POLYLINE
  8
0
 66
1
 10
0.0
 20
0.0
 30
0.0
 70
8
  0
VERTEX
  8
0
 10
54.21261052990778
 20
-23.913422179807295
 30
0.0
  0
VERTEX
  8
0
 10
54.21261052990778
 20
-22.098422179807294
 30
0.0
  0
VERTEX
  8
0
 10
60.542610529907776
 20
-22.098422179807294
 30
0.0
  0
VERTEX
  8
0
 10
60.542610529907776
 20
-23.913422179807295
 30
0.0
  0
VERTEX
  8
0
 10
62.872610529907774
 20
-23.913422179807295
 30
0.0
  0
SEQEND
  0
POLYLINE
  8
0
 66
1
 10
0.0
 20
0.0
 30
0.0
 70
8
  0
VERTEX
  8
0
 10
62.872610529907774
 20
-23.913422179807295
 30
0.0
  0
VERTEX
  8
0
 10
62.872610529907774
 20
-22.098422179807294
 30
0.0
  0
VERTEX
  8
0
 10
69.20261052990777
 20
-22.098422179807294
 30
0.0
  0
VERTEX
  8
0
 10
69.20261052990777
 20
-23.913422179807295
 30
0.0
  0
SEQEND
  0
LINE
  8
0
 10
43.13840701993852
 20
-25.113422179807298
 30
0.0
 11
54.21261052990778
 21
-25.113422179807298
 31
0.0
  0
LINE
  8
0
 10
80.27681403987704
 20
-25.113422179807298
 30
0.0
 11
69.20261052990779
 21
-25.113422179807298
 31
0.0
  0
POLYLINE
  8
0
 66
1
 10
0.0
 20
0.0
 30
0.0
 70
8
  0
VERTEX
  8
0
 10
54.21261052990778
 20
-25.113422179807298
 30
0.0
  0
VERTEX
  8
0
 10
54.21261052990778
 20
-26.9284221798073
 30
0.0
  0
VERTEX
  8
0
 10
60.542610529907776
 20
-26.9284221798073
 30
0.0
  0
VERTEX
  8
0
 10
60.542610529907776
 20
-25.113422179807298
 30
0.0
  0
VERTEX
  8
0
 10
62.872610529907774
 20
-25.113422179807298
 30
0.0
  0
SEQEND
  0
POLYLINE
  8
0
 66
1
 10
0.0
 20
0.0
 30
0.0
 70
8
  0
VERTEX
  8
0
 10
62.872610529907774
 20
-25.113422179807298
 30
0.0
  0
VERTEX
  8
0
 10
62.872610529907774
 20
-26.9284221798073
 30
0.0
  0
VERTEX
  8
0
 10
69.20261052990777
 20
-26.9284221798073
 30
0.0
  0
VERTEX
  8
0
 10
69.20261052990777
 20
-25.113422179807298
 30
0.0
  0
SEQEND
  0
LINE
  8
0
 10
43.13840701993852
 20
-25.113422179807298
 30
0.0
 11
42.18058073471737
 21
-24.826074294240954
 31
0.0
  0
LINE
  8
0
 10
43.13840701993852
 20
-23.913422179807295
 30
0.0
 11
42.18058073471737
 21
-24.20077006537364
 31
0.0
  0
LINE
  8
0
 10
42.18058073471737
 20
-24.826074294240954
 30
0.0
 11
42.18058073471737
 21
-24.20077006537364
 31
0.0
  0
LINE
  8
0
 10
42.88360890518299
 20
-23.367005859381262
 30
0.0
 11
42.04780878583066
 21
-23.916039702136544
 31
0.0
  0
LINE
  8
0
 10
41.96435557344021
 20
-22.595660727757416
 30
0.0
 11
41.56879795604806
 21
-23.514101891536043
 31
0.0
  0
LINE
  8
0
 10
42.04780878583066
 20
-23.916039702136544
 30
0.0
 11
41.56879795604806
 21
-23.514101891536043
 31
0.0
  0
LINE
  8
0
 10
40.31245846643683
 20
-22.595660727757416
 30
0.0
 11
40.70801608382898
 21
-23.514101891536043
 31
0.0
  0
LINE
  8
0
 10
39.39320513469405
 20
-23.367005859381262
 30
0.0
 11
40.22900525404638
 21
-23.916039702136544
 31
0.0
  0
LINE
  8
0
 10
40.70801608382898
 20
-23.514101891536043
 30
0.0
 11
40.22900525404638
 21
-23.916039702136544
 31
0.0
  0
LINE
  8
0
 10
39.13840701993852
 20
-23.913422179807295
 30
0.0
 11
40.09623330515967
 21
-24.20077006537364
 31
0.0
  0
LINE
  8
0
 10
39.13840701993852
 20
-25.113422179807298
 30
0.0
 11
40.09623330515967
 21
-24.826074294240954
 31
0.0
  0
LINE
  8
0
 10
40.09623330515967
 20
-24.20077006537364
 30
0.0
 11
40.09623330515967
 21
-24.826074294240954
 31
0.0
  0
LINE
  8
0
 10
40.31245846643683
 20
-26.431183631857174
 30
0.0
 11
36.13112506542589
 21
-31.414302734346123
 31
0.0
  0
LINE
  8
0
 10
22.314405395213722
 20
-47.88042803918855
 30
0.0
 11
26.49573879622466
 21
-42.8973089366996
 31
0.0
  0
POLYLINE
  8
0
 66
1
 10
0.0
 20
0.0
 30
0.0
 70
8
  0
VERTEX
  8
0
 10
36.13112506542589
 20
-31.414302734346123
 30
0.0
  0
VERTEX
  8
0
 10
37.52149572968683
 20
-32.58096224592719
 30
0.0
  0
VERTEX
  8
0
 10
33.452650160371036
 20
-37.43002357087032
 30
0.0
  0
VERTEX
  8
0
 10
32.062279496110094
 20
-36.26336405928925
 30
0.0
  0
VERTEX
  8
0
 10
30.564584365540455
 20
-38.04824761175647
 30
0.0
  0
SEQEND
  0
POLYLINE
  8
0
 66
1
 10
0.0
 20
0.0
 30
0.0
 70
8
  0
VERTEX
  8
0
 10
30.564584365540455
 20
-38.04824761175647
 30
0.0
  0
VERTEX
  8
0
 10
31.9549550298014
 20
-39.21490712333754
 30
0.0
  0
VERTEX
  8
0
 10
27.886109460485606
 20
-44.06396844828067
 30
0.0
  0
VERTEX
  8
0
 10
26.49573879622466
 20
-42.8973089366996
 30
0.0
  0
SEQEND
  0
LINE
  8
0
 10
39.39320513469405
 20
-25.659838500233327
 30
0.0
 11
35.21187173368311
 21
-30.642957602722277
 31
0.0
  0
LINE
  8
0
 10
21.39515206347095
 20
-47.109082907564705
 30
0.0
 11
25.576485464481888
 21
-42.125963805075756
 31
0.0
  0
POLYLINE
  8
0
 66
1
 10
0.0
 20
0.0
 30
0.0
 70
8
  0
VERTEX
  8
0
 10
35.21187173368311
 20
-30.642957602722277
 30
0.0
  0
VERTEX
  8
0
 10
33.82150106942217
 20
-29.476298091141206
 30
0.0
  0
VERTEX
  8
0
 10
29.752655500106375
 20
-34.32535941608434
 30
0.0
  0
VERTEX
  8
0
 10
31.14302616436732
 20
-35.492018927665406
 30
0.0
  0
VERTEX
  8
0
 10
29.64533103379768
 20
-37.27690248013263
 30
0.0
  0
SEQEND
  0
POLYLINE
  8
0
 66
1
 10
0.0
 20
0.0
 30
0.0
 70
8
  0
VERTEX
  8
0
 10
29.64533103379768
 20
-37.27690248013263
 30
0.0
  0
VERTEX
  8
0
 10
28.254960369536736
 20
-36.11024296855156
 30
0.0
  0
VERTEX
  8
0
 10
24.186114800220942
 20
-40.95930429349469
 30
0.0
  0
VERTEX
  8
0
 10
25.576485464481888
 20
-42.125963805075756
 30
0.0
  0
SEQEND
  0
LINE
  8
0
 10
39.39320513469405
 20
-25.659838500233327
 30
0.0
 11
40.22900525404638
 21
-25.110804657478045
 31
0.0
  0
LINE
  8
0
 10
40.31245846643683
 20
-26.431183631857174
 30
0.0
 11
40.70801608382899
 21
-25.512742468078546
 31
0.0
  0
LINE
  8
0
 10
40.22900525404638
 20
-25.110804657478045
 30
0.0
 11
40.70801608382899
 21
-25.512742468078546
 31
0.0
  0
LINE
  8
0
 10
42.88360890518299
 20
-25.65983850023333
 30
0.0
 11
47.06494230619393
 21
-30.642957602722284
 31
0.0
  0
LINE
  8
0
 10
60.881661976406086
 20
-47.10908290756472
 30
0.0
 11
56.70032857539515
 21
-42.12596380507577
 31
0.0
  0
POLYLINE
  8
0
 66
1
 10
0.0
 20
0.0
 30
0.0
 70
8
  0
VERTEX
  8
0
 10
47.06494230619393
 20
-30.642957602722284
 30
0.0
  0
VERTEX
  8
0
 10
48.45531297045487
 20
-29.476298091141214
 30
0.0
  0
VERTEX
  8
0
 10
52.52415853977067
 20
-34.325359416084346
 30
0.0
  0
VERTEX
  8
0
 10
51.133787875509725
 20
-35.49201892766541
 30
0.0
  0
VERTEX
  8
0
 10
52.631483006079364
 20
-37.276902480132634
 30
0.0
  0
SEQEND
  0
POLYLINE
  8
0
 66
1
 10
0.0
 20
0.0
 30
0.0
 70
8
  0
VERTEX
  8
0
 10
52.631483006079364
 20
-37.276902480132634
 30
0.0
  0
VERTEX
  8
0
 10
54.021853670340306
 20
-36.11024296855157
 30
0.0
  0
VERTEX
  8
0
 10
58.090699239656104
 20
-40.9593042934947
 30
0.0
  0
VERTEX
  8
0
 10
56.70032857539516
 20
-42.12596380507576
 30
0.0
  0
SEQEND
  0
LINE
  8
0
 10
41.96435557344021
 20
-26.431183631857177
 30
0.0
 11
46.14568897445115
 21
-31.41430273434613
 31
0.0
  0
LINE
  8
0
 10
59.962408644663306
 20
-47.880428039188565
 30
0.0
 11
55.78107524365237
 21
-42.897308936699616
 31
0.0
  0
POLYLINE
  8
0
 66
1
 10
0.0
 20
0.0
 30
0.0
 70
8
  0
VERTEX
  8
0
 10
46.14568897445115
 20
-31.41430273434613
 30
0.0
  0
VERTEX
  8
0
 10
44.755318310190205
 20
-32.580962245927196
 30
0.0
  0
VERTEX
  8
0
 10
48.824163879506
 20
-37.430023570870325
 30
0.0
  0
VERTEX
  8
0
 10
50.214534543766945
 20
-36.26336405928926
 30
0.0
  0
VERTEX
  8
0
 10
51.712229674336584
 20
-38.04824761175648
 30
0.0
  0
SEQEND
  0
POLYLINE
  8
0
 66
1
 10
0.0
 20
0.0
 30
0.0
 70
8
  0
VERTEX
  8
0
 10
51.712229674336584
 20
-38.04824761175648
 30
0.0
  0
VERTEX
  8
0
 10
50.32185901007564
 20
-39.21490712333755
 30
0.0
  0
VERTEX
  8
0
 10
54.39070457939144
 20
-44.063968448280676
 30
0.0
  0
VERTEX
  8
0
 10
55.78107524365238
 20
-42.89730893669961
 30
0.0
  0
SEQEND
  0
LINE
  8
0
 10
41.96435557344021
 20
-26.431183631857177
 30
0.0
 11
41.56879795604806
 21
-25.51274246807855
 31
0.0
  0
LINE
  8
0
 10
42.88360890518299
 20
-25.65983850023333
 30
0.0
 11
42.04780878583066
 21
-25.11080465747805
 31
0.0
  0
LINE
  8
0
 10
41.56879795604806
 20
-25.51274246807855
 30
0.0
 11
42.04780878583066
 21
-25.11080465747805
 31
0.0
  0
LINE
  8
0
 10
84.27681403987704
 20
-23.913422179807295
 30
0.0
 11
95.35101754984629
 21
-23.913422179807295
 31
0.0
  0
LINE
  8
0
 10
121.41522105981556
 20
-23.913422179807295
 30
0.0
 11
110.3410175498463
 21
-23.913422179807295
 31
0.0
  0
POLYLINE
  8
0
 66
1
 10
0.0
 20
0.0
 30
0.0
 70
8
  0
VERTEX
  8
0
 10
95.35101754984629
 20
-23.913422179807295
 30
0.0
  0
VERTEX
  8
0
 10
95.35101754984629
 20
-22.098422179807294
 30
0.0
  0
VERTEX
  8
0
 10
101.68101754984629
 20
-22.098422179807294
 30
0.0
  0
VERTEX
  8
0
 10
101.68101754984629
 20
-23.913422179807295
 30
0.0
  0
VERTEX
  8
0
 10
104.01101754984629
 20
-23.913422179807295
 30
0.0
  0
SEQEND
  0
POLYLINE
  8
0
 66
1
 10
0.0
 20
0.0
 30
0.0
 70
8
  0
VERTEX
  8
0
 10
104.01101754984629
 20
-23.913422179807295
 30
0.0
  0
VERTEX
  8
0
 10
104.01101754984629
 20
-22.098422179807294
 30
0.0
  0
VERTEX
  8
0
 10
110.34101754984628
 20
-22.098422179807294
 30
0.0
  0
VERTEX
  8
0
 10
110.34101754984628
 20
-23.913422179807295
 30
0.0
  0
SEQEND
  0
LINE
  8
0
 10
84.27681403987704
 20
-25.113422179807298
 30
0.0
 11
95.35101754984629
 21
-25.113422179807298
 31
0.0
  0
LINE
  8
0
 10
121.41522105981556
 20
-25.113422179807298
 30
0.0
 11
110.3410175498463
 21
-25.113422179807298
 31
0.0
  0
POLYLINE
  8
0
 66
1
 10
0.0
 20
0.0
 30
0.0
 70
8
  0
VERTEX
  8
0
 10
95.35101754984629
 20
-25.113422179807298
 30
0.0
  0
VERTEX
  8
0
 10
95.35101754984629
 20
-26.9284221798073
 30
0.0
  0
VERTEX
  8
0
 10
101.68101754984629
 20
-26.9284221798073
 30
0.0
  0
VERTEX
  8
0
 10
101.68101754984629
 20
-25.113422179807298
 30
0.0
  0
VERTEX
  8
0
 10
104.01101754984629
 20
-25.113422179807298
 30
0.0
  0
SEQEND
  0
POLYLINE
  8
0
 66
1
 10
0.0
 20
0.0
 30
0.0
 70
8
  0
VERTEX
  8
0
 10
104.01101754984629
 20
-25.113422179807298
 30
0.0
  0
VERTEX
  8
0
 10
104.01101754984629
 20
-26.9284221798073
 30
0.0
  0
VERTEX
  8
0
 10
110.34101754984628
 20
-26.9284221798073
 30
0.0
  0
VERTEX
  8
0
 10
110.34101754984628
 20
-25.113422179807298
 30
0.0
  0
SEQEND
  0
LINE
  8
0
 10
84.27681403987704
 20
-25.113422179807298
 30
0.0
 11
83.3189877546559
 21
-24.826074294240954
 31
0.0
  0
LINE
  8
0
 10
84.27681403987704
 20
-23.913422179807295
 30
0.0
 11
83.3189877546559
 21
-24.20077006537364
 31
0.0
  0
LINE
  8
0
 10
83.3189877546559
 20
-24.826074294240954
 30
0.0
 11
83.3189877546559
 21
-24.20077006537364
 31
0.0
  0
LINE
  8
0
 10
84.0220159251215
 20
-23.367005859381262
 30
0.0
 11
83.18621580576917
 21
-23.916039702136548
 31
0.0
  0
LINE
  8
0
 10
83.10276259337873
 20
-22.595660727757416
 30
0.0
 11
82.70720497598657
 21
-23.514101891536043
 31
0.0
  0
LINE
  8
0
 10
83.18621580576917
 20
-23.916039702136548
 30
0.0
 11
82.70720497598657
 21
-23.514101891536043
 31
0.0
  0
LINE
  8
0
 10
81.45086548637535
 20
-22.595660727757416
 30
0.0
 11
81.8464231037675
 21
-23.514101891536043
 31
0.0
  0
LINE
  8
0
 10
80.53161215463258
 20
-23.367005859381262
 30
0.0
 11
81.36741227398491
 21
-23.916039702136548
 31
0.0
  0
LINE
  8
0
 10
81.8464231037675
 20
-23.514101891536043
 30
0.0
 11
81.36741227398491
 21
-23.916039702136548
 31
0.0
  0
LINE
  8
0
 10
80.27681403987704
 20
-23.913422179807295
 30
0.0
 11
81.23464032509818
 21
-24.20077006537364
 31
0.0
  0
LINE
  8
0
 10
80.27681403987704
 20
-25.113422179807298
 30
0.0
 11
81.23464032509818
 21
-24.826074294240954
 31
0.0
  0
LINE
  8
0
 10
81.23464032509818
 20
-24.20077006537364
 30
0.0
 11
81.23464032509818
 21
-24.826074294240954
 31
0.0
  0
LINE
  8
0
 10
81.45086548637535
 20
-26.431183631857174
 30
0.0
 11
77.2695320853644
 21
-31.414302734346123
 31
0.0
  0
LINE
  8
0
 10
63.45281241515225
 20
-47.88042803918855
 30
0.0
 11
67.6341458161632
 21
-42.8973089366996
 31
0.0
  0
POLYLINE
  8
0
 66
1
 10
0.0
 20
0.0
 30
0.0
 70
8
  0
VERTEX
  8
0
 10
77.2695320853644
 20
-31.414302734346123
 30
0.0
  0
VERTEX
  8
0
 10
78.65990274962535
 20
-32.58096224592719
 30
0.0
  0
VERTEX
  8
0
 10
74.59105718030955
 20
-37.43002357087032
 30
0.0
  0
VERTEX
  8
0
 10
73.2006865160486
 20
-36.26336405928925
 30
0.0
  0
VERTEX
  8
0
 10
71.70299138547897
 20
-38.04824761175647
 30
0.0
  0
SEQEND
  0
POLYLINE
  8
0
 66
1
 10
0.0
 20
0.0
 30
0.0
 70
8
  0
VERTEX
  8
0
 10
71.70299138547897
 20
-38.04824761175647
 30
0.0
  0
VERTEX
  8
0
 10
73.09336204973991
 20
-39.21490712333754
 30
0.0
  0
VERTEX
  8
0
 10
69.02451648042411
 20
-44.06396844828067
 30
0.0
  0
VERTEX
  8
0
 10
67.63414581616317
 20
-42.8973089366996
 30
0.0
  0
SEQEND
  0
LINE
  8
0
 10
80.53161215463258
 20
-25.659838500233327
 30
0.0
 11
76.35027875362164
 21
-30.642957602722277
 31
0.0
  0
LINE
  8
0
 10
62.53355908340947
 20
-47.109082907564705
 30
0.0
 11
66.7148924844204
 21
-42.125963805075756
 31
0.0
  0
POLYLINE
  8
0
 66
1
 10
0.0
 20
0.0
 30
0.0
 70
8
  0
VERTEX
  8
0
 10
76.35027875362164
 20
-30.642957602722277
 30
0.0
  0
VERTEX
  8
0
 10
74.9599080893607
 20
-29.476298091141206
 30
0.0
  0
VERTEX
  8
0
 10
70.8910625200449
 20
-34.32535941608434
 30
0.0
  0
VERTEX
  8
0
 10
72.28143318430584
 20
-35.492018927665406
 30
0.0
  0
VERTEX
  8
0
 10
70.7837380537362
 20
-37.27690248013263
 30
0.0
  0
SEQEND
  0
POLYLINE
  8
0
 66
1
 10
0.0
 20
0.0
 30
0.0
 70
8
  0
VERTEX
  8
0
 10
70.7837380537362
 20
-37.27690248013263
 30
0.0
  0
VERTEX
  8
0
 10
69.39336738947526
 20
-36.11024296855156
 30
0.0
  0
VERTEX
  8
0
 10
65.32452182015946
 20
-40.95930429349469
 30
0.0
  0
VERTEX
  8
0
 10
66.7148924844204
 20
-42.125963805075756
 30
0.0
  0
SEQEND
  0
LINE
  8
0
 10
80.53161215463258
 20
-25.659838500233327
 30
0.0
 11
81.36741227398491
 21
-25.11080465747804
 31
0.0
  0
LINE
  8
0
 10
81.45086548637535
 20
-26.431183631857174
 30
0.0
 11
81.8464231037675
 21
-25.512742468078546
 31
0.0
  0
LINE
  8
0
 10
81.36741227398491
 20
-25.11080465747804
 30
0.0
 11
81.8464231037675
 21
-25.512742468078546
 31
0.0
  0
LINE
  8
0
 10
84.0220159251215
 20
-25.65983850023333
 30
0.0
 11
88.20334932613244
 21
-30.642957602722284
 31
0.0
  0
LINE
  8
0
 10
102.02006899634459
 20
-47.10908290756472
 30
0.0
 11
97.83873559533365
 21
-42.12596380507577
 31
0.0
  0
POLYLINE
  8
0
 66
1
 10
0.0
 20
0.0
 30
0.0
 70
8
  0
VERTEX
  8
0
 10
88.20334932613244
 20
-30.642957602722284
 30
0.0
  0
VERTEX
  8
0
 10
89.59371999039338
 20
-29.476298091141214
 30
0.0
  0
VERTEX
  8
0
 10
93.66256555970918
 20
-34.325359416084346
 30
0.0
  0
VERTEX
  8
0
 10
92.27219489544824
 20
-35.49201892766541
 30
0.0
  0
VERTEX
  8
0
 10
93.76989002601788
 20
-37.276902480132634
 30
0.0
  0
SEQEND
  0
POLYLINE
  8
0
 66
1
 10
0.0
 20
0.0
 30
0.0
 70
8
  0
VERTEX
  8
0
 10
93.76989002601788
 20
-37.276902480132634
 30
0.0
  0
VERTEX
  8
0
 10
95.16026069027882
 20
-36.11024296855157
 30
0.0
  0
VERTEX
  8
0
 10
99.22910625959462
 20
-40.9593042934947
 30
0.0
  0
VERTEX
  8
0
 10
97.83873559533367
 20
-42.12596380507576
 30
0.0
  0
SEQEND
  0
LINE
  8
0
 10
83.10276259337873
 20
-26.431183631857177
 30
0.0
 11
87.28409599438967
 21
-31.41430273434613
 31
0.0
  0
LINE
  8
0
 10
101.10081566460183
 20
-47.880428039188565
 30
0.0
 11
96.91948226359088
 21
-42.897308936699616
 31
0.0
  0
POLYLINE
  8
0
 66
1
 10
0.0
 20
0.0
 30
0.0
 70
8
  0
VERTEX
  8
0
 10
87.28409599438967
 20
-31.41430273434613
 30
0.0
  0
VERTEX
  8
0
 10
85.89372533012873
 20
-32.580962245927196
 30
0.0
  0
VERTEX
  8
0
 10
89.96257089944453
 20
-37.430023570870325
 30
0.0
  0
VERTEX
  8
0
 10
91.35294156370547
 20
-36.26336405928926
 30
0.0
  0
VERTEX
  8
0
 10
92.85063669427511
 20
-38.04824761175648
 30
0.0
  0
SEQEND
  0
POLYLINE
  8
0
 66
1
 10
0.0
 20
0.0
 30
0.0
 70
8
  0
VERTEX
  8
0
 10
92.85063669427511
 20
-38.04824761175648
 30
0.0
  0
VERTEX
  8
0
 10
91.46026603001417
 20
-39.21490712333755
 30
0.0
  0
VERTEX
  8
0
 10
95.52911159932997
 20
-44.063968448280676
 30
0.0
  0
VERTEX
  8
0
 10
96.91948226359091
 20
-42.89730893669961
 30
0.0
  0
SEQEND
  0
LINE
  8
0
 10
83.10276259337873
 20
-26.431183631857177
 30
0.0
 11
82.70720497598657
 21
-25.51274246807855
 31
0.0
  0
LINE
  8
0
 10
84.0220159251215
 20
-25.65983850023333
 30
0.0
 11
83.18621580576917
 21
-25.110804657478045
 31
0.0
  0
LINE
  8
0
 10
82.70720497598657
 20
-25.51274246807855
 30
0.0
 11
83.18621580576917
 21
-25.110804657478045
 31
0.0
  0
LINE
  8
0
 10
22.56920350996926
 20
-48.42684435961459
 30
0.0
 11
33.64340701993852
 21
-48.42684435961459
 31
0.0
  0
LINE
  8
0
 10
59.70761052990778
 20
-48.42684435961459
 30
0.0
 11
48.633407019938524
 21
-48.42684435961459
 31
0.0
  0
POLYLINE
  8
0
 66
1
 10
0.0
 20
0.0
 30
0.0
 70
8
  0
VERTEX
  8
0
 10
33.64340701993852
 20
-48.42684435961459
 30
0.0
  0
VERTEX
  8
0
 10
33.64340701993852
 20
-46.611844359614594
 30
0.0
  0
VERTEX
  8
0
 10
39.97340701993852
 20
-46.611844359614594
 30
0.0
  0
VERTEX
  8
0
 10
39.97340701993852
 20
-48.42684435961459
 30
0.0
  0
VERTEX
  8
0
 10
42.30340701993852
 20
-48.42684435961459
 30
0.0
  0
SEQEND
  0
POLYLINE
  8
0
 66
1
 10
0.0
 20
0.0
 30
0.0
 70
8
  0
VERTEX
  8
0
 10
42.30340701993852
 20
-48.42684435961459
 30
0.0
  0
VERTEX
  8
0
 10
42.30340701993852
 20
-46.611844359614594
 30
0.0
  0
VERTEX
  8
0
 10
48.63340701993852
 20
-46.611844359614594
 30
0.0
  0
VERTEX
  8
0
 10
48.63340701993852
 20
-48.42684435961459
 30
0.0
  0
SEQEND
  0
LINE
  8
0
 10
22.56920350996926
 20
-49.626844359614594
 30
0.0
 11
33.64340701993852
 21
-49.626844359614594
 31
0.0
  0
LINE
  8
0
 10
59.70761052990778
 20
-49.626844359614594
 30
0.0
 11
48.633407019938524
 21
-49.626844359614594
 31
0.0
  0
POLYLINE
  8
0
 66
1
 10
0.0
 20
0.0
 30
0.0
 70
8
  0
VERTEX
  8
0
 10
33.64340701993852
 20
-49.626844359614594
 30
0.0
  0
VERTEX
  8
0
 10
33.64340701993852
 20
-51.44184435961459
 30
0.0
  0
VERTEX
  8
0
 10
39.97340701993852
 20
-51.44184435961459
 30
0.0
  0
VERTEX
  8
0
 10
39.97340701993852
 20
-49.626844359614594
 30
0.0
  0
VERTEX
  8
0
 10
42.30340701993852
 20
-49.626844359614594
 30
0.0
  0
SEQEND
  0
POLYLINE
  8
0
 66
1
 10
0.0
 20
0.0
 30
0.0
 70
8
  0
VERTEX
  8
0
 10
42.30340701993852
 20
-49.626844359614594
 30
0.0
  0
VERTEX
  8
0
 10
42.30340701993852
 20
-51.44184435961459
 30
0.0
  0
VERTEX
  8
0
 10
48.63340701993852
 20
-51.44184435961459
 30
0.0
  0
VERTEX
  8
0
 10
48.63340701993852
 20
-49.626844359614594
 30
0.0
  0
SEQEND
  0
LINE
  8
0
 10
22.56920350996926
 20
-49.626844359614594
 30
0.0
 11
21.611377224748107
 21
-49.33949647404825
 31
0.0
  0
LINE
  8
0
 10
22.56920350996926
 20
-48.42684435961459
 30
0.0
 11
21.611377224748107
 21
-48.71419224518094
 31
0.0
  0
LINE
  8
0
 10
21.611377224748107
 20
-49.33949647404825
 30
0.0
 11
21.611377224748107
 21
-48.71419224518094
 31
0.0
  0
LINE
  8
0
 10
22.314405395213726
 20
-47.88042803918856
 30
0.0
 11
21.478605275861398
 21
-48.429461881943844
 31
0.0
  0
LINE
  8
0
 10
21.395152063470952
 20
-47.10908290756471
 30
0.0
 11
20.9995944460788
 21
-48.02752407134334
 31
0.0
  0
LINE
  8
0
 10
21.478605275861398
 20
-48.429461881943844
 30
0.0
 11
20.9995944460788
 21
-48.02752407134334
 31
0.0
  0
LINE
  8
0
 10
19.743254956467567
 20
-47.10908290756471
 30
0.0
 11
20.13881257385972
 21
-48.02752407134334
 31
0.0
  0
LINE
  8
0
 10
18.824001624724794
 20
-47.88042803918856
 30
0.0
 11
19.65980174407712
 21
-48.429461881943844
 31
0.0
  0
LINE
  8
0
 10
20.13881257385972
 20
-48.02752407134334
 30
0.0
 11
19.65980174407712
 21
-48.429461881943844
 31
0.0
  0
LINE
  8
0
 10
18.56920350996926
 20
-49.626844359614594
 30
0.0
 11
7.495000000000001
 21
-49.626844359614594
 31
0.0
  0
LINE
  8
0
 10
-18.56920350996926
 20
-49.62684435961459
 30
0.0
 11
-7.495000000000001
 21
-49.62684435961459
 31
0.0
  0
POLYLINE
  8
0
 66
1
 10
0.0
 20
0.0
 30
0.0
 70
8
  0
VERTEX
  8
0
 10
7.495000000000001
 20
-49.626844359614594
 30
0.0
  0
VERTEX
  8
0
 10
7.495000000000001
 20
-51.44184435961459
 30
0.0
  0
VERTEX
  8
0
 10
1.165000000000001
 20
-51.44184435961459
 30
0.0
  0
VERTEX
  8
0
 10
1.1650000000000016
 20
-49.626844359614594
 30
0.0
  0
VERTEX
  8
0
 10
-1.1649999999999985
 20
-49.626844359614594
 30
0.0
  0
SEQEND
  0
POLYLINE
  8
0
 66
1
 10
0.0
 20
0.0
 30
0.0
 70
8
  0
VERTEX
  8
0
 10
-1.1649999999999985
 20
-49.626844359614594
 30
0.0
  0
VERTEX
  8
0
 10
-1.164999999999999
 20
-51.44184435961459
 30
0.0
  0
VERTEX
  8
0
 10
-7.494999999999999
 20
-51.44184435961459
 30
0.0
  0
VERTEX
  8
0
 10
-7.494999999999998
 20
-49.626844359614594
 30
0.0
  0
SEQEND
  0
LINE
  8
0
 10
18.56920350996926
 20
-48.42684435961459
 30
0.0
 11
7.495000000000001
 21
-48.42684435961459
 31
0.0
  0
LINE
  8
0
 10
-18.56920350996926
 20
-48.426844359614584
 30
0.0
 11
-7.495000000000001
 21
-48.426844359614584
 31
0.0
  0
POLYLINE
  8
0
 66
1
 10
0.0
 20
0.0
 30
0.0
 70
8
  0
VERTEX
  8
0
 10
7.495000000000001
 20
-48.42684435961459
 30
0.0
  0
VERTEX
  8
0
 10
7.495000000000001
 20
-46.611844359614594
 30
0.0
  0
VERTEX
  8
0
 10
1.165000000000001
 20
-46.611844359614594
 30
0.0
  0
VERTEX
  8
0
 10
1.1650000000000005
 20
-48.42684435961459
 30
0.0
  0
VERTEX
  8
0
 10
-1.1649999999999996
 20
-48.42684435961459
 30
0.0
  0
SEQEND
  0
POLYLINE
  8
0
 66
1
 10
0.0
 20
0.0
 30
0.0
 70
8
  0
VERTEX
  8
0
 10
-1.1649999999999996
 20
-48.42684435961459
 30
0.0
  0
VERTEX
  8
0
 10
-1.1649999999999994
 20
-46.611844359614594
 30
0.0
  0
VERTEX
  8
0
 10
-7.494999999999999
 20
-46.611844359614594
 30
0.0
  0
VERTEX
  8
0
 10
-7.494999999999999
 20
-48.42684435961459
 30
0.0
  0
SEQEND
  0
LINE
  8
0
 10
18.56920350996926
 20
-48.42684435961459
 30
0.0
 11
19.527029795190412
 21
-48.71419224518094
 31
0.0
  0
LINE
  8
0
 10
18.56920350996926
 20
-49.626844359614594
 30
0.0
 11
19.527029795190412
 21
-49.33949647404825
 31
0.0
  0
LINE
  8
0
 10
19.527029795190412
 20
-48.71419224518094
 30
0.0
 11
19.527029795190412
 21
-49.33949647404825
 31
0.0
  0
LINE
  8
0
 10
19.743254956467567
 20
-50.94460581166447
 30
0.0
 11
15.561921555456628
 21
-55.92772491415342
 31
0.0
  0
LINE
  8
0
 10
1.7452018852444624
 20
-72.39385021899587
 30
0.0
 11
5.926535286255401
 21
-67.41073111650691
 31
0.0
  0
POLYLINE
  8
0
 66
1
 10
0.0
 20
0.0
 30
0.0
 70
8
  0
VERTEX
  8
0
 10
15.561921555456628
 20
-55.92772491415342
 30
0.0
  0
VERTEX
  8
0
 10
16.952292219717574
 20
-57.09438442573449
 30
0.0
  0
VERTEX
  8
0
 10
12.88344665040178
 20
-61.94344575067762
 30
0.0
  0
VERTEX
  8
0
 10
11.493075986140834
 20
-60.77678623909655
 30
0.0
  0
VERTEX
  8
0
 10
9.995380855571197
 20
-62.56166979156377
 30
0.0
  0
SEQEND
  0
POLYLINE
  8
0
 66
1
 10
0.0
 20
0.0
 30
0.0
 70
8
  0
VERTEX
  8
0
 10
9.995380855571197
 20
-62.56166979156377
 30
0.0
  0
VERTEX
  8
0
 10
11.38575151983214
 20
-63.72832930314484
 30
0.0
  0
VERTEX
  8
0
 10
7.316905950516346
 20
-68.57739062808797
 30
0.0
  0
VERTEX
  8
0
 10
5.9265352862554
 20
-67.4107311165069
 30
0.0
  0
SEQEND
  0
LINE
  8
0
 10
18.824001624724794
 20
-50.17326068004063
 30
0.0
 11
14.642668223713855
 21
-55.15637978252958
 31
0.0
  0
LINE
  8
0
 10
0.825948553501689
 20
-71.622505087372
 30
0.0
 11
5.007281954512628
 21
-66.63938598488305
 31
0.0
  0
POLYLINE
  8
0
 66
1
 10
0.0
 20
0.0
 30
0.0
 70
8
  0
VERTEX
  8
0
 10
14.642668223713855
 20
-55.15637978252958
 30
0.0
  0
VERTEX
  8
0
 10
13.25229755945291
 20
-53.98972027094851
 30
0.0
  0
VERTEX
  8
0
 10
9.183451990137115
 20
-58.83878159589164
 30
0.0
  0
VERTEX
  8
0
 10
10.57382265439806
 20
-60.005441107472706
 30
0.0
  0
VERTEX
  8
0
 10
9.076127523828422
 20
-61.79032465993993
 30
0.0
  0
SEQEND
  0
POLYLINE
  8
0
 66
1
 10
0.0
 20
0.0
 30
0.0
 70
8
  0
VERTEX
  8
0
 10
9.076127523828422
 20
-61.79032465993993
 30
0.0
  0
VERTEX
  8
0
 10
7.685756859567477
 20
-60.62366514835886
 30
0.0
  0
VERTEX
  8
0
 10
3.6169112902516822
 20
-65.47272647330199
 30
0.0
  0
VERTEX
  8
0
 10
5.007281954512627
 20
-66.63938598488306
 30
0.0
  0
SEQEND
  0
LINE
  8
0
 10
18.824001624724794
 20
-50.17326068004063
 30
0.0
 11
19.65980174407712
 21
-49.62422683728534
 31
0.0
  0
LINE
  8
0
 10
19.743254956467567
 20
-50.94460581166447
 30
0.0
 11
20.13881257385972
 21
-50.02616464788584
 31
0.0
  0
LINE
  8
0
 10
19.65980174407712
 20
-49.62422683728534
 30
0.0
 11
20.13881257385972
 21
-50.02616464788584
 31
0.0
  0
LINE
  8
0
 10
22.314405395213726
 20
-50.17326068004063
 30
0.0
 11
26.495738796224664
 21
-55.15637978252958
 31
0.0
  0
LINE
  8
0
 10
40.31245846643683
 20
-71.622505087372
 30
0.0
 11
36.13112506542589
 21
-66.63938598488305
 31
0.0
  0
POLYLINE
  8
0
 66
1
 10
0.0
 20
0.0
 30
0.0
 70
8
  0
VERTEX
  8
0
 10
26.495738796224664
 20
-55.15637978252958
 30
0.0
  0
VERTEX
  8
0
 10
27.88610946048561
 20
-53.98972027094851
 30
0.0
  0
VERTEX
  8
0
 10
31.954955029801404
 20
-58.83878159589164
 30
0.0
  0
VERTEX
  8
0
 10
30.56458436554046
 20
-60.005441107472706
 30
0.0
  0
VERTEX
  8
0
 10
32.062279496110094
 20
-61.79032465993993
 30
0.0
  0
SEQEND
  0
POLYLINE
  8
0
 66
1
 10
0.0
 20
0.0
 30
0.0
 70
8
  0
VERTEX
  8
0
 10
32.062279496110094
 20
-61.79032465993993
 30
0.0
  0
VERTEX
  8
0
 10
33.452650160371036
 20
-60.62366514835886
 30
0.0
  0
VERTEX
  8
0
 10
37.52149572968683
 20
-65.47272647330199
 30
0.0
  0
VERTEX
  8
0
 10
36.13112506542589
 20
-66.63938598488306
 30
0.0
  0
SEQEND
  0
LINE
  8
0
 10
21.395152063470952
 20
-50.94460581166447
 30
0.0
 11
25.57648546448189
 21
-55.92772491415342
 31
0.0
  0
LINE
  8
0
 10
39.39320513469405
 20
-72.39385021899587
 30
0.0
 11
35.21187173368311
 21
-67.41073111650691
 31
0.0
  0
POLYLINE
  8
0
 66
1
 10
0.0
 20
0.0
 30
0.0
 70
8
  0
VERTEX
  8
0
 10
25.57648546448189
 20
-55.92772491415342
 30
0.0
  0
VERTEX
  8
0
 10
24.186114800220945
 20
-57.09438442573449
 30
0.0
  0
VERTEX
  8
0
 10
28.25496036953674
 20
-61.94344575067762
 30
0.0
  0
VERTEX
  8
0
 10
29.645331033797685
 20
-60.77678623909655
 30
0.0
  0
VERTEX
  8
0
 10
31.14302616436732
 20
-62.56166979156377
 30
0.0
  0
SEQEND
  0
POLYLINE
  8
0
 66
1
 10
0.0
 20
0.0
 30
0.0
 70
8
  0
VERTEX
  8
0
 10
31.14302616436732
 20
-62.56166979156377
 30
0.0
  0
VERTEX
  8
0
 10
29.752655500106375
 20
-63.72832930314484
 30
0.0
  0
VERTEX
  8
0
 10
33.82150106942217
 20
-68.57739062808797
 30
0.0
  0
VERTEX
  8
0
 10
35.21187173368311
 20
-67.4107311165069
 30
0.0
  0
SEQEND
  0
LINE
  8
0
 10
21.395152063470952
 20
-50.94460581166447
 30
0.0
 11
20.9995944460788
 21
-50.02616464788584
 31
0.0
  0
LINE
  8
0
 10
22.314405395213726
 20
-50.17326068004063
 30
0.0
 11
21.478605275861398
 21
-49.62422683728534
 31
0.0
  0
LINE
  8
0
 10
20.9995944460788
 20
-50.02616464788584
 30
0.0
 11
21.478605275861398
 21
-49.62422683728534
 31
0.0
  0
LINE
  8
0
 10
63.70761052990778
 20
-48.42684435961459
 30
0.0
 11
74.78181403987705
 21
-48.42684435961459
 31
0.0
  0
LINE
  8
0
 10
100.8460175498463
 20
-48.42684435961459
 30
0.0
 11
89.77181403987703
 21
-48.42684435961459
 31
0.0
  0
POLYLINE
  8
0
 66
1
 10
0.0
 20
0.0
 30
0.0
 70
8
  0
VERTEX
  8
0
 10
74.78181403987705
 20
-48.42684435961459
 30
0.0
  0
VERTEX
  8
0
 10
74.78181403987705
 20
-46.611844359614594
 30
0.0
  0
VERTEX
  8
0
 10
81.11181403987705
 20
-46.611844359614594
 30
0.0
  0
VERTEX
  8
0
 10
81.11181403987705
 20
-48.42684435961459
 30
0.0
  0
VERTEX
  8
0
 10
83.44181403987704
 20
-48.42684435961459
 30
0.0
  0
SEQEND
  0
POLYLINE
  8
0
 66
1
 10
0.0
 20
0.0
 30
0.0
 70
8
  0
VERTEX
  8
0
 10
83.44181403987704
 20
-48.42684435961459
 30
0.0
  0
VERTEX
  8
0
 10
83.44181403987704
 20
-46.611844359614594
 30
0.0
  0
VERTEX
  8
0
 10
89.77181403987704
 20
-46.611844359614594
 30
0.0
  0
VERTEX
  8
0
 10
89.77181403987704
 20
-48.42684435961459
 30
0.0
  0
SEQEND
  0
LINE
  8
0
 10
63.70761052990778
 20
-49.626844359614594
 30
0.0
 11
74.78181403987705
 21
-49.626844359614594
 31
0.0
  0
LINE
  8
0
 10
100.8460175498463
 20
-49.626844359614594
 30
0.0
 11
89.77181403987703
 21
-49.626844359614594
 31
0.0
  0
POLYLINE
  8
0
 66
1
 10
0.0
 20
0.0
 30
0.0
 70
8
  0
VERTEX
  8
0
 10
74.78181403987705
 20
-49.626844359614594
 30
0.0
  0
VERTEX
  8
0
 10
74.78181403987705
 20
-51.44184435961459
 30
0.0
  0
VERTEX
  8
0
 10
81.11181403987705
 20
-51.44184435961459
 30
0.0
  0
VERTEX
  8
0
 10
81.11181403987705
 20
-49.626844359614594
 30
0.0
  0
VERTEX
  8
0
 10
83.44181403987704
 20
-49.626844359614594
 30
0.0
  0
SEQEND
  0
POLYLINE
  8
0
 66
1
 10
0.0
 20
0.0
 30
0.0
 70
8
  0
VERTEX
  8
0
 10
83.44181403987704
 20
-49.626844359614594
 30
0.0
  0
VERTEX
  8
0
 10
83.44181403987704
 20
-51.44184435961459
 30
0.0
  0
VERTEX
  8
0
 10
89.77181403987704
 20
-51.44184435961459
 30
0.0
  0
VERTEX
  8
0
 10
89.77181403987704
 20
-49.626844359614594
 30
0.0
  0
SEQEND
  0
LINE
  8
0
 10
63.70761052990778
 20
-49.626844359614594
 30
0.0
 11
62.74978424468663
 21
-49.33949647404825
 31
0.0
  0
LINE
  8
0
 10
63.70761052990778
 20
-48.42684435961459
 30
0.0
 11
62.74978424468663
 21
-48.71419224518094
 31
0.0
  0
LINE
  8
0
 10
62.74978424468663
 20
-49.33949647404825
 30
0.0
 11
62.74978424468663
 21
-48.71419224518094
 31
0.0
  0
LINE
  8
0
 10
63.45281241515225
 20
-47.88042803918856
 30
0.0
 11
62.617012295799924
 21
-48.429461881943844
 31
0.0
  0
LINE
  8
0
 10
62.53355908340947
 20
-47.10908290756471
 30
0.0
 11
62.13800146601732
 21
-48.02752407134334
 31
0.0
  0
LINE
  8
0
 10
62.617012295799924
 20
-48.429461881943844
 30
0.0
 11
62.13800146601732
 21
-48.02752407134334
 31
0.0
  0
LINE
  8
0
 10
60.88166197640609
 20
-47.10908290756471
 30
0.0
 11
61.27721959379824
 21
-48.02752407134334
 31
0.0
  0
LINE
  8
0
 10
59.96240864466331
 20
-47.88042803918856
 30
0.0
 11
60.79820876401564
 21
-48.429461881943844
 31
0.0
  0
LINE
  8
0
 10
61.27721959379824
 20
-48.02752407134334
 30
0.0
 11
60.79820876401564
 21
-48.429461881943844
 31
0.0
  0
LINE
  8
0
 10
59.70761052990778
 20
-48.42684435961459
 30
0.0
 11
60.665436815128935
 21
-48.71419224518094
 31
0.0
  0
LINE
  8
0
 10
59.70761052990778
 20
-49.626844359614594
 30
0.0
 11
60.665436815128935
 21
-49.33949647404825
 31
0.0
  0
LINE
  8
0
 10
60.665436815128935
 20
-48.71419224518094
 30
0.0
 11
60.665436815128935
 21
-49.33949647404825
 31
0.0
  0
LINE
  8
0
 10
60.88166197640609
 20
-50.94460581166447
 30
0.0
 11
56.700328575395154
 21
-55.92772491415342
 31
0.0
  0
LINE
  8
0
 10
42.88360890518299
 20
-72.39385021899587
 30
0.0
 11
47.06494230619393
 21
-67.41073111650691
 31
0.0
  0
POLYLINE
  8
0
 66
1
 10
0.0
 20
0.0
 30
0.0
 70
8
  0
VERTEX
  8
0
 10
56.700328575395154
 20
-55.92772491415342
 30
0.0
  0
VERTEX
  8
0
 10
58.0906992396561
 20
-57.09438442573449
 30
0.0
  0
VERTEX
  8
0
 10
54.0218536703403
 20
-61.94344575067762
 30
0.0
  0
VERTEX
  8
0
 10
52.63148300607935
 20
-60.77678623909655
 30
0.0
  0
VERTEX
  8
0
 10
51.13378787550971
 20
-62.56166979156377
 30
0.0
  0
SEQEND
  0
POLYLINE
  8
0
 66
1
 10
0.0
 20
0.0
 30
0.0
 70
8
  0
VERTEX
  8
0
 10
51.13378787550971
 20
-62.56166979156377
 30
0.0
  0
VERTEX
  8
0
 10
52.52415853977065
 20
-63.72832930314484
 30
0.0
  0
VERTEX
  8
0
 10
48.455312970454855
 20
-68.57739062808797
 30
0.0
  0
VERTEX
  8
0
 10
47.06494230619391
 20
-67.4107311165069
 30
0.0
  0
SEQEND
  0
LINE
  8
0
 10
59.96240864466331
 20
-50.17326068004063
 30
0.0
 11
55.781075243652374
 21
-55.15637978252958
 31
0.0
  0
LINE
  8
0
 10
41.96435557344021
 20
-71.622505087372
 30
0.0
 11
46.14568897445115
 21
-66.63938598488305
 31
0.0
  0
POLYLINE
  8
0
 66
1
 10
0.0
 20
0.0
 30
0.0
 70
8
  0
VERTEX
  8
0
 10
55.781075243652374
 20
-55.15637978252958
 30
0.0
  0
VERTEX
  8
0
 10
54.39070457939143
 20
-53.98972027094851
 30
0.0
  0
VERTEX
  8
0
 10
50.321859010075634
 20
-58.83878159589164
 30
0.0
  0
VERTEX
  8
0
 10
51.71222967433658
 20
-60.005441107472706
 30
0.0
  0
VERTEX
  8
0
 10
50.21453454376694
 20
-61.79032465993993
 30
0.0
  0
SEQEND
  0
POLYLINE
  8
0
 66
1
 10
0.0
 20
0.0
 30
0.0
 70
8
  0
VERTEX
  8
0
 10
50.21453454376694
 20
-61.79032465993993
 30
0.0
  0
VERTEX
  8
0
 10
48.824163879505996
 20
-60.62366514835886
 30
0.0
  0
VERTEX
  8
0
 10
44.7553183101902
 20
-65.47272647330199
 30
0.0
  0
VERTEX
  8
0
 10
46.14568897445114
 20
-66.63938598488306
 30
0.0
  0
SEQEND
  0
LINE
  8
0
 10
59.96240864466331
 20
-50.17326068004063
 30
0.0
 11
60.79820876401564
 21
-49.62422683728534
 31
0.0
  0
LINE
  8
0
 10
60.88166197640609
 20
-50.94460581166447
 30
0.0
 11
61.27721959379824
 21
-50.02616464788584
 31
0.0
  0
LINE
  8
0
 10
60.79820876401564
 20
-49.62422683728534
 30
0.0
 11
61.27721959379824
 21
-50.02616464788584
 31
0.0
  0
LINE
  8
0
 10
63.45281241515225
 20
-50.17326068004063
 30
0.0
 11
67.6341458161632
 21
-55.15637978252958
 31
0.0
  0
LINE
  8
0
 10
81.45086548637535
 20
-71.622505087372
 30
0.0
 11
77.2695320853644
 21
-66.63938598488305
 31
0.0
  0
POLYLINE
  8
0
 66
1
 10
0.0
 20
0.0
 30
0.0
 70
8
  0
VERTEX
  8
0
 10
67.6341458161632
 20
-55.15637978252958
 30
0.0
  0
VERTEX
  8
0
 10
69.02451648042414
 20
-53.98972027094851
 30
0.0
  0
VERTEX
  8
0
 10
73.09336204973994
 20
-58.83878159589164
 30
0.0
  0
VERTEX
  8
0
 10
71.702991385479
 20
-60.005441107472706
 30
0.0
  0
VERTEX
  8
0
 10
73.20068651604863
 20
-61.79032465993993
 30
0.0
  0
SEQEND
  0
POLYLINE
  8
0
 66
1
 10
0.0
 20
0.0
 30
0.0
 70
8
  0
VERTEX
  8
0
 10
73.20068651604863
 20
-61.79032465993993
 30
0.0
  0
VERTEX
  8
0
 10
74.59105718030958
 20
-60.62366514835886
 30
0.0
  0
VERTEX
  8
0
 10
78.65990274962537
 20
-65.47272647330199
 30
0.0
  0
VERTEX
  8
0
 10
77.26953208536443
 20
-66.63938598488306
 30
0.0
  0
SEQEND
  0
LINE
  8
0
 10
62.53355908340947
 20
-50.94460581166447
 30
0.0
 11
66.7148924844204
 21
-55.92772491415342
 31
0.0
  0
LINE
  8
0
 10
80.53161215463258
 20
-72.39385021899587
 30
0.0
 11
76.35027875362164
 21
-67.41073111650691
 31
0.0
  0
POLYLINE
  8
0
 66
1
 10
0.0
 20
0.0
 30
0.0
 70
8
  0
VERTEX
  8
0
 10
66.7148924844204
 20
-55.92772491415342
 30
0.0
  0
VERTEX
  8
0
 10
65.32452182015946
 20
-57.09438442573449
 30
0.0
  0
VERTEX
  8
0
 10
69.39336738947526
 20
-61.94344575067762
 30
0.0
  0
VERTEX
  8
0
 10
70.7837380537362
 20
-60.77678623909655
 30
0.0
  0
VERTEX
  8
0
 10
72.28143318430584
 20
-62.56166979156377
 30
0.0
  0
SEQEND
  0
POLYLINE
  8
0
 66
1
 10
0.0
 20
0.0
 30
0.0
 70
8
  0
VERTEX
  8
0
 10
72.28143318430584
 20
-62.56166979156377
 30
0.0
  0
VERTEX
  8
0
 10
70.8910625200449
 20
-63.72832930314484
 30
0.0
  0
VERTEX
  8
0
 10
74.9599080893607
 20
-68.57739062808797
 30
0.0
  0
VERTEX
  8
0
 10
76.35027875362164
 20
-67.4107311165069
 30
0.0
  0
SEQEND
  0
LINE
  8
0
 10
62.53355908340947
 20
-50.94460581166447
 30
0.0
 11
62.13800146601732
 21
-50.02616464788584
 31
0.0
  0
LINE
  8
0
 10
63.45281241515225
 20
-50.17326068004063
 30
0.0
 11
62.617012295799924
 21
-49.62422683728534
 31
0.0
  0
LINE
  8
0
 10
62.13800146601732
 20
-50.02616464788584
 30
0.0
 11
62.617012295799924
 21
-49.62422683728534
 31
0.0
  0
LINE
  8
0
 10
104.8460175498463
 20
-48.42684435961459
 30
0.0
 11
115.92022105981556
 21
-48.42684435961459
 31
0.0
  0
LINE
  8
0
 10
141.9844245697848
 20
-48.42684435961459
 30
0.0
 11
130.91022105981554
 21
-48.42684435961459
 31
0.0
  0
POLYLINE
  8
0
 66
1
 10
0.0
 20
0.0
 30
0.0
 70
8
  0
VERTEX
  8
0
 10
115.92022105981556
 20
-48.42684435961459
 30
0.0
  0
VERTEX
  8
0
 10
115.92022105981556
 20
-46.611844359614594
 30
0.0
  0
VERTEX
  8
0
 10
122.25022105981556
 20
-46.611844359614594
 30
0.0
  0
VERTEX
  8
0
 10
122.25022105981556
 20
-48.42684435961459
 30
0.0
  0
VERTEX
  8
0
 10
124.58022105981556
 20
-48.42684435961459
 30
0.0
  0
SEQEND
  0
POLYLINE
  8
0
 66
1
 10
0.0
 20
0.0
 30
0.0
 70
8
  0
VERTEX
  8
0
 10
124.58022105981556
 20
-48.42684435961459
 30
0.0
  0
VERTEX
  8
0
 10
124.58022105981556
 20
-46.611844359614594
 30
0.0
  0
VERTEX
  8
0
 10
130.91022105981557
 20
-46.611844359614594
 30
0.0
  0
VERTEX
  8
0
 10
130.91022105981557
 20
-48.42684435961459
 30
0.0
  0
SEQEND
  0
LINE
  8
0
 10
104.8460175498463
 20
-49.626844359614594
 30
0.0
 11
115.92022105981556
 21
-49.626844359614594
 31
0.0
  0
LINE
  8
0
 10
141.9844245697848
 20
-49.626844359614594
 30
0.0
 11
130.91022105981554
 21
-49.626844359614594
 31
0.0
  0
POLYLINE
  8
0
 66
1
 10
0.0
 20
0.0
 30
0.0
 70
8
  0
VERTEX
  8
0
 10
115.92022105981556
 20
-49.626844359614594
 30
0.0
  0
VERTEX
  8
0
 10
115.92022105981556
 20
-51.44184435961459
 30
0.0
  0
VERTEX
  8
0
 10
122.25022105981556
 20
-51.44184435961459
 30
0.0
  0
VERTEX
  8
0
 10
122.25022105981556
 20
-49.626844359614594
 30
0.0
  0
VERTEX
  8
0
 10
124.58022105981556
 20
-49.626844359614594
 30
0.0
  0
SEQEND
  0
POLYLINE
  8
0
 66
1
 10
0.0
 20
0.0
 30
0.0
 70
8
  0
VERTEX
  8
0
 10
124.58022105981556
 20
-49.626844359614594
 30
0.0
  0
VERTEX
  8
0
 10
124.58022105981556
 20
-51.44184435961459
 30
0.0
  0
VERTEX
  8
0
 10
130.91022105981557
 20
-51.44184435961459
 30
0.0
  0
VERTEX
  8
0
 10
130.91022105981557
 20
-49.626844359614594
 30
0.0
  0
SEQEND
  0
LINE
  8
0
 10
104.8460175498463
 20
-49.626844359614594
 30
0.0
 11
103.88819126462515
 21
-49.33949647404825
 31
0.0
  0
LINE
  8
0
 10
104.8460175498463
 20
-48.42684435961459
 30
0.0
 11
103.88819126462515
 21
-48.71419224518094
 31
0.0
  0
LINE
  8
0
 10
103.88819126462515
 20
-49.33949647404825
 30
0.0
 11
103.88819126462515
 21
-48.71419224518094
 31
0.0
  0
LINE
  8
0
 10
103.67196610334798
 20
-47.10908290756471
 30
0.0
 11
107.85329950435892
 21
-42.12596380507576
 31
0.0
  0
LINE
  8
0
 10
121.67001917457108
 20
-25.659838500233327
 30
0.0
 11
117.48868577356015
 21
-30.64295760272228
 31
0.0
  0
POLYLINE
  8
0
 66
1
 10
0.0
 20
0.0
 30
0.0
 70
8
  0
VERTEX
  8
0
 10
107.85329950435892
 20
-42.12596380507576
 30
0.0
  0
VERTEX
  8
0
 10
106.46292884009797
 20
-40.9593042934947
 30
0.0
  0
VERTEX
  8
0
 10
110.53177440941377
 20
-36.11024296855157
 30
0.0
  0
VERTEX
  8
0
 10
111.92214507367471
 20
-37.276902480132634
 30
0.0
  0
VERTEX
  8
0
 10
113.41984020424435
 20
-35.49201892766541
 30
0.0
  0
SEQEND
  0
POLYLINE
  8
0
 66
1
 10
0.0
 20
0.0
 30
0.0
 70
8
  0
VERTEX
  8
0
 10
113.41984020424435
 20
-35.49201892766541
 30
0.0
  0
VERTEX
  8
0
 10
112.02946953998341
 20
-34.325359416084346
 30
0.0
  0
VERTEX
  8
0
 10
116.09831510929921
 20
-29.476298091141217
 30
0.0
  0
VERTEX
  8
0
 10
117.48868577356015
 20
-30.642957602722287
 30
0.0
  0
SEQEND
  0
LINE
  8
0
 10
104.59121943509075
 20
-47.88042803918856
 30
0.0
 11
108.77255283610168
 21
-42.89730893669961
 31
0.0
  0
LINE
  8
0
 10
122.58927250631385
 20
-26.431183631857174
 30
0.0
 11
118.40793910530292
 21
-31.414302734346126
 31
0.0
  0
POLYLINE
  8
0
 66
1
 10
0.0
 20
0.0
 30
0.0
 70
8
  0
VERTEX
  8
0
 10
108.77255283610168
 20
-42.89730893669961
 30
0.0
  0
VERTEX
  8
0
 10
110.16292350036262
 20
-44.063968448280676
 30
0.0
  0
VERTEX
  8
0
 10
114.23176906967842
 20
-39.21490712333755
 30
0.0
  0
VERTEX
  8
0
 10
112.84139840541748
 20
-38.04824761175648
 30
0.0
  0
VERTEX
  8
0
 10
114.33909353598712
 20
-36.26336405928926
 30
0.0
  0
SEQEND
  0
POLYLINE
  8
0
 66
1
 10
0.0
 20
0.0
 30
0.0
 70
8
  0
VERTEX
  8
0
 10
114.33909353598712
 20
-36.26336405928926
 30
0.0
  0
VERTEX
  8
0
 10
115.72946420024806
 20
-37.430023570870325
 30
0.0
  0
VERTEX
  8
0
 10
119.79830976956386
 20
-32.580962245927196
 30
0.0
  0
VERTEX
  8
0
 10
118.40793910530292
 20
-31.414302734346126
 30
0.0
  0
SEQEND
  0
LINE
  8
0
 10
104.59121943509075
 20
-47.88042803918856
 30
0.0
 11
103.75541931573842
 21
-48.429461881943844
 31
0.0
  0
LINE
  8
0
 10
103.67196610334798
 20
-47.10908290756471
 30
0.0
 11
103.27640848595583
 21
-48.02752407134334
 31
0.0
  0
LINE
  8
0
 10
103.75541931573842
 20
-48.429461881943844
 30
0.0
 11
103.27640848595583
 21
-48.02752407134334
 31
0.0
  0
LINE
  8
0
 10
102.0200689963446
 20
-47.10908290756471
 30
0.0
 11
102.41562661373676
 21
-48.02752407134334
 31
0.0
  0
LINE
  8
0
 10
101.10081566460184
 20
-47.88042803918856
 30
0.0
 11
101.93661578395417
 21
-48.429461881943844
 31
0.0
  0
LINE
  8
0
 10
102.41562661373676
 20
-48.02752407134334
 30
0.0
 11
101.93661578395417
 21
-48.429461881943844
 31
0.0
  0
LINE
  8
0
 10
100.8460175498463
 20
-48.42684435961459
 30
0.0
 11
101.80384383506744
 21
-48.71419224518094
 31
0.0
  0
LINE
  8
0
 10
100.8460175498463
 20
-49.626844359614594
 30
0.0
 11
101.80384383506744
 21
-49.33949647404825
 31
0.0
  0
LINE
  8
0
 10
101.80384383506744
 20
-48.71419224518094
 30
0.0
 11
101.80384383506744
 21
-49.33949647404825
 31
0.0
  0
LINE
  8
0
 10
102.0200689963446
 20
-50.94460581166447
 30
0.0
 11
97.83873559533366
 21
-55.92772491415342
 31
0.0
  0
LINE
  8
0
 10
84.02201592512151
 20
-72.39385021899587
 30
0.0
 11
88.20334932613244
 21
-67.41073111650691
 31
0.0
  0
POLYLINE
  8
0
 66
1
 10
0.0
 20
0.0
 30
0.0
 70
8
  0
VERTEX
  8
0
 10
97.83873559533366
 20
-55.92772491415342
 30
0.0
  0
VERTEX
  8
0
 10
99.2291062595946
 20
-57.09438442573449
 30
0.0
  0
VERTEX
  8
0
 10
95.1602606902788
 20
-61.94344575067762
 30
0.0
  0
VERTEX
  8
0
 10
93.76989002601786
 20
-60.77678623909655
 30
0.0
  0
VERTEX
  8
0
 10
92.27219489544822
 20
-62.56166979156377
 30
0.0
  0
SEQEND
  0
POLYLINE
  8
0
 66
1
 10
0.0
 20
0.0
 30
0.0
 70
8
  0
VERTEX
  8
0
 10
92.27219489544822
 20
-62.56166979156377
 30
0.0
  0
VERTEX
  8
0
 10
93.66256555970917
 20
-63.72832930314484
 30
0.0
  0
VERTEX
  8
0
 10
89.59371999039337
 20
-68.57739062808797
 30
0.0
  0
VERTEX
  8
0
 10
88.20334932613243
 20
-67.4107311165069
 30
0.0
  0
SEQEND
  0
LINE
  8
0
 10
101.10081566460184
 20
-50.17326068004063
 30
0.0
 11
96.9194822635909
 21
-55.15637978252958
 31
0.0
  0
LINE
  8
0
 10
83.10276259337874
 20
-71.622505087372
 30
0.0
 11
87.28409599438967
 21
-66.63938598488305
 31
0.0
  0
POLYLINE
  8
0
 66
1
 10
0.0
 20
0.0
 30
0.0
 70
8
  0
VERTEX
  8
0
 10
96.9194822635909
 20
-55.15637978252958
 30
0.0
  0
VERTEX
  8
0
 10
95.52911159932995
 20
-53.98972027094851
 30
0.0
  0
VERTEX
  8
0
 10
91.46026603001415
 20
-58.83878159589164
 30
0.0
  0
VERTEX
  8
0
 10
92.8506366942751
 20
-60.005441107472706
 30
0.0
  0
VERTEX
  8
0
 10
91.35294156370546
 20
-61.79032465993993
 30
0.0
  0
SEQEND
  0
POLYLINE
  8
0
 66
1
 10
0.0
 20
0.0
 30
0.0
 70
8
  0
VERTEX
  8
0
 10
91.35294156370546
 20
-61.79032465993993
 30
0.0
  0
VERTEX
  8
0
 10
89.96257089944451
 20
-60.62366514835886
 30
0.0
  0
VERTEX
  8
0
 10
85.89372533012872
 20
-65.47272647330199
 30
0.0
  0
VERTEX
  8
0
 10
87.28409599438966
 20
-66.63938598488306
 30
0.0
  0
SEQEND
  0
LINE
  8
0
 10
101.10081566460184
 20
-50.17326068004063
 30
0.0
 11
101.93661578395417
 21
-49.62422683728534
 31
0.0
  0
LINE
  8
0
 10
102.0200689963446
 20
-50.94460581166447
 30
0.0
 11
102.41562661373676
 21
-50.02616464788584
 31
0.0
  0
LINE
  8
0
 10
101.93661578395417
 20
-49.62422683728534
 30
0.0
 11
102.41562661373676
 21
-50.02616464788584
 31
0.0
  0
LINE
  8
0
 10
104.59121943509075
 20
-50.17326068004063
 30
0.0
 11
108.77255283610168
 21
-55.15637978252958
 31
0.0
  0
LINE
  8
0
 10
122.58927250631385
 20
-71.622505087372
 30
0.0
 11
118.4079391053029
 21
-66.63938598488305
 31
0.0
  0
POLYLINE
  8
0
 66
1
 10
0.0
 20
0.0
 30
0.0
 70
8
  0
VERTEX
  8
0
 10
108.77255283610168
 20
-55.15637978252958
 30
0.0
  0
VERTEX
  8
0
 10
110.16292350036262
 20
-53.98972027094851
 30
0.0
  0
VERTEX
  8
0
 10
114.23176906967842
 20
-58.83878159589164
 30
0.0
  0
VERTEX
  8
0
 10
112.84139840541748
 20
-60.005441107472706
 30
0.0
  0
VERTEX
  8
0
 10
114.33909353598712
 20
-61.79032465993993
 30
0.0
  0
SEQEND
  0
POLYLINE
  8
0
 66
1
 10
0.0
 20
0.0
 30
0.0
 70
8
  0
VERTEX
  8
0
 10
114.33909353598712
 20
-61.79032465993993
 30
0.0
  0
VERTEX
  8
0
 10
115.72946420024806
 20
-60.62366514835886
 30
0.0
  0
VERTEX
  8
0
 10
119.79830976956386
 20
-65.47272647330199
 30
0.0
  0
VERTEX
  8
0
 10
118.40793910530292
 20
-66.63938598488306
 30
0.0
  0
SEQEND
  0
LINE
  8
0
 10
103.67196610334798
 20
-50.94460581166447
 30
0.0
 11
107.85329950435892
 21
-55.92772491415342
 31
0.0
  0
LINE
  8
0
 10
121.67001917457108
 20
-72.39385021899587
 30
0.0
 11
117.48868577356014
 21
-67.41073111650691
 31
0.0
  0
POLYLINE
  8
0
 66
1
 10
0.0
 20
0.0
 30
0.0
 70
8
  0
VERTEX
  8
0
 10
107.85329950435892
 20
-55.92772491415342
 30
0.0
  0
VERTEX
  8
0
 10
106.46292884009797
 20
-57.09438442573449
 30
0.0
  0
VERTEX
  8
0
 10
110.53177440941377
 20
-61.94344575067762
 30
0.0
  0
VERTEX
  8
0
 10
111.92214507367471
 20
-60.77678623909655
 30
0.0
  0
VERTEX
  8
0
 10
113.41984020424435
 20
-62.56166979156377
 30
0.0
  0
SEQEND
  0
POLYLINE
  8
0
 66
1
 10
0.0
 20
0.0
 30
0.0
 70
8
  0
VERTEX
  8
0
 10
113.41984020424435
 20
-62.56166979156377
 30
0.0
  0
VERTEX
  8
0
 10
112.02946953998341
 20
-63.72832930314484
 30
0.0
  0
VERTEX
  8
0
 10
116.09831510929921
 20
-68.57739062808797
 30
0.0
  0
VERTEX
  8
0
 10
117.48868577356015
 20
-67.4107311165069
 30
0.0
  0
SEQEND
  0
LINE
  8
0
 10
103.67196610334798
 20
-50.94460581166447
 30
0.0
 11
103.27640848595583
 21
-50.02616464788584
 31
0.0
  0
LINE
  8
0
 10
104.59121943509075
 20
-50.17326068004063
 30
0.0
 11
103.75541931573842
 21
-49.62422683728534
 31
0.0
  0
LINE
  8
0
 10
103.27640848595583
 20
-50.02616464788584
 30
0.0
 11
103.75541931573842
 21
-49.62422683728534
 31
0.0
  0
ENDSEC
  0
EOF
