  0
SECTION
  2
HEADER
  9
$ACADVER
  1
AC1009
  9
$INSBASE
 10
0.0
 20
0.0
 30
0.0
  9
$EXTMIN
 10
0.0
 20
0.0
 30
0.0
  9
$EXTMAX
 10
100.0
 20
100.0
 30
0.0
  9
$UNITMODE
 70
0
  9
$AUNITS
 70
0
  9
$ANGBASE
 50
0.0
  9
$ANGDIR
 70
0
  0
ENDSEC
  0
SECTION
  2
TABLES
  0
TABLE
  2
LTYPE
 70
19
  0
LTYPE
  2
CONTINUOUS
 70
0
  3
Solid
 72
65
 73
0
 40
0.0
  0
LTYPE
  2
CENTER
 70
0
  3
Center ____ _ ____ _ ____ _ ____ _ ____ _ ____
 72
65
 73
4
 40
2.0
 49
1.25
 49
-0.25
 49
0.25
 49
-0.25
  0
LTYPE
  2
CENTERX2
 70
0
  3
Center (2x) ________  __  ________  __  ________
 72
65
 73
4
 40
3.5
 49
2.5
 49
-0.25
 49
0.5
 49
-0.25
  0
LTYPE
  2
CENTER2
 70
0
  3
Center (.5x) ____ _ ____ _ ____ _ ____ _ ____
 72
65
 73
4
 40
1.0
 49
0.625
 49
-0.125
 49
0.125
 49
-0.125
  0
LTYPE
  2
DASHED
 70
0
  3
Dashed __ __ __ __ __ __ __ __ __ __ __ __ __ _
 72
65
 73
2
 40
0.6
 49
0.5
 49
-0.1
  0
LTYPE
  2
DASHEDX2
 70
0
  3
Dashed (2x) ____  ____  ____  ____  ____  ____
 72
65
 73
2
 40
1.2
 49
1.0
 49
-0.2
  0
LTYPE
  2
DASHED2
 70
0
  3
Dashed (.5x) _ _ _ _ _ _ _ _ _ _ _ _ _ _
 72
65
 73
2
 40
0.3
 49
0.25
 49
-0.05
  0
LTYPE
  2
PHANTOM
 70
0
  3
Phantom ______  __  __  ______  __  __  ______
 72
65
 73
6
 40
2.5
 49
1.25
 49
-0.25
 49
0.25
 49
-0.25
 49
0.25
 49
-0.25
  0
LTYPE
  2
PHANTOMX2
 70
0
  3
Phantom (2x)____________    ____    ____    ____________
 72
65
 73
6
 40
4.25
 49
2.5
 49
-0.25
 49
0.5
 49
-0.25
 49
0.5
 49
-0.25
  0
LTYPE
  2
PHANTOM2
 70
0
  3
Phantom (.5x) ___ _ _ ___ _ _ ___ _ _ ___ _ _ ___
 72
65
 73
6
 40
1.25
 49
0.625
 49
-0.125
 49
0.125
 49
-0.125
 49
0.125
 49
-0.125
  0
LTYPE
  2
DASHDOT
 70
0
  3
Dash dot __ . __ . __ . __ . __ . __ . __ . __
 72
65
 73
4
 40
1.4
 49
1.0
 49
-0.2
 49
0.0
 49
-0.2
  0
LTYPE
  2
DASHDOTX2
 70
0
  3
Dash dot (2x) ____  .  ____  .  ____  .  ____
 72
65
 73
4
 40
2.4
 49
2.0
 49
-0.2
 49
0.0
 49
-0.2
  0
LTYPE
  2
DASHDOT2
 70
0
  3
Dash dot (.5x) _ . _ . _ . _ . _ . _ . _ . _
 72
65
 73
4
 40
0.7
 49
0.5
 49
-0.1
 49
0.0
 49
-0.1
  0
LTYPE
  2
DOT
 70
0
  3
Dot .  .  .  .  .  .  .  .  .  .  .  .  .  .  .  .
 72
65
 73
2
 40
0.2
 49
0.0
 49
-0.2
  0
LTYPE
  2
DOTX2
 70
0
  3
Dot (2x) .    .    .    .    .    .    .    . 
 72
65
 73
2
 40
0.4
 49
0.0
 49
-0.4
  0
LTYPE
  2
DOT2
 70
0
  3
Dot (.5) . . . . . . . . . . . . . . . . . . . 
 72
65
 73
2
 40
0.1
 49
0.0
 49
-0.1
  0
LTYPE
  2
DIVIDE
 70
0
  3
Divide __ . . __ . . __ . . __ . . __ . . __
 72
65
 73
6
 40
1.6
 49
1.0
 49
-0.2
 49
0.0
 49
-0.2
 49
0.0
 49
-0.2
  0
LTYPE
  2
DIVIDEX2
 70
0
  3
Divide (2x) ____  . .  ____  . .  ____  . .  ____
 72
65
 73
6
 40
2.6
 49
2.0
 49
-0.2
 49
0.0
 49
-0.2
 49
0.0
 49
-0.2
  0
LTYPE
  2
DIVIDE2
 70
0
  3
Divide(.5x) _ . _ . _ . _ . _ . _ . _ . _
 72
65
 73
6
 40
0.8
 49
0.5
 49
-0.1
 49
0.0
 49
-0.1
 49
0.0
 49
-0.1
  0
ENDTAB
  0
TABLE
  2
LAYER
 70
5
  0
LAYER
  2
DIMENSIONS
 70
0
 62
1
  6
CONTINUOUS
  0
LAYER
  2
TABLEBACKGROUND
 70
0
 62
1
  6
CONTINUOUS
  0
LAYER
  2
TABLECONTENT
 70
0
 62
1
  6
CONTINUOUS
  0
LAYER
  2
TABLEGRID
 70
0
 62
1
  6
CONTINUOUS
  0
LAYER
  2
VIEWPORTS
 70
0
 62
7
  6
CONTINUOUS
  0
ENDTAB
  0
TABLE
  2
STYLE
 70
12
  0
STYLE
  2
STANDARD
 70
0
 40
0.0
 41
1.0
 42
1.0
 50
0.0
 71
0
  3
arial.ttf
  4

  0
STYLE
  2
ARIAL
 70
0
 40
0.0
 41
1.0
 42
1.0
 50
0.0
 71
0
  3
arial.ttf
  4

  0
STYLE
  2
ARIAL_BOLD
 70
0
 40
0.0
 41
1.0
 42
1.0
 50
0.0
 71
0
  3
arialbd.ttf
  4

  0
STYLE
  2
ARIAL_ITALIC
 70
0
 40
0.0
 41
1.0
 42
1.0
 50
0.0
 71
0
  3
ariali.ttf
  4

  0
STYLE
  2
ARIAL_BOLD_ITALIC
 70
0
 40
0.0
 41
1.0
 42
1.0
 50
0.0
 71
0
  3
arialbi.ttf
  4

  0
STYLE
  2
ARIAL_BLACK
 70
0
 40
0.0
 41
1.0
 42
1.0
 50
0.0
 71
0
  3
ariblk.ttf
  4

  0
STYLE
  2
ISOCPEUR
 70
0
 40
0.0
 41
1.0
 42
1.0
 50
0.0
 71
0
  3
isocpeur.ttf
  4

  0
STYLE
  2
ISOCPEUR_ITALIC
 70
0
 40
0.0
 41
1.0
 42
1.0
 50
0.0
 71
0
  3
isocpeui.ttf
  4

  0
STYLE
  2
TIMES
 70
0
 40
0.0
 41
1.0
 42
1.0
 50
0.0
 71
0
  3
times.ttf
  4

  0
STYLE
  2
TIMES_BOLD
 70
0
 40
0.0
 41
1.0
 42
1.0
 50
0.0
 71
0
  3
timesbd.ttf
  4

  0
STYLE
  2
TIMES_ITALIC
 70
0
 40
0.0
 41
1.0
 42
1.0
 50
0.0
 71
0
  3
timesi.ttf
  4

  0
STYLE
  2
TIMES_BOLD_ITALIC
 70
0
 40
0.0
 41
1.0
 42
1.0
 50
0.0
 71
0
  3
timesbi.ttf
  4

  0
ENDTAB
  0
TABLE
  2
VIEW
 70
0
  0
ENDTAB
  0
TABLE
  2
APPID
 70
1
  0
APPID
  2
DXFWRITE
 70
0
  0
ENDTAB
  0
TABLE
  2
VPORT
 70
0
  0
ENDTAB
  0
TABLE
  2
UCS
 70
0
  0
ENDTAB
  0
ENDSEC
  0
SECTION
  2
BLOCKS
  0
ENDSEC
  0
SECTION
  2
ENTITIES
  0
VIEWPORT
  8
VIEWPORTS
 67
1
 10
0.0
 20
0.0
 30
0.0
 40
1.0
 41
1.0
 68
1
 69
1
1001
ACAD
1000
MVIEW
1002
{
1070
16
1010
0.0
1020
0.0
1030
0.0
1010
0.0
1020
0.0
1030
0.0
1040
0.0
1040
1.0
1040
0.0
1040
0.0
1040
50.0
1040
0.0
1040
0.0
1070
0
1070
100
1070
1
1070
3
1070
0
1070
0
1070
0
1070
0
1040
0.0
1040
0.0
1040
0.0
1040
0.1
1040
0.1
1040
0.1
1040
0.1
1070
0
1002
{
1002
}
1002
}
  0
LINE
  8
0
 10
17.26
 20
0.6
 30
0.0
 11
22.765000000000004
 21
0.6
 31
0.0
  0
LINE
  8
0
 10
43.260000000000005
 20
0.6
 30
0.0
 11
37.755
 21
0.5999999999999993
 31
0.0
  0
POLYLINE
  8
0
 66
1
 10
0.0
 20
0.0
 30
0.0
 70
8
  0
VERTEX
  8
0
 10
22.765000000000004
 20
0.6
 30
0.0
  0
VERTEX
  8
0
 10
22.765000000000004
 20
2.415
 30
0.0
  0
VERTEX
  8
0
 10
29.095000000000006
 20
2.415
 30
0.0
  0
VERTEX
  8
0
 10
29.095000000000006
 20
0.6000000000000001
 30
0.0
  0
VERTEX
  8
0
 10
31.425000000000004
 20
0.6000000000000001
 30
0.0
  0
SEQEND
  0
POLYLINE
  8
0
 66
1
 10
0.0
 20
0.0
 30
0.0
 70
8
  0
VERTEX
  8
0
 10
31.425000000000004
 20
0.6000000000000001
 30
0.0
  0
VERTEX
  8
0
 10
31.425000000000004
 20
2.415
 30
0.0
  0
VERTEX
  8
0
 10
37.755
 20
2.415
 30
0.0
  0
VERTEX
  8
0
 10
37.755
 20
0.6000000000000001
 30
0.0
  0
SEQEND
  0
LINE
  8
0
 10
17.26
 20
-0.6
 30
0.0
 11
22.765000000000004
 21
-0.6
 31
0.0
  0
LINE
  8
0
 10
43.260000000000005
 20
-0.6
 30
0.0
 11
37.755
 21
-0.6000000000000006
 31
0.0
  0
POLYLINE
  8
0
 66
1
 10
0.0
 20
0.0
 30
0.0
 70
8
  0
VERTEX
  8
0
 10
22.765000000000004
 20
-0.6
 30
0.0
  0
VERTEX
  8
0
 10
22.765000000000004
 20
-2.415
 30
0.0
  0
VERTEX
  8
0
 10
29.095000000000006
 20
-2.415
 30
0.0
  0
VERTEX
  8
0
 10
29.095000000000006
 20
-0.6000000000000001
 30
0.0
  0
VERTEX
  8
0
 10
31.425000000000004
 20
-0.6000000000000001
 30
0.0
  0
SEQEND
  0
POLYLINE
  8
0
 66
1
 10
0.0
 20
0.0
 30
0.0
 70
8
  0
VERTEX
  8
0
 10
31.425000000000004
 20
-0.6000000000000001
 30
0.0
  0
VERTEX
  8
0
 10
31.425000000000004
 20
-2.415
 30
0.0
  0
VERTEX
  8
0
 10
37.755
 20
-2.415
 30
0.0
  0
VERTEX
  8
0
 10
37.755
 20
-0.6000000000000001
 30
0.0
  0
SEQEND
  0
LINE
  8
0
 10
17.26
 20
-0.6
 30
0.0
 11
16.234894429435116
 21
-0.3112378674465108
 31
0.0
  0
LINE
  8
0
 10
17.26
 20
0.6
 30
0.0
 11
16.234894429435116
 21
0.3112378674465108
 31
0.0
  0
LINE
  8
0
 10
16.234894429435116
 20
-0.3112378674465108
 30
0.0
 11
16.234894429435116
 21
0.3112378674465108
 31
0.0
  0
LINE
  8
0
 10
15.67538475772934
 20
2.144634110060854
 30
0.0
 11
18.42788475772934
 21
6.912103957894189
 31
0.0
  0
LINE
  8
0
 10
28.675384757729343
 20
24.66129460845626
 30
0.0
 11
25.922884757729346
 21
19.893824760622923
 31
0.0
  0
POLYLINE
  8
0
 66
1
 10
0.0
 20
0.0
 30
0.0
 70
8
  0
VERTEX
  8
0
 10
18.42788475772934
 20
6.912103957894189
 30
0.0
  0
VERTEX
  8
0
 10
16.856048649860586
 20
7.819603957894189
 30
0.0
  0
VERTEX
  8
0
 10
20.02104864986059
 20
13.301544763849686
 30
0.0
  0
VERTEX
  8
0
 10
21.592884757729344
 20
12.394044763849685
 30
0.0
  0
VERTEX
  8
0
 10
22.757884757729343
 20
14.411883954667427
 30
0.0
  0
SEQEND
  0
POLYLINE
  8
0
 66
1
 10
0.0
 20
0.0
 30
0.0
 70
8
  0
VERTEX
  8
0
 10
22.757884757729343
 20
14.411883954667427
 30
0.0
  0
VERTEX
  8
0
 10
21.186048649860588
 20
15.319383954667428
 30
0.0
  0
VERTEX
  8
0
 10
24.351048649860587
 20
20.801324760622926
 30
0.0
  0
VERTEX
  8
0
 10
25.922884757729342
 20
19.893824760622923
 30
0.0
  0
SEQEND
  0
LINE
  8
0
 10
16.714615242270668
 20
1.544634110060854
 30
0.0
 11
19.46711524227067
 21
6.312103957894188
 31
0.0
  0
LINE
  8
0
 10
29.71461524227067
 20
24.061294608456258
 30
0.0
 11
26.962115242270674
 21
19.293824760622922
 31
0.0
  0
POLYLINE
  8
0
 66
1
 10
0.0
 20
0.0
 30
0.0
 70
8
  0
VERTEX
  8
0
 10
19.46711524227067
 20
6.312103957894188
 30
0.0
  0
VERTEX
  8
0
 10
21.038951350139424
 20
5.404603957894189
 30
0.0
  0
VERTEX
  8
0
 10
24.203951350139427
 20
10.886544763849685
 30
0.0
  0
VERTEX
  8
0
 10
22.63211524227067
 20
11.794044763849685
 30
0.0
  0
VERTEX
  8
0
 10
23.79711524227067
 20
13.811883954667428
 30
0.0
  0
SEQEND
  0
POLYLINE
  8
0
 66
1
 10
0.0
 20
0.0
 30
0.0
 70
8
  0
VERTEX
  8
0
 10
23.79711524227067
 20
13.811883954667428
 30
0.0
  0
VERTEX
  8
0
 10
25.368951350139426
 20
12.904383954667427
 30
0.0
  0
VERTEX
  8
0
 10
28.533951350139425
 20
18.386324760622923
 30
0.0
  0
VERTEX
  8
0
 10
26.96211524227067
 20
19.293824760622922
 30
0.0
  0
SEQEND
  0
LINE
  8
0
 10
16.714615242270668
 20
1.544634110060854
 30
0.0
 11
15.951987114545933
 21
0.8012477106674663
 31
0.0
  0
LINE
  8
0
 10
15.67538475772934
 20
2.144634110060854
 30
0.0
 11
15.412907314889187
 21
1.1124855781139766
 31
0.0
  0
LINE
  8
0
 10
15.951987114545933
 20
0.8012477106674663
 30
0.0
 11
15.412907314889187
 21
1.1124855781139766
 31
0.0
  0
LINE
  8
0
 10
13.54538475772934
 20
1.5446341100608543
 30
0.0
 11
10.79288475772934
 21
6.312103957894189
 31
0.0
  0
LINE
  8
0
 10
0.5453847577293435
 20
24.06129460845626
 30
0.0
 11
3.297884757729344
 21
19.293824760622925
 31
0.0
  0
POLYLINE
  8
0
 66
1
 10
0.0
 20
0.0
 30
0.0
 70
8
  0
VERTEX
  8
0
 10
10.79288475772934
 20
6.312103957894189
 30
0.0
  0
VERTEX
  8
0
 10
9.221048649860585
 20
5.404603957894189
 30
0.0
  0
VERTEX
  8
0
 10
6.056048649860585
 20
10.886544763849685
 30
0.0
  0
VERTEX
  8
0
 10
7.627884757729341
 20
11.794044763849685
 30
0.0
  0
VERTEX
  8
0
 10
6.462884757729341
 20
13.811883954667428
 30
0.0
  0
SEQEND
  0
POLYLINE
  8
0
 66
1
 10
0.0
 20
0.0
 30
0.0
 70
8
  0
VERTEX
  8
0
 10
6.462884757729341
 20
13.811883954667428
 30
0.0
  0
VERTEX
  8
0
 10
4.891048649860585
 20
12.904383954667427
 30
0.0
  0
VERTEX
  8
0
 10
1.7260486498605863
 20
18.386324760622923
 30
0.0
  0
VERTEX
  8
0
 10
3.297884757729342
 20
19.293824760622922
 30
0.0
  0
SEQEND
  0
LINE
  8
0
 10
14.584615242270667
 20
2.144634110060854
 30
0.0
 11
11.832115242270667
 21
6.912103957894189
 31
0.0
  0
LINE
  8
0
 10
1.5846152422706699
 20
24.661294608456263
 30
0.0
 11
4.33711524227067
 21
19.893824760622927
 31
0.0
  0
POLYLINE
  8
0
 66
1
 10
0.0
 20
0.0
 30
0.0
 70
8
  0
VERTEX
  8
0
 10
11.832115242270667
 20
6.912103957894189
 30
0.0
  0
VERTEX
  8
0
 10
13.403951350139424
 20
7.819603957894189
 30
0.0
  0
VERTEX
  8
0
 10
10.238951350139425
 20
13.301544763849686
 30
0.0
  0
VERTEX
  8
0
 10
8.667115242270668
 20
12.394044763849685
 30
0.0
  0
VERTEX
  8
0
 10
7.502115242270669
 20
14.411883954667427
 30
0.0
  0
SEQEND
  0
POLYLINE
  8
0
 66
1
 10
0.0
 20
0.0
 30
0.0
 70
8
  0
VERTEX
  8
0
 10
7.502115242270669
 20
14.411883954667427
 30
0.0
  0
VERTEX
  8
0
 10
9.073951350139426
 20
15.319383954667428
 30
0.0
  0
VERTEX
  8
0
 10
5.908951350139427
 20
20.801324760622926
 30
0.0
  0
VERTEX
  8
0
 10
4.337115242270671
 20
19.893824760622927
 30
0.0
  0
SEQEND
  0
LINE
  8
0
 10
14.584615242270667
 20
2.144634110060854
 30
0.0
 11
14.847092685110818
 21
1.1124855781139764
 31
0.0
  0
LINE
  8
0
 10
13.54538475772934
 20
1.5446341100608543
 30
0.0
 11
14.308012885454072
 21
0.8012477106674658
 31
0.0
  0
LINE
  8
0
 10
14.847092685110818
 20
1.1124855781139764
 30
0.0
 11
14.308012885454072
 21
0.8012477106674658
 31
0.0
  0
LINE
  8
0
 10
13.000000000000004
 20
-0.5999999999999998
 30
0.0
 11
7.495
 21
-0.5999999999999991
 31
0.0
  0
LINE
  8
0
 10
-13.000000000000004
 20
-0.5999999999999965
 30
0.0
 11
-7.495
 21
-0.5999999999999965
 31
0.0
  0
POLYLINE
  8
0
 66
1
 10
0.0
 20
0.0
 30
0.0
 70
8
  0
VERTEX
  8
0
 10
7.495
 20
-0.5999999999999991
 30
0.0
  0
VERTEX
  8
0
 10
7.495
 20
-2.414999999999999
 30
0.0
  0
VERTEX
  8
0
 10
1.165
 20
-2.4149999999999983
 30
0.0
  0
VERTEX
  8
0
 10
1.1650000000000007
 20
-0.5999999999999983
 30
0.0
  0
VERTEX
  8
0
 10
-1.1649999999999994
 20
-0.599999999999998
 30
0.0
  0
SEQEND
  0
POLYLINE
  8
0
 66
1
 10
0.0
 20
0.0
 30
0.0
 70
8
  0
VERTEX
  8
0
 10
-1.1649999999999994
 20
-0.599999999999998
 30
0.0
  0
VERTEX
  8
0
 10
-1.1649999999999998
 20
-2.414999999999998
 30
0.0
  0
VERTEX
  8
0
 10
-7.495
 20
-2.414999999999997
 30
0.0
  0
VERTEX
  8
0
 10
-7.494999999999999
 20
-0.599999999999997
 30
0.0
  0
SEQEND
  0
LINE
  8
0
 10
13.000000000000004
 20
0.6000000000000002
 30
0.0
 11
7.495
 21
0.6000000000000009
 31
0.0
  0
LINE
  8
0
 10
-13.000000000000004
 20
0.6000000000000034
 30
0.0
 11
-7.495
 21
0.6000000000000034
 31
0.0
  0
POLYLINE
  8
0
 66
1
 10
0.0
 20
0.0
 30
0.0
 70
8
  0
VERTEX
  8
0
 10
7.495
 20
0.6000000000000009
 30
0.0
  0
VERTEX
  8
0
 10
7.495
 20
2.415000000000001
 30
0.0
  0
VERTEX
  8
0
 10
1.165
 20
2.415000000000002
 30
0.0
  0
VERTEX
  8
0
 10
1.1649999999999996
 20
0.6000000000000019
 30
0.0
  0
VERTEX
  8
0
 10
-1.1650000000000005
 20
0.6000000000000022
 30
0.0
  0
SEQEND
  0
POLYLINE
  8
0
 66
1
 10
0.0
 20
0.0
 30
0.0
 70
8
  0
VERTEX
  8
0
 10
-1.1650000000000005
 20
0.6000000000000022
 30
0.0
  0
VERTEX
  8
0
 10
-1.1650000000000003
 20
2.4150000000000023
 30
0.0
  0
VERTEX
  8
0
 10
-7.495
 20
2.415000000000003
 30
0.0
  0
VERTEX
  8
0
 10
-7.495
 20
0.6000000000000032
 30
0.0
  0
SEQEND
  0
LINE
  8
0
 10
13.000000000000004
 20
0.6000000000000002
 30
0.0
 11
14.02510557056489
 21
0.3112378674465109
 31
0.0
  0
LINE
  8
0
 10
13.000000000000004
 20
-0.5999999999999998
 30
0.0
 11
14.02510557056489
 21
-0.3112378674465106
 31
0.0
  0
LINE
  8
0
 10
14.02510557056489
 20
0.3112378674465109
 30
0.0
 11
14.02510557056489
 21
-0.3112378674465106
 31
0.0
  0
LINE
  8
0
 10
14.584615242270665
 20
-2.1446341100608537
 30
0.0
 11
11.832115242270662
 21
-6.912103957894187
 31
0.0
  0
LINE
  8
0
 10
1.5846152422706536
 20
-24.66129460845625
 30
0.0
 11
4.337115242270654
 21
-19.893824760622913
 31
0.0
  0
POLYLINE
  8
0
 66
1
 10
0.0
 20
0.0
 30
0.0
 70
8
  0
VERTEX
  8
0
 10
11.832115242270662
 20
-6.912103957894187
 30
0.0
  0
VERTEX
  8
0
 10
13.403951350139417
 20
-7.819603957894188
 30
0.0
  0
VERTEX
  8
0
 10
10.238951350139414
 20
-13.301544763849684
 30
0.0
  0
VERTEX
  8
0
 10
8.667115242270658
 20
-12.394044763849685
 30
0.0
  0
VERTEX
  8
0
 10
7.502115242270657
 20
-14.411883954667427
 30
0.0
  0
SEQEND
  0
POLYLINE
  8
0
 66
1
 10
0.0
 20
0.0
 30
0.0
 70
8
  0
VERTEX
  8
0
 10
7.502115242270657
 20
-14.411883954667427
 30
0.0
  0
VERTEX
  8
0
 10
9.073951350139412
 20
-15.319383954667428
 30
0.0
  0
VERTEX
  8
0
 10
5.908951350139409
 20
-20.801324760622922
 30
0.0
  0
VERTEX
  8
0
 10
4.337115242270652
 20
-19.893824760622923
 30
0.0
  0
SEQEND
  0
LINE
  8
0
 10
13.545384757729337
 20
-1.5446341100608536
 30
0.0
 11
10.792884757729334
 21
-6.3121039578941875
 31
0.0
  0
LINE
  8
0
 10
0.5453847577293274
 20
-24.061294608456247
 30
0.0
 11
3.297884757729328
 21
-19.29382476062291
 31
0.0
  0
POLYLINE
  8
0
 66
1
 10
0.0
 20
0.0
 30
0.0
 70
8
  0
VERTEX
  8
0
 10
10.792884757729334
 20
-6.3121039578941875
 30
0.0
  0
VERTEX
  8
0
 10
9.221048649860577
 20
-5.404603957894188
 30
0.0
  0
VERTEX
  8
0
 10
6.056048649860575
 20
-10.886544763849683
 30
0.0
  0
VERTEX
  8
0
 10
7.62788475772933
 20
-11.794044763849683
 30
0.0
  0
VERTEX
  8
0
 10
6.462884757729329
 20
-13.811883954667426
 30
0.0
  0
SEQEND
  0
POLYLINE
  8
0
 66
1
 10
0.0
 20
0.0
 30
0.0
 70
8
  0
VERTEX
  8
0
 10
6.462884757729329
 20
-13.811883954667426
 30
0.0
  0
VERTEX
  8
0
 10
4.891048649860573
 20
-12.904383954667425
 30
0.0
  0
VERTEX
  8
0
 10
1.7260486498605703
 20
-18.38632476062292
 30
0.0
  0
VERTEX
  8
0
 10
3.2978847577293258
 20
-19.293824760622922
 30
0.0
  0
SEQEND
  0
LINE
  8
0
 10
13.545384757729337
 20
-1.5446341100608536
 30
0.0
 11
14.308012885454072
 21
-0.8012477106674658
 31
0.0
  0
LINE
  8
0
 10
14.584615242270665
 20
-2.1446341100608537
 30
0.0
 11
14.847092685110818
 21
-1.1124855781139762
 31
0.0
  0
LINE
  8
0
 10
14.308012885454072
 20
-0.8012477106674658
 30
0.0
 11
14.847092685110818
 21
-1.1124855781139762
 31
0.0
  0
LINE
  8
0
 10
16.714615242270668
 20
-1.544634110060854
 30
0.0
 11
19.46711524227067
 21
-6.312103957894188
 31
0.0
  0
LINE
  8
0
 10
29.71461524227067
 20
-24.061294608456258
 30
0.0
 11
26.96211524227067
 21
-19.293824760622925
 31
0.0
  0
POLYLINE
  8
0
 66
1
 10
0.0
 20
0.0
 30
0.0
 70
8
  0
VERTEX
  8
0
 10
19.46711524227067
 20
-6.312103957894188
 30
0.0
  0
VERTEX
  8
0
 10
21.038951350139424
 20
-5.404603957894189
 30
0.0
  0
VERTEX
  8
0
 10
24.203951350139427
 20
-10.886544763849685
 30
0.0
  0
VERTEX
  8
0
 10
22.63211524227067
 20
-11.794044763849685
 30
0.0
  0
VERTEX
  8
0
 10
23.79711524227067
 20
-13.811883954667428
 30
0.0
  0
SEQEND
  0
POLYLINE
  8
0
 66
1
 10
0.0
 20
0.0
 30
0.0
 70
8
  0
VERTEX
  8
0
 10
23.79711524227067
 20
-13.811883954667428
 30
0.0
  0
VERTEX
  8
0
 10
25.368951350139426
 20
-12.904383954667427
 30
0.0
  0
VERTEX
  8
0
 10
28.533951350139425
 20
-18.386324760622923
 30
0.0
  0
VERTEX
  8
0
 10
26.96211524227067
 20
-19.293824760622922
 30
0.0
  0
SEQEND
  0
LINE
  8
0
 10
15.67538475772934
 20
-2.144634110060854
 30
0.0
 11
18.42788475772934
 21
-6.912103957894189
 31
0.0
  0
LINE
  8
0
 10
28.675384757729343
 20
-24.66129460845626
 30
0.0
 11
25.922884757729342
 21
-19.893824760622927
 31
0.0
  0
POLYLINE
  8
0
 66
1
 10
0.0
 20
0.0
 30
0.0
 70
8
  0
VERTEX
  8
0
 10
18.42788475772934
 20
-6.912103957894189
 30
0.0
  0
VERTEX
  8
0
 10
16.856048649860586
 20
-7.819603957894189
 30
0.0
  0
VERTEX
  8
0
 10
20.02104864986059
 20
-13.301544763849686
 30
0.0
  0
VERTEX
  8
0
 10
21.592884757729344
 20
-12.394044763849685
 30
0.0
  0
VERTEX
  8
0
 10
22.757884757729343
 20
-14.411883954667427
 30
0.0
  0
SEQEND
  0
POLYLINE
  8
0
 66
1
 10
0.0
 20
0.0
 30
0.0
 70
8
  0
VERTEX
  8
0
 10
22.757884757729343
 20
-14.411883954667427
 30
0.0
  0
VERTEX
  8
0
 10
21.186048649860588
 20
-15.319383954667428
 30
0.0
  0
VERTEX
  8
0
 10
24.351048649860587
 20
-20.801324760622926
 30
0.0
  0
VERTEX
  8
0
 10
25.922884757729342
 20
-19.893824760622927
 30
0.0
  0
SEQEND
  0
LINE
  8
0
 10
15.67538475772934
 20
-2.144634110060854
 30
0.0
 11
15.412907314889187
 21
-1.1124855781139766
 31
0.0
  0
LINE
  8
0
 10
16.714615242270668
 20
-1.544634110060854
 30
0.0
 11
15.951987114545933
 21
-0.8012477106674663
 31
0.0
  0
LINE
  8
0
 10
15.412907314889187
 20
-1.1124855781139766
 30
0.0
 11
15.951987114545933
 21
-0.8012477106674663
 31
0.0
  0
LINE
  8
0
 10
47.52000000000001
 20
0.6
 30
0.0
 11
53.02500000000001
 21
0.6
 31
0.0
  0
LINE
  8
0
 10
73.52000000000001
 20
0.6
 30
0.0
 11
68.015
 21
0.5999999999999993
 31
0.0
  0
POLYLINE
  8
0
 66
1
 10
0.0
 20
0.0
 30
0.0
 70
8
  0
VERTEX
  8
0
 10
53.02500000000001
 20
0.6
 30
0.0
  0
VERTEX
  8
0
 10
53.02500000000001
 20
2.415
 30
0.0
  0
VERTEX
  8
0
 10
59.35500000000001
 20
2.415
 30
0.0
  0
VERTEX
  8
0
 10
59.35500000000001
 20
0.6000000000000001
 30
0.0
  0
VERTEX
  8
0
 10
61.68500000000001
 20
0.6000000000000001
 30
0.0
  0
SEQEND
  0
POLYLINE
  8
0
 66
1
 10
0.0
 20
0.0
 30
0.0
 70
8
  0
VERTEX
  8
0
 10
61.68500000000001
 20
0.6000000000000001
 30
0.0
  0
VERTEX
  8
0
 10
61.68500000000001
 20
2.415
 30
0.0
  0
VERTEX
  8
0
 10
68.01500000000001
 20
2.415
 30
0.0
  0
VERTEX
  8
0
 10
68.01500000000001
 20
0.6000000000000001
 30
0.0
  0
SEQEND
  0
LINE
  8
0
 10
47.52000000000001
 20
-0.6
 30
0.0
 11
53.02500000000001
 21
-0.6
 31
0.0
  0
LINE
  8
0
 10
73.52000000000001
 20
-0.6
 30
0.0
 11
68.015
 21
-0.6000000000000006
 31
0.0
  0
POLYLINE
  8
0
 66
1
 10
0.0
 20
0.0
 30
0.0
 70
8
  0
VERTEX
  8
0
 10
53.02500000000001
 20
-0.6
 30
0.0
  0
VERTEX
  8
0
 10
53.02500000000001
 20
-2.415
 30
0.0
  0
VERTEX
  8
0
 10
59.35500000000001
 20
-2.415
 30
0.0
  0
VERTEX
  8
0
 10
59.35500000000001
 20
-0.6000000000000001
 30
0.0
  0
VERTEX
  8
0
 10
61.68500000000001
 20
-0.6000000000000001
 30
0.0
  0
SEQEND
  0
POLYLINE
  8
0
 66
1
 10
0.0
 20
0.0
 30
0.0
 70
8
  0
VERTEX
  8
0
 10
61.68500000000001
 20
-0.6000000000000001
 30
0.0
  0
VERTEX
  8
0
 10
61.68500000000001
 20
-2.415
 30
0.0
  0
VERTEX
  8
0
 10
68.01500000000001
 20
-2.415
 30
0.0
  0
VERTEX
  8
0
 10
68.01500000000001
 20
-0.6000000000000001
 30
0.0
  0
SEQEND
  0
LINE
  8
0
 10
47.52000000000001
 20
-0.6
 30
0.0
 11
46.49489442943512
 21
-0.3112378674465112
 31
0.0
  0
LINE
  8
0
 10
47.52000000000001
 20
0.6
 30
0.0
 11
46.49489442943512
 21
0.3112378674465112
 31
0.0
  0
LINE
  8
0
 10
46.49489442943512
 20
-0.3112378674465112
 30
0.0
 11
46.49489442943512
 21
0.3112378674465112
 31
0.0
  0
LINE
  8
0
 10
45.935384757729345
 20
2.144634110060854
 30
0.0
 11
48.68788475772934
 21
6.912103957894189
 31
0.0
  0
LINE
  8
0
 10
58.93538475772935
 20
24.66129460845626
 30
0.0
 11
56.182884757729354
 21
19.893824760622923
 31
0.0
  0
POLYLINE
  8
0
 66
1
 10
0.0
 20
0.0
 30
0.0
 70
8
  0
VERTEX
  8
0
 10
48.68788475772934
 20
6.912103957894189
 30
0.0
  0
VERTEX
  8
0
 10
47.11604864986059
 20
7.819603957894189
 30
0.0
  0
VERTEX
  8
0
 10
50.28104864986059
 20
13.301544763849686
 30
0.0
  0
VERTEX
  8
0
 10
51.85288475772934
 20
12.394044763849685
 30
0.0
  0
VERTEX
  8
0
 10
53.01788475772934
 20
14.411883954667427
 30
0.0
  0
SEQEND
  0
POLYLINE
  8
0
 66
1
 10
0.0
 20
0.0
 30
0.0
 70
8
  0
VERTEX
  8
0
 10
53.01788475772934
 20
14.411883954667427
 30
0.0
  0
VERTEX
  8
0
 10
51.446048649860586
 20
15.319383954667428
 30
0.0
  0
VERTEX
  8
0
 10
54.611048649860585
 20
20.801324760622926
 30
0.0
  0
VERTEX
  8
0
 10
56.18288475772934
 20
19.893824760622923
 30
0.0
  0
SEQEND
  0
LINE
  8
0
 10
46.974615242270666
 20
1.544634110060854
 30
0.0
 11
49.72711524227066
 21
6.312103957894188
 31
0.0
  0
LINE
  8
0
 10
59.97461524227067
 20
24.061294608456258
 30
0.0
 11
57.222115242270675
 21
19.293824760622922
 31
0.0
  0
POLYLINE
  8
0
 66
1
 10
0.0
 20
0.0
 30
0.0
 70
8
  0
VERTEX
  8
0
 10
49.72711524227066
 20
6.312103957894188
 30
0.0
  0
VERTEX
  8
0
 10
51.29895135013942
 20
5.404603957894189
 30
0.0
  0
VERTEX
  8
0
 10
54.46395135013942
 20
10.886544763849685
 30
0.0
  0
VERTEX
  8
0
 10
52.89211524227066
 20
11.794044763849685
 30
0.0
  0
VERTEX
  8
0
 10
54.05711524227066
 20
13.811883954667428
 30
0.0
  0
SEQEND
  0
POLYLINE
  8
0
 66
1
 10
0.0
 20
0.0
 30
0.0
 70
8
  0
VERTEX
  8
0
 10
54.05711524227066
 20
13.811883954667428
 30
0.0
  0
VERTEX
  8
0
 10
55.62895135013942
 20
12.904383954667427
 30
0.0
  0
VERTEX
  8
0
 10
58.793951350139416
 20
18.386324760622923
 30
0.0
  0
VERTEX
  8
0
 10
57.22211524227066
 20
19.293824760622922
 30
0.0
  0
SEQEND
  0
LINE
  8
0
 10
46.974615242270666
 20
1.544634110060854
 30
0.0
 11
46.211987114545934
 21
0.8012477106674645
 31
0.0
  0
LINE
  8
0
 10
45.935384757729345
 20
2.144634110060854
 30
0.0
 11
45.672907314889194
 21
1.1124855781139766
 31
0.0
  0
LINE
  8
0
 10
46.211987114545934
 20
0.8012477106674645
 30
0.0
 11
45.672907314889194
 21
1.1124855781139766
 31
0.0
  0
LINE
  8
0
 10
43.80538475772935
 20
1.5446341100608543
 30
0.0
 11
41.05288475772935
 21
6.312103957894189
 31
0.0
  0
LINE
  8
0
 10
30.80538475772935
 20
24.06129460845626
 30
0.0
 11
33.55788475772935
 21
19.293824760622925
 31
0.0
  0
POLYLINE
  8
0
 66
1
 10
0.0
 20
0.0
 30
0.0
 70
8
  0
VERTEX
  8
0
 10
41.05288475772935
 20
6.312103957894189
 30
0.0
  0
VERTEX
  8
0
 10
39.4810486498606
 20
5.404603957894189
 30
0.0
  0
VERTEX
  8
0
 10
36.3160486498606
 20
10.886544763849685
 30
0.0
  0
VERTEX
  8
0
 10
37.88788475772935
 20
11.794044763849685
 30
0.0
  0
VERTEX
  8
0
 10
36.722884757729354
 20
13.811883954667428
 30
0.0
  0
SEQEND
  0
POLYLINE
  8
0
 66
1
 10
0.0
 20
0.0
 30
0.0
 70
8
  0
VERTEX
  8
0
 10
36.722884757729354
 20
13.811883954667428
 30
0.0
  0
VERTEX
  8
0
 10
35.1510486498606
 20
12.904383954667427
 30
0.0
  0
VERTEX
  8
0
 10
31.9860486498606
 20
18.386324760622923
 30
0.0
  0
VERTEX
  8
0
 10
33.557884757729354
 20
19.293824760622922
 30
0.0
  0
SEQEND
  0
LINE
  8
0
 10
44.84461524227067
 20
2.144634110060854
 30
0.0
 11
42.09211524227067
 21
6.912103957894189
 31
0.0
  0
LINE
  8
0
 10
31.844615242270677
 20
24.661294608456263
 30
0.0
 11
34.597115242270675
 21
19.893824760622927
 31
0.0
  0
POLYLINE
  8
0
 66
1
 10
0.0
 20
0.0
 30
0.0
 70
8
  0
VERTEX
  8
0
 10
42.09211524227067
 20
6.912103957894189
 30
0.0
  0
VERTEX
  8
0
 10
43.66395135013943
 20
7.819603957894189
 30
0.0
  0
VERTEX
  8
0
 10
40.49895135013943
 20
13.301544763849686
 30
0.0
  0
VERTEX
  8
0
 10
38.92711524227067
 20
12.394044763849685
 30
0.0
  0
VERTEX
  8
0
 10
37.762115242270674
 20
14.411883954667427
 30
0.0
  0
SEQEND
  0
POLYLINE
  8
0
 66
1
 10
0.0
 20
0.0
 30
0.0
 70
8
  0
VERTEX
  8
0
 10
37.762115242270674
 20
14.411883954667427
 30
0.0
  0
VERTEX
  8
0
 10
39.33395135013943
 20
15.319383954667428
 30
0.0
  0
VERTEX
  8
0
 10
36.16895135013943
 20
20.801324760622926
 30
0.0
  0
VERTEX
  8
0
 10
34.597115242270675
 20
19.893824760622927
 30
0.0
  0
SEQEND
  0
LINE
  8
0
 10
44.84461524227067
 20
2.144634110060854
 30
0.0
 11
45.10709268511082
 21
1.1124855781139766
 31
0.0
  0
LINE
  8
0
 10
43.80538475772935
 20
1.5446341100608543
 30
0.0
 11
44.56801288545408
 21
0.8012477106674646
 31
0.0
  0
LINE
  8
0
 10
45.10709268511082
 20
1.1124855781139766
 30
0.0
 11
44.56801288545408
 21
0.8012477106674646
 31
0.0
  0
LINE
  8
0
 10
43.260000000000005
 20
0.6000000000000002
 30
0.0
 11
44.285105570564895
 21
0.31123786744651133
 31
0.0
  0
LINE
  8
0
 10
43.260000000000005
 20
-0.5999999999999998
 30
0.0
 11
44.285105570564895
 21
-0.31123786744651105
 31
0.0
  0
LINE
  8
0
 10
44.285105570564895
 20
0.31123786744651133
 30
0.0
 11
44.285105570564895
 21
-0.31123786744651105
 31
0.0
  0
LINE
  8
0
 10
44.84461524227067
 20
-2.1446341100608537
 30
0.0
 11
42.092115242270665
 21
-6.912103957894187
 31
0.0
  0
LINE
  8
0
 10
31.844615242270663
 20
-24.66129460845625
 30
0.0
 11
34.59711524227066
 21
-19.893824760622913
 31
0.0
  0
POLYLINE
  8
0
 66
1
 10
0.0
 20
0.0
 30
0.0
 70
8
  0
VERTEX
  8
0
 10
42.092115242270665
 20
-6.912103957894187
 30
0.0
  0
VERTEX
  8
0
 10
43.66395135013942
 20
-7.819603957894188
 30
0.0
  0
VERTEX
  8
0
 10
40.49895135013942
 20
-13.301544763849684
 30
0.0
  0
VERTEX
  8
0
 10
38.927115242270666
 20
-12.394044763849685
 30
0.0
  0
VERTEX
  8
0
 10
37.76211524227067
 20
-14.411883954667427
 30
0.0
  0
SEQEND
  0
POLYLINE
  8
0
 66
1
 10
0.0
 20
0.0
 30
0.0
 70
8
  0
VERTEX
  8
0
 10
37.76211524227067
 20
-14.411883954667427
 30
0.0
  0
VERTEX
  8
0
 10
39.33395135013942
 20
-15.319383954667428
 30
0.0
  0
VERTEX
  8
0
 10
36.16895135013942
 20
-20.801324760622922
 30
0.0
  0
VERTEX
  8
0
 10
34.59711524227067
 20
-19.893824760622923
 30
0.0
  0
SEQEND
  0
LINE
  8
0
 10
43.80538475772935
 20
-1.5446341100608536
 30
0.0
 11
41.052884757729345
 21
-6.3121039578941875
 31
0.0
  0
LINE
  8
0
 10
30.805384757729335
 20
-24.061294608456247
 30
0.0
 11
33.55788475772933
 21
-19.29382476062291
 31
0.0
  0
POLYLINE
  8
0
 66
1
 10
0.0
 20
0.0
 30
0.0
 70
8
  0
VERTEX
  8
0
 10
41.052884757729345
 20
-6.3121039578941875
 30
0.0
  0
VERTEX
  8
0
 10
39.48104864986059
 20
-5.404603957894188
 30
0.0
  0
VERTEX
  8
0
 10
36.31604864986059
 20
-10.886544763849683
 30
0.0
  0
VERTEX
  8
0
 10
37.887884757729346
 20
-11.794044763849683
 30
0.0
  0
VERTEX
  8
0
 10
36.72288475772935
 20
-13.811883954667426
 30
0.0
  0
SEQEND
  0
POLYLINE
  8
0
 66
1
 10
0.0
 20
0.0
 30
0.0
 70
8
  0
VERTEX
  8
0
 10
36.72288475772935
 20
-13.811883954667426
 30
0.0
  0
VERTEX
  8
0
 10
35.15104864986059
 20
-12.904383954667425
 30
0.0
  0
VERTEX
  8
0
 10
31.98604864986059
 20
-18.38632476062292
 30
0.0
  0
VERTEX
  8
0
 10
33.55788475772935
 20
-19.293824760622922
 30
0.0
  0
SEQEND
  0
LINE
  8
0
 10
43.80538475772935
 20
-1.5446341100608536
 30
0.0
 11
44.56801288545408
 21
-0.8012477106674641
 31
0.0
  0
LINE
  8
0
 10
44.84461524227067
 20
-2.1446341100608537
 30
0.0
 11
45.10709268511082
 21
-1.1124855781139762
 31
0.0
  0
LINE
  8
0
 10
44.56801288545408
 20
-0.8012477106674641
 30
0.0
 11
45.10709268511082
 21
-1.1124855781139762
 31
0.0
  0
LINE
  8
0
 10
46.974615242270666
 20
-1.544634110060854
 30
0.0
 11
49.72711524227066
 21
-6.312103957894188
 31
0.0
  0
LINE
  8
0
 10
59.97461524227067
 20
-24.061294608456258
 30
0.0
 11
57.22211524227067
 21
-19.293824760622925
 31
0.0
  0
POLYLINE
  8
0
 66
1
 10
0.0
 20
0.0
 30
0.0
 70
8
  0
VERTEX
  8
0
 10
49.72711524227066
 20
-6.312103957894188
 30
0.0
  0
VERTEX
  8
0
 10
51.29895135013942
 20
-5.404603957894189
 30
0.0
  0
VERTEX
  8
0
 10
54.46395135013942
 20
-10.886544763849685
 30
0.0
  0
VERTEX
  8
0
 10
52.89211524227066
 20
-11.794044763849685
 30
0.0
  0
VERTEX
  8
0
 10
54.05711524227066
 20
-13.811883954667428
 30
0.0
  0
SEQEND
  0
POLYLINE
  8
0
 66
1
 10
0.0
 20
0.0
 30
0.0
 70
8
  0
VERTEX
  8
0
 10
54.05711524227066
 20
-13.811883954667428
 30
0.0
  0
VERTEX
  8
0
 10
55.62895135013942
 20
-12.904383954667427
 30
0.0
  0
VERTEX
  8
0
 10
58.793951350139416
 20
-18.386324760622923
 30
0.0
  0
VERTEX
  8
0
 10
57.22211524227066
 20
-19.293824760622922
 30
0.0
  0
SEQEND
  0
LINE
  8
0
 10
45.935384757729345
 20
-2.144634110060854
 30
0.0
 11
48.68788475772934
 21
-6.912103957894189
 31
0.0
  0
LINE
  8
0
 10
58.93538475772935
 20
-24.66129460845626
 30
0.0
 11
56.18288475772935
 21
-19.893824760622927
 31
0.0
  0
POLYLINE
  8
0
 66
1
 10
0.0
 20
0.0
 30
0.0
 70
8
  0
VERTEX
  8
0
 10
48.68788475772934
 20
-6.912103957894189
 30
0.0
  0
VERTEX
  8
0
 10
47.11604864986059
 20
-7.819603957894189
 30
0.0
  0
VERTEX
  8
0
 10
50.28104864986059
 20
-13.301544763849686
 30
0.0
  0
VERTEX
  8
0
 10
51.85288475772934
 20
-12.394044763849685
 30
0.0
  0
VERTEX
  8
0
 10
53.01788475772934
 20
-14.411883954667427
 30
0.0
  0
SEQEND
  0
POLYLINE
  8
0
 66
1
 10
0.0
 20
0.0
 30
0.0
 70
8
  0
VERTEX
  8
0
 10
53.01788475772934
 20
-14.411883954667427
 30
0.0
  0
VERTEX
  8
0
 10
51.446048649860586
 20
-15.319383954667428
 30
0.0
  0
VERTEX
  8
0
 10
54.611048649860585
 20
-20.801324760622926
 30
0.0
  0
VERTEX
  8
0
 10
56.18288475772934
 20
-19.893824760622927
 30
0.0
  0
SEQEND
  0
LINE
  8
0
 10
45.935384757729345
 20
-2.144634110060854
 30
0.0
 11
45.672907314889194
 21
-1.1124855781139766
 31
0.0
  0
LINE
  8
0
 10
46.974615242270666
 20
-1.544634110060854
 30
0.0
 11
46.211987114545934
 21
-0.8012477106674645
 31
0.0
  0
LINE
  8
0
 10
45.672907314889194
 20
-1.1124855781139766
 30
0.0
 11
46.211987114545934
 21
-0.8012477106674645
 31
0.0
  0
LINE
  8
0
 10
77.78
 20
0.6
 30
0.0
 11
83.28500000000001
 21
0.6
 31
0.0
  0
LINE
  8
0
 10
103.78
 20
0.6
 30
0.0
 11
98.27499999999999
 21
0.5999999999999993
 31
0.0
  0
POLYLINE
  8
0
 66
1
 10
0.0
 20
0.0
 30
0.0
 70
8
  0
VERTEX
  8
0
 10
83.28500000000001
 20
0.6
 30
0.0
  0
VERTEX
  8
0
 10
83.28500000000001
 20
2.415
 30
0.0
  0
VERTEX
  8
0
 10
89.61500000000001
 20
2.415
 30
0.0
  0
VERTEX
  8
0
 10
89.61500000000001
 20
0.6000000000000001
 30
0.0
  0
VERTEX
  8
0
 10
91.94500000000001
 20
0.6000000000000001
 30
0.0
  0
SEQEND
  0
POLYLINE
  8
0
 66
1
 10
0.0
 20
0.0
 30
0.0
 70
8
  0
VERTEX
  8
0
 10
91.94500000000001
 20
0.6000000000000001
 30
0.0
  0
VERTEX
  8
0
 10
91.94500000000001
 20
2.415
 30
0.0
  0
VERTEX
  8
0
 10
98.275
 20
2.415
 30
0.0
  0
VERTEX
  8
0
 10
98.275
 20
0.6000000000000001
 30
0.0
  0
SEQEND
  0
LINE
  8
0
 10
77.78
 20
-0.6
 30
0.0
 11
83.28500000000001
 21
-0.6
 31
0.0
  0
LINE
  8
0
 10
103.78
 20
-0.6
 30
0.0
 11
98.27499999999999
 21
-0.6000000000000006
 31
0.0
  0
POLYLINE
  8
0
 66
1
 10
0.0
 20
0.0
 30
0.0
 70
8
  0
VERTEX
  8
0
 10
83.28500000000001
 20
-0.6
 30
0.0
  0
VERTEX
  8
0
 10
83.28500000000001
 20
-2.415
 30
0.0
  0
VERTEX
  8
0
 10
89.61500000000001
 20
-2.415
 30
0.0
  0
VERTEX
  8
0
 10
89.61500000000001
 20
-0.6000000000000001
 30
0.0
  0
VERTEX
  8
0
 10
91.94500000000001
 20
-0.6000000000000001
 30
0.0
  0
SEQEND
  0
POLYLINE
  8
0
 66
1
 10
0.0
 20
0.0
 30
0.0
 70
8
  0
VERTEX
  8
0
 10
91.94500000000001
 20
-0.6000000000000001
 30
0.0
  0
VERTEX
  8
0
 10
91.94500000000001
 20
-2.415
 30
0.0
  0
VERTEX
  8
0
 10
98.275
 20
-2.415
 30
0.0
  0
VERTEX
  8
0
 10
98.275
 20
-0.6000000000000001
 30
0.0
  0
SEQEND
  0
LINE
  8
0
 10
77.78
 20
-0.6
 30
0.0
 11
76.75489442943511
 21
-0.31123786744651033
 31
0.0
  0
LINE
  8
0
 10
77.78
 20
0.6
 30
0.0
 11
76.75489442943511
 21
0.31123786744651033
 31
0.0
  0
LINE
  8
0
 10
76.75489442943511
 20
-0.31123786744651033
 30
0.0
 11
76.75489442943511
 21
0.31123786744651033
 31
0.0
  0
LINE
  8
0
 10
76.19538475772934
 20
2.144634110060854
 30
0.0
 11
78.94788475772934
 21
6.912103957894189
 31
0.0
  0
LINE
  8
0
 10
89.19538475772934
 20
24.66129460845626
 30
0.0
 11
86.44288475772935
 21
19.893824760622923
 31
0.0
  0
POLYLINE
  8
0
 66
1
 10
0.0
 20
0.0
 30
0.0
 70
8
  0
VERTEX
  8
0
 10
78.94788475772934
 20
6.912103957894189
 30
0.0
  0
VERTEX
  8
0
 10
77.37604864986058
 20
7.819603957894189
 30
0.0
  0
VERTEX
  8
0
 10
80.54104864986058
 20
13.301544763849686
 30
0.0
  0
VERTEX
  8
0
 10
82.11288475772935
 20
12.394044763849685
 30
0.0
  0
VERTEX
  8
0
 10
83.27788475772935
 20
14.411883954667427
 30
0.0
  0
SEQEND
  0
POLYLINE
  8
0
 66
1
 10
0.0
 20
0.0
 30
0.0
 70
8
  0
VERTEX
  8
0
 10
83.27788475772935
 20
14.411883954667427
 30
0.0
  0
VERTEX
  8
0
 10
81.70604864986059
 20
15.319383954667428
 30
0.0
  0
VERTEX
  8
0
 10
84.8710486498606
 20
20.801324760622926
 30
0.0
  0
VERTEX
  8
0
 10
86.44288475772936
 20
19.893824760622923
 30
0.0
  0
SEQEND
  0
LINE
  8
0
 10
77.23461524227066
 20
1.544634110060854
 30
0.0
 11
79.98711524227066
 21
6.312103957894188
 31
0.0
  0
LINE
  8
0
 10
90.23461524227066
 20
24.061294608456258
 30
0.0
 11
87.48211524227067
 21
19.293824760622922
 31
0.0
  0
POLYLINE
  8
0
 66
1
 10
0.0
 20
0.0
 30
0.0
 70
8
  0
VERTEX
  8
0
 10
79.98711524227066
 20
6.312103957894188
 30
0.0
  0
VERTEX
  8
0
 10
81.55895135013942
 20
5.404603957894189
 30
0.0
  0
VERTEX
  8
0
 10
84.72395135013943
 20
10.886544763849685
 30
0.0
  0
VERTEX
  8
0
 10
83.15211524227067
 20
11.794044763849685
 30
0.0
  0
VERTEX
  8
0
 10
84.31711524227067
 20
13.811883954667428
 30
0.0
  0
SEQEND
  0
POLYLINE
  8
0
 66
1
 10
0.0
 20
0.0
 30
0.0
 70
8
  0
VERTEX
  8
0
 10
84.31711524227067
 20
13.811883954667428
 30
0.0
  0
VERTEX
  8
0
 10
85.88895135013944
 20
12.904383954667427
 30
0.0
  0
VERTEX
  8
0
 10
89.05395135013944
 20
18.386324760622923
 30
0.0
  0
VERTEX
  8
0
 10
87.48211524227068
 20
19.293824760622922
 30
0.0
  0
SEQEND
  0
LINE
  8
0
 10
77.23461524227066
 20
1.544634110060854
 30
0.0
 11
76.47198711454593
 21
0.8012477106674645
 31
0.0
  0
LINE
  8
0
 10
76.19538475772934
 20
2.144634110060854
 30
0.0
 11
75.93290731488919
 21
1.1124855781139766
 31
0.0
  0
LINE
  8
0
 10
76.47198711454593
 20
0.8012477106674645
 30
0.0
 11
75.93290731488919
 21
1.1124855781139766
 31
0.0
  0
LINE
  8
0
 10
74.06538475772935
 20
1.5446341100608543
 30
0.0
 11
71.31288475772935
 21
6.312103957894189
 31
0.0
  0
LINE
  8
0
 10
61.06538475772935
 20
24.06129460845626
 30
0.0
 11
63.817884757729345
 21
19.293824760622925
 31
0.0
  0
POLYLINE
  8
0
 66
1
 10
0.0
 20
0.0
 30
0.0
 70
8
  0
VERTEX
  8
0
 10
71.31288475772935
 20
6.312103957894189
 30
0.0
  0
VERTEX
  8
0
 10
69.74104864986059
 20
5.404603957894189
 30
0.0
  0
VERTEX
  8
0
 10
66.57604864986058
 20
10.886544763849685
 30
0.0
  0
VERTEX
  8
0
 10
68.14788475772934
 20
11.794044763849685
 30
0.0
  0
VERTEX
  8
0
 10
66.98288475772934
 20
13.811883954667428
 30
0.0
  0
SEQEND
  0
POLYLINE
  8
0
 66
1
 10
0.0
 20
0.0
 30
0.0
 70
8
  0
VERTEX
  8
0
 10
66.98288475772934
 20
13.811883954667428
 30
0.0
  0
VERTEX
  8
0
 10
65.41104864986058
 20
12.904383954667427
 30
0.0
  0
VERTEX
  8
0
 10
62.246048649860576
 20
18.386324760622923
 30
0.0
  0
VERTEX
  8
0
 10
63.81788475772933
 20
19.293824760622922
 30
0.0
  0
SEQEND
  0
LINE
  8
0
 10
75.10461524227067
 20
2.144634110060854
 30
0.0
 11
72.35211524227067
 21
6.912103957894189
 31
0.0
  0
LINE
  8
0
 10
62.10461524227067
 20
24.661294608456263
 30
0.0
 11
64.85711524227067
 21
19.893824760622927
 31
0.0
  0
POLYLINE
  8
0
 66
1
 10
0.0
 20
0.0
 30
0.0
 70
8
  0
VERTEX
  8
0
 10
72.35211524227067
 20
6.912103957894189
 30
0.0
  0
VERTEX
  8
0
 10
73.92395135013943
 20
7.819603957894189
 30
0.0
  0
VERTEX
  8
0
 10
70.75895135013943
 20
13.301544763849686
 30
0.0
  0
VERTEX
  8
0
 10
69.18711524227066
 20
12.394044763849685
 30
0.0
  0
VERTEX
  8
0
 10
68.02211524227066
 20
14.411883954667427
 30
0.0
  0
SEQEND
  0
POLYLINE
  8
0
 66
1
 10
0.0
 20
0.0
 30
0.0
 70
8
  0
VERTEX
  8
0
 10
68.02211524227066
 20
14.411883954667427
 30
0.0
  0
VERTEX
  8
0
 10
69.59395135013942
 20
15.319383954667428
 30
0.0
  0
VERTEX
  8
0
 10
66.42895135013941
 20
20.801324760622926
 30
0.0
  0
VERTEX
  8
0
 10
64.85711524227065
 20
19.893824760622927
 30
0.0
  0
SEQEND
  0
LINE
  8
0
 10
75.10461524227067
 20
2.144634110060854
 30
0.0
 11
75.36709268511082
 21
1.1124855781139766
 31
0.0
  0
LINE
  8
0
 10
74.06538475772935
 20
1.5446341100608543
 30
0.0
 11
74.82801288545409
 21
0.8012477106674646
 31
0.0
  0
LINE
  8
0
 10
75.36709268511082
 20
1.1124855781139766
 30
0.0
 11
74.82801288545409
 21
0.8012477106674646
 31
0.0
  0
LINE
  8
0
 10
73.52000000000001
 20
0.6000000000000002
 30
0.0
 11
74.5451055705649
 21
0.31123786744651044
 31
0.0
  0
LINE
  8
0
 10
73.52000000000001
 20
-0.5999999999999998
 30
0.0
 11
74.5451055705649
 21
-0.3112378674465102
 31
0.0
  0
LINE
  8
0
 10
74.5451055705649
 20
0.31123786744651044
 30
0.0
 11
74.5451055705649
 21
-0.3112378674465102
 31
0.0
  0
LINE
  8
0
 10
75.10461524227067
 20
-2.1446341100608537
 30
0.0
 11
72.35211524227067
 21
-6.912103957894187
 31
0.0
  0
LINE
  8
0
 10
62.104615242270654
 20
-24.66129460845625
 30
0.0
 11
64.85711524227065
 21
-19.893824760622913
 31
0.0
  0
POLYLINE
  8
0
 66
1
 10
0.0
 20
0.0
 30
0.0
 70
8
  0
VERTEX
  8
0
 10
72.35211524227067
 20
-6.912103957894187
 30
0.0
  0
VERTEX
  8
0
 10
73.92395135013943
 20
-7.819603957894188
 30
0.0
  0
VERTEX
  8
0
 10
70.75895135013943
 20
-13.301544763849684
 30
0.0
  0
VERTEX
  8
0
 10
69.18711524227066
 20
-12.394044763849685
 30
0.0
  0
VERTEX
  8
0
 10
68.02211524227066
 20
-14.411883954667427
 30
0.0
  0
SEQEND
  0
POLYLINE
  8
0
 66
1
 10
0.0
 20
0.0
 30
0.0
 70
8
  0
VERTEX
  8
0
 10
68.02211524227066
 20
-14.411883954667427
 30
0.0
  0
VERTEX
  8
0
 10
69.59395135013942
 20
-15.319383954667428
 30
0.0
  0
VERTEX
  8
0
 10
66.42895135013941
 20
-20.801324760622922
 30
0.0
  0
VERTEX
  8
0
 10
64.85711524227065
 20
-19.893824760622923
 30
0.0
  0
SEQEND
  0
LINE
  8
0
 10
74.06538475772935
 20
-1.5446341100608536
 30
0.0
 11
71.31288475772935
 21
-6.3121039578941875
 31
0.0
  0
LINE
  8
0
 10
61.06538475772933
 20
-24.061294608456247
 30
0.0
 11
63.81788475772933
 21
-19.29382476062291
 31
0.0
  0
POLYLINE
  8
0
 66
1
 10
0.0
 20
0.0
 30
0.0
 70
8
  0
VERTEX
  8
0
 10
71.31288475772935
 20
-6.3121039578941875
 30
0.0
  0
VERTEX
  8
0
 10
69.74104864986059
 20
-5.404603957894188
 30
0.0
  0
VERTEX
  8
0
 10
66.57604864986058
 20
-10.886544763849683
 30
0.0
  0
VERTEX
  8
0
 10
68.14788475772934
 20
-11.794044763849683
 30
0.0
  0
VERTEX
  8
0
 10
66.98288475772934
 20
-13.811883954667426
 30
0.0
  0
SEQEND
  0
POLYLINE
  8
0
 66
1
 10
0.0
 20
0.0
 30
0.0
 70
8
  0
VERTEX
  8
0
 10
66.98288475772934
 20
-13.811883954667426
 30
0.0
  0
VERTEX
  8
0
 10
65.41104864986058
 20
-12.904383954667425
 30
0.0
  0
VERTEX
  8
0
 10
62.24604864986057
 20
-18.38632476062292
 30
0.0
  0
VERTEX
  8
0
 10
63.817884757729324
 20
-19.293824760622922
 30
0.0
  0
SEQEND
  0
LINE
  8
0
 10
74.06538475772935
 20
-1.5446341100608536
 30
0.0
 11
74.82801288545409
 21
-0.8012477106674641
 31
0.0
  0
LINE
  8
0
 10
75.10461524227067
 20
-2.1446341100608537
 30
0.0
 11
75.36709268511082
 21
-1.1124855781139762
 31
0.0
  0
LINE
  8
0
 10
74.82801288545409
 20
-0.8012477106674641
 30
0.0
 11
75.36709268511082
 21
-1.1124855781139762
 31
0.0
  0
LINE
  8
0
 10
77.23461524227066
 20
-1.544634110060854
 30
0.0
 11
79.98711524227066
 21
-6.312103957894188
 31
0.0
  0
LINE
  8
0
 10
90.23461524227066
 20
-24.061294608456258
 30
0.0
 11
87.48211524227067
 21
-19.293824760622925
 31
0.0
  0
POLYLINE
  8
0
 66
1
 10
0.0
 20
0.0
 30
0.0
 70
8
  0
VERTEX
  8
0
 10
79.98711524227066
 20
-6.312103957894188
 30
0.0
  0
VERTEX
  8
0
 10
81.55895135013942
 20
-5.404603957894189
 30
0.0
  0
VERTEX
  8
0
 10
84.72395135013943
 20
-10.886544763849685
 30
0.0
  0
VERTEX
  8
0
 10
83.15211524227067
 20
-11.794044763849685
 30
0.0
  0
VERTEX
  8
0
 10
84.31711524227067
 20
-13.811883954667428
 30
0.0
  0
SEQEND
  0
POLYLINE
  8
0
 66
1
 10
0.0
 20
0.0
 30
0.0
 70
8
  0
VERTEX
  8
0
 10
84.31711524227067
 20
-13.811883954667428
 30
0.0
  0
VERTEX
  8
0
 10
85.88895135013944
 20
-12.904383954667427
 30
0.0
  0
VERTEX
  8
0
 10
89.05395135013944
 20
-18.386324760622923
 30
0.0
  0
VERTEX
  8
0
 10
87.48211524227068
 20
-19.293824760622922
 30
0.0
  0
SEQEND
  0
LINE
  8
0
 10
76.19538475772934
 20
-2.144634110060854
 30
0.0
 11
78.94788475772934
 21
-6.912103957894189
 31
0.0
  0
LINE
  8
0
 10
89.19538475772934
 20
-24.66129460845626
 30
0.0
 11
86.44288475772935
 21
-19.893824760622927
 31
0.0
  0
POLYLINE
  8
0
 66
1
 10
0.0
 20
0.0
 30
0.0
 70
8
  0
VERTEX
  8
0
 10
78.94788475772934
 20
-6.912103957894189
 30
0.0
  0
VERTEX
  8
0
 10
77.37604864986058
 20
-7.819603957894189
 30
0.0
  0
VERTEX
  8
0
 10
80.54104864986058
 20
-13.301544763849686
 30
0.0
  0
VERTEX
  8
0
 10
82.11288475772935
 20
-12.394044763849685
 30
0.0
  0
VERTEX
  8
0
 10
83.27788475772935
 20
-14.411883954667427
 30
0.0
  0
SEQEND
  0
POLYLINE
  8
0
 66
1
 10
0.0
 20
0.0
 30
0.0
 70
8
  0
VERTEX
  8
0
 10
83.27788475772935
 20
-14.411883954667427
 30
0.0
  0
VERTEX
  8
0
 10
81.70604864986059
 20
-15.319383954667428
 30
0.0
  0
VERTEX
  8
0
 10
84.8710486498606
 20
-20.801324760622926
 30
0.0
  0
VERTEX
  8
0
 10
86.44288475772936
 20
-19.893824760622927
 30
0.0
  0
SEQEND
  0
LINE
  8
0
 10
76.19538475772934
 20
-2.144634110060854
 30
0.0
 11
75.93290731488919
 21
-1.1124855781139766
 31
0.0
  0
LINE
  8
0
 10
77.23461524227066
 20
-1.544634110060854
 30
0.0
 11
76.47198711454593
 21
-0.8012477106674645
 31
0.0
  0
LINE
  8
0
 10
75.93290731488919
 20
-1.1124855781139766
 30
0.0
 11
76.47198711454593
 21
-0.8012477106674645
 31
0.0
  0
LINE
  8
0
 10
108.04000000000002
 20
0.6
 30
0.0
 11
113.54500000000003
 21
0.6
 31
0.0
  0
LINE
  8
0
 10
134.04000000000002
 20
0.6
 30
0.0
 11
128.53500000000003
 21
0.5999999999999993
 31
0.0
  0
POLYLINE
  8
0
 66
1
 10
0.0
 20
0.0
 30
0.0
 70
8
  0
VERTEX
  8
0
 10
113.54500000000003
 20
0.6
 30
0.0
  0
VERTEX
  8
0
 10
113.54500000000003
 20
2.415
 30
0.0
  0
VERTEX
  8
0
 10
119.87500000000003
 20
2.415
 30
0.0
  0
VERTEX
  8
0
 10
119.87500000000003
 20
0.6000000000000001
 30
0.0
  0
VERTEX
  8
0
 10
122.20500000000003
 20
0.6000000000000001
 30
0.0
  0
SEQEND
  0
POLYLINE
  8
0
 66
1
 10
0.0
 20
0.0
 30
0.0
 70
8
  0
VERTEX
  8
0
 10
122.20500000000003
 20
0.6000000000000001
 30
0.0
  0
VERTEX
  8
0
 10
122.20500000000003
 20
2.415
 30
0.0
  0
VERTEX
  8
0
 10
128.53500000000003
 20
2.415
 30
0.0
  0
VERTEX
  8
0
 10
128.53500000000003
 20
0.6000000000000001
 30
0.0
  0
SEQEND
  0
LINE
  8
0
 10
108.04000000000002
 20
-0.6
 30
0.0
 11
113.54500000000003
 21
-0.6
 31
0.0
  0
LINE
  8
0
 10
134.04000000000002
 20
-0.6
 30
0.0
 11
128.53500000000003
 21
-0.6000000000000006
 31
0.0
  0
POLYLINE
  8
0
 66
1
 10
0.0
 20
0.0
 30
0.0
 70
8
  0
VERTEX
  8
0
 10
113.54500000000003
 20
-0.6
 30
0.0
  0
VERTEX
  8
0
 10
113.54500000000003
 20
-2.415
 30
0.0
  0
VERTEX
  8
0
 10
119.87500000000003
 20
-2.415
 30
0.0
  0
VERTEX
  8
0
 10
119.87500000000003
 20
-0.6000000000000001
 30
0.0
  0
VERTEX
  8
0
 10
122.20500000000003
 20
-0.6000000000000001
 30
0.0
  0
SEQEND
  0
POLYLINE
  8
0
 66
1
 10
0.0
 20
0.0
 30
0.0
 70
8
  0
VERTEX
  8
0
 10
122.20500000000003
 20
-0.6000000000000001
 30
0.0
  0
VERTEX
  8
0
 10
122.20500000000003
 20
-2.415
 30
0.0
  0
VERTEX
  8
0
 10
128.53500000000003
 20
-2.415
 30
0.0
  0
VERTEX
  8
0
 10
128.53500000000003
 20
-0.6000000000000001
 30
0.0
  0
SEQEND
  0
LINE
  8
0
 10
108.04000000000002
 20
-0.6
 30
0.0
 11
107.01489442943513
 21
-0.31123786744651033
 31
0.0
  0
LINE
  8
0
 10
108.04000000000002
 20
0.6
 30
0.0
 11
107.01489442943513
 21
0.31123786744651033
 31
0.0
  0
LINE
  8
0
 10
107.01489442943513
 20
-0.31123786744651033
 30
0.0
 11
107.01489442943513
 21
0.31123786744651033
 31
0.0
  0
LINE
  8
0
 10
106.45538475772936
 20
2.144634110060854
 30
0.0
 11
109.20788475772936
 21
6.912103957894189
 31
0.0
  0
LINE
  8
0
 10
119.45538475772936
 20
24.66129460845626
 30
0.0
 11
116.70288475772936
 21
19.893824760622923
 31
0.0
  0
POLYLINE
  8
0
 66
1
 10
0.0
 20
0.0
 30
0.0
 70
8
  0
VERTEX
  8
0
 10
109.20788475772936
 20
6.912103957894189
 30
0.0
  0
VERTEX
  8
0
 10
107.6360486498606
 20
7.819603957894189
 30
0.0
  0
VERTEX
  8
0
 10
110.8010486498606
 20
13.301544763849686
 30
0.0
  0
VERTEX
  8
0
 10
112.37288475772937
 20
12.394044763849685
 30
0.0
  0
VERTEX
  8
0
 10
113.53788475772937
 20
14.411883954667427
 30
0.0
  0
SEQEND
  0
POLYLINE
  8
0
 66
1
 10
0.0
 20
0.0
 30
0.0
 70
8
  0
VERTEX
  8
0
 10
113.53788475772937
 20
14.411883954667427
 30
0.0
  0
VERTEX
  8
0
 10
111.96604864986061
 20
15.319383954667428
 30
0.0
  0
VERTEX
  8
0
 10
115.13104864986062
 20
20.801324760622926
 30
0.0
  0
VERTEX
  8
0
 10
116.70288475772938
 20
19.893824760622923
 30
0.0
  0
SEQEND
  0
LINE
  8
0
 10
107.49461524227068
 20
1.544634110060854
 30
0.0
 11
110.24711524227068
 21
6.312103957894188
 31
0.0
  0
LINE
  8
0
 10
120.49461524227068
 20
24.061294608456258
 30
0.0
 11
117.74211524227069
 21
19.293824760622922
 31
0.0
  0
POLYLINE
  8
0
 66
1
 10
0.0
 20
0.0
 30
0.0
 70
8
  0
VERTEX
  8
0
 10
110.24711524227068
 20
6.312103957894188
 30
0.0
  0
VERTEX
  8
0
 10
111.81895135013944
 20
5.404603957894189
 30
0.0
  0
VERTEX
  8
0
 10
114.98395135013945
 20
10.886544763849685
 30
0.0
  0
VERTEX
  8
0
 10
113.41211524227069
 20
11.794044763849685
 30
0.0
  0
VERTEX
  8
0
 10
114.5771152422707
 20
13.811883954667428
 30
0.0
  0
SEQEND
  0
POLYLINE
  8
0
 66
1
 10
0.0
 20
0.0
 30
0.0
 70
8
  0
VERTEX
  8
0
 10
114.5771152422707
 20
13.811883954667428
 30
0.0
  0
VERTEX
  8
0
 10
116.14895135013946
 20
12.904383954667427
 30
0.0
  0
VERTEX
  8
0
 10
119.31395135013946
 20
18.386324760622923
 30
0.0
  0
VERTEX
  8
0
 10
117.7421152422707
 20
19.293824760622922
 30
0.0
  0
SEQEND
  0
LINE
  8
0
 10
107.49461524227068
 20
1.544634110060854
 30
0.0
 11
106.73198711454594
 21
0.8012477106674645
 31
0.0
  0
LINE
  8
0
 10
106.45538475772936
 20
2.144634110060854
 30
0.0
 11
106.19290731488921
 21
1.1124855781139766
 31
0.0
  0
LINE
  8
0
 10
106.73198711454594
 20
0.8012477106674645
 30
0.0
 11
106.19290731488921
 21
1.1124855781139766
 31
0.0
  0
LINE
  8
0
 10
104.32538475772937
 20
1.5446341100608543
 30
0.0
 11
101.57288475772937
 21
6.312103957894189
 31
0.0
  0
LINE
  8
0
 10
91.32538475772937
 20
24.06129460845626
 30
0.0
 11
94.07788475772936
 21
19.293824760622925
 31
0.0
  0
POLYLINE
  8
0
 66
1
 10
0.0
 20
0.0
 30
0.0
 70
8
  0
VERTEX
  8
0
 10
101.57288475772937
 20
6.312103957894189
 30
0.0
  0
VERTEX
  8
0
 10
100.0010486498606
 20
5.404603957894189
 30
0.0
  0
VERTEX
  8
0
 10
96.8360486498606
 20
10.886544763849685
 30
0.0
  0
VERTEX
  8
0
 10
98.40788475772936
 20
11.794044763849685
 30
0.0
  0
VERTEX
  8
0
 10
97.24288475772936
 20
13.811883954667428
 30
0.0
  0
SEQEND
  0
POLYLINE
  8
0
 66
1
 10
0.0
 20
0.0
 30
0.0
 70
8
  0
VERTEX
  8
0
 10
97.24288475772936
 20
13.811883954667428
 30
0.0
  0
VERTEX
  8
0
 10
95.6710486498606
 20
12.904383954667427
 30
0.0
  0
VERTEX
  8
0
 10
92.50604864986059
 20
18.386324760622923
 30
0.0
  0
VERTEX
  8
0
 10
94.07788475772935
 20
19.293824760622922
 30
0.0
  0
SEQEND
  0
LINE
  8
0
 10
105.36461524227069
 20
2.144634110060854
 30
0.0
 11
102.61211524227069
 21
6.912103957894189
 31
0.0
  0
LINE
  8
0
 10
92.36461524227069
 20
24.661294608456263
 30
0.0
 11
95.11711524227069
 21
19.893824760622927
 31
0.0
  0
POLYLINE
  8
0
 66
1
 10
0.0
 20
0.0
 30
0.0
 70
8
  0
VERTEX
  8
0
 10
102.61211524227069
 20
6.912103957894189
 30
0.0
  0
VERTEX
  8
0
 10
104.18395135013945
 20
7.819603957894189
 30
0.0
  0
VERTEX
  8
0
 10
101.01895135013945
 20
13.301544763849686
 30
0.0
  0
VERTEX
  8
0
 10
99.44711524227068
 20
12.394044763849685
 30
0.0
  0
VERTEX
  8
0
 10
98.28211524227068
 20
14.411883954667427
 30
0.0
  0
SEQEND
  0
POLYLINE
  8
0
 66
1
 10
0.0
 20
0.0
 30
0.0
 70
8
  0
VERTEX
  8
0
 10
98.28211524227068
 20
14.411883954667427
 30
0.0
  0
VERTEX
  8
0
 10
99.85395135013944
 20
15.319383954667428
 30
0.0
  0
VERTEX
  8
0
 10
96.68895135013943
 20
20.801324760622926
 30
0.0
  0
VERTEX
  8
0
 10
95.11711524227067
 20
19.893824760622927
 30
0.0
  0
SEQEND
  0
LINE
  8
0
 10
105.36461524227069
 20
2.144634110060854
 30
0.0
 11
105.62709268511084
 21
1.1124855781139766
 31
0.0
  0
LINE
  8
0
 10
104.32538475772937
 20
1.5446341100608543
 30
0.0
 11
105.0880128854541
 21
0.8012477106674646
 31
0.0
  0
LINE
  8
0
 10
105.62709268511084
 20
1.1124855781139766
 30
0.0
 11
105.0880128854541
 21
0.8012477106674646
 31
0.0
  0
LINE
  8
0
 10
103.78000000000003
 20
0.6000000000000002
 30
0.0
 11
104.80510557056492
 21
0.31123786744651044
 31
0.0
  0
LINE
  8
0
 10
103.78000000000003
 20
-0.5999999999999998
 30
0.0
 11
104.80510557056492
 21
-0.3112378674465102
 31
0.0
  0
LINE
  8
0
 10
104.80510557056492
 20
0.31123786744651044
 30
0.0
 11
104.80510557056492
 21
-0.3112378674465102
 31
0.0
  0
LINE
  8
0
 10
105.36461524227069
 20
-2.1446341100608537
 30
0.0
 11
102.61211524227069
 21
-6.912103957894187
 31
0.0
  0
LINE
  8
0
 10
92.36461524227067
 20
-24.66129460845625
 30
0.0
 11
95.11711524227067
 21
-19.893824760622913
 31
0.0
  0
POLYLINE
  8
0
 66
1
 10
0.0
 20
0.0
 30
0.0
 70
8
  0
VERTEX
  8
0
 10
102.61211524227069
 20
-6.912103957894187
 30
0.0
  0
VERTEX
  8
0
 10
104.18395135013945
 20
-7.819603957894188
 30
0.0
  0
VERTEX
  8
0
 10
101.01895135013945
 20
-13.301544763849684
 30
0.0
  0
VERTEX
  8
0
 10
99.44711524227068
 20
-12.394044763849685
 30
0.0
  0
VERTEX
  8
0
 10
98.28211524227068
 20
-14.411883954667427
 30
0.0
  0
SEQEND
  0
POLYLINE
  8
0
 66
1
 10
0.0
 20
0.0
 30
0.0
 70
8
  0
VERTEX
  8
0
 10
98.28211524227068
 20
-14.411883954667427
 30
0.0
  0
VERTEX
  8
0
 10
99.85395135013944
 20
-15.319383954667428
 30
0.0
  0
VERTEX
  8
0
 10
96.68895135013943
 20
-20.801324760622922
 30
0.0
  0
VERTEX
  8
0
 10
95.11711524227067
 20
-19.893824760622923
 30
0.0
  0
SEQEND
  0
LINE
  8
0
 10
104.32538475772937
 20
-1.5446341100608536
 30
0.0
 11
101.57288475772937
 21
-6.3121039578941875
 31
0.0
  0
LINE
  8
0
 10
91.32538475772935
 20
-24.061294608456247
 30
0.0
 11
94.07788475772935
 21
-19.29382476062291
 31
0.0
  0
POLYLINE
  8
0
 66
1
 10
0.0
 20
0.0
 30
0.0
 70
8
  0
VERTEX
  8
0
 10
101.57288475772937
 20
-6.3121039578941875
 30
0.0
  0
VERTEX
  8
0
 10
100.0010486498606
 20
-5.404603957894188
 30
0.0
  0
VERTEX
  8
0
 10
96.8360486498606
 20
-10.886544763849683
 30
0.0
  0
VERTEX
  8
0
 10
98.40788475772936
 20
-11.794044763849683
 30
0.0
  0
VERTEX
  8
0
 10
97.24288475772936
 20
-13.811883954667426
 30
0.0
  0
SEQEND
  0
POLYLINE
  8
0
 66
1
 10
0.0
 20
0.0
 30
0.0
 70
8
  0
VERTEX
  8
0
 10
97.24288475772936
 20
-13.811883954667426
 30
0.0
  0
VERTEX
  8
0
 10
95.6710486498606
 20
-12.904383954667425
 30
0.0
  0
VERTEX
  8
0
 10
92.50604864986059
 20
-18.38632476062292
 30
0.0
  0
VERTEX
  8
0
 10
94.07788475772935
 20
-19.293824760622922
 30
0.0
  0
SEQEND
  0
LINE
  8
0
 10
104.32538475772937
 20
-1.5446341100608536
 30
0.0
 11
105.0880128854541
 21
-0.8012477106674641
 31
0.0
  0
LINE
  8
0
 10
105.36461524227069
 20
-2.1446341100608537
 30
0.0
 11
105.62709268511084
 21
-1.1124855781139762
 31
0.0
  0
LINE
  8
0
 10
105.0880128854541
 20
-0.8012477106674641
 30
0.0
 11
105.62709268511084
 21
-1.1124855781139762
 31
0.0
  0
LINE
  8
0
 10
107.49461524227068
 20
-1.544634110060854
 30
0.0
 11
110.24711524227068
 21
-6.312103957894188
 31
0.0
  0
LINE
  8
0
 10
120.49461524227068
 20
-24.061294608456258
 30
0.0
 11
117.74211524227069
 21
-19.293824760622925
 31
0.0
  0
POLYLINE
  8
0
 66
1
 10
0.0
 20
0.0
 30
0.0
 70
8
  0
VERTEX
  8
0
 10
110.24711524227068
 20
-6.312103957894188
 30
0.0
  0
VERTEX
  8
0
 10
111.81895135013944
 20
-5.404603957894189
 30
0.0
  0
VERTEX
  8
0
 10
114.98395135013945
 20
-10.886544763849685
 30
0.0
  0
VERTEX
  8
0
 10
113.41211524227069
 20
-11.794044763849685
 30
0.0
  0
VERTEX
  8
0
 10
114.5771152422707
 20
-13.811883954667428
 30
0.0
  0
SEQEND
  0
POLYLINE
  8
0
 66
1
 10
0.0
 20
0.0
 30
0.0
 70
8
  0
VERTEX
  8
0
 10
114.5771152422707
 20
-13.811883954667428
 30
0.0
  0
VERTEX
  8
0
 10
116.14895135013946
 20
-12.904383954667427
 30
0.0
  0
VERTEX
  8
0
 10
119.31395135013946
 20
-18.386324760622923
 30
0.0
  0
VERTEX
  8
0
 10
117.7421152422707
 20
-19.293824760622922
 30
0.0
  0
SEQEND
  0
LINE
  8
0
 10
106.45538475772936
 20
-2.144634110060854
 30
0.0
 11
109.20788475772936
 21
-6.912103957894189
 31
0.0
  0
LINE
  8
0
 10
119.45538475772936
 20
-24.66129460845626
 30
0.0
 11
116.70288475772936
 21
-19.893824760622927
 31
0.0
  0
POLYLINE
  8
0
 66
1
 10
0.0
 20
0.0
 30
0.0
 70
8
  0
VERTEX
  8
0
 10
109.20788475772936
 20
-6.912103957894189
 30
0.0
  0
VERTEX
  8
0
 10
107.6360486498606
 20
-7.819603957894189
 30
0.0
  0
VERTEX
  8
0
 10
110.8010486498606
 20
-13.301544763849686
 30
0.0
  0
VERTEX
  8
0
 10
112.37288475772937
 20
-12.394044763849685
 30
0.0
  0
VERTEX
  8
0
 10
113.53788475772937
 20
-14.411883954667427
 30
0.0
  0
SEQEND
  0
POLYLINE
  8
0
 66
1
 10
0.0
 20
0.0
 30
0.0
 70
8
  0
VERTEX
  8
0
 10
113.53788475772937
 20
-14.411883954667427
 30
0.0
  0
VERTEX
  8
0
 10
111.96604864986061
 20
-15.319383954667428
 30
0.0
  0
VERTEX
  8
0
 10
115.13104864986062
 20
-20.801324760622926
 30
0.0
  0
VERTEX
  8
0
 10
116.70288475772938
 20
-19.893824760622927
 30
0.0
  0
SEQEND
  0
LINE
  8
0
 10
106.45538475772936
 20
-2.144634110060854
 30
0.0
 11
106.19290731488921
 21
-1.1124855781139766
 31
0.0
  0
LINE
  8
0
 10
107.49461524227068
 20
-1.544634110060854
 30
0.0
 11
106.73198711454594
 21
-0.8012477106674645
 31
0.0
  0
LINE
  8
0
 10
106.19290731488921
 20
-1.1124855781139766
 30
0.0
 11
106.73198711454594
 21
-0.8012477106674645
 31
0.0
  0
LINE
  8
0
 10
2.13
 20
-25.60592871851711
 30
0.0
 11
7.635000000000003
 21
-25.60592871851711
 31
0.0
  0
LINE
  8
0
 10
28.130000000000006
 20
-25.60592871851711
 30
0.0
 11
22.625000000000004
 21
-25.60592871851711
 31
0.0
  0
POLYLINE
  8
0
 66
1
 10
0.0
 20
0.0
 30
0.0
 70
8
  0
VERTEX
  8
0
 10
7.635000000000003
 20
-25.60592871851711
 30
0.0
  0
VERTEX
  8
0
 10
7.635000000000003
 20
-23.790928718517108
 30
0.0
  0
VERTEX
  8
0
 10
13.965000000000003
 20
-23.790928718517108
 30
0.0
  0
VERTEX
  8
0
 10
13.965000000000003
 20
-25.60592871851711
 30
0.0
  0
VERTEX
  8
0
 10
16.295
 20
-25.60592871851711
 30
0.0
  0
SEQEND
  0
POLYLINE
  8
0
 66
1
 10
0.0
 20
0.0
 30
0.0
 70
8
  0
VERTEX
  8
0
 10
16.295
 20
-25.60592871851711
 30
0.0
  0
VERTEX
  8
0
 10
16.295
 20
-23.790928718517108
 30
0.0
  0
VERTEX
  8
0
 10
22.625
 20
-23.790928718517108
 30
0.0
  0
VERTEX
  8
0
 10
22.625
 20
-25.60592871851711
 30
0.0
  0
SEQEND
  0
LINE
  8
0
 10
2.13
 20
-26.805928718517112
 30
0.0
 11
7.635000000000003
 21
-26.805928718517112
 31
0.0
  0
LINE
  8
0
 10
28.130000000000006
 20
-26.805928718517112
 30
0.0
 11
22.625000000000004
 21
-26.805928718517112
 31
0.0
  0
POLYLINE
  8
0
 66
1
 10
0.0
 20
0.0
 30
0.0
 70
8
  0
VERTEX
  8
0
 10
7.635000000000003
 20
-26.805928718517112
 30
0.0
  0
VERTEX
  8
0
 10
7.635000000000003
 20
-28.620928718517114
 30
0.0
  0
VERTEX
  8
0
 10
13.965000000000003
 20
-28.620928718517114
 30
0.0
  0
VERTEX
  8
0
 10
13.965000000000003
 20
-26.805928718517112
 30
0.0
  0
VERTEX
  8
0
 10
16.295
 20
-26.805928718517112
 30
0.0
  0
SEQEND
  0
POLYLINE
  8
0
 66
1
 10
0.0
 20
0.0
 30
0.0
 70
8
  0
VERTEX
  8
0
 10
16.295
 20
-26.805928718517112
 30
0.0
  0
VERTEX
  8
0
 10
16.295
 20
-28.620928718517114
 30
0.0
  0
VERTEX
  8
0
 10
22.625
 20
-28.620928718517114
 30
0.0
  0
VERTEX
  8
0
 10
22.625
 20
-26.805928718517112
 30
0.0
  0
SEQEND
  0
LINE
  8
0
 10
2.13
 20
-26.805928718517112
 30
0.0
 11
1.104894429435114
 21
-26.517166585963622
 31
0.0
  0
LINE
  8
0
 10
2.13
 20
-25.60592871851711
 30
0.0
 11
1.104894429435114
 21
-25.8946908510706
 31
0.0
  0
LINE
  8
0
 10
1.104894429435114
 20
-26.517166585963622
 30
0.0
 11
1.104894429435114
 21
-25.8946908510706
 31
0.0
  0
LINE
  8
0
 10
1.5846152422706634
 20
-24.661294608456256
 30
0.0
 11
0.8219871145459293
 21
-25.404681007849643
 31
0.0
  0
LINE
  8
0
 10
0.5453847577293369
 20
-24.061294608456254
 30
0.0
 11
0.28290731488918497
 21
-25.09344314040313
 31
0.0
  0
LINE
  8
0
 10
0.8219871145459293
 20
-25.404681007849643
 30
0.0
 11
0.28290731488918497
 21
-25.09344314040313
 31
0.0
  0
LINE
  8
0
 10
-1.5846152422706625
 20
-24.661294608456256
 30
0.0
 11
-4.337115242270661
 21
-19.89382476062292
 31
0.0
  0
LINE
  8
0
 10
-14.58461524227066
 20
-2.1446341100608484
 30
0.0
 11
-11.83211524227066
 21
-6.912103957894183
 31
0.0
  0
POLYLINE
  8
0
 66
1
 10
0.0
 20
0.0
 30
0.0
 70
8
  0
VERTEX
  8
0
 10
-4.337115242270661
 20
-19.89382476062292
 30
0.0
  0
VERTEX
  8
0
 10
-5.908951350139417
 20
-20.80132476062292
 30
0.0
  0
VERTEX
  8
0
 10
-9.073951350139417
 20
-15.319383954667423
 30
0.0
  0
VERTEX
  8
0
 10
-7.502115242270661
 20
-14.411883954667422
 30
0.0
  0
VERTEX
  8
0
 10
-8.667115242270661
 20
-12.39404476384968
 30
0.0
  0
SEQEND
  0
POLYLINE
  8
0
 66
1
 10
0.0
 20
0.0
 30
0.0
 70
8
  0
VERTEX
  8
0
 10
-8.667115242270661
 20
-12.39404476384968
 30
0.0
  0
VERTEX
  8
0
 10
-10.238951350139416
 20
-13.30154476384968
 30
0.0
  0
VERTEX
  8
0
 10
-13.403951350139415
 20
-7.819603957894183
 30
0.0
  0
VERTEX
  8
0
 10
-11.83211524227066
 20
-6.912103957894184
 30
0.0
  0
SEQEND
  0
LINE
  8
0
 10
-0.5453847577293363
 20
-24.061294608456254
 30
0.0
 11
-3.297884757729335
 21
-19.29382476062292
 31
0.0
  0
LINE
  8
0
 10
-13.545384757729332
 20
-1.5446341100608487
 30
0.0
 11
-10.792884757729333
 21
-6.312103957894183
 31
0.0
  0
POLYLINE
  8
0
 66
1
 10
0.0
 20
0.0
 30
0.0
 70
8
  0
VERTEX
  8
0
 10
-3.297884757729335
 20
-19.29382476062292
 30
0.0
  0
VERTEX
  8
0
 10
-1.726048649860579
 20
-18.38632476062292
 30
0.0
  0
VERTEX
  8
0
 10
-4.891048649860578
 20
-12.904383954667423
 30
0.0
  0
VERTEX
  8
0
 10
-6.462884757729334
 20
-13.811883954667424
 30
0.0
  0
VERTEX
  8
0
 10
-7.627884757729333
 20
-11.794044763849682
 30
0.0
  0
SEQEND
  0
POLYLINE
  8
0
 66
1
 10
0.0
 20
0.0
 30
0.0
 70
8
  0
VERTEX
  8
0
 10
-7.627884757729333
 20
-11.794044763849682
 30
0.0
  0
VERTEX
  8
0
 10
-6.0560486498605774
 20
-10.886544763849681
 30
0.0
  0
VERTEX
  8
0
 10
-9.221048649860577
 20
-5.404603957894184
 30
0.0
  0
VERTEX
  8
0
 10
-10.792884757729333
 20
-6.312103957894184
 30
0.0
  0
SEQEND
  0
LINE
  8
0
 10
-0.5453847577293363
 20
-24.061294608456254
 30
0.0
 11
-0.2829073148891846
 21
-25.09344314040313
 31
0.0
  0
LINE
  8
0
 10
-1.5846152422706625
 20
-24.661294608456256
 30
0.0
 11
-0.8219871145459288
 21
-25.404681007849646
 31
0.0
  0
LINE
  8
0
 10
-0.2829073148891846
 20
-25.09344314040313
 30
0.0
 11
-0.8219871145459288
 21
-25.404681007849646
 31
0.0
  0
LINE
  8
0
 10
-2.13
 20
-26.805928718517112
 30
0.0
 11
-7.635000000000003
 21
-26.805928718517112
 31
0.0
  0
LINE
  8
0
 10
-28.130000000000006
 20
-26.80592871851711
 30
0.0
 11
-22.625000000000004
 21
-26.80592871851711
 31
0.0
  0
POLYLINE
  8
0
 66
1
 10
0.0
 20
0.0
 30
0.0
 70
8
  0
VERTEX
  8
0
 10
-7.635000000000003
 20
-26.805928718517112
 30
0.0
  0
VERTEX
  8
0
 10
-7.635000000000003
 20
-28.620928718517114
 30
0.0
  0
VERTEX
  8
0
 10
-13.965000000000003
 20
-28.620928718517114
 30
0.0
  0
VERTEX
  8
0
 10
-13.965000000000003
 20
-26.805928718517112
 30
0.0
  0
VERTEX
  8
0
 10
-16.295
 20
-26.805928718517112
 30
0.0
  0
SEQEND
  0
POLYLINE
  8
0
 66
1
 10
0.0
 20
0.0
 30
0.0
 70
8
  0
VERTEX
  8
0
 10
-16.295
 20
-26.805928718517112
 30
0.0
  0
VERTEX
  8
0
 10
-16.295
 20
-28.620928718517114
 30
0.0
  0
VERTEX
  8
0
 10
-22.625
 20
-28.620928718517114
 30
0.0
  0
VERTEX
  8
0
 10
-22.625
 20
-26.805928718517112
 30
0.0
  0
SEQEND
  0
LINE
  8
0
 10
-2.13
 20
-25.60592871851711
 30
0.0
 11
-7.635000000000003
 21
-25.60592871851711
 31
0.0
  0
LINE
  8
0
 10
-28.130000000000006
 20
-25.605928718517106
 30
0.0
 11
-22.625000000000004
 21
-25.605928718517106
 31
0.0
  0
POLYLINE
  8
0
 66
1
 10
0.0
 20
0.0
 30
0.0
 70
8
  0
VERTEX
  8
0
 10
-7.635000000000003
 20
-25.60592871851711
 30
0.0
  0
VERTEX
  8
0
 10
-7.635000000000003
 20
-23.790928718517108
 30
0.0
  0
VERTEX
  8
0
 10
-13.965000000000003
 20
-23.790928718517108
 30
0.0
  0
VERTEX
  8
0
 10
-13.965000000000003
 20
-25.60592871851711
 30
0.0
  0
VERTEX
  8
0
 10
-16.295
 20
-25.60592871851711
 30
0.0
  0
SEQEND
  0
POLYLINE
  8
0
 66
1
 10
0.0
 20
0.0
 30
0.0
 70
8
  0
VERTEX
  8
0
 10
-16.295
 20
-25.60592871851711
 30
0.0
  0
VERTEX
  8
0
 10
-16.295
 20
-23.790928718517108
 30
0.0
  0
VERTEX
  8
0
 10
-22.625
 20
-23.790928718517108
 30
0.0
  0
VERTEX
  8
0
 10
-22.625
 20
-25.60592871851711
 30
0.0
  0
SEQEND
  0
LINE
  8
0
 10
-2.13
 20
-25.60592871851711
 30
0.0
 11
-1.104894429435114
 21
-25.8946908510706
 31
0.0
  0
LINE
  8
0
 10
-2.13
 20
-26.805928718517112
 30
0.0
 11
-1.104894429435114
 21
-26.517166585963622
 31
0.0
  0
LINE
  8
0
 10
-1.104894429435114
 20
-25.8946908510706
 30
0.0
 11
-1.104894429435114
 21
-26.517166585963622
 31
0.0
  0
LINE
  8
0
 10
-0.5453847577293378
 20
-28.350562828577964
 30
0.0
 11
-3.2978847577293404
 21
-33.118032676411296
 31
0.0
  0
LINE
  8
0
 10
-13.545384757729348
 20
-50.86722332697336
 30
0.0
 11
-10.792884757729347
 21
-46.09975347914003
 31
0.0
  0
POLYLINE
  8
0
 66
1
 10
0.0
 20
0.0
 30
0.0
 70
8
  0
VERTEX
  8
0
 10
-3.2978847577293404
 20
-33.118032676411296
 30
0.0
  0
VERTEX
  8
0
 10
-1.726048649860585
 20
-34.025532676411295
 30
0.0
  0
VERTEX
  8
0
 10
-4.891048649860588
 20
-39.50747348236679
 30
0.0
  0
VERTEX
  8
0
 10
-6.462884757729345
 20
-38.59997348236679
 30
0.0
  0
VERTEX
  8
0
 10
-7.627884757729346
 20
-40.61781267318453
 30
0.0
  0
SEQEND
  0
POLYLINE
  8
0
 66
1
 10
0.0
 20
0.0
 30
0.0
 70
8
  0
VERTEX
  8
0
 10
-7.627884757729346
 20
-40.61781267318453
 30
0.0
  0
VERTEX
  8
0
 10
-6.056048649860591
 20
-41.52531267318453
 30
0.0
  0
VERTEX
  8
0
 10
-9.221048649860593
 20
-47.007253479140026
 30
0.0
  0
VERTEX
  8
0
 10
-10.79288475772935
 20
-46.09975347914003
 30
0.0
  0
SEQEND
  0
LINE
  8
0
 10
-1.584615242270664
 20
-27.750562828577962
 30
0.0
 11
-4.3371152422706665
 21
-32.518032676411295
 31
0.0
  0
LINE
  8
0
 10
-14.584615242270676
 20
-50.267223326973365
 30
0.0
 11
-11.832115242270675
 21
-45.49975347914003
 31
0.0
  0
POLYLINE
  8
0
 66
1
 10
0.0
 20
0.0
 30
0.0
 70
8
  0
VERTEX
  8
0
 10
-4.3371152422706665
 20
-32.518032676411295
 30
0.0
  0
VERTEX
  8
0
 10
-5.908951350139422
 20
-31.610532676411296
 30
0.0
  0
VERTEX
  8
0
 10
-9.073951350139424
 20
-37.09247348236679
 30
0.0
  0
VERTEX
  8
0
 10
-7.502115242270669
 20
-37.99997348236679
 30
0.0
  0
VERTEX
  8
0
 10
-8.66711524227067
 20
-40.01781267318453
 30
0.0
  0
SEQEND
  0
POLYLINE
  8
0
 66
1
 10
0.0
 20
0.0
 30
0.0
 70
8
  0
VERTEX
  8
0
 10
-8.66711524227067
 20
-40.01781267318453
 30
0.0
  0
VERTEX
  8
0
 10
-10.238951350139427
 20
-39.11031267318453
 30
0.0
  0
VERTEX
  8
0
 10
-13.40395135013943
 20
-44.59225347914003
 30
0.0
  0
VERTEX
  8
0
 10
-11.832115242270675
 20
-45.499753479140026
 30
0.0
  0
SEQEND
  0
LINE
  8
0
 10
-1.584615242270664
 20
-27.750562828577962
 30
0.0
 11
-0.8219871145459289
 21
-27.007176429184575
 31
0.0
  0
LINE
  8
0
 10
-0.5453847577293378
 20
-28.350562828577964
 30
0.0
 11
-0.282907314889185
 21
-27.318414296631087
 31
0.0
  0
LINE
  8
0
 10
-0.8219871145459289
 20
-27.007176429184575
 30
0.0
 11
-0.282907314889185
 21
-27.318414296631087
 31
0.0
  0
LINE
  8
0
 10
1.5846152422706634
 20
-27.750562828577966
 30
0.0
 11
4.337115242270664
 21
-32.5180326764113
 31
0.0
  0
LINE
  8
0
 10
14.584615242270667
 20
-50.26722332697337
 30
0.0
 11
11.832115242270664
 21
-45.49975347914004
 31
0.0
  0
POLYLINE
  8
0
 66
1
 10
0.0
 20
0.0
 30
0.0
 70
8
  0
VERTEX
  8
0
 10
4.337115242270664
 20
-32.5180326764113
 30
0.0
  0
VERTEX
  8
0
 10
5.90895135013942
 20
-31.610532676411303
 30
0.0
  0
VERTEX
  8
0
 10
9.07395135013942
 20
-37.0924734823668
 30
0.0
  0
VERTEX
  8
0
 10
7.502115242270665
 20
-37.9999734823668
 30
0.0
  0
VERTEX
  8
0
 10
8.667115242270665
 20
-40.01781267318454
 30
0.0
  0
SEQEND
  0
POLYLINE
  8
0
 66
1
 10
0.0
 20
0.0
 30
0.0
 70
8
  0
VERTEX
  8
0
 10
8.667115242270665
 20
-40.01781267318454
 30
0.0
  0
VERTEX
  8
0
 10
10.238951350139422
 20
-39.11031267318454
 30
0.0
  0
VERTEX
  8
0
 10
13.403951350139423
 20
-44.592253479140034
 30
0.0
  0
VERTEX
  8
0
 10
11.832115242270667
 20
-45.49975347914003
 30
0.0
  0
SEQEND
  0
LINE
  8
0
 10
0.5453847577293369
 20
-28.350562828577967
 30
0.0
 11
3.2978847577293373
 21
-33.1180326764113
 31
0.0
  0
LINE
  8
0
 10
13.54538475772934
 20
-50.86722332697337
 30
0.0
 11
10.792884757729336
 21
-46.099753479140034
 31
0.0
  0
POLYLINE
  8
0
 66
1
 10
0.0
 20
0.0
 30
0.0
 70
8
  0
VERTEX
  8
0
 10
3.2978847577293373
 20
-33.1180326764113
 30
0.0
  0
VERTEX
  8
0
 10
1.7260486498605812
 20
-34.0255326764113
 30
0.0
  0
VERTEX
  8
0
 10
4.891048649860582
 20
-39.5074734823668
 30
0.0
  0
VERTEX
  8
0
 10
6.462884757729338
 20
-38.5999734823668
 30
0.0
  0
VERTEX
  8
0
 10
7.627884757729338
 20
-40.61781267318454
 30
0.0
  0
SEQEND
  0
POLYLINE
  8
0
 66
1
 10
0.0
 20
0.0
 30
0.0
 70
8
  0
VERTEX
  8
0
 10
7.627884757729338
 20
-40.61781267318454
 30
0.0
  0
VERTEX
  8
0
 10
6.056048649860582
 20
-41.52531267318454
 30
0.0
  0
VERTEX
  8
0
 10
9.221048649860583
 20
-47.00725347914003
 30
0.0
  0
VERTEX
  8
0
 10
10.79288475772934
 20
-46.099753479140034
 30
0.0
  0
SEQEND
  0
LINE
  8
0
 10
0.5453847577293369
 20
-28.350562828577967
 30
0.0
 11
0.28290731488918497
 21
-27.31841429663109
 31
0.0
  0
LINE
  8
0
 10
1.5846152422706634
 20
-27.750562828577966
 30
0.0
 11
0.8219871145459293
 21
-27.00717642918458
 31
0.0
  0
LINE
  8
0
 10
0.28290731488918497
 20
-27.31841429663109
 30
0.0
 11
0.8219871145459293
 21
-27.00717642918458
 31
0.0
  0
LINE
  8
0
 10
32.39000000000001
 20
-25.60592871851711
 30
0.0
 11
37.89500000000001
 21
-25.60592871851711
 31
0.0
  0
LINE
  8
0
 10
58.390000000000015
 20
-25.60592871851711
 30
0.0
 11
52.88500000000001
 21
-25.60592871851711
 31
0.0
  0
POLYLINE
  8
0
 66
1
 10
0.0
 20
0.0
 30
0.0
 70
8
  0
VERTEX
  8
0
 10
37.89500000000001
 20
-25.60592871851711
 30
0.0
  0
VERTEX
  8
0
 10
37.89500000000001
 20
-23.790928718517108
 30
0.0
  0
VERTEX
  8
0
 10
44.22500000000001
 20
-23.790928718517108
 30
0.0
  0
VERTEX
  8
0
 10
44.22500000000001
 20
-25.60592871851711
 30
0.0
  0
VERTEX
  8
0
 10
46.55500000000001
 20
-25.60592871851711
 30
0.0
  0
SEQEND
  0
POLYLINE
  8
0
 66
1
 10
0.0
 20
0.0
 30
0.0
 70
8
  0
VERTEX
  8
0
 10
46.55500000000001
 20
-25.60592871851711
 30
0.0
  0
VERTEX
  8
0
 10
46.55500000000001
 20
-23.790928718517108
 30
0.0
  0
VERTEX
  8
0
 10
52.885000000000005
 20
-23.790928718517108
 30
0.0
  0
VERTEX
  8
0
 10
52.885000000000005
 20
-25.60592871851711
 30
0.0
  0
SEQEND
  0
LINE
  8
0
 10
32.39000000000001
 20
-26.805928718517112
 30
0.0
 11
37.89500000000001
 21
-26.805928718517112
 31
0.0
  0
LINE
  8
0
 10
58.390000000000015
 20
-26.805928718517112
 30
0.0
 11
52.88500000000001
 21
-26.805928718517112
 31
0.0
  0
POLYLINE
  8
0
 66
1
 10
0.0
 20
0.0
 30
0.0
 70
8
  0
VERTEX
  8
0
 10
37.89500000000001
 20
-26.805928718517112
 30
0.0
  0
VERTEX
  8
0
 10
37.89500000000001
 20
-28.620928718517114
 30
0.0
  0
VERTEX
  8
0
 10
44.22500000000001
 20
-28.620928718517114
 30
0.0
  0
VERTEX
  8
0
 10
44.22500000000001
 20
-26.805928718517112
 30
0.0
  0
VERTEX
  8
0
 10
46.55500000000001
 20
-26.805928718517112
 30
0.0
  0
SEQEND
  0
POLYLINE
  8
0
 66
1
 10
0.0
 20
0.0
 30
0.0
 70
8
  0
VERTEX
  8
0
 10
46.55500000000001
 20
-26.805928718517112
 30
0.0
  0
VERTEX
  8
0
 10
46.55500000000001
 20
-28.620928718517114
 30
0.0
  0
VERTEX
  8
0
 10
52.885000000000005
 20
-28.620928718517114
 30
0.0
  0
VERTEX
  8
0
 10
52.885000000000005
 20
-26.805928718517112
 30
0.0
  0
SEQEND
  0
LINE
  8
0
 10
32.39000000000001
 20
-26.805928718517112
 30
0.0
 11
31.36489442943512
 21
-26.517166585963622
 31
0.0
  0
LINE
  8
0
 10
32.39000000000001
 20
-25.60592871851711
 30
0.0
 11
31.36489442943512
 21
-25.8946908510706
 31
0.0
  0
LINE
  8
0
 10
31.36489442943512
 20
-26.517166585963622
 30
0.0
 11
31.36489442943512
 21
-25.8946908510706
 31
0.0
  0
LINE
  8
0
 10
31.84461524227067
 20
-24.661294608456256
 30
0.0
 11
31.081987114545935
 21
-25.404681007849643
 31
0.0
  0
LINE
  8
0
 10
30.805384757729342
 20
-24.061294608456254
 30
0.0
 11
30.54290731488919
 21
-25.09344314040313
 31
0.0
  0
LINE
  8
0
 10
31.081987114545935
 20
-25.404681007849643
 30
0.0
 11
30.54290731488919
 21
-25.09344314040313
 31
0.0
  0
LINE
  8
0
 10
29.71461524227067
 20
-24.061294608456254
 30
0.0
 11
29.977092685110822
 21
-25.09344314040313
 31
0.0
  0
LINE
  8
0
 10
28.675384757729343
 20
-24.661294608456256
 30
0.0
 11
29.43801288545408
 21
-25.404681007849646
 31
0.0
  0
LINE
  8
0
 10
29.977092685110822
 20
-25.09344314040313
 30
0.0
 11
29.43801288545408
 21
-25.404681007849646
 31
0.0
  0
LINE
  8
0
 10
28.130000000000006
 20
-25.60592871851711
 30
0.0
 11
29.155105570564892
 21
-25.8946908510706
 31
0.0
  0
LINE
  8
0
 10
28.130000000000006
 20
-26.805928718517112
 30
0.0
 11
29.155105570564892
 21
-26.517166585963622
 31
0.0
  0
LINE
  8
0
 10
29.155105570564892
 20
-25.8946908510706
 30
0.0
 11
29.155105570564892
 21
-26.517166585963622
 31
0.0
  0
LINE
  8
0
 10
29.714615242270668
 20
-28.350562828577964
 30
0.0
 11
26.962115242270666
 21
-33.118032676411296
 31
0.0
  0
LINE
  8
0
 10
16.714615242270657
 20
-50.86722332697336
 30
0.0
 11
19.46711524227066
 21
-46.09975347914003
 31
0.0
  0
POLYLINE
  8
0
 66
1
 10
0.0
 20
0.0
 30
0.0
 70
8
  0
VERTEX
  8
0
 10
26.962115242270666
 20
-33.118032676411296
 30
0.0
  0
VERTEX
  8
0
 10
28.53395135013942
 20
-34.025532676411295
 30
0.0
  0
VERTEX
  8
0
 10
25.36895135013942
 20
-39.50747348236679
 30
0.0
  0
VERTEX
  8
0
 10
23.797115242270664
 20
-38.59997348236679
 30
0.0
  0
VERTEX
  8
0
 10
22.63211524227066
 20
-40.61781267318453
 30
0.0
  0
SEQEND
  0
POLYLINE
  8
0
 66
1
 10
0.0
 20
0.0
 30
0.0
 70
8
  0
VERTEX
  8
0
 10
22.63211524227066
 20
-40.61781267318453
 30
0.0
  0
VERTEX
  8
0
 10
24.203951350139416
 20
-41.52531267318453
 30
0.0
  0
VERTEX
  8
0
 10
21.038951350139413
 20
-47.007253479140026
 30
0.0
  0
VERTEX
  8
0
 10
19.46711524227066
 20
-46.09975347914003
 30
0.0
  0
SEQEND
  0
LINE
  8
0
 10
28.67538475772934
 20
-27.750562828577962
 30
0.0
 11
25.92288475772934
 21
-32.518032676411295
 31
0.0
  0
LINE
  8
0
 10
15.67538475772933
 20
-50.267223326973365
 30
0.0
 11
18.42788475772933
 21
-45.49975347914003
 31
0.0
  0
POLYLINE
  8
0
 66
1
 10
0.0
 20
0.0
 30
0.0
 70
8
  0
VERTEX
  8
0
 10
25.92288475772934
 20
-32.518032676411295
 30
0.0
  0
VERTEX
  8
0
 10
24.351048649860584
 20
-31.610532676411296
 30
0.0
  0
VERTEX
  8
0
 10
21.18604864986058
 20
-37.09247348236679
 30
0.0
  0
VERTEX
  8
0
 10
22.757884757729336
 20
-37.99997348236679
 30
0.0
  0
VERTEX
  8
0
 10
21.592884757729333
 20
-40.01781267318453
 30
0.0
  0
SEQEND
  0
POLYLINE
  8
0
 66
1
 10
0.0
 20
0.0
 30
0.0
 70
8
  0
VERTEX
  8
0
 10
21.592884757729333
 20
-40.01781267318453
 30
0.0
  0
VERTEX
  8
0
 10
20.021048649860578
 20
-39.11031267318453
 30
0.0
  0
VERTEX
  8
0
 10
16.856048649860575
 20
-44.59225347914003
 30
0.0
  0
VERTEX
  8
0
 10
18.42788475772933
 20
-45.499753479140026
 30
0.0
  0
SEQEND
  0
LINE
  8
0
 10
28.67538475772934
 20
-27.750562828577962
 30
0.0
 11
29.438012885454075
 21
-27.007176429184575
 31
0.0
  0
LINE
  8
0
 10
29.714615242270668
 20
-28.350562828577964
 30
0.0
 11
29.97709268511082
 21
-27.318414296631087
 31
0.0
  0
LINE
  8
0
 10
29.438012885454075
 20
-27.007176429184575
 30
0.0
 11
29.97709268511082
 21
-27.318414296631087
 31
0.0
  0
LINE
  8
0
 10
31.84461524227067
 20
-27.750562828577966
 30
0.0
 11
34.59711524227067
 21
-32.5180326764113
 31
0.0
  0
LINE
  8
0
 10
44.84461524227067
 20
-50.26722332697337
 30
0.0
 11
42.092115242270665
 21
-45.49975347914004
 31
0.0
  0
POLYLINE
  8
0
 66
1
 10
0.0
 20
0.0
 30
0.0
 70
8
  0
VERTEX
  8
0
 10
34.59711524227067
 20
-32.5180326764113
 30
0.0
  0
VERTEX
  8
0
 10
36.16895135013942
 20
-31.610532676411303
 30
0.0
  0
VERTEX
  8
0
 10
39.33395135013942
 20
-37.0924734823668
 30
0.0
  0
VERTEX
  8
0
 10
37.76211524227067
 20
-37.9999734823668
 30
0.0
  0
VERTEX
  8
0
 10
38.927115242270666
 20
-40.01781267318454
 30
0.0
  0
SEQEND
  0
POLYLINE
  8
0
 66
1
 10
0.0
 20
0.0
 30
0.0
 70
8
  0
VERTEX
  8
0
 10
38.927115242270666
 20
-40.01781267318454
 30
0.0
  0
VERTEX
  8
0
 10
40.49895135013942
 20
-39.11031267318454
 30
0.0
  0
VERTEX
  8
0
 10
43.66395135013942
 20
-44.592253479140034
 30
0.0
  0
VERTEX
  8
0
 10
42.092115242270665
 20
-45.49975347914003
 30
0.0
  0
SEQEND
  0
LINE
  8
0
 10
30.805384757729342
 20
-28.350562828577967
 30
0.0
 11
33.55788475772934
 21
-33.1180326764113
 31
0.0
  0
LINE
  8
0
 10
43.80538475772935
 20
-50.86722332697337
 30
0.0
 11
41.052884757729345
 21
-46.099753479140034
 31
0.0
  0
POLYLINE
  8
0
 66
1
 10
0.0
 20
0.0
 30
0.0
 70
8
  0
VERTEX
  8
0
 10
33.55788475772934
 20
-33.1180326764113
 30
0.0
  0
VERTEX
  8
0
 10
31.986048649860585
 20
-34.0255326764113
 30
0.0
  0
VERTEX
  8
0
 10
35.151048649860584
 20
-39.5074734823668
 30
0.0
  0
VERTEX
  8
0
 10
36.72288475772934
 20
-38.5999734823668
 30
0.0
  0
VERTEX
  8
0
 10
37.88788475772934
 20
-40.61781267318454
 30
0.0
  0
SEQEND
  0
POLYLINE
  8
0
 66
1
 10
0.0
 20
0.0
 30
0.0
 70
8
  0
VERTEX
  8
0
 10
37.88788475772934
 20
-40.61781267318454
 30
0.0
  0
VERTEX
  8
0
 10
36.31604864986058
 20
-41.52531267318454
 30
0.0
  0
VERTEX
  8
0
 10
39.48104864986058
 20
-47.00725347914003
 30
0.0
  0
VERTEX
  8
0
 10
41.05288475772934
 20
-46.099753479140034
 30
0.0
  0
SEQEND
  0
LINE
  8
0
 10
30.805384757729342
 20
-28.350562828577967
 30
0.0
 11
30.54290731488919
 21
-27.31841429663109
 31
0.0
  0
LINE
  8
0
 10
31.84461524227067
 20
-27.750562828577966
 30
0.0
 11
31.081987114545935
 21
-27.00717642918458
 31
0.0
  0
LINE
  8
0
 10
30.54290731488919
 20
-27.31841429663109
 30
0.0
 11
31.081987114545935
 21
-27.00717642918458
 31
0.0
  0
LINE
  8
0
 10
62.65000000000001
 20
-25.60592871851711
 30
0.0
 11
68.15500000000002
 21
-25.60592871851711
 31
0.0
  0
LINE
  8
0
 10
88.65000000000002
 20
-25.60592871851711
 30
0.0
 11
83.14500000000001
 21
-25.60592871851711
 31
0.0
  0
POLYLINE
  8
0
 66
1
 10
0.0
 20
0.0
 30
0.0
 70
8
  0
VERTEX
  8
0
 10
68.15500000000002
 20
-25.60592871851711
 30
0.0
  0
VERTEX
  8
0
 10
68.15500000000002
 20
-23.790928718517108
 30
0.0
  0
VERTEX
  8
0
 10
74.48500000000001
 20
-23.790928718517108
 30
0.0
  0
VERTEX
  8
0
 10
74.48500000000001
 20
-25.60592871851711
 30
0.0
  0
VERTEX
  8
0
 10
76.81500000000001
 20
-25.60592871851711
 30
0.0
  0
SEQEND
  0
POLYLINE
  8
0
 66
1
 10
0.0
 20
0.0
 30
0.0
 70
8
  0
VERTEX
  8
0
 10
76.81500000000001
 20
-25.60592871851711
 30
0.0
  0
VERTEX
  8
0
 10
76.81500000000001
 20
-23.790928718517108
 30
0.0
  0
VERTEX
  8
0
 10
83.14500000000001
 20
-23.790928718517108
 30
0.0
  0
VERTEX
  8
0
 10
83.14500000000001
 20
-25.60592871851711
 30
0.0
  0
SEQEND
  0
LINE
  8
0
 10
62.65000000000001
 20
-26.805928718517112
 30
0.0
 11
68.15500000000002
 21
-26.805928718517112
 31
0.0
  0
LINE
  8
0
 10
88.65000000000002
 20
-26.805928718517112
 30
0.0
 11
83.14500000000001
 21
-26.805928718517112
 31
0.0
  0
POLYLINE
  8
0
 66
1
 10
0.0
 20
0.0
 30
0.0
 70
8
  0
VERTEX
  8
0
 10
68.15500000000002
 20
-26.805928718517112
 30
0.0
  0
VERTEX
  8
0
 10
68.15500000000002
 20
-28.620928718517114
 30
0.0
  0
VERTEX
  8
0
 10
74.48500000000001
 20
-28.620928718517114
 30
0.0
  0
VERTEX
  8
0
 10
74.48500000000001
 20
-26.805928718517112
 30
0.0
  0
VERTEX
  8
0
 10
76.81500000000001
 20
-26.805928718517112
 30
0.0
  0
SEQEND
  0
POLYLINE
  8
0
 66
1
 10
0.0
 20
0.0
 30
0.0
 70
8
  0
VERTEX
  8
0
 10
76.81500000000001
 20
-26.805928718517112
 30
0.0
  0
VERTEX
  8
0
 10
76.81500000000001
 20
-28.620928718517114
 30
0.0
  0
VERTEX
  8
0
 10
83.14500000000001
 20
-28.620928718517114
 30
0.0
  0
VERTEX
  8
0
 10
83.14500000000001
 20
-26.805928718517112
 30
0.0
  0
SEQEND
  0
LINE
  8
0
 10
62.65000000000001
 20
-26.805928718517112
 30
0.0
 11
61.62489442943512
 21
-26.517166585963622
 31
0.0
  0
LINE
  8
0
 10
62.65000000000001
 20
-25.60592871851711
 30
0.0
 11
61.62489442943512
 21
-25.8946908510706
 31
0.0
  0
LINE
  8
0
 10
61.62489442943512
 20
-26.517166585963622
 30
0.0
 11
61.62489442943512
 21
-25.8946908510706
 31
0.0
  0
LINE
  8
0
 10
62.10461524227067
 20
-24.661294608456256
 30
0.0
 11
61.34198711454594
 21
-25.404681007849646
 31
0.0
  0
LINE
  8
0
 10
61.06538475772935
 20
-24.061294608456254
 30
0.0
 11
60.8029073148892
 21
-25.09344314040313
 31
0.0
  0
LINE
  8
0
 10
61.34198711454594
 20
-25.404681007849646
 30
0.0
 11
60.8029073148892
 21
-25.09344314040313
 31
0.0
  0
LINE
  8
0
 10
59.97461524227067
 20
-24.061294608456254
 30
0.0
 11
60.237092685110824
 21
-25.09344314040313
 31
0.0
  0
LINE
  8
0
 10
58.93538475772935
 20
-24.661294608456256
 30
0.0
 11
59.698012885454084
 21
-25.404681007849646
 31
0.0
  0
LINE
  8
0
 10
60.237092685110824
 20
-25.09344314040313
 30
0.0
 11
59.698012885454084
 21
-25.404681007849646
 31
0.0
  0
LINE
  8
0
 10
58.39000000000001
 20
-25.60592871851711
 30
0.0
 11
59.4151055705649
 21
-25.8946908510706
 31
0.0
  0
LINE
  8
0
 10
58.39000000000001
 20
-26.805928718517112
 30
0.0
 11
59.4151055705649
 21
-26.517166585963622
 31
0.0
  0
LINE
  8
0
 10
59.4151055705649
 20
-25.8946908510706
 30
0.0
 11
59.4151055705649
 21
-26.517166585963622
 31
0.0
  0
LINE
  8
0
 10
59.97461524227067
 20
-28.350562828577964
 30
0.0
 11
57.22211524227067
 21
-33.118032676411296
 31
0.0
  0
LINE
  8
0
 10
46.97461524227066
 20
-50.86722332697336
 30
0.0
 11
49.727115242270656
 21
-46.09975347914003
 31
0.0
  0
POLYLINE
  8
0
 66
1
 10
0.0
 20
0.0
 30
0.0
 70
8
  0
VERTEX
  8
0
 10
57.22211524227067
 20
-33.118032676411296
 30
0.0
  0
VERTEX
  8
0
 10
58.79395135013942
 20
-34.025532676411295
 30
0.0
  0
VERTEX
  8
0
 10
55.62895135013942
 20
-39.50747348236679
 30
0.0
  0
VERTEX
  8
0
 10
54.05711524227066
 20
-38.59997348236679
 30
0.0
  0
VERTEX
  8
0
 10
52.89211524227066
 20
-40.61781267318453
 30
0.0
  0
SEQEND
  0
POLYLINE
  8
0
 66
1
 10
0.0
 20
0.0
 30
0.0
 70
8
  0
VERTEX
  8
0
 10
52.89211524227066
 20
-40.61781267318453
 30
0.0
  0
VERTEX
  8
0
 10
54.46395135013942
 20
-41.52531267318453
 30
0.0
  0
VERTEX
  8
0
 10
51.29895135013942
 20
-47.007253479140026
 30
0.0
  0
VERTEX
  8
0
 10
49.72711524227066
 20
-46.09975347914003
 30
0.0
  0
SEQEND
  0
LINE
  8
0
 10
58.93538475772935
 20
-27.750562828577962
 30
0.0
 11
56.18288475772935
 21
-32.518032676411295
 31
0.0
  0
LINE
  8
0
 10
45.93538475772934
 20
-50.267223326973365
 30
0.0
 11
48.687884757729336
 21
-45.49975347914003
 31
0.0
  0
POLYLINE
  8
0
 66
1
 10
0.0
 20
0.0
 30
0.0
 70
8
  0
VERTEX
  8
0
 10
56.18288475772935
 20
-32.518032676411295
 30
0.0
  0
VERTEX
  8
0
 10
54.61104864986059
 20
-31.610532676411296
 30
0.0
  0
VERTEX
  8
0
 10
51.446048649860586
 20
-37.09247348236679
 30
0.0
  0
VERTEX
  8
0
 10
53.01788475772934
 20
-37.99997348236679
 30
0.0
  0
VERTEX
  8
0
 10
51.85288475772934
 20
-40.01781267318453
 30
0.0
  0
SEQEND
  0
POLYLINE
  8
0
 66
1
 10
0.0
 20
0.0
 30
0.0
 70
8
  0
VERTEX
  8
0
 10
51.85288475772934
 20
-40.01781267318453
 30
0.0
  0
VERTEX
  8
0
 10
50.28104864986059
 20
-39.11031267318453
 30
0.0
  0
VERTEX
  8
0
 10
47.11604864986059
 20
-44.59225347914003
 30
0.0
  0
VERTEX
  8
0
 10
48.68788475772934
 20
-45.499753479140026
 30
0.0
  0
SEQEND
  0
LINE
  8
0
 10
58.93538475772935
 20
-27.750562828577962
 30
0.0
 11
59.698012885454084
 21
-27.00717642918457
 31
0.0
  0
LINE
  8
0
 10
59.97461524227067
 20
-28.350562828577964
 30
0.0
 11
60.237092685110824
 21
-27.318414296631087
 31
0.0
  0
LINE
  8
0
 10
59.698012885454084
 20
-27.00717642918457
 30
0.0
 11
60.237092685110824
 21
-27.318414296631087
 31
0.0
  0
LINE
  8
0
 10
62.10461524227067
 20
-27.750562828577966
 30
0.0
 11
64.85711524227067
 21
-32.5180326764113
 31
0.0
  0
LINE
  8
0
 10
75.10461524227067
 20
-50.26722332697337
 30
0.0
 11
72.35211524227067
 21
-45.49975347914004
 31
0.0
  0
POLYLINE
  8
0
 66
1
 10
0.0
 20
0.0
 30
0.0
 70
8
  0
VERTEX
  8
0
 10
64.85711524227067
 20
-32.5180326764113
 30
0.0
  0
VERTEX
  8
0
 10
66.42895135013943
 20
-31.610532676411303
 30
0.0
  0
VERTEX
  8
0
 10
69.59395135013943
 20
-37.0924734823668
 30
0.0
  0
VERTEX
  8
0
 10
68.02211524227067
 20
-37.9999734823668
 30
0.0
  0
VERTEX
  8
0
 10
69.18711524227068
 20
-40.01781267318454
 30
0.0
  0
SEQEND
  0
POLYLINE
  8
0
 66
1
 10
0.0
 20
0.0
 30
0.0
 70
8
  0
VERTEX
  8
0
 10
69.18711524227068
 20
-40.01781267318454
 30
0.0
  0
VERTEX
  8
0
 10
70.75895135013944
 20
-39.11031267318454
 30
0.0
  0
VERTEX
  8
0
 10
73.92395135013945
 20
-44.592253479140034
 30
0.0
  0
VERTEX
  8
0
 10
72.35211524227068
 20
-45.49975347914003
 30
0.0
  0
SEQEND
  0
LINE
  8
0
 10
61.06538475772935
 20
-28.350562828577967
 30
0.0
 11
63.817884757729345
 21
-33.1180326764113
 31
0.0
  0
LINE
  8
0
 10
74.06538475772935
 20
-50.86722332697337
 30
0.0
 11
71.31288475772935
 21
-46.099753479140034
 31
0.0
  0
POLYLINE
  8
0
 66
1
 10
0.0
 20
0.0
 30
0.0
 70
8
  0
VERTEX
  8
0
 10
63.817884757729345
 20
-33.1180326764113
 30
0.0
  0
VERTEX
  8
0
 10
62.24604864986059
 20
-34.0255326764113
 30
0.0
  0
VERTEX
  8
0
 10
65.41104864986059
 20
-39.5074734823668
 30
0.0
  0
VERTEX
  8
0
 10
66.98288475772935
 20
-38.5999734823668
 30
0.0
  0
VERTEX
  8
0
 10
68.14788475772936
 20
-40.61781267318454
 30
0.0
  0
SEQEND
  0
POLYLINE
  8
0
 66
1
 10
0.0
 20
0.0
 30
0.0
 70
8
  0
VERTEX
  8
0
 10
68.14788475772936
 20
-40.61781267318454
 30
0.0
  0
VERTEX
  8
0
 10
66.5760486498606
 20
-41.52531267318454
 30
0.0
  0
VERTEX
  8
0
 10
69.7410486498606
 20
-47.00725347914003
 30
0.0
  0
VERTEX
  8
0
 10
71.31288475772936
 20
-46.099753479140034
 30
0.0
  0
SEQEND
  0
LINE
  8
0
 10
61.06538475772935
 20
-28.350562828577967
 30
0.0
 11
60.8029073148892
 21
-27.31841429663109
 31
0.0
  0
LINE
  8
0
 10
62.10461524227067
 20
-27.750562828577966
 30
0.0
 11
61.34198711454594
 21
-27.007176429184575
 31
0.0
  0
LINE
  8
0
 10
60.8029073148892
 20
-27.31841429663109
 30
0.0
 11
61.34198711454594
 21
-27.007176429184575
 31
0.0
  0
LINE
  8
0
 10
92.91000000000001
 20
-25.60592871851711
 30
0.0
 11
98.41500000000002
 21
-25.60592871851711
 31
0.0
  0
LINE
  8
0
 10
118.91000000000003
 20
-25.60592871851711
 30
0.0
 11
113.40500000000002
 21
-25.60592871851711
 31
0.0
  0
POLYLINE
  8
0
 66
1
 10
0.0
 20
0.0
 30
0.0
 70
8
  0
VERTEX
  8
0
 10
98.41500000000002
 20
-25.60592871851711
 30
0.0
  0
VERTEX
  8
0
 10
98.41500000000002
 20
-23.790928718517108
 30
0.0
  0
VERTEX
  8
0
 10
104.74500000000002
 20
-23.790928718517108
 30
0.0
  0
VERTEX
  8
0
 10
104.74500000000002
 20
-25.60592871851711
 30
0.0
  0
VERTEX
  8
0
 10
107.07500000000002
 20
-25.60592871851711
 30
0.0
  0
SEQEND
  0
POLYLINE
  8
0
 66
1
 10
0.0
 20
0.0
 30
0.0
 70
8
  0
VERTEX
  8
0
 10
107.07500000000002
 20
-25.60592871851711
 30
0.0
  0
VERTEX
  8
0
 10
107.07500000000002
 20
-23.790928718517108
 30
0.0
  0
VERTEX
  8
0
 10
113.40500000000002
 20
-23.790928718517108
 30
0.0
  0
VERTEX
  8
0
 10
113.40500000000002
 20
-25.60592871851711
 30
0.0
  0
SEQEND
  0
LINE
  8
0
 10
92.91000000000001
 20
-26.805928718517112
 30
0.0
 11
98.41500000000002
 21
-26.805928718517112
 31
0.0
  0
LINE
  8
0
 10
118.91000000000003
 20
-26.805928718517112
 30
0.0
 11
113.40500000000002
 21
-26.805928718517112
 31
0.0
  0
POLYLINE
  8
0
 66
1
 10
0.0
 20
0.0
 30
0.0
 70
8
  0
VERTEX
  8
0
 10
98.41500000000002
 20
-26.805928718517112
 30
0.0
  0
VERTEX
  8
0
 10
98.41500000000002
 20
-28.620928718517114
 30
0.0
  0
VERTEX
  8
0
 10
104.74500000000002
 20
-28.620928718517114
 30
0.0
  0
VERTEX
  8
0
 10
104.74500000000002
 20
-26.805928718517112
 30
0.0
  0
VERTEX
  8
0
 10
107.07500000000002
 20
-26.805928718517112
 30
0.0
  0
SEQEND
  0
POLYLINE
  8
0
 66
1
 10
0.0
 20
0.0
 30
0.0
 70
8
  0
VERTEX
  8
0
 10
107.07500000000002
 20
-26.805928718517112
 30
0.0
  0
VERTEX
  8
0
 10
107.07500000000002
 20
-28.620928718517114
 30
0.0
  0
VERTEX
  8
0
 10
113.40500000000002
 20
-28.620928718517114
 30
0.0
  0
VERTEX
  8
0
 10
113.40500000000002
 20
-26.805928718517112
 30
0.0
  0
SEQEND
  0
LINE
  8
0
 10
92.91000000000001
 20
-26.805928718517112
 30
0.0
 11
91.88489442943512
 21
-26.517166585963622
 31
0.0
  0
LINE
  8
0
 10
92.91000000000001
 20
-25.60592871851711
 30
0.0
 11
91.88489442943512
 21
-25.8946908510706
 31
0.0
  0
LINE
  8
0
 10
91.88489442943512
 20
-26.517166585963622
 30
0.0
 11
91.88489442943512
 21
-25.8946908510706
 31
0.0
  0
LINE
  8
0
 10
92.36461524227067
 20
-24.661294608456256
 30
0.0
 11
91.60198711454593
 21
-25.404681007849646
 31
0.0
  0
LINE
  8
0
 10
91.32538475772935
 20
-24.061294608456254
 30
0.0
 11
91.0629073148892
 21
-25.09344314040313
 31
0.0
  0
LINE
  8
0
 10
91.60198711454593
 20
-25.404681007849646
 30
0.0
 11
91.0629073148892
 21
-25.09344314040313
 31
0.0
  0
LINE
  8
0
 10
90.23461524227068
 20
-24.061294608456254
 30
0.0
 11
90.49709268511083
 21
-25.09344314040313
 31
0.0
  0
LINE
  8
0
 10
89.19538475772936
 20
-24.661294608456256
 30
0.0
 11
89.9580128854541
 21
-25.404681007849646
 31
0.0
  0
LINE
  8
0
 10
90.49709268511083
 20
-25.09344314040313
 30
0.0
 11
89.9580128854541
 21
-25.404681007849646
 31
0.0
  0
LINE
  8
0
 10
88.65000000000002
 20
-25.60592871851711
 30
0.0
 11
89.67510557056491
 21
-25.8946908510706
 31
0.0
  0
LINE
  8
0
 10
88.65000000000002
 20
-26.805928718517112
 30
0.0
 11
89.67510557056491
 21
-26.517166585963622
 31
0.0
  0
LINE
  8
0
 10
89.67510557056491
 20
-25.8946908510706
 30
0.0
 11
89.67510557056491
 21
-26.517166585963622
 31
0.0
  0
LINE
  8
0
 10
90.23461524227068
 20
-28.350562828577964
 30
0.0
 11
87.48211524227068
 21
-33.118032676411296
 31
0.0
  0
LINE
  8
0
 10
77.23461524227066
 20
-50.86722332697336
 30
0.0
 11
79.98711524227066
 21
-46.09975347914003
 31
0.0
  0
POLYLINE
  8
0
 66
1
 10
0.0
 20
0.0
 30
0.0
 70
8
  0
VERTEX
  8
0
 10
87.48211524227068
 20
-33.118032676411296
 30
0.0
  0
VERTEX
  8
0
 10
89.05395135013944
 20
-34.025532676411295
 30
0.0
  0
VERTEX
  8
0
 10
85.88895135013944
 20
-39.50747348236679
 30
0.0
  0
VERTEX
  8
0
 10
84.31711524227067
 20
-38.59997348236679
 30
0.0
  0
VERTEX
  8
0
 10
83.15211524227067
 20
-40.61781267318453
 30
0.0
  0
SEQEND
  0
POLYLINE
  8
0
 66
1
 10
0.0
 20
0.0
 30
0.0
 70
8
  0
VERTEX
  8
0
 10
83.15211524227067
 20
-40.61781267318453
 30
0.0
  0
VERTEX
  8
0
 10
84.72395135013943
 20
-41.52531267318453
 30
0.0
  0
VERTEX
  8
0
 10
81.55895135013942
 20
-47.007253479140026
 30
0.0
  0
VERTEX
  8
0
 10
79.98711524227066
 20
-46.09975347914003
 30
0.0
  0
SEQEND
  0
LINE
  8
0
 10
89.19538475772936
 20
-27.750562828577962
 30
0.0
 11
86.44288475772936
 21
-32.518032676411295
 31
0.0
  0
LINE
  8
0
 10
76.19538475772934
 20
-50.267223326973365
 30
0.0
 11
78.94788475772934
 21
-45.49975347914003
 31
0.0
  0
POLYLINE
  8
0
 66
1
 10
0.0
 20
0.0
 30
0.0
 70
8
  0
VERTEX
  8
0
 10
86.44288475772936
 20
-32.518032676411295
 30
0.0
  0
VERTEX
  8
0
 10
84.8710486498606
 20
-31.610532676411296
 30
0.0
  0
VERTEX
  8
0
 10
81.70604864986059
 20
-37.09247348236679
 30
0.0
  0
VERTEX
  8
0
 10
83.27788475772935
 20
-37.99997348236679
 30
0.0
  0
VERTEX
  8
0
 10
82.11288475772935
 20
-40.01781267318453
 30
0.0
  0
SEQEND
  0
POLYLINE
  8
0
 66
1
 10
0.0
 20
0.0
 30
0.0
 70
8
  0
VERTEX
  8
0
 10
82.11288475772935
 20
-40.01781267318453
 30
0.0
  0
VERTEX
  8
0
 10
80.54104864986058
 20
-39.11031267318453
 30
0.0
  0
VERTEX
  8
0
 10
77.37604864986058
 20
-44.59225347914003
 30
0.0
  0
VERTEX
  8
0
 10
78.94788475772934
 20
-45.499753479140026
 30
0.0
  0
SEQEND
  0
LINE
  8
0
 10
89.19538475772936
 20
-27.750562828577962
 30
0.0
 11
89.9580128854541
 21
-27.00717642918457
 31
0.0
  0
LINE
  8
0
 10
90.23461524227068
 20
-28.350562828577964
 30
0.0
 11
90.49709268511083
 21
-27.318414296631087
 31
0.0
  0
LINE
  8
0
 10
89.9580128854541
 20
-27.00717642918457
 30
0.0
 11
90.49709268511083
 21
-27.318414296631087
 31
0.0
  0
LINE
  8
0
 10
92.36461524227067
 20
-27.750562828577966
 30
0.0
 11
95.11711524227067
 21
-32.5180326764113
 31
0.0
  0
LINE
  8
0
 10
105.36461524227067
 20
-50.26722332697337
 30
0.0
 11
102.61211524227068
 21
-45.49975347914004
 31
0.0
  0
POLYLINE
  8
0
 66
1
 10
0.0
 20
0.0
 30
0.0
 70
8
  0
VERTEX
  8
0
 10
95.11711524227067
 20
-32.5180326764113
 30
0.0
  0
VERTEX
  8
0
 10
96.68895135013943
 20
-31.610532676411303
 30
0.0
  0
VERTEX
  8
0
 10
99.85395135013944
 20
-37.0924734823668
 30
0.0
  0
VERTEX
  8
0
 10
98.28211524227068
 20
-37.9999734823668
 30
0.0
  0
VERTEX
  8
0
 10
99.44711524227068
 20
-40.01781267318454
 30
0.0
  0
SEQEND
  0
POLYLINE
  8
0
 66
1
 10
0.0
 20
0.0
 30
0.0
 70
8
  0
VERTEX
  8
0
 10
99.44711524227068
 20
-40.01781267318454
 30
0.0
  0
VERTEX
  8
0
 10
101.01895135013945
 20
-39.11031267318454
 30
0.0
  0
VERTEX
  8
0
 10
104.18395135013945
 20
-44.592253479140034
 30
0.0
  0
VERTEX
  8
0
 10
102.61211524227069
 20
-45.49975347914003
 30
0.0
  0
SEQEND
  0
LINE
  8
0
 10
91.32538475772935
 20
-28.350562828577967
 30
0.0
 11
94.07788475772935
 21
-33.1180326764113
 31
0.0
  0
LINE
  8
0
 10
104.32538475772935
 20
-50.86722332697337
 30
0.0
 11
101.57288475772935
 21
-46.099753479140034
 31
0.0
  0
POLYLINE
  8
0
 66
1
 10
0.0
 20
0.0
 30
0.0
 70
8
  0
VERTEX
  8
0
 10
94.07788475772935
 20
-33.1180326764113
 30
0.0
  0
VERTEX
  8
0
 10
92.50604864986059
 20
-34.0255326764113
 30
0.0
  0
VERTEX
  8
0
 10
95.6710486498606
 20
-39.5074734823668
 30
0.0
  0
VERTEX
  8
0
 10
97.24288475772936
 20
-38.5999734823668
 30
0.0
  0
VERTEX
  8
0
 10
98.40788475772936
 20
-40.61781267318454
 30
0.0
  0
SEQEND
  0
POLYLINE
  8
0
 66
1
 10
0.0
 20
0.0
 30
0.0
 70
8
  0
VERTEX
  8
0
 10
98.40788475772936
 20
-40.61781267318454
 30
0.0
  0
VERTEX
  8
0
 10
96.8360486498606
 20
-41.52531267318454
 30
0.0
  0
VERTEX
  8
0
 10
100.0010486498606
 20
-47.00725347914003
 30
0.0
  0
VERTEX
  8
0
 10
101.57288475772937
 20
-46.099753479140034
 30
0.0
  0
SEQEND
  0
LINE
  8
0
 10
91.32538475772935
 20
-28.350562828577967
 30
0.0
 11
91.0629073148892
 21
-27.31841429663109
 31
0.0
  0
LINE
  8
0
 10
92.36461524227067
 20
-27.750562828577966
 30
0.0
 11
91.60198711454593
 21
-27.007176429184575
 31
0.0
  0
LINE
  8
0
 10
91.0629073148892
 20
-27.31841429663109
 30
0.0
 11
91.60198711454593
 21
-27.007176429184575
 31
0.0
  0
LINE
  8
0
 10
17.26
 20
-51.81185743703422
 30
0.0
 11
22.765000000000004
 21
-51.81185743703422
 31
0.0
  0
LINE
  8
0
 10
43.260000000000005
 20
-51.81185743703422
 30
0.0
 11
37.755
 21
-51.81185743703422
 31
0.0
  0
POLYLINE
  8
0
 66
1
 10
0.0
 20
0.0
 30
0.0
 70
8
  0
VERTEX
  8
0
 10
22.765000000000004
 20
-51.81185743703422
 30
0.0
  0
VERTEX
  8
0
 10
22.765000000000004
 20
-49.99685743703422
 30
0.0
  0
VERTEX
  8
0
 10
29.095000000000006
 20
-49.99685743703422
 30
0.0
  0
VERTEX
  8
0
 10
29.095000000000006
 20
-51.81185743703422
 30
0.0
  0
VERTEX
  8
0
 10
31.425000000000004
 20
-51.81185743703422
 30
0.0
  0
SEQEND
  0
POLYLINE
  8
0
 66
1
 10
0.0
 20
0.0
 30
0.0
 70
8
  0
VERTEX
  8
0
 10
31.425000000000004
 20
-51.81185743703422
 30
0.0
  0
VERTEX
  8
0
 10
31.425000000000004
 20
-49.99685743703422
 30
0.0
  0
VERTEX
  8
0
 10
37.755
 20
-49.99685743703422
 30
0.0
  0
VERTEX
  8
0
 10
37.755
 20
-51.81185743703422
 30
0.0
  0
SEQEND
  0
LINE
  8
0
 10
17.26
 20
-53.01185743703422
 30
0.0
 11
22.765000000000004
 21
-53.01185743703422
 31
0.0
  0
LINE
  8
0
 10
43.260000000000005
 20
-53.01185743703422
 30
0.0
 11
37.755
 21
-53.01185743703422
 31
0.0
  0
POLYLINE
  8
0
 66
1
 10
0.0
 20
0.0
 30
0.0
 70
8
  0
VERTEX
  8
0
 10
22.765000000000004
 20
-53.01185743703422
 30
0.0
  0
VERTEX
  8
0
 10
22.765000000000004
 20
-54.82685743703422
 30
0.0
  0
VERTEX
  8
0
 10
29.095000000000006
 20
-54.82685743703422
 30
0.0
  0
VERTEX
  8
0
 10
29.095000000000006
 20
-53.01185743703422
 30
0.0
  0
VERTEX
  8
0
 10
31.425000000000004
 20
-53.01185743703422
 30
0.0
  0
SEQEND
  0
POLYLINE
  8
0
 66
1
 10
0.0
 20
0.0
 30
0.0
 70
8
  0
VERTEX
  8
0
 10
31.425000000000004
 20
-53.01185743703422
 30
0.0
  0
VERTEX
  8
0
 10
31.425000000000004
 20
-54.82685743703422
 30
0.0
  0
VERTEX
  8
0
 10
37.755
 20
-54.82685743703422
 30
0.0
  0
VERTEX
  8
0
 10
37.755
 20
-53.01185743703422
 30
0.0
  0
SEQEND
  0
LINE
  8
0
 10
17.26
 20
-53.01185743703422
 30
0.0
 11
16.234894429435116
 21
-52.723095304480736
 31
0.0
  0
LINE
  8
0
 10
17.26
 20
-51.81185743703422
 30
0.0
 11
16.234894429435116
 21
-52.10061956958771
 31
0.0
  0
LINE
  8
0
 10
16.234894429435116
 20
-52.723095304480736
 30
0.0
 11
16.234894429435116
 21
-52.10061956958771
 31
0.0
  0
LINE
  8
0
 10
16.714615242270668
 20
-50.86722332697337
 30
0.0
 11
15.951987114545933
 21
-51.610609726366754
 31
0.0
  0
LINE
  8
0
 10
15.67538475772934
 20
-50.26722332697337
 30
0.0
 11
15.412907314889187
 21
-51.29937185892025
 31
0.0
  0
LINE
  8
0
 10
15.951987114545933
 20
-51.610609726366754
 30
0.0
 11
15.412907314889187
 21
-51.29937185892025
 31
0.0
  0
LINE
  8
0
 10
14.584615242270667
 20
-50.26722332697337
 30
0.0
 11
14.84709268511082
 21
-51.29937185892025
 31
0.0
  0
LINE
  8
0
 10
13.54538475772934
 20
-50.86722332697337
 30
0.0
 11
14.308012885454072
 21
-51.610609726366754
 31
0.0
  0
LINE
  8
0
 10
14.84709268511082
 20
-51.29937185892025
 30
0.0
 11
14.308012885454072
 21
-51.610609726366754
 31
0.0
  0
LINE
  8
0
 10
13.000000000000004
 20
-53.01185743703422
 30
0.0
 11
7.495
 21
-53.01185743703422
 31
0.0
  0
LINE
  8
0
 10
-13.000000000000004
 20
-53.01185743703422
 30
0.0
 11
-7.495
 21
-53.01185743703422
 31
0.0
  0
POLYLINE
  8
0
 66
1
 10
0.0
 20
0.0
 30
0.0
 70
8
  0
VERTEX
  8
0
 10
7.495
 20
-53.01185743703422
 30
0.0
  0
VERTEX
  8
0
 10
7.495
 20
-54.82685743703422
 30
0.0
  0
VERTEX
  8
0
 10
1.165
 20
-54.82685743703422
 30
0.0
  0
VERTEX
  8
0
 10
1.1650000000000007
 20
-53.01185743703422
 30
0.0
  0
VERTEX
  8
0
 10
-1.1649999999999994
 20
-53.01185743703422
 30
0.0
  0
SEQEND
  0
POLYLINE
  8
0
 66
1
 10
0.0
 20
0.0
 30
0.0
 70
8
  0
VERTEX
  8
0
 10
-1.1649999999999994
 20
-53.01185743703422
 30
0.0
  0
VERTEX
  8
0
 10
-1.1649999999999998
 20
-54.82685743703422
 30
0.0
  0
VERTEX
  8
0
 10
-7.495
 20
-54.82685743703422
 30
0.0
  0
VERTEX
  8
0
 10
-7.494999999999999
 20
-53.01185743703422
 30
0.0
  0
SEQEND
  0
LINE
  8
0
 10
13.000000000000004
 20
-51.81185743703422
 30
0.0
 11
7.495
 21
-51.81185743703422
 31
0.0
  0
LINE
  8
0
 10
-13.000000000000004
 20
-51.81185743703422
 30
0.0
 11
-7.495
 21
-51.81185743703422
 31
0.0
  0
POLYLINE
  8
0
 66
1
 10
0.0
 20
0.0
 30
0.0
 70
8
  0
VERTEX
  8
0
 10
7.495
 20
-51.81185743703422
 30
0.0
  0
VERTEX
  8
0
 10
7.495
 20
-49.99685743703422
 30
0.0
  0
VERTEX
  8
0
 10
1.165
 20
-49.99685743703422
 30
0.0
  0
VERTEX
  8
0
 10
1.1649999999999996
 20
-51.81185743703422
 30
0.0
  0
VERTEX
  8
0
 10
-1.1650000000000005
 20
-51.81185743703422
 30
0.0
  0
SEQEND
  0
POLYLINE
  8
0
 66
1
 10
0.0
 20
0.0
 30
0.0
 70
8
  0
VERTEX
  8
0
 10
-1.1650000000000005
 20
-51.81185743703422
 30
0.0
  0
VERTEX
  8
0
 10
-1.1650000000000003
 20
-49.99685743703422
 30
0.0
  0
VERTEX
  8
0
 10
-7.495
 20
-49.99685743703422
 30
0.0
  0
VERTEX
  8
0
 10
-7.495
 20
-51.81185743703422
 30
0.0
  0
SEQEND
  0
LINE
  8
0
 10
13.000000000000004
 20
-51.81185743703422
 30
0.0
 11
14.02510557056489
 21
-52.10061956958771
 31
0.0
  0
LINE
  8
0
 10
13.000000000000004
 20
-53.01185743703422
 30
0.0
 11
14.02510557056489
 21
-52.723095304480736
 31
0.0
  0
LINE
  8
0
 10
14.02510557056489
 20
-52.10061956958771
 30
0.0
 11
14.02510557056489
 21
-52.723095304480736
 31
0.0
  0
LINE
  8
0
 10
14.584615242270665
 20
-54.55649154709507
 30
0.0
 11
11.832115242270662
 21
-59.3239613949284
 31
0.0
  0
LINE
  8
0
 10
1.5846152422706536
 20
-77.07315204549046
 30
0.0
 11
4.337115242270654
 21
-72.30568219765712
 31
0.0
  0
POLYLINE
  8
0
 66
1
 10
0.0
 20
0.0
 30
0.0
 70
8
  0
VERTEX
  8
0
 10
11.832115242270662
 20
-59.3239613949284
 30
0.0
  0
VERTEX
  8
0
 10
13.403951350139417
 20
-60.2314613949284
 30
0.0
  0
VERTEX
  8
0
 10
10.238951350139414
 20
-65.71340220088389
 30
0.0
  0
VERTEX
  8
0
 10
8.667115242270658
 20
-64.80590220088389
 30
0.0
  0
VERTEX
  8
0
 10
7.502115242270657
 20
-66.82374139170163
 30
0.0
  0
SEQEND
  0
POLYLINE
  8
0
 66
1
 10
0.0
 20
0.0
 30
0.0
 70
8
  0
VERTEX
  8
0
 10
7.502115242270657
 20
-66.82374139170163
 30
0.0
  0
VERTEX
  8
0
 10
9.073951350139412
 20
-67.73124139170163
 30
0.0
  0
VERTEX
  8
0
 10
5.908951350139409
 20
-73.21318219765712
 30
0.0
  0
VERTEX
  8
0
 10
4.337115242270652
 20
-72.30568219765712
 30
0.0
  0
SEQEND
  0
LINE
  8
0
 10
13.545384757729337
 20
-53.95649154709508
 30
0.0
 11
10.792884757729334
 21
-58.72396139492841
 31
0.0
  0
LINE
  8
0
 10
0.5453847577293274
 20
-76.47315204549047
 30
0.0
 11
3.297884757729328
 21
-71.70568219765713
 31
0.0
  0
POLYLINE
  8
0
 66
1
 10
0.0
 20
0.0
 30
0.0
 70
8
  0
VERTEX
  8
0
 10
10.792884757729334
 20
-58.72396139492841
 30
0.0
  0
VERTEX
  8
0
 10
9.221048649860577
 20
-57.81646139492841
 30
0.0
  0
VERTEX
  8
0
 10
6.056048649860575
 20
-63.298402200883906
 30
0.0
  0
VERTEX
  8
0
 10
7.62788475772933
 20
-64.20590220088391
 30
0.0
  0
VERTEX
  8
0
 10
6.462884757729329
 20
-66.22374139170165
 30
0.0
  0
SEQEND
  0
POLYLINE
  8
0
 66
1
 10
0.0
 20
0.0
 30
0.0
 70
8
  0
VERTEX
  8
0
 10
6.462884757729329
 20
-66.22374139170165
 30
0.0
  0
VERTEX
  8
0
 10
4.891048649860573
 20
-65.31624139170165
 30
0.0
  0
VERTEX
  8
0
 10
1.7260486498605703
 20
-70.79818219765714
 30
0.0
  0
VERTEX
  8
0
 10
3.2978847577293258
 20
-71.70568219765714
 30
0.0
  0
SEQEND
  0
LINE
  8
0
 10
13.545384757729337
 20
-53.95649154709508
 30
0.0
 11
14.308012885454072
 21
-53.21310514770169
 31
0.0
  0
LINE
  8
0
 10
14.584615242270665
 20
-54.55649154709507
 30
0.0
 11
14.847092685110818
 21
-53.52434301514819
 31
0.0
  0
LINE
  8
0
 10
14.308012885454072
 20
-53.21310514770169
 30
0.0
 11
14.847092685110818
 21
-53.52434301514819
 31
0.0
  0
LINE
  8
0
 10
16.714615242270668
 20
-53.95649154709508
 30
0.0
 11
19.46711524227067
 21
-58.72396139492841
 31
0.0
  0
LINE
  8
0
 10
29.71461524227067
 20
-76.47315204549048
 30
0.0
 11
26.96211524227067
 21
-71.70568219765714
 31
0.0
  0
POLYLINE
  8
0
 66
1
 10
0.0
 20
0.0
 30
0.0
 70
8
  0
VERTEX
  8
0
 10
19.46711524227067
 20
-58.72396139492841
 30
0.0
  0
VERTEX
  8
0
 10
21.038951350139424
 20
-57.81646139492841
 30
0.0
  0
VERTEX
  8
0
 10
24.203951350139427
 20
-63.298402200883906
 30
0.0
  0
VERTEX
  8
0
 10
22.63211524227067
 20
-64.20590220088391
 30
0.0
  0
VERTEX
  8
0
 10
23.79711524227067
 20
-66.22374139170165
 30
0.0
  0
SEQEND
  0
POLYLINE
  8
0
 66
1
 10
0.0
 20
0.0
 30
0.0
 70
8
  0
VERTEX
  8
0
 10
23.79711524227067
 20
-66.22374139170165
 30
0.0
  0
VERTEX
  8
0
 10
25.368951350139426
 20
-65.31624139170165
 30
0.0
  0
VERTEX
  8
0
 10
28.533951350139425
 20
-70.79818219765716
 30
0.0
  0
VERTEX
  8
0
 10
26.96211524227067
 20
-71.70568219765715
 30
0.0
  0
SEQEND
  0
LINE
  8
0
 10
15.67538475772934
 20
-54.55649154709507
 30
0.0
 11
18.42788475772934
 21
-59.3239613949284
 31
0.0
  0
LINE
  8
0
 10
28.675384757729343
 20
-77.07315204549047
 30
0.0
 11
25.922884757729342
 21
-72.30568219765713
 31
0.0
  0
POLYLINE
  8
0
 66
1
 10
0.0
 20
0.0
 30
0.0
 70
8
  0
VERTEX
  8
0
 10
18.42788475772934
 20
-59.3239613949284
 30
0.0
  0
VERTEX
  8
0
 10
16.856048649860586
 20
-60.2314613949284
 30
0.0
  0
VERTEX
  8
0
 10
20.02104864986059
 20
-65.7134022008839
 30
0.0
  0
VERTEX
  8
0
 10
21.592884757729344
 20
-64.8059022008839
 30
0.0
  0
VERTEX
  8
0
 10
22.757884757729343
 20
-66.82374139170165
 30
0.0
  0
SEQEND
  0
POLYLINE
  8
0
 66
1
 10
0.0
 20
0.0
 30
0.0
 70
8
  0
VERTEX
  8
0
 10
22.757884757729343
 20
-66.82374139170165
 30
0.0
  0
VERTEX
  8
0
 10
21.186048649860588
 20
-67.73124139170164
 30
0.0
  0
VERTEX
  8
0
 10
24.351048649860587
 20
-73.21318219765715
 30
0.0
  0
VERTEX
  8
0
 10
25.922884757729342
 20
-72.30568219765715
 30
0.0
  0
SEQEND
  0
LINE
  8
0
 10
15.67538475772934
 20
-54.55649154709507
 30
0.0
 11
15.412907314889187
 21
-53.52434301514819
 31
0.0
  0
LINE
  8
0
 10
16.714615242270668
 20
-53.95649154709508
 30
0.0
 11
15.951987114545933
 21
-53.21310514770169
 31
0.0
  0
LINE
  8
0
 10
15.412907314889187
 20
-53.52434301514819
 30
0.0
 11
15.951987114545933
 21
-53.21310514770169
 31
0.0
  0
LINE
  8
0
 10
47.52000000000001
 20
-51.81185743703422
 30
0.0
 11
53.02500000000001
 21
-51.81185743703422
 31
0.0
  0
LINE
  8
0
 10
73.52000000000001
 20
-51.81185743703422
 30
0.0
 11
68.015
 21
-51.81185743703422
 31
0.0
  0
POLYLINE
  8
0
 66
1
 10
0.0
 20
0.0
 30
0.0
 70
8
  0
VERTEX
  8
0
 10
53.02500000000001
 20
-51.81185743703422
 30
0.0
  0
VERTEX
  8
0
 10
53.02500000000001
 20
-49.99685743703422
 30
0.0
  0
VERTEX
  8
0
 10
59.35500000000001
 20
-49.99685743703422
 30
0.0
  0
VERTEX
  8
0
 10
59.35500000000001
 20
-51.81185743703422
 30
0.0
  0
VERTEX
  8
0
 10
61.68500000000001
 20
-51.81185743703422
 30
0.0
  0
SEQEND
  0
POLYLINE
  8
0
 66
1
 10
0.0
 20
0.0
 30
0.0
 70
8
  0
VERTEX
  8
0
 10
61.68500000000001
 20
-51.81185743703422
 30
0.0
  0
VERTEX
  8
0
 10
61.68500000000001
 20
-49.99685743703422
 30
0.0
  0
VERTEX
  8
0
 10
68.01500000000001
 20
-49.99685743703422
 30
0.0
  0
VERTEX
  8
0
 10
68.01500000000001
 20
-51.81185743703422
 30
0.0
  0
SEQEND
  0
LINE
  8
0
 10
47.52000000000001
 20
-53.01185743703422
 30
0.0
 11
53.02500000000001
 21
-53.01185743703422
 31
0.0
  0
LINE
  8
0
 10
73.52000000000001
 20
-53.01185743703422
 30
0.0
 11
68.015
 21
-53.01185743703422
 31
0.0
  0
POLYLINE
  8
0
 66
1
 10
0.0
 20
0.0
 30
0.0
 70
8
  0
VERTEX
  8
0
 10
53.02500000000001
 20
-53.01185743703422
 30
0.0
  0
VERTEX
  8
0
 10
53.02500000000001
 20
-54.82685743703422
 30
0.0
  0
VERTEX
  8
0
 10
59.35500000000001
 20
-54.82685743703422
 30
0.0
  0
VERTEX
  8
0
 10
59.35500000000001
 20
-53.01185743703422
 30
0.0
  0
VERTEX
  8
0
 10
61.68500000000001
 20
-53.01185743703422
 30
0.0
  0
SEQEND
  0
POLYLINE
  8
0
 66
1
 10
0.0
 20
0.0
 30
0.0
 70
8
  0
VERTEX
  8
0
 10
61.68500000000001
 20
-53.01185743703422
 30
0.0
  0
VERTEX
  8
0
 10
61.68500000000001
 20
-54.82685743703422
 30
0.0
  0
VERTEX
  8
0
 10
68.01500000000001
 20
-54.82685743703422
 30
0.0
  0
VERTEX
  8
0
 10
68.01500000000001
 20
-53.01185743703422
 30
0.0
  0
SEQEND
  0
LINE
  8
0
 10
47.52000000000001
 20
-53.01185743703422
 30
0.0
 11
46.49489442943512
 21
-52.723095304480736
 31
0.0
  0
LINE
  8
0
 10
47.52000000000001
 20
-51.81185743703422
 30
0.0
 11
46.49489442943512
 21
-52.10061956958771
 31
0.0
  0
LINE
  8
0
 10
46.49489442943512
 20
-52.723095304480736
 30
0.0
 11
46.49489442943512
 21
-52.10061956958771
 31
0.0
  0
LINE
  8
0
 10
46.974615242270666
 20
-50.86722332697337
 30
0.0
 11
46.211987114545934
 21
-51.610609726366754
 31
0.0
  0
LINE
  8
0
 10
45.935384757729345
 20
-50.26722332697337
 30
0.0
 11
45.672907314889194
 21
-51.29937185892025
 31
0.0
  0
LINE
  8
0
 10
46.211987114545934
 20
-51.610609726366754
 30
0.0
 11
45.672907314889194
 21
-51.29937185892025
 31
0.0
  0
LINE
  8
0
 10
44.84461524227067
 20
-50.26722332697337
 30
0.0
 11
45.10709268511082
 21
-51.29937185892025
 31
0.0
  0
LINE
  8
0
 10
43.80538475772935
 20
-50.86722332697337
 30
0.0
 11
44.56801288545408
 21
-51.610609726366754
 31
0.0
  0
LINE
  8
0
 10
45.10709268511082
 20
-51.29937185892025
 30
0.0
 11
44.56801288545408
 21
-51.610609726366754
 31
0.0
  0
LINE
  8
0
 10
43.260000000000005
 20
-51.81185743703422
 30
0.0
 11
44.285105570564895
 21
-52.10061956958771
 31
0.0
  0
LINE
  8
0
 10
43.260000000000005
 20
-53.01185743703422
 30
0.0
 11
44.285105570564895
 21
-52.723095304480736
 31
0.0
  0
LINE
  8
0
 10
44.285105570564895
 20
-52.10061956958771
 30
0.0
 11
44.285105570564895
 21
-52.723095304480736
 31
0.0
  0
LINE
  8
0
 10
44.84461524227067
 20
-54.55649154709507
 30
0.0
 11
42.092115242270665
 21
-59.3239613949284
 31
0.0
  0
LINE
  8
0
 10
31.844615242270663
 20
-77.07315204549046
 30
0.0
 11
34.59711524227066
 21
-72.30568219765712
 31
0.0
  0
POLYLINE
  8
0
 66
1
 10
0.0
 20
0.0
 30
0.0
 70
8
  0
VERTEX
  8
0
 10
42.092115242270665
 20
-59.3239613949284
 30
0.0
  0
VERTEX
  8
0
 10
43.66395135013942
 20
-60.2314613949284
 30
0.0
  0
VERTEX
  8
0
 10
40.49895135013942
 20
-65.71340220088389
 30
0.0
  0
VERTEX
  8
0
 10
38.927115242270666
 20
-64.80590220088389
 30
0.0
  0
VERTEX
  8
0
 10
37.76211524227067
 20
-66.82374139170163
 30
0.0
  0
SEQEND
  0
POLYLINE
  8
0
 66
1
 10
0.0
 20
0.0
 30
0.0
 70
8
  0
VERTEX
  8
0
 10
37.76211524227067
 20
-66.82374139170163
 30
0.0
  0
VERTEX
  8
0
 10
39.33395135013942
 20
-67.73124139170163
 30
0.0
  0
VERTEX
  8
0
 10
36.16895135013942
 20
-73.21318219765712
 30
0.0
  0
VERTEX
  8
0
 10
34.59711524227067
 20
-72.30568219765712
 30
0.0
  0
SEQEND
  0
LINE
  8
0
 10
43.80538475772935
 20
-53.95649154709508
 30
0.0
 11
41.052884757729345
 21
-58.72396139492841
 31
0.0
  0
LINE
  8
0
 10
30.805384757729335
 20
-76.47315204549047
 30
0.0
 11
33.55788475772933
 21
-71.70568219765713
 31
0.0
  0
POLYLINE
  8
0
 66
1
 10
0.0
 20
0.0
 30
0.0
 70
8
  0
VERTEX
  8
0
 10
41.052884757729345
 20
-58.72396139492841
 30
0.0
  0
VERTEX
  8
0
 10
39.48104864986059
 20
-57.81646139492841
 30
0.0
  0
VERTEX
  8
0
 10
36.31604864986059
 20
-63.298402200883906
 30
0.0
  0
VERTEX
  8
0
 10
37.887884757729346
 20
-64.20590220088391
 30
0.0
  0
VERTEX
  8
0
 10
36.72288475772935
 20
-66.22374139170165
 30
0.0
  0
SEQEND
  0
POLYLINE
  8
0
 66
1
 10
0.0
 20
0.0
 30
0.0
 70
8
  0
VERTEX
  8
0
 10
36.72288475772935
 20
-66.22374139170165
 30
0.0
  0
VERTEX
  8
0
 10
35.15104864986059
 20
-65.31624139170165
 30
0.0
  0
VERTEX
  8
0
 10
31.98604864986059
 20
-70.79818219765714
 30
0.0
  0
VERTEX
  8
0
 10
33.55788475772935
 20
-71.70568219765714
 30
0.0
  0
SEQEND
  0
LINE
  8
0
 10
43.80538475772935
 20
-53.95649154709508
 30
0.0
 11
44.56801288545408
 21
-53.21310514770169
 31
0.0
  0
LINE
  8
0
 10
44.84461524227067
 20
-54.55649154709507
 30
0.0
 11
45.10709268511082
 21
-53.52434301514819
 31
0.0
  0
LINE
  8
0
 10
44.56801288545408
 20
-53.21310514770169
 30
0.0
 11
45.10709268511082
 21
-53.52434301514819
 31
0.0
  0
LINE
  8
0
 10
46.974615242270666
 20
-53.95649154709508
 30
0.0
 11
49.72711524227066
 21
-58.72396139492841
 31
0.0
  0
LINE
  8
0
 10
59.97461524227067
 20
-76.47315204549048
 30
0.0
 11
57.22211524227067
 21
-71.70568219765714
 31
0.0
  0
POLYLINE
  8
0
 66
1
 10
0.0
 20
0.0
 30
0.0
 70
8
  0
VERTEX
  8
0
 10
49.72711524227066
 20
-58.72396139492841
 30
0.0
  0
VERTEX
  8
0
 10
51.29895135013942
 20
-57.81646139492841
 30
0.0
  0
VERTEX
  8
0
 10
54.46395135013942
 20
-63.298402200883906
 30
0.0
  0
VERTEX
  8
0
 10
52.89211524227066
 20
-64.20590220088391
 30
0.0
  0
VERTEX
  8
0
 10
54.05711524227066
 20
-66.22374139170165
 30
0.0
  0
SEQEND
  0
POLYLINE
  8
0
 66
1
 10
0.0
 20
0.0
 30
0.0
 70
8
  0
VERTEX
  8
0
 10
54.05711524227066
 20
-66.22374139170165
 30
0.0
  0
VERTEX
  8
0
 10
55.62895135013942
 20
-65.31624139170165
 30
0.0
  0
VERTEX
  8
0
 10
58.793951350139416
 20
-70.79818219765716
 30
0.0
  0
VERTEX
  8
0
 10
57.22211524227066
 20
-71.70568219765715
 30
0.0
  0
SEQEND
  0
LINE
  8
0
 10
45.935384757729345
 20
-54.55649154709507
 30
0.0
 11
48.68788475772934
 21
-59.3239613949284
 31
0.0
  0
LINE
  8
0
 10
58.93538475772935
 20
-77.07315204549047
 30
0.0
 11
56.18288475772935
 21
-72.30568219765713
 31
0.0
  0
POLYLINE
  8
0
 66
1
 10
0.0
 20
0.0
 30
0.0
 70
8
  0
VERTEX
  8
0
 10
48.68788475772934
 20
-59.3239613949284
 30
0.0
  0
VERTEX
  8
0
 10
47.11604864986059
 20
-60.2314613949284
 30
0.0
  0
VERTEX
  8
0
 10
50.28104864986059
 20
-65.7134022008839
 30
0.0
  0
VERTEX
  8
0
 10
51.85288475772934
 20
-64.8059022008839
 30
0.0
  0
VERTEX
  8
0
 10
53.01788475772934
 20
-66.82374139170165
 30
0.0
  0
SEQEND
  0
POLYLINE
  8
0
 66
1
 10
0.0
 20
0.0
 30
0.0
 70
8
  0
VERTEX
  8
0
 10
53.01788475772934
 20
-66.82374139170165
 30
0.0
  0
VERTEX
  8
0
 10
51.446048649860586
 20
-67.73124139170164
 30
0.0
  0
VERTEX
  8
0
 10
54.611048649860585
 20
-73.21318219765715
 30
0.0
  0
VERTEX
  8
0
 10
56.18288475772934
 20
-72.30568219765715
 30
0.0
  0
SEQEND
  0
LINE
  8
0
 10
45.935384757729345
 20
-54.55649154709507
 30
0.0
 11
45.672907314889194
 21
-53.52434301514819
 31
0.0
  0
LINE
  8
0
 10
46.974615242270666
 20
-53.95649154709508
 30
0.0
 11
46.211987114545934
 21
-53.21310514770169
 31
0.0
  0
LINE
  8
0
 10
45.672907314889194
 20
-53.52434301514819
 30
0.0
 11
46.211987114545934
 21
-53.21310514770169
 31
0.0
  0
LINE
  8
0
 10
77.78
 20
-51.81185743703422
 30
0.0
 11
83.28500000000001
 21
-51.81185743703422
 31
0.0
  0
LINE
  8
0
 10
103.78
 20
-51.81185743703422
 30
0.0
 11
98.27499999999999
 21
-51.81185743703422
 31
0.0
  0
POLYLINE
  8
0
 66
1
 10
0.0
 20
0.0
 30
0.0
 70
8
  0
VERTEX
  8
0
 10
83.28500000000001
 20
-51.81185743703422
 30
0.0
  0
VERTEX
  8
0
 10
83.28500000000001
 20
-49.99685743703422
 30
0.0
  0
VERTEX
  8
0
 10
89.61500000000001
 20
-49.99685743703422
 30
0.0
  0
VERTEX
  8
0
 10
89.61500000000001
 20
-51.81185743703422
 30
0.0
  0
VERTEX
  8
0
 10
91.94500000000001
 20
-51.81185743703422
 30
0.0
  0
SEQEND
  0
POLYLINE
  8
0
 66
1
 10
0.0
 20
0.0
 30
0.0
 70
8
  0
VERTEX
  8
0
 10
91.94500000000001
 20
-51.81185743703422
 30
0.0
  0
VERTEX
  8
0
 10
91.94500000000001
 20
-49.99685743703422
 30
0.0
  0
VERTEX
  8
0
 10
98.275
 20
-49.99685743703422
 30
0.0
  0
VERTEX
  8
0
 10
98.275
 20
-51.81185743703422
 30
0.0
  0
SEQEND
  0
LINE
  8
0
 10
77.78
 20
-53.01185743703422
 30
0.0
 11
83.28500000000001
 21
-53.01185743703422
 31
0.0
  0
LINE
  8
0
 10
103.78
 20
-53.01185743703422
 30
0.0
 11
98.27499999999999
 21
-53.01185743703422
 31
0.0
  0
POLYLINE
  8
0
 66
1
 10
0.0
 20
0.0
 30
0.0
 70
8
  0
VERTEX
  8
0
 10
83.28500000000001
 20
-53.01185743703422
 30
0.0
  0
VERTEX
  8
0
 10
83.28500000000001
 20
-54.82685743703422
 30
0.0
  0
VERTEX
  8
0
 10
89.61500000000001
 20
-54.82685743703422
 30
0.0
  0
VERTEX
  8
0
 10
89.61500000000001
 20
-53.01185743703422
 30
0.0
  0
VERTEX
  8
0
 10
91.94500000000001
 20
-53.01185743703422
 30
0.0
  0
SEQEND
  0
POLYLINE
  8
0
 66
1
 10
0.0
 20
0.0
 30
0.0
 70
8
  0
VERTEX
  8
0
 10
91.94500000000001
 20
-53.01185743703422
 30
0.0
  0
VERTEX
  8
0
 10
91.94500000000001
 20
-54.82685743703422
 30
0.0
  0
VERTEX
  8
0
 10
98.275
 20
-54.82685743703422
 30
0.0
  0
VERTEX
  8
0
 10
98.275
 20
-53.01185743703422
 30
0.0
  0
SEQEND
  0
LINE
  8
0
 10
77.78
 20
-53.01185743703422
 30
0.0
 11
76.75489442943511
 21
-52.72309530448073
 31
0.0
  0
LINE
  8
0
 10
77.78
 20
-51.81185743703422
 30
0.0
 11
76.75489442943511
 21
-52.100619569587714
 31
0.0
  0
LINE
  8
0
 10
76.75489442943511
 20
-52.72309530448073
 30
0.0
 11
76.75489442943511
 21
-52.100619569587714
 31
0.0
  0
LINE
  8
0
 10
77.23461524227066
 20
-50.86722332697337
 30
0.0
 11
76.47198711454593
 21
-51.610609726366754
 31
0.0
  0
LINE
  8
0
 10
76.19538475772934
 20
-50.26722332697337
 30
0.0
 11
75.93290731488919
 21
-51.29937185892025
 31
0.0
  0
LINE
  8
0
 10
76.47198711454593
 20
-51.610609726366754
 30
0.0
 11
75.93290731488919
 21
-51.29937185892025
 31
0.0
  0
LINE
  8
0
 10
75.10461524227067
 20
-50.26722332697337
 30
0.0
 11
75.36709268511082
 21
-51.29937185892025
 31
0.0
  0
LINE
  8
0
 10
74.06538475772935
 20
-50.86722332697337
 30
0.0
 11
74.82801288545409
 21
-51.610609726366754
 31
0.0
  0
LINE
  8
0
 10
75.36709268511082
 20
-51.29937185892025
 30
0.0
 11
74.82801288545409
 21
-51.610609726366754
 31
0.0
  0
LINE
  8
0
 10
73.52000000000001
 20
-51.81185743703422
 30
0.0
 11
74.5451055705649
 21
-52.100619569587714
 31
0.0
  0
LINE
  8
0
 10
73.52000000000001
 20
-53.01185743703422
 30
0.0
 11
74.5451055705649
 21
-52.72309530448073
 31
0.0
  0
LINE
  8
0
 10
74.5451055705649
 20
-52.100619569587714
 30
0.0
 11
74.5451055705649
 21
-52.72309530448073
 31
0.0
  0
LINE
  8
0
 10
75.10461524227067
 20
-54.55649154709507
 30
0.0
 11
72.35211524227067
 21
-59.3239613949284
 31
0.0
  0
LINE
  8
0
 10
62.104615242270654
 20
-77.07315204549046
 30
0.0
 11
64.85711524227065
 21
-72.30568219765712
 31
0.0
  0
POLYLINE
  8
0
 66
1
 10
0.0
 20
0.0
 30
0.0
 70
8
  0
VERTEX
  8
0
 10
72.35211524227067
 20
-59.3239613949284
 30
0.0
  0
VERTEX
  8
0
 10
73.92395135013943
 20
-60.2314613949284
 30
0.0
  0
VERTEX
  8
0
 10
70.75895135013943
 20
-65.71340220088389
 30
0.0
  0
VERTEX
  8
0
 10
69.18711524227066
 20
-64.80590220088389
 30
0.0
  0
VERTEX
  8
0
 10
68.02211524227066
 20
-66.82374139170163
 30
0.0
  0
SEQEND
  0
POLYLINE
  8
0
 66
1
 10
0.0
 20
0.0
 30
0.0
 70
8
  0
VERTEX
  8
0
 10
68.02211524227066
 20
-66.82374139170163
 30
0.0
  0
VERTEX
  8
0
 10
69.59395135013942
 20
-67.73124139170163
 30
0.0
  0
VERTEX
  8
0
 10
66.42895135013941
 20
-73.21318219765712
 30
0.0
  0
VERTEX
  8
0
 10
64.85711524227065
 20
-72.30568219765712
 30
0.0
  0
SEQEND
  0
LINE
  8
0
 10
74.06538475772935
 20
-53.95649154709508
 30
0.0
 11
71.31288475772935
 21
-58.72396139492841
 31
0.0
  0
LINE
  8
0
 10
61.06538475772933
 20
-76.47315204549047
 30
0.0
 11
63.81788475772933
 21
-71.70568219765713
 31
0.0
  0
POLYLINE
  8
0
 66
1
 10
0.0
 20
0.0
 30
0.0
 70
8
  0
VERTEX
  8
0
 10
71.31288475772935
 20
-58.72396139492841
 30
0.0
  0
VERTEX
  8
0
 10
69.74104864986059
 20
-57.81646139492841
 30
0.0
  0
VERTEX
  8
0
 10
66.57604864986058
 20
-63.298402200883906
 30
0.0
  0
VERTEX
  8
0
 10
68.14788475772934
 20
-64.20590220088391
 30
0.0
  0
VERTEX
  8
0
 10
66.98288475772934
 20
-66.22374139170165
 30
0.0
  0
SEQEND
  0
POLYLINE
  8
0
 66
1
 10
0.0
 20
0.0
 30
0.0
 70
8
  0
VERTEX
  8
0
 10
66.98288475772934
 20
-66.22374139170165
 30
0.0
  0
VERTEX
  8
0
 10
65.41104864986058
 20
-65.31624139170165
 30
0.0
  0
VERTEX
  8
0
 10
62.24604864986057
 20
-70.79818219765714
 30
0.0
  0
VERTEX
  8
0
 10
63.817884757729324
 20
-71.70568219765714
 30
0.0
  0
SEQEND
  0
LINE
  8
0
 10
74.06538475772935
 20
-53.95649154709508
 30
0.0
 11
74.82801288545409
 21
-53.21310514770169
 31
0.0
  0
LINE
  8
0
 10
75.10461524227067
 20
-54.55649154709507
 30
0.0
 11
75.36709268511082
 21
-53.52434301514819
 31
0.0
  0
LINE
  8
0
 10
74.82801288545409
 20
-53.21310514770169
 30
0.0
 11
75.36709268511082
 21
-53.52434301514819
 31
0.0
  0
LINE
  8
0
 10
77.23461524227066
 20
-53.95649154709508
 30
0.0
 11
79.98711524227066
 21
-58.72396139492841
 31
0.0
  0
LINE
  8
0
 10
90.23461524227066
 20
-76.47315204549048
 30
0.0
 11
87.48211524227067
 21
-71.70568219765714
 31
0.0
  0
POLYLINE
  8
0
 66
1
 10
0.0
 20
0.0
 30
0.0
 70
8
  0
VERTEX
  8
0
 10
79.98711524227066
 20
-58.72396139492841
 30
0.0
  0
VERTEX
  8
0
 10
81.55895135013942
 20
-57.81646139492841
 30
0.0
  0
VERTEX
  8
0
 10
84.72395135013943
 20
-63.298402200883906
 30
0.0
  0
VERTEX
  8
0
 10
83.15211524227067
 20
-64.20590220088391
 30
0.0
  0
VERTEX
  8
0
 10
84.31711524227067
 20
-66.22374139170165
 30
0.0
  0
SEQEND
  0
POLYLINE
  8
0
 66
1
 10
0.0
 20
0.0
 30
0.0
 70
8
  0
VERTEX
  8
0
 10
84.31711524227067
 20
-66.22374139170165
 30
0.0
  0
VERTEX
  8
0
 10
85.88895135013944
 20
-65.31624139170165
 30
0.0
  0
VERTEX
  8
0
 10
89.05395135013944
 20
-70.79818219765716
 30
0.0
  0
VERTEX
  8
0
 10
87.48211524227068
 20
-71.70568219765715
 30
0.0
  0
SEQEND
  0
LINE
  8
0
 10
76.19538475772934
 20
-54.55649154709507
 30
0.0
 11
78.94788475772934
 21
-59.3239613949284
 31
0.0
  0
LINE
  8
0
 10
89.19538475772934
 20
-77.07315204549047
 30
0.0
 11
86.44288475772935
 21
-72.30568219765713
 31
0.0
  0
POLYLINE
  8
0
 66
1
 10
0.0
 20
0.0
 30
0.0
 70
8
  0
VERTEX
  8
0
 10
78.94788475772934
 20
-59.3239613949284
 30
0.0
  0
VERTEX
  8
0
 10
77.37604864986058
 20
-60.2314613949284
 30
0.0
  0
VERTEX
  8
0
 10
80.54104864986058
 20
-65.7134022008839
 30
0.0
  0
VERTEX
  8
0
 10
82.11288475772935
 20
-64.8059022008839
 30
0.0
  0
VERTEX
  8
0
 10
83.27788475772935
 20
-66.82374139170165
 30
0.0
  0
SEQEND
  0
POLYLINE
  8
0
 66
1
 10
0.0
 20
0.0
 30
0.0
 70
8
  0
VERTEX
  8
0
 10
83.27788475772935
 20
-66.82374139170165
 30
0.0
  0
VERTEX
  8
0
 10
81.70604864986059
 20
-67.73124139170164
 30
0.0
  0
VERTEX
  8
0
 10
84.8710486498606
 20
-73.21318219765715
 30
0.0
  0
VERTEX
  8
0
 10
86.44288475772936
 20
-72.30568219765715
 30
0.0
  0
SEQEND
  0
LINE
  8
0
 10
76.19538475772934
 20
-54.55649154709507
 30
0.0
 11
75.93290731488919
 21
-53.52434301514819
 31
0.0
  0
LINE
  8
0
 10
77.23461524227066
 20
-53.95649154709508
 30
0.0
 11
76.47198711454593
 21
-53.21310514770169
 31
0.0
  0
LINE
  8
0
 10
75.93290731488919
 20
-53.52434301514819
 30
0.0
 11
76.47198711454593
 21
-53.21310514770169
 31
0.0
  0
LINE
  8
0
 10
108.04000000000002
 20
-51.81185743703422
 30
0.0
 11
113.54500000000003
 21
-51.81185743703422
 31
0.0
  0
LINE
  8
0
 10
134.04000000000002
 20
-51.81185743703422
 30
0.0
 11
128.53500000000003
 21
-51.81185743703422
 31
0.0
  0
POLYLINE
  8
0
 66
1
 10
0.0
 20
0.0
 30
0.0
 70
8
  0
VERTEX
  8
0
 10
113.54500000000003
 20
-51.81185743703422
 30
0.0
  0
VERTEX
  8
0
 10
113.54500000000003
 20
-49.99685743703422
 30
0.0
  0
VERTEX
  8
0
 10
119.87500000000003
 20
-49.99685743703422
 30
0.0
  0
VERTEX
  8
0
 10
119.87500000000003
 20
-51.81185743703422
 30
0.0
  0
VERTEX
  8
0
 10
122.20500000000003
 20
-51.81185743703422
 30
0.0
  0
SEQEND
  0
POLYLINE
  8
0
 66
1
 10
0.0
 20
0.0
 30
0.0
 70
8
  0
VERTEX
  8
0
 10
122.20500000000003
 20
-51.81185743703422
 30
0.0
  0
VERTEX
  8
0
 10
122.20500000000003
 20
-49.99685743703422
 30
0.0
  0
VERTEX
  8
0
 10
128.53500000000003
 20
-49.99685743703422
 30
0.0
  0
VERTEX
  8
0
 10
128.53500000000003
 20
-51.81185743703422
 30
0.0
  0
SEQEND
  0
LINE
  8
0
 10
108.04000000000002
 20
-53.01185743703422
 30
0.0
 11
113.54500000000003
 21
-53.01185743703422
 31
0.0
  0
LINE
  8
0
 10
134.04000000000002
 20
-53.01185743703422
 30
0.0
 11
128.53500000000003
 21
-53.01185743703422
 31
0.0
  0
POLYLINE
  8
0
 66
1
 10
0.0
 20
0.0
 30
0.0
 70
8
  0
VERTEX
  8
0
 10
113.54500000000003
 20
-53.01185743703422
 30
0.0
  0
VERTEX
  8
0
 10
113.54500000000003
 20
-54.82685743703422
 30
0.0
  0
VERTEX
  8
0
 10
119.87500000000003
 20
-54.82685743703422
 30
0.0
  0
VERTEX
  8
0
 10
119.87500000000003
 20
-53.01185743703422
 30
0.0
  0
VERTEX
  8
0
 10
122.20500000000003
 20
-53.01185743703422
 30
0.0
  0
SEQEND
  0
POLYLINE
  8
0
 66
1
 10
0.0
 20
0.0
 30
0.0
 70
8
  0
VERTEX
  8
0
 10
122.20500000000003
 20
-53.01185743703422
 30
0.0
  0
VERTEX
  8
0
 10
122.20500000000003
 20
-54.82685743703422
 30
0.0
  0
VERTEX
  8
0
 10
128.53500000000003
 20
-54.82685743703422
 30
0.0
  0
VERTEX
  8
0
 10
128.53500000000003
 20
-53.01185743703422
 30
0.0
  0
SEQEND
  0
LINE
  8
0
 10
108.04000000000002
 20
-53.01185743703422
 30
0.0
 11
107.01489442943513
 21
-52.72309530448073
 31
0.0
  0
LINE
  8
0
 10
108.04000000000002
 20
-51.81185743703422
 30
0.0
 11
107.01489442943513
 21
-52.100619569587714
 31
0.0
  0
LINE
  8
0
 10
107.01489442943513
 20
-52.72309530448073
 30
0.0
 11
107.01489442943513
 21
-52.100619569587714
 31
0.0
  0
LINE
  8
0
 10
106.45538475772936
 20
-50.26722332697337
 30
0.0
 11
109.20788475772936
 21
-45.49975347914004
 31
0.0
  0
LINE
  8
0
 10
119.45538475772936
 20
-27.750562828577966
 30
0.0
 11
116.70288475772936
 21
-32.5180326764113
 31
0.0
  0
POLYLINE
  8
0
 66
1
 10
0.0
 20
0.0
 30
0.0
 70
8
  0
VERTEX
  8
0
 10
109.20788475772936
 20
-45.49975347914004
 30
0.0
  0
VERTEX
  8
0
 10
107.6360486498606
 20
-44.59225347914004
 30
0.0
  0
VERTEX
  8
0
 10
110.8010486498606
 20
-39.110312673184545
 30
0.0
  0
VERTEX
  8
0
 10
112.37288475772937
 20
-40.017812673184544
 30
0.0
  0
VERTEX
  8
0
 10
113.53788475772937
 20
-37.999973482366805
 30
0.0
  0
SEQEND
  0
POLYLINE
  8
0
 66
1
 10
0.0
 20
0.0
 30
0.0
 70
8
  0
VERTEX
  8
0
 10
113.53788475772937
 20
-37.999973482366805
 30
0.0
  0
VERTEX
  8
0
 10
111.96604864986061
 20
-37.092473482366806
 30
0.0
  0
VERTEX
  8
0
 10
115.13104864986062
 20
-31.61053267641131
 30
0.0
  0
VERTEX
  8
0
 10
116.70288475772938
 20
-32.51803267641131
 30
0.0
  0
SEQEND
  0
LINE
  8
0
 10
107.49461524227068
 20
-50.86722332697337
 30
0.0
 11
110.24711524227068
 21
-46.099753479140034
 31
0.0
  0
LINE
  8
0
 10
120.49461524227068
 20
-28.350562828577967
 30
0.0
 11
117.74211524227069
 21
-33.1180326764113
 31
0.0
  0
POLYLINE
  8
0
 66
1
 10
0.0
 20
0.0
 30
0.0
 70
8
  0
VERTEX
  8
0
 10
110.24711524227068
 20
-46.099753479140034
 30
0.0
  0
VERTEX
  8
0
 10
111.81895135013944
 20
-47.00725347914003
 30
0.0
  0
VERTEX
  8
0
 10
114.98395135013945
 20
-41.52531267318454
 30
0.0
  0
VERTEX
  8
0
 10
113.41211524227069
 20
-40.61781267318454
 30
0.0
  0
VERTEX
  8
0
 10
114.5771152422707
 20
-38.5999734823668
 30
0.0
  0
SEQEND
  0
POLYLINE
  8
0
 66
1
 10
0.0
 20
0.0
 30
0.0
 70
8
  0
VERTEX
  8
0
 10
114.5771152422707
 20
-38.5999734823668
 30
0.0
  0
VERTEX
  8
0
 10
116.14895135013946
 20
-39.5074734823668
 30
0.0
  0
VERTEX
  8
0
 10
119.31395135013946
 20
-34.0255326764113
 30
0.0
  0
VERTEX
  8
0
 10
117.7421152422707
 20
-33.1180326764113
 30
0.0
  0
SEQEND
  0
LINE
  8
0
 10
107.49461524227068
 20
-50.86722332697337
 30
0.0
 11
106.73198711454594
 21
-51.610609726366754
 31
0.0
  0
LINE
  8
0
 10
106.45538475772936
 20
-50.26722332697337
 30
0.0
 11
106.19290731488921
 21
-51.29937185892025
 31
0.0
  0
LINE
  8
0
 10
106.73198711454594
 20
-51.610609726366754
 30
0.0
 11
106.19290731488921
 21
-51.29937185892025
 31
0.0
  0
LINE
  8
0
 10
105.36461524227069
 20
-50.26722332697337
 30
0.0
 11
105.62709268511084
 21
-51.29937185892025
 31
0.0
  0
LINE
  8
0
 10
104.32538475772937
 20
-50.86722332697337
 30
0.0
 11
105.0880128854541
 21
-51.610609726366754
 31
0.0
  0
LINE
  8
0
 10
105.62709268511084
 20
-51.29937185892025
 30
0.0
 11
105.0880128854541
 21
-51.610609726366754
 31
0.0
  0
LINE
  8
0
 10
103.78000000000003
 20
-51.81185743703422
 30
0.0
 11
104.80510557056492
 21
-52.100619569587714
 31
0.0
  0
LINE
  8
0
 10
103.78000000000003
 20
-53.01185743703422
 30
0.0
 11
104.80510557056492
 21
-52.72309530448073
 31
0.0
  0
LINE
  8
0
 10
104.80510557056492
 20
-52.100619569587714
 30
0.0
 11
104.80510557056492
 21
-52.72309530448073
 31
0.0
  0
LINE
  8
0
 10
105.36461524227069
 20
-54.55649154709507
 30
0.0
 11
102.61211524227069
 21
-59.3239613949284
 31
0.0
  0
LINE
  8
0
 10
92.36461524227067
 20
-77.07315204549046
 30
0.0
 11
95.11711524227067
 21
-72.30568219765712
 31
0.0
  0
POLYLINE
  8
0
 66
1
 10
0.0
 20
0.0
 30
0.0
 70
8
  0
VERTEX
  8
0
 10
102.61211524227069
 20
-59.3239613949284
 30
0.0
  0
VERTEX
  8
0
 10
104.18395135013945
 20
-60.2314613949284
 30
0.0
  0
VERTEX
  8
0
 10
101.01895135013945
 20
-65.71340220088389
 30
0.0
  0
VERTEX
  8
0
 10
99.44711524227068
 20
-64.80590220088389
 30
0.0
  0
VERTEX
  8
0
 10
98.28211524227068
 20
-66.82374139170163
 30
0.0
  0
SEQEND
  0
POLYLINE
  8
0
 66
1
 10
0.0
 20
0.0
 30
0.0
 70
8
  0
VERTEX
  8
0
 10
98.28211524227068
 20
-66.82374139170163
 30
0.0
  0
VERTEX
  8
0
 10
99.85395135013944
 20
-67.73124139170163
 30
0.0
  0
VERTEX
  8
0
 10
96.68895135013943
 20
-73.21318219765712
 30
0.0
  0
VERTEX
  8
0
 10
95.11711524227067
 20
-72.30568219765712
 30
0.0
  0
SEQEND
  0
LINE
  8
0
 10
104.32538475772937
 20
-53.95649154709508
 30
0.0
 11
101.57288475772937
 21
-58.72396139492841
 31
0.0
  0
LINE
  8
0
 10
91.32538475772935
 20
-76.47315204549047
 30
0.0
 11
94.07788475772935
 21
-71.70568219765713
 31
0.0
  0
POLYLINE
  8
0
 66
1
 10
0.0
 20
0.0
 30
0.0
 70
8
  0
VERTEX
  8
0
 10
101.57288475772937
 20
-58.72396139492841
 30
0.0
  0
VERTEX
  8
0
 10
100.0010486498606
 20
-57.81646139492841
 30
0.0
  0
VERTEX
  8
0
 10
96.8360486498606
 20
-63.298402200883906
 30
0.0
  0
VERTEX
  8
0
 10
98.40788475772936
 20
-64.20590220088391
 30
0.0
  0
VERTEX
  8
0
 10
97.24288475772936
 20
-66.22374139170165
 30
0.0
  0
SEQEND
  0
POLYLINE
  8
0
 66
1
 10
0.0
 20
0.0
 30
0.0
 70
8
  0
VERTEX
  8
0
 10
97.24288475772936
 20
-66.22374139170165
 30
0.0
  0
VERTEX
  8
0
 10
95.6710486498606
 20
-65.31624139170165
 30
0.0
  0
VERTEX
  8
0
 10
92.50604864986059
 20
-70.79818219765714
 30
0.0
  0
VERTEX
  8
0
 10
94.07788475772935
 20
-71.70568219765714
 30
0.0
  0
SEQEND
  0
LINE
  8
0
 10
104.32538475772937
 20
-53.95649154709508
 30
0.0
 11
105.0880128854541
 21
-53.21310514770169
 31
0.0
  0
LINE
  8
0
 10
105.36461524227069
 20
-54.55649154709507
 30
0.0
 11
105.62709268511084
 21
-53.52434301514819
 31
0.0
  0
LINE
  8
0
 10
105.0880128854541
 20
-53.21310514770169
 30
0.0
 11
105.62709268511084
 21
-53.52434301514819
 31
0.0
  0
LINE
  8
0
 10
107.49461524227068
 20
-53.95649154709508
 30
0.0
 11
110.24711524227068
 21
-58.72396139492841
 31
0.0
  0
LINE
  8
0
 10
120.49461524227068
 20
-76.47315204549048
 30
0.0
 11
117.74211524227069
 21
-71.70568219765714
 31
0.0
  0
POLYLINE
  8
0
 66
1
 10
0.0
 20
0.0
 30
0.0
 70
8
  0
VERTEX
  8
0
 10
110.24711524227068
 20
-58.72396139492841
 30
0.0
  0
VERTEX
  8
0
 10
111.81895135013944
 20
-57.81646139492841
 30
0.0
  0
VERTEX
  8
0
 10
114.98395135013945
 20
-63.298402200883906
 30
0.0
  0
VERTEX
  8
0
 10
113.41211524227069
 20
-64.20590220088391
 30
0.0
  0
VERTEX
  8
0
 10
114.5771152422707
 20
-66.22374139170165
 30
0.0
  0
SEQEND
  0
POLYLINE
  8
0
 66
1
 10
0.0
 20
0.0
 30
0.0
 70
8
  0
VERTEX
  8
0
 10
114.5771152422707
 20
-66.22374139170165
 30
0.0
  0
VERTEX
  8
0
 10
116.14895135013946
 20
-65.31624139170165
 30
0.0
  0
VERTEX
  8
0
 10
119.31395135013946
 20
-70.79818219765716
 30
0.0
  0
VERTEX
  8
0
 10
117.7421152422707
 20
-71.70568219765715
 30
0.0
  0
SEQEND
  0
LINE
  8
0
 10
106.45538475772936
 20
-54.55649154709507
 30
0.0
 11
109.20788475772936
 21
-59.3239613949284
 31
0.0
  0
LINE
  8
0
 10
119.45538475772936
 20
-77.07315204549047
 30
0.0
 11
116.70288475772936
 21
-72.30568219765713
 31
0.0
  0
POLYLINE
  8
0
 66
1
 10
0.0
 20
0.0
 30
0.0
 70
8
  0
VERTEX
  8
0
 10
109.20788475772936
 20
-59.3239613949284
 30
0.0
  0
VERTEX
  8
0
 10
107.6360486498606
 20
-60.2314613949284
 30
0.0
  0
VERTEX
  8
0
 10
110.8010486498606
 20
-65.7134022008839
 30
0.0
  0
VERTEX
  8
0
 10
112.37288475772937
 20
-64.8059022008839
 30
0.0
  0
VERTEX
  8
0
 10
113.53788475772937
 20
-66.82374139170165
 30
0.0
  0
SEQEND
  0
POLYLINE
  8
0
 66
1
 10
0.0
 20
0.0
 30
0.0
 70
8
  0
VERTEX
  8
0
 10
113.53788475772937
 20
-66.82374139170165
 30
0.0
  0
VERTEX
  8
0
 10
111.96604864986061
 20
-67.73124139170164
 30
0.0
  0
VERTEX
  8
0
 10
115.13104864986062
 20
-73.21318219765715
 30
0.0
  0
VERTEX
  8
0
 10
116.70288475772938
 20
-72.30568219765715
 30
0.0
  0
SEQEND
  0
LINE
  8
0
 10
106.45538475772936
 20
-54.55649154709507
 30
0.0
 11
106.19290731488921
 21
-53.52434301514819
 31
0.0
  0
LINE
  8
0
 10
107.49461524227068
 20
-53.95649154709508
 30
0.0
 11
106.73198711454594
 21
-53.21310514770169
 31
0.0
  0
LINE
  8
0
 10
106.19290731488921
 20
-53.52434301514819
 30
0.0
 11
106.73198711454594
 21
-53.21310514770169
 31
0.0
  0
LINE
  8
0
 10
2.13
 20
-78.01778615555135
 30
0.0
 11
7.635000000000003
 21
-78.01778615555135
 31
0.0
  0
LINE
  8
0
 10
28.130000000000006
 20
-78.01778615555135
 30
0.0
 11
22.625000000000004
 21
-78.01778615555135
 31
0.0
  0
POLYLINE
  8
0
 66
1
 10
0.0
 20
0.0
 30
0.0
 70
8
  0
VERTEX
  8
0
 10
7.635000000000003
 20
-78.01778615555135
 30
0.0
  0
VERTEX
  8
0
 10
7.635000000000003
 20
-76.20278615555135
 30
0.0
  0
VERTEX
  8
0
 10
13.965000000000003
 20
-76.20278615555135
 30
0.0
  0
VERTEX
  8
0
 10
13.965000000000003
 20
-78.01778615555135
 30
0.0
  0
VERTEX
  8
0
 10
16.295
 20
-78.01778615555135
 30
0.0
  0
SEQEND
  0
POLYLINE
  8
0
 66
1
 10
0.0
 20
0.0
 30
0.0
 70
8
  0
VERTEX
  8
0
 10
16.295
 20
-78.01778615555135
 30
0.0
  0
VERTEX
  8
0
 10
16.295
 20
-76.20278615555135
 30
0.0
  0
VERTEX
  8
0
 10
22.625
 20
-76.20278615555135
 30
0.0
  0
VERTEX
  8
0
 10
22.625
 20
-78.01778615555135
 30
0.0
  0
SEQEND
  0
LINE
  8
0
 10
2.13
 20
-79.21778615555134
 30
0.0
 11
7.635000000000003
 21
-79.21778615555134
 31
0.0
  0
LINE
  8
0
 10
28.130000000000006
 20
-79.21778615555134
 30
0.0
 11
22.625000000000004
 21
-79.21778615555134
 31
0.0
  0
POLYLINE
  8
0
 66
1
 10
0.0
 20
0.0
 30
0.0
 70
8
  0
VERTEX
  8
0
 10
7.635000000000003
 20
-79.21778615555134
 30
0.0
  0
VERTEX
  8
0
 10
7.635000000000003
 20
-81.03278615555134
 30
0.0
  0
VERTEX
  8
0
 10
13.965000000000003
 20
-81.03278615555134
 30
0.0
  0
VERTEX
  8
0
 10
13.965000000000003
 20
-79.21778615555134
 30
0.0
  0
VERTEX
  8
0
 10
16.295
 20
-79.21778615555134
 30
0.0
  0
SEQEND
  0
POLYLINE
  8
0
 66
1
 10
0.0
 20
0.0
 30
0.0
 70
8
  0
VERTEX
  8
0
 10
16.295
 20
-79.21778615555134
 30
0.0
  0
VERTEX
  8
0
 10
16.295
 20
-81.03278615555134
 30
0.0
  0
VERTEX
  8
0
 10
22.625
 20
-81.03278615555134
 30
0.0
  0
VERTEX
  8
0
 10
22.625
 20
-79.21778615555134
 30
0.0
  0
SEQEND
  0
LINE
  8
0
 10
2.13
 20
-79.21778615555134
 30
0.0
 11
1.1048944294351128
 21
-78.92902402299785
 31
0.0
  0
LINE
  8
0
 10
2.13
 20
-78.01778615555135
 30
0.0
 11
1.1048944294351128
 21
-78.30654828810484
 31
0.0
  0
LINE
  8
0
 10
1.1048944294351128
 20
-78.92902402299785
 30
0.0
 11
1.1048944294351128
 21
-78.30654828810484
 31
0.0
  0
LINE
  8
0
 10
1.5846152422706634
 20
-77.07315204549049
 30
0.0
 11
0.8219871145459293
 21
-77.81653844488388
 31
0.0
  0
LINE
  8
0
 10
0.5453847577293369
 20
-76.4731520454905
 30
0.0
 11
0.28290731488918414
 21
-77.50530057743737
 31
0.0
  0
LINE
  8
0
 10
0.8219871145459293
 20
-77.81653844488388
 30
0.0
 11
0.28290731488918414
 21
-77.50530057743737
 31
0.0
  0
LINE
  8
0
 10
-1.5846152422706625
 20
-77.07315204549049
 30
0.0
 11
-4.337115242270661
 21
-72.30568219765715
 31
0.0
  0
LINE
  8
0
 10
-14.58461524227066
 20
-54.55649154709508
 30
0.0
 11
-11.83211524227066
 21
-59.32396139492841
 31
0.0
  0
POLYLINE
  8
0
 66
1
 10
0.0
 20
0.0
 30
0.0
 70
8
  0
VERTEX
  8
0
 10
-4.337115242270661
 20
-72.30568219765715
 30
0.0
  0
VERTEX
  8
0
 10
-5.908951350139417
 20
-73.21318219765715
 30
0.0
  0
VERTEX
  8
0
 10
-9.073951350139417
 20
-67.73124139170164
 30
0.0
  0
VERTEX
  8
0
 10
-7.502115242270661
 20
-66.82374139170165
 30
0.0
  0
VERTEX
  8
0
 10
-8.667115242270661
 20
-64.8059022008839
 30
0.0
  0
SEQEND
  0
POLYLINE
  8
0
 66
1
 10
0.0
 20
0.0
 30
0.0
 70
8
  0
VERTEX
  8
0
 10
-8.667115242270661
 20
-64.8059022008839
 30
0.0
  0
VERTEX
  8
0
 10
-10.238951350139416
 20
-65.7134022008839
 30
0.0
  0
VERTEX
  8
0
 10
-13.403951350139415
 20
-60.23146139492841
 30
0.0
  0
VERTEX
  8
0
 10
-11.83211524227066
 20
-59.32396139492841
 30
0.0
  0
SEQEND
  0
LINE
  8
0
 10
-0.5453847577293363
 20
-76.4731520454905
 30
0.0
 11
-3.297884757729335
 21
-71.70568219765715
 31
0.0
  0
LINE
  8
0
 10
-13.545384757729332
 20
-53.956491547095084
 30
0.0
 11
-10.792884757729333
 21
-58.723961394928416
 31
0.0
  0
POLYLINE
  8
0
 66
1
 10
0.0
 20
0.0
 30
0.0
 70
8
  0
VERTEX
  8
0
 10
-3.297884757729335
 20
-71.70568219765715
 30
0.0
  0
VERTEX
  8
0
 10
-1.726048649860579
 20
-70.79818219765716
 30
0.0
  0
VERTEX
  8
0
 10
-4.891048649860578
 20
-65.31624139170165
 30
0.0
  0
VERTEX
  8
0
 10
-6.462884757729334
 20
-66.22374139170165
 30
0.0
  0
VERTEX
  8
0
 10
-7.627884757729333
 20
-64.20590220088391
 30
0.0
  0
SEQEND
  0
POLYLINE
  8
0
 66
1
 10
0.0
 20
0.0
 30
0.0
 70
8
  0
VERTEX
  8
0
 10
-7.627884757729333
 20
-64.20590220088391
 30
0.0
  0
VERTEX
  8
0
 10
-6.0560486498605774
 20
-63.29840220088391
 30
0.0
  0
VERTEX
  8
0
 10
-9.221048649860577
 20
-57.81646139492842
 30
0.0
  0
VERTEX
  8
0
 10
-10.792884757729333
 20
-58.723961394928416
 30
0.0
  0
SEQEND
  0
LINE
  8
0
 10
-0.5453847577293363
 20
-76.4731520454905
 30
0.0
 11
-0.28290731488918375
 21
-77.50530057743737
 31
0.0
  0
LINE
  8
0
 10
-1.5846152422706625
 20
-77.07315204549049
 30
0.0
 11
-0.8219871145459288
 21
-77.81653844488388
 31
0.0
  0
LINE
  8
0
 10
-0.28290731488918375
 20
-77.50530057743737
 30
0.0
 11
-0.8219871145459288
 21
-77.81653844488388
 31
0.0
  0
LINE
  8
0
 10
-2.13
 20
-79.21778615555134
 30
0.0
 11
-7.635000000000003
 21
-79.21778615555134
 31
0.0
  0
LINE
  8
0
 10
-28.130000000000006
 20
-79.21778615555134
 30
0.0
 11
-22.625000000000004
 21
-79.21778615555134
 31
0.0
  0
POLYLINE
  8
0
 66
1
 10
0.0
 20
0.0
 30
0.0
 70
8
  0
VERTEX
  8
0
 10
-7.635000000000003
 20
-79.21778615555134
 30
0.0
  0
VERTEX
  8
0
 10
-7.635000000000003
 20
-81.03278615555134
 30
0.0
  0
VERTEX
  8
0
 10
-13.965000000000003
 20
-81.03278615555134
 30
0.0
  0
VERTEX
  8
0
 10
-13.965000000000003
 20
-79.21778615555134
 30
0.0
  0
VERTEX
  8
0
 10
-16.295
 20
-79.21778615555134
 30
0.0
  0
SEQEND
  0
POLYLINE
  8
0
 66
1
 10
0.0
 20
0.0
 30
0.0
 70
8
  0
VERTEX
  8
0
 10
-16.295
 20
-79.21778615555134
 30
0.0
  0
VERTEX
  8
0
 10
-16.295
 20
-81.03278615555134
 30
0.0
  0
VERTEX
  8
0
 10
-22.625
 20
-81.03278615555134
 30
0.0
  0
VERTEX
  8
0
 10
-22.625
 20
-79.21778615555134
 30
0.0
  0
SEQEND
  0
LINE
  8
0
 10
-2.13
 20
-78.01778615555135
 30
0.0
 11
-7.635000000000003
 21
-78.01778615555135
 31
0.0
  0
LINE
  8
0
 10
-28.130000000000006
 20
-78.01778615555135
 30
0.0
 11
-22.625000000000004
 21
-78.01778615555135
 31
0.0
  0
POLYLINE
  8
0
 66
1
 10
0.0
 20
0.0
 30
0.0
 70
8
  0
VERTEX
  8
0
 10
-7.635000000000003
 20
-78.01778615555135
 30
0.0
  0
VERTEX
  8
0
 10
-7.635000000000003
 20
-76.20278615555135
 30
0.0
  0
VERTEX
  8
0
 10
-13.965000000000003
 20
-76.20278615555135
 30
0.0
  0
VERTEX
  8
0
 10
-13.965000000000003
 20
-78.01778615555135
 30
0.0
  0
VERTEX
  8
0
 10
-16.295
 20
-78.01778615555135
 30
0.0
  0
SEQEND
  0
POLYLINE
  8
0
 66
1
 10
0.0
 20
0.0
 30
0.0
 70
8
  0
VERTEX
  8
0
 10
-16.295
 20
-78.01778615555135
 30
0.0
  0
VERTEX
  8
0
 10
-16.295
 20
-76.20278615555135
 30
0.0
  0
VERTEX
  8
0
 10
-22.625
 20
-76.20278615555135
 30
0.0
  0
VERTEX
  8
0
 10
-22.625
 20
-78.01778615555135
 30
0.0
  0
SEQEND
  0
LINE
  8
0
 10
-2.13
 20
-78.01778615555135
 30
0.0
 11
-1.1048944294351128
 21
-78.30654828810484
 31
0.0
  0
LINE
  8
0
 10
-2.13
 20
-79.21778615555134
 30
0.0
 11
-1.1048944294351128
 21
-78.92902402299785
 31
0.0
  0
LINE
  8
0
 10
-1.1048944294351128
 20
-78.30654828810484
 30
0.0
 11
-1.1048944294351128
 21
-78.92902402299785
 31
0.0
  0
LINE
  8
0
 10
-0.5453847577293378
 20
-80.76242026561219
 30
0.0
 11
-3.2978847577293404
 21
-85.52989011344553
 31
0.0
  0
LINE
  8
0
 10
-13.545384757729348
 20
-103.27908076400759
 30
0.0
 11
-10.792884757729347
 21
-98.51161091617425
 31
0.0
  0
POLYLINE
  8
0
 66
1
 10
0.0
 20
0.0
 30
0.0
 70
8
  0
VERTEX
  8
0
 10
-3.2978847577293404
 20
-85.52989011344553
 30
0.0
  0
VERTEX
  8
0
 10
-1.726048649860585
 20
-86.43739011344553
 30
0.0
  0
VERTEX
  8
0
 10
-4.891048649860588
 20
-91.91933091940102
 30
0.0
  0
VERTEX
  8
0
 10
-6.462884757729345
 20
-91.01183091940102
 30
0.0
  0
VERTEX
  8
0
 10
-7.627884757729346
 20
-93.02967011021876
 30
0.0
  0
SEQEND
  0
POLYLINE
  8
0
 66
1
 10
0.0
 20
0.0
 30
0.0
 70
8
  0
VERTEX
  8
0
 10
-7.627884757729346
 20
-93.02967011021876
 30
0.0
  0
VERTEX
  8
0
 10
-6.056048649860591
 20
-93.93717011021876
 30
0.0
  0
VERTEX
  8
0
 10
-9.221048649860593
 20
-99.41911091617425
 30
0.0
  0
VERTEX
  8
0
 10
-10.79288475772935
 20
-98.51161091617425
 30
0.0
  0
SEQEND
  0
LINE
  8
0
 10
-1.584615242270664
 20
-80.1624202656122
 30
0.0
 11
-4.3371152422706665
 21
-84.92989011344554
 31
0.0
  0
LINE
  8
0
 10
-14.584615242270676
 20
-102.6790807640076
 30
0.0
 11
-11.832115242270675
 21
-97.91161091617425
 31
0.0
  0
POLYLINE
  8
0
 66
1
 10
0.0
 20
0.0
 30
0.0
 70
8
  0
VERTEX
  8
0
 10
-4.3371152422706665
 20
-84.92989011344554
 30
0.0
  0
VERTEX
  8
0
 10
-5.908951350139422
 20
-84.02239011344554
 30
0.0
  0
VERTEX
  8
0
 10
-9.073951350139424
 20
-89.50433091940103
 30
0.0
  0
VERTEX
  8
0
 10
-7.502115242270669
 20
-90.41183091940103
 30
0.0
  0
VERTEX
  8
0
 10
-8.66711524227067
 20
-92.42967011021877
 30
0.0
  0
SEQEND
  0
POLYLINE
  8
0
 66
1
 10
0.0
 20
0.0
 30
0.0
 70
8
  0
VERTEX
  8
0
 10
-8.66711524227067
 20
-92.42967011021877
 30
0.0
  0
VERTEX
  8
0
 10
-10.238951350139427
 20
-91.52217011021877
 30
0.0
  0
VERTEX
  8
0
 10
-13.40395135013943
 20
-97.00411091617426
 30
0.0
  0
VERTEX
  8
0
 10
-11.832115242270675
 20
-97.91161091617425
 30
0.0
  0
SEQEND
  0
LINE
  8
0
 10
-1.584615242270664
 20
-80.1624202656122
 30
0.0
 11
-0.8219871145459299
 21
-79.41903386621881
 31
0.0
  0
LINE
  8
0
 10
-0.5453847577293378
 20
-80.76242026561219
 30
0.0
 11
-0.2829073148891846
 21
-79.73027173366532
 31
0.0
  0
LINE
  8
0
 10
-0.8219871145459299
 20
-79.41903386621881
 30
0.0
 11
-0.2829073148891846
 21
-79.73027173366532
 31
0.0
  0
LINE
  8
0
 10
1.5846152422706634
 20
-80.1624202656122
 30
0.0
 11
4.337115242270664
 21
-84.92989011344554
 31
0.0
  0
LINE
  8
0
 10
14.584615242270667
 20
-102.6790807640076
 30
0.0
 11
11.832115242270664
 21
-97.91161091617425
 31
0.0
  0
POLYLINE
  8
0
 66
1
 10
0.0
 20
0.0
 30
0.0
 70
8
  0
VERTEX
  8
0
 10
4.337115242270664
 20
-84.92989011344554
 30
0.0
  0
VERTEX
  8
0
 10
5.90895135013942
 20
-84.02239011344554
 30
0.0
  0
VERTEX
  8
0
 10
9.07395135013942
 20
-89.50433091940104
 30
0.0
  0
VERTEX
  8
0
 10
7.502115242270665
 20
-90.41183091940104
 30
0.0
  0
VERTEX
  8
0
 10
8.667115242270665
 20
-92.42967011021878
 30
0.0
  0
SEQEND
  0
POLYLINE
  8
0
 66
1
 10
0.0
 20
0.0
 30
0.0
 70
8
  0
VERTEX
  8
0
 10
8.667115242270665
 20
-92.42967011021878
 30
0.0
  0
VERTEX
  8
0
 10
10.238951350139422
 20
-91.52217011021878
 30
0.0
  0
VERTEX
  8
0
 10
13.403951350139423
 20
-97.00411091617428
 30
0.0
  0
VERTEX
  8
0
 10
11.832115242270667
 20
-97.91161091617428
 30
0.0
  0
SEQEND
  0
LINE
  8
0
 10
0.5453847577293369
 20
-80.76242026561219
 30
0.0
 11
3.2978847577293373
 21
-85.52989011344553
 31
0.0
  0
LINE
  8
0
 10
13.54538475772934
 20
-103.27908076400759
 30
0.0
 11
10.792884757729336
 21
-98.51161091617425
 31
0.0
  0
POLYLINE
  8
0
 66
1
 10
0.0
 20
0.0
 30
0.0
 70
8
  0
VERTEX
  8
0
 10
3.2978847577293373
 20
-85.52989011344553
 30
0.0
  0
VERTEX
  8
0
 10
1.7260486498605812
 20
-86.43739011344553
 30
0.0
  0
VERTEX
  8
0
 10
4.891048649860582
 20
-91.91933091940103
 30
0.0
  0
VERTEX
  8
0
 10
6.462884757729338
 20
-91.01183091940104
 30
0.0
  0
VERTEX
  8
0
 10
7.627884757729338
 20
-93.02967011021877
 30
0.0
  0
SEQEND
  0
POLYLINE
  8
0
 66
1
 10
0.0
 20
0.0
 30
0.0
 70
8
  0
VERTEX
  8
0
 10
7.627884757729338
 20
-93.02967011021877
 30
0.0
  0
VERTEX
  8
0
 10
6.056048649860582
 20
-93.93717011021877
 30
0.0
  0
VERTEX
  8
0
 10
9.221048649860583
 20
-99.41911091617428
 30
0.0
  0
VERTEX
  8
0
 10
10.79288475772934
 20
-98.51161091617428
 30
0.0
  0
SEQEND
  0
LINE
  8
0
 10
0.5453847577293369
 20
-80.76242026561219
 30
0.0
 11
0.28290731488918414
 21
-79.73027173366532
 31
0.0
  0
LINE
  8
0
 10
1.5846152422706634
 20
-80.1624202656122
 30
0.0
 11
0.8219871145459293
 21
-79.41903386621881
 31
0.0
  0
LINE
  8
0
 10
0.28290731488918414
 20
-79.73027173366532
 30
0.0
 11
0.8219871145459293
 21
-79.41903386621881
 31
0.0
  0
LINE
  8
0
 10
32.39000000000001
 20
-78.01778615555135
 30
0.0
 11
37.89500000000001
 21
-78.01778615555135
 31
0.0
  0
LINE
  8
0
 10
58.390000000000015
 20
-78.01778615555135
 30
0.0
 11
52.88500000000001
 21
-78.01778615555135
 31
0.0
  0
POLYLINE
  8
0
 66
1
 10
0.0
 20
0.0
 30
0.0
 70
8
  0
VERTEX
  8
0
 10
37.89500000000001
 20
-78.01778615555135
 30
0.0
  0
VERTEX
  8
0
 10
37.89500000000001
 20
-76.20278615555135
 30
0.0
  0
VERTEX
  8
0
 10
44.22500000000001
 20
-76.20278615555135
 30
0.0
  0
VERTEX
  8
0
 10
44.22500000000001
 20
-78.01778615555135
 30
0.0
  0
VERTEX
  8
0
 10
46.55500000000001
 20
-78.01778615555135
 30
0.0
  0
SEQEND
  0
POLYLINE
  8
0
 66
1
 10
0.0
 20
0.0
 30
0.0
 70
8
  0
VERTEX
  8
0
 10
46.55500000000001
 20
-78.01778615555135
 30
0.0
  0
VERTEX
  8
0
 10
46.55500000000001
 20
-76.20278615555135
 30
0.0
  0
VERTEX
  8
0
 10
52.885000000000005
 20
-76.20278615555135
 30
0.0
  0
VERTEX
  8
0
 10
52.885000000000005
 20
-78.01778615555135
 30
0.0
  0
SEQEND
  0
LINE
  8
0
 10
32.39000000000001
 20
-79.21778615555134
 30
0.0
 11
37.89500000000001
 21
-79.21778615555134
 31
0.0
  0
LINE
  8
0
 10
58.390000000000015
 20
-79.21778615555134
 30
0.0
 11
52.88500000000001
 21
-79.21778615555134
 31
0.0
  0
POLYLINE
  8
0
 66
1
 10
0.0
 20
0.0
 30
0.0
 70
8
  0
VERTEX
  8
0
 10
37.89500000000001
 20
-79.21778615555134
 30
0.0
  0
VERTEX
  8
0
 10
37.89500000000001
 20
-81.03278615555134
 30
0.0
  0
VERTEX
  8
0
 10
44.22500000000001
 20
-81.03278615555134
 30
0.0
  0
VERTEX
  8
0
 10
44.22500000000001
 20
-79.21778615555134
 30
0.0
  0
VERTEX
  8
0
 10
46.55500000000001
 20
-79.21778615555134
 30
0.0
  0
SEQEND
  0
POLYLINE
  8
0
 66
1
 10
0.0
 20
0.0
 30
0.0
 70
8
  0
VERTEX
  8
0
 10
46.55500000000001
 20
-79.21778615555134
 30
0.0
  0
VERTEX
  8
0
 10
46.55500000000001
 20
-81.03278615555134
 30
0.0
  0
VERTEX
  8
0
 10
52.885000000000005
 20
-81.03278615555134
 30
0.0
  0
VERTEX
  8
0
 10
52.885000000000005
 20
-79.21778615555134
 30
0.0
  0
SEQEND
  0
LINE
  8
0
 10
32.39000000000001
 20
-79.21778615555134
 30
0.0
 11
31.36489442943512
 21
-78.92902402299785
 31
0.0
  0
LINE
  8
0
 10
32.39000000000001
 20
-78.01778615555135
 30
0.0
 11
31.36489442943512
 21
-78.30654828810484
 31
0.0
  0
LINE
  8
0
 10
31.36489442943512
 20
-78.92902402299785
 30
0.0
 11
31.36489442943512
 21
-78.30654828810484
 31
0.0
  0
LINE
  8
0
 10
31.84461524227067
 20
-77.07315204549049
 30
0.0
 11
31.081987114545935
 21
-77.81653844488388
 31
0.0
  0
LINE
  8
0
 10
30.805384757729342
 20
-76.4731520454905
 30
0.0
 11
30.542907314889188
 21
-77.50530057743737
 31
0.0
  0
LINE
  8
0
 10
31.081987114545935
 20
-77.81653844488388
 30
0.0
 11
30.542907314889188
 21
-77.50530057743737
 31
0.0
  0
LINE
  8
0
 10
29.71461524227067
 20
-76.4731520454905
 30
0.0
 11
29.977092685110822
 21
-77.50530057743737
 31
0.0
  0
LINE
  8
0
 10
28.675384757729343
 20
-77.07315204549049
 30
0.0
 11
29.43801288545408
 21
-77.81653844488388
 31
0.0
  0
LINE
  8
0
 10
29.977092685110822
 20
-77.50530057743737
 30
0.0
 11
29.43801288545408
 21
-77.81653844488388
 31
0.0
  0
LINE
  8
0
 10
28.130000000000006
 20
-78.01778615555135
 30
0.0
 11
29.155105570564892
 21
-78.30654828810484
 31
0.0
  0
LINE
  8
0
 10
28.130000000000006
 20
-79.21778615555134
 30
0.0
 11
29.155105570564892
 21
-78.92902402299785
 31
0.0
  0
LINE
  8
0
 10
29.155105570564892
 20
-78.30654828810484
 30
0.0
 11
29.155105570564892
 21
-78.92902402299785
 31
0.0
  0
LINE
  8
0
 10
29.714615242270668
 20
-80.76242026561219
 30
0.0
 11
26.962115242270666
 21
-85.52989011344553
 31
0.0
  0
LINE
  8
0
 10
16.714615242270657
 20
-103.27908076400759
 30
0.0
 11
19.46711524227066
 21
-98.51161091617425
 31
0.0
  0
POLYLINE
  8
0
 66
1
 10
0.0
 20
0.0
 30
0.0
 70
8
  0
VERTEX
  8
0
 10
26.962115242270666
 20
-85.52989011344553
 30
0.0
  0
VERTEX
  8
0
 10
28.53395135013942
 20
-86.43739011344553
 30
0.0
  0
VERTEX
  8
0
 10
25.36895135013942
 20
-91.91933091940102
 30
0.0
  0
VERTEX
  8
0
 10
23.797115242270664
 20
-91.01183091940102
 30
0.0
  0
VERTEX
  8
0
 10
22.63211524227066
 20
-93.02967011021876
 30
0.0
  0
SEQEND
  0
POLYLINE
  8
0
 66
1
 10
0.0
 20
0.0
 30
0.0
 70
8
  0
VERTEX
  8
0
 10
22.63211524227066
 20
-93.02967011021876
 30
0.0
  0
VERTEX
  8
0
 10
24.203951350139416
 20
-93.93717011021876
 30
0.0
  0
VERTEX
  8
0
 10
21.038951350139413
 20
-99.41911091617425
 30
0.0
  0
VERTEX
  8
0
 10
19.46711524227066
 20
-98.51161091617425
 30
0.0
  0
SEQEND
  0
LINE
  8
0
 10
28.67538475772934
 20
-80.1624202656122
 30
0.0
 11
25.92288475772934
 21
-84.92989011344554
 31
0.0
  0
LINE
  8
0
 10
15.67538475772933
 20
-102.6790807640076
 30
0.0
 11
18.42788475772933
 21
-97.91161091617425
 31
0.0
  0
POLYLINE
  8
0
 66
1
 10
0.0
 20
0.0
 30
0.0
 70
8
  0
VERTEX
  8
0
 10
25.92288475772934
 20
-84.92989011344554
 30
0.0
  0
VERTEX
  8
0
 10
24.351048649860584
 20
-84.02239011344554
 30
0.0
  0
VERTEX
  8
0
 10
21.18604864986058
 20
-89.50433091940103
 30
0.0
  0
VERTEX
  8
0
 10
22.757884757729336
 20
-90.41183091940103
 30
0.0
  0
VERTEX
  8
0
 10
21.592884757729333
 20
-92.42967011021877
 30
0.0
  0
SEQEND
  0
POLYLINE
  8
0
 66
1
 10
0.0
 20
0.0
 30
0.0
 70
8
  0
VERTEX
  8
0
 10
21.592884757729333
 20
-92.42967011021877
 30
0.0
  0
VERTEX
  8
0
 10
20.021048649860578
 20
-91.52217011021877
 30
0.0
  0
VERTEX
  8
0
 10
16.856048649860575
 20
-97.00411091617426
 30
0.0
  0
VERTEX
  8
0
 10
18.42788475772933
 20
-97.91161091617425
 30
0.0
  0
SEQEND
  0
LINE
  8
0
 10
28.67538475772934
 20
-80.1624202656122
 30
0.0
 11
29.438012885454075
 21
-79.41903386621881
 31
0.0
  0
LINE
  8
0
 10
29.714615242270668
 20
-80.76242026561219
 30
0.0
 11
29.977092685110822
 21
-79.73027173366532
 31
0.0
  0
LINE
  8
0
 10
29.438012885454075
 20
-79.41903386621881
 30
0.0
 11
29.977092685110822
 21
-79.73027173366532
 31
0.0
  0
LINE
  8
0
 10
31.84461524227067
 20
-80.1624202656122
 30
0.0
 11
34.59711524227067
 21
-84.92989011344554
 31
0.0
  0
LINE
  8
0
 10
44.84461524227067
 20
-102.6790807640076
 30
0.0
 11
42.092115242270665
 21
-97.91161091617425
 31
0.0
  0
POLYLINE
  8
0
 66
1
 10
0.0
 20
0.0
 30
0.0
 70
8
  0
VERTEX
  8
0
 10
34.59711524227067
 20
-84.92989011344554
 30
0.0
  0
VERTEX
  8
0
 10
36.16895135013942
 20
-84.02239011344554
 30
0.0
  0
VERTEX
  8
0
 10
39.33395135013942
 20
-89.50433091940104
 30
0.0
  0
VERTEX
  8
0
 10
37.76211524227067
 20
-90.41183091940104
 30
0.0
  0
VERTEX
  8
0
 10
38.927115242270666
 20
-92.42967011021878
 30
0.0
  0
SEQEND
  0
POLYLINE
  8
0
 66
1
 10
0.0
 20
0.0
 30
0.0
 70
8
  0
VERTEX
  8
0
 10
38.927115242270666
 20
-92.42967011021878
 30
0.0
  0
VERTEX
  8
0
 10
40.49895135013942
 20
-91.52217011021878
 30
0.0
  0
VERTEX
  8
0
 10
43.66395135013942
 20
-97.00411091617428
 30
0.0
  0
VERTEX
  8
0
 10
42.092115242270665
 20
-97.91161091617428
 30
0.0
  0
SEQEND
  0
LINE
  8
0
 10
30.805384757729342
 20
-80.76242026561219
 30
0.0
 11
33.55788475772934
 21
-85.52989011344553
 31
0.0
  0
LINE
  8
0
 10
43.80538475772935
 20
-103.27908076400759
 30
0.0
 11
41.052884757729345
 21
-98.51161091617425
 31
0.0
  0
POLYLINE
  8
0
 66
1
 10
0.0
 20
0.0
 30
0.0
 70
8
  0
VERTEX
  8
0
 10
33.55788475772934
 20
-85.52989011344553
 30
0.0
  0
VERTEX
  8
0
 10
31.986048649860585
 20
-86.43739011344553
 30
0.0
  0
VERTEX
  8
0
 10
35.151048649860584
 20
-91.91933091940103
 30
0.0
  0
VERTEX
  8
0
 10
36.72288475772934
 20
-91.01183091940104
 30
0.0
  0
VERTEX
  8
0
 10
37.88788475772934
 20
-93.02967011021877
 30
0.0
  0
SEQEND
  0
POLYLINE
  8
0
 66
1
 10
0.0
 20
0.0
 30
0.0
 70
8
  0
VERTEX
  8
0
 10
37.88788475772934
 20
-93.02967011021877
 30
0.0
  0
VERTEX
  8
0
 10
36.31604864986058
 20
-93.93717011021877
 30
0.0
  0
VERTEX
  8
0
 10
39.48104864986058
 20
-99.41911091617428
 30
0.0
  0
VERTEX
  8
0
 10
41.05288475772934
 20
-98.51161091617428
 30
0.0
  0
SEQEND
  0
LINE
  8
0
 10
30.805384757729342
 20
-80.76242026561219
 30
0.0
 11
30.542907314889188
 21
-79.73027173366532
 31
0.0
  0
LINE
  8
0
 10
31.84461524227067
 20
-80.1624202656122
 30
0.0
 11
31.081987114545935
 21
-79.41903386621881
 31
0.0
  0
LINE
  8
0
 10
30.542907314889188
 20
-79.73027173366532
 30
0.0
 11
31.081987114545935
 21
-79.41903386621881
 31
0.0
  0
LINE
  8
0
 10
62.65000000000001
 20
-78.01778615555135
 30
0.0
 11
68.15500000000002
 21
-78.01778615555135
 31
0.0
  0
LINE
  8
0
 10
88.65000000000002
 20
-78.01778615555135
 30
0.0
 11
83.14500000000001
 21
-78.01778615555135
 31
0.0
  0
POLYLINE
  8
0
 66
1
 10
0.0
 20
0.0
 30
0.0
 70
8
  0
VERTEX
  8
0
 10
68.15500000000002
 20
-78.01778615555135
 30
0.0
  0
VERTEX
  8
0
 10
68.15500000000002
 20
-76.20278615555135
 30
0.0
  0
VERTEX
  8
0
 10
74.48500000000001
 20
-76.20278615555135
 30
0.0
  0
VERTEX
  8
0
 10
74.48500000000001
 20
-78.01778615555135
 30
0.0
  0
VERTEX
  8
0
 10
76.81500000000001
 20
-78.01778615555135
 30
0.0
  0
SEQEND
  0
POLYLINE
  8
0
 66
1
 10
0.0
 20
0.0
 30
0.0
 70
8
  0
VERTEX
  8
0
 10
76.81500000000001
 20
-78.01778615555135
 30
0.0
  0
VERTEX
  8
0
 10
76.81500000000001
 20
-76.20278615555135
 30
0.0
  0
VERTEX
  8
0
 10
83.14500000000001
 20
-76.20278615555135
 30
0.0
  0
VERTEX
  8
0
 10
83.14500000000001
 20
-78.01778615555135
 30
0.0
  0
SEQEND
  0
LINE
  8
0
 10
62.65000000000001
 20
-79.21778615555134
 30
0.0
 11
68.15500000000002
 21
-79.21778615555134
 31
0.0
  0
LINE
  8
0
 10
88.65000000000002
 20
-79.21778615555134
 30
0.0
 11
83.14500000000001
 21
-79.21778615555134
 31
0.0
  0
POLYLINE
  8
0
 66
1
 10
0.0
 20
0.0
 30
0.0
 70
8
  0
VERTEX
  8
0
 10
68.15500000000002
 20
-79.21778615555134
 30
0.0
  0
VERTEX
  8
0
 10
68.15500000000002
 20
-81.03278615555134
 30
0.0
  0
VERTEX
  8
0
 10
74.48500000000001
 20
-81.03278615555134
 30
0.0
  0
VERTEX
  8
0
 10
74.48500000000001
 20
-79.21778615555134
 30
0.0
  0
VERTEX
  8
0
 10
76.81500000000001
 20
-79.21778615555134
 30
0.0
  0
SEQEND
  0
POLYLINE
  8
0
 66
1
 10
0.0
 20
0.0
 30
0.0
 70
8
  0
VERTEX
  8
0
 10
76.81500000000001
 20
-79.21778615555134
 30
0.0
  0
VERTEX
  8
0
 10
76.81500000000001
 20
-81.03278615555134
 30
0.0
  0
VERTEX
  8
0
 10
83.14500000000001
 20
-81.03278615555134
 30
0.0
  0
VERTEX
  8
0
 10
83.14500000000001
 20
-79.21778615555134
 30
0.0
  0
SEQEND
  0
LINE
  8
0
 10
62.65000000000001
 20
-79.21778615555134
 30
0.0
 11
61.62489442943512
 21
-78.92902402299785
 31
0.0
  0
LINE
  8
0
 10
62.65000000000001
 20
-78.01778615555135
 30
0.0
 11
61.62489442943512
 21
-78.30654828810484
 31
0.0
  0
LINE
  8
0
 10
61.62489442943512
 20
-78.92902402299785
 30
0.0
 11
61.62489442943512
 21
-78.30654828810484
 31
0.0
  0
LINE
  8
0
 10
62.10461524227067
 20
-77.07315204549049
 30
0.0
 11
61.34198711454594
 21
-77.81653844488388
 31
0.0
  0
LINE
  8
0
 10
61.06538475772935
 20
-76.4731520454905
 30
0.0
 11
60.8029073148892
 21
-77.50530057743737
 31
0.0
  0
LINE
  8
0
 10
61.34198711454594
 20
-77.81653844488388
 30
0.0
 11
60.8029073148892
 21
-77.50530057743737
 31
0.0
  0
LINE
  8
0
 10
59.97461524227067
 20
-76.4731520454905
 30
0.0
 11
60.237092685110824
 21
-77.50530057743737
 31
0.0
  0
LINE
  8
0
 10
58.93538475772935
 20
-77.07315204549049
 30
0.0
 11
59.698012885454084
 21
-77.81653844488388
 31
0.0
  0
LINE
  8
0
 10
60.237092685110824
 20
-77.50530057743737
 30
0.0
 11
59.698012885454084
 21
-77.81653844488388
 31
0.0
  0
LINE
  8
0
 10
58.39000000000001
 20
-78.01778615555135
 30
0.0
 11
59.4151055705649
 21
-78.30654828810484
 31
0.0
  0
LINE
  8
0
 10
58.39000000000001
 20
-79.21778615555134
 30
0.0
 11
59.4151055705649
 21
-78.92902402299785
 31
0.0
  0
LINE
  8
0
 10
59.4151055705649
 20
-78.30654828810484
 30
0.0
 11
59.4151055705649
 21
-78.92902402299785
 31
0.0
  0
LINE
  8
0
 10
59.97461524227067
 20
-80.76242026561219
 30
0.0
 11
57.22211524227067
 21
-85.52989011344553
 31
0.0
  0
LINE
  8
0
 10
46.97461524227066
 20
-103.27908076400759
 30
0.0
 11
49.727115242270656
 21
-98.51161091617425
 31
0.0
  0
POLYLINE
  8
0
 66
1
 10
0.0
 20
0.0
 30
0.0
 70
8
  0
VERTEX
  8
0
 10
57.22211524227067
 20
-85.52989011344553
 30
0.0
  0
VERTEX
  8
0
 10
58.79395135013942
 20
-86.43739011344553
 30
0.0
  0
VERTEX
  8
0
 10
55.62895135013942
 20
-91.91933091940102
 30
0.0
  0
VERTEX
  8
0
 10
54.05711524227066
 20
-91.01183091940102
 30
0.0
  0
VERTEX
  8
0
 10
52.89211524227066
 20
-93.02967011021876
 30
0.0
  0
SEQEND
  0
POLYLINE
  8
0
 66
1
 10
0.0
 20
0.0
 30
0.0
 70
8
  0
VERTEX
  8
0
 10
52.89211524227066
 20
-93.02967011021876
 30
0.0
  0
VERTEX
  8
0
 10
54.46395135013942
 20
-93.93717011021876
 30
0.0
  0
VERTEX
  8
0
 10
51.29895135013942
 20
-99.41911091617425
 30
0.0
  0
VERTEX
  8
0
 10
49.72711524227066
 20
-98.51161091617425
 30
0.0
  0
SEQEND
  0
LINE
  8
0
 10
58.93538475772935
 20
-80.1624202656122
 30
0.0
 11
56.18288475772935
 21
-84.92989011344554
 31
0.0
  0
LINE
  8
0
 10
45.93538475772934
 20
-102.6790807640076
 30
0.0
 11
48.687884757729336
 21
-97.91161091617425
 31
0.0
  0
POLYLINE
  8
0
 66
1
 10
0.0
 20
0.0
 30
0.0
 70
8
  0
VERTEX
  8
0
 10
56.18288475772935
 20
-84.92989011344554
 30
0.0
  0
VERTEX
  8
0
 10
54.61104864986059
 20
-84.02239011344554
 30
0.0
  0
VERTEX
  8
0
 10
51.446048649860586
 20
-89.50433091940103
 30
0.0
  0
VERTEX
  8
0
 10
53.01788475772934
 20
-90.41183091940103
 30
0.0
  0
VERTEX
  8
0
 10
51.85288475772934
 20
-92.42967011021877
 30
0.0
  0
SEQEND
  0
POLYLINE
  8
0
 66
1
 10
0.0
 20
0.0
 30
0.0
 70
8
  0
VERTEX
  8
0
 10
51.85288475772934
 20
-92.42967011021877
 30
0.0
  0
VERTEX
  8
0
 10
50.28104864986059
 20
-91.52217011021877
 30
0.0
  0
VERTEX
  8
0
 10
47.11604864986059
 20
-97.00411091617426
 30
0.0
  0
VERTEX
  8
0
 10
48.68788475772934
 20
-97.91161091617425
 30
0.0
  0
SEQEND
  0
LINE
  8
0
 10
58.93538475772935
 20
-80.1624202656122
 30
0.0
 11
59.698012885454084
 21
-79.41903386621881
 31
0.0
  0
LINE
  8
0
 10
59.97461524227067
 20
-80.76242026561219
 30
0.0
 11
60.237092685110824
 21
-79.73027173366532
 31
0.0
  0
LINE
  8
0
 10
59.698012885454084
 20
-79.41903386621881
 30
0.0
 11
60.237092685110824
 21
-79.73027173366532
 31
0.0
  0
LINE
  8
0
 10
62.10461524227067
 20
-80.1624202656122
 30
0.0
 11
64.85711524227067
 21
-84.92989011344554
 31
0.0
  0
LINE
  8
0
 10
75.10461524227067
 20
-102.6790807640076
 30
0.0
 11
72.35211524227067
 21
-97.91161091617425
 31
0.0
  0
POLYLINE
  8
0
 66
1
 10
0.0
 20
0.0
 30
0.0
 70
8
  0
VERTEX
  8
0
 10
64.85711524227067
 20
-84.92989011344554
 30
0.0
  0
VERTEX
  8
0
 10
66.42895135013943
 20
-84.02239011344554
 30
0.0
  0
VERTEX
  8
0
 10
69.59395135013943
 20
-89.50433091940104
 30
0.0
  0
VERTEX
  8
0
 10
68.02211524227067
 20
-90.41183091940104
 30
0.0
  0
VERTEX
  8
0
 10
69.18711524227068
 20
-92.42967011021878
 30
0.0
  0
SEQEND
  0
POLYLINE
  8
0
 66
1
 10
0.0
 20
0.0
 30
0.0
 70
8
  0
VERTEX
  8
0
 10
69.18711524227068
 20
-92.42967011021878
 30
0.0
  0
VERTEX
  8
0
 10
70.75895135013944
 20
-91.52217011021878
 30
0.0
  0
VERTEX
  8
0
 10
73.92395135013945
 20
-97.00411091617428
 30
0.0
  0
VERTEX
  8
0
 10
72.35211524227068
 20
-97.91161091617428
 30
0.0
  0
SEQEND
  0
LINE
  8
0
 10
61.06538475772935
 20
-80.76242026561219
 30
0.0
 11
63.817884757729345
 21
-85.52989011344553
 31
0.0
  0
LINE
  8
0
 10
74.06538475772935
 20
-103.27908076400759
 30
0.0
 11
71.31288475772935
 21
-98.51161091617425
 31
0.0
  0
POLYLINE
  8
0
 66
1
 10
0.0
 20
0.0
 30
0.0
 70
8
  0
VERTEX
  8
0
 10
63.817884757729345
 20
-85.52989011344553
 30
0.0
  0
VERTEX
  8
0
 10
62.24604864986059
 20
-86.43739011344553
 30
0.0
  0
VERTEX
  8
0
 10
65.41104864986059
 20
-91.91933091940103
 30
0.0
  0
VERTEX
  8
0
 10
66.98288475772935
 20
-91.01183091940104
 30
0.0
  0
VERTEX
  8
0
 10
68.14788475772936
 20
-93.02967011021877
 30
0.0
  0
SEQEND
  0
POLYLINE
  8
0
 66
1
 10
0.0
 20
0.0
 30
0.0
 70
8
  0
VERTEX
  8
0
 10
68.14788475772936
 20
-93.02967011021877
 30
0.0
  0
VERTEX
  8
0
 10
66.5760486498606
 20
-93.93717011021877
 30
0.0
  0
VERTEX
  8
0
 10
69.7410486498606
 20
-99.41911091617428
 30
0.0
  0
VERTEX
  8
0
 10
71.31288475772936
 20
-98.51161091617428
 30
0.0
  0
SEQEND
  0
LINE
  8
0
 10
61.06538475772935
 20
-80.76242026561219
 30
0.0
 11
60.8029073148892
 21
-79.73027173366532
 31
0.0
  0
LINE
  8
0
 10
62.10461524227067
 20
-80.1624202656122
 30
0.0
 11
61.34198711454594
 21
-79.41903386621881
 31
0.0
  0
LINE
  8
0
 10
60.8029073148892
 20
-79.73027173366532
 30
0.0
 11
61.34198711454594
 21
-79.41903386621881
 31
0.0
  0
LINE
  8
0
 10
92.91000000000001
 20
-78.01778615555135
 30
0.0
 11
98.41500000000002
 21
-78.01778615555135
 31
0.0
  0
LINE
  8
0
 10
118.91000000000003
 20
-78.01778615555135
 30
0.0
 11
113.40500000000002
 21
-78.01778615555135
 31
0.0
  0
POLYLINE
  8
0
 66
1
 10
0.0
 20
0.0
 30
0.0
 70
8
  0
VERTEX
  8
0
 10
98.41500000000002
 20
-78.01778615555135
 30
0.0
  0
VERTEX
  8
0
 10
98.41500000000002
 20
-76.20278615555135
 30
0.0
  0
VERTEX
  8
0
 10
104.74500000000002
 20
-76.20278615555135
 30
0.0
  0
VERTEX
  8
0
 10
104.74500000000002
 20
-78.01778615555135
 30
0.0
  0
VERTEX
  8
0
 10
107.07500000000002
 20
-78.01778615555135
 30
0.0
  0
SEQEND
  0
POLYLINE
  8
0
 66
1
 10
0.0
 20
0.0
 30
0.0
 70
8
  0
VERTEX
  8
0
 10
107.07500000000002
 20
-78.01778615555135
 30
0.0
  0
VERTEX
  8
0
 10
107.07500000000002
 20
-76.20278615555135
 30
0.0
  0
VERTEX
  8
0
 10
113.40500000000002
 20
-76.20278615555135
 30
0.0
  0
VERTEX
  8
0
 10
113.40500000000002
 20
-78.01778615555135
 30
0.0
  0
SEQEND
  0
LINE
  8
0
 10
92.91000000000001
 20
-79.21778615555134
 30
0.0
 11
98.41500000000002
 21
-79.21778615555134
 31
0.0
  0
LINE
  8
0
 10
118.91000000000003
 20
-79.21778615555134
 30
0.0
 11
113.40500000000002
 21
-79.21778615555134
 31
0.0
  0
POLYLINE
  8
0
 66
1
 10
0.0
 20
0.0
 30
0.0
 70
8
  0
VERTEX
  8
0
 10
98.41500000000002
 20
-79.21778615555134
 30
0.0
  0
VERTEX
  8
0
 10
98.41500000000002
 20
-81.03278615555134
 30
0.0
  0
VERTEX
  8
0
 10
104.74500000000002
 20
-81.03278615555134
 30
0.0
  0
VERTEX
  8
0
 10
104.74500000000002
 20
-79.21778615555134
 30
0.0
  0
VERTEX
  8
0
 10
107.07500000000002
 20
-79.21778615555134
 30
0.0
  0
SEQEND
  0
POLYLINE
  8
0
 66
1
 10
0.0
 20
0.0
 30
0.0
 70
8
  0
VERTEX
  8
0
 10
107.07500000000002
 20
-79.21778615555134
 30
0.0
  0
VERTEX
  8
0
 10
107.07500000000002
 20
-81.03278615555134
 30
0.0
  0
VERTEX
  8
0
 10
113.40500000000002
 20
-81.03278615555134
 30
0.0
  0
VERTEX
  8
0
 10
113.40500000000002
 20
-79.21778615555134
 30
0.0
  0
SEQEND
  0
LINE
  8
0
 10
92.91000000000001
 20
-79.21778615555134
 30
0.0
 11
91.88489442943512
 21
-78.92902402299785
 31
0.0
  0
LINE
  8
0
 10
92.91000000000001
 20
-78.01778615555135
 30
0.0
 11
91.88489442943512
 21
-78.30654828810484
 31
0.0
  0
LINE
  8
0
 10
91.88489442943512
 20
-78.92902402299785
 30
0.0
 11
91.88489442943512
 21
-78.30654828810484
 31
0.0
  0
LINE
  8
0
 10
92.36461524227067
 20
-77.07315204549049
 30
0.0
 11
91.60198711454593
 21
-77.81653844488388
 31
0.0
  0
LINE
  8
0
 10
91.32538475772935
 20
-76.4731520454905
 30
0.0
 11
91.0629073148892
 21
-77.50530057743737
 31
0.0
  0
LINE
  8
0
 10
91.60198711454593
 20
-77.81653844488388
 30
0.0
 11
91.0629073148892
 21
-77.50530057743737
 31
0.0
  0
LINE
  8
0
 10
90.23461524227068
 20
-76.4731520454905
 30
0.0
 11
90.49709268511083
 21
-77.50530057743737
 31
0.0
  0
LINE
  8
0
 10
89.19538475772936
 20
-77.07315204549049
 30
0.0
 11
89.9580128854541
 21
-77.81653844488388
 31
0.0
  0
LINE
  8
0
 10
90.49709268511083
 20
-77.50530057743737
 30
0.0
 11
89.9580128854541
 21
-77.81653844488388
 31
0.0
  0
LINE
  8
0
 10
88.65000000000002
 20
-78.01778615555135
 30
0.0
 11
89.67510557056491
 21
-78.30654828810484
 31
0.0
  0
LINE
  8
0
 10
88.65000000000002
 20
-79.21778615555134
 30
0.0
 11
89.67510557056491
 21
-78.92902402299785
 31
0.0
  0
LINE
  8
0
 10
89.67510557056491
 20
-78.30654828810484
 30
0.0
 11
89.67510557056491
 21
-78.92902402299785
 31
0.0
  0
LINE
  8
0
 10
90.23461524227068
 20
-80.76242026561219
 30
0.0
 11
87.48211524227068
 21
-85.52989011344553
 31
0.0
  0
LINE
  8
0
 10
77.23461524227066
 20
-103.27908076400759
 30
0.0
 11
79.98711524227066
 21
-98.51161091617425
 31
0.0
  0
POLYLINE
  8
0
 66
1
 10
0.0
 20
0.0
 30
0.0
 70
8
  0
VERTEX
  8
0
 10
87.48211524227068
 20
-85.52989011344553
 30
0.0
  0
VERTEX
  8
0
 10
89.05395135013944
 20
-86.43739011344553
 30
0.0
  0
VERTEX
  8
0
 10
85.88895135013944
 20
-91.91933091940102
 30
0.0
  0
VERTEX
  8
0
 10
84.31711524227067
 20
-91.01183091940102
 30
0.0
  0
VERTEX
  8
0
 10
83.15211524227067
 20
-93.02967011021876
 30
0.0
  0
SEQEND
  0
POLYLINE
  8
0
 66
1
 10
0.0
 20
0.0
 30
0.0
 70
8
  0
VERTEX
  8
0
 10
83.15211524227067
 20
-93.02967011021876
 30
0.0
  0
VERTEX
  8
0
 10
84.72395135013943
 20
-93.93717011021876
 30
0.0
  0
VERTEX
  8
0
 10
81.55895135013942
 20
-99.41911091617425
 30
0.0
  0
VERTEX
  8
0
 10
79.98711524227066
 20
-98.51161091617425
 30
0.0
  0
SEQEND
  0
LINE
  8
0
 10
89.19538475772936
 20
-80.1624202656122
 30
0.0
 11
86.44288475772936
 21
-84.92989011344554
 31
0.0
  0
LINE
  8
0
 10
76.19538475772934
 20
-102.6790807640076
 30
0.0
 11
78.94788475772934
 21
-97.91161091617425
 31
0.0
  0
POLYLINE
  8
0
 66
1
 10
0.0
 20
0.0
 30
0.0
 70
8
  0
VERTEX
  8
0
 10
86.44288475772936
 20
-84.92989011344554
 30
0.0
  0
VERTEX
  8
0
 10
84.8710486498606
 20
-84.02239011344554
 30
0.0
  0
VERTEX
  8
0
 10
81.70604864986059
 20
-89.50433091940103
 30
0.0
  0
VERTEX
  8
0
 10
83.27788475772935
 20
-90.41183091940103
 30
0.0
  0
VERTEX
  8
0
 10
82.11288475772935
 20
-92.42967011021877
 30
0.0
  0
SEQEND
  0
POLYLINE
  8
0
 66
1
 10
0.0
 20
0.0
 30
0.0
 70
8
  0
VERTEX
  8
0
 10
82.11288475772935
 20
-92.42967011021877
 30
0.0
  0
VERTEX
  8
0
 10
80.54104864986058
 20
-91.52217011021877
 30
0.0
  0
VERTEX
  8
0
 10
77.37604864986058
 20
-97.00411091617426
 30
0.0
  0
VERTEX
  8
0
 10
78.94788475772934
 20
-97.91161091617425
 30
0.0
  0
SEQEND
  0
LINE
  8
0
 10
89.19538475772936
 20
-80.1624202656122
 30
0.0
 11
89.9580128854541
 21
-79.41903386621881
 31
0.0
  0
LINE
  8
0
 10
90.23461524227068
 20
-80.76242026561219
 30
0.0
 11
90.49709268511083
 21
-79.73027173366532
 31
0.0
  0
LINE
  8
0
 10
89.9580128854541
 20
-79.41903386621881
 30
0.0
 11
90.49709268511083
 21
-79.73027173366532
 31
0.0
  0
LINE
  8
0
 10
92.36461524227067
 20
-80.1624202656122
 30
0.0
 11
95.11711524227067
 21
-84.92989011344554
 31
0.0
  0
LINE
  8
0
 10
105.36461524227067
 20
-102.6790807640076
 30
0.0
 11
102.61211524227068
 21
-97.91161091617425
 31
0.0
  0
POLYLINE
  8
0
 66
1
 10
0.0
 20
0.0
 30
0.0
 70
8
  0
VERTEX
  8
0
 10
95.11711524227067
 20
-84.92989011344554
 30
0.0
  0
VERTEX
  8
0
 10
96.68895135013943
 20
-84.02239011344554
 30
0.0
  0
VERTEX
  8
0
 10
99.85395135013944
 20
-89.50433091940104
 30
0.0
  0
VERTEX
  8
0
 10
98.28211524227068
 20
-90.41183091940104
 30
0.0
  0
VERTEX
  8
0
 10
99.44711524227068
 20
-92.42967011021878
 30
0.0
  0
SEQEND
  0
POLYLINE
  8
0
 66
1
 10
0.0
 20
0.0
 30
0.0
 70
8
  0
VERTEX
  8
0
 10
99.44711524227068
 20
-92.42967011021878
 30
0.0
  0
VERTEX
  8
0
 10
101.01895135013945
 20
-91.52217011021878
 30
0.0
  0
VERTEX
  8
0
 10
104.18395135013945
 20
-97.00411091617428
 30
0.0
  0
VERTEX
  8
0
 10
102.61211524227069
 20
-97.91161091617428
 30
0.0
  0
SEQEND
  0
LINE
  8
0
 10
91.32538475772935
 20
-80.76242026561219
 30
0.0
 11
94.07788475772935
 21
-85.52989011344553
 31
0.0
  0
LINE
  8
0
 10
104.32538475772935
 20
-103.27908076400759
 30
0.0
 11
101.57288475772935
 21
-98.51161091617425
 31
0.0
  0
POLYLINE
  8
0
 66
1
 10
0.0
 20
0.0
 30
0.0
 70
8
  0
VERTEX
  8
0
 10
94.07788475772935
 20
-85.52989011344553
 30
0.0
  0
VERTEX
  8
0
 10
92.50604864986059
 20
-86.43739011344553
 30
0.0
  0
VERTEX
  8
0
 10
95.6710486498606
 20
-91.91933091940103
 30
0.0
  0
VERTEX
  8
0
 10
97.24288475772936
 20
-91.01183091940104
 30
0.0
  0
VERTEX
  8
0
 10
98.40788475772936
 20
-93.02967011021877
 30
0.0
  0
SEQEND
  0
POLYLINE
  8
0
 66
1
 10
0.0
 20
0.0
 30
0.0
 70
8
  0
VERTEX
  8
0
 10
98.40788475772936
 20
-93.02967011021877
 30
0.0
  0
VERTEX
  8
0
 10
96.8360486498606
 20
-93.93717011021877
 30
0.0
  0
VERTEX
  8
0
 10
100.0010486498606
 20
-99.41911091617428
 30
0.0
  0
VERTEX
  8
0
 10
101.57288475772937
 20
-98.51161091617428
 30
0.0
  0
SEQEND
  0
LINE
  8
0
 10
91.32538475772935
 20
-80.76242026561219
 30
0.0
 11
91.0629073148892
 21
-79.73027173366532
 31
0.0
  0
LINE
  8
0
 10
92.36461524227067
 20
-80.1624202656122
 30
0.0
 11
91.60198711454593
 21
-79.41903386621881
 31
0.0
  0
LINE
  8
0
 10
91.0629073148892
 20
-79.73027173366532
 30
0.0
 11
91.60198711454593
 21
-79.41903386621881
 31
0.0
  0
ENDSEC
  0
EOF
