  0
SECTION
  2
HEADER
  9
$ACADVER
  1
AC1009
  9
$INSBASE
 10
0.0
 20
0.0
 30
0.0
  9
$EXTMIN
 10
0.0
 20
0.0
 30
0.0
  9
$EXTMAX
 10
100.0
 20
100.0
 30
0.0
  9
$UNITMODE
 70
0
  9
$AUNITS
 70
0
  9
$ANGBASE
 50
0.0
  9
$ANGDIR
 70
0
  0
ENDSEC
  0
SECTION
  2
TABLES
  0
TABLE
  2
LTYPE
 70
19
  0
LTYPE
  2
CONTINUOUS
 70
0
  3
Solid
 72
65
 73
0
 40
0.0
  0
LTYPE
  2
CENTER
 70
0
  3
Center ____ _ ____ _ ____ _ ____ _ ____ _ ____
 72
65
 73
4
 40
2.0
 49
1.25
 49
-0.25
 49
0.25
 49
-0.25
  0
LTYPE
  2
CENTERX2
 70
0
  3
Center (2x) ________  __  ________  __  ________
 72
65
 73
4
 40
3.5
 49
2.5
 49
-0.25
 49
0.5
 49
-0.25
  0
LTYPE
  2
CENTER2
 70
0
  3
Center (.5x) ____ _ ____ _ ____ _ ____ _ ____
 72
65
 73
4
 40
1.0
 49
0.625
 49
-0.125
 49
0.125
 49
-0.125
  0
LTYPE
  2
DASHED
 70
0
  3
Dashed __ __ __ __ __ __ __ __ __ __ __ __ __ _
 72
65
 73
2
 40
0.6
 49
0.5
 49
-0.1
  0
LTYPE
  2
DASHEDX2
 70
0
  3
Dashed (2x) ____  ____  ____  ____  ____  ____
 72
65
 73
2
 40
1.2
 49
1.0
 49
-0.2
  0
LTYPE
  2
DASHED2
 70
0
  3
Dashed (.5x) _ _ _ _ _ _ _ _ _ _ _ _ _ _
 72
65
 73
2
 40
0.3
 49
0.25
 49
-0.05
  0
LTYPE
  2
PHANTOM
 70
0
  3
Phantom ______  __  __  ______  __  __  ______
 72
65
 73
6
 40
2.5
 49
1.25
 49
-0.25
 49
0.25
 49
-0.25
 49
0.25
 49
-0.25
  0
LTYPE
  2
PHANTOMX2
 70
0
  3
Phantom (2x)____________    ____    ____    ____________
 72
65
 73
6
 40
4.25
 49
2.5
 49
-0.25
 49
0.5
 49
-0.25
 49
0.5
 49
-0.25
  0
LTYPE
  2
PHANTOM2
 70
0
  3
Phantom (.5x) ___ _ _ ___ _ _ ___ _ _ ___ _ _ ___
 72
65
 73
6
 40
1.25
 49
0.625
 49
-0.125
 49
0.125
 49
-0.125
 49
0.125
 49
-0.125
  0
LTYPE
  2
DASHDOT
 70
0
  3
Dash dot __ . __ . __ . __ . __ . __ . __ . __
 72
65
 73
4
 40
1.4
 49
1.0
 49
-0.2
 49
0.0
 49
-0.2
  0
LTYPE
  2
DASHDOTX2
 70
0
  3
Dash dot (2x) ____  .  ____  .  ____  .  ____
 72
65
 73
4
 40
2.4
 49
2.0
 49
-0.2
 49
0.0
 49
-0.2
  0
LTYPE
  2
DASHDOT2
 70
0
  3
Dash dot (.5x) _ . _ . _ . _ . _ . _ . _ . _
 72
65
 73
4
 40
0.7
 49
0.5
 49
-0.1
 49
0.0
 49
-0.1
  0
LTYPE
  2
DOT
 70
0
  3
Dot .  .  .  .  .  .  .  .  .  .  .  .  .  .  .  .
 72
65
 73
2
 40
0.2
 49
0.0
 49
-0.2
  0
LTYPE
  2
DOTX2
 70
0
  3
Dot (2x) .    .    .    .    .    .    .    . 
 72
65
 73
2
 40
0.4
 49
0.0
 49
-0.4
  0
LTYPE
  2
DOT2
 70
0
  3
Dot (.5) . . . . . . . . . . . . . . . . . . . 
 72
65
 73
2
 40
0.1
 49
0.0
 49
-0.1
  0
LTYPE
  2
DIVIDE
 70
0
  3
Divide __ . . __ . . __ . . __ . . __ . . __
 72
65
 73
6
 40
1.6
 49
1.0
 49
-0.2
 49
0.0
 49
-0.2
 49
0.0
 49
-0.2
  0
LTYPE
  2
DIVIDEX2
 70
0
  3
Divide (2x) ____  . .  ____  . .  ____  . .  ____
 72
65
 73
6
 40
2.6
 49
2.0
 49
-0.2
 49
0.0
 49
-0.2
 49
0.0
 49
-0.2
  0
LTYPE
  2
DIVIDE2
 70
0
  3
Divide(.5x) _ . _ . _ . _ . _ . _ . _ . _
 72
65
 73
6
 40
0.8
 49
0.5
 49
-0.1
 49
0.0
 49
-0.1
 49
0.0
 49
-0.1
  0
ENDTAB
  0
TABLE
  2
LAYER
 70
5
  0
LAYER
  2
DIMENSIONS
 70
0
 62
1
  6
CONTINUOUS
  0
LAYER
  2
TABLEBACKGROUND
 70
0
 62
1
  6
CONTINUOUS
  0
LAYER
  2
TABLECONTENT
 70
0
 62
1
  6
CONTINUOUS
  0
LAYER
  2
TABLEGRID
 70
0
 62
1
  6
CONTINUOUS
  0
LAYER
  2
VIEWPORTS
 70
0
 62
7
  6
CONTINUOUS
  0
ENDTAB
  0
TABLE
  2
STYLE
 70
12
  0
STYLE
  2
STANDARD
 70
0
 40
0.0
 41
1.0
 42
1.0
 50
0.0
 71
0
  3
arial.ttf
  4

  0
STYLE
  2
ARIAL
 70
0
 40
0.0
 41
1.0
 42
1.0
 50
0.0
 71
0
  3
arial.ttf
  4

  0
STYLE
  2
ARIAL_BOLD
 70
0
 40
0.0
 41
1.0
 42
1.0
 50
0.0
 71
0
  3
arialbd.ttf
  4

  0
STYLE
  2
ARIAL_ITALIC
 70
0
 40
0.0
 41
1.0
 42
1.0
 50
0.0
 71
0
  3
ariali.ttf
  4

  0
STYLE
  2
ARIAL_BOLD_ITALIC
 70
0
 40
0.0
 41
1.0
 42
1.0
 50
0.0
 71
0
  3
arialbi.ttf
  4

  0
STYLE
  2
ARIAL_BLACK
 70
0
 40
0.0
 41
1.0
 42
1.0
 50
0.0
 71
0
  3
ariblk.ttf
  4

  0
STYLE
  2
ISOCPEUR
 70
0
 40
0.0
 41
1.0
 42
1.0
 50
0.0
 71
0
  3
isocpeur.ttf
  4

  0
STYLE
  2
ISOCPEUR_ITALIC
 70
0
 40
0.0
 41
1.0
 42
1.0
 50
0.0
 71
0
  3
isocpeui.ttf
  4

  0
STYLE
  2
TIMES
 70
0
 40
0.0
 41
1.0
 42
1.0
 50
0.0
 71
0
  3
times.ttf
  4

  0
STYLE
  2
TIMES_BOLD
 70
0
 40
0.0
 41
1.0
 42
1.0
 50
0.0
 71
0
  3
timesbd.ttf
  4

  0
STYLE
  2
TIMES_ITALIC
 70
0
 40
0.0
 41
1.0
 42
1.0
 50
0.0
 71
0
  3
timesi.ttf
  4

  0
STYLE
  2
TIMES_BOLD_ITALIC
 70
0
 40
0.0
 41
1.0
 42
1.0
 50
0.0
 71
0
  3
timesbi.ttf
  4

  0
ENDTAB
  0
TABLE
  2
VIEW
 70
0
  0
ENDTAB
  0
TABLE
  2
APPID
 70
1
  0
APPID
  2
DXFWRITE
 70
0
  0
ENDTAB
  0
TABLE
  2
VPORT
 70
0
  0
ENDTAB
  0
TABLE
  2
UCS
 70
0
  0
ENDTAB
  0
ENDSEC
  0
SECTION
  2
BLOCKS
  0
ENDSEC
  0
SECTION
  2
ENTITIES
  0
VIEWPORT
  8
VIEWPORTS
 67
1
 10
0.0
 20
0.0
 30
0.0
 40
1.0
 41
1.0
 68
1
 69
1
1001
ACAD
1000
MVIEW
1002
{
1070
16
1010
0.0
1020
0.0
1030
0.0
1010
0.0
1020
0.0
1030
0.0
1040
0.0
1040
1.0
1040
0.0
1040
0.0
1040
50.0
1040
0.0
1040
0.0
1070
0
1070
100
1070
1
1070
3
1070
0
1070
0
1070
0
1070
0
1040
0.0
1040
0.0
1040
0.0
1040
0.1
1040
0.1
1040
0.1
1040
0.1
1070
0
1002
{
1002
}
1002
}
  0
POLYLINE
  8
0
 66
1
 10
0.0
 20
0.0
 30
0.0
 70
8
  0
VERTEX
  8
0
 10
41.531844359614595
 20
-2.415
 30
0.0
  0
VERTEX
  8
0
 10
41.531844359614595
 20
2.415
 30
0.0
  0
VERTEX
  8
0
 10
47.861844359614594
 20
2.415
 30
0.0
  0
VERTEX
  8
0
 10
47.861844359614594
 20
-2.415
 30
0.0
  0
VERTEX
  8
0
 10
41.531844359614595
 20
-2.414999999999999
 30
0.0
  0
SEQEND
  0
POLYLINE
  8
0
 66
1
 10
0.0
 20
0.0
 30
0.0
 70
8
  0
VERTEX
  8
0
 10
50.19184435961459
 20
-2.415
 30
0.0
  0
VERTEX
  8
0
 10
50.19184435961459
 20
2.415
 30
0.0
  0
VERTEX
  8
0
 10
56.52184435961459
 20
2.415
 30
0.0
  0
VERTEX
  8
0
 10
56.52184435961459
 20
-2.415
 30
0.0
  0
VERTEX
  8
0
 10
50.19184435961459
 20
-2.414999999999999
 30
0.0
  0
SEQEND
  0
POLYLINE
  8
0
 66
1
 10
0.0
 20
0.0
 30
0.0
 70
8
  0
VERTEX
  8
0
 10
32.580962245927196
 20
3.6169112902516845
 30
0.0
  0
VERTEX
  8
0
 10
29.47629809114121
 20
7.3169059505163485
 30
0.0
  0
VERTEX
  8
0
 10
34.32535941608434
 20
11.38575151983214
 30
0.0
  0
VERTEX
  8
0
 10
37.430023570870325
 20
7.685756859567476
 30
0.0
  0
VERTEX
  8
0
 10
32.580962245927196
 20
3.616911290251683
 30
0.0
  0
SEQEND
  0
POLYLINE
  8
0
 66
1
 10
0.0
 20
0.0
 30
0.0
 70
8
  0
VERTEX
  8
0
 10
39.21490712333755
 20
9.183451990137115
 30
0.0
  0
VERTEX
  8
0
 10
36.11024296855156
 20
12.88344665040178
 30
0.0
  0
VERTEX
  8
0
 10
40.95930429349469
 20
16.952292219717574
 30
0.0
  0
VERTEX
  8
0
 10
44.063968448280676
 20
13.25229755945291
 30
0.0
  0
VERTEX
  8
0
 10
39.21490712333755
 20
9.183451990137115
 30
0.0
  0
SEQEND
  0
POLYLINE
  8
0
 66
1
 10
0.0
 20
0.0
 30
0.0
 70
8
  0
VERTEX
  8
0
 10
19.550546268473383
 20
7.31690595051635
 30
0.0
  0
VERTEX
  8
0
 10
16.445882113687396
 20
3.616911290251687
 30
0.0
  0
VERTEX
  8
0
 10
11.596820788744267
 20
7.685756859567482
 30
0.0
  0
VERTEX
  8
0
 10
14.701484943530252
 20
11.385751519832146
 30
0.0
  0
VERTEX
  8
0
 10
19.550546268473383
 20
7.31690595051635
 30
0.0
  0
SEQEND
  0
POLYLINE
  8
0
 66
1
 10
0.0
 20
0.0
 30
0.0
 70
8
  0
VERTEX
  8
0
 10
12.916601391063034
 20
12.883446650401783
 30
0.0
  0
VERTEX
  8
0
 10
9.811937236277048
 20
9.18345199013712
 30
0.0
  0
VERTEX
  8
0
 10
4.962875911333918
 20
13.252297559452916
 30
0.0
  0
VERTEX
  8
0
 10
8.067540066119903
 20
16.95229221971758
 30
0.0
  0
VERTEX
  8
0
 10
12.916601391063033
 20
12.883446650401785
 30
0.0
  0
SEQEND
  0
POLYLINE
  8
0
 66
1
 10
0.0
 20
0.0
 30
0.0
 70
8
  0
VERTEX
  8
0
 10
7.495000000000001
 20
2.4150000000000023
 30
0.0
  0
VERTEX
  8
0
 10
7.495
 20
-2.414999999999998
 30
0.0
  0
VERTEX
  8
0
 10
1.165
 20
-2.414999999999997
 30
0.0
  0
VERTEX
  8
0
 10
1.1650000000000003
 20
2.415000000000003
 30
0.0
  0
VERTEX
  8
0
 10
7.495
 20
2.415000000000002
 30
0.0
  0
SEQEND
  0
POLYLINE
  8
0
 66
1
 10
0.0
 20
0.0
 30
0.0
 70
8
  0
VERTEX
  8
0
 10
-1.1649999999999991
 20
2.415000000000003
 30
0.0
  0
VERTEX
  8
0
 10
-1.165
 20
-2.414999999999997
 30
0.0
  0
VERTEX
  8
0
 10
-7.495
 20
-2.414999999999996
 30
0.0
  0
VERTEX
  8
0
 10
-7.495
 20
2.415000000000004
 30
0.0
  0
VERTEX
  8
0
 10
-1.165
 20
2.4150000000000027
 30
0.0
  0
SEQEND
  0
POLYLINE
  8
0
 66
1
 10
0.0
 20
0.0
 30
0.0
 70
8
  0
VERTEX
  8
0
 10
16.445882113687396
 20
-3.6169112902516845
 30
0.0
  0
VERTEX
  8
0
 10
19.550546268473383
 20
-7.3169059505163485
 30
0.0
  0
VERTEX
  8
0
 10
14.701484943530252
 20
-11.38575151983214
 30
0.0
  0
VERTEX
  8
0
 10
11.596820788744267
 20
-7.685756859567476
 30
0.0
  0
VERTEX
  8
0
 10
16.4458821136874
 20
-3.616911290251683
 30
0.0
  0
SEQEND
  0
POLYLINE
  8
0
 66
1
 10
0.0
 20
0.0
 30
0.0
 70
8
  0
VERTEX
  8
0
 10
9.811937236277046
 20
-9.183451990137115
 30
0.0
  0
VERTEX
  8
0
 10
12.91660139106303
 20
-12.88344665040178
 30
0.0
  0
VERTEX
  8
0
 10
8.0675400661199
 20
-16.952292219717574
 30
0.0
  0
VERTEX
  8
0
 10
4.962875911333915
 20
-13.25229755945291
 30
0.0
  0
VERTEX
  8
0
 10
9.811937236277046
 20
-9.183451990137115
 30
0.0
  0
SEQEND
  0
POLYLINE
  8
0
 66
1
 10
0.0
 20
0.0
 30
0.0
 70
8
  0
VERTEX
  8
0
 10
29.47629809114121
 20
-7.3169059505163485
 30
0.0
  0
VERTEX
  8
0
 10
32.580962245927196
 20
-3.6169112902516845
 30
0.0
  0
VERTEX
  8
0
 10
37.430023570870325
 20
-7.685756859567478
 30
0.0
  0
VERTEX
  8
0
 10
34.32535941608434
 20
-11.385751519832143
 30
0.0
  0
VERTEX
  8
0
 10
29.47629809114121
 20
-7.316905950516348
 30
0.0
  0
SEQEND
  0
POLYLINE
  8
0
 66
1
 10
0.0
 20
0.0
 30
0.0
 70
8
  0
VERTEX
  8
0
 10
36.11024296855156
 20
-12.88344665040178
 30
0.0
  0
VERTEX
  8
0
 10
39.21490712333755
 20
-9.183451990137115
 30
0.0
  0
VERTEX
  8
0
 10
44.063968448280676
 20
-13.25229755945291
 30
0.0
  0
VERTEX
  8
0
 10
40.95930429349469
 20
-16.952292219717574
 30
0.0
  0
VERTEX
  8
0
 10
36.11024296855156
 20
-12.88344665040178
 30
0.0
  0
SEQEND
  0
POLYLINE
  8
0
 66
1
 10
0.0
 20
0.0
 30
0.0
 70
8
  0
VERTEX
  8
0
 10
90.5586887192292
 20
-2.415
 30
0.0
  0
VERTEX
  8
0
 10
90.5586887192292
 20
2.415
 30
0.0
  0
VERTEX
  8
0
 10
96.8886887192292
 20
2.415
 30
0.0
  0
VERTEX
  8
0
 10
96.8886887192292
 20
-2.415
 30
0.0
  0
VERTEX
  8
0
 10
90.5586887192292
 20
-2.414999999999999
 30
0.0
  0
SEQEND
  0
POLYLINE
  8
0
 66
1
 10
0.0
 20
0.0
 30
0.0
 70
8
  0
VERTEX
  8
0
 10
99.21868871922919
 20
-2.415
 30
0.0
  0
VERTEX
  8
0
 10
99.21868871922919
 20
2.415
 30
0.0
  0
VERTEX
  8
0
 10
105.54868871922919
 20
2.415
 30
0.0
  0
VERTEX
  8
0
 10
105.54868871922919
 20
-2.415
 30
0.0
  0
VERTEX
  8
0
 10
99.21868871922919
 20
-2.414999999999999
 30
0.0
  0
SEQEND
  0
POLYLINE
  8
0
 66
1
 10
0.0
 20
0.0
 30
0.0
 70
8
  0
VERTEX
  8
0
 10
81.60780660554178
 20
3.6169112902516845
 30
0.0
  0
VERTEX
  8
0
 10
78.5031424507558
 20
7.3169059505163485
 30
0.0
  0
VERTEX
  8
0
 10
83.35220377569894
 20
11.38575151983214
 30
0.0
  0
VERTEX
  8
0
 10
86.45686793048492
 20
7.685756859567476
 30
0.0
  0
VERTEX
  8
0
 10
81.60780660554178
 20
3.616911290251683
 30
0.0
  0
SEQEND
  0
POLYLINE
  8
0
 66
1
 10
0.0
 20
0.0
 30
0.0
 70
8
  0
VERTEX
  8
0
 10
88.24175148295213
 20
9.183451990137115
 30
0.0
  0
VERTEX
  8
0
 10
85.13708732816615
 20
12.88344665040178
 30
0.0
  0
VERTEX
  8
0
 10
89.98614865310928
 20
16.952292219717574
 30
0.0
  0
VERTEX
  8
0
 10
93.09081280789526
 20
13.25229755945291
 30
0.0
  0
VERTEX
  8
0
 10
88.24175148295213
 20
9.183451990137115
 30
0.0
  0
SEQEND
  0
POLYLINE
  8
0
 66
1
 10
0.0
 20
0.0
 30
0.0
 70
8
  0
VERTEX
  8
0
 10
68.57739062808798
 20
7.31690595051635
 30
0.0
  0
VERTEX
  8
0
 10
65.472726473302
 20
3.616911290251687
 30
0.0
  0
VERTEX
  8
0
 10
60.623665148358874
 20
7.685756859567482
 30
0.0
  0
VERTEX
  8
0
 10
63.72832930314486
 20
11.385751519832146
 30
0.0
  0
VERTEX
  8
0
 10
68.57739062808798
 20
7.31690595051635
 30
0.0
  0
SEQEND
  0
POLYLINE
  8
0
 66
1
 10
0.0
 20
0.0
 30
0.0
 70
8
  0
VERTEX
  8
0
 10
61.94344575067763
 20
12.883446650401783
 30
0.0
  0
VERTEX
  8
0
 10
58.838781595891646
 20
9.18345199013712
 30
0.0
  0
VERTEX
  8
0
 10
53.98972027094852
 20
13.252297559452916
 30
0.0
  0
VERTEX
  8
0
 10
57.0943844257345
 20
16.95229221971758
 30
0.0
  0
VERTEX
  8
0
 10
61.94344575067763
 20
12.883446650401785
 30
0.0
  0
SEQEND
  0
POLYLINE
  8
0
 66
1
 10
0.0
 20
0.0
 30
0.0
 70
8
  0
VERTEX
  8
0
 10
65.472726473302
 20
-3.6169112902516845
 30
0.0
  0
VERTEX
  8
0
 10
68.57739062808798
 20
-7.3169059505163485
 30
0.0
  0
VERTEX
  8
0
 10
63.728329303144854
 20
-11.38575151983214
 30
0.0
  0
VERTEX
  8
0
 10
60.62366514835887
 20
-7.685756859567476
 30
0.0
  0
VERTEX
  8
0
 10
65.472726473302
 20
-3.616911290251683
 30
0.0
  0
SEQEND
  0
POLYLINE
  8
0
 66
1
 10
0.0
 20
0.0
 30
0.0
 70
8
  0
VERTEX
  8
0
 10
58.83878159589165
 20
-9.183451990137115
 30
0.0
  0
VERTEX
  8
0
 10
61.94344575067764
 20
-12.88344665040178
 30
0.0
  0
VERTEX
  8
0
 10
57.09438442573451
 20
-16.952292219717574
 30
0.0
  0
VERTEX
  8
0
 10
53.989720270948524
 20
-13.25229755945291
 30
0.0
  0
VERTEX
  8
0
 10
58.83878159589165
 20
-9.183451990137115
 30
0.0
  0
SEQEND
  0
POLYLINE
  8
0
 66
1
 10
0.0
 20
0.0
 30
0.0
 70
8
  0
VERTEX
  8
0
 10
78.5031424507558
 20
-7.3169059505163485
 30
0.0
  0
VERTEX
  8
0
 10
81.60780660554178
 20
-3.6169112902516845
 30
0.0
  0
VERTEX
  8
0
 10
86.45686793048492
 20
-7.685756859567478
 30
0.0
  0
VERTEX
  8
0
 10
83.35220377569894
 20
-11.385751519832143
 30
0.0
  0
VERTEX
  8
0
 10
78.5031424507558
 20
-7.316905950516348
 30
0.0
  0
SEQEND
  0
POLYLINE
  8
0
 66
1
 10
0.0
 20
0.0
 30
0.0
 70
8
  0
VERTEX
  8
0
 10
85.13708732816615
 20
-12.88344665040178
 30
0.0
  0
VERTEX
  8
0
 10
88.24175148295213
 20
-9.183451990137115
 30
0.0
  0
VERTEX
  8
0
 10
93.09081280789526
 20
-13.25229755945291
 30
0.0
  0
VERTEX
  8
0
 10
89.98614865310928
 20
-16.952292219717574
 30
0.0
  0
VERTEX
  8
0
 10
85.13708732816615
 20
-12.88344665040178
 30
0.0
  0
SEQEND
  0
POLYLINE
  8
0
 66
1
 10
0.0
 20
0.0
 30
0.0
 70
8
  0
VERTEX
  8
0
 10
139.58553307884378
 20
-2.415
 30
0.0
  0
VERTEX
  8
0
 10
139.58553307884378
 20
2.415
 30
0.0
  0
VERTEX
  8
0
 10
145.9155330788438
 20
2.415
 30
0.0
  0
VERTEX
  8
0
 10
145.9155330788438
 20
-2.415
 30
0.0
  0
VERTEX
  8
0
 10
139.58553307884378
 20
-2.414999999999999
 30
0.0
  0
SEQEND
  0
POLYLINE
  8
0
 66
1
 10
0.0
 20
0.0
 30
0.0
 70
8
  0
VERTEX
  8
0
 10
148.24553307884378
 20
-2.415
 30
0.0
  0
VERTEX
  8
0
 10
148.24553307884378
 20
2.415
 30
0.0
  0
VERTEX
  8
0
 10
154.5755330788438
 20
2.415
 30
0.0
  0
VERTEX
  8
0
 10
154.5755330788438
 20
-2.415
 30
0.0
  0
VERTEX
  8
0
 10
148.24553307884378
 20
-2.414999999999999
 30
0.0
  0
SEQEND
  0
POLYLINE
  8
0
 66
1
 10
0.0
 20
0.0
 30
0.0
 70
8
  0
VERTEX
  8
0
 10
130.63465096515637
 20
3.6169112902516845
 30
0.0
  0
VERTEX
  8
0
 10
127.52998681037039
 20
7.3169059505163485
 30
0.0
  0
VERTEX
  8
0
 10
132.37904813531352
 20
11.38575151983214
 30
0.0
  0
VERTEX
  8
0
 10
135.4837122900995
 20
7.685756859567476
 30
0.0
  0
VERTEX
  8
0
 10
130.63465096515637
 20
3.616911290251683
 30
0.0
  0
SEQEND
  0
POLYLINE
  8
0
 66
1
 10
0.0
 20
0.0
 30
0.0
 70
8
  0
VERTEX
  8
0
 10
137.26859584256673
 20
9.183451990137115
 30
0.0
  0
VERTEX
  8
0
 10
134.16393168778075
 20
12.88344665040178
 30
0.0
  0
VERTEX
  8
0
 10
139.01299301272388
 20
16.952292219717574
 30
0.0
  0
VERTEX
  8
0
 10
142.11765716750986
 20
13.25229755945291
 30
0.0
  0
VERTEX
  8
0
 10
137.26859584256673
 20
9.183451990137115
 30
0.0
  0
SEQEND
  0
POLYLINE
  8
0
 66
1
 10
0.0
 20
0.0
 30
0.0
 70
8
  0
VERTEX
  8
0
 10
117.60423498770257
 20
7.31690595051635
 30
0.0
  0
VERTEX
  8
0
 10
114.49957083291659
 20
3.616911290251687
 30
0.0
  0
VERTEX
  8
0
 10
109.65050950797345
 20
7.685756859567482
 30
0.0
  0
VERTEX
  8
0
 10
112.75517366275943
 20
11.385751519832146
 30
0.0
  0
VERTEX
  8
0
 10
117.60423498770257
 20
7.31690595051635
 30
0.0
  0
SEQEND
  0
POLYLINE
  8
0
 66
1
 10
0.0
 20
0.0
 30
0.0
 70
8
  0
VERTEX
  8
0
 10
110.97029011029223
 20
12.883446650401783
 30
0.0
  0
VERTEX
  8
0
 10
107.86562595550625
 20
9.18345199013712
 30
0.0
  0
VERTEX
  8
0
 10
103.01656463056311
 20
13.252297559452916
 30
0.0
  0
VERTEX
  8
0
 10
106.12122878534909
 20
16.95229221971758
 30
0.0
  0
VERTEX
  8
0
 10
110.97029011029221
 20
12.883446650401785
 30
0.0
  0
SEQEND
  0
POLYLINE
  8
0
 66
1
 10
0.0
 20
0.0
 30
0.0
 70
8
  0
VERTEX
  8
0
 10
114.49957083291659
 20
-3.6169112902516845
 30
0.0
  0
VERTEX
  8
0
 10
117.60423498770257
 20
-7.3169059505163485
 30
0.0
  0
VERTEX
  8
0
 10
112.75517366275943
 20
-11.38575151983214
 30
0.0
  0
VERTEX
  8
0
 10
109.65050950797345
 20
-7.685756859567476
 30
0.0
  0
VERTEX
  8
0
 10
114.49957083291659
 20
-3.616911290251683
 30
0.0
  0
SEQEND
  0
POLYLINE
  8
0
 66
1
 10
0.0
 20
0.0
 30
0.0
 70
8
  0
VERTEX
  8
0
 10
107.86562595550625
 20
-9.183451990137115
 30
0.0
  0
VERTEX
  8
0
 10
110.97029011029223
 20
-12.88344665040178
 30
0.0
  0
VERTEX
  8
0
 10
106.12122878534909
 20
-16.952292219717574
 30
0.0
  0
VERTEX
  8
0
 10
103.01656463056311
 20
-13.25229755945291
 30
0.0
  0
VERTEX
  8
0
 10
107.86562595550625
 20
-9.183451990137115
 30
0.0
  0
SEQEND
  0
POLYLINE
  8
0
 66
1
 10
0.0
 20
0.0
 30
0.0
 70
8
  0
VERTEX
  8
0
 10
127.52998681037039
 20
-7.3169059505163485
 30
0.0
  0
VERTEX
  8
0
 10
130.63465096515637
 20
-3.6169112902516845
 30
0.0
  0
VERTEX
  8
0
 10
135.4837122900995
 20
-7.685756859567478
 30
0.0
  0
VERTEX
  8
0
 10
132.37904813531352
 20
-11.385751519832143
 30
0.0
  0
VERTEX
  8
0
 10
127.52998681037039
 20
-7.316905950516348
 30
0.0
  0
SEQEND
  0
POLYLINE
  8
0
 66
1
 10
0.0
 20
0.0
 30
0.0
 70
8
  0
VERTEX
  8
0
 10
134.16393168778075
 20
-12.88344665040178
 30
0.0
  0
VERTEX
  8
0
 10
137.26859584256673
 20
-9.183451990137115
 30
0.0
  0
VERTEX
  8
0
 10
142.11765716750986
 20
-13.25229755945291
 30
0.0
  0
VERTEX
  8
0
 10
139.01299301272388
 20
-16.952292219717574
 30
0.0
  0
VERTEX
  8
0
 10
134.16393168778075
 20
-12.88344665040178
 30
0.0
  0
SEQEND
  0
POLYLINE
  8
0
 66
1
 10
0.0
 20
0.0
 30
0.0
 70
8
  0
VERTEX
  8
0
 10
17.018422179807295
 20
-22.984203509969255
 30
0.0
  0
VERTEX
  8
0
 10
17.018422179807295
 20
-18.154203509969257
 30
0.0
  0
VERTEX
  8
0
 10
23.348422179807294
 20
-18.154203509969257
 30
0.0
  0
VERTEX
  8
0
 10
23.348422179807294
 20
-22.984203509969255
 30
0.0
  0
VERTEX
  8
0
 10
17.018422179807295
 20
-22.984203509969255
 30
0.0
  0
SEQEND
  0
POLYLINE
  8
0
 66
1
 10
0.0
 20
0.0
 30
0.0
 70
8
  0
VERTEX
  8
0
 10
25.678422179807296
 20
-22.984203509969255
 30
0.0
  0
VERTEX
  8
0
 10
25.678422179807296
 20
-18.154203509969257
 30
0.0
  0
VERTEX
  8
0
 10
32.0084221798073
 20
-18.154203509969257
 30
0.0
  0
VERTEX
  8
0
 10
32.0084221798073
 20
-22.984203509969255
 30
0.0
  0
VERTEX
  8
0
 10
25.6784221798073
 20
-22.984203509969255
 30
0.0
  0
SEQEND
  0
POLYLINE
  8
0
 66
1
 10
0.0
 20
0.0
 30
0.0
 70
8
  0
VERTEX
  8
0
 10
-4.9628759113339145
 20
-13.252297559452906
 30
0.0
  0
VERTEX
  8
0
 10
-8.0675400661199
 20
-16.95229221971757
 30
0.0
  0
VERTEX
  8
0
 10
-12.916601391063029
 20
-12.883446650401776
 30
0.0
  0
VERTEX
  8
0
 10
-9.811937236277045
 20
-9.183451990137112
 30
0.0
  0
VERTEX
  8
0
 10
-4.962875911333915
 20
-13.252297559452908
 30
0.0
  0
SEQEND
  0
POLYLINE
  8
0
 66
1
 10
0.0
 20
0.0
 30
0.0
 70
8
  0
VERTEX
  8
0
 10
-11.596820788744264
 20
-7.685756859567474
 30
0.0
  0
VERTEX
  8
0
 10
-14.70148494353025
 20
-11.385751519832137
 30
0.0
  0
VERTEX
  8
0
 10
-19.55054626847338
 20
-7.316905950516342
 30
0.0
  0
VERTEX
  8
0
 10
-16.445882113687393
 20
-3.6169112902516782
 30
0.0
  0
VERTEX
  8
0
 10
-11.596820788744264
 20
-7.685756859567475
 30
0.0
  0
SEQEND
  0
POLYLINE
  8
0
 66
1
 10
0.0
 20
0.0
 30
0.0
 70
8
  0
VERTEX
  8
0
 10
-17.018422179807295
 20
-18.154203509969253
 30
0.0
  0
VERTEX
  8
0
 10
-17.018422179807295
 20
-22.984203509969255
 30
0.0
  0
VERTEX
  8
0
 10
-23.348422179807294
 20
-22.984203509969255
 30
0.0
  0
VERTEX
  8
0
 10
-23.348422179807294
 20
-18.154203509969257
 30
0.0
  0
VERTEX
  8
0
 10
-17.018422179807295
 20
-18.154203509969257
 30
0.0
  0
SEQEND
  0
POLYLINE
  8
0
 66
1
 10
0.0
 20
0.0
 30
0.0
 70
8
  0
VERTEX
  8
0
 10
-25.678422179807296
 20
-18.154203509969253
 30
0.0
  0
VERTEX
  8
0
 10
-25.678422179807296
 20
-22.984203509969255
 30
0.0
  0
VERTEX
  8
0
 10
-32.0084221798073
 20
-22.984203509969255
 30
0.0
  0
VERTEX
  8
0
 10
-32.0084221798073
 20
-18.154203509969257
 30
0.0
  0
VERTEX
  8
0
 10
-25.6784221798073
 20
-18.154203509969257
 30
0.0
  0
SEQEND
  0
POLYLINE
  8
0
 66
1
 10
0.0
 20
0.0
 30
0.0
 70
8
  0
VERTEX
  8
0
 10
-8.0675400661199
 20
-24.18611480022094
 30
0.0
  0
VERTEX
  8
0
 10
-4.962875911333915
 20
-27.886109460485603
 30
0.0
  0
VERTEX
  8
0
 10
-9.811937236277046
 20
-31.954955029801397
 30
0.0
  0
VERTEX
  8
0
 10
-12.91660139106303
 20
-28.254960369536732
 30
0.0
  0
VERTEX
  8
0
 10
-8.0675400661199
 20
-24.18611480022094
 30
0.0
  0
SEQEND
  0
POLYLINE
  8
0
 66
1
 10
0.0
 20
0.0
 30
0.0
 70
8
  0
VERTEX
  8
0
 10
-14.70148494353025
 20
-29.752655500106368
 30
0.0
  0
VERTEX
  8
0
 10
-11.596820788744266
 20
-33.452650160371036
 30
0.0
  0
VERTEX
  8
0
 10
-16.445882113687396
 20
-37.521495729686826
 30
0.0
  0
VERTEX
  8
0
 10
-19.550546268473383
 20
-33.82150106942216
 30
0.0
  0
VERTEX
  8
0
 10
-14.70148494353025
 20
-29.752655500106368
 30
0.0
  0
SEQEND
  0
POLYLINE
  8
0
 66
1
 10
0.0
 20
0.0
 30
0.0
 70
8
  0
VERTEX
  8
0
 10
4.962875911333915
 20
-27.886109460485603
 30
0.0
  0
VERTEX
  8
0
 10
8.0675400661199
 20
-24.18611480022094
 30
0.0
  0
VERTEX
  8
0
 10
12.91660139106303
 20
-28.254960369536732
 30
0.0
  0
VERTEX
  8
0
 10
9.811937236277046
 20
-31.954955029801397
 30
0.0
  0
VERTEX
  8
0
 10
4.962875911333916
 20
-27.886109460485603
 30
0.0
  0
SEQEND
  0
POLYLINE
  8
0
 66
1
 10
0.0
 20
0.0
 30
0.0
 70
8
  0
VERTEX
  8
0
 10
11.596820788744264
 20
-33.452650160371036
 30
0.0
  0
VERTEX
  8
0
 10
14.701484943530248
 20
-29.75265550010637
 30
0.0
  0
VERTEX
  8
0
 10
19.55054626847338
 20
-33.82150106942216
 30
0.0
  0
VERTEX
  8
0
 10
16.445882113687393
 20
-37.521495729686826
 30
0.0
  0
VERTEX
  8
0
 10
11.596820788744264
 20
-33.45265016037103
 30
0.0
  0
SEQEND
  0
POLYLINE
  8
0
 66
1
 10
0.0
 20
0.0
 30
0.0
 70
8
  0
VERTEX
  8
0
 10
66.04526653942189
 20
-22.984203509969255
 30
0.0
  0
VERTEX
  8
0
 10
66.04526653942189
 20
-18.154203509969257
 30
0.0
  0
VERTEX
  8
0
 10
72.37526653942189
 20
-18.154203509969257
 30
0.0
  0
VERTEX
  8
0
 10
72.37526653942189
 20
-22.984203509969255
 30
0.0
  0
VERTEX
  8
0
 10
66.04526653942189
 20
-22.984203509969255
 30
0.0
  0
SEQEND
  0
POLYLINE
  8
0
 66
1
 10
0.0
 20
0.0
 30
0.0
 70
8
  0
VERTEX
  8
0
 10
74.70526653942188
 20
-22.984203509969255
 30
0.0
  0
VERTEX
  8
0
 10
74.70526653942188
 20
-18.154203509969257
 30
0.0
  0
VERTEX
  8
0
 10
81.03526653942188
 20
-18.154203509969257
 30
0.0
  0
VERTEX
  8
0
 10
81.03526653942188
 20
-22.984203509969255
 30
0.0
  0
VERTEX
  8
0
 10
74.70526653942188
 20
-22.984203509969255
 30
0.0
  0
SEQEND
  0
POLYLINE
  8
0
 66
1
 10
0.0
 20
0.0
 30
0.0
 70
8
  0
VERTEX
  8
0
 10
40.9593042934947
 20
-24.18611480022094
 30
0.0
  0
VERTEX
  8
0
 10
44.06396844828068
 20
-27.886109460485603
 30
0.0
  0
VERTEX
  8
0
 10
39.214907123337554
 20
-31.954955029801397
 30
0.0
  0
VERTEX
  8
0
 10
36.11024296855157
 20
-28.254960369536732
 30
0.0
  0
VERTEX
  8
0
 10
40.9593042934947
 20
-24.18611480022094
 30
0.0
  0
SEQEND
  0
POLYLINE
  8
0
 66
1
 10
0.0
 20
0.0
 30
0.0
 70
8
  0
VERTEX
  8
0
 10
34.325359416084346
 20
-29.752655500106368
 30
0.0
  0
VERTEX
  8
0
 10
37.43002357087033
 20
-33.452650160371036
 30
0.0
  0
VERTEX
  8
0
 10
32.5809622459272
 20
-37.521495729686826
 30
0.0
  0
VERTEX
  8
0
 10
29.476298091141217
 20
-33.82150106942216
 30
0.0
  0
VERTEX
  8
0
 10
34.325359416084346
 20
-29.752655500106368
 30
0.0
  0
SEQEND
  0
POLYLINE
  8
0
 66
1
 10
0.0
 20
0.0
 30
0.0
 70
8
  0
VERTEX
  8
0
 10
53.98972027094851
 20
-27.886109460485603
 30
0.0
  0
VERTEX
  8
0
 10
57.094384425734496
 20
-24.18611480022094
 30
0.0
  0
VERTEX
  8
0
 10
61.943445750677625
 20
-28.254960369536732
 30
0.0
  0
VERTEX
  8
0
 10
58.83878159589164
 20
-31.954955029801397
 30
0.0
  0
VERTEX
  8
0
 10
53.98972027094851
 20
-27.886109460485603
 30
0.0
  0
SEQEND
  0
POLYLINE
  8
0
 66
1
 10
0.0
 20
0.0
 30
0.0
 70
8
  0
VERTEX
  8
0
 10
60.62366514835886
 20
-33.452650160371036
 30
0.0
  0
VERTEX
  8
0
 10
63.72832930314485
 20
-29.75265550010637
 30
0.0
  0
VERTEX
  8
0
 10
68.57739062808798
 20
-33.82150106942216
 30
0.0
  0
VERTEX
  8
0
 10
65.472726473302
 20
-37.521495729686826
 30
0.0
  0
VERTEX
  8
0
 10
60.623665148358874
 20
-33.45265016037103
 30
0.0
  0
SEQEND
  0
POLYLINE
  8
0
 66
1
 10
0.0
 20
0.0
 30
0.0
 70
8
  0
VERTEX
  8
0
 10
115.07211089903649
 20
-22.984203509969255
 30
0.0
  0
VERTEX
  8
0
 10
115.07211089903649
 20
-18.154203509969257
 30
0.0
  0
VERTEX
  8
0
 10
121.40211089903649
 20
-18.154203509969257
 30
0.0
  0
VERTEX
  8
0
 10
121.40211089903649
 20
-22.984203509969255
 30
0.0
  0
VERTEX
  8
0
 10
115.07211089903649
 20
-22.984203509969255
 30
0.0
  0
SEQEND
  0
POLYLINE
  8
0
 66
1
 10
0.0
 20
0.0
 30
0.0
 70
8
  0
VERTEX
  8
0
 10
123.73211089903648
 20
-22.984203509969255
 30
0.0
  0
VERTEX
  8
0
 10
123.73211089903648
 20
-18.154203509969257
 30
0.0
  0
VERTEX
  8
0
 10
130.0621108990365
 20
-18.154203509969257
 30
0.0
  0
VERTEX
  8
0
 10
130.0621108990365
 20
-22.984203509969255
 30
0.0
  0
VERTEX
  8
0
 10
123.7321108990365
 20
-22.984203509969255
 30
0.0
  0
SEQEND
  0
POLYLINE
  8
0
 66
1
 10
0.0
 20
0.0
 30
0.0
 70
8
  0
VERTEX
  8
0
 10
89.9861486531093
 20
-24.18611480022094
 30
0.0
  0
VERTEX
  8
0
 10
93.09081280789528
 20
-27.886109460485603
 30
0.0
  0
VERTEX
  8
0
 10
88.24175148295214
 20
-31.954955029801397
 30
0.0
  0
VERTEX
  8
0
 10
85.13708732816616
 20
-28.254960369536732
 30
0.0
  0
VERTEX
  8
0
 10
89.9861486531093
 20
-24.18611480022094
 30
0.0
  0
SEQEND
  0
POLYLINE
  8
0
 66
1
 10
0.0
 20
0.0
 30
0.0
 70
8
  0
VERTEX
  8
0
 10
83.35220377569895
 20
-29.752655500106368
 30
0.0
  0
VERTEX
  8
0
 10
86.45686793048493
 20
-33.452650160371036
 30
0.0
  0
VERTEX
  8
0
 10
81.6078066055418
 20
-37.521495729686826
 30
0.0
  0
VERTEX
  8
0
 10
78.50314245075582
 20
-33.82150106942216
 30
0.0
  0
VERTEX
  8
0
 10
83.35220377569895
 20
-29.752655500106368
 30
0.0
  0
SEQEND
  0
POLYLINE
  8
0
 66
1
 10
0.0
 20
0.0
 30
0.0
 70
8
  0
VERTEX
  8
0
 10
103.0165646305631
 20
-27.886109460485603
 30
0.0
  0
VERTEX
  8
0
 10
106.12122878534907
 20
-24.18611480022094
 30
0.0
  0
VERTEX
  8
0
 10
110.97029011029221
 20
-28.254960369536732
 30
0.0
  0
VERTEX
  8
0
 10
107.86562595550623
 20
-31.954955029801397
 30
0.0
  0
VERTEX
  8
0
 10
103.0165646305631
 20
-27.886109460485603
 30
0.0
  0
SEQEND
  0
POLYLINE
  8
0
 66
1
 10
0.0
 20
0.0
 30
0.0
 70
8
  0
VERTEX
  8
0
 10
109.65050950797344
 20
-33.452650160371036
 30
0.0
  0
VERTEX
  8
0
 10
112.75517366275942
 20
-29.75265550010637
 30
0.0
  0
VERTEX
  8
0
 10
117.60423498770255
 20
-33.82150106942216
 30
0.0
  0
VERTEX
  8
0
 10
114.49957083291658
 20
-37.521495729686826
 30
0.0
  0
VERTEX
  8
0
 10
109.65050950797344
 20
-33.45265016037103
 30
0.0
  0
SEQEND
  0
POLYLINE
  8
0
 66
1
 10
0.0
 20
0.0
 30
0.0
 70
8
  0
VERTEX
  8
0
 10
41.531844359614595
 20
-43.55340701993851
 30
0.0
  0
VERTEX
  8
0
 10
41.531844359614595
 20
-38.72340701993851
 30
0.0
  0
VERTEX
  8
0
 10
47.861844359614594
 20
-38.72340701993851
 30
0.0
  0
VERTEX
  8
0
 10
47.861844359614594
 20
-43.55340701993851
 30
0.0
  0
VERTEX
  8
0
 10
41.531844359614595
 20
-43.55340701993851
 30
0.0
  0
SEQEND
  0
POLYLINE
  8
0
 66
1
 10
0.0
 20
0.0
 30
0.0
 70
8
  0
VERTEX
  8
0
 10
50.19184435961459
 20
-43.55340701993851
 30
0.0
  0
VERTEX
  8
0
 10
50.19184435961459
 20
-38.72340701993851
 30
0.0
  0
VERTEX
  8
0
 10
56.52184435961459
 20
-38.72340701993851
 30
0.0
  0
VERTEX
  8
0
 10
56.52184435961459
 20
-43.55340701993851
 30
0.0
  0
VERTEX
  8
0
 10
50.19184435961459
 20
-43.55340701993851
 30
0.0
  0
SEQEND
  0
POLYLINE
  8
0
 66
1
 10
0.0
 20
0.0
 30
0.0
 70
8
  0
VERTEX
  8
0
 10
7.495000000000001
 20
-38.72340701993851
 30
0.0
  0
VERTEX
  8
0
 10
7.495
 20
-43.55340701993851
 30
0.0
  0
VERTEX
  8
0
 10
1.165
 20
-43.55340701993851
 30
0.0
  0
VERTEX
  8
0
 10
1.1650000000000003
 20
-38.72340701993851
 30
0.0
  0
VERTEX
  8
0
 10
7.495
 20
-38.72340701993851
 30
0.0
  0
SEQEND
  0
POLYLINE
  8
0
 66
1
 10
0.0
 20
0.0
 30
0.0
 70
8
  0
VERTEX
  8
0
 10
-1.1649999999999991
 20
-38.72340701993851
 30
0.0
  0
VERTEX
  8
0
 10
-1.165
 20
-43.55340701993851
 30
0.0
  0
VERTEX
  8
0
 10
-7.495
 20
-43.55340701993851
 30
0.0
  0
VERTEX
  8
0
 10
-7.495
 20
-38.72340701993851
 30
0.0
  0
VERTEX
  8
0
 10
-1.165
 20
-38.72340701993851
 30
0.0
  0
SEQEND
  0
POLYLINE
  8
0
 66
1
 10
0.0
 20
0.0
 30
0.0
 70
8
  0
VERTEX
  8
0
 10
16.445882113687396
 20
-44.7553183101902
 30
0.0
  0
VERTEX
  8
0
 10
19.550546268473383
 20
-48.45531297045486
 30
0.0
  0
VERTEX
  8
0
 10
14.701484943530252
 20
-52.52415853977065
 30
0.0
  0
VERTEX
  8
0
 10
11.596820788744267
 20
-48.82416387950599
 30
0.0
  0
VERTEX
  8
0
 10
16.4458821136874
 20
-44.7553183101902
 30
0.0
  0
SEQEND
  0
POLYLINE
  8
0
 66
1
 10
0.0
 20
0.0
 30
0.0
 70
8
  0
VERTEX
  8
0
 10
9.811937236277046
 20
-50.32185901007563
 30
0.0
  0
VERTEX
  8
0
 10
12.91660139106303
 20
-54.02185367034029
 30
0.0
  0
VERTEX
  8
0
 10
8.0675400661199
 20
-58.09069923965608
 30
0.0
  0
VERTEX
  8
0
 10
4.962875911333915
 20
-54.39070457939142
 30
0.0
  0
VERTEX
  8
0
 10
9.811937236277046
 20
-50.32185901007563
 30
0.0
  0
SEQEND
  0
POLYLINE
  8
0
 66
1
 10
0.0
 20
0.0
 30
0.0
 70
8
  0
VERTEX
  8
0
 10
29.47629809114121
 20
-48.45531297045486
 30
0.0
  0
VERTEX
  8
0
 10
32.580962245927196
 20
-44.7553183101902
 30
0.0
  0
VERTEX
  8
0
 10
37.430023570870325
 20
-48.82416387950599
 30
0.0
  0
VERTEX
  8
0
 10
34.32535941608434
 20
-52.52415853977065
 30
0.0
  0
VERTEX
  8
0
 10
29.47629809114121
 20
-48.455312970454855
 30
0.0
  0
SEQEND
  0
POLYLINE
  8
0
 66
1
 10
0.0
 20
0.0
 30
0.0
 70
8
  0
VERTEX
  8
0
 10
36.11024296855156
 20
-54.02185367034029
 30
0.0
  0
VERTEX
  8
0
 10
39.21490712333755
 20
-50.32185901007563
 30
0.0
  0
VERTEX
  8
0
 10
44.063968448280676
 20
-54.39070457939142
 30
0.0
  0
VERTEX
  8
0
 10
40.95930429349469
 20
-58.09069923965608
 30
0.0
  0
VERTEX
  8
0
 10
36.11024296855156
 20
-54.021853670340285
 30
0.0
  0
SEQEND
  0
POLYLINE
  8
0
 66
1
 10
0.0
 20
0.0
 30
0.0
 70
8
  0
VERTEX
  8
0
 10
90.5586887192292
 20
-43.55340701993851
 30
0.0
  0
VERTEX
  8
0
 10
90.5586887192292
 20
-38.72340701993851
 30
0.0
  0
VERTEX
  8
0
 10
96.8886887192292
 20
-38.72340701993851
 30
0.0
  0
VERTEX
  8
0
 10
96.8886887192292
 20
-43.55340701993851
 30
0.0
  0
VERTEX
  8
0
 10
90.5586887192292
 20
-43.55340701993851
 30
0.0
  0
SEQEND
  0
POLYLINE
  8
0
 66
1
 10
0.0
 20
0.0
 30
0.0
 70
8
  0
VERTEX
  8
0
 10
99.21868871922919
 20
-43.55340701993851
 30
0.0
  0
VERTEX
  8
0
 10
99.21868871922919
 20
-38.72340701993851
 30
0.0
  0
VERTEX
  8
0
 10
105.54868871922919
 20
-38.72340701993851
 30
0.0
  0
VERTEX
  8
0
 10
105.54868871922919
 20
-43.55340701993851
 30
0.0
  0
VERTEX
  8
0
 10
99.21868871922919
 20
-43.55340701993851
 30
0.0
  0
SEQEND
  0
POLYLINE
  8
0
 66
1
 10
0.0
 20
0.0
 30
0.0
 70
8
  0
VERTEX
  8
0
 10
65.472726473302
 20
-44.7553183101902
 30
0.0
  0
VERTEX
  8
0
 10
68.57739062808798
 20
-48.45531297045486
 30
0.0
  0
VERTEX
  8
0
 10
63.728329303144854
 20
-52.52415853977065
 30
0.0
  0
VERTEX
  8
0
 10
60.62366514835887
 20
-48.82416387950599
 30
0.0
  0
VERTEX
  8
0
 10
65.472726473302
 20
-44.7553183101902
 30
0.0
  0
SEQEND
  0
POLYLINE
  8
0
 66
1
 10
0.0
 20
0.0
 30
0.0
 70
8
  0
VERTEX
  8
0
 10
58.83878159589165
 20
-50.32185901007563
 30
0.0
  0
VERTEX
  8
0
 10
61.94344575067764
 20
-54.02185367034029
 30
0.0
  0
VERTEX
  8
0
 10
57.09438442573451
 20
-58.09069923965608
 30
0.0
  0
VERTEX
  8
0
 10
53.989720270948524
 20
-54.39070457939142
 30
0.0
  0
VERTEX
  8
0
 10
58.83878159589165
 20
-50.32185901007563
 30
0.0
  0
SEQEND
  0
POLYLINE
  8
0
 66
1
 10
0.0
 20
0.0
 30
0.0
 70
8
  0
VERTEX
  8
0
 10
78.5031424507558
 20
-48.45531297045486
 30
0.0
  0
VERTEX
  8
0
 10
81.60780660554178
 20
-44.7553183101902
 30
0.0
  0
VERTEX
  8
0
 10
86.45686793048492
 20
-48.82416387950599
 30
0.0
  0
VERTEX
  8
0
 10
83.35220377569894
 20
-52.52415853977065
 30
0.0
  0
VERTEX
  8
0
 10
78.5031424507558
 20
-48.455312970454855
 30
0.0
  0
SEQEND
  0
POLYLINE
  8
0
 66
1
 10
0.0
 20
0.0
 30
0.0
 70
8
  0
VERTEX
  8
0
 10
85.13708732816615
 20
-54.02185367034029
 30
0.0
  0
VERTEX
  8
0
 10
88.24175148295213
 20
-50.32185901007563
 30
0.0
  0
VERTEX
  8
0
 10
93.09081280789526
 20
-54.39070457939142
 30
0.0
  0
VERTEX
  8
0
 10
89.98614865310928
 20
-58.09069923965608
 30
0.0
  0
VERTEX
  8
0
 10
85.13708732816615
 20
-54.021853670340285
 30
0.0
  0
SEQEND
  0
POLYLINE
  8
0
 66
1
 10
0.0
 20
0.0
 30
0.0
 70
8
  0
VERTEX
  8
0
 10
139.58553307884378
 20
-43.55340701993851
 30
0.0
  0
VERTEX
  8
0
 10
139.58553307884378
 20
-38.72340701993851
 30
0.0
  0
VERTEX
  8
0
 10
145.9155330788438
 20
-38.72340701993851
 30
0.0
  0
VERTEX
  8
0
 10
145.9155330788438
 20
-43.55340701993851
 30
0.0
  0
VERTEX
  8
0
 10
139.58553307884378
 20
-43.55340701993851
 30
0.0
  0
SEQEND
  0
POLYLINE
  8
0
 66
1
 10
0.0
 20
0.0
 30
0.0
 70
8
  0
VERTEX
  8
0
 10
148.24553307884378
 20
-43.55340701993851
 30
0.0
  0
VERTEX
  8
0
 10
148.24553307884378
 20
-38.72340701993851
 30
0.0
  0
VERTEX
  8
0
 10
154.5755330788438
 20
-38.72340701993851
 30
0.0
  0
VERTEX
  8
0
 10
154.5755330788438
 20
-43.55340701993851
 30
0.0
  0
VERTEX
  8
0
 10
148.24553307884378
 20
-43.55340701993851
 30
0.0
  0
SEQEND
  0
POLYLINE
  8
0
 66
1
 10
0.0
 20
0.0
 30
0.0
 70
8
  0
VERTEX
  8
0
 10
130.63465096515637
 20
-37.521495729686826
 30
0.0
  0
VERTEX
  8
0
 10
127.52998681037039
 20
-33.82150106942216
 30
0.0
  0
VERTEX
  8
0
 10
132.37904813531352
 20
-29.752655500106368
 30
0.0
  0
VERTEX
  8
0
 10
135.4837122900995
 20
-33.45265016037103
 30
0.0
  0
VERTEX
  8
0
 10
130.63465096515637
 20
-37.52149572968682
 30
0.0
  0
SEQEND
  0
POLYLINE
  8
0
 66
1
 10
0.0
 20
0.0
 30
0.0
 70
8
  0
VERTEX
  8
0
 10
137.26859584256673
 20
-31.954955029801397
 30
0.0
  0
VERTEX
  8
0
 10
134.16393168778075
 20
-28.254960369536732
 30
0.0
  0
VERTEX
  8
0
 10
139.01299301272388
 20
-24.18611480022094
 30
0.0
  0
VERTEX
  8
0
 10
142.11765716750986
 20
-27.886109460485603
 30
0.0
  0
VERTEX
  8
0
 10
137.26859584256673
 20
-31.954955029801397
 30
0.0
  0
SEQEND
  0
POLYLINE
  8
0
 66
1
 10
0.0
 20
0.0
 30
0.0
 70
8
  0
VERTEX
  8
0
 10
114.49957083291659
 20
-44.7553183101902
 30
0.0
  0
VERTEX
  8
0
 10
117.60423498770257
 20
-48.45531297045486
 30
0.0
  0
VERTEX
  8
0
 10
112.75517366275943
 20
-52.52415853977065
 30
0.0
  0
VERTEX
  8
0
 10
109.65050950797345
 20
-48.82416387950599
 30
0.0
  0
VERTEX
  8
0
 10
114.49957083291659
 20
-44.7553183101902
 30
0.0
  0
SEQEND
  0
POLYLINE
  8
0
 66
1
 10
0.0
 20
0.0
 30
0.0
 70
8
  0
VERTEX
  8
0
 10
107.86562595550625
 20
-50.32185901007563
 30
0.0
  0
VERTEX
  8
0
 10
110.97029011029223
 20
-54.02185367034029
 30
0.0
  0
VERTEX
  8
0
 10
106.12122878534909
 20
-58.09069923965608
 30
0.0
  0
VERTEX
  8
0
 10
103.01656463056311
 20
-54.39070457939142
 30
0.0
  0
VERTEX
  8
0
 10
107.86562595550625
 20
-50.32185901007563
 30
0.0
  0
SEQEND
  0
POLYLINE
  8
0
 66
1
 10
0.0
 20
0.0
 30
0.0
 70
8
  0
VERTEX
  8
0
 10
127.52998681037039
 20
-48.45531297045486
 30
0.0
  0
VERTEX
  8
0
 10
130.63465096515637
 20
-44.7553183101902
 30
0.0
  0
VERTEX
  8
0
 10
135.4837122900995
 20
-48.82416387950599
 30
0.0
  0
VERTEX
  8
0
 10
132.37904813531352
 20
-52.52415853977065
 30
0.0
  0
VERTEX
  8
0
 10
127.52998681037039
 20
-48.455312970454855
 30
0.0
  0
SEQEND
  0
POLYLINE
  8
0
 66
1
 10
0.0
 20
0.0
 30
0.0
 70
8
  0
VERTEX
  8
0
 10
134.16393168778075
 20
-54.02185367034029
 30
0.0
  0
VERTEX
  8
0
 10
137.26859584256673
 20
-50.32185901007563
 30
0.0
  0
VERTEX
  8
0
 10
142.11765716750986
 20
-54.39070457939142
 30
0.0
  0
VERTEX
  8
0
 10
139.01299301272388
 20
-58.09069923965608
 30
0.0
  0
VERTEX
  8
0
 10
134.16393168778075
 20
-54.021853670340285
 30
0.0
  0
SEQEND
  0
ENDSEC
  0
EOF
