  0
SECTION
  2
HEADER
  9
$ACADVER
  1
AC1009
  9
$INSBASE
 10
0.0
 20
0.0
 30
0.0
  9
$EXTMIN
 10
0.0
 20
0.0
 30
0.0
  9
$EXTMAX
 10
100.0
 20
100.0
 30
0.0
  9
$UNITMODE
 70
0
  9
$AUNITS
 70
0
  9
$ANGBASE
 50
0.0
  9
$ANGDIR
 70
0
  0
ENDSEC
  0
SECTION
  2
TABLES
  0
TABLE
  2
LTYPE
 70
19
  0
LTYPE
  2
CONTINUOUS
 70
0
  3
Solid
 72
65
 73
0
 40
0.0
  0
LTYPE
  2
CENTER
 70
0
  3
Center ____ _ ____ _ ____ _ ____ _ ____ _ ____
 72
65
 73
4
 40
2.0
 49
1.25
 49
-0.25
 49
0.25
 49
-0.25
  0
LTYPE
  2
CENTERX2
 70
0
  3
Center (2x) ________  __  ________  __  ________
 72
65
 73
4
 40
3.5
 49
2.5
 49
-0.25
 49
0.5
 49
-0.25
  0
LTYPE
  2
CENTER2
 70
0
  3
Center (.5x) ____ _ ____ _ ____ _ ____ _ ____
 72
65
 73
4
 40
1.0
 49
0.625
 49
-0.125
 49
0.125
 49
-0.125
  0
LTYPE
  2
DASHED
 70
0
  3
Dashed __ __ __ __ __ __ __ __ __ __ __ __ __ _
 72
65
 73
2
 40
0.6
 49
0.5
 49
-0.1
  0
LTYPE
  2
DASHEDX2
 70
0
  3
Dashed (2x) ____  ____  ____  ____  ____  ____
 72
65
 73
2
 40
1.2
 49
1.0
 49
-0.2
  0
LTYPE
  2
DASHED2
 70
0
  3
Dashed (.5x) _ _ _ _ _ _ _ _ _ _ _ _ _ _
 72
65
 73
2
 40
0.3
 49
0.25
 49
-0.05
  0
LTYPE
  2
PHANTOM
 70
0
  3
Phantom ______  __  __  ______  __  __  ______
 72
65
 73
6
 40
2.5
 49
1.25
 49
-0.25
 49
0.25
 49
-0.25
 49
0.25
 49
-0.25
  0
LTYPE
  2
PHANTOMX2
 70
0
  3
Phantom (2x)____________    ____    ____    ____________
 72
65
 73
6
 40
4.25
 49
2.5
 49
-0.25
 49
0.5
 49
-0.25
 49
0.5
 49
-0.25
  0
LTYPE
  2
PHANTOM2
 70
0
  3
Phantom (.5x) ___ _ _ ___ _ _ ___ _ _ ___ _ _ ___
 72
65
 73
6
 40
1.25
 49
0.625
 49
-0.125
 49
0.125
 49
-0.125
 49
0.125
 49
-0.125
  0
LTYPE
  2
DASHDOT
 70
0
  3
Dash dot __ . __ . __ . __ . __ . __ . __ . __
 72
65
 73
4
 40
1.4
 49
1.0
 49
-0.2
 49
0.0
 49
-0.2
  0
LTYPE
  2
DASHDOTX2
 70
0
  3
Dash dot (2x) ____  .  ____  .  ____  .  ____
 72
65
 73
4
 40
2.4
 49
2.0
 49
-0.2
 49
0.0
 49
-0.2
  0
LTYPE
  2
DASHDOT2
 70
0
  3
Dash dot (.5x) _ . _ . _ . _ . _ . _ . _ . _
 72
65
 73
4
 40
0.7
 49
0.5
 49
-0.1
 49
0.0
 49
-0.1
  0
LTYPE
  2
DOT
 70
0
  3
Dot .  .  .  .  .  .  .  .  .  .  .  .  .  .  .  .
 72
65
 73
2
 40
0.2
 49
0.0
 49
-0.2
  0
LTYPE
  2
DOTX2
 70
0
  3
Dot (2x) .    .    .    .    .    .    .    . 
 72
65
 73
2
 40
0.4
 49
0.0
 49
-0.4
  0
LTYPE
  2
DOT2
 70
0
  3
Dot (.5) . . . . . . . . . . . . . . . . . . . 
 72
65
 73
2
 40
0.1
 49
0.0
 49
-0.1
  0
LTYPE
  2
DIVIDE
 70
0
  3
Divide __ . . __ . . __ . . __ . . __ . . __
 72
65
 73
6
 40
1.6
 49
1.0
 49
-0.2
 49
0.0
 49
-0.2
 49
0.0
 49
-0.2
  0
LTYPE
  2
DIVIDEX2
 70
0
  3
Divide (2x) ____  . .  ____  . .  ____  . .  ____
 72
65
 73
6
 40
2.6
 49
2.0
 49
-0.2
 49
0.0
 49
-0.2
 49
0.0
 49
-0.2
  0
LTYPE
  2
DIVIDE2
 70
0
  3
Divide(.5x) _ . _ . _ . _ . _ . _ . _ . _
 72
65
 73
6
 40
0.8
 49
0.5
 49
-0.1
 49
0.0
 49
-0.1
 49
0.0
 49
-0.1
  0
ENDTAB
  0
TABLE
  2
LAYER
 70
5
  0
LAYER
  2
DIMENSIONS
 70
0
 62
1
  6
CONTINUOUS
  0
LAYER
  2
TABLEBACKGROUND
 70
0
 62
1
  6
CONTINUOUS
  0
LAYER
  2
TABLECONTENT
 70
0
 62
1
  6
CONTINUOUS
  0
LAYER
  2
TABLEGRID
 70
0
 62
1
  6
CONTINUOUS
  0
LAYER
  2
VIEWPORTS
 70
0
 62
7
  6
CONTINUOUS
  0
ENDTAB
  0
TABLE
  2
STYLE
 70
12
  0
STYLE
  2
STANDARD
 70
0
 40
0.0
 41
1.0
 42
1.0
 50
0.0
 71
0
  3
arial.ttf
  4

  0
STYLE
  2
ARIAL
 70
0
 40
0.0
 41
1.0
 42
1.0
 50
0.0
 71
0
  3
arial.ttf
  4

  0
STYLE
  2
ARIAL_BOLD
 70
0
 40
0.0
 41
1.0
 42
1.0
 50
0.0
 71
0
  3
arialbd.ttf
  4

  0
STYLE
  2
ARIAL_ITALIC
 70
0
 40
0.0
 41
1.0
 42
1.0
 50
0.0
 71
0
  3
ariali.ttf
  4

  0
STYLE
  2
ARIAL_BOLD_ITALIC
 70
0
 40
0.0
 41
1.0
 42
1.0
 50
0.0
 71
0
  3
arialbi.ttf
  4

  0
STYLE
  2
ARIAL_BLACK
 70
0
 40
0.0
 41
1.0
 42
1.0
 50
0.0
 71
0
  3
ariblk.ttf
  4

  0
STYLE
  2
ISOCPEUR
 70
0
 40
0.0
 41
1.0
 42
1.0
 50
0.0
 71
0
  3
isocpeur.ttf
  4

  0
STYLE
  2
ISOCPEUR_ITALIC
 70
0
 40
0.0
 41
1.0
 42
1.0
 50
0.0
 71
0
  3
isocpeui.ttf
  4

  0
STYLE
  2
TIMES
 70
0
 40
0.0
 41
1.0
 42
1.0
 50
0.0
 71
0
  3
times.ttf
  4

  0
STYLE
  2
TIMES_BOLD
 70
0
 40
0.0
 41
1.0
 42
1.0
 50
0.0
 71
0
  3
timesbd.ttf
  4

  0
STYLE
  2
TIMES_ITALIC
 70
0
 40
0.0
 41
1.0
 42
1.0
 50
0.0
 71
0
  3
timesi.ttf
  4

  0
STYLE
  2
TIMES_BOLD_ITALIC
 70
0
 40
0.0
 41
1.0
 42
1.0
 50
0.0
 71
0
  3
timesbi.ttf
  4

  0
ENDTAB
  0
TABLE
  2
VIEW
 70
0
  0
ENDTAB
  0
TABLE
  2
APPID
 70
1
  0
APPID
  2
DXFWRITE
 70
0
  0
ENDTAB
  0
TABLE
  2
VPORT
 70
0
  0
ENDTAB
  0
TABLE
  2
UCS
 70
0
  0
ENDTAB
  0
ENDSEC
  0
SECTION
  2
BLOCKS
  0
ENDSEC
  0
SECTION
  2
ENTITIES
  0
VIEWPORT
  8
VIEWPORTS
 67
1
 10
0.0
 20
0.0
 30
0.0
 40
1.0
 41
1.0
 68
1
 69
1
1001
ACAD
1000
MVIEW
1002
{
1070
16
1010
0.0
1020
0.0
1030
0.0
1010
0.0
1020
0.0
1030
0.0
1040
0.0
1040
1.0
1040
0.0
1040
0.0
1040
50.0
1040
0.0
1040
0.0
1070
0
1070
100
1070
1
1070
3
1070
0
1070
0
1070
0
1070
0
1040
0.0
1040
0.0
1040
0.0
1040
0.1
1040
0.1
1040
0.1
1040
0.1
1070
0
1002
{
1002
}
1002
}
  0
LINE
  8
0
 10
16.500000000000004
 20
0.6
 30
0.0
 11
21.505000000000006
 21
0.6
 31
0.0
  0
LINE
  8
0
 10
41.500000000000014
 20
0.6
 30
0.0
 11
36.49500000000001
 21
0.5999999999999993
 31
0.0
  0
POLYLINE
  8
0
 66
1
 10
0.0
 20
0.0
 30
0.0
 70
8
  0
VERTEX
  8
0
 10
21.505000000000006
 20
0.6
 30
0.0
  0
VERTEX
  8
0
 10
21.505000000000006
 20
2.415
 30
0.0
  0
VERTEX
  8
0
 10
27.835000000000008
 20
2.415
 30
0.0
  0
VERTEX
  8
0
 10
27.835000000000008
 20
0.6000000000000001
 30
0.0
  0
VERTEX
  8
0
 10
30.165000000000006
 20
0.6000000000000001
 30
0.0
  0
SEQEND
  0
POLYLINE
  8
0
 66
1
 10
0.0
 20
0.0
 30
0.0
 70
8
  0
VERTEX
  8
0
 10
30.165000000000006
 20
0.6000000000000001
 30
0.0
  0
VERTEX
  8
0
 10
30.165000000000006
 20
2.415
 30
0.0
  0
VERTEX
  8
0
 10
36.495000000000005
 20
2.415
 30
0.0
  0
VERTEX
  8
0
 10
36.495000000000005
 20
0.6000000000000001
 30
0.0
  0
SEQEND
  0
LINE
  8
0
 10
16.500000000000004
 20
-0.6
 30
0.0
 11
21.505000000000006
 21
-0.6
 31
0.0
  0
LINE
  8
0
 10
41.500000000000014
 20
-0.6
 30
0.0
 11
36.49500000000001
 21
-0.6000000000000006
 31
0.0
  0
POLYLINE
  8
0
 66
1
 10
0.0
 20
0.0
 30
0.0
 70
8
  0
VERTEX
  8
0
 10
21.505000000000006
 20
-0.6
 30
0.0
  0
VERTEX
  8
0
 10
21.505000000000006
 20
-2.415
 30
0.0
  0
VERTEX
  8
0
 10
27.835000000000008
 20
-2.415
 30
0.0
  0
VERTEX
  8
0
 10
27.835000000000008
 20
-0.6000000000000001
 30
0.0
  0
VERTEX
  8
0
 10
30.165000000000006
 20
-0.6000000000000001
 30
0.0
  0
SEQEND
  0
POLYLINE
  8
0
 66
1
 10
0.0
 20
0.0
 30
0.0
 70
8
  0
VERTEX
  8
0
 10
30.165000000000006
 20
-0.6000000000000001
 30
0.0
  0
VERTEX
  8
0
 10
30.165000000000006
 20
-2.415
 30
0.0
  0
VERTEX
  8
0
 10
36.495000000000005
 20
-2.415
 30
0.0
  0
VERTEX
  8
0
 10
36.495000000000005
 20
-0.6000000000000001
 30
0.0
  0
SEQEND
  0
LINE
  8
0
 10
16.500000000000004
 20
-0.6
 30
0.0
 11
15.542173714778853
 21
-0.3126521144336546
 31
0.0
  0
LINE
  8
0
 10
16.500000000000004
 20
0.6
 30
0.0
 11
15.542173714778853
 21
0.3126521144336546
 31
0.0
  0
LINE
  8
0
 10
15.542173714778853
 20
-0.3126521144336546
 30
0.0
 11
15.542173714778853
 21
0.3126521144336546
 31
0.0
  0
LINE
  8
0
 10
14.98038475772934
 20
2.032050807568877
 30
0.0
 11
17.48288475772934
 21
6.366507953509991
 31
0.0
  0
LINE
  8
0
 10
27.480384757729343
 20
23.682685902179845
 30
0.0
 11
24.977884757729345
 21
19.34822875623873
 31
0.0
  0
POLYLINE
  8
0
 66
1
 10
0.0
 20
0.0
 30
0.0
 70
8
  0
VERTEX
  8
0
 10
17.48288475772934
 20
6.366507953509991
 30
0.0
  0
VERTEX
  8
0
 10
15.911048649860584
 20
7.274007953509991
 30
0.0
  0
VERTEX
  8
0
 10
19.076048649860585
 20
12.755948759465488
 30
0.0
  0
VERTEX
  8
0
 10
20.64788475772934
 20
11.848448759465487
 30
0.0
  0
VERTEX
  8
0
 10
21.81288475772934
 20
13.86628795028323
 30
0.0
  0
SEQEND
  0
POLYLINE
  8
0
 66
1
 10
0.0
 20
0.0
 30
0.0
 70
8
  0
VERTEX
  8
0
 10
21.81288475772934
 20
13.86628795028323
 30
0.0
  0
VERTEX
  8
0
 10
20.241048649860584
 20
14.77378795028323
 30
0.0
  0
VERTEX
  8
0
 10
23.406048649860587
 20
20.255728756238728
 30
0.0
  0
VERTEX
  8
0
 10
24.977884757729342
 20
19.348228756238726
 30
0.0
  0
SEQEND
  0
LINE
  8
0
 10
16.019615242270667
 20
1.4320508075688774
 30
0.0
 11
18.52211524227067
 21
5.766507953509992
 31
0.0
  0
LINE
  8
0
 10
28.51961524227067
 20
23.082685902179843
 30
0.0
 11
26.017115242270673
 21
18.748228756238728
 31
0.0
  0
POLYLINE
  8
0
 66
1
 10
0.0
 20
0.0
 30
0.0
 70
8
  0
VERTEX
  8
0
 10
18.52211524227067
 20
5.766507953509992
 30
0.0
  0
VERTEX
  8
0
 10
20.093951350139424
 20
4.859007953509992
 30
0.0
  0
VERTEX
  8
0
 10
23.258951350139426
 20
10.340948759465489
 30
0.0
  0
VERTEX
  8
0
 10
21.68711524227067
 20
11.24844875946549
 30
0.0
  0
VERTEX
  8
0
 10
22.85211524227067
 20
13.266287950283232
 30
0.0
  0
SEQEND
  0
POLYLINE
  8
0
 66
1
 10
0.0
 20
0.0
 30
0.0
 70
8
  0
VERTEX
  8
0
 10
22.85211524227067
 20
13.266287950283232
 30
0.0
  0
VERTEX
  8
0
 10
24.423951350139426
 20
12.358787950283231
 30
0.0
  0
VERTEX
  8
0
 10
27.588951350139425
 20
17.84072875623873
 30
0.0
  0
VERTEX
  8
0
 10
26.01711524227067
 20
18.748228756238728
 30
0.0
  0
SEQEND
  0
LINE
  8
0
 10
16.019615242270667
 20
1.4320508075688774
 30
0.0
 11
15.291851531035892
 21
0.7462228549380537
 31
0.0
  0
LINE
  8
0
 10
14.98038475772934
 20
2.032050807568877
 30
0.0
 11
14.750322183742963
 21
1.0588749693717077
 31
0.0
  0
LINE
  8
0
 10
15.291851531035892
 20
0.7462228549380537
 30
0.0
 11
14.750322183742963
 21
1.0588749693717077
 31
0.0
  0
LINE
  8
0
 10
12.98038475772934
 20
1.4320508075688774
 30
0.0
 11
10.47788475772934
 21
5.7665079535099935
 31
0.0
  0
LINE
  8
0
 10
0.48038475772934397
 20
23.082685902179847
 30
0.0
 11
2.9828847577293445
 21
18.74822875623873
 31
0.0
  0
POLYLINE
  8
0
 66
1
 10
0.0
 20
0.0
 30
0.0
 70
8
  0
VERTEX
  8
0
 10
10.47788475772934
 20
5.7665079535099935
 30
0.0
  0
VERTEX
  8
0
 10
8.906048649860583
 20
4.859007953509993
 30
0.0
  0
VERTEX
  8
0
 10
5.741048649860584
 20
10.34094875946549
 30
0.0
  0
VERTEX
  8
0
 10
7.31288475772934
 20
11.248448759465491
 30
0.0
  0
VERTEX
  8
0
 10
6.14788475772934
 20
13.266287950283234
 30
0.0
  0
SEQEND
  0
POLYLINE
  8
0
 66
1
 10
0.0
 20
0.0
 30
0.0
 70
8
  0
VERTEX
  8
0
 10
6.14788475772934
 20
13.266287950283234
 30
0.0
  0
VERTEX
  8
0
 10
4.576048649860584
 20
12.358787950283233
 30
0.0
  0
VERTEX
  8
0
 10
1.411048649860585
 20
17.84072875623873
 30
0.0
  0
VERTEX
  8
0
 10
2.982884757729341
 20
18.748228756238728
 30
0.0
  0
SEQEND
  0
LINE
  8
0
 10
14.019615242270667
 20
2.0320508075688775
 30
0.0
 11
11.517115242270668
 21
6.366507953509993
 31
0.0
  0
LINE
  8
0
 10
1.5196152422706704
 20
23.68268590217985
 30
0.0
 11
4.0221152422706705
 21
19.348228756238733
 31
0.0
  0
POLYLINE
  8
0
 66
1
 10
0.0
 20
0.0
 30
0.0
 70
8
  0
VERTEX
  8
0
 10
11.517115242270668
 20
6.366507953509993
 30
0.0
  0
VERTEX
  8
0
 10
13.088951350139425
 20
7.274007953509993
 30
0.0
  0
VERTEX
  8
0
 10
9.923951350139426
 20
12.75594875946549
 30
0.0
  0
VERTEX
  8
0
 10
8.35211524227067
 20
11.848448759465489
 30
0.0
  0
VERTEX
  8
0
 10
7.1871152422706714
 20
13.866287950283231
 30
0.0
  0
SEQEND
  0
POLYLINE
  8
0
 66
1
 10
0.0
 20
0.0
 30
0.0
 70
8
  0
VERTEX
  8
0
 10
7.1871152422706714
 20
13.866287950283231
 30
0.0
  0
VERTEX
  8
0
 10
8.758951350139428
 20
14.773787950283232
 30
0.0
  0
VERTEX
  8
0
 10
5.593951350139429
 20
20.255728756238728
 30
0.0
  0
VERTEX
  8
0
 10
4.022115242270673
 20
19.34822875623873
 30
0.0
  0
SEQEND
  0
LINE
  8
0
 10
14.019615242270667
 20
2.0320508075688775
 30
0.0
 11
14.249677816257044
 21
1.058874969371708
 31
0.0
  0
LINE
  8
0
 10
12.98038475772934
 20
1.4320508075688774
 30
0.0
 11
13.708148468964115
 21
0.7462228549380537
 31
0.0
  0
LINE
  8
0
 10
14.249677816257044
 20
1.058874969371708
 30
0.0
 11
13.708148468964115
 21
0.7462228549380537
 31
0.0
  0
LINE
  8
0
 10
12.500000000000004
 20
-0.5999999999999998
 30
0.0
 11
7.495
 21
-0.5999999999999991
 31
0.0
  0
LINE
  8
0
 10
-12.500000000000004
 20
-0.5999999999999966
 30
0.0
 11
-7.495
 21
-0.5999999999999966
 31
0.0
  0
POLYLINE
  8
0
 66
1
 10
0.0
 20
0.0
 30
0.0
 70
8
  0
VERTEX
  8
0
 10
7.495
 20
-0.5999999999999991
 30
0.0
  0
VERTEX
  8
0
 10
7.495
 20
-2.414999999999999
 30
0.0
  0
VERTEX
  8
0
 10
1.165
 20
-2.4149999999999983
 30
0.0
  0
VERTEX
  8
0
 10
1.1650000000000007
 20
-0.5999999999999983
 30
0.0
  0
VERTEX
  8
0
 10
-1.1649999999999994
 20
-0.599999999999998
 30
0.0
  0
SEQEND
  0
POLYLINE
  8
0
 66
1
 10
0.0
 20
0.0
 30
0.0
 70
8
  0
VERTEX
  8
0
 10
-1.1649999999999994
 20
-0.599999999999998
 30
0.0
  0
VERTEX
  8
0
 10
-1.1649999999999998
 20
-2.414999999999998
 30
0.0
  0
VERTEX
  8
0
 10
-7.495
 20
-2.414999999999997
 30
0.0
  0
VERTEX
  8
0
 10
-7.494999999999999
 20
-0.599999999999997
 30
0.0
  0
SEQEND
  0
LINE
  8
0
 10
12.500000000000004
 20
0.6000000000000002
 30
0.0
 11
7.495
 21
0.6000000000000009
 31
0.0
  0
LINE
  8
0
 10
-12.500000000000004
 20
0.6000000000000033
 30
0.0
 11
-7.495
 21
0.6000000000000033
 31
0.0
  0
POLYLINE
  8
0
 66
1
 10
0.0
 20
0.0
 30
0.0
 70
8
  0
VERTEX
  8
0
 10
7.495
 20
0.6000000000000009
 30
0.0
  0
VERTEX
  8
0
 10
7.495
 20
2.415000000000001
 30
0.0
  0
VERTEX
  8
0
 10
1.165
 20
2.415000000000002
 30
0.0
  0
VERTEX
  8
0
 10
1.1649999999999996
 20
0.6000000000000019
 30
0.0
  0
VERTEX
  8
0
 10
-1.1650000000000005
 20
0.6000000000000022
 30
0.0
  0
SEQEND
  0
POLYLINE
  8
0
 66
1
 10
0.0
 20
0.0
 30
0.0
 70
8
  0
VERTEX
  8
0
 10
-1.1650000000000005
 20
0.6000000000000022
 30
0.0
  0
VERTEX
  8
0
 10
-1.1650000000000003
 20
2.4150000000000023
 30
0.0
  0
VERTEX
  8
0
 10
-7.495
 20
2.415000000000003
 30
0.0
  0
VERTEX
  8
0
 10
-7.495
 20
0.6000000000000032
 30
0.0
  0
SEQEND
  0
LINE
  8
0
 10
12.500000000000004
 20
0.6000000000000002
 30
0.0
 11
13.457826285221154
 21
0.3126521144336547
 31
0.0
  0
LINE
  8
0
 10
12.500000000000004
 20
-0.5999999999999998
 30
0.0
 11
13.457826285221156
 21
-0.3126521144336544
 31
0.0
  0
LINE
  8
0
 10
13.457826285221154
 20
0.3126521144336547
 30
0.0
 11
13.457826285221156
 21
-0.3126521144336544
 31
0.0
  0
LINE
  8
0
 10
14.019615242270667
 20
-2.032050807568877
 30
0.0
 11
11.517115242270666
 21
-6.366507953509991
 31
0.0
  0
LINE
  8
0
 10
1.519615242270656
 20
-23.682685902179838
 30
0.0
 11
4.022115242270656
 21
-19.348228756238722
 31
0.0
  0
POLYLINE
  8
0
 66
1
 10
0.0
 20
0.0
 30
0.0
 70
8
  0
VERTEX
  8
0
 10
11.517115242270666
 20
-6.366507953509991
 30
0.0
  0
VERTEX
  8
0
 10
13.088951350139421
 20
-7.274007953509992
 30
0.0
  0
VERTEX
  8
0
 10
9.923951350139419
 20
-12.755948759465486
 30
0.0
  0
VERTEX
  8
0
 10
8.352115242270662
 20
-11.848448759465487
 30
0.0
  0
VERTEX
  8
0
 10
7.187115242270661
 20
-13.86628795028323
 30
0.0
  0
SEQEND
  0
POLYLINE
  8
0
 66
1
 10
0.0
 20
0.0
 30
0.0
 70
8
  0
VERTEX
  8
0
 10
7.187115242270661
 20
-13.86628795028323
 30
0.0
  0
VERTEX
  8
0
 10
8.758951350139416
 20
-14.77378795028323
 30
0.0
  0
VERTEX
  8
0
 10
5.593951350139413
 20
-20.255728756238724
 30
0.0
  0
VERTEX
  8
0
 10
4.022115242270656
 20
-19.348228756238726
 30
0.0
  0
SEQEND
  0
LINE
  8
0
 10
12.98038475772934
 20
-1.432050807568877
 30
0.0
 11
10.477884757729338
 21
-5.766507953509991
 31
0.0
  0
LINE
  8
0
 10
0.48038475772932965
 20
-23.082685902179836
 30
0.0
 11
2.9828847577293303
 21
-18.74822875623872
 31
0.0
  0
POLYLINE
  8
0
 66
1
 10
0.0
 20
0.0
 30
0.0
 70
8
  0
VERTEX
  8
0
 10
10.477884757729338
 20
-5.766507953509991
 30
0.0
  0
VERTEX
  8
0
 10
8.906048649860582
 20
-4.859007953509991
 30
0.0
  0
VERTEX
  8
0
 10
5.741048649860579
 20
-10.340948759465487
 30
0.0
  0
VERTEX
  8
0
 10
7.312884757729334
 20
-11.248448759465488
 30
0.0
  0
VERTEX
  8
0
 10
6.147884757729333
 20
-13.266287950283228
 30
0.0
  0
SEQEND
  0
POLYLINE
  8
0
 66
1
 10
0.0
 20
0.0
 30
0.0
 70
8
  0
VERTEX
  8
0
 10
6.147884757729333
 20
-13.266287950283228
 30
0.0
  0
VERTEX
  8
0
 10
4.576048649860577
 20
-12.358787950283228
 30
0.0
  0
VERTEX
  8
0
 10
1.4110486498605743
 20
-17.840728756238722
 30
0.0
  0
VERTEX
  8
0
 10
2.98288475772933
 20
-18.748228756238724
 30
0.0
  0
SEQEND
  0
LINE
  8
0
 10
12.98038475772934
 20
-1.432050807568877
 30
0.0
 11
13.708148468964115
 21
-0.7462228549380533
 31
0.0
  0
LINE
  8
0
 10
14.019615242270667
 20
-2.032050807568877
 30
0.0
 11
14.249677816257044
 21
-1.0588749693717077
 31
0.0
  0
LINE
  8
0
 10
13.708148468964115
 20
-0.7462228549380533
 30
0.0
 11
14.249677816257044
 21
-1.0588749693717077
 31
0.0
  0
LINE
  8
0
 10
16.019615242270667
 20
-1.4320508075688774
 30
0.0
 11
18.52211524227067
 21
-5.766507953509992
 31
0.0
  0
LINE
  8
0
 10
28.51961524227067
 20
-23.082685902179843
 30
0.0
 11
26.01711524227067
 21
-18.74822875623873
 31
0.0
  0
POLYLINE
  8
0
 66
1
 10
0.0
 20
0.0
 30
0.0
 70
8
  0
VERTEX
  8
0
 10
18.52211524227067
 20
-5.766507953509992
 30
0.0
  0
VERTEX
  8
0
 10
20.093951350139424
 20
-4.859007953509992
 30
0.0
  0
VERTEX
  8
0
 10
23.258951350139426
 20
-10.340948759465489
 30
0.0
  0
VERTEX
  8
0
 10
21.68711524227067
 20
-11.24844875946549
 30
0.0
  0
VERTEX
  8
0
 10
22.85211524227067
 20
-13.266287950283232
 30
0.0
  0
SEQEND
  0
POLYLINE
  8
0
 66
1
 10
0.0
 20
0.0
 30
0.0
 70
8
  0
VERTEX
  8
0
 10
22.85211524227067
 20
-13.266287950283232
 30
0.0
  0
VERTEX
  8
0
 10
24.423951350139426
 20
-12.358787950283231
 30
0.0
  0
VERTEX
  8
0
 10
27.588951350139425
 20
-17.84072875623873
 30
0.0
  0
VERTEX
  8
0
 10
26.01711524227067
 20
-18.748228756238728
 30
0.0
  0
SEQEND
  0
LINE
  8
0
 10
14.98038475772934
 20
-2.032050807568877
 30
0.0
 11
17.48288475772934
 21
-6.366507953509991
 31
0.0
  0
LINE
  8
0
 10
27.480384757729343
 20
-23.682685902179845
 30
0.0
 11
24.977884757729342
 21
-19.348228756238733
 31
0.0
  0
POLYLINE
  8
0
 66
1
 10
0.0
 20
0.0
 30
0.0
 70
8
  0
VERTEX
  8
0
 10
17.48288475772934
 20
-6.366507953509991
 30
0.0
  0
VERTEX
  8
0
 10
15.911048649860584
 20
-7.274007953509991
 30
0.0
  0
VERTEX
  8
0
 10
19.076048649860585
 20
-12.755948759465488
 30
0.0
  0
VERTEX
  8
0
 10
20.64788475772934
 20
-11.848448759465487
 30
0.0
  0
VERTEX
  8
0
 10
21.81288475772934
 20
-13.86628795028323
 30
0.0
  0
SEQEND
  0
POLYLINE
  8
0
 66
1
 10
0.0
 20
0.0
 30
0.0
 70
8
  0
VERTEX
  8
0
 10
21.81288475772934
 20
-13.86628795028323
 30
0.0
  0
VERTEX
  8
0
 10
20.241048649860584
 20
-14.77378795028323
 30
0.0
  0
VERTEX
  8
0
 10
23.406048649860587
 20
-20.255728756238728
 30
0.0
  0
VERTEX
  8
0
 10
24.977884757729342
 20
-19.34822875623873
 30
0.0
  0
SEQEND
  0
LINE
  8
0
 10
14.98038475772934
 20
-2.032050807568877
 30
0.0
 11
14.750322183742963
 21
-1.0588749693717077
 31
0.0
  0
LINE
  8
0
 10
16.019615242270667
 20
-1.4320508075688774
 30
0.0
 11
15.291851531035892
 21
-0.7462228549380537
 31
0.0
  0
LINE
  8
0
 10
14.750322183742963
 20
-1.0588749693717077
 30
0.0
 11
15.291851531035892
 21
-0.7462228549380537
 31
0.0
  0
LINE
  8
0
 10
45.500000000000014
 20
0.6
 30
0.0
 11
50.50500000000002
 21
0.6
 31
0.0
  0
LINE
  8
0
 10
70.50000000000003
 20
0.6
 30
0.0
 11
65.49500000000002
 21
0.5999999999999993
 31
0.0
  0
POLYLINE
  8
0
 66
1
 10
0.0
 20
0.0
 30
0.0
 70
8
  0
VERTEX
  8
0
 10
50.50500000000002
 20
0.6
 30
0.0
  0
VERTEX
  8
0
 10
50.50500000000002
 20
2.415
 30
0.0
  0
VERTEX
  8
0
 10
56.835000000000015
 20
2.415
 30
0.0
  0
VERTEX
  8
0
 10
56.835000000000015
 20
0.6000000000000001
 30
0.0
  0
VERTEX
  8
0
 10
59.16500000000001
 20
0.6000000000000001
 30
0.0
  0
SEQEND
  0
POLYLINE
  8
0
 66
1
 10
0.0
 20
0.0
 30
0.0
 70
8
  0
VERTEX
  8
0
 10
59.16500000000001
 20
0.6000000000000001
 30
0.0
  0
VERTEX
  8
0
 10
59.16500000000001
 20
2.415
 30
0.0
  0
VERTEX
  8
0
 10
65.49500000000002
 20
2.415
 30
0.0
  0
VERTEX
  8
0
 10
65.49500000000002
 20
0.6000000000000001
 30
0.0
  0
SEQEND
  0
LINE
  8
0
 10
45.500000000000014
 20
-0.6
 30
0.0
 11
50.50500000000002
 21
-0.6
 31
0.0
  0
LINE
  8
0
 10
70.50000000000003
 20
-0.6
 30
0.0
 11
65.49500000000002
 21
-0.6000000000000006
 31
0.0
  0
POLYLINE
  8
0
 66
1
 10
0.0
 20
0.0
 30
0.0
 70
8
  0
VERTEX
  8
0
 10
50.50500000000002
 20
-0.6
 30
0.0
  0
VERTEX
  8
0
 10
50.50500000000002
 20
-2.415
 30
0.0
  0
VERTEX
  8
0
 10
56.835000000000015
 20
-2.415
 30
0.0
  0
VERTEX
  8
0
 10
56.835000000000015
 20
-0.6000000000000001
 30
0.0
  0
VERTEX
  8
0
 10
59.16500000000001
 20
-0.6000000000000001
 30
0.0
  0
SEQEND
  0
POLYLINE
  8
0
 66
1
 10
0.0
 20
0.0
 30
0.0
 70
8
  0
VERTEX
  8
0
 10
59.16500000000001
 20
-0.6000000000000001
 30
0.0
  0
VERTEX
  8
0
 10
59.16500000000001
 20
-2.415
 30
0.0
  0
VERTEX
  8
0
 10
65.49500000000002
 20
-2.415
 30
0.0
  0
VERTEX
  8
0
 10
65.49500000000002
 20
-0.6000000000000001
 30
0.0
  0
SEQEND
  0
LINE
  8
0
 10
45.500000000000014
 20
-0.6
 30
0.0
 11
44.54217371477886
 21
-0.3126521144336546
 31
0.0
  0
LINE
  8
0
 10
45.500000000000014
 20
0.6
 30
0.0
 11
44.54217371477886
 21
0.3126521144336546
 31
0.0
  0
LINE
  8
0
 10
44.54217371477886
 20
-0.3126521144336546
 30
0.0
 11
44.54217371477886
 21
0.3126521144336546
 31
0.0
  0
LINE
  8
0
 10
43.980384757729354
 20
2.032050807568877
 30
0.0
 11
46.48288475772935
 21
6.366507953509991
 31
0.0
  0
LINE
  8
0
 10
56.480384757729354
 20
23.682685902179845
 30
0.0
 11
53.977884757729356
 21
19.34822875623873
 31
0.0
  0
POLYLINE
  8
0
 66
1
 10
0.0
 20
0.0
 30
0.0
 70
8
  0
VERTEX
  8
0
 10
46.48288475772935
 20
6.366507953509991
 30
0.0
  0
VERTEX
  8
0
 10
44.9110486498606
 20
7.274007953509991
 30
0.0
  0
VERTEX
  8
0
 10
48.076048649860596
 20
12.755948759465488
 30
0.0
  0
VERTEX
  8
0
 10
49.64788475772935
 20
11.848448759465487
 30
0.0
  0
VERTEX
  8
0
 10
50.81288475772935
 20
13.86628795028323
 30
0.0
  0
SEQEND
  0
POLYLINE
  8
0
 66
1
 10
0.0
 20
0.0
 30
0.0
 70
8
  0
VERTEX
  8
0
 10
50.81288475772935
 20
13.86628795028323
 30
0.0
  0
VERTEX
  8
0
 10
49.241048649860595
 20
14.77378795028323
 30
0.0
  0
VERTEX
  8
0
 10
52.406048649860594
 20
20.255728756238728
 30
0.0
  0
VERTEX
  8
0
 10
53.97788475772935
 20
19.348228756238726
 30
0.0
  0
SEQEND
  0
LINE
  8
0
 10
45.019615242270675
 20
1.4320508075688774
 30
0.0
 11
47.52211524227067
 21
5.766507953509992
 31
0.0
  0
LINE
  8
0
 10
57.519615242270675
 20
23.082685902179843
 30
0.0
 11
55.01711524227068
 21
18.748228756238728
 31
0.0
  0
POLYLINE
  8
0
 66
1
 10
0.0
 20
0.0
 30
0.0
 70
8
  0
VERTEX
  8
0
 10
47.52211524227067
 20
5.766507953509992
 30
0.0
  0
VERTEX
  8
0
 10
49.09395135013943
 20
4.859007953509992
 30
0.0
  0
VERTEX
  8
0
 10
52.25895135013943
 20
10.340948759465489
 30
0.0
  0
VERTEX
  8
0
 10
50.68711524227067
 20
11.24844875946549
 30
0.0
  0
VERTEX
  8
0
 10
51.85211524227067
 20
13.266287950283232
 30
0.0
  0
SEQEND
  0
POLYLINE
  8
0
 66
1
 10
0.0
 20
0.0
 30
0.0
 70
8
  0
VERTEX
  8
0
 10
51.85211524227067
 20
13.266287950283232
 30
0.0
  0
VERTEX
  8
0
 10
53.423951350139426
 20
12.358787950283231
 30
0.0
  0
VERTEX
  8
0
 10
56.588951350139425
 20
17.84072875623873
 30
0.0
  0
VERTEX
  8
0
 10
55.01711524227067
 20
18.748228756238728
 30
0.0
  0
SEQEND
  0
LINE
  8
0
 10
45.019615242270675
 20
1.4320508075688774
 30
0.0
 11
44.2918515310359
 21
0.7462228549380528
 31
0.0
  0
LINE
  8
0
 10
43.980384757729354
 20
2.032050807568877
 30
0.0
 11
43.75032218374297
 21
1.058874969371708
 31
0.0
  0
LINE
  8
0
 10
44.2918515310359
 20
0.7462228549380528
 30
0.0
 11
43.75032218374297
 21
1.058874969371708
 31
0.0
  0
LINE
  8
0
 10
41.980384757729354
 20
1.4320508075688774
 30
0.0
 11
39.477884757729356
 21
5.7665079535099935
 31
0.0
  0
LINE
  8
0
 10
29.480384757729354
 20
23.082685902179847
 30
0.0
 11
31.982884757729355
 21
18.74822875623873
 31
0.0
  0
POLYLINE
  8
0
 66
1
 10
0.0
 20
0.0
 30
0.0
 70
8
  0
VERTEX
  8
0
 10
39.477884757729356
 20
5.7665079535099935
 30
0.0
  0
VERTEX
  8
0
 10
37.9060486498606
 20
4.859007953509993
 30
0.0
  0
VERTEX
  8
0
 10
34.7410486498606
 20
10.34094875946549
 30
0.0
  0
VERTEX
  8
0
 10
36.31288475772936
 20
11.248448759465491
 30
0.0
  0
VERTEX
  8
0
 10
35.14788475772936
 20
13.266287950283234
 30
0.0
  0
SEQEND
  0
POLYLINE
  8
0
 66
1
 10
0.0
 20
0.0
 30
0.0
 70
8
  0
VERTEX
  8
0
 10
35.14788475772936
 20
13.266287950283234
 30
0.0
  0
VERTEX
  8
0
 10
33.5760486498606
 20
12.358787950283233
 30
0.0
  0
VERTEX
  8
0
 10
30.411048649860604
 20
17.84072875623873
 30
0.0
  0
VERTEX
  8
0
 10
31.98288475772936
 20
18.748228756238728
 30
0.0
  0
SEQEND
  0
LINE
  8
0
 10
43.019615242270675
 20
2.0320508075688775
 30
0.0
 11
40.51711524227068
 21
6.366507953509993
 31
0.0
  0
LINE
  8
0
 10
30.51961524227068
 20
23.68268590217985
 30
0.0
 11
33.02211524227068
 21
19.348228756238733
 31
0.0
  0
POLYLINE
  8
0
 66
1
 10
0.0
 20
0.0
 30
0.0
 70
8
  0
VERTEX
  8
0
 10
40.51711524227068
 20
6.366507953509993
 30
0.0
  0
VERTEX
  8
0
 10
42.08895135013943
 20
7.274007953509993
 30
0.0
  0
VERTEX
  8
0
 10
38.92395135013943
 20
12.75594875946549
 30
0.0
  0
VERTEX
  8
0
 10
37.35211524227068
 20
11.848448759465489
 30
0.0
  0
VERTEX
  8
0
 10
36.18711524227068
 20
13.866287950283231
 30
0.0
  0
SEQEND
  0
POLYLINE
  8
0
 66
1
 10
0.0
 20
0.0
 30
0.0
 70
8
  0
VERTEX
  8
0
 10
36.18711524227068
 20
13.866287950283231
 30
0.0
  0
VERTEX
  8
0
 10
37.758951350139434
 20
14.773787950283232
 30
0.0
  0
VERTEX
  8
0
 10
34.593951350139434
 20
20.255728756238728
 30
0.0
  0
VERTEX
  8
0
 10
33.02211524227068
 20
19.34822875623873
 30
0.0
  0
SEQEND
  0
LINE
  8
0
 10
43.019615242270675
 20
2.0320508075688775
 30
0.0
 11
43.249677816257055
 21
1.0588749693717086
 31
0.0
  0
LINE
  8
0
 10
41.980384757729354
 20
1.4320508075688774
 30
0.0
 11
42.708148468964126
 21
0.7462228549380528
 31
0.0
  0
LINE
  8
0
 10
43.249677816257055
 20
1.0588749693717086
 30
0.0
 11
42.708148468964126
 21
0.7462228549380528
 31
0.0
  0
LINE
  8
0
 10
41.500000000000014
 20
0.6000000000000002
 30
0.0
 11
42.45782628522117
 21
0.3126521144336547
 31
0.0
  0
LINE
  8
0
 10
41.500000000000014
 20
-0.5999999999999998
 30
0.0
 11
42.45782628522117
 21
-0.3126521144336544
 31
0.0
  0
LINE
  8
0
 10
42.45782628522117
 20
0.3126521144336547
 30
0.0
 11
42.45782628522117
 21
-0.3126521144336544
 31
0.0
  0
LINE
  8
0
 10
43.019615242270675
 20
-2.032050807568877
 30
0.0
 11
40.51711524227067
 21
-6.366507953509991
 31
0.0
  0
LINE
  8
0
 10
30.519615242270667
 20
-23.682685902179838
 30
0.0
 11
33.022115242270665
 21
-19.348228756238722
 31
0.0
  0
POLYLINE
  8
0
 66
1
 10
0.0
 20
0.0
 30
0.0
 70
8
  0
VERTEX
  8
0
 10
40.51711524227067
 20
-6.366507953509991
 30
0.0
  0
VERTEX
  8
0
 10
42.088951350139425
 20
-7.274007953509992
 30
0.0
  0
VERTEX
  8
0
 10
38.92395135013942
 20
-12.755948759465486
 30
0.0
  0
VERTEX
  8
0
 10
37.35211524227066
 20
-11.848448759465487
 30
0.0
  0
VERTEX
  8
0
 10
36.187115242270664
 20
-13.86628795028323
 30
0.0
  0
SEQEND
  0
POLYLINE
  8
0
 66
1
 10
0.0
 20
0.0
 30
0.0
 70
8
  0
VERTEX
  8
0
 10
36.187115242270664
 20
-13.86628795028323
 30
0.0
  0
VERTEX
  8
0
 10
37.75895135013942
 20
-14.77378795028323
 30
0.0
  0
VERTEX
  8
0
 10
34.59395135013942
 20
-20.255728756238724
 30
0.0
  0
VERTEX
  8
0
 10
33.022115242270665
 20
-19.348228756238726
 30
0.0
  0
SEQEND
  0
LINE
  8
0
 10
41.980384757729354
 20
-1.432050807568877
 30
0.0
 11
39.47788475772935
 21
-5.766507953509991
 31
0.0
  0
LINE
  8
0
 10
29.48038475772934
 20
-23.082685902179836
 30
0.0
 11
31.98288475772934
 21
-18.74822875623872
 31
0.0
  0
POLYLINE
  8
0
 66
1
 10
0.0
 20
0.0
 30
0.0
 70
8
  0
VERTEX
  8
0
 10
39.47788475772935
 20
-5.766507953509991
 30
0.0
  0
VERTEX
  8
0
 10
37.906048649860594
 20
-4.859007953509991
 30
0.0
  0
VERTEX
  8
0
 10
34.74104864986059
 20
-10.340948759465487
 30
0.0
  0
VERTEX
  8
0
 10
36.31288475772934
 20
-11.248448759465488
 30
0.0
  0
VERTEX
  8
0
 10
35.147884757729344
 20
-13.266287950283228
 30
0.0
  0
SEQEND
  0
POLYLINE
  8
0
 66
1
 10
0.0
 20
0.0
 30
0.0
 70
8
  0
VERTEX
  8
0
 10
35.147884757729344
 20
-13.266287950283228
 30
0.0
  0
VERTEX
  8
0
 10
33.57604864986059
 20
-12.358787950283228
 30
0.0
  0
VERTEX
  8
0
 10
30.411048649860586
 20
-17.840728756238722
 30
0.0
  0
VERTEX
  8
0
 10
31.98288475772934
 20
-18.748228756238724
 30
0.0
  0
SEQEND
  0
LINE
  8
0
 10
41.980384757729354
 20
-1.432050807568877
 30
0.0
 11
42.708148468964126
 21
-0.7462228549380526
 31
0.0
  0
LINE
  8
0
 10
43.019615242270675
 20
-2.032050807568877
 30
0.0
 11
43.249677816257055
 21
-1.058874969371708
 31
0.0
  0
LINE
  8
0
 10
42.708148468964126
 20
-0.7462228549380526
 30
0.0
 11
43.249677816257055
 21
-1.058874969371708
 31
0.0
  0
LINE
  8
0
 10
45.019615242270675
 20
-1.4320508075688774
 30
0.0
 11
47.52211524227067
 21
-5.766507953509992
 31
0.0
  0
LINE
  8
0
 10
57.519615242270675
 20
-23.082685902179843
 30
0.0
 11
55.01711524227067
 21
-18.74822875623873
 31
0.0
  0
POLYLINE
  8
0
 66
1
 10
0.0
 20
0.0
 30
0.0
 70
8
  0
VERTEX
  8
0
 10
47.52211524227067
 20
-5.766507953509992
 30
0.0
  0
VERTEX
  8
0
 10
49.09395135013943
 20
-4.859007953509992
 30
0.0
  0
VERTEX
  8
0
 10
52.25895135013943
 20
-10.340948759465489
 30
0.0
  0
VERTEX
  8
0
 10
50.68711524227067
 20
-11.24844875946549
 30
0.0
  0
VERTEX
  8
0
 10
51.85211524227067
 20
-13.266287950283232
 30
0.0
  0
SEQEND
  0
POLYLINE
  8
0
 66
1
 10
0.0
 20
0.0
 30
0.0
 70
8
  0
VERTEX
  8
0
 10
51.85211524227067
 20
-13.266287950283232
 30
0.0
  0
VERTEX
  8
0
 10
53.423951350139426
 20
-12.358787950283231
 30
0.0
  0
VERTEX
  8
0
 10
56.588951350139425
 20
-17.84072875623873
 30
0.0
  0
VERTEX
  8
0
 10
55.01711524227067
 20
-18.748228756238728
 30
0.0
  0
SEQEND
  0
LINE
  8
0
 10
43.980384757729354
 20
-2.032050807568877
 30
0.0
 11
46.48288475772935
 21
-6.366507953509991
 31
0.0
  0
LINE
  8
0
 10
56.480384757729354
 20
-23.682685902179845
 30
0.0
 11
53.97788475772935
 21
-19.348228756238733
 31
0.0
  0
POLYLINE
  8
0
 66
1
 10
0.0
 20
0.0
 30
0.0
 70
8
  0
VERTEX
  8
0
 10
46.48288475772935
 20
-6.366507953509991
 30
0.0
  0
VERTEX
  8
0
 10
44.9110486498606
 20
-7.274007953509991
 30
0.0
  0
VERTEX
  8
0
 10
48.076048649860596
 20
-12.755948759465488
 30
0.0
  0
VERTEX
  8
0
 10
49.64788475772935
 20
-11.848448759465487
 30
0.0
  0
VERTEX
  8
0
 10
50.81288475772935
 20
-13.86628795028323
 30
0.0
  0
SEQEND
  0
POLYLINE
  8
0
 66
1
 10
0.0
 20
0.0
 30
0.0
 70
8
  0
VERTEX
  8
0
 10
50.81288475772935
 20
-13.86628795028323
 30
0.0
  0
VERTEX
  8
0
 10
49.241048649860595
 20
-14.77378795028323
 30
0.0
  0
VERTEX
  8
0
 10
52.406048649860594
 20
-20.255728756238728
 30
0.0
  0
VERTEX
  8
0
 10
53.97788475772935
 20
-19.34822875623873
 30
0.0
  0
SEQEND
  0
LINE
  8
0
 10
43.980384757729354
 20
-2.032050807568877
 30
0.0
 11
43.75032218374297
 21
-1.058874969371708
 31
0.0
  0
LINE
  8
0
 10
45.019615242270675
 20
-1.4320508075688774
 30
0.0
 11
44.2918515310359
 21
-0.7462228549380528
 31
0.0
  0
LINE
  8
0
 10
43.75032218374297
 20
-1.058874969371708
 30
0.0
 11
44.2918515310359
 21
-0.7462228549380528
 31
0.0
  0
LINE
  8
0
 10
74.50000000000001
 20
0.6
 30
0.0
 11
79.50500000000002
 21
0.6
 31
0.0
  0
LINE
  8
0
 10
99.50000000000003
 20
0.6
 30
0.0
 11
94.49500000000002
 21
0.5999999999999993
 31
0.0
  0
POLYLINE
  8
0
 66
1
 10
0.0
 20
0.0
 30
0.0
 70
8
  0
VERTEX
  8
0
 10
79.50500000000002
 20
0.6
 30
0.0
  0
VERTEX
  8
0
 10
79.50500000000002
 20
2.415
 30
0.0
  0
VERTEX
  8
0
 10
85.83500000000002
 20
2.415
 30
0.0
  0
VERTEX
  8
0
 10
85.83500000000002
 20
0.6000000000000001
 30
0.0
  0
VERTEX
  8
0
 10
88.16500000000002
 20
0.6000000000000001
 30
0.0
  0
SEQEND
  0
POLYLINE
  8
0
 66
1
 10
0.0
 20
0.0
 30
0.0
 70
8
  0
VERTEX
  8
0
 10
88.16500000000002
 20
0.6000000000000001
 30
0.0
  0
VERTEX
  8
0
 10
88.16500000000002
 20
2.415
 30
0.0
  0
VERTEX
  8
0
 10
94.49500000000002
 20
2.415
 30
0.0
  0
VERTEX
  8
0
 10
94.49500000000002
 20
0.6000000000000001
 30
0.0
  0
SEQEND
  0
LINE
  8
0
 10
74.50000000000001
 20
-0.6
 30
0.0
 11
79.50500000000002
 21
-0.6
 31
0.0
  0
LINE
  8
0
 10
99.50000000000003
 20
-0.6
 30
0.0
 11
94.49500000000002
 21
-0.6000000000000006
 31
0.0
  0
POLYLINE
  8
0
 66
1
 10
0.0
 20
0.0
 30
0.0
 70
8
  0
VERTEX
  8
0
 10
79.50500000000002
 20
-0.6
 30
0.0
  0
VERTEX
  8
0
 10
79.50500000000002
 20
-2.415
 30
0.0
  0
VERTEX
  8
0
 10
85.83500000000002
 20
-2.415
 30
0.0
  0
VERTEX
  8
0
 10
85.83500000000002
 20
-0.6000000000000001
 30
0.0
  0
VERTEX
  8
0
 10
88.16500000000002
 20
-0.6000000000000001
 30
0.0
  0
SEQEND
  0
POLYLINE
  8
0
 66
1
 10
0.0
 20
0.0
 30
0.0
 70
8
  0
VERTEX
  8
0
 10
88.16500000000002
 20
-0.6000000000000001
 30
0.0
  0
VERTEX
  8
0
 10
88.16500000000002
 20
-2.415
 30
0.0
  0
VERTEX
  8
0
 10
94.49500000000002
 20
-2.415
 30
0.0
  0
VERTEX
  8
0
 10
94.49500000000002
 20
-0.6000000000000001
 30
0.0
  0
SEQEND
  0
LINE
  8
0
 10
74.50000000000001
 20
-0.6
 30
0.0
 11
73.54217371477887
 21
-0.3126521144336546
 31
0.0
  0
LINE
  8
0
 10
74.50000000000001
 20
0.6
 30
0.0
 11
73.54217371477887
 21
0.3126521144336546
 31
0.0
  0
LINE
  8
0
 10
73.54217371477887
 20
-0.3126521144336546
 30
0.0
 11
73.54217371477887
 21
0.3126521144336546
 31
0.0
  0
LINE
  8
0
 10
72.98038475772935
 20
2.032050807568877
 30
0.0
 11
75.48288475772935
 21
6.366507953509991
 31
0.0
  0
LINE
  8
0
 10
85.48038475772935
 20
23.682685902179845
 30
0.0
 11
82.97788475772936
 21
19.34822875623873
 31
0.0
  0
POLYLINE
  8
0
 66
1
 10
0.0
 20
0.0
 30
0.0
 70
8
  0
VERTEX
  8
0
 10
75.48288475772935
 20
6.366507953509991
 30
0.0
  0
VERTEX
  8
0
 10
73.91104864986059
 20
7.274007953509991
 30
0.0
  0
VERTEX
  8
0
 10
77.0760486498606
 20
12.755948759465488
 30
0.0
  0
VERTEX
  8
0
 10
78.64788475772936
 20
11.848448759465487
 30
0.0
  0
VERTEX
  8
0
 10
79.81288475772936
 20
13.86628795028323
 30
0.0
  0
SEQEND
  0
POLYLINE
  8
0
 66
1
 10
0.0
 20
0.0
 30
0.0
 70
8
  0
VERTEX
  8
0
 10
79.81288475772936
 20
13.86628795028323
 30
0.0
  0
VERTEX
  8
0
 10
78.2410486498606
 20
14.77378795028323
 30
0.0
  0
VERTEX
  8
0
 10
81.40604864986061
 20
20.255728756238728
 30
0.0
  0
VERTEX
  8
0
 10
82.97788475772937
 20
19.348228756238726
 30
0.0
  0
SEQEND
  0
LINE
  8
0
 10
74.01961524227067
 20
1.4320508075688774
 30
0.0
 11
76.52211524227067
 21
5.766507953509992
 31
0.0
  0
LINE
  8
0
 10
86.51961524227067
 20
23.082685902179843
 30
0.0
 11
84.01711524227068
 21
18.748228756238728
 31
0.0
  0
POLYLINE
  8
0
 66
1
 10
0.0
 20
0.0
 30
0.0
 70
8
  0
VERTEX
  8
0
 10
76.52211524227067
 20
5.766507953509992
 30
0.0
  0
VERTEX
  8
0
 10
78.09395135013943
 20
4.859007953509992
 30
0.0
  0
VERTEX
  8
0
 10
81.25895135013944
 20
10.340948759465489
 30
0.0
  0
VERTEX
  8
0
 10
79.68711524227068
 20
11.24844875946549
 30
0.0
  0
VERTEX
  8
0
 10
80.85211524227068
 20
13.266287950283232
 30
0.0
  0
SEQEND
  0
POLYLINE
  8
0
 66
1
 10
0.0
 20
0.0
 30
0.0
 70
8
  0
VERTEX
  8
0
 10
80.85211524227068
 20
13.266287950283232
 30
0.0
  0
VERTEX
  8
0
 10
82.42395135013945
 20
12.358787950283231
 30
0.0
  0
VERTEX
  8
0
 10
85.58895135013945
 20
17.84072875623873
 30
0.0
  0
VERTEX
  8
0
 10
84.01711524227069
 20
18.748228756238728
 30
0.0
  0
SEQEND
  0
LINE
  8
0
 10
74.01961524227067
 20
1.4320508075688774
 30
0.0
 11
73.2918515310359
 21
0.7462228549380528
 31
0.0
  0
LINE
  8
0
 10
72.98038475772935
 20
2.032050807568877
 30
0.0
 11
72.75032218374298
 21
1.058874969371708
 31
0.0
  0
LINE
  8
0
 10
73.2918515310359
 20
0.7462228549380528
 30
0.0
 11
72.75032218374298
 21
1.058874969371708
 31
0.0
  0
LINE
  8
0
 10
70.98038475772935
 20
1.4320508075688774
 30
0.0
 11
68.47788475772936
 21
5.7665079535099935
 31
0.0
  0
LINE
  8
0
 10
58.480384757729354
 20
23.082685902179847
 30
0.0
 11
60.98288475772935
 21
18.74822875623873
 31
0.0
  0
POLYLINE
  8
0
 66
1
 10
0.0
 20
0.0
 30
0.0
 70
8
  0
VERTEX
  8
0
 10
68.47788475772936
 20
5.7665079535099935
 30
0.0
  0
VERTEX
  8
0
 10
66.9060486498606
 20
4.859007953509993
 30
0.0
  0
VERTEX
  8
0
 10
63.741048649860595
 20
10.34094875946549
 30
0.0
  0
VERTEX
  8
0
 10
65.31288475772935
 20
11.248448759465491
 30
0.0
  0
VERTEX
  8
0
 10
64.14788475772934
 20
13.266287950283234
 30
0.0
  0
SEQEND
  0
POLYLINE
  8
0
 66
1
 10
0.0
 20
0.0
 30
0.0
 70
8
  0
VERTEX
  8
0
 10
64.14788475772934
 20
13.266287950283234
 30
0.0
  0
VERTEX
  8
0
 10
62.57604864986059
 20
12.358787950283233
 30
0.0
  0
VERTEX
  8
0
 10
59.41104864986059
 20
17.84072875623873
 30
0.0
  0
VERTEX
  8
0
 10
60.982884757729344
 20
18.748228756238728
 30
0.0
  0
SEQEND
  0
LINE
  8
0
 10
72.01961524227067
 20
2.0320508075688775
 30
0.0
 11
69.51711524227068
 21
6.366507953509993
 31
0.0
  0
LINE
  8
0
 10
59.519615242270675
 20
23.68268590217985
 30
0.0
 11
62.02211524227067
 21
19.348228756238733
 31
0.0
  0
POLYLINE
  8
0
 66
1
 10
0.0
 20
0.0
 30
0.0
 70
8
  0
VERTEX
  8
0
 10
69.51711524227068
 20
6.366507953509993
 30
0.0
  0
VERTEX
  8
0
 10
71.08895135013944
 20
7.274007953509993
 30
0.0
  0
VERTEX
  8
0
 10
67.92395135013945
 20
12.75594875946549
 30
0.0
  0
VERTEX
  8
0
 10
66.35211524227068
 20
11.848448759465489
 30
0.0
  0
VERTEX
  8
0
 10
65.18711524227068
 20
13.866287950283231
 30
0.0
  0
SEQEND
  0
POLYLINE
  8
0
 66
1
 10
0.0
 20
0.0
 30
0.0
 70
8
  0
VERTEX
  8
0
 10
65.18711524227068
 20
13.866287950283231
 30
0.0
  0
VERTEX
  8
0
 10
66.75895135013944
 20
14.773787950283232
 30
0.0
  0
VERTEX
  8
0
 10
63.59395135013944
 20
20.255728756238728
 30
0.0
  0
VERTEX
  8
0
 10
62.02211524227069
 20
19.34822875623873
 30
0.0
  0
SEQEND
  0
LINE
  8
0
 10
72.01961524227067
 20
2.0320508075688775
 30
0.0
 11
72.24967781625705
 21
1.0588749693717086
 31
0.0
  0
LINE
  8
0
 10
70.98038475772935
 20
1.4320508075688774
 30
0.0
 11
71.70814846896413
 21
0.7462228549380528
 31
0.0
  0
LINE
  8
0
 10
72.24967781625705
 20
1.0588749693717086
 30
0.0
 11
71.70814846896413
 21
0.7462228549380528
 31
0.0
  0
LINE
  8
0
 10
70.50000000000001
 20
0.6000000000000002
 30
0.0
 11
71.45782628522116
 21
0.3126521144336547
 31
0.0
  0
LINE
  8
0
 10
70.50000000000001
 20
-0.5999999999999998
 30
0.0
 11
71.45782628522116
 21
-0.3126521144336544
 31
0.0
  0
LINE
  8
0
 10
71.45782628522116
 20
0.3126521144336547
 30
0.0
 11
71.45782628522116
 21
-0.3126521144336544
 31
0.0
  0
LINE
  8
0
 10
72.01961524227067
 20
-2.032050807568877
 30
0.0
 11
69.51711524227068
 21
-6.366507953509991
 31
0.0
  0
LINE
  8
0
 10
59.51961524227066
 20
-23.682685902179838
 30
0.0
 11
62.02211524227066
 21
-19.348228756238722
 31
0.0
  0
POLYLINE
  8
0
 66
1
 10
0.0
 20
0.0
 30
0.0
 70
8
  0
VERTEX
  8
0
 10
69.51711524227068
 20
-6.366507953509991
 30
0.0
  0
VERTEX
  8
0
 10
71.08895135013944
 20
-7.274007953509992
 30
0.0
  0
VERTEX
  8
0
 10
67.92395135013943
 20
-12.755948759465486
 30
0.0
  0
VERTEX
  8
0
 10
66.35211524227067
 20
-11.848448759465487
 30
0.0
  0
VERTEX
  8
0
 10
65.18711524227066
 20
-13.86628795028323
 30
0.0
  0
SEQEND
  0
POLYLINE
  8
0
 66
1
 10
0.0
 20
0.0
 30
0.0
 70
8
  0
VERTEX
  8
0
 10
65.18711524227066
 20
-13.86628795028323
 30
0.0
  0
VERTEX
  8
0
 10
66.75895135013943
 20
-14.77378795028323
 30
0.0
  0
VERTEX
  8
0
 10
63.59395135013942
 20
-20.255728756238724
 30
0.0
  0
VERTEX
  8
0
 10
62.022115242270665
 20
-19.348228756238726
 30
0.0
  0
SEQEND
  0
LINE
  8
0
 10
70.98038475772935
 20
-1.432050807568877
 30
0.0
 11
68.47788475772936
 21
-5.766507953509991
 31
0.0
  0
LINE
  8
0
 10
58.48038475772934
 20
-23.082685902179836
 30
0.0
 11
60.98288475772934
 21
-18.74822875623872
 31
0.0
  0
POLYLINE
  8
0
 66
1
 10
0.0
 20
0.0
 30
0.0
 70
8
  0
VERTEX
  8
0
 10
68.47788475772936
 20
-5.766507953509991
 30
0.0
  0
VERTEX
  8
0
 10
66.9060486498606
 20
-4.859007953509991
 30
0.0
  0
VERTEX
  8
0
 10
63.74104864986059
 20
-10.340948759465487
 30
0.0
  0
VERTEX
  8
0
 10
65.31288475772935
 20
-11.248448759465488
 30
0.0
  0
VERTEX
  8
0
 10
64.14788475772934
 20
-13.266287950283228
 30
0.0
  0
SEQEND
  0
POLYLINE
  8
0
 66
1
 10
0.0
 20
0.0
 30
0.0
 70
8
  0
VERTEX
  8
0
 10
64.14788475772934
 20
-13.266287950283228
 30
0.0
  0
VERTEX
  8
0
 10
62.57604864986059
 20
-12.358787950283228
 30
0.0
  0
VERTEX
  8
0
 10
59.41104864986059
 20
-17.840728756238722
 30
0.0
  0
VERTEX
  8
0
 10
60.982884757729344
 20
-18.748228756238724
 30
0.0
  0
SEQEND
  0
LINE
  8
0
 10
70.98038475772935
 20
-1.432050807568877
 30
0.0
 11
71.70814846896413
 21
-0.7462228549380526
 31
0.0
  0
LINE
  8
0
 10
72.01961524227067
 20
-2.032050807568877
 30
0.0
 11
72.24967781625705
 21
-1.058874969371708
 31
0.0
  0
LINE
  8
0
 10
71.70814846896413
 20
-0.7462228549380526
 30
0.0
 11
72.24967781625705
 21
-1.058874969371708
 31
0.0
  0
LINE
  8
0
 10
74.01961524227067
 20
-1.4320508075688774
 30
0.0
 11
76.52211524227067
 21
-5.766507953509992
 31
0.0
  0
LINE
  8
0
 10
86.51961524227067
 20
-23.082685902179843
 30
0.0
 11
84.01711524227068
 21
-18.74822875623873
 31
0.0
  0
POLYLINE
  8
0
 66
1
 10
0.0
 20
0.0
 30
0.0
 70
8
  0
VERTEX
  8
0
 10
76.52211524227067
 20
-5.766507953509992
 30
0.0
  0
VERTEX
  8
0
 10
78.09395135013943
 20
-4.859007953509992
 30
0.0
  0
VERTEX
  8
0
 10
81.25895135013944
 20
-10.340948759465489
 30
0.0
  0
VERTEX
  8
0
 10
79.68711524227068
 20
-11.24844875946549
 30
0.0
  0
VERTEX
  8
0
 10
80.85211524227068
 20
-13.266287950283232
 30
0.0
  0
SEQEND
  0
POLYLINE
  8
0
 66
1
 10
0.0
 20
0.0
 30
0.0
 70
8
  0
VERTEX
  8
0
 10
80.85211524227068
 20
-13.266287950283232
 30
0.0
  0
VERTEX
  8
0
 10
82.42395135013945
 20
-12.358787950283231
 30
0.0
  0
VERTEX
  8
0
 10
85.58895135013945
 20
-17.84072875623873
 30
0.0
  0
VERTEX
  8
0
 10
84.01711524227069
 20
-18.748228756238728
 30
0.0
  0
SEQEND
  0
LINE
  8
0
 10
72.98038475772935
 20
-2.032050807568877
 30
0.0
 11
75.48288475772935
 21
-6.366507953509991
 31
0.0
  0
LINE
  8
0
 10
85.48038475772935
 20
-23.682685902179845
 30
0.0
 11
82.97788475772936
 21
-19.348228756238733
 31
0.0
  0
POLYLINE
  8
0
 66
1
 10
0.0
 20
0.0
 30
0.0
 70
8
  0
VERTEX
  8
0
 10
75.48288475772935
 20
-6.366507953509991
 30
0.0
  0
VERTEX
  8
0
 10
73.91104864986059
 20
-7.274007953509991
 30
0.0
  0
VERTEX
  8
0
 10
77.0760486498606
 20
-12.755948759465488
 30
0.0
  0
VERTEX
  8
0
 10
78.64788475772936
 20
-11.848448759465487
 30
0.0
  0
VERTEX
  8
0
 10
79.81288475772936
 20
-13.86628795028323
 30
0.0
  0
SEQEND
  0
POLYLINE
  8
0
 66
1
 10
0.0
 20
0.0
 30
0.0
 70
8
  0
VERTEX
  8
0
 10
79.81288475772936
 20
-13.86628795028323
 30
0.0
  0
VERTEX
  8
0
 10
78.2410486498606
 20
-14.77378795028323
 30
0.0
  0
VERTEX
  8
0
 10
81.40604864986061
 20
-20.255728756238728
 30
0.0
  0
VERTEX
  8
0
 10
82.97788475772937
 20
-19.34822875623873
 30
0.0
  0
SEQEND
  0
LINE
  8
0
 10
72.98038475772935
 20
-2.032050807568877
 30
0.0
 11
72.75032218374298
 21
-1.058874969371708
 31
0.0
  0
LINE
  8
0
 10
74.01961524227067
 20
-1.4320508075688774
 30
0.0
 11
73.2918515310359
 21
-0.7462228549380528
 31
0.0
  0
LINE
  8
0
 10
72.75032218374298
 20
-1.058874969371708
 30
0.0
 11
73.2918515310359
 21
-0.7462228549380528
 31
0.0
  0
LINE
  8
0
 10
2.0
 20
-24.514736709748718
 30
0.0
 11
7.0050000000000034
 21
-24.514736709748718
 31
0.0
  0
LINE
  8
0
 10
27.000000000000007
 20
-24.514736709748718
 30
0.0
 11
21.995000000000005
 21
-24.514736709748718
 31
0.0
  0
POLYLINE
  8
0
 66
1
 10
0.0
 20
0.0
 30
0.0
 70
8
  0
VERTEX
  8
0
 10
7.0050000000000034
 20
-24.514736709748718
 30
0.0
  0
VERTEX
  8
0
 10
7.0050000000000034
 20
-22.699736709748716
 30
0.0
  0
VERTEX
  8
0
 10
13.335000000000004
 20
-22.699736709748716
 30
0.0
  0
VERTEX
  8
0
 10
13.335000000000004
 20
-24.514736709748718
 30
0.0
  0
VERTEX
  8
0
 10
15.665000000000004
 20
-24.514736709748718
 30
0.0
  0
SEQEND
  0
POLYLINE
  8
0
 66
1
 10
0.0
 20
0.0
 30
0.0
 70
8
  0
VERTEX
  8
0
 10
15.665000000000004
 20
-24.514736709748718
 30
0.0
  0
VERTEX
  8
0
 10
15.665000000000004
 20
-22.699736709748716
 30
0.0
  0
VERTEX
  8
0
 10
21.995000000000005
 20
-22.699736709748716
 30
0.0
  0
VERTEX
  8
0
 10
21.995000000000005
 20
-24.514736709748718
 30
0.0
  0
SEQEND
  0
LINE
  8
0
 10
2.0
 20
-25.71473670974872
 30
0.0
 11
7.0050000000000034
 21
-25.71473670974872
 31
0.0
  0
LINE
  8
0
 10
27.000000000000007
 20
-25.71473670974872
 30
0.0
 11
21.995000000000005
 21
-25.71473670974872
 31
0.0
  0
POLYLINE
  8
0
 66
1
 10
0.0
 20
0.0
 30
0.0
 70
8
  0
VERTEX
  8
0
 10
7.0050000000000034
 20
-25.71473670974872
 30
0.0
  0
VERTEX
  8
0
 10
7.0050000000000034
 20
-27.529736709748722
 30
0.0
  0
VERTEX
  8
0
 10
13.335000000000004
 20
-27.529736709748722
 30
0.0
  0
VERTEX
  8
0
 10
13.335000000000004
 20
-25.71473670974872
 30
0.0
  0
VERTEX
  8
0
 10
15.665000000000004
 20
-25.71473670974872
 30
0.0
  0
SEQEND
  0
POLYLINE
  8
0
 66
1
 10
0.0
 20
0.0
 30
0.0
 70
8
  0
VERTEX
  8
0
 10
15.665000000000004
 20
-25.71473670974872
 30
0.0
  0
VERTEX
  8
0
 10
15.665000000000004
 20
-27.529736709748722
 30
0.0
  0
VERTEX
  8
0
 10
21.995000000000005
 20
-27.529736709748722
 30
0.0
  0
VERTEX
  8
0
 10
21.995000000000005
 20
-25.71473670974872
 30
0.0
  0
SEQEND
  0
LINE
  8
0
 10
2.0
 20
-25.71473670974872
 30
0.0
 11
1.042173714778849
 21
-25.427388824182373
 31
0.0
  0
LINE
  8
0
 10
2.0
 20
-24.514736709748718
 30
0.0
 11
1.042173714778849
 21
-24.802084595315065
 31
0.0
  0
LINE
  8
0
 10
1.042173714778849
 20
-25.427388824182373
 30
0.0
 11
1.042173714778849
 21
-24.802084595315065
 31
0.0
  0
LINE
  8
0
 10
1.5196152422706635
 20
-23.68268590217984
 30
0.0
 11
0.7918515310358889
 21
-24.368513854810665
 31
0.0
  0
LINE
  8
0
 10
0.480384757729337
 20
-23.08268590217984
 30
0.0
 11
0.25032218374296034
 21
-24.055861740377008
 31
0.0
  0
LINE
  8
0
 10
0.7918515310358889
 20
-24.368513854810665
 30
0.0
 11
0.25032218374296034
 21
-24.055861740377008
 31
0.0
  0
LINE
  8
0
 10
-1.5196152422706628
 20
-23.68268590217984
 30
0.0
 11
-4.022115242270662
 21
-19.348228756238726
 31
0.0
  0
LINE
  8
0
 10
-14.01961524227066
 20
-2.0320508075688712
 30
0.0
 11
-11.517115242270659
 21
-6.366507953509986
 31
0.0
  0
POLYLINE
  8
0
 66
1
 10
0.0
 20
0.0
 30
0.0
 70
8
  0
VERTEX
  8
0
 10
-4.022115242270662
 20
-19.348228756238726
 30
0.0
  0
VERTEX
  8
0
 10
-5.593951350139418
 20
-20.255728756238724
 30
0.0
  0
VERTEX
  8
0
 10
-8.758951350139416
 20
-14.773787950283229
 30
0.0
  0
VERTEX
  8
0
 10
-7.18711524227066
 20
-13.866287950283228
 30
0.0
  0
VERTEX
  8
0
 10
-8.35211524227066
 20
-11.848448759465485
 30
0.0
  0
SEQEND
  0
POLYLINE
  8
0
 66
1
 10
0.0
 20
0.0
 30
0.0
 70
8
  0
VERTEX
  8
0
 10
-8.35211524227066
 20
-11.848448759465485
 30
0.0
  0
VERTEX
  8
0
 10
-9.923951350139415
 20
-12.755948759465486
 30
0.0
  0
VERTEX
  8
0
 10
-13.088951350139414
 20
-7.274007953509989
 30
0.0
  0
VERTEX
  8
0
 10
-11.517115242270659
 20
-6.3665079535099895
 30
0.0
  0
SEQEND
  0
LINE
  8
0
 10
-0.4803847577293364
 20
-23.08268590217984
 30
0.0
 11
-2.9828847577293356
 21
-18.748228756238724
 31
0.0
  0
LINE
  8
0
 10
-12.980384757729333
 20
-1.4320508075688716
 30
0.0
 11
-10.477884757729331
 21
-5.766507953509986
 31
0.0
  0
POLYLINE
  8
0
 66
1
 10
0.0
 20
0.0
 30
0.0
 70
8
  0
VERTEX
  8
0
 10
-2.9828847577293356
 20
-18.748228756238724
 30
0.0
  0
VERTEX
  8
0
 10
-1.4110486498605794
 20
-17.840728756238725
 30
0.0
  0
VERTEX
  8
0
 10
-4.576048649860579
 20
-12.35878795028323
 30
0.0
  0
VERTEX
  8
0
 10
-6.147884757729335
 20
-13.26628795028323
 30
0.0
  0
VERTEX
  8
0
 10
-7.312884757729334
 20
-11.248448759465488
 30
0.0
  0
SEQEND
  0
POLYLINE
  8
0
 66
1
 10
0.0
 20
0.0
 30
0.0
 70
8
  0
VERTEX
  8
0
 10
-7.312884757729334
 20
-11.248448759465488
 30
0.0
  0
VERTEX
  8
0
 10
-5.741048649860578
 20
-10.340948759465487
 30
0.0
  0
VERTEX
  8
0
 10
-8.906048649860576
 20
-4.85900795350999
 30
0.0
  0
VERTEX
  8
0
 10
-10.477884757729331
 20
-5.76650795350999
 30
0.0
  0
SEQEND
  0
LINE
  8
0
 10
-0.4803847577293364
 20
-23.08268590217984
 30
0.0
 11
-0.2503221837429601
 21
-24.055861740377008
 31
0.0
  0
LINE
  8
0
 10
-1.5196152422706628
 20
-23.68268590217984
 30
0.0
 11
-0.7918515310358883
 21
-24.368513854810665
 31
0.0
  0
LINE
  8
0
 10
-0.2503221837429601
 20
-24.055861740377008
 30
0.0
 11
-0.7918515310358883
 21
-24.368513854810665
 31
0.0
  0
LINE
  8
0
 10
-2.0
 20
-25.71473670974872
 30
0.0
 11
-7.0050000000000034
 21
-25.71473670974872
 31
0.0
  0
LINE
  8
0
 10
-27.000000000000007
 20
-25.714736709748717
 30
0.0
 11
-21.995000000000005
 21
-25.714736709748717
 31
0.0
  0
POLYLINE
  8
0
 66
1
 10
0.0
 20
0.0
 30
0.0
 70
8
  0
VERTEX
  8
0
 10
-7.0050000000000034
 20
-25.71473670974872
 30
0.0
  0
VERTEX
  8
0
 10
-7.0050000000000034
 20
-27.529736709748722
 30
0.0
  0
VERTEX
  8
0
 10
-13.335000000000004
 20
-27.529736709748722
 30
0.0
  0
VERTEX
  8
0
 10
-13.335000000000004
 20
-25.71473670974872
 30
0.0
  0
VERTEX
  8
0
 10
-15.665000000000004
 20
-25.71473670974872
 30
0.0
  0
SEQEND
  0
POLYLINE
  8
0
 66
1
 10
0.0
 20
0.0
 30
0.0
 70
8
  0
VERTEX
  8
0
 10
-15.665000000000004
 20
-25.71473670974872
 30
0.0
  0
VERTEX
  8
0
 10
-15.665000000000004
 20
-27.529736709748722
 30
0.0
  0
VERTEX
  8
0
 10
-21.995000000000005
 20
-27.529736709748722
 30
0.0
  0
VERTEX
  8
0
 10
-21.995000000000005
 20
-25.71473670974872
 30
0.0
  0
SEQEND
  0
LINE
  8
0
 10
-2.0
 20
-24.514736709748718
 30
0.0
 11
-7.0050000000000034
 21
-24.514736709748718
 31
0.0
  0
LINE
  8
0
 10
-27.000000000000007
 20
-24.514736709748714
 30
0.0
 11
-21.995000000000005
 21
-24.514736709748714
 31
0.0
  0
POLYLINE
  8
0
 66
1
 10
0.0
 20
0.0
 30
0.0
 70
8
  0
VERTEX
  8
0
 10
-7.0050000000000034
 20
-24.514736709748718
 30
0.0
  0
VERTEX
  8
0
 10
-7.0050000000000034
 20
-22.699736709748716
 30
0.0
  0
VERTEX
  8
0
 10
-13.335000000000004
 20
-22.699736709748716
 30
0.0
  0
VERTEX
  8
0
 10
-13.335000000000004
 20
-24.514736709748718
 30
0.0
  0
VERTEX
  8
0
 10
-15.665000000000004
 20
-24.514736709748718
 30
0.0
  0
SEQEND
  0
POLYLINE
  8
0
 66
1
 10
0.0
 20
0.0
 30
0.0
 70
8
  0
VERTEX
  8
0
 10
-15.665000000000004
 20
-24.514736709748718
 30
0.0
  0
VERTEX
  8
0
 10
-15.665000000000004
 20
-22.699736709748716
 30
0.0
  0
VERTEX
  8
0
 10
-21.995000000000005
 20
-22.699736709748716
 30
0.0
  0
VERTEX
  8
0
 10
-21.995000000000005
 20
-24.514736709748718
 30
0.0
  0
SEQEND
  0
LINE
  8
0
 10
-2.0
 20
-24.514736709748718
 30
0.0
 11
-1.042173714778849
 21
-24.802084595315065
 31
0.0
  0
LINE
  8
0
 10
-2.0
 20
-25.71473670974872
 30
0.0
 11
-1.042173714778849
 21
-25.427388824182373
 31
0.0
  0
LINE
  8
0
 10
-1.042173714778849
 20
-24.802084595315065
 30
0.0
 11
-1.042173714778849
 21
-25.427388824182373
 31
0.0
  0
LINE
  8
0
 10
-0.48038475772933786
 20
-27.146787517317595
 30
0.0
 11
-2.98288475772934
 21
-31.481244663258707
 31
0.0
  0
LINE
  8
0
 10
-12.980384757729347
 20
-48.79742261192855
 30
0.0
 11
-10.477884757729345
 21
-44.46296546598744
 31
0.0
  0
POLYLINE
  8
0
 66
1
 10
0.0
 20
0.0
 30
0.0
 70
8
  0
VERTEX
  8
0
 10
-2.98288475772934
 20
-31.481244663258707
 30
0.0
  0
VERTEX
  8
0
 10
-1.4110486498605845
 20
-32.388744663258706
 30
0.0
  0
VERTEX
  8
0
 10
-4.576048649860587
 20
-37.8706854692142
 30
0.0
  0
VERTEX
  8
0
 10
-6.147884757729344
 20
-36.9631854692142
 30
0.0
  0
VERTEX
  8
0
 10
-7.3128847577293445
 20
-38.98102466003194
 30
0.0
  0
SEQEND
  0
POLYLINE
  8
0
 66
1
 10
0.0
 20
0.0
 30
0.0
 70
8
  0
VERTEX
  8
0
 10
-7.3128847577293445
 20
-38.98102466003194
 30
0.0
  0
VERTEX
  8
0
 10
-5.7410486498605895
 20
-39.88852466003194
 30
0.0
  0
VERTEX
  8
0
 10
-8.906048649860592
 20
-45.37046546598744
 30
0.0
  0
VERTEX
  8
0
 10
-10.477884757729349
 20
-44.46296546598744
 30
0.0
  0
SEQEND
  0
LINE
  8
0
 10
-1.5196152422706641
 20
-26.546787517317593
 30
0.0
 11
-4.022115242270666
 21
-30.881244663258705
 31
0.0
  0
LINE
  8
0
 10
-14.019615242270675
 20
-48.19742261192856
 30
0.0
 11
-11.517115242270673
 21
-43.86296546598744
 31
0.0
  0
POLYLINE
  8
0
 66
1
 10
0.0
 20
0.0
 30
0.0
 70
8
  0
VERTEX
  8
0
 10
-4.022115242270666
 20
-30.881244663258705
 30
0.0
  0
VERTEX
  8
0
 10
-5.593951350139422
 20
-29.973744663258707
 30
0.0
  0
VERTEX
  8
0
 10
-8.758951350139425
 20
-35.4556854692142
 30
0.0
  0
VERTEX
  8
0
 10
-7.18711524227067
 20
-36.3631854692142
 30
0.0
  0
VERTEX
  8
0
 10
-8.35211524227067
 20
-38.38102466003194
 30
0.0
  0
SEQEND
  0
POLYLINE
  8
0
 66
1
 10
0.0
 20
0.0
 30
0.0
 70
8
  0
VERTEX
  8
0
 10
-8.35211524227067
 20
-38.38102466003194
 30
0.0
  0
VERTEX
  8
0
 10
-9.923951350139427
 20
-37.47352466003194
 30
0.0
  0
VERTEX
  8
0
 10
-13.08895135013943
 20
-42.95546546598744
 30
0.0
  0
VERTEX
  8
0
 10
-11.517115242270675
 20
-43.862965465987436
 30
0.0
  0
SEQEND
  0
LINE
  8
0
 10
-1.5196152422706641
 20
-26.546787517317593
 30
0.0
 11
-0.7918515310358886
 21
-25.86095956468677
 31
0.0
  0
LINE
  8
0
 10
-0.48038475772933786
 20
-27.146787517317595
 30
0.0
 11
-0.25032218374296045
 21
-26.173611679120427
 31
0.0
  0
LINE
  8
0
 10
-0.7918515310358886
 20
-25.86095956468677
 30
0.0
 11
-0.25032218374296045
 21
-26.173611679120427
 31
0.0
  0
LINE
  8
0
 10
1.5196152422706635
 20
-26.546787517317597
 30
0.0
 11
4.022115242270663
 21
-30.881244663258713
 31
0.0
  0
LINE
  8
0
 10
14.019615242270667
 20
-48.197422611928566
 30
0.0
 11
11.517115242270666
 21
-43.86296546598745
 31
0.0
  0
POLYLINE
  8
0
 66
1
 10
0.0
 20
0.0
 30
0.0
 70
8
  0
VERTEX
  8
0
 10
4.022115242270663
 20
-30.881244663258713
 30
0.0
  0
VERTEX
  8
0
 10
5.593951350139419
 20
-29.973744663258714
 30
0.0
  0
VERTEX
  8
0
 10
8.75895135013942
 20
-35.45568546921421
 30
0.0
  0
VERTEX
  8
0
 10
7.1871152422706635
 20
-36.36318546921421
 30
0.0
  0
VERTEX
  8
0
 10
8.352115242270663
 20
-38.38102466003195
 30
0.0
  0
SEQEND
  0
POLYLINE
  8
0
 66
1
 10
0.0
 20
0.0
 30
0.0
 70
8
  0
VERTEX
  8
0
 10
8.352115242270663
 20
-38.38102466003195
 30
0.0
  0
VERTEX
  8
0
 10
9.92395135013942
 20
-37.47352466003195
 30
0.0
  0
VERTEX
  8
0
 10
13.088951350139421
 20
-42.955465465987444
 30
0.0
  0
VERTEX
  8
0
 10
11.517115242270666
 20
-43.86296546598744
 30
0.0
  0
SEQEND
  0
LINE
  8
0
 10
0.480384757729337
 20
-27.1467875173176
 30
0.0
 11
2.9828847577293374
 21
-31.481244663258714
 31
0.0
  0
LINE
  8
0
 10
12.98038475772934
 20
-48.79742261192856
 30
0.0
 11
10.477884757729338
 21
-44.462965465987445
 31
0.0
  0
POLYLINE
  8
0
 66
1
 10
0.0
 20
0.0
 30
0.0
 70
8
  0
VERTEX
  8
0
 10
2.9828847577293374
 20
-31.481244663258714
 30
0.0
  0
VERTEX
  8
0
 10
1.4110486498605812
 20
-32.38874466325871
 30
0.0
  0
VERTEX
  8
0
 10
4.576048649860582
 20
-37.87068546921421
 30
0.0
  0
VERTEX
  8
0
 10
6.147884757729338
 20
-36.96318546921421
 30
0.0
  0
VERTEX
  8
0
 10
7.312884757729338
 20
-38.98102466003195
 30
0.0
  0
SEQEND
  0
POLYLINE
  8
0
 66
1
 10
0.0
 20
0.0
 30
0.0
 70
8
  0
VERTEX
  8
0
 10
7.312884757729338
 20
-38.98102466003195
 30
0.0
  0
VERTEX
  8
0
 10
5.741048649860582
 20
-39.88852466003195
 30
0.0
  0
VERTEX
  8
0
 10
8.906048649860583
 20
-45.370465465987444
 30
0.0
  0
VERTEX
  8
0
 10
10.47788475772934
 20
-44.462965465987445
 30
0.0
  0
SEQEND
  0
LINE
  8
0
 10
0.480384757729337
 20
-27.1467875173176
 30
0.0
 11
0.25032218374296034
 21
-26.17361167912043
 31
0.0
  0
LINE
  8
0
 10
1.5196152422706635
 20
-26.546787517317597
 30
0.0
 11
0.7918515310358889
 21
-25.860959564686773
 31
0.0
  0
LINE
  8
0
 10
0.25032218374296034
 20
-26.17361167912043
 30
0.0
 11
0.7918515310358889
 21
-25.860959564686773
 31
0.0
  0
LINE
  8
0
 10
31.000000000000007
 20
-24.514736709748718
 30
0.0
 11
36.00500000000001
 21
-24.514736709748718
 31
0.0
  0
LINE
  8
0
 10
56.000000000000014
 20
-24.514736709748718
 30
0.0
 11
50.99500000000001
 21
-24.514736709748718
 31
0.0
  0
POLYLINE
  8
0
 66
1
 10
0.0
 20
0.0
 30
0.0
 70
8
  0
VERTEX
  8
0
 10
36.00500000000001
 20
-24.514736709748718
 30
0.0
  0
VERTEX
  8
0
 10
36.00500000000001
 20
-22.699736709748716
 30
0.0
  0
VERTEX
  8
0
 10
42.33500000000001
 20
-22.699736709748716
 30
0.0
  0
VERTEX
  8
0
 10
42.33500000000001
 20
-24.514736709748718
 30
0.0
  0
VERTEX
  8
0
 10
44.665000000000006
 20
-24.514736709748718
 30
0.0
  0
SEQEND
  0
POLYLINE
  8
0
 66
1
 10
0.0
 20
0.0
 30
0.0
 70
8
  0
VERTEX
  8
0
 10
44.665000000000006
 20
-24.514736709748718
 30
0.0
  0
VERTEX
  8
0
 10
44.665000000000006
 20
-22.699736709748716
 30
0.0
  0
VERTEX
  8
0
 10
50.995000000000005
 20
-22.699736709748716
 30
0.0
  0
VERTEX
  8
0
 10
50.995000000000005
 20
-24.514736709748718
 30
0.0
  0
SEQEND
  0
LINE
  8
0
 10
31.000000000000007
 20
-25.71473670974872
 30
0.0
 11
36.00500000000001
 21
-25.71473670974872
 31
0.0
  0
LINE
  8
0
 10
56.000000000000014
 20
-25.71473670974872
 30
0.0
 11
50.99500000000001
 21
-25.71473670974872
 31
0.0
  0
POLYLINE
  8
0
 66
1
 10
0.0
 20
0.0
 30
0.0
 70
8
  0
VERTEX
  8
0
 10
36.00500000000001
 20
-25.71473670974872
 30
0.0
  0
VERTEX
  8
0
 10
36.00500000000001
 20
-27.529736709748722
 30
0.0
  0
VERTEX
  8
0
 10
42.33500000000001
 20
-27.529736709748722
 30
0.0
  0
VERTEX
  8
0
 10
42.33500000000001
 20
-25.71473670974872
 30
0.0
  0
VERTEX
  8
0
 10
44.665000000000006
 20
-25.71473670974872
 30
0.0
  0
SEQEND
  0
POLYLINE
  8
0
 66
1
 10
0.0
 20
0.0
 30
0.0
 70
8
  0
VERTEX
  8
0
 10
44.665000000000006
 20
-25.71473670974872
 30
0.0
  0
VERTEX
  8
0
 10
44.665000000000006
 20
-27.529736709748722
 30
0.0
  0
VERTEX
  8
0
 10
50.995000000000005
 20
-27.529736709748722
 30
0.0
  0
VERTEX
  8
0
 10
50.995000000000005
 20
-25.71473670974872
 30
0.0
  0
SEQEND
  0
LINE
  8
0
 10
31.000000000000007
 20
-25.71473670974872
 30
0.0
 11
30.042173714778855
 21
-25.427388824182373
 31
0.0
  0
LINE
  8
0
 10
31.000000000000007
 20
-24.514736709748718
 30
0.0
 11
30.042173714778855
 21
-24.802084595315065
 31
0.0
  0
LINE
  8
0
 10
30.042173714778855
 20
-25.427388824182373
 30
0.0
 11
30.042173714778855
 21
-24.802084595315065
 31
0.0
  0
LINE
  8
0
 10
30.51961524227067
 20
-23.68268590217984
 30
0.0
 11
29.791851531035896
 21
-24.368513854810665
 31
0.0
  0
LINE
  8
0
 10
29.480384757729343
 20
-23.08268590217984
 30
0.0
 11
29.250322183742966
 21
-24.055861740377008
 31
0.0
  0
LINE
  8
0
 10
29.791851531035896
 20
-24.368513854810665
 30
0.0
 11
29.250322183742966
 21
-24.055861740377008
 31
0.0
  0
LINE
  8
0
 10
28.51961524227067
 20
-23.08268590217984
 30
0.0
 11
28.749677816257048
 21
-24.055861740377008
 31
0.0
  0
LINE
  8
0
 10
27.480384757729343
 20
-23.68268590217984
 30
0.0
 11
28.20814846896412
 21
-24.368513854810665
 31
0.0
  0
LINE
  8
0
 10
28.749677816257048
 20
-24.055861740377008
 30
0.0
 11
28.20814846896412
 21
-24.368513854810665
 31
0.0
  0
LINE
  8
0
 10
27.000000000000007
 20
-24.514736709748718
 30
0.0
 11
27.95782628522116
 21
-24.802084595315065
 31
0.0
  0
LINE
  8
0
 10
27.000000000000007
 20
-25.71473670974872
 30
0.0
 11
27.95782628522116
 21
-25.427388824182373
 31
0.0
  0
LINE
  8
0
 10
27.95782628522116
 20
-24.802084595315065
 30
0.0
 11
27.95782628522116
 21
-25.427388824182373
 31
0.0
  0
LINE
  8
0
 10
28.51961524227067
 20
-27.146787517317595
 30
0.0
 11
26.01711524227067
 21
-31.481244663258707
 31
0.0
  0
LINE
  8
0
 10
16.01961524227066
 20
-48.79742261192855
 30
0.0
 11
18.52211524227066
 21
-44.46296546598744
 31
0.0
  0
POLYLINE
  8
0
 66
1
 10
0.0
 20
0.0
 30
0.0
 70
8
  0
VERTEX
  8
0
 10
26.01711524227067
 20
-31.481244663258707
 30
0.0
  0
VERTEX
  8
0
 10
27.588951350139425
 20
-32.388744663258706
 30
0.0
  0
VERTEX
  8
0
 10
24.423951350139422
 20
-37.8706854692142
 30
0.0
  0
VERTEX
  8
0
 10
22.852115242270667
 20
-36.9631854692142
 30
0.0
  0
VERTEX
  8
0
 10
21.687115242270664
 20
-38.98102466003194
 30
0.0
  0
SEQEND
  0
POLYLINE
  8
0
 66
1
 10
0.0
 20
0.0
 30
0.0
 70
8
  0
VERTEX
  8
0
 10
21.687115242270664
 20
-38.98102466003194
 30
0.0
  0
VERTEX
  8
0
 10
23.25895135013942
 20
-39.88852466003194
 30
0.0
  0
VERTEX
  8
0
 10
20.093951350139417
 20
-45.37046546598744
 30
0.0
  0
VERTEX
  8
0
 10
18.52211524227066
 20
-44.46296546598744
 30
0.0
  0
SEQEND
  0
LINE
  8
0
 10
27.480384757729343
 20
-26.546787517317593
 30
0.0
 11
24.977884757729342
 21
-30.881244663258705
 31
0.0
  0
LINE
  8
0
 10
14.980384757729333
 20
-48.19742261192856
 30
0.0
 11
17.482884757729334
 21
-43.86296546598744
 31
0.0
  0
POLYLINE
  8
0
 66
1
 10
0.0
 20
0.0
 30
0.0
 70
8
  0
VERTEX
  8
0
 10
24.977884757729342
 20
-30.881244663258705
 30
0.0
  0
VERTEX
  8
0
 10
23.406048649860587
 20
-29.973744663258707
 30
0.0
  0
VERTEX
  8
0
 10
20.241048649860584
 20
-35.4556854692142
 30
0.0
  0
VERTEX
  8
0
 10
21.81288475772934
 20
-36.3631854692142
 30
0.0
  0
VERTEX
  8
0
 10
20.647884757729337
 20
-38.38102466003194
 30
0.0
  0
SEQEND
  0
POLYLINE
  8
0
 66
1
 10
0.0
 20
0.0
 30
0.0
 70
8
  0
VERTEX
  8
0
 10
20.647884757729337
 20
-38.38102466003194
 30
0.0
  0
VERTEX
  8
0
 10
19.07604864986058
 20
-37.47352466003194
 30
0.0
  0
VERTEX
  8
0
 10
15.911048649860579
 20
-42.95546546598744
 30
0.0
  0
VERTEX
  8
0
 10
17.482884757729334
 20
-43.862965465987436
 30
0.0
  0
SEQEND
  0
LINE
  8
0
 10
27.480384757729343
 20
-26.546787517317593
 30
0.0
 11
28.20814846896412
 21
-25.86095956468677
 31
0.0
  0
LINE
  8
0
 10
28.51961524227067
 20
-27.146787517317595
 30
0.0
 11
28.749677816257048
 21
-26.173611679120427
 31
0.0
  0
LINE
  8
0
 10
28.20814846896412
 20
-25.86095956468677
 30
0.0
 11
28.749677816257048
 21
-26.173611679120427
 31
0.0
  0
LINE
  8
0
 10
30.51961524227067
 20
-26.546787517317597
 30
0.0
 11
33.02211524227067
 21
-30.881244663258713
 31
0.0
  0
LINE
  8
0
 10
43.019615242270675
 20
-48.197422611928566
 30
0.0
 11
40.51711524227067
 21
-43.86296546598745
 31
0.0
  0
POLYLINE
  8
0
 66
1
 10
0.0
 20
0.0
 30
0.0
 70
8
  0
VERTEX
  8
0
 10
33.02211524227067
 20
-30.881244663258713
 30
0.0
  0
VERTEX
  8
0
 10
34.59395135013943
 20
-29.973744663258714
 30
0.0
  0
VERTEX
  8
0
 10
37.75895135013943
 20
-35.45568546921421
 30
0.0
  0
VERTEX
  8
0
 10
36.18711524227067
 20
-36.36318546921421
 30
0.0
  0
VERTEX
  8
0
 10
37.35211524227067
 20
-38.38102466003195
 30
0.0
  0
SEQEND
  0
POLYLINE
  8
0
 66
1
 10
0.0
 20
0.0
 30
0.0
 70
8
  0
VERTEX
  8
0
 10
37.35211524227067
 20
-38.38102466003195
 30
0.0
  0
VERTEX
  8
0
 10
38.923951350139426
 20
-37.47352466003195
 30
0.0
  0
VERTEX
  8
0
 10
42.088951350139425
 20
-42.955465465987444
 30
0.0
  0
VERTEX
  8
0
 10
40.51711524227067
 20
-43.86296546598744
 30
0.0
  0
SEQEND
  0
LINE
  8
0
 10
29.480384757729343
 20
-27.1467875173176
 30
0.0
 11
31.982884757729344
 21
-31.481244663258714
 31
0.0
  0
LINE
  8
0
 10
41.980384757729354
 20
-48.79742261192856
 30
0.0
 11
39.47788475772935
 21
-44.462965465987445
 31
0.0
  0
POLYLINE
  8
0
 66
1
 10
0.0
 20
0.0
 30
0.0
 70
8
  0
VERTEX
  8
0
 10
31.982884757729344
 20
-31.481244663258714
 30
0.0
  0
VERTEX
  8
0
 10
30.41104864986059
 20
-32.38874466325871
 30
0.0
  0
VERTEX
  8
0
 10
33.57604864986059
 20
-37.87068546921421
 30
0.0
  0
VERTEX
  8
0
 10
35.147884757729344
 20
-36.96318546921421
 30
0.0
  0
VERTEX
  8
0
 10
36.31288475772934
 20
-38.98102466003195
 30
0.0
  0
SEQEND
  0
POLYLINE
  8
0
 66
1
 10
0.0
 20
0.0
 30
0.0
 70
8
  0
VERTEX
  8
0
 10
36.31288475772934
 20
-38.98102466003195
 30
0.0
  0
VERTEX
  8
0
 10
34.74104864986059
 20
-39.88852466003195
 30
0.0
  0
VERTEX
  8
0
 10
37.90604864986059
 20
-45.370465465987444
 30
0.0
  0
VERTEX
  8
0
 10
39.47788475772934
 20
-44.462965465987445
 30
0.0
  0
SEQEND
  0
LINE
  8
0
 10
29.480384757729343
 20
-27.1467875173176
 30
0.0
 11
29.250322183742966
 21
-26.17361167912043
 31
0.0
  0
LINE
  8
0
 10
30.51961524227067
 20
-26.546787517317597
 30
0.0
 11
29.791851531035896
 21
-25.860959564686773
 31
0.0
  0
LINE
  8
0
 10
29.250322183742966
 20
-26.17361167912043
 30
0.0
 11
29.791851531035896
 21
-25.860959564686773
 31
0.0
  0
LINE
  8
0
 10
60.000000000000014
 20
-24.514736709748718
 30
0.0
 11
65.00500000000002
 21
-24.514736709748718
 31
0.0
  0
LINE
  8
0
 10
85.00000000000003
 20
-24.514736709748718
 30
0.0
 11
79.99500000000002
 21
-24.514736709748718
 31
0.0
  0
POLYLINE
  8
0
 66
1
 10
0.0
 20
0.0
 30
0.0
 70
8
  0
VERTEX
  8
0
 10
65.00500000000002
 20
-24.514736709748718
 30
0.0
  0
VERTEX
  8
0
 10
65.00500000000002
 20
-22.699736709748716
 30
0.0
  0
VERTEX
  8
0
 10
71.33500000000002
 20
-22.699736709748716
 30
0.0
  0
VERTEX
  8
0
 10
71.33500000000002
 20
-24.514736709748718
 30
0.0
  0
VERTEX
  8
0
 10
73.66500000000002
 20
-24.514736709748718
 30
0.0
  0
SEQEND
  0
POLYLINE
  8
0
 66
1
 10
0.0
 20
0.0
 30
0.0
 70
8
  0
VERTEX
  8
0
 10
73.66500000000002
 20
-24.514736709748718
 30
0.0
  0
VERTEX
  8
0
 10
73.66500000000002
 20
-22.699736709748716
 30
0.0
  0
VERTEX
  8
0
 10
79.99500000000002
 20
-22.699736709748716
 30
0.0
  0
VERTEX
  8
0
 10
79.99500000000002
 20
-24.514736709748718
 30
0.0
  0
SEQEND
  0
LINE
  8
0
 10
60.000000000000014
 20
-25.71473670974872
 30
0.0
 11
65.00500000000002
 21
-25.71473670974872
 31
0.0
  0
LINE
  8
0
 10
85.00000000000003
 20
-25.71473670974872
 30
0.0
 11
79.99500000000002
 21
-25.71473670974872
 31
0.0
  0
POLYLINE
  8
0
 66
1
 10
0.0
 20
0.0
 30
0.0
 70
8
  0
VERTEX
  8
0
 10
65.00500000000002
 20
-25.71473670974872
 30
0.0
  0
VERTEX
  8
0
 10
65.00500000000002
 20
-27.529736709748722
 30
0.0
  0
VERTEX
  8
0
 10
71.33500000000002
 20
-27.529736709748722
 30
0.0
  0
VERTEX
  8
0
 10
71.33500000000002
 20
-25.71473670974872
 30
0.0
  0
VERTEX
  8
0
 10
73.66500000000002
 20
-25.71473670974872
 30
0.0
  0
SEQEND
  0
POLYLINE
  8
0
 66
1
 10
0.0
 20
0.0
 30
0.0
 70
8
  0
VERTEX
  8
0
 10
73.66500000000002
 20
-25.71473670974872
 30
0.0
  0
VERTEX
  8
0
 10
73.66500000000002
 20
-27.529736709748722
 30
0.0
  0
VERTEX
  8
0
 10
79.99500000000002
 20
-27.529736709748722
 30
0.0
  0
VERTEX
  8
0
 10
79.99500000000002
 20
-25.71473670974872
 30
0.0
  0
SEQEND
  0
LINE
  8
0
 10
60.000000000000014
 20
-25.71473670974872
 30
0.0
 11
59.04217371477886
 21
-25.427388824182373
 31
0.0
  0
LINE
  8
0
 10
60.000000000000014
 20
-24.514736709748718
 30
0.0
 11
59.04217371477886
 21
-24.802084595315065
 31
0.0
  0
LINE
  8
0
 10
59.04217371477886
 20
-25.427388824182373
 30
0.0
 11
59.04217371477886
 21
-24.802084595315065
 31
0.0
  0
LINE
  8
0
 10
59.519615242270675
 20
-23.68268590217984
 30
0.0
 11
58.7918515310359
 21
-24.368513854810665
 31
0.0
  0
LINE
  8
0
 10
58.480384757729354
 20
-23.08268590217984
 30
0.0
 11
58.25032218374297
 21
-24.055861740377008
 31
0.0
  0
LINE
  8
0
 10
58.7918515310359
 20
-24.368513854810665
 30
0.0
 11
58.25032218374297
 21
-24.055861740377008
 31
0.0
  0
LINE
  8
0
 10
57.519615242270675
 20
-23.08268590217984
 30
0.0
 11
57.749677816257055
 21
-24.055861740377008
 31
0.0
  0
LINE
  8
0
 10
56.480384757729354
 20
-23.68268590217984
 30
0.0
 11
57.208148468964126
 21
-24.368513854810665
 31
0.0
  0
LINE
  8
0
 10
57.749677816257055
 20
-24.055861740377008
 30
0.0
 11
57.208148468964126
 21
-24.368513854810665
 31
0.0
  0
LINE
  8
0
 10
56.000000000000014
 20
-24.514736709748718
 30
0.0
 11
56.95782628522117
 21
-24.802084595315065
 31
0.0
  0
LINE
  8
0
 10
56.000000000000014
 20
-25.71473670974872
 30
0.0
 11
56.95782628522117
 21
-25.427388824182373
 31
0.0
  0
LINE
  8
0
 10
56.95782628522117
 20
-24.802084595315065
 30
0.0
 11
56.95782628522117
 21
-25.427388824182373
 31
0.0
  0
LINE
  8
0
 10
57.519615242270675
 20
-27.146787517317595
 30
0.0
 11
55.01711524227067
 21
-31.481244663258707
 31
0.0
  0
LINE
  8
0
 10
45.01961524227066
 20
-48.79742261192855
 30
0.0
 11
47.52211524227066
 21
-44.46296546598744
 31
0.0
  0
POLYLINE
  8
0
 66
1
 10
0.0
 20
0.0
 30
0.0
 70
8
  0
VERTEX
  8
0
 10
55.01711524227067
 20
-31.481244663258707
 30
0.0
  0
VERTEX
  8
0
 10
56.588951350139425
 20
-32.388744663258706
 30
0.0
  0
VERTEX
  8
0
 10
53.42395135013942
 20
-37.8706854692142
 30
0.0
  0
VERTEX
  8
0
 10
51.85211524227066
 20
-36.9631854692142
 30
0.0
  0
VERTEX
  8
0
 10
50.687115242270664
 20
-38.98102466003194
 30
0.0
  0
SEQEND
  0
POLYLINE
  8
0
 66
1
 10
0.0
 20
0.0
 30
0.0
 70
8
  0
VERTEX
  8
0
 10
50.687115242270664
 20
-38.98102466003194
 30
0.0
  0
VERTEX
  8
0
 10
52.25895135013942
 20
-39.88852466003194
 30
0.0
  0
VERTEX
  8
0
 10
49.09395135013942
 20
-45.37046546598744
 30
0.0
  0
VERTEX
  8
0
 10
47.522115242270665
 20
-44.46296546598744
 30
0.0
  0
SEQEND
  0
LINE
  8
0
 10
56.480384757729354
 20
-26.546787517317593
 30
0.0
 11
53.97788475772935
 21
-30.881244663258705
 31
0.0
  0
LINE
  8
0
 10
43.98038475772934
 20
-48.19742261192856
 30
0.0
 11
46.48288475772934
 21
-43.86296546598744
 31
0.0
  0
POLYLINE
  8
0
 66
1
 10
0.0
 20
0.0
 30
0.0
 70
8
  0
VERTEX
  8
0
 10
53.97788475772935
 20
-30.881244663258705
 30
0.0
  0
VERTEX
  8
0
 10
52.406048649860594
 20
-29.973744663258707
 30
0.0
  0
VERTEX
  8
0
 10
49.24104864986059
 20
-35.4556854692142
 30
0.0
  0
VERTEX
  8
0
 10
50.81288475772934
 20
-36.3631854692142
 30
0.0
  0
VERTEX
  8
0
 10
49.647884757729344
 20
-38.38102466003194
 30
0.0
  0
SEQEND
  0
POLYLINE
  8
0
 66
1
 10
0.0
 20
0.0
 30
0.0
 70
8
  0
VERTEX
  8
0
 10
49.647884757729344
 20
-38.38102466003194
 30
0.0
  0
VERTEX
  8
0
 10
48.07604864986059
 20
-37.47352466003194
 30
0.0
  0
VERTEX
  8
0
 10
44.91104864986059
 20
-42.95546546598744
 30
0.0
  0
VERTEX
  8
0
 10
46.482884757729344
 20
-43.862965465987436
 30
0.0
  0
SEQEND
  0
LINE
  8
0
 10
56.480384757729354
 20
-26.546787517317593
 30
0.0
 11
57.208148468964126
 21
-25.86095956468677
 31
0.0
  0
LINE
  8
0
 10
57.519615242270675
 20
-27.146787517317595
 30
0.0
 11
57.749677816257055
 21
-26.173611679120427
 31
0.0
  0
LINE
  8
0
 10
57.208148468964126
 20
-25.86095956468677
 30
0.0
 11
57.749677816257055
 21
-26.173611679120427
 31
0.0
  0
LINE
  8
0
 10
59.519615242270675
 20
-26.546787517317597
 30
0.0
 11
62.02211524227067
 21
-30.881244663258713
 31
0.0
  0
LINE
  8
0
 10
72.01961524227067
 20
-48.197422611928566
 30
0.0
 11
69.51711524227068
 21
-43.86296546598745
 31
0.0
  0
POLYLINE
  8
0
 66
1
 10
0.0
 20
0.0
 30
0.0
 70
8
  0
VERTEX
  8
0
 10
62.02211524227067
 20
-30.881244663258713
 30
0.0
  0
VERTEX
  8
0
 10
63.59395135013943
 20
-29.973744663258714
 30
0.0
  0
VERTEX
  8
0
 10
66.75895135013943
 20
-35.45568546921421
 30
0.0
  0
VERTEX
  8
0
 10
65.18711524227066
 20
-36.36318546921421
 30
0.0
  0
VERTEX
  8
0
 10
66.35211524227067
 20
-38.38102466003195
 30
0.0
  0
SEQEND
  0
POLYLINE
  8
0
 66
1
 10
0.0
 20
0.0
 30
0.0
 70
8
  0
VERTEX
  8
0
 10
66.35211524227067
 20
-38.38102466003195
 30
0.0
  0
VERTEX
  8
0
 10
67.92395135013943
 20
-37.47352466003195
 30
0.0
  0
VERTEX
  8
0
 10
71.08895135013944
 20
-42.955465465987444
 30
0.0
  0
VERTEX
  8
0
 10
69.51711524227068
 20
-43.86296546598744
 30
0.0
  0
SEQEND
  0
LINE
  8
0
 10
58.480384757729354
 20
-27.1467875173176
 30
0.0
 11
60.98288475772935
 21
-31.481244663258714
 31
0.0
  0
LINE
  8
0
 10
70.98038475772935
 20
-48.79742261192856
 30
0.0
 11
68.47788475772936
 21
-44.462965465987445
 31
0.0
  0
POLYLINE
  8
0
 66
1
 10
0.0
 20
0.0
 30
0.0
 70
8
  0
VERTEX
  8
0
 10
60.98288475772935
 20
-31.481244663258714
 30
0.0
  0
VERTEX
  8
0
 10
59.4110486498606
 20
-32.38874466325871
 30
0.0
  0
VERTEX
  8
0
 10
62.576048649860596
 20
-37.87068546921421
 30
0.0
  0
VERTEX
  8
0
 10
64.14788475772936
 20
-36.96318546921421
 30
0.0
  0
VERTEX
  8
0
 10
65.31288475772936
 20
-38.98102466003195
 30
0.0
  0
SEQEND
  0
POLYLINE
  8
0
 66
1
 10
0.0
 20
0.0
 30
0.0
 70
8
  0
VERTEX
  8
0
 10
65.31288475772936
 20
-38.98102466003195
 30
0.0
  0
VERTEX
  8
0
 10
63.74104864986061
 20
-39.88852466003195
 30
0.0
  0
VERTEX
  8
0
 10
66.90604864986061
 20
-45.370465465987444
 30
0.0
  0
VERTEX
  8
0
 10
68.47788475772937
 20
-44.462965465987445
 30
0.0
  0
SEQEND
  0
LINE
  8
0
 10
58.480384757729354
 20
-27.1467875173176
 30
0.0
 11
58.25032218374297
 21
-26.17361167912043
 31
0.0
  0
LINE
  8
0
 10
59.519615242270675
 20
-26.546787517317597
 30
0.0
 11
58.7918515310359
 21
-25.860959564686773
 31
0.0
  0
LINE
  8
0
 10
58.25032218374297
 20
-26.17361167912043
 30
0.0
 11
58.7918515310359
 21
-25.860959564686773
 31
0.0
  0
LINE
  8
0
 10
16.500000000000004
 20
-49.62947341949744
 30
0.0
 11
21.505000000000006
 21
-49.62947341949744
 31
0.0
  0
LINE
  8
0
 10
41.500000000000014
 20
-49.62947341949744
 30
0.0
 11
36.49500000000001
 21
-49.62947341949744
 31
0.0
  0
POLYLINE
  8
0
 66
1
 10
0.0
 20
0.0
 30
0.0
 70
8
  0
VERTEX
  8
0
 10
21.505000000000006
 20
-49.62947341949744
 30
0.0
  0
VERTEX
  8
0
 10
21.505000000000006
 20
-47.81447341949744
 30
0.0
  0
VERTEX
  8
0
 10
27.835000000000008
 20
-47.81447341949744
 30
0.0
  0
VERTEX
  8
0
 10
27.835000000000008
 20
-49.62947341949744
 30
0.0
  0
VERTEX
  8
0
 10
30.165000000000006
 20
-49.62947341949744
 30
0.0
  0
SEQEND
  0
POLYLINE
  8
0
 66
1
 10
0.0
 20
0.0
 30
0.0
 70
8
  0
VERTEX
  8
0
 10
30.165000000000006
 20
-49.62947341949744
 30
0.0
  0
VERTEX
  8
0
 10
30.165000000000006
 20
-47.81447341949744
 30
0.0
  0
VERTEX
  8
0
 10
36.495000000000005
 20
-47.81447341949744
 30
0.0
  0
VERTEX
  8
0
 10
36.495000000000005
 20
-49.62947341949744
 30
0.0
  0
SEQEND
  0
LINE
  8
0
 10
16.500000000000004
 20
-50.82947341949744
 30
0.0
 11
21.505000000000006
 21
-50.82947341949744
 31
0.0
  0
LINE
  8
0
 10
41.500000000000014
 20
-50.82947341949744
 30
0.0
 11
36.49500000000001
 21
-50.82947341949744
 31
0.0
  0
POLYLINE
  8
0
 66
1
 10
0.0
 20
0.0
 30
0.0
 70
8
  0
VERTEX
  8
0
 10
21.505000000000006
 20
-50.82947341949744
 30
0.0
  0
VERTEX
  8
0
 10
21.505000000000006
 20
-52.64447341949744
 30
0.0
  0
VERTEX
  8
0
 10
27.835000000000008
 20
-52.64447341949744
 30
0.0
  0
VERTEX
  8
0
 10
27.835000000000008
 20
-50.82947341949744
 30
0.0
  0
VERTEX
  8
0
 10
30.165000000000006
 20
-50.82947341949744
 30
0.0
  0
SEQEND
  0
POLYLINE
  8
0
 66
1
 10
0.0
 20
0.0
 30
0.0
 70
8
  0
VERTEX
  8
0
 10
30.165000000000006
 20
-50.82947341949744
 30
0.0
  0
VERTEX
  8
0
 10
30.165000000000006
 20
-52.64447341949744
 30
0.0
  0
VERTEX
  8
0
 10
36.495000000000005
 20
-52.64447341949744
 30
0.0
  0
VERTEX
  8
0
 10
36.495000000000005
 20
-50.82947341949744
 30
0.0
  0
SEQEND
  0
LINE
  8
0
 10
16.500000000000004
 20
-50.82947341949744
 30
0.0
 11
15.542173714778853
 21
-50.54212553393109
 31
0.0
  0
LINE
  8
0
 10
16.500000000000004
 20
-49.62947341949744
 30
0.0
 11
15.542173714778853
 21
-49.916821305063785
 31
0.0
  0
LINE
  8
0
 10
15.542173714778853
 20
-50.54212553393109
 30
0.0
 11
15.542173714778853
 21
-49.916821305063785
 31
0.0
  0
LINE
  8
0
 10
16.019615242270667
 20
-48.79742261192856
 30
0.0
 11
15.291851531035892
 21
-49.483250564559384
 31
0.0
  0
LINE
  8
0
 10
14.98038475772934
 20
-48.197422611928566
 30
0.0
 11
14.750322183742963
 21
-49.17059845012574
 31
0.0
  0
LINE
  8
0
 10
15.291851531035892
 20
-49.483250564559384
 30
0.0
 11
14.750322183742963
 21
-49.17059845012574
 31
0.0
  0
LINE
  8
0
 10
14.019615242270667
 20
-48.197422611928566
 30
0.0
 11
14.249677816257044
 21
-49.17059845012574
 31
0.0
  0
LINE
  8
0
 10
12.98038475772934
 20
-48.79742261192856
 30
0.0
 11
13.708148468964115
 21
-49.483250564559384
 31
0.0
  0
LINE
  8
0
 10
14.249677816257044
 20
-49.17059845012574
 30
0.0
 11
13.708148468964115
 21
-49.483250564559384
 31
0.0
  0
LINE
  8
0
 10
12.500000000000004
 20
-50.82947341949744
 30
0.0
 11
7.495
 21
-50.82947341949744
 31
0.0
  0
LINE
  8
0
 10
-12.500000000000004
 20
-50.82947341949744
 30
0.0
 11
-7.495
 21
-50.82947341949744
 31
0.0
  0
POLYLINE
  8
0
 66
1
 10
0.0
 20
0.0
 30
0.0
 70
8
  0
VERTEX
  8
0
 10
7.495
 20
-50.82947341949744
 30
0.0
  0
VERTEX
  8
0
 10
7.495
 20
-52.64447341949744
 30
0.0
  0
VERTEX
  8
0
 10
1.165
 20
-52.64447341949744
 30
0.0
  0
VERTEX
  8
0
 10
1.1650000000000007
 20
-50.82947341949744
 30
0.0
  0
VERTEX
  8
0
 10
-1.1649999999999994
 20
-50.82947341949744
 30
0.0
  0
SEQEND
  0
POLYLINE
  8
0
 66
1
 10
0.0
 20
0.0
 30
0.0
 70
8
  0
VERTEX
  8
0
 10
-1.1649999999999994
 20
-50.82947341949744
 30
0.0
  0
VERTEX
  8
0
 10
-1.1649999999999998
 20
-52.64447341949744
 30
0.0
  0
VERTEX
  8
0
 10
-7.495
 20
-52.64447341949744
 30
0.0
  0
VERTEX
  8
0
 10
-7.494999999999999
 20
-50.82947341949744
 30
0.0
  0
SEQEND
  0
LINE
  8
0
 10
12.500000000000004
 20
-49.62947341949744
 30
0.0
 11
7.495
 21
-49.62947341949744
 31
0.0
  0
LINE
  8
0
 10
-12.500000000000004
 20
-49.62947341949744
 30
0.0
 11
-7.495
 21
-49.62947341949744
 31
0.0
  0
POLYLINE
  8
0
 66
1
 10
0.0
 20
0.0
 30
0.0
 70
8
  0
VERTEX
  8
0
 10
7.495
 20
-49.62947341949744
 30
0.0
  0
VERTEX
  8
0
 10
7.495
 20
-47.81447341949744
 30
0.0
  0
VERTEX
  8
0
 10
1.165
 20
-47.81447341949744
 30
0.0
  0
VERTEX
  8
0
 10
1.1649999999999996
 20
-49.62947341949744
 30
0.0
  0
VERTEX
  8
0
 10
-1.1650000000000005
 20
-49.62947341949744
 30
0.0
  0
SEQEND
  0
POLYLINE
  8
0
 66
1
 10
0.0
 20
0.0
 30
0.0
 70
8
  0
VERTEX
  8
0
 10
-1.1650000000000005
 20
-49.62947341949744
 30
0.0
  0
VERTEX
  8
0
 10
-1.1650000000000003
 20
-47.81447341949744
 30
0.0
  0
VERTEX
  8
0
 10
-7.495
 20
-47.81447341949744
 30
0.0
  0
VERTEX
  8
0
 10
-7.495
 20
-49.62947341949744
 30
0.0
  0
SEQEND
  0
LINE
  8
0
 10
12.500000000000004
 20
-49.62947341949744
 30
0.0
 11
13.457826285221154
 21
-49.916821305063785
 31
0.0
  0
LINE
  8
0
 10
12.500000000000004
 20
-50.82947341949744
 30
0.0
 11
13.457826285221154
 21
-50.54212553393109
 31
0.0
  0
LINE
  8
0
 10
13.457826285221154
 20
-49.916821305063785
 30
0.0
 11
13.457826285221154
 21
-50.54212553393109
 31
0.0
  0
LINE
  8
0
 10
14.019615242270667
 20
-52.26152422706631
 30
0.0
 11
11.517115242270666
 21
-56.595981373007426
 31
0.0
  0
LINE
  8
0
 10
1.519615242270656
 20
-73.91215932167727
 30
0.0
 11
4.022115242270656
 21
-69.57770217573615
 31
0.0
  0
POLYLINE
  8
0
 66
1
 10
0.0
 20
0.0
 30
0.0
 70
8
  0
VERTEX
  8
0
 10
11.517115242270666
 20
-56.595981373007426
 30
0.0
  0
VERTEX
  8
0
 10
13.088951350139421
 20
-57.503481373007425
 30
0.0
  0
VERTEX
  8
0
 10
9.923951350139419
 20
-62.98542217896292
 30
0.0
  0
VERTEX
  8
0
 10
8.352115242270662
 20
-62.07792217896292
 30
0.0
  0
VERTEX
  8
0
 10
7.187115242270661
 20
-64.09576136978066
 30
0.0
  0
SEQEND
  0
POLYLINE
  8
0
 66
1
 10
0.0
 20
0.0
 30
0.0
 70
8
  0
VERTEX
  8
0
 10
7.187115242270661
 20
-64.09576136978066
 30
0.0
  0
VERTEX
  8
0
 10
8.758951350139416
 20
-65.00326136978066
 30
0.0
  0
VERTEX
  8
0
 10
5.593951350139413
 20
-70.48520217573615
 30
0.0
  0
VERTEX
  8
0
 10
4.022115242270656
 20
-69.57770217573615
 30
0.0
  0
SEQEND
  0
LINE
  8
0
 10
12.98038475772934
 20
-51.661524227066316
 30
0.0
 11
10.477884757729338
 21
-55.99598137300743
 31
0.0
  0
LINE
  8
0
 10
0.48038475772932965
 20
-73.31215932167727
 30
0.0
 11
2.9828847577293303
 21
-68.97770217573616
 31
0.0
  0
POLYLINE
  8
0
 66
1
 10
0.0
 20
0.0
 30
0.0
 70
8
  0
VERTEX
  8
0
 10
10.477884757729338
 20
-55.99598137300743
 30
0.0
  0
VERTEX
  8
0
 10
8.906048649860582
 20
-55.08848137300743
 30
0.0
  0
VERTEX
  8
0
 10
5.741048649860579
 20
-60.57042217896293
 30
0.0
  0
VERTEX
  8
0
 10
7.312884757729334
 20
-61.47792217896293
 30
0.0
  0
VERTEX
  8
0
 10
6.147884757729333
 20
-63.495761369780666
 30
0.0
  0
SEQEND
  0
POLYLINE
  8
0
 66
1
 10
0.0
 20
0.0
 30
0.0
 70
8
  0
VERTEX
  8
0
 10
6.147884757729333
 20
-63.495761369780666
 30
0.0
  0
VERTEX
  8
0
 10
4.576048649860577
 20
-62.58826136978067
 30
0.0
  0
VERTEX
  8
0
 10
1.4110486498605743
 20
-68.07020217573616
 30
0.0
  0
VERTEX
  8
0
 10
2.98288475772933
 20
-68.97770217573616
 30
0.0
  0
SEQEND
  0
LINE
  8
0
 10
12.98038475772934
 20
-51.661524227066316
 30
0.0
 11
13.708148468964115
 21
-50.97569627443549
 31
0.0
  0
LINE
  8
0
 10
14.019615242270667
 20
-52.26152422706631
 30
0.0
 11
14.249677816257044
 21
-51.28834838886914
 31
0.0
  0
LINE
  8
0
 10
13.708148468964115
 20
-50.97569627443549
 30
0.0
 11
14.249677816257044
 21
-51.28834838886914
 31
0.0
  0
LINE
  8
0
 10
16.019615242270667
 20
-51.661524227066316
 30
0.0
 11
18.52211524227067
 21
-55.99598137300743
 31
0.0
  0
LINE
  8
0
 10
28.51961524227067
 20
-73.31215932167729
 30
0.0
 11
26.01711524227067
 21
-68.97770217573617
 31
0.0
  0
POLYLINE
  8
0
 66
1
 10
0.0
 20
0.0
 30
0.0
 70
8
  0
VERTEX
  8
0
 10
18.52211524227067
 20
-55.99598137300743
 30
0.0
  0
VERTEX
  8
0
 10
20.093951350139424
 20
-55.08848137300743
 30
0.0
  0
VERTEX
  8
0
 10
23.258951350139426
 20
-60.57042217896293
 30
0.0
  0
VERTEX
  8
0
 10
21.68711524227067
 20
-61.47792217896293
 30
0.0
  0
VERTEX
  8
0
 10
22.85211524227067
 20
-63.495761369780666
 30
0.0
  0
SEQEND
  0
POLYLINE
  8
0
 66
1
 10
0.0
 20
0.0
 30
0.0
 70
8
  0
VERTEX
  8
0
 10
22.85211524227067
 20
-63.495761369780666
 30
0.0
  0
VERTEX
  8
0
 10
24.423951350139426
 20
-62.58826136978067
 30
0.0
  0
VERTEX
  8
0
 10
27.588951350139425
 20
-68.07020217573617
 30
0.0
  0
VERTEX
  8
0
 10
26.01711524227067
 20
-68.97770217573617
 30
0.0
  0
SEQEND
  0
LINE
  8
0
 10
14.98038475772934
 20
-52.26152422706631
 30
0.0
 11
17.48288475772934
 21
-56.595981373007426
 31
0.0
  0
LINE
  8
0
 10
27.480384757729343
 20
-73.91215932167728
 30
0.0
 11
24.977884757729342
 21
-69.57770217573616
 31
0.0
  0
POLYLINE
  8
0
 66
1
 10
0.0
 20
0.0
 30
0.0
 70
8
  0
VERTEX
  8
0
 10
17.48288475772934
 20
-56.595981373007426
 30
0.0
  0
VERTEX
  8
0
 10
15.911048649860584
 20
-57.503481373007425
 30
0.0
  0
VERTEX
  8
0
 10
19.076048649860585
 20
-62.98542217896292
 30
0.0
  0
VERTEX
  8
0
 10
20.64788475772934
 20
-62.07792217896292
 30
0.0
  0
VERTEX
  8
0
 10
21.81288475772934
 20
-64.09576136978066
 30
0.0
  0
SEQEND
  0
POLYLINE
  8
0
 66
1
 10
0.0
 20
0.0
 30
0.0
 70
8
  0
VERTEX
  8
0
 10
21.81288475772934
 20
-64.09576136978066
 30
0.0
  0
VERTEX
  8
0
 10
20.241048649860584
 20
-65.00326136978066
 30
0.0
  0
VERTEX
  8
0
 10
23.406048649860587
 20
-70.48520217573616
 30
0.0
  0
VERTEX
  8
0
 10
24.977884757729342
 20
-69.57770217573616
 30
0.0
  0
SEQEND
  0
LINE
  8
0
 10
14.98038475772934
 20
-52.26152422706631
 30
0.0
 11
14.750322183742963
 21
-51.28834838886914
 31
0.0
  0
LINE
  8
0
 10
16.019615242270667
 20
-51.661524227066316
 30
0.0
 11
15.291851531035892
 21
-50.97569627443549
 31
0.0
  0
LINE
  8
0
 10
14.750322183742963
 20
-51.28834838886914
 30
0.0
 11
15.291851531035892
 21
-50.97569627443549
 31
0.0
  0
LINE
  8
0
 10
45.500000000000014
 20
-49.62947341949744
 30
0.0
 11
50.50500000000002
 21
-49.62947341949744
 31
0.0
  0
LINE
  8
0
 10
70.50000000000003
 20
-49.62947341949744
 30
0.0
 11
65.49500000000002
 21
-49.62947341949744
 31
0.0
  0
POLYLINE
  8
0
 66
1
 10
0.0
 20
0.0
 30
0.0
 70
8
  0
VERTEX
  8
0
 10
50.50500000000002
 20
-49.62947341949744
 30
0.0
  0
VERTEX
  8
0
 10
50.50500000000002
 20
-47.81447341949744
 30
0.0
  0
VERTEX
  8
0
 10
56.835000000000015
 20
-47.81447341949744
 30
0.0
  0
VERTEX
  8
0
 10
56.835000000000015
 20
-49.62947341949744
 30
0.0
  0
VERTEX
  8
0
 10
59.16500000000001
 20
-49.62947341949744
 30
0.0
  0
SEQEND
  0
POLYLINE
  8
0
 66
1
 10
0.0
 20
0.0
 30
0.0
 70
8
  0
VERTEX
  8
0
 10
59.16500000000001
 20
-49.62947341949744
 30
0.0
  0
VERTEX
  8
0
 10
59.16500000000001
 20
-47.81447341949744
 30
0.0
  0
VERTEX
  8
0
 10
65.49500000000002
 20
-47.81447341949744
 30
0.0
  0
VERTEX
  8
0
 10
65.49500000000002
 20
-49.62947341949744
 30
0.0
  0
SEQEND
  0
LINE
  8
0
 10
45.500000000000014
 20
-50.82947341949744
 30
0.0
 11
50.50500000000002
 21
-50.82947341949744
 31
0.0
  0
LINE
  8
0
 10
70.50000000000003
 20
-50.82947341949744
 30
0.0
 11
65.49500000000002
 21
-50.82947341949744
 31
0.0
  0
POLYLINE
  8
0
 66
1
 10
0.0
 20
0.0
 30
0.0
 70
8
  0
VERTEX
  8
0
 10
50.50500000000002
 20
-50.82947341949744
 30
0.0
  0
VERTEX
  8
0
 10
50.50500000000002
 20
-52.64447341949744
 30
0.0
  0
VERTEX
  8
0
 10
56.835000000000015
 20
-52.64447341949744
 30
0.0
  0
VERTEX
  8
0
 10
56.835000000000015
 20
-50.82947341949744
 30
0.0
  0
VERTEX
  8
0
 10
59.16500000000001
 20
-50.82947341949744
 30
0.0
  0
SEQEND
  0
POLYLINE
  8
0
 66
1
 10
0.0
 20
0.0
 30
0.0
 70
8
  0
VERTEX
  8
0
 10
59.16500000000001
 20
-50.82947341949744
 30
0.0
  0
VERTEX
  8
0
 10
59.16500000000001
 20
-52.64447341949744
 30
0.0
  0
VERTEX
  8
0
 10
65.49500000000002
 20
-52.64447341949744
 30
0.0
  0
VERTEX
  8
0
 10
65.49500000000002
 20
-50.82947341949744
 30
0.0
  0
SEQEND
  0
LINE
  8
0
 10
45.500000000000014
 20
-50.82947341949744
 30
0.0
 11
44.54217371477886
 21
-50.54212553393109
 31
0.0
  0
LINE
  8
0
 10
45.500000000000014
 20
-49.62947341949744
 30
0.0
 11
44.54217371477886
 21
-49.916821305063785
 31
0.0
  0
LINE
  8
0
 10
44.54217371477886
 20
-50.54212553393109
 30
0.0
 11
44.54217371477886
 21
-49.916821305063785
 31
0.0
  0
LINE
  8
0
 10
45.019615242270675
 20
-48.79742261192856
 30
0.0
 11
44.2918515310359
 21
-49.483250564559384
 31
0.0
  0
LINE
  8
0
 10
43.980384757729354
 20
-48.197422611928566
 30
0.0
 11
43.75032218374297
 21
-49.17059845012574
 31
0.0
  0
LINE
  8
0
 10
44.2918515310359
 20
-49.483250564559384
 30
0.0
 11
43.75032218374297
 21
-49.17059845012574
 31
0.0
  0
LINE
  8
0
 10
43.019615242270675
 20
-48.197422611928566
 30
0.0
 11
43.249677816257055
 21
-49.17059845012574
 31
0.0
  0
LINE
  8
0
 10
41.980384757729354
 20
-48.79742261192856
 30
0.0
 11
42.708148468964126
 21
-49.483250564559384
 31
0.0
  0
LINE
  8
0
 10
43.249677816257055
 20
-49.17059845012574
 30
0.0
 11
42.708148468964126
 21
-49.483250564559384
 31
0.0
  0
LINE
  8
0
 10
41.500000000000014
 20
-49.62947341949744
 30
0.0
 11
42.45782628522117
 21
-49.916821305063785
 31
0.0
  0
LINE
  8
0
 10
41.500000000000014
 20
-50.82947341949744
 30
0.0
 11
42.45782628522117
 21
-50.54212553393109
 31
0.0
  0
LINE
  8
0
 10
42.45782628522117
 20
-49.916821305063785
 30
0.0
 11
42.45782628522117
 21
-50.54212553393109
 31
0.0
  0
LINE
  8
0
 10
43.019615242270675
 20
-52.26152422706631
 30
0.0
 11
40.51711524227067
 21
-56.595981373007426
 31
0.0
  0
LINE
  8
0
 10
30.519615242270667
 20
-73.91215932167727
 30
0.0
 11
33.022115242270665
 21
-69.57770217573615
 31
0.0
  0
POLYLINE
  8
0
 66
1
 10
0.0
 20
0.0
 30
0.0
 70
8
  0
VERTEX
  8
0
 10
40.51711524227067
 20
-56.595981373007426
 30
0.0
  0
VERTEX
  8
0
 10
42.088951350139425
 20
-57.503481373007425
 30
0.0
  0
VERTEX
  8
0
 10
38.92395135013942
 20
-62.98542217896292
 30
0.0
  0
VERTEX
  8
0
 10
37.35211524227066
 20
-62.07792217896292
 30
0.0
  0
VERTEX
  8
0
 10
36.187115242270664
 20
-64.09576136978066
 30
0.0
  0
SEQEND
  0
POLYLINE
  8
0
 66
1
 10
0.0
 20
0.0
 30
0.0
 70
8
  0
VERTEX
  8
0
 10
36.187115242270664
 20
-64.09576136978066
 30
0.0
  0
VERTEX
  8
0
 10
37.75895135013942
 20
-65.00326136978066
 30
0.0
  0
VERTEX
  8
0
 10
34.59395135013942
 20
-70.48520217573615
 30
0.0
  0
VERTEX
  8
0
 10
33.022115242270665
 20
-69.57770217573615
 30
0.0
  0
SEQEND
  0
LINE
  8
0
 10
41.980384757729354
 20
-51.661524227066316
 30
0.0
 11
39.47788475772935
 21
-55.99598137300743
 31
0.0
  0
LINE
  8
0
 10
29.48038475772934
 20
-73.31215932167727
 30
0.0
 11
31.98288475772934
 21
-68.97770217573616
 31
0.0
  0
POLYLINE
  8
0
 66
1
 10
0.0
 20
0.0
 30
0.0
 70
8
  0
VERTEX
  8
0
 10
39.47788475772935
 20
-55.99598137300743
 30
0.0
  0
VERTEX
  8
0
 10
37.906048649860594
 20
-55.08848137300743
 30
0.0
  0
VERTEX
  8
0
 10
34.74104864986059
 20
-60.57042217896293
 30
0.0
  0
VERTEX
  8
0
 10
36.31288475772934
 20
-61.47792217896293
 30
0.0
  0
VERTEX
  8
0
 10
35.147884757729344
 20
-63.495761369780666
 30
0.0
  0
SEQEND
  0
POLYLINE
  8
0
 66
1
 10
0.0
 20
0.0
 30
0.0
 70
8
  0
VERTEX
  8
0
 10
35.147884757729344
 20
-63.495761369780666
 30
0.0
  0
VERTEX
  8
0
 10
33.57604864986059
 20
-62.58826136978067
 30
0.0
  0
VERTEX
  8
0
 10
30.411048649860586
 20
-68.07020217573616
 30
0.0
  0
VERTEX
  8
0
 10
31.98288475772934
 20
-68.97770217573616
 30
0.0
  0
SEQEND
  0
LINE
  8
0
 10
41.980384757729354
 20
-51.661524227066316
 30
0.0
 11
42.708148468964126
 21
-50.97569627443549
 31
0.0
  0
LINE
  8
0
 10
43.019615242270675
 20
-52.26152422706631
 30
0.0
 11
43.249677816257055
 21
-51.28834838886914
 31
0.0
  0
LINE
  8
0
 10
42.708148468964126
 20
-50.97569627443549
 30
0.0
 11
43.249677816257055
 21
-51.28834838886914
 31
0.0
  0
LINE
  8
0
 10
45.019615242270675
 20
-51.661524227066316
 30
0.0
 11
47.52211524227067
 21
-55.99598137300743
 31
0.0
  0
LINE
  8
0
 10
57.519615242270675
 20
-73.31215932167729
 30
0.0
 11
55.01711524227067
 21
-68.97770217573617
 31
0.0
  0
POLYLINE
  8
0
 66
1
 10
0.0
 20
0.0
 30
0.0
 70
8
  0
VERTEX
  8
0
 10
47.52211524227067
 20
-55.99598137300743
 30
0.0
  0
VERTEX
  8
0
 10
49.09395135013943
 20
-55.08848137300743
 30
0.0
  0
VERTEX
  8
0
 10
52.25895135013943
 20
-60.57042217896293
 30
0.0
  0
VERTEX
  8
0
 10
50.68711524227067
 20
-61.47792217896293
 30
0.0
  0
VERTEX
  8
0
 10
51.85211524227067
 20
-63.495761369780666
 30
0.0
  0
SEQEND
  0
POLYLINE
  8
0
 66
1
 10
0.0
 20
0.0
 30
0.0
 70
8
  0
VERTEX
  8
0
 10
51.85211524227067
 20
-63.495761369780666
 30
0.0
  0
VERTEX
  8
0
 10
53.423951350139426
 20
-62.58826136978067
 30
0.0
  0
VERTEX
  8
0
 10
56.588951350139425
 20
-68.07020217573617
 30
0.0
  0
VERTEX
  8
0
 10
55.01711524227067
 20
-68.97770217573617
 30
0.0
  0
SEQEND
  0
LINE
  8
0
 10
43.980384757729354
 20
-52.26152422706631
 30
0.0
 11
46.48288475772935
 21
-56.595981373007426
 31
0.0
  0
LINE
  8
0
 10
56.480384757729354
 20
-73.91215932167728
 30
0.0
 11
53.97788475772935
 21
-69.57770217573616
 31
0.0
  0
POLYLINE
  8
0
 66
1
 10
0.0
 20
0.0
 30
0.0
 70
8
  0
VERTEX
  8
0
 10
46.48288475772935
 20
-56.595981373007426
 30
0.0
  0
VERTEX
  8
0
 10
44.9110486498606
 20
-57.503481373007425
 30
0.0
  0
VERTEX
  8
0
 10
48.076048649860596
 20
-62.98542217896292
 30
0.0
  0
VERTEX
  8
0
 10
49.64788475772935
 20
-62.07792217896292
 30
0.0
  0
VERTEX
  8
0
 10
50.81288475772935
 20
-64.09576136978066
 30
0.0
  0
SEQEND
  0
POLYLINE
  8
0
 66
1
 10
0.0
 20
0.0
 30
0.0
 70
8
  0
VERTEX
  8
0
 10
50.81288475772935
 20
-64.09576136978066
 30
0.0
  0
VERTEX
  8
0
 10
49.241048649860595
 20
-65.00326136978066
 30
0.0
  0
VERTEX
  8
0
 10
52.406048649860594
 20
-70.48520217573616
 30
0.0
  0
VERTEX
  8
0
 10
53.97788475772935
 20
-69.57770217573616
 30
0.0
  0
SEQEND
  0
LINE
  8
0
 10
43.980384757729354
 20
-52.26152422706631
 30
0.0
 11
43.75032218374297
 21
-51.28834838886914
 31
0.0
  0
LINE
  8
0
 10
45.019615242270675
 20
-51.661524227066316
 30
0.0
 11
44.2918515310359
 21
-50.97569627443549
 31
0.0
  0
LINE
  8
0
 10
43.75032218374297
 20
-51.28834838886914
 30
0.0
 11
44.2918515310359
 21
-50.97569627443549
 31
0.0
  0
LINE
  8
0
 10
74.50000000000001
 20
-49.62947341949744
 30
0.0
 11
79.50500000000002
 21
-49.62947341949744
 31
0.0
  0
LINE
  8
0
 10
99.50000000000003
 20
-49.62947341949744
 30
0.0
 11
94.49500000000002
 21
-49.62947341949744
 31
0.0
  0
POLYLINE
  8
0
 66
1
 10
0.0
 20
0.0
 30
0.0
 70
8
  0
VERTEX
  8
0
 10
79.50500000000002
 20
-49.62947341949744
 30
0.0
  0
VERTEX
  8
0
 10
79.50500000000002
 20
-47.81447341949744
 30
0.0
  0
VERTEX
  8
0
 10
85.83500000000002
 20
-47.81447341949744
 30
0.0
  0
VERTEX
  8
0
 10
85.83500000000002
 20
-49.62947341949744
 30
0.0
  0
VERTEX
  8
0
 10
88.16500000000002
 20
-49.62947341949744
 30
0.0
  0
SEQEND
  0
POLYLINE
  8
0
 66
1
 10
0.0
 20
0.0
 30
0.0
 70
8
  0
VERTEX
  8
0
 10
88.16500000000002
 20
-49.62947341949744
 30
0.0
  0
VERTEX
  8
0
 10
88.16500000000002
 20
-47.81447341949744
 30
0.0
  0
VERTEX
  8
0
 10
94.49500000000002
 20
-47.81447341949744
 30
0.0
  0
VERTEX
  8
0
 10
94.49500000000002
 20
-49.62947341949744
 30
0.0
  0
SEQEND
  0
LINE
  8
0
 10
74.50000000000001
 20
-50.82947341949744
 30
0.0
 11
79.50500000000002
 21
-50.82947341949744
 31
0.0
  0
LINE
  8
0
 10
99.50000000000003
 20
-50.82947341949744
 30
0.0
 11
94.49500000000002
 21
-50.82947341949744
 31
0.0
  0
POLYLINE
  8
0
 66
1
 10
0.0
 20
0.0
 30
0.0
 70
8
  0
VERTEX
  8
0
 10
79.50500000000002
 20
-50.82947341949744
 30
0.0
  0
VERTEX
  8
0
 10
79.50500000000002
 20
-52.64447341949744
 30
0.0
  0
VERTEX
  8
0
 10
85.83500000000002
 20
-52.64447341949744
 30
0.0
  0
VERTEX
  8
0
 10
85.83500000000002
 20
-50.82947341949744
 30
0.0
  0
VERTEX
  8
0
 10
88.16500000000002
 20
-50.82947341949744
 30
0.0
  0
SEQEND
  0
POLYLINE
  8
0
 66
1
 10
0.0
 20
0.0
 30
0.0
 70
8
  0
VERTEX
  8
0
 10
88.16500000000002
 20
-50.82947341949744
 30
0.0
  0
VERTEX
  8
0
 10
88.16500000000002
 20
-52.64447341949744
 30
0.0
  0
VERTEX
  8
0
 10
94.49500000000002
 20
-52.64447341949744
 30
0.0
  0
VERTEX
  8
0
 10
94.49500000000002
 20
-50.82947341949744
 30
0.0
  0
SEQEND
  0
LINE
  8
0
 10
74.50000000000001
 20
-50.82947341949744
 30
0.0
 11
73.54217371477887
 21
-50.54212553393109
 31
0.0
  0
LINE
  8
0
 10
74.50000000000001
 20
-49.62947341949744
 30
0.0
 11
73.54217371477887
 21
-49.916821305063785
 31
0.0
  0
LINE
  8
0
 10
73.54217371477887
 20
-50.54212553393109
 30
0.0
 11
73.54217371477887
 21
-49.916821305063785
 31
0.0
  0
LINE
  8
0
 10
72.98038475772935
 20
-48.197422611928566
 30
0.0
 11
75.48288475772935
 21
-43.86296546598745
 31
0.0
  0
LINE
  8
0
 10
85.48038475772935
 20
-26.546787517317597
 30
0.0
 11
82.97788475772936
 21
-30.881244663258713
 31
0.0
  0
POLYLINE
  8
0
 66
1
 10
0.0
 20
0.0
 30
0.0
 70
8
  0
VERTEX
  8
0
 10
75.48288475772935
 20
-43.86296546598745
 30
0.0
  0
VERTEX
  8
0
 10
73.91104864986059
 20
-42.95546546598745
 30
0.0
  0
VERTEX
  8
0
 10
77.0760486498606
 20
-37.473524660031956
 30
0.0
  0
VERTEX
  8
0
 10
78.64788475772936
 20
-38.381024660031954
 30
0.0
  0
VERTEX
  8
0
 10
79.81288475772936
 20
-36.363185469214216
 30
0.0
  0
SEQEND
  0
POLYLINE
  8
0
 66
1
 10
0.0
 20
0.0
 30
0.0
 70
8
  0
VERTEX
  8
0
 10
79.81288475772936
 20
-36.363185469214216
 30
0.0
  0
VERTEX
  8
0
 10
78.2410486498606
 20
-35.45568546921422
 30
0.0
  0
VERTEX
  8
0
 10
81.40604864986061
 20
-29.97374466325872
 30
0.0
  0
VERTEX
  8
0
 10
82.97788475772937
 20
-30.881244663258723
 30
0.0
  0
SEQEND
  0
LINE
  8
0
 10
74.01961524227067
 20
-48.79742261192856
 30
0.0
 11
76.52211524227067
 21
-44.462965465987445
 31
0.0
  0
LINE
  8
0
 10
86.51961524227067
 20
-27.1467875173176
 30
0.0
 11
84.01711524227068
 21
-31.481244663258714
 31
0.0
  0
POLYLINE
  8
0
 66
1
 10
0.0
 20
0.0
 30
0.0
 70
8
  0
VERTEX
  8
0
 10
76.52211524227067
 20
-44.462965465987445
 30
0.0
  0
VERTEX
  8
0
 10
78.09395135013943
 20
-45.370465465987444
 30
0.0
  0
VERTEX
  8
0
 10
81.25895135013944
 20
-39.88852466003195
 30
0.0
  0
VERTEX
  8
0
 10
79.68711524227068
 20
-38.98102466003195
 30
0.0
  0
VERTEX
  8
0
 10
80.85211524227068
 20
-36.96318546921421
 30
0.0
  0
SEQEND
  0
POLYLINE
  8
0
 66
1
 10
0.0
 20
0.0
 30
0.0
 70
8
  0
VERTEX
  8
0
 10
80.85211524227068
 20
-36.96318546921421
 30
0.0
  0
VERTEX
  8
0
 10
82.42395135013945
 20
-37.87068546921421
 30
0.0
  0
VERTEX
  8
0
 10
85.58895135013945
 20
-32.38874466325871
 30
0.0
  0
VERTEX
  8
0
 10
84.01711524227069
 20
-31.481244663258714
 30
0.0
  0
SEQEND
  0
LINE
  8
0
 10
74.01961524227067
 20
-48.79742261192856
 30
0.0
 11
73.2918515310359
 21
-49.483250564559384
 31
0.0
  0
LINE
  8
0
 10
72.98038475772935
 20
-48.197422611928566
 30
0.0
 11
72.75032218374298
 21
-49.17059845012574
 31
0.0
  0
LINE
  8
0
 10
73.2918515310359
 20
-49.483250564559384
 30
0.0
 11
72.75032218374298
 21
-49.17059845012574
 31
0.0
  0
LINE
  8
0
 10
72.01961524227067
 20
-48.197422611928566
 30
0.0
 11
72.24967781625705
 21
-49.17059845012574
 31
0.0
  0
LINE
  8
0
 10
70.98038475772935
 20
-48.79742261192856
 30
0.0
 11
71.70814846896413
 21
-49.483250564559384
 31
0.0
  0
LINE
  8
0
 10
72.24967781625705
 20
-49.17059845012574
 30
0.0
 11
71.70814846896413
 21
-49.483250564559384
 31
0.0
  0
LINE
  8
0
 10
70.50000000000001
 20
-49.62947341949744
 30
0.0
 11
71.45782628522116
 21
-49.916821305063785
 31
0.0
  0
LINE
  8
0
 10
70.50000000000001
 20
-50.82947341949744
 30
0.0
 11
71.45782628522116
 21
-50.54212553393109
 31
0.0
  0
LINE
  8
0
 10
71.45782628522116
 20
-49.916821305063785
 30
0.0
 11
71.45782628522116
 21
-50.54212553393109
 31
0.0
  0
LINE
  8
0
 10
72.01961524227067
 20
-52.26152422706631
 30
0.0
 11
69.51711524227068
 21
-56.595981373007426
 31
0.0
  0
LINE
  8
0
 10
59.51961524227066
 20
-73.91215932167727
 30
0.0
 11
62.02211524227066
 21
-69.57770217573615
 31
0.0
  0
POLYLINE
  8
0
 66
1
 10
0.0
 20
0.0
 30
0.0
 70
8
  0
VERTEX
  8
0
 10
69.51711524227068
 20
-56.595981373007426
 30
0.0
  0
VERTEX
  8
0
 10
71.08895135013944
 20
-57.503481373007425
 30
0.0
  0
VERTEX
  8
0
 10
67.92395135013943
 20
-62.98542217896292
 30
0.0
  0
VERTEX
  8
0
 10
66.35211524227067
 20
-62.07792217896292
 30
0.0
  0
VERTEX
  8
0
 10
65.18711524227066
 20
-64.09576136978066
 30
0.0
  0
SEQEND
  0
POLYLINE
  8
0
 66
1
 10
0.0
 20
0.0
 30
0.0
 70
8
  0
VERTEX
  8
0
 10
65.18711524227066
 20
-64.09576136978066
 30
0.0
  0
VERTEX
  8
0
 10
66.75895135013943
 20
-65.00326136978066
 30
0.0
  0
VERTEX
  8
0
 10
63.59395135013942
 20
-70.48520217573615
 30
0.0
  0
VERTEX
  8
0
 10
62.022115242270665
 20
-69.57770217573615
 30
0.0
  0
SEQEND
  0
LINE
  8
0
 10
70.98038475772935
 20
-51.661524227066316
 30
0.0
 11
68.47788475772936
 21
-55.99598137300743
 31
0.0
  0
LINE
  8
0
 10
58.48038475772934
 20
-73.31215932167727
 30
0.0
 11
60.98288475772934
 21
-68.97770217573616
 31
0.0
  0
POLYLINE
  8
0
 66
1
 10
0.0
 20
0.0
 30
0.0
 70
8
  0
VERTEX
  8
0
 10
68.47788475772936
 20
-55.99598137300743
 30
0.0
  0
VERTEX
  8
0
 10
66.9060486498606
 20
-55.08848137300743
 30
0.0
  0
VERTEX
  8
0
 10
63.74104864986059
 20
-60.57042217896293
 30
0.0
  0
VERTEX
  8
0
 10
65.31288475772935
 20
-61.47792217896293
 30
0.0
  0
VERTEX
  8
0
 10
64.14788475772934
 20
-63.495761369780666
 30
0.0
  0
SEQEND
  0
POLYLINE
  8
0
 66
1
 10
0.0
 20
0.0
 30
0.0
 70
8
  0
VERTEX
  8
0
 10
64.14788475772934
 20
-63.495761369780666
 30
0.0
  0
VERTEX
  8
0
 10
62.57604864986059
 20
-62.58826136978067
 30
0.0
  0
VERTEX
  8
0
 10
59.41104864986059
 20
-68.07020217573616
 30
0.0
  0
VERTEX
  8
0
 10
60.982884757729344
 20
-68.97770217573616
 30
0.0
  0
SEQEND
  0
LINE
  8
0
 10
70.98038475772935
 20
-51.661524227066316
 30
0.0
 11
71.70814846896413
 21
-50.97569627443549
 31
0.0
  0
LINE
  8
0
 10
72.01961524227067
 20
-52.26152422706631
 30
0.0
 11
72.24967781625705
 21
-51.28834838886914
 31
0.0
  0
LINE
  8
0
 10
71.70814846896413
 20
-50.97569627443549
 30
0.0
 11
72.24967781625705
 21
-51.28834838886914
 31
0.0
  0
LINE
  8
0
 10
74.01961524227067
 20
-51.661524227066316
 30
0.0
 11
76.52211524227067
 21
-55.99598137300743
 31
0.0
  0
LINE
  8
0
 10
86.51961524227067
 20
-73.31215932167729
 30
0.0
 11
84.01711524227068
 21
-68.97770217573617
 31
0.0
  0
POLYLINE
  8
0
 66
1
 10
0.0
 20
0.0
 30
0.0
 70
8
  0
VERTEX
  8
0
 10
76.52211524227067
 20
-55.99598137300743
 30
0.0
  0
VERTEX
  8
0
 10
78.09395135013943
 20
-55.08848137300743
 30
0.0
  0
VERTEX
  8
0
 10
81.25895135013944
 20
-60.57042217896293
 30
0.0
  0
VERTEX
  8
0
 10
79.68711524227068
 20
-61.47792217896293
 30
0.0
  0
VERTEX
  8
0
 10
80.85211524227068
 20
-63.495761369780666
 30
0.0
  0
SEQEND
  0
POLYLINE
  8
0
 66
1
 10
0.0
 20
0.0
 30
0.0
 70
8
  0
VERTEX
  8
0
 10
80.85211524227068
 20
-63.495761369780666
 30
0.0
  0
VERTEX
  8
0
 10
82.42395135013945
 20
-62.58826136978067
 30
0.0
  0
VERTEX
  8
0
 10
85.58895135013945
 20
-68.07020217573617
 30
0.0
  0
VERTEX
  8
0
 10
84.01711524227069
 20
-68.97770217573617
 30
0.0
  0
SEQEND
  0
LINE
  8
0
 10
72.98038475772935
 20
-52.26152422706631
 30
0.0
 11
75.48288475772935
 21
-56.595981373007426
 31
0.0
  0
LINE
  8
0
 10
85.48038475772935
 20
-73.91215932167728
 30
0.0
 11
82.97788475772936
 21
-69.57770217573616
 31
0.0
  0
POLYLINE
  8
0
 66
1
 10
0.0
 20
0.0
 30
0.0
 70
8
  0
VERTEX
  8
0
 10
75.48288475772935
 20
-56.595981373007426
 30
0.0
  0
VERTEX
  8
0
 10
73.91104864986059
 20
-57.503481373007425
 30
0.0
  0
VERTEX
  8
0
 10
77.0760486498606
 20
-62.98542217896292
 30
0.0
  0
VERTEX
  8
0
 10
78.64788475772936
 20
-62.07792217896292
 30
0.0
  0
VERTEX
  8
0
 10
79.81288475772936
 20
-64.09576136978066
 30
0.0
  0
SEQEND
  0
POLYLINE
  8
0
 66
1
 10
0.0
 20
0.0
 30
0.0
 70
8
  0
VERTEX
  8
0
 10
79.81288475772936
 20
-64.09576136978066
 30
0.0
  0
VERTEX
  8
0
 10
78.2410486498606
 20
-65.00326136978066
 30
0.0
  0
VERTEX
  8
0
 10
81.40604864986061
 20
-70.48520217573616
 30
0.0
  0
VERTEX
  8
0
 10
82.97788475772937
 20
-69.57770217573616
 30
0.0
  0
SEQEND
  0
LINE
  8
0
 10
72.98038475772935
 20
-52.26152422706631
 30
0.0
 11
72.75032218374298
 21
-51.28834838886914
 31
0.0
  0
LINE
  8
0
 10
74.01961524227067
 20
-51.661524227066316
 30
0.0
 11
73.2918515310359
 21
-50.97569627443549
 31
0.0
  0
LINE
  8
0
 10
72.75032218374298
 20
-51.28834838886914
 30
0.0
 11
73.2918515310359
 21
-50.97569627443549
 31
0.0
  0
ENDSEC
  0
EOF
