  0
SECTION
  2
HEADER
  9
$ACADVER
  1
AC1009
  9
$INSBASE
 10
0.0
 20
0.0
 30
0.0
  9
$EXTMIN
 10
0.0
 20
0.0
 30
0.0
  9
$EXTMAX
 10
100.0
 20
100.0
 30
0.0
  9
$UNITMODE
 70
0
  9
$AUNITS
 70
0
  9
$ANGBASE
 50
0.0
  9
$ANGDIR
 70
0
  0
ENDSEC
  0
SECTION
  2
TABLES
  0
TABLE
  2
LTYPE
 70
19
  0
LTYPE
  2
CONTINUOUS
 70
0
  3
Solid
 72
65
 73
0
 40
0.0
  0
LTYPE
  2
CENTER
 70
0
  3
Center ____ _ ____ _ ____ _ ____ _ ____ _ ____
 72
65
 73
4
 40
2.0
 49
1.25
 49
-0.25
 49
0.25
 49
-0.25
  0
LTYPE
  2
CENTERX2
 70
0
  3
Center (2x) ________  __  ________  __  ________
 72
65
 73
4
 40
3.5
 49
2.5
 49
-0.25
 49
0.5
 49
-0.25
  0
LTYPE
  2
CENTER2
 70
0
  3
Center (.5x) ____ _ ____ _ ____ _ ____ _ ____
 72
65
 73
4
 40
1.0
 49
0.625
 49
-0.125
 49
0.125
 49
-0.125
  0
LTYPE
  2
DASHED
 70
0
  3
Dashed __ __ __ __ __ __ __ __ __ __ __ __ __ _
 72
65
 73
2
 40
0.6
 49
0.5
 49
-0.1
  0
LTYPE
  2
DASHEDX2
 70
0
  3
Dashed (2x) ____  ____  ____  ____  ____  ____
 72
65
 73
2
 40
1.2
 49
1.0
 49
-0.2
  0
LTYPE
  2
DASHED2
 70
0
  3
Dashed (.5x) _ _ _ _ _ _ _ _ _ _ _ _ _ _
 72
65
 73
2
 40
0.3
 49
0.25
 49
-0.05
  0
LTYPE
  2
PHANTOM
 70
0
  3
Phantom ______  __  __  ______  __  __  ______
 72
65
 73
6
 40
2.5
 49
1.25
 49
-0.25
 49
0.25
 49
-0.25
 49
0.25
 49
-0.25
  0
LTYPE
  2
PHANTOMX2
 70
0
  3
Phantom (2x)____________    ____    ____    ____________
 72
65
 73
6
 40
4.25
 49
2.5
 49
-0.25
 49
0.5
 49
-0.25
 49
0.5
 49
-0.25
  0
LTYPE
  2
PHANTOM2
 70
0
  3
Phantom (.5x) ___ _ _ ___ _ _ ___ _ _ ___ _ _ ___
 72
65
 73
6
 40
1.25
 49
0.625
 49
-0.125
 49
0.125
 49
-0.125
 49
0.125
 49
-0.125
  0
LTYPE
  2
DASHDOT
 70
0
  3
Dash dot __ . __ . __ . __ . __ . __ . __ . __
 72
65
 73
4
 40
1.4
 49
1.0
 49
-0.2
 49
0.0
 49
-0.2
  0
LTYPE
  2
DASHDOTX2
 70
0
  3
Dash dot (2x) ____  .  ____  .  ____  .  ____
 72
65
 73
4
 40
2.4
 49
2.0
 49
-0.2
 49
0.0
 49
-0.2
  0
LTYPE
  2
DASHDOT2
 70
0
  3
Dash dot (.5x) _ . _ . _ . _ . _ . _ . _ . _
 72
65
 73
4
 40
0.7
 49
0.5
 49
-0.1
 49
0.0
 49
-0.1
  0
LTYPE
  2
DOT
 70
0
  3
Dot .  .  .  .  .  .  .  .  .  .  .  .  .  .  .  .
 72
65
 73
2
 40
0.2
 49
0.0
 49
-0.2
  0
LTYPE
  2
DOTX2
 70
0
  3
Dot (2x) .    .    .    .    .    .    .    . 
 72
65
 73
2
 40
0.4
 49
0.0
 49
-0.4
  0
LTYPE
  2
DOT2
 70
0
  3
Dot (.5) . . . . . . . . . . . . . . . . . . . 
 72
65
 73
2
 40
0.1
 49
0.0
 49
-0.1
  0
LTYPE
  2
DIVIDE
 70
0
  3
Divide __ . . __ . . __ . . __ . . __ . . __
 72
65
 73
6
 40
1.6
 49
1.0
 49
-0.2
 49
0.0
 49
-0.2
 49
0.0
 49
-0.2
  0
LTYPE
  2
DIVIDEX2
 70
0
  3
Divide (2x) ____  . .  ____  . .  ____  . .  ____
 72
65
 73
6
 40
2.6
 49
2.0
 49
-0.2
 49
0.0
 49
-0.2
 49
0.0
 49
-0.2
  0
LTYPE
  2
DIVIDE2
 70
0
  3
Divide(.5x) _ . _ . _ . _ . _ . _ . _ . _
 72
65
 73
6
 40
0.8
 49
0.5
 49
-0.1
 49
0.0
 49
-0.1
 49
0.0
 49
-0.1
  0
ENDTAB
  0
TABLE
  2
LAYER
 70
5
  0
LAYER
  2
DIMENSIONS
 70
0
 62
1
  6
CONTINUOUS
  0
LAYER
  2
TABLEBACKGROUND
 70
0
 62
1
  6
CONTINUOUS
  0
LAYER
  2
TABLECONTENT
 70
0
 62
1
  6
CONTINUOUS
  0
LAYER
  2
TABLEGRID
 70
0
 62
1
  6
CONTINUOUS
  0
LAYER
  2
VIEWPORTS
 70
0
 62
7
  6
CONTINUOUS
  0
ENDTAB
  0
TABLE
  2
STYLE
 70
12
  0
STYLE
  2
STANDARD
 70
0
 40
0.0
 41
1.0
 42
1.0
 50
0.0
 71
0
  3
arial.ttf
  4

  0
STYLE
  2
ARIAL
 70
0
 40
0.0
 41
1.0
 42
1.0
 50
0.0
 71
0
  3
arial.ttf
  4

  0
STYLE
  2
ARIAL_BOLD
 70
0
 40
0.0
 41
1.0
 42
1.0
 50
0.0
 71
0
  3
arialbd.ttf
  4

  0
STYLE
  2
ARIAL_ITALIC
 70
0
 40
0.0
 41
1.0
 42
1.0
 50
0.0
 71
0
  3
ariali.ttf
  4

  0
STYLE
  2
ARIAL_BOLD_ITALIC
 70
0
 40
0.0
 41
1.0
 42
1.0
 50
0.0
 71
0
  3
arialbi.ttf
  4

  0
STYLE
  2
ARIAL_BLACK
 70
0
 40
0.0
 41
1.0
 42
1.0
 50
0.0
 71
0
  3
ariblk.ttf
  4

  0
STYLE
  2
ISOCPEUR
 70
0
 40
0.0
 41
1.0
 42
1.0
 50
0.0
 71
0
  3
isocpeur.ttf
  4

  0
STYLE
  2
ISOCPEUR_ITALIC
 70
0
 40
0.0
 41
1.0
 42
1.0
 50
0.0
 71
0
  3
isocpeui.ttf
  4

  0
STYLE
  2
TIMES
 70
0
 40
0.0
 41
1.0
 42
1.0
 50
0.0
 71
0
  3
times.ttf
  4

  0
STYLE
  2
TIMES_BOLD
 70
0
 40
0.0
 41
1.0
 42
1.0
 50
0.0
 71
0
  3
timesbd.ttf
  4

  0
STYLE
  2
TIMES_ITALIC
 70
0
 40
0.0
 41
1.0
 42
1.0
 50
0.0
 71
0
  3
timesi.ttf
  4

  0
STYLE
  2
TIMES_BOLD_ITALIC
 70
0
 40
0.0
 41
1.0
 42
1.0
 50
0.0
 71
0
  3
timesbi.ttf
  4

  0
ENDTAB
  0
TABLE
  2
VIEW
 70
0
  0
ENDTAB
  0
TABLE
  2
APPID
 70
1
  0
APPID
  2
DXFWRITE
 70
0
  0
ENDTAB
  0
TABLE
  2
VPORT
 70
0
  0
ENDTAB
  0
TABLE
  2
UCS
 70
0
  0
ENDTAB
  0
ENDSEC
  0
SECTION
  2
BLOCKS
  0
ENDSEC
  0
SECTION
  2
ENTITIES
  0
VIEWPORT
  8
VIEWPORTS
 67
1
 10
0.0
 20
0.0
 30
0.0
 40
1.0
 41
1.0
 68
1
 69
1
1001
ACAD
1000
MVIEW
1002
{
1070
16
1010
0.0
1020
0.0
1030
0.0
1010
0.0
1020
0.0
1030
0.0
1040
0.0
1040
1.0
1040
0.0
1040
0.0
1040
50.0
1040
0.0
1040
0.0
1070
0
1070
100
1070
1
1070
3
1070
0
1070
0
1070
0
1070
0
1040
0.0
1040
0.0
1040
0.0
1040
0.1
1040
0.1
1040
0.1
1040
0.1
1070
0
1002
{
1002
}
1002
}
  0
POLYLINE
  8
0
 66
1
 10
0.0
 20
0.0
 30
0.0
 70
8
  0
VERTEX
  8
0
 10
22.765000000000004
 20
-2.415
 30
0.0
  0
VERTEX
  8
0
 10
22.765000000000004
 20
2.415
 30
0.0
  0
VERTEX
  8
0
 10
29.095000000000006
 20
2.415
 30
0.0
  0
VERTEX
  8
0
 10
29.095000000000006
 20
-2.415
 30
0.0
  0
VERTEX
  8
0
 10
22.765000000000008
 20
-2.414999999999999
 30
0.0
  0
SEQEND
  0
POLYLINE
  8
0
 66
1
 10
0.0
 20
0.0
 30
0.0
 70
8
  0
VERTEX
  8
0
 10
31.425000000000004
 20
-2.415
 30
0.0
  0
VERTEX
  8
0
 10
31.425000000000004
 20
2.415
 30
0.0
  0
VERTEX
  8
0
 10
37.755
 20
2.415
 30
0.0
  0
VERTEX
  8
0
 10
37.755
 20
-2.415
 30
0.0
  0
VERTEX
  8
0
 10
31.425000000000004
 20
-2.414999999999999
 30
0.0
  0
SEQEND
  0
POLYLINE
  8
0
 66
1
 10
0.0
 20
0.0
 30
0.0
 70
8
  0
VERTEX
  8
0
 10
21.038951350139424
 20
5.404603957894189
 30
0.0
  0
VERTEX
  8
0
 10
16.856048649860586
 20
7.819603957894188
 30
0.0
  0
VERTEX
  8
0
 10
20.02104864986059
 20
13.301544763849684
 30
0.0
  0
VERTEX
  8
0
 10
24.203951350139427
 20
10.886544763849685
 30
0.0
  0
VERTEX
  8
0
 10
21.038951350139424
 20
5.40460395789419
 30
0.0
  0
SEQEND
  0
POLYLINE
  8
0
 66
1
 10
0.0
 20
0.0
 30
0.0
 70
8
  0
VERTEX
  8
0
 10
25.368951350139426
 20
12.904383954667427
 30
0.0
  0
VERTEX
  8
0
 10
21.186048649860588
 20
15.319383954667426
 30
0.0
  0
VERTEX
  8
0
 10
24.351048649860587
 20
20.801324760622922
 30
0.0
  0
VERTEX
  8
0
 10
28.533951350139425
 20
18.386324760622923
 30
0.0
  0
VERTEX
  8
0
 10
25.368951350139422
 20
12.904383954667427
 30
0.0
  0
SEQEND
  0
POLYLINE
  8
0
 66
1
 10
0.0
 20
0.0
 30
0.0
 70
8
  0
VERTEX
  8
0
 10
13.403951350139424
 20
7.81960395789419
 30
0.0
  0
VERTEX
  8
0
 10
9.221048649860585
 20
5.404603957894189
 30
0.0
  0
VERTEX
  8
0
 10
6.056048649860585
 20
10.886544763849685
 30
0.0
  0
VERTEX
  8
0
 10
10.238951350139423
 20
13.301544763849684
 30
0.0
  0
VERTEX
  8
0
 10
13.403951350139424
 20
7.819603957894187
 30
0.0
  0
SEQEND
  0
POLYLINE
  8
0
 66
1
 10
0.0
 20
0.0
 30
0.0
 70
8
  0
VERTEX
  8
0
 10
9.073951350139426
 20
15.31938395466743
 30
0.0
  0
VERTEX
  8
0
 10
4.891048649860587
 20
12.904383954667429
 30
0.0
  0
VERTEX
  8
0
 10
1.726048649860588
 20
18.386324760622927
 30
0.0
  0
VERTEX
  8
0
 10
5.908951350139427
 20
20.801324760622926
 30
0.0
  0
VERTEX
  8
0
 10
9.073951350139428
 20
15.31938395466743
 30
0.0
  0
SEQEND
  0
POLYLINE
  8
0
 66
1
 10
0.0
 20
0.0
 30
0.0
 70
8
  0
VERTEX
  8
0
 10
7.495
 20
2.4150000000000014
 30
0.0
  0
VERTEX
  8
0
 10
7.494999999999999
 20
-2.4149999999999987
 30
0.0
  0
VERTEX
  8
0
 10
1.1649999999999991
 20
-2.414999999999998
 30
0.0
  0
VERTEX
  8
0
 10
1.1649999999999994
 20
2.4150000000000023
 30
0.0
  0
VERTEX
  8
0
 10
7.494999999999999
 20
2.415000000000001
 30
0.0
  0
SEQEND
  0
POLYLINE
  8
0
 66
1
 10
0.0
 20
0.0
 30
0.0
 70
8
  0
VERTEX
  8
0
 10
-1.165
 20
2.4150000000000023
 30
0.0
  0
VERTEX
  8
0
 10
-1.165000000000001
 20
-2.414999999999998
 30
0.0
  0
VERTEX
  8
0
 10
-7.495000000000001
 20
-2.414999999999997
 30
0.0
  0
VERTEX
  8
0
 10
-7.495000000000001
 20
2.415000000000003
 30
0.0
  0
VERTEX
  8
0
 10
-1.165000000000001
 20
2.415000000000002
 30
0.0
  0
SEQEND
  0
POLYLINE
  8
0
 66
1
 10
0.0
 20
0.0
 30
0.0
 70
8
  0
VERTEX
  8
0
 10
9.22104864986058
 20
-5.404603957894187
 30
0.0
  0
VERTEX
  8
0
 10
13.403951350139415
 20
-7.81960395789419
 30
0.0
  0
VERTEX
  8
0
 10
10.238951350139413
 20
-13.301544763849684
 30
0.0
  0
VERTEX
  8
0
 10
6.056048649860574
 20
-10.886544763849685
 30
0.0
  0
VERTEX
  8
0
 10
9.221048649860572
 20
-5.404603957894187
 30
0.0
  0
SEQEND
  0
POLYLINE
  8
0
 66
1
 10
0.0
 20
0.0
 30
0.0
 70
8
  0
VERTEX
  8
0
 10
4.891048649860576
 20
-12.904383954667423
 30
0.0
  0
VERTEX
  8
0
 10
9.073951350139414
 20
-15.319383954667426
 30
0.0
  0
VERTEX
  8
0
 10
5.908951350139411
 20
-20.801324760622922
 30
0.0
  0
VERTEX
  8
0
 10
1.726048649860572
 20
-18.386324760622923
 30
0.0
  0
VERTEX
  8
0
 10
4.89104864986057
 20
-12.904383954667425
 30
0.0
  0
SEQEND
  0
POLYLINE
  8
0
 66
1
 10
0.0
 20
0.0
 30
0.0
 70
8
  0
VERTEX
  8
0
 10
16.856048649860586
 20
-7.819603957894188
 30
0.0
  0
VERTEX
  8
0
 10
21.038951350139424
 20
-5.404603957894189
 30
0.0
  0
VERTEX
  8
0
 10
24.203951350139427
 20
-10.886544763849685
 30
0.0
  0
VERTEX
  8
0
 10
20.02104864986059
 20
-13.301544763849684
 30
0.0
  0
VERTEX
  8
0
 10
16.85604864986059
 20
-7.819603957894187
 30
0.0
  0
SEQEND
  0
POLYLINE
  8
0
 66
1
 10
0.0
 20
0.0
 30
0.0
 70
8
  0
VERTEX
  8
0
 10
21.186048649860588
 20
-15.319383954667426
 30
0.0
  0
VERTEX
  8
0
 10
25.368951350139426
 20
-12.904383954667427
 30
0.0
  0
VERTEX
  8
0
 10
28.533951350139425
 20
-18.386324760622923
 30
0.0
  0
VERTEX
  8
0
 10
24.351048649860587
 20
-20.801324760622922
 30
0.0
  0
VERTEX
  8
0
 10
21.186048649860588
 20
-15.319383954667426
 30
0.0
  0
SEQEND
  0
POLYLINE
  8
0
 66
1
 10
0.0
 20
0.0
 30
0.0
 70
8
  0
VERTEX
  8
0
 10
53.02500000000001
 20
-2.415
 30
0.0
  0
VERTEX
  8
0
 10
53.02500000000001
 20
2.415
 30
0.0
  0
VERTEX
  8
0
 10
59.35500000000001
 20
2.415
 30
0.0
  0
VERTEX
  8
0
 10
59.35500000000001
 20
-2.415
 30
0.0
  0
VERTEX
  8
0
 10
53.02500000000001
 20
-2.414999999999999
 30
0.0
  0
SEQEND
  0
POLYLINE
  8
0
 66
1
 10
0.0
 20
0.0
 30
0.0
 70
8
  0
VERTEX
  8
0
 10
61.68500000000002
 20
-2.415
 30
0.0
  0
VERTEX
  8
0
 10
61.68500000000002
 20
2.415
 30
0.0
  0
VERTEX
  8
0
 10
68.01500000000001
 20
2.415
 30
0.0
  0
VERTEX
  8
0
 10
68.01500000000001
 20
-2.415
 30
0.0
  0
VERTEX
  8
0
 10
61.68500000000002
 20
-2.414999999999999
 30
0.0
  0
SEQEND
  0
POLYLINE
  8
0
 66
1
 10
0.0
 20
0.0
 30
0.0
 70
8
  0
VERTEX
  8
0
 10
51.298951350139426
 20
5.404603957894189
 30
0.0
  0
VERTEX
  8
0
 10
47.11604864986059
 20
7.819603957894188
 30
0.0
  0
VERTEX
  8
0
 10
50.28104864986059
 20
13.301544763849684
 30
0.0
  0
VERTEX
  8
0
 10
54.463951350139425
 20
10.886544763849685
 30
0.0
  0
VERTEX
  8
0
 10
51.29895135013942
 20
5.40460395789419
 30
0.0
  0
SEQEND
  0
POLYLINE
  8
0
 66
1
 10
0.0
 20
0.0
 30
0.0
 70
8
  0
VERTEX
  8
0
 10
55.628951350139424
 20
12.904383954667427
 30
0.0
  0
VERTEX
  8
0
 10
51.446048649860586
 20
15.319383954667426
 30
0.0
  0
VERTEX
  8
0
 10
54.611048649860585
 20
20.801324760622922
 30
0.0
  0
VERTEX
  8
0
 10
58.79395135013942
 20
18.386324760622923
 30
0.0
  0
VERTEX
  8
0
 10
55.62895135013942
 20
12.904383954667427
 30
0.0
  0
SEQEND
  0
POLYLINE
  8
0
 66
1
 10
0.0
 20
0.0
 30
0.0
 70
8
  0
VERTEX
  8
0
 10
43.663951350139435
 20
7.81960395789419
 30
0.0
  0
VERTEX
  8
0
 10
39.4810486498606
 20
5.404603957894189
 30
0.0
  0
VERTEX
  8
0
 10
36.3160486498606
 20
10.886544763849685
 30
0.0
  0
VERTEX
  8
0
 10
40.498951350139436
 20
13.301544763849684
 30
0.0
  0
VERTEX
  8
0
 10
43.663951350139435
 20
7.819603957894187
 30
0.0
  0
SEQEND
  0
POLYLINE
  8
0
 66
1
 10
0.0
 20
0.0
 30
0.0
 70
8
  0
VERTEX
  8
0
 10
39.333951350139436
 20
15.31938395466743
 30
0.0
  0
VERTEX
  8
0
 10
35.1510486498606
 20
12.904383954667429
 30
0.0
  0
VERTEX
  8
0
 10
31.9860486498606
 20
18.386324760622927
 30
0.0
  0
VERTEX
  8
0
 10
36.16895135013944
 20
20.801324760622926
 30
0.0
  0
VERTEX
  8
0
 10
39.333951350139436
 20
15.31938395466743
 30
0.0
  0
SEQEND
  0
POLYLINE
  8
0
 66
1
 10
0.0
 20
0.0
 30
0.0
 70
8
  0
VERTEX
  8
0
 10
39.48104864986058
 20
-5.404603957894187
 30
0.0
  0
VERTEX
  8
0
 10
43.66395135013942
 20
-7.81960395789419
 30
0.0
  0
VERTEX
  8
0
 10
40.49895135013942
 20
-13.301544763849684
 30
0.0
  0
VERTEX
  8
0
 10
36.31604864986058
 20
-10.886544763849685
 30
0.0
  0
VERTEX
  8
0
 10
39.48104864986058
 20
-5.404603957894187
 30
0.0
  0
SEQEND
  0
POLYLINE
  8
0
 66
1
 10
0.0
 20
0.0
 30
0.0
 70
8
  0
VERTEX
  8
0
 10
35.15104864986058
 20
-12.904383954667423
 30
0.0
  0
VERTEX
  8
0
 10
39.333951350139415
 20
-15.319383954667426
 30
0.0
  0
VERTEX
  8
0
 10
36.16895135013941
 20
-20.801324760622922
 30
0.0
  0
VERTEX
  8
0
 10
31.98604864986057
 20
-18.386324760622923
 30
0.0
  0
VERTEX
  8
0
 10
35.15104864986057
 20
-12.904383954667425
 30
0.0
  0
SEQEND
  0
POLYLINE
  8
0
 66
1
 10
0.0
 20
0.0
 30
0.0
 70
8
  0
VERTEX
  8
0
 10
47.11604864986058
 20
-7.819603957894188
 30
0.0
  0
VERTEX
  8
0
 10
51.29895135013942
 20
-5.404603957894189
 30
0.0
  0
VERTEX
  8
0
 10
54.46395135013942
 20
-10.886544763849685
 30
0.0
  0
VERTEX
  8
0
 10
50.28104864986058
 20
-13.301544763849684
 30
0.0
  0
VERTEX
  8
0
 10
47.11604864986058
 20
-7.819603957894187
 30
0.0
  0
SEQEND
  0
POLYLINE
  8
0
 66
1
 10
0.0
 20
0.0
 30
0.0
 70
8
  0
VERTEX
  8
0
 10
51.44604864986058
 20
-15.319383954667426
 30
0.0
  0
VERTEX
  8
0
 10
55.62895135013942
 20
-12.904383954667427
 30
0.0
  0
VERTEX
  8
0
 10
58.793951350139416
 20
-18.386324760622923
 30
0.0
  0
VERTEX
  8
0
 10
54.61104864986058
 20
-20.801324760622922
 30
0.0
  0
VERTEX
  8
0
 10
51.44604864986058
 20
-15.319383954667426
 30
0.0
  0
SEQEND
  0
POLYLINE
  8
0
 66
1
 10
0.0
 20
0.0
 30
0.0
 70
8
  0
VERTEX
  8
0
 10
83.28500000000001
 20
-2.415
 30
0.0
  0
VERTEX
  8
0
 10
83.28500000000001
 20
2.415
 30
0.0
  0
VERTEX
  8
0
 10
89.61500000000001
 20
2.415
 30
0.0
  0
VERTEX
  8
0
 10
89.61500000000001
 20
-2.415
 30
0.0
  0
VERTEX
  8
0
 10
83.28500000000001
 20
-2.414999999999999
 30
0.0
  0
SEQEND
  0
POLYLINE
  8
0
 66
1
 10
0.0
 20
0.0
 30
0.0
 70
8
  0
VERTEX
  8
0
 10
91.94500000000001
 20
-2.415
 30
0.0
  0
VERTEX
  8
0
 10
91.94500000000001
 20
2.415
 30
0.0
  0
VERTEX
  8
0
 10
98.275
 20
2.415
 30
0.0
  0
VERTEX
  8
0
 10
98.275
 20
-2.415
 30
0.0
  0
VERTEX
  8
0
 10
91.94500000000001
 20
-2.414999999999999
 30
0.0
  0
SEQEND
  0
POLYLINE
  8
0
 66
1
 10
0.0
 20
0.0
 30
0.0
 70
8
  0
VERTEX
  8
0
 10
81.55895135013942
 20
5.404603957894189
 30
0.0
  0
VERTEX
  8
0
 10
77.37604864986058
 20
7.819603957894188
 30
0.0
  0
VERTEX
  8
0
 10
80.54104864986058
 20
13.301544763849684
 30
0.0
  0
VERTEX
  8
0
 10
84.72395135013943
 20
10.886544763849685
 30
0.0
  0
VERTEX
  8
0
 10
81.55895135013942
 20
5.40460395789419
 30
0.0
  0
SEQEND
  0
POLYLINE
  8
0
 66
1
 10
0.0
 20
0.0
 30
0.0
 70
8
  0
VERTEX
  8
0
 10
85.88895135013942
 20
12.904383954667427
 30
0.0
  0
VERTEX
  8
0
 10
81.70604864986058
 20
15.319383954667426
 30
0.0
  0
VERTEX
  8
0
 10
84.87104864986058
 20
20.801324760622922
 30
0.0
  0
VERTEX
  8
0
 10
89.05395135013943
 20
18.386324760622923
 30
0.0
  0
VERTEX
  8
0
 10
85.88895135013942
 20
12.904383954667427
 30
0.0
  0
SEQEND
  0
POLYLINE
  8
0
 66
1
 10
0.0
 20
0.0
 30
0.0
 70
8
  0
VERTEX
  8
0
 10
73.92395135013943
 20
7.81960395789419
 30
0.0
  0
VERTEX
  8
0
 10
69.74104864986059
 20
5.404603957894189
 30
0.0
  0
VERTEX
  8
0
 10
66.57604864986058
 20
10.886544763849685
 30
0.0
  0
VERTEX
  8
0
 10
70.75895135013943
 20
13.301544763849684
 30
0.0
  0
VERTEX
  8
0
 10
73.92395135013943
 20
7.819603957894187
 30
0.0
  0
SEQEND
  0
POLYLINE
  8
0
 66
1
 10
0.0
 20
0.0
 30
0.0
 70
8
  0
VERTEX
  8
0
 10
69.59395135013943
 20
15.31938395466743
 30
0.0
  0
VERTEX
  8
0
 10
65.41104864986059
 20
12.904383954667429
 30
0.0
  0
VERTEX
  8
0
 10
62.24604864986059
 20
18.386324760622927
 30
0.0
  0
VERTEX
  8
0
 10
66.42895135013943
 20
20.801324760622926
 30
0.0
  0
VERTEX
  8
0
 10
69.59395135013943
 20
15.31938395466743
 30
0.0
  0
SEQEND
  0
POLYLINE
  8
0
 66
1
 10
0.0
 20
0.0
 30
0.0
 70
8
  0
VERTEX
  8
0
 10
69.74104864986059
 20
-5.404603957894187
 30
0.0
  0
VERTEX
  8
0
 10
73.92395135013942
 20
-7.81960395789419
 30
0.0
  0
VERTEX
  8
0
 10
70.75895135013941
 20
-13.301544763849684
 30
0.0
  0
VERTEX
  8
0
 10
66.57604864986057
 20
-10.886544763849685
 30
0.0
  0
VERTEX
  8
0
 10
69.74104864986056
 20
-5.404603957894187
 30
0.0
  0
SEQEND
  0
POLYLINE
  8
0
 66
1
 10
0.0
 20
0.0
 30
0.0
 70
8
  0
VERTEX
  8
0
 10
65.41104864986059
 20
-12.904383954667423
 30
0.0
  0
VERTEX
  8
0
 10
69.59395135013942
 20
-15.319383954667426
 30
0.0
  0
VERTEX
  8
0
 10
66.42895135013941
 20
-20.801324760622922
 30
0.0
  0
VERTEX
  8
0
 10
62.246048649860576
 20
-18.386324760622923
 30
0.0
  0
VERTEX
  8
0
 10
65.41104864986058
 20
-12.904383954667425
 30
0.0
  0
SEQEND
  0
POLYLINE
  8
0
 66
1
 10
0.0
 20
0.0
 30
0.0
 70
8
  0
VERTEX
  8
0
 10
77.37604864986058
 20
-7.819603957894188
 30
0.0
  0
VERTEX
  8
0
 10
81.55895135013942
 20
-5.404603957894189
 30
0.0
  0
VERTEX
  8
0
 10
84.72395135013943
 20
-10.886544763849685
 30
0.0
  0
VERTEX
  8
0
 10
80.54104864986058
 20
-13.301544763849684
 30
0.0
  0
VERTEX
  8
0
 10
77.37604864986059
 20
-7.819603957894187
 30
0.0
  0
SEQEND
  0
POLYLINE
  8
0
 66
1
 10
0.0
 20
0.0
 30
0.0
 70
8
  0
VERTEX
  8
0
 10
81.70604864986058
 20
-15.319383954667426
 30
0.0
  0
VERTEX
  8
0
 10
85.88895135013942
 20
-12.904383954667427
 30
0.0
  0
VERTEX
  8
0
 10
89.05395135013943
 20
-18.386324760622923
 30
0.0
  0
VERTEX
  8
0
 10
84.87104864986058
 20
-20.801324760622922
 30
0.0
  0
VERTEX
  8
0
 10
81.70604864986058
 20
-15.319383954667426
 30
0.0
  0
SEQEND
  0
POLYLINE
  8
0
 66
1
 10
0.0
 20
0.0
 30
0.0
 70
8
  0
VERTEX
  8
0
 10
113.54500000000003
 20
-2.415
 30
0.0
  0
VERTEX
  8
0
 10
113.54500000000003
 20
2.415
 30
0.0
  0
VERTEX
  8
0
 10
119.87500000000003
 20
2.415
 30
0.0
  0
VERTEX
  8
0
 10
119.87500000000003
 20
-2.415
 30
0.0
  0
VERTEX
  8
0
 10
113.54500000000003
 20
-2.414999999999999
 30
0.0
  0
SEQEND
  0
POLYLINE
  8
0
 66
1
 10
0.0
 20
0.0
 30
0.0
 70
8
  0
VERTEX
  8
0
 10
122.20500000000003
 20
-2.415
 30
0.0
  0
VERTEX
  8
0
 10
122.20500000000003
 20
2.415
 30
0.0
  0
VERTEX
  8
0
 10
128.53500000000003
 20
2.415
 30
0.0
  0
VERTEX
  8
0
 10
128.53500000000003
 20
-2.415
 30
0.0
  0
VERTEX
  8
0
 10
122.20500000000003
 20
-2.414999999999999
 30
0.0
  0
SEQEND
  0
POLYLINE
  8
0
 66
1
 10
0.0
 20
0.0
 30
0.0
 70
8
  0
VERTEX
  8
0
 10
111.81895135013944
 20
5.404603957894189
 30
0.0
  0
VERTEX
  8
0
 10
107.6360486498606
 20
7.819603957894188
 30
0.0
  0
VERTEX
  8
0
 10
110.8010486498606
 20
13.301544763849684
 30
0.0
  0
VERTEX
  8
0
 10
114.98395135013945
 20
10.886544763849685
 30
0.0
  0
VERTEX
  8
0
 10
111.81895135013944
 20
5.40460395789419
 30
0.0
  0
SEQEND
  0
POLYLINE
  8
0
 66
1
 10
0.0
 20
0.0
 30
0.0
 70
8
  0
VERTEX
  8
0
 10
116.14895135013944
 20
12.904383954667427
 30
0.0
  0
VERTEX
  8
0
 10
111.9660486498606
 20
15.319383954667426
 30
0.0
  0
VERTEX
  8
0
 10
115.1310486498606
 20
20.801324760622922
 30
0.0
  0
VERTEX
  8
0
 10
119.31395135013945
 20
18.386324760622923
 30
0.0
  0
VERTEX
  8
0
 10
116.14895135013944
 20
12.904383954667427
 30
0.0
  0
SEQEND
  0
POLYLINE
  8
0
 66
1
 10
0.0
 20
0.0
 30
0.0
 70
8
  0
VERTEX
  8
0
 10
104.18395135013945
 20
7.81960395789419
 30
0.0
  0
VERTEX
  8
0
 10
100.0010486498606
 20
5.404603957894189
 30
0.0
  0
VERTEX
  8
0
 10
96.8360486498606
 20
10.886544763849685
 30
0.0
  0
VERTEX
  8
0
 10
101.01895135013945
 20
13.301544763849684
 30
0.0
  0
VERTEX
  8
0
 10
104.18395135013945
 20
7.819603957894187
 30
0.0
  0
SEQEND
  0
POLYLINE
  8
0
 66
1
 10
0.0
 20
0.0
 30
0.0
 70
8
  0
VERTEX
  8
0
 10
99.85395135013945
 20
15.31938395466743
 30
0.0
  0
VERTEX
  8
0
 10
95.67104864986061
 20
12.904383954667429
 30
0.0
  0
VERTEX
  8
0
 10
92.50604864986062
 20
18.386324760622927
 30
0.0
  0
VERTEX
  8
0
 10
96.68895135013946
 20
20.801324760622926
 30
0.0
  0
VERTEX
  8
0
 10
99.85395135013947
 20
15.31938395466743
 30
0.0
  0
SEQEND
  0
POLYLINE
  8
0
 66
1
 10
0.0
 20
0.0
 30
0.0
 70
8
  0
VERTEX
  8
0
 10
100.0010486498606
 20
-5.404603957894187
 30
0.0
  0
VERTEX
  8
0
 10
104.18395135013944
 20
-7.81960395789419
 30
0.0
  0
VERTEX
  8
0
 10
101.01895135013943
 20
-13.301544763849684
 30
0.0
  0
VERTEX
  8
0
 10
96.83604864986059
 20
-10.886544763849685
 30
0.0
  0
VERTEX
  8
0
 10
100.00104864986058
 20
-5.404603957894187
 30
0.0
  0
SEQEND
  0
POLYLINE
  8
0
 66
1
 10
0.0
 20
0.0
 30
0.0
 70
8
  0
VERTEX
  8
0
 10
95.67104864986061
 20
-12.904383954667423
 30
0.0
  0
VERTEX
  8
0
 10
99.85395135013944
 20
-15.319383954667426
 30
0.0
  0
VERTEX
  8
0
 10
96.68895135013943
 20
-20.801324760622922
 30
0.0
  0
VERTEX
  8
0
 10
92.50604864986059
 20
-18.386324760622923
 30
0.0
  0
VERTEX
  8
0
 10
95.67104864986058
 20
-12.904383954667425
 30
0.0
  0
SEQEND
  0
POLYLINE
  8
0
 66
1
 10
0.0
 20
0.0
 30
0.0
 70
8
  0
VERTEX
  8
0
 10
107.6360486498606
 20
-7.819603957894188
 30
0.0
  0
VERTEX
  8
0
 10
111.81895135013944
 20
-5.404603957894189
 30
0.0
  0
VERTEX
  8
0
 10
114.98395135013945
 20
-10.886544763849685
 30
0.0
  0
VERTEX
  8
0
 10
110.8010486498606
 20
-13.301544763849684
 30
0.0
  0
VERTEX
  8
0
 10
107.63604864986061
 20
-7.819603957894187
 30
0.0
  0
SEQEND
  0
POLYLINE
  8
0
 66
1
 10
0.0
 20
0.0
 30
0.0
 70
8
  0
VERTEX
  8
0
 10
111.9660486498606
 20
-15.319383954667426
 30
0.0
  0
VERTEX
  8
0
 10
116.14895135013944
 20
-12.904383954667427
 30
0.0
  0
VERTEX
  8
0
 10
119.31395135013945
 20
-18.386324760622923
 30
0.0
  0
VERTEX
  8
0
 10
115.1310486498606
 20
-20.801324760622922
 30
0.0
  0
VERTEX
  8
0
 10
111.9660486498606
 20
-15.319383954667426
 30
0.0
  0
SEQEND
  0
POLYLINE
  8
0
 66
1
 10
0.0
 20
0.0
 30
0.0
 70
8
  0
VERTEX
  8
0
 10
7.635000000000003
 20
-28.62092871851711
 30
0.0
  0
VERTEX
  8
0
 10
7.635000000000003
 20
-23.790928718517108
 30
0.0
  0
VERTEX
  8
0
 10
13.965000000000003
 20
-23.790928718517108
 30
0.0
  0
VERTEX
  8
0
 10
13.965000000000003
 20
-28.620928718517106
 30
0.0
  0
VERTEX
  8
0
 10
7.635000000000003
 20
-28.620928718517106
 30
0.0
  0
SEQEND
  0
POLYLINE
  8
0
 66
1
 10
0.0
 20
0.0
 30
0.0
 70
8
  0
VERTEX
  8
0
 10
16.295
 20
-28.62092871851711
 30
0.0
  0
VERTEX
  8
0
 10
16.295
 20
-23.790928718517108
 30
0.0
  0
VERTEX
  8
0
 10
22.625
 20
-23.790928718517108
 30
0.0
  0
VERTEX
  8
0
 10
22.625
 20
-28.620928718517106
 30
0.0
  0
VERTEX
  8
0
 10
16.295
 20
-28.620928718517106
 30
0.0
  0
SEQEND
  0
POLYLINE
  8
0
 66
1
 10
0.0
 20
0.0
 30
0.0
 70
8
  0
VERTEX
  8
0
 10
-1.7260486498605792
 20
-18.38632476062292
 30
0.0
  0
VERTEX
  8
0
 10
-5.908951350139418
 20
-20.80132476062292
 30
0.0
  0
VERTEX
  8
0
 10
-9.073951350139417
 20
-15.319383954667423
 30
0.0
  0
VERTEX
  8
0
 10
-4.891048649860578
 20
-12.904383954667423
 30
0.0
  0
VERTEX
  8
0
 10
-1.7260486498605774
 20
-18.38632476062292
 30
0.0
  0
SEQEND
  0
POLYLINE
  8
0
 66
1
 10
0.0
 20
0.0
 30
0.0
 70
8
  0
VERTEX
  8
0
 10
-6.0560486498605774
 20
-10.886544763849681
 30
0.0
  0
VERTEX
  8
0
 10
-10.238951350139416
 20
-13.301544763849682
 30
0.0
  0
VERTEX
  8
0
 10
-13.403951350139415
 20
-7.819603957894185
 30
0.0
  0
VERTEX
  8
0
 10
-9.221048649860577
 20
-5.404603957894185
 30
0.0
  0
VERTEX
  8
0
 10
-6.056048649860577
 20
-10.886544763849681
 30
0.0
  0
SEQEND
  0
POLYLINE
  8
0
 66
1
 10
0.0
 20
0.0
 30
0.0
 70
8
  0
VERTEX
  8
0
 10
-7.635000000000003
 20
-23.79092871851711
 30
0.0
  0
VERTEX
  8
0
 10
-7.635000000000004
 20
-28.620928718517114
 30
0.0
  0
VERTEX
  8
0
 10
-13.965000000000003
 20
-28.620928718517114
 30
0.0
  0
VERTEX
  8
0
 10
-13.965000000000003
 20
-23.790928718517115
 30
0.0
  0
VERTEX
  8
0
 10
-7.635000000000003
 20
-23.790928718517115
 30
0.0
  0
SEQEND
  0
POLYLINE
  8
0
 66
1
 10
0.0
 20
0.0
 30
0.0
 70
8
  0
VERTEX
  8
0
 10
-16.295
 20
-23.79092871851711
 30
0.0
  0
VERTEX
  8
0
 10
-16.295
 20
-28.620928718517114
 30
0.0
  0
VERTEX
  8
0
 10
-22.625
 20
-28.620928718517114
 30
0.0
  0
VERTEX
  8
0
 10
-22.625
 20
-23.790928718517115
 30
0.0
  0
VERTEX
  8
0
 10
-16.295
 20
-23.790928718517115
 30
0.0
  0
SEQEND
  0
POLYLINE
  8
0
 66
1
 10
0.0
 20
0.0
 30
0.0
 70
8
  0
VERTEX
  8
0
 10
-5.908951350139423
 20
-31.610532676411296
 30
0.0
  0
VERTEX
  8
0
 10
-1.7260486498605863
 20
-34.025532676411295
 30
0.0
  0
VERTEX
  8
0
 10
-4.891048649860589
 20
-39.50747348236679
 30
0.0
  0
VERTEX
  8
0
 10
-9.073951350139428
 20
-37.09247348236679
 30
0.0
  0
VERTEX
  8
0
 10
-5.9089513501394295
 20
-31.610532676411296
 30
0.0
  0
SEQEND
  0
POLYLINE
  8
0
 66
1
 10
0.0
 20
0.0
 30
0.0
 70
8
  0
VERTEX
  8
0
 10
-10.238951350139427
 20
-39.11031267318453
 30
0.0
  0
VERTEX
  8
0
 10
-6.05604864986059
 20
-41.52531267318453
 30
0.0
  0
VERTEX
  8
0
 10
-9.221048649860592
 20
-47.007253479140026
 30
0.0
  0
VERTEX
  8
0
 10
-13.40395135013943
 20
-44.59225347914003
 30
0.0
  0
VERTEX
  8
0
 10
-10.23895135013943
 20
-39.11031267318453
 30
0.0
  0
SEQEND
  0
POLYLINE
  8
0
 66
1
 10
0.0
 20
0.0
 30
0.0
 70
8
  0
VERTEX
  8
0
 10
1.7260486498605812
 20
-34.0255326764113
 30
0.0
  0
VERTEX
  8
0
 10
5.90895135013942
 20
-31.610532676411303
 30
0.0
  0
VERTEX
  8
0
 10
9.07395135013942
 20
-37.0924734823668
 30
0.0
  0
VERTEX
  8
0
 10
4.891048649860582
 20
-39.5074734823668
 30
0.0
  0
VERTEX
  8
0
 10
1.7260486498605827
 20
-34.0255326764113
 30
0.0
  0
SEQEND
  0
POLYLINE
  8
0
 66
1
 10
0.0
 20
0.0
 30
0.0
 70
8
  0
VERTEX
  8
0
 10
6.056048649860582
 20
-41.525312673184544
 30
0.0
  0
VERTEX
  8
0
 10
10.23895135013942
 20
-39.110312673184545
 30
0.0
  0
VERTEX
  8
0
 10
13.40395135013942
 20
-44.59225347914004
 30
0.0
  0
VERTEX
  8
0
 10
9.221048649860581
 20
-47.00725347914004
 30
0.0
  0
VERTEX
  8
0
 10
6.056048649860582
 20
-41.525312673184544
 30
0.0
  0
SEQEND
  0
POLYLINE
  8
0
 66
1
 10
0.0
 20
0.0
 30
0.0
 70
8
  0
VERTEX
  8
0
 10
37.89500000000001
 20
-28.62092871851711
 30
0.0
  0
VERTEX
  8
0
 10
37.89500000000001
 20
-23.790928718517108
 30
0.0
  0
VERTEX
  8
0
 10
44.22500000000001
 20
-23.790928718517108
 30
0.0
  0
VERTEX
  8
0
 10
44.22500000000001
 20
-28.620928718517106
 30
0.0
  0
VERTEX
  8
0
 10
37.89500000000001
 20
-28.620928718517106
 30
0.0
  0
SEQEND
  0
POLYLINE
  8
0
 66
1
 10
0.0
 20
0.0
 30
0.0
 70
8
  0
VERTEX
  8
0
 10
46.55500000000001
 20
-28.62092871851711
 30
0.0
  0
VERTEX
  8
0
 10
46.55500000000001
 20
-23.790928718517108
 30
0.0
  0
VERTEX
  8
0
 10
52.885000000000005
 20
-23.790928718517108
 30
0.0
  0
VERTEX
  8
0
 10
52.885000000000005
 20
-28.620928718517106
 30
0.0
  0
VERTEX
  8
0
 10
46.55500000000001
 20
-28.620928718517106
 30
0.0
  0
SEQEND
  0
POLYLINE
  8
0
 66
1
 10
0.0
 20
0.0
 30
0.0
 70
8
  0
VERTEX
  8
0
 10
24.351048649860584
 20
-31.610532676411296
 30
0.0
  0
VERTEX
  8
0
 10
28.53395135013942
 20
-34.025532676411295
 30
0.0
  0
VERTEX
  8
0
 10
25.36895135013942
 20
-39.50747348236679
 30
0.0
  0
VERTEX
  8
0
 10
21.18604864986058
 20
-37.09247348236679
 30
0.0
  0
VERTEX
  8
0
 10
24.35104864986058
 20
-31.610532676411296
 30
0.0
  0
SEQEND
  0
POLYLINE
  8
0
 66
1
 10
0.0
 20
0.0
 30
0.0
 70
8
  0
VERTEX
  8
0
 10
20.02104864986058
 20
-39.11031267318453
 30
0.0
  0
VERTEX
  8
0
 10
24.20395135013942
 20
-41.52531267318453
 30
0.0
  0
VERTEX
  8
0
 10
21.038951350139417
 20
-47.007253479140026
 30
0.0
  0
VERTEX
  8
0
 10
16.85604864986058
 20
-44.59225347914003
 30
0.0
  0
VERTEX
  8
0
 10
20.021048649860578
 20
-39.11031267318453
 30
0.0
  0
SEQEND
  0
POLYLINE
  8
0
 66
1
 10
0.0
 20
0.0
 30
0.0
 70
8
  0
VERTEX
  8
0
 10
31.98604864986059
 20
-34.0255326764113
 30
0.0
  0
VERTEX
  8
0
 10
36.16895135013943
 20
-31.610532676411303
 30
0.0
  0
VERTEX
  8
0
 10
39.33395135013943
 20
-37.0924734823668
 30
0.0
  0
VERTEX
  8
0
 10
35.15104864986059
 20
-39.5074734823668
 30
0.0
  0
VERTEX
  8
0
 10
31.986048649860592
 20
-34.0255326764113
 30
0.0
  0
SEQEND
  0
POLYLINE
  8
0
 66
1
 10
0.0
 20
0.0
 30
0.0
 70
8
  0
VERTEX
  8
0
 10
36.31604864986059
 20
-41.525312673184544
 30
0.0
  0
VERTEX
  8
0
 10
40.49895135013943
 20
-39.110312673184545
 30
0.0
  0
VERTEX
  8
0
 10
43.66395135013943
 20
-44.59225347914004
 30
0.0
  0
VERTEX
  8
0
 10
39.48104864986059
 20
-47.00725347914004
 30
0.0
  0
VERTEX
  8
0
 10
36.31604864986059
 20
-41.525312673184544
 30
0.0
  0
SEQEND
  0
POLYLINE
  8
0
 66
1
 10
0.0
 20
0.0
 30
0.0
 70
8
  0
VERTEX
  8
0
 10
68.15500000000002
 20
-28.62092871851711
 30
0.0
  0
VERTEX
  8
0
 10
68.15500000000002
 20
-23.790928718517108
 30
0.0
  0
VERTEX
  8
0
 10
74.48500000000001
 20
-23.790928718517108
 30
0.0
  0
VERTEX
  8
0
 10
74.48500000000001
 20
-28.620928718517106
 30
0.0
  0
VERTEX
  8
0
 10
68.15500000000002
 20
-28.620928718517106
 30
0.0
  0
SEQEND
  0
POLYLINE
  8
0
 66
1
 10
0.0
 20
0.0
 30
0.0
 70
8
  0
VERTEX
  8
0
 10
76.81500000000001
 20
-28.62092871851711
 30
0.0
  0
VERTEX
  8
0
 10
76.81500000000001
 20
-23.790928718517108
 30
0.0
  0
VERTEX
  8
0
 10
83.14500000000001
 20
-23.790928718517108
 30
0.0
  0
VERTEX
  8
0
 10
83.14500000000001
 20
-28.620928718517106
 30
0.0
  0
VERTEX
  8
0
 10
76.81500000000001
 20
-28.620928718517106
 30
0.0
  0
SEQEND
  0
POLYLINE
  8
0
 66
1
 10
0.0
 20
0.0
 30
0.0
 70
8
  0
VERTEX
  8
0
 10
54.611048649860585
 20
-31.610532676411296
 30
0.0
  0
VERTEX
  8
0
 10
58.79395135013942
 20
-34.025532676411295
 30
0.0
  0
VERTEX
  8
0
 10
55.62895135013942
 20
-39.50747348236679
 30
0.0
  0
VERTEX
  8
0
 10
51.44604864986058
 20
-37.09247348236679
 30
0.0
  0
VERTEX
  8
0
 10
54.61104864986058
 20
-31.610532676411296
 30
0.0
  0
SEQEND
  0
POLYLINE
  8
0
 66
1
 10
0.0
 20
0.0
 30
0.0
 70
8
  0
VERTEX
  8
0
 10
50.28104864986058
 20
-39.11031267318453
 30
0.0
  0
VERTEX
  8
0
 10
54.46395135013942
 20
-41.52531267318453
 30
0.0
  0
VERTEX
  8
0
 10
51.29895135013942
 20
-47.007253479140026
 30
0.0
  0
VERTEX
  8
0
 10
47.11604864986058
 20
-44.59225347914003
 30
0.0
  0
VERTEX
  8
0
 10
50.28104864986058
 20
-39.11031267318453
 30
0.0
  0
SEQEND
  0
POLYLINE
  8
0
 66
1
 10
0.0
 20
0.0
 30
0.0
 70
8
  0
VERTEX
  8
0
 10
62.24604864986058
 20
-34.0255326764113
 30
0.0
  0
VERTEX
  8
0
 10
66.42895135013943
 20
-31.610532676411303
 30
0.0
  0
VERTEX
  8
0
 10
69.59395135013943
 20
-37.0924734823668
 30
0.0
  0
VERTEX
  8
0
 10
65.41104864986059
 20
-39.5074734823668
 30
0.0
  0
VERTEX
  8
0
 10
62.24604864986059
 20
-34.0255326764113
 30
0.0
  0
SEQEND
  0
POLYLINE
  8
0
 66
1
 10
0.0
 20
0.0
 30
0.0
 70
8
  0
VERTEX
  8
0
 10
66.57604864986058
 20
-41.525312673184544
 30
0.0
  0
VERTEX
  8
0
 10
70.75895135013943
 20
-39.110312673184545
 30
0.0
  0
VERTEX
  8
0
 10
73.92395135013943
 20
-44.59225347914004
 30
0.0
  0
VERTEX
  8
0
 10
69.74104864986059
 20
-47.00725347914004
 30
0.0
  0
VERTEX
  8
0
 10
66.57604864986058
 20
-41.525312673184544
 30
0.0
  0
SEQEND
  0
POLYLINE
  8
0
 66
1
 10
0.0
 20
0.0
 30
0.0
 70
8
  0
VERTEX
  8
0
 10
98.41500000000002
 20
-28.62092871851711
 30
0.0
  0
VERTEX
  8
0
 10
98.41500000000002
 20
-23.790928718517108
 30
0.0
  0
VERTEX
  8
0
 10
104.74500000000002
 20
-23.790928718517108
 30
0.0
  0
VERTEX
  8
0
 10
104.74500000000002
 20
-28.620928718517106
 30
0.0
  0
VERTEX
  8
0
 10
98.41500000000002
 20
-28.620928718517106
 30
0.0
  0
SEQEND
  0
POLYLINE
  8
0
 66
1
 10
0.0
 20
0.0
 30
0.0
 70
8
  0
VERTEX
  8
0
 10
107.07500000000002
 20
-28.62092871851711
 30
0.0
  0
VERTEX
  8
0
 10
107.07500000000002
 20
-23.790928718517108
 30
0.0
  0
VERTEX
  8
0
 10
113.40500000000002
 20
-23.790928718517108
 30
0.0
  0
VERTEX
  8
0
 10
113.40500000000002
 20
-28.620928718517106
 30
0.0
  0
VERTEX
  8
0
 10
107.07500000000002
 20
-28.620928718517106
 30
0.0
  0
SEQEND
  0
POLYLINE
  8
0
 66
1
 10
0.0
 20
0.0
 30
0.0
 70
8
  0
VERTEX
  8
0
 10
84.8710486498606
 20
-31.610532676411296
 30
0.0
  0
VERTEX
  8
0
 10
89.05395135013943
 20
-34.025532676411295
 30
0.0
  0
VERTEX
  8
0
 10
85.88895135013942
 20
-39.50747348236679
 30
0.0
  0
VERTEX
  8
0
 10
81.70604864986058
 20
-37.09247348236679
 30
0.0
  0
VERTEX
  8
0
 10
84.87104864986057
 20
-31.610532676411296
 30
0.0
  0
SEQEND
  0
POLYLINE
  8
0
 66
1
 10
0.0
 20
0.0
 30
0.0
 70
8
  0
VERTEX
  8
0
 10
80.5410486498606
 20
-39.11031267318453
 30
0.0
  0
VERTEX
  8
0
 10
84.72395135013943
 20
-41.52531267318453
 30
0.0
  0
VERTEX
  8
0
 10
81.55895135013942
 20
-47.007253479140026
 30
0.0
  0
VERTEX
  8
0
 10
77.37604864986058
 20
-44.59225347914003
 30
0.0
  0
VERTEX
  8
0
 10
80.54104864986057
 20
-39.11031267318453
 30
0.0
  0
SEQEND
  0
POLYLINE
  8
0
 66
1
 10
0.0
 20
0.0
 30
0.0
 70
8
  0
VERTEX
  8
0
 10
92.50604864986059
 20
-34.0255326764113
 30
0.0
  0
VERTEX
  8
0
 10
96.68895135013943
 20
-31.610532676411303
 30
0.0
  0
VERTEX
  8
0
 10
99.85395135013944
 20
-37.0924734823668
 30
0.0
  0
VERTEX
  8
0
 10
95.6710486498606
 20
-39.5074734823668
 30
0.0
  0
VERTEX
  8
0
 10
92.50604864986059
 20
-34.0255326764113
 30
0.0
  0
SEQEND
  0
POLYLINE
  8
0
 66
1
 10
0.0
 20
0.0
 30
0.0
 70
8
  0
VERTEX
  8
0
 10
96.83604864986059
 20
-41.525312673184544
 30
0.0
  0
VERTEX
  8
0
 10
101.01895135013943
 20
-39.110312673184545
 30
0.0
  0
VERTEX
  8
0
 10
104.18395135013944
 20
-44.59225347914004
 30
0.0
  0
VERTEX
  8
0
 10
100.00104864986059
 20
-47.00725347914004
 30
0.0
  0
VERTEX
  8
0
 10
96.8360486498606
 20
-41.525312673184544
 30
0.0
  0
SEQEND
  0
POLYLINE
  8
0
 66
1
 10
0.0
 20
0.0
 30
0.0
 70
8
  0
VERTEX
  8
0
 10
22.765000000000004
 20
-54.82685743703422
 30
0.0
  0
VERTEX
  8
0
 10
22.765000000000004
 20
-49.99685743703422
 30
0.0
  0
VERTEX
  8
0
 10
29.095000000000006
 20
-49.99685743703422
 30
0.0
  0
VERTEX
  8
0
 10
29.095000000000006
 20
-54.82685743703422
 30
0.0
  0
VERTEX
  8
0
 10
22.765000000000008
 20
-54.82685743703422
 30
0.0
  0
SEQEND
  0
POLYLINE
  8
0
 66
1
 10
0.0
 20
0.0
 30
0.0
 70
8
  0
VERTEX
  8
0
 10
31.425000000000004
 20
-54.82685743703422
 30
0.0
  0
VERTEX
  8
0
 10
31.425000000000004
 20
-49.99685743703422
 30
0.0
  0
VERTEX
  8
0
 10
37.755
 20
-49.99685743703422
 30
0.0
  0
VERTEX
  8
0
 10
37.755
 20
-54.82685743703422
 30
0.0
  0
VERTEX
  8
0
 10
31.425000000000004
 20
-54.82685743703422
 30
0.0
  0
SEQEND
  0
POLYLINE
  8
0
 66
1
 10
0.0
 20
0.0
 30
0.0
 70
8
  0
VERTEX
  8
0
 10
7.495
 20
-49.99685743703422
 30
0.0
  0
VERTEX
  8
0
 10
7.494999999999999
 20
-54.82685743703422
 30
0.0
  0
VERTEX
  8
0
 10
1.1649999999999991
 20
-54.82685743703422
 30
0.0
  0
VERTEX
  8
0
 10
1.1649999999999994
 20
-49.99685743703422
 30
0.0
  0
VERTEX
  8
0
 10
7.494999999999999
 20
-49.99685743703422
 30
0.0
  0
SEQEND
  0
POLYLINE
  8
0
 66
1
 10
0.0
 20
0.0
 30
0.0
 70
8
  0
VERTEX
  8
0
 10
-1.165
 20
-49.99685743703422
 30
0.0
  0
VERTEX
  8
0
 10
-1.165000000000001
 20
-54.82685743703422
 30
0.0
  0
VERTEX
  8
0
 10
-7.495000000000001
 20
-54.82685743703422
 30
0.0
  0
VERTEX
  8
0
 10
-7.495000000000001
 20
-49.99685743703422
 30
0.0
  0
VERTEX
  8
0
 10
-1.165000000000001
 20
-49.99685743703422
 30
0.0
  0
SEQEND
  0
POLYLINE
  8
0
 66
1
 10
0.0
 20
0.0
 30
0.0
 70
8
  0
VERTEX
  8
0
 10
9.22104864986058
 20
-57.8164613949284
 30
0.0
  0
VERTEX
  8
0
 10
13.403951350139415
 20
-60.2314613949284
 30
0.0
  0
VERTEX
  8
0
 10
10.238951350139413
 20
-65.71340220088389
 30
0.0
  0
VERTEX
  8
0
 10
6.056048649860574
 20
-63.29840220088389
 30
0.0
  0
VERTEX
  8
0
 10
9.221048649860572
 20
-57.816461394928396
 30
0.0
  0
SEQEND
  0
POLYLINE
  8
0
 66
1
 10
0.0
 20
0.0
 30
0.0
 70
8
  0
VERTEX
  8
0
 10
4.891048649860576
 20
-65.31624139170164
 30
0.0
  0
VERTEX
  8
0
 10
9.073951350139414
 20
-67.73124139170164
 30
0.0
  0
VERTEX
  8
0
 10
5.908951350139411
 20
-73.21318219765713
 30
0.0
  0
VERTEX
  8
0
 10
1.726048649860572
 20
-70.79818219765713
 30
0.0
  0
VERTEX
  8
0
 10
4.89104864986057
 20
-65.31624139170162
 30
0.0
  0
SEQEND
  0
POLYLINE
  8
0
 66
1
 10
0.0
 20
0.0
 30
0.0
 70
8
  0
VERTEX
  8
0
 10
16.856048649860586
 20
-60.23146139492841
 30
0.0
  0
VERTEX
  8
0
 10
21.038951350139424
 20
-57.81646139492841
 30
0.0
  0
VERTEX
  8
0
 10
24.203951350139427
 20
-63.298402200883906
 30
0.0
  0
VERTEX
  8
0
 10
20.02104864986059
 20
-65.7134022008839
 30
0.0
  0
VERTEX
  8
0
 10
16.85604864986059
 20
-60.23146139492841
 30
0.0
  0
SEQEND
  0
POLYLINE
  8
0
 66
1
 10
0.0
 20
0.0
 30
0.0
 70
8
  0
VERTEX
  8
0
 10
21.186048649860588
 20
-67.73124139170164
 30
0.0
  0
VERTEX
  8
0
 10
25.368951350139426
 20
-65.31624139170164
 30
0.0
  0
VERTEX
  8
0
 10
28.533951350139425
 20
-70.79818219765714
 30
0.0
  0
VERTEX
  8
0
 10
24.351048649860587
 20
-73.21318219765715
 30
0.0
  0
VERTEX
  8
0
 10
21.186048649860588
 20
-67.73124139170164
 30
0.0
  0
SEQEND
  0
POLYLINE
  8
0
 66
1
 10
0.0
 20
0.0
 30
0.0
 70
8
  0
VERTEX
  8
0
 10
53.02500000000001
 20
-54.82685743703422
 30
0.0
  0
VERTEX
  8
0
 10
53.02500000000001
 20
-49.99685743703422
 30
0.0
  0
VERTEX
  8
0
 10
59.35500000000001
 20
-49.99685743703422
 30
0.0
  0
VERTEX
  8
0
 10
59.35500000000001
 20
-54.82685743703422
 30
0.0
  0
VERTEX
  8
0
 10
53.02500000000001
 20
-54.82685743703422
 30
0.0
  0
SEQEND
  0
POLYLINE
  8
0
 66
1
 10
0.0
 20
0.0
 30
0.0
 70
8
  0
VERTEX
  8
0
 10
61.68500000000002
 20
-54.82685743703422
 30
0.0
  0
VERTEX
  8
0
 10
61.68500000000002
 20
-49.99685743703422
 30
0.0
  0
VERTEX
  8
0
 10
68.01500000000001
 20
-49.99685743703422
 30
0.0
  0
VERTEX
  8
0
 10
68.01500000000001
 20
-54.82685743703422
 30
0.0
  0
VERTEX
  8
0
 10
61.68500000000002
 20
-54.82685743703422
 30
0.0
  0
SEQEND
  0
POLYLINE
  8
0
 66
1
 10
0.0
 20
0.0
 30
0.0
 70
8
  0
VERTEX
  8
0
 10
39.48104864986058
 20
-57.8164613949284
 30
0.0
  0
VERTEX
  8
0
 10
43.66395135013942
 20
-60.2314613949284
 30
0.0
  0
VERTEX
  8
0
 10
40.49895135013942
 20
-65.71340220088389
 30
0.0
  0
VERTEX
  8
0
 10
36.31604864986058
 20
-63.29840220088389
 30
0.0
  0
VERTEX
  8
0
 10
39.48104864986058
 20
-57.816461394928396
 30
0.0
  0
SEQEND
  0
POLYLINE
  8
0
 66
1
 10
0.0
 20
0.0
 30
0.0
 70
8
  0
VERTEX
  8
0
 10
35.15104864986058
 20
-65.31624139170164
 30
0.0
  0
VERTEX
  8
0
 10
39.333951350139415
 20
-67.73124139170164
 30
0.0
  0
VERTEX
  8
0
 10
36.16895135013941
 20
-73.21318219765713
 30
0.0
  0
VERTEX
  8
0
 10
31.98604864986057
 20
-70.79818219765713
 30
0.0
  0
VERTEX
  8
0
 10
35.15104864986057
 20
-65.31624139170162
 30
0.0
  0
SEQEND
  0
POLYLINE
  8
0
 66
1
 10
0.0
 20
0.0
 30
0.0
 70
8
  0
VERTEX
  8
0
 10
47.11604864986058
 20
-60.23146139492841
 30
0.0
  0
VERTEX
  8
0
 10
51.29895135013942
 20
-57.81646139492841
 30
0.0
  0
VERTEX
  8
0
 10
54.46395135013942
 20
-63.298402200883906
 30
0.0
  0
VERTEX
  8
0
 10
50.28104864986058
 20
-65.7134022008839
 30
0.0
  0
VERTEX
  8
0
 10
47.11604864986058
 20
-60.23146139492841
 30
0.0
  0
SEQEND
  0
POLYLINE
  8
0
 66
1
 10
0.0
 20
0.0
 30
0.0
 70
8
  0
VERTEX
  8
0
 10
51.44604864986058
 20
-67.73124139170164
 30
0.0
  0
VERTEX
  8
0
 10
55.62895135013942
 20
-65.31624139170164
 30
0.0
  0
VERTEX
  8
0
 10
58.793951350139416
 20
-70.79818219765714
 30
0.0
  0
VERTEX
  8
0
 10
54.61104864986058
 20
-73.21318219765715
 30
0.0
  0
VERTEX
  8
0
 10
51.44604864986058
 20
-67.73124139170164
 30
0.0
  0
SEQEND
  0
POLYLINE
  8
0
 66
1
 10
0.0
 20
0.0
 30
0.0
 70
8
  0
VERTEX
  8
0
 10
83.28500000000001
 20
-54.82685743703422
 30
0.0
  0
VERTEX
  8
0
 10
83.28500000000001
 20
-49.99685743703422
 30
0.0
  0
VERTEX
  8
0
 10
89.61500000000001
 20
-49.99685743703422
 30
0.0
  0
VERTEX
  8
0
 10
89.61500000000001
 20
-54.82685743703422
 30
0.0
  0
VERTEX
  8
0
 10
83.28500000000001
 20
-54.82685743703422
 30
0.0
  0
SEQEND
  0
POLYLINE
  8
0
 66
1
 10
0.0
 20
0.0
 30
0.0
 70
8
  0
VERTEX
  8
0
 10
91.94500000000001
 20
-54.82685743703422
 30
0.0
  0
VERTEX
  8
0
 10
91.94500000000001
 20
-49.99685743703422
 30
0.0
  0
VERTEX
  8
0
 10
98.275
 20
-49.99685743703422
 30
0.0
  0
VERTEX
  8
0
 10
98.275
 20
-54.82685743703422
 30
0.0
  0
VERTEX
  8
0
 10
91.94500000000001
 20
-54.82685743703422
 30
0.0
  0
SEQEND
  0
POLYLINE
  8
0
 66
1
 10
0.0
 20
0.0
 30
0.0
 70
8
  0
VERTEX
  8
0
 10
69.74104864986059
 20
-57.8164613949284
 30
0.0
  0
VERTEX
  8
0
 10
73.92395135013942
 20
-60.2314613949284
 30
0.0
  0
VERTEX
  8
0
 10
70.75895135013941
 20
-65.71340220088389
 30
0.0
  0
VERTEX
  8
0
 10
66.57604864986057
 20
-63.29840220088389
 30
0.0
  0
VERTEX
  8
0
 10
69.74104864986056
 20
-57.816461394928396
 30
0.0
  0
SEQEND
  0
POLYLINE
  8
0
 66
1
 10
0.0
 20
0.0
 30
0.0
 70
8
  0
VERTEX
  8
0
 10
65.41104864986059
 20
-65.31624139170164
 30
0.0
  0
VERTEX
  8
0
 10
69.59395135013942
 20
-67.73124139170164
 30
0.0
  0
VERTEX
  8
0
 10
66.42895135013941
 20
-73.21318219765713
 30
0.0
  0
VERTEX
  8
0
 10
62.246048649860576
 20
-70.79818219765713
 30
0.0
  0
VERTEX
  8
0
 10
65.41104864986058
 20
-65.31624139170162
 30
0.0
  0
SEQEND
  0
POLYLINE
  8
0
 66
1
 10
0.0
 20
0.0
 30
0.0
 70
8
  0
VERTEX
  8
0
 10
77.37604864986058
 20
-60.23146139492841
 30
0.0
  0
VERTEX
  8
0
 10
81.55895135013942
 20
-57.81646139492841
 30
0.0
  0
VERTEX
  8
0
 10
84.72395135013943
 20
-63.298402200883906
 30
0.0
  0
VERTEX
  8
0
 10
80.54104864986058
 20
-65.7134022008839
 30
0.0
  0
VERTEX
  8
0
 10
77.37604864986059
 20
-60.23146139492841
 30
0.0
  0
SEQEND
  0
POLYLINE
  8
0
 66
1
 10
0.0
 20
0.0
 30
0.0
 70
8
  0
VERTEX
  8
0
 10
81.70604864986058
 20
-67.73124139170164
 30
0.0
  0
VERTEX
  8
0
 10
85.88895135013942
 20
-65.31624139170164
 30
0.0
  0
VERTEX
  8
0
 10
89.05395135013943
 20
-70.79818219765714
 30
0.0
  0
VERTEX
  8
0
 10
84.87104864986058
 20
-73.21318219765715
 30
0.0
  0
VERTEX
  8
0
 10
81.70604864986058
 20
-67.73124139170164
 30
0.0
  0
SEQEND
  0
POLYLINE
  8
0
 66
1
 10
0.0
 20
0.0
 30
0.0
 70
8
  0
VERTEX
  8
0
 10
113.54500000000003
 20
-54.82685743703422
 30
0.0
  0
VERTEX
  8
0
 10
113.54500000000003
 20
-49.99685743703422
 30
0.0
  0
VERTEX
  8
0
 10
119.87500000000003
 20
-49.99685743703422
 30
0.0
  0
VERTEX
  8
0
 10
119.87500000000003
 20
-54.82685743703422
 30
0.0
  0
VERTEX
  8
0
 10
113.54500000000003
 20
-54.82685743703422
 30
0.0
  0
SEQEND
  0
POLYLINE
  8
0
 66
1
 10
0.0
 20
0.0
 30
0.0
 70
8
  0
VERTEX
  8
0
 10
122.20500000000003
 20
-54.82685743703422
 30
0.0
  0
VERTEX
  8
0
 10
122.20500000000003
 20
-49.99685743703422
 30
0.0
  0
VERTEX
  8
0
 10
128.53500000000003
 20
-49.99685743703422
 30
0.0
  0
VERTEX
  8
0
 10
128.53500000000003
 20
-54.82685743703422
 30
0.0
  0
VERTEX
  8
0
 10
122.20500000000003
 20
-54.82685743703422
 30
0.0
  0
SEQEND
  0
POLYLINE
  8
0
 66
1
 10
0.0
 20
0.0
 30
0.0
 70
8
  0
VERTEX
  8
0
 10
111.81895135013944
 20
-47.00725347914004
 30
0.0
  0
VERTEX
  8
0
 10
107.6360486498606
 20
-44.59225347914004
 30
0.0
  0
VERTEX
  8
0
 10
110.8010486498606
 20
-39.110312673184545
 30
0.0
  0
VERTEX
  8
0
 10
114.98395135013945
 20
-41.525312673184544
 30
0.0
  0
VERTEX
  8
0
 10
111.81895135013944
 20
-47.00725347914004
 30
0.0
  0
SEQEND
  0
POLYLINE
  8
0
 66
1
 10
0.0
 20
0.0
 30
0.0
 70
8
  0
VERTEX
  8
0
 10
116.14895135013944
 20
-39.507473482366805
 30
0.0
  0
VERTEX
  8
0
 10
111.9660486498606
 20
-37.092473482366806
 30
0.0
  0
VERTEX
  8
0
 10
115.1310486498606
 20
-31.61053267641131
 30
0.0
  0
VERTEX
  8
0
 10
119.31395135013945
 20
-34.02553267641131
 30
0.0
  0
VERTEX
  8
0
 10
116.14895135013944
 20
-39.507473482366805
 30
0.0
  0
SEQEND
  0
POLYLINE
  8
0
 66
1
 10
0.0
 20
0.0
 30
0.0
 70
8
  0
VERTEX
  8
0
 10
100.0010486498606
 20
-57.8164613949284
 30
0.0
  0
VERTEX
  8
0
 10
104.18395135013944
 20
-60.2314613949284
 30
0.0
  0
VERTEX
  8
0
 10
101.01895135013943
 20
-65.71340220088389
 30
0.0
  0
VERTEX
  8
0
 10
96.83604864986059
 20
-63.29840220088389
 30
0.0
  0
VERTEX
  8
0
 10
100.00104864986058
 20
-57.816461394928396
 30
0.0
  0
SEQEND
  0
POLYLINE
  8
0
 66
1
 10
0.0
 20
0.0
 30
0.0
 70
8
  0
VERTEX
  8
0
 10
95.67104864986061
 20
-65.31624139170164
 30
0.0
  0
VERTEX
  8
0
 10
99.85395135013944
 20
-67.73124139170164
 30
0.0
  0
VERTEX
  8
0
 10
96.68895135013943
 20
-73.21318219765713
 30
0.0
  0
VERTEX
  8
0
 10
92.50604864986059
 20
-70.79818219765713
 30
0.0
  0
VERTEX
  8
0
 10
95.67104864986058
 20
-65.31624139170162
 30
0.0
  0
SEQEND
  0
POLYLINE
  8
0
 66
1
 10
0.0
 20
0.0
 30
0.0
 70
8
  0
VERTEX
  8
0
 10
107.6360486498606
 20
-60.23146139492841
 30
0.0
  0
VERTEX
  8
0
 10
111.81895135013944
 20
-57.81646139492841
 30
0.0
  0
VERTEX
  8
0
 10
114.98395135013945
 20
-63.298402200883906
 30
0.0
  0
VERTEX
  8
0
 10
110.8010486498606
 20
-65.7134022008839
 30
0.0
  0
VERTEX
  8
0
 10
107.63604864986061
 20
-60.23146139492841
 30
0.0
  0
SEQEND
  0
POLYLINE
  8
0
 66
1
 10
0.0
 20
0.0
 30
0.0
 70
8
  0
VERTEX
  8
0
 10
111.9660486498606
 20
-67.73124139170164
 30
0.0
  0
VERTEX
  8
0
 10
116.14895135013944
 20
-65.31624139170164
 30
0.0
  0
VERTEX
  8
0
 10
119.31395135013945
 20
-70.79818219765714
 30
0.0
  0
VERTEX
  8
0
 10
115.1310486498606
 20
-73.21318219765715
 30
0.0
  0
VERTEX
  8
0
 10
111.9660486498606
 20
-67.73124139170164
 30
0.0
  0
SEQEND
  0
POLYLINE
  8
0
 66
1
 10
0.0
 20
0.0
 30
0.0
 70
8
  0
VERTEX
  8
0
 10
7.635000000000003
 20
-81.03278615555135
 30
0.0
  0
VERTEX
  8
0
 10
7.635000000000003
 20
-76.20278615555135
 30
0.0
  0
VERTEX
  8
0
 10
13.965000000000003
 20
-76.20278615555135
 30
0.0
  0
VERTEX
  8
0
 10
13.965000000000003
 20
-81.03278615555135
 30
0.0
  0
VERTEX
  8
0
 10
7.635000000000003
 20
-81.03278615555135
 30
0.0
  0
SEQEND
  0
POLYLINE
  8
0
 66
1
 10
0.0
 20
0.0
 30
0.0
 70
8
  0
VERTEX
  8
0
 10
16.295
 20
-81.03278615555135
 30
0.0
  0
VERTEX
  8
0
 10
16.295
 20
-76.20278615555135
 30
0.0
  0
VERTEX
  8
0
 10
22.625
 20
-76.20278615555135
 30
0.0
  0
VERTEX
  8
0
 10
22.625
 20
-81.03278615555135
 30
0.0
  0
VERTEX
  8
0
 10
16.295
 20
-81.03278615555135
 30
0.0
  0
SEQEND
  0
POLYLINE
  8
0
 66
1
 10
0.0
 20
0.0
 30
0.0
 70
8
  0
VERTEX
  8
0
 10
-1.7260486498605792
 20
-70.79818219765716
 30
0.0
  0
VERTEX
  8
0
 10
-5.908951350139418
 20
-73.21318219765716
 30
0.0
  0
VERTEX
  8
0
 10
-9.073951350139417
 20
-67.73124139170166
 30
0.0
  0
VERTEX
  8
0
 10
-4.891048649860578
 20
-65.31624139170165
 30
0.0
  0
VERTEX
  8
0
 10
-1.7260486498605774
 20
-70.79818219765716
 30
0.0
  0
SEQEND
  0
POLYLINE
  8
0
 66
1
 10
0.0
 20
0.0
 30
0.0
 70
8
  0
VERTEX
  8
0
 10
-6.0560486498605774
 20
-63.29840220088391
 30
0.0
  0
VERTEX
  8
0
 10
-10.238951350139416
 20
-65.71340220088392
 30
0.0
  0
VERTEX
  8
0
 10
-13.403951350139415
 20
-60.231461394928424
 30
0.0
  0
VERTEX
  8
0
 10
-9.221048649860577
 20
-57.816461394928425
 30
0.0
  0
VERTEX
  8
0
 10
-6.056048649860577
 20
-63.29840220088392
 30
0.0
  0
SEQEND
  0
POLYLINE
  8
0
 66
1
 10
0.0
 20
0.0
 30
0.0
 70
8
  0
VERTEX
  8
0
 10
-7.635000000000003
 20
-76.20278615555134
 30
0.0
  0
VERTEX
  8
0
 10
-7.635000000000004
 20
-81.03278615555134
 30
0.0
  0
VERTEX
  8
0
 10
-13.965000000000003
 20
-81.03278615555134
 30
0.0
  0
VERTEX
  8
0
 10
-13.965000000000003
 20
-76.20278615555134
 30
0.0
  0
VERTEX
  8
0
 10
-7.635000000000003
 20
-76.20278615555134
 30
0.0
  0
SEQEND
  0
POLYLINE
  8
0
 66
1
 10
0.0
 20
0.0
 30
0.0
 70
8
  0
VERTEX
  8
0
 10
-16.295
 20
-76.20278615555134
 30
0.0
  0
VERTEX
  8
0
 10
-16.295
 20
-81.03278615555134
 30
0.0
  0
VERTEX
  8
0
 10
-22.625
 20
-81.03278615555134
 30
0.0
  0
VERTEX
  8
0
 10
-22.625
 20
-76.20278615555134
 30
0.0
  0
VERTEX
  8
0
 10
-16.295
 20
-76.20278615555134
 30
0.0
  0
SEQEND
  0
POLYLINE
  8
0
 66
1
 10
0.0
 20
0.0
 30
0.0
 70
8
  0
VERTEX
  8
0
 10
-5.908951350139423
 20
-84.02239011344554
 30
0.0
  0
VERTEX
  8
0
 10
-1.7260486498605863
 20
-86.43739011344555
 30
0.0
  0
VERTEX
  8
0
 10
-4.891048649860589
 20
-91.91933091940103
 30
0.0
  0
VERTEX
  8
0
 10
-9.073951350139428
 20
-89.50433091940103
 30
0.0
  0
VERTEX
  8
0
 10
-5.9089513501394295
 20
-84.02239011344552
 30
0.0
  0
SEQEND
  0
POLYLINE
  8
0
 66
1
 10
0.0
 20
0.0
 30
0.0
 70
8
  0
VERTEX
  8
0
 10
-10.238951350139427
 20
-91.52217011021878
 30
0.0
  0
VERTEX
  8
0
 10
-6.05604864986059
 20
-93.93717011021879
 30
0.0
  0
VERTEX
  8
0
 10
-9.221048649860592
 20
-99.41911091617428
 30
0.0
  0
VERTEX
  8
0
 10
-13.40395135013943
 20
-97.00411091617427
 30
0.0
  0
VERTEX
  8
0
 10
-10.23895135013943
 20
-91.52217011021877
 30
0.0
  0
SEQEND
  0
POLYLINE
  8
0
 66
1
 10
0.0
 20
0.0
 30
0.0
 70
8
  0
VERTEX
  8
0
 10
1.7260486498605812
 20
-86.43739011344553
 30
0.0
  0
VERTEX
  8
0
 10
5.90895135013942
 20
-84.02239011344552
 30
0.0
  0
VERTEX
  8
0
 10
9.07395135013942
 20
-89.50433091940103
 30
0.0
  0
VERTEX
  8
0
 10
4.891048649860582
 20
-91.91933091940103
 30
0.0
  0
VERTEX
  8
0
 10
1.7260486498605827
 20
-86.43739011344553
 30
0.0
  0
SEQEND
  0
POLYLINE
  8
0
 66
1
 10
0.0
 20
0.0
 30
0.0
 70
8
  0
VERTEX
  8
0
 10
6.056048649860582
 20
-93.93717011021877
 30
0.0
  0
VERTEX
  8
0
 10
10.23895135013942
 20
-91.52217011021877
 30
0.0
  0
VERTEX
  8
0
 10
13.40395135013942
 20
-97.00411091617427
 30
0.0
  0
VERTEX
  8
0
 10
9.221048649860581
 20
-99.41911091617428
 30
0.0
  0
VERTEX
  8
0
 10
6.056048649860582
 20
-93.93717011021877
 30
0.0
  0
SEQEND
  0
POLYLINE
  8
0
 66
1
 10
0.0
 20
0.0
 30
0.0
 70
8
  0
VERTEX
  8
0
 10
37.89500000000001
 20
-81.03278615555135
 30
0.0
  0
VERTEX
  8
0
 10
37.89500000000001
 20
-76.20278615555135
 30
0.0
  0
VERTEX
  8
0
 10
44.22500000000001
 20
-76.20278615555135
 30
0.0
  0
VERTEX
  8
0
 10
44.22500000000001
 20
-81.03278615555135
 30
0.0
  0
VERTEX
  8
0
 10
37.89500000000001
 20
-81.03278615555135
 30
0.0
  0
SEQEND
  0
POLYLINE
  8
0
 66
1
 10
0.0
 20
0.0
 30
0.0
 70
8
  0
VERTEX
  8
0
 10
46.55500000000001
 20
-81.03278615555135
 30
0.0
  0
VERTEX
  8
0
 10
46.55500000000001
 20
-76.20278615555135
 30
0.0
  0
VERTEX
  8
0
 10
52.885000000000005
 20
-76.20278615555135
 30
0.0
  0
VERTEX
  8
0
 10
52.885000000000005
 20
-81.03278615555135
 30
0.0
  0
VERTEX
  8
0
 10
46.55500000000001
 20
-81.03278615555135
 30
0.0
  0
SEQEND
  0
POLYLINE
  8
0
 66
1
 10
0.0
 20
0.0
 30
0.0
 70
8
  0
VERTEX
  8
0
 10
24.351048649860584
 20
-84.02239011344554
 30
0.0
  0
VERTEX
  8
0
 10
28.53395135013942
 20
-86.43739011344555
 30
0.0
  0
VERTEX
  8
0
 10
25.36895135013942
 20
-91.91933091940103
 30
0.0
  0
VERTEX
  8
0
 10
21.18604864986058
 20
-89.50433091940103
 30
0.0
  0
VERTEX
  8
0
 10
24.35104864986058
 20
-84.02239011344552
 30
0.0
  0
SEQEND
  0
POLYLINE
  8
0
 66
1
 10
0.0
 20
0.0
 30
0.0
 70
8
  0
VERTEX
  8
0
 10
20.02104864986058
 20
-91.52217011021878
 30
0.0
  0
VERTEX
  8
0
 10
24.20395135013942
 20
-93.93717011021879
 30
0.0
  0
VERTEX
  8
0
 10
21.038951350139417
 20
-99.41911091617428
 30
0.0
  0
VERTEX
  8
0
 10
16.85604864986058
 20
-97.00411091617427
 30
0.0
  0
VERTEX
  8
0
 10
20.021048649860578
 20
-91.52217011021877
 30
0.0
  0
SEQEND
  0
POLYLINE
  8
0
 66
1
 10
0.0
 20
0.0
 30
0.0
 70
8
  0
VERTEX
  8
0
 10
31.98604864986059
 20
-86.43739011344553
 30
0.0
  0
VERTEX
  8
0
 10
36.16895135013943
 20
-84.02239011344552
 30
0.0
  0
VERTEX
  8
0
 10
39.33395135013943
 20
-89.50433091940103
 30
0.0
  0
VERTEX
  8
0
 10
35.15104864986059
 20
-91.91933091940103
 30
0.0
  0
VERTEX
  8
0
 10
31.986048649860592
 20
-86.43739011344553
 30
0.0
  0
SEQEND
  0
POLYLINE
  8
0
 66
1
 10
0.0
 20
0.0
 30
0.0
 70
8
  0
VERTEX
  8
0
 10
36.31604864986059
 20
-93.93717011021877
 30
0.0
  0
VERTEX
  8
0
 10
40.49895135013943
 20
-91.52217011021877
 30
0.0
  0
VERTEX
  8
0
 10
43.66395135013943
 20
-97.00411091617427
 30
0.0
  0
VERTEX
  8
0
 10
39.48104864986059
 20
-99.41911091617428
 30
0.0
  0
VERTEX
  8
0
 10
36.31604864986059
 20
-93.93717011021877
 30
0.0
  0
SEQEND
  0
POLYLINE
  8
0
 66
1
 10
0.0
 20
0.0
 30
0.0
 70
8
  0
VERTEX
  8
0
 10
68.15500000000002
 20
-81.03278615555135
 30
0.0
  0
VERTEX
  8
0
 10
68.15500000000002
 20
-76.20278615555135
 30
0.0
  0
VERTEX
  8
0
 10
74.48500000000001
 20
-76.20278615555135
 30
0.0
  0
VERTEX
  8
0
 10
74.48500000000001
 20
-81.03278615555135
 30
0.0
  0
VERTEX
  8
0
 10
68.15500000000002
 20
-81.03278615555135
 30
0.0
  0
SEQEND
  0
POLYLINE
  8
0
 66
1
 10
0.0
 20
0.0
 30
0.0
 70
8
  0
VERTEX
  8
0
 10
76.81500000000001
 20
-81.03278615555135
 30
0.0
  0
VERTEX
  8
0
 10
76.81500000000001
 20
-76.20278615555135
 30
0.0
  0
VERTEX
  8
0
 10
83.14500000000001
 20
-76.20278615555135
 30
0.0
  0
VERTEX
  8
0
 10
83.14500000000001
 20
-81.03278615555135
 30
0.0
  0
VERTEX
  8
0
 10
76.81500000000001
 20
-81.03278615555135
 30
0.0
  0
SEQEND
  0
POLYLINE
  8
0
 66
1
 10
0.0
 20
0.0
 30
0.0
 70
8
  0
VERTEX
  8
0
 10
54.611048649860585
 20
-84.02239011344554
 30
0.0
  0
VERTEX
  8
0
 10
58.79395135013942
 20
-86.43739011344555
 30
0.0
  0
VERTEX
  8
0
 10
55.62895135013942
 20
-91.91933091940103
 30
0.0
  0
VERTEX
  8
0
 10
51.44604864986058
 20
-89.50433091940103
 30
0.0
  0
VERTEX
  8
0
 10
54.61104864986058
 20
-84.02239011344552
 30
0.0
  0
SEQEND
  0
POLYLINE
  8
0
 66
1
 10
0.0
 20
0.0
 30
0.0
 70
8
  0
VERTEX
  8
0
 10
50.28104864986058
 20
-91.52217011021878
 30
0.0
  0
VERTEX
  8
0
 10
54.46395135013942
 20
-93.93717011021879
 30
0.0
  0
VERTEX
  8
0
 10
51.29895135013942
 20
-99.41911091617428
 30
0.0
  0
VERTEX
  8
0
 10
47.11604864986058
 20
-97.00411091617427
 30
0.0
  0
VERTEX
  8
0
 10
50.28104864986058
 20
-91.52217011021877
 30
0.0
  0
SEQEND
  0
POLYLINE
  8
0
 66
1
 10
0.0
 20
0.0
 30
0.0
 70
8
  0
VERTEX
  8
0
 10
62.24604864986058
 20
-86.43739011344553
 30
0.0
  0
VERTEX
  8
0
 10
66.42895135013943
 20
-84.02239011344552
 30
0.0
  0
VERTEX
  8
0
 10
69.59395135013943
 20
-89.50433091940103
 30
0.0
  0
VERTEX
  8
0
 10
65.41104864986059
 20
-91.91933091940103
 30
0.0
  0
VERTEX
  8
0
 10
62.24604864986059
 20
-86.43739011344553
 30
0.0
  0
SEQEND
  0
POLYLINE
  8
0
 66
1
 10
0.0
 20
0.0
 30
0.0
 70
8
  0
VERTEX
  8
0
 10
66.57604864986058
 20
-93.93717011021877
 30
0.0
  0
VERTEX
  8
0
 10
70.75895135013943
 20
-91.52217011021877
 30
0.0
  0
VERTEX
  8
0
 10
73.92395135013943
 20
-97.00411091617427
 30
0.0
  0
VERTEX
  8
0
 10
69.74104864986059
 20
-99.41911091617428
 30
0.0
  0
VERTEX
  8
0
 10
66.57604864986058
 20
-93.93717011021877
 30
0.0
  0
SEQEND
  0
POLYLINE
  8
0
 66
1
 10
0.0
 20
0.0
 30
0.0
 70
8
  0
VERTEX
  8
0
 10
98.41500000000002
 20
-81.03278615555135
 30
0.0
  0
VERTEX
  8
0
 10
98.41500000000002
 20
-76.20278615555135
 30
0.0
  0
VERTEX
  8
0
 10
104.74500000000002
 20
-76.20278615555135
 30
0.0
  0
VERTEX
  8
0
 10
104.74500000000002
 20
-81.03278615555135
 30
0.0
  0
VERTEX
  8
0
 10
98.41500000000002
 20
-81.03278615555135
 30
0.0
  0
SEQEND
  0
POLYLINE
  8
0
 66
1
 10
0.0
 20
0.0
 30
0.0
 70
8
  0
VERTEX
  8
0
 10
107.07500000000002
 20
-81.03278615555135
 30
0.0
  0
VERTEX
  8
0
 10
107.07500000000002
 20
-76.20278615555135
 30
0.0
  0
VERTEX
  8
0
 10
113.40500000000002
 20
-76.20278615555135
 30
0.0
  0
VERTEX
  8
0
 10
113.40500000000002
 20
-81.03278615555135
 30
0.0
  0
VERTEX
  8
0
 10
107.07500000000002
 20
-81.03278615555135
 30
0.0
  0
SEQEND
  0
POLYLINE
  8
0
 66
1
 10
0.0
 20
0.0
 30
0.0
 70
8
  0
VERTEX
  8
0
 10
84.8710486498606
 20
-84.02239011344554
 30
0.0
  0
VERTEX
  8
0
 10
89.05395135013943
 20
-86.43739011344555
 30
0.0
  0
VERTEX
  8
0
 10
85.88895135013942
 20
-91.91933091940103
 30
0.0
  0
VERTEX
  8
0
 10
81.70604864986058
 20
-89.50433091940103
 30
0.0
  0
VERTEX
  8
0
 10
84.87104864986057
 20
-84.02239011344552
 30
0.0
  0
SEQEND
  0
POLYLINE
  8
0
 66
1
 10
0.0
 20
0.0
 30
0.0
 70
8
  0
VERTEX
  8
0
 10
80.5410486498606
 20
-91.52217011021878
 30
0.0
  0
VERTEX
  8
0
 10
84.72395135013943
 20
-93.93717011021879
 30
0.0
  0
VERTEX
  8
0
 10
81.55895135013942
 20
-99.41911091617428
 30
0.0
  0
VERTEX
  8
0
 10
77.37604864986058
 20
-97.00411091617427
 30
0.0
  0
VERTEX
  8
0
 10
80.54104864986057
 20
-91.52217011021877
 30
0.0
  0
SEQEND
  0
POLYLINE
  8
0
 66
1
 10
0.0
 20
0.0
 30
0.0
 70
8
  0
VERTEX
  8
0
 10
92.50604864986059
 20
-86.43739011344553
 30
0.0
  0
VERTEX
  8
0
 10
96.68895135013943
 20
-84.02239011344552
 30
0.0
  0
VERTEX
  8
0
 10
99.85395135013944
 20
-89.50433091940103
 30
0.0
  0
VERTEX
  8
0
 10
95.6710486498606
 20
-91.91933091940103
 30
0.0
  0
VERTEX
  8
0
 10
92.50604864986059
 20
-86.43739011344553
 30
0.0
  0
SEQEND
  0
POLYLINE
  8
0
 66
1
 10
0.0
 20
0.0
 30
0.0
 70
8
  0
VERTEX
  8
0
 10
96.83604864986059
 20
-93.93717011021877
 30
0.0
  0
VERTEX
  8
0
 10
101.01895135013943
 20
-91.52217011021877
 30
0.0
  0
VERTEX
  8
0
 10
104.18395135013944
 20
-97.00411091617427
 30
0.0
  0
VERTEX
  8
0
 10
100.00104864986059
 20
-99.41911091617428
 30
0.0
  0
VERTEX
  8
0
 10
96.8360486498606
 20
-93.93717011021877
 30
0.0
  0
SEQEND
  0
ENDSEC
  0
EOF
