  0
SECTION
  2
HEADER
  9
$ACADVER
  1
AC1009
  9
$INSBASE
 10
0.0
 20
0.0
 30
0.0
  9
$EXTMIN
 10
0.0
 20
0.0
 30
0.0
  9
$EXTMAX
 10
100.0
 20
100.0
 30
0.0
  9
$UNITMODE
 70
0
  9
$AUNITS
 70
0
  9
$ANGBASE
 50
0.0
  9
$ANGDIR
 70
0
  0
ENDSEC
  0
SECTION
  2
TABLES
  0
TABLE
  2
LTYPE
 70
19
  0
LTYPE
  2
CONTINUOUS
 70
0
  3
Solid
 72
65
 73
0
 40
0.0
  0
LTYPE
  2
CENTER
 70
0
  3
Center ____ _ ____ _ ____ _ ____ _ ____ _ ____
 72
65
 73
4
 40
2.0
 49
1.25
 49
-0.25
 49
0.25
 49
-0.25
  0
LTYPE
  2
CENTERX2
 70
0
  3
Center (2x) ________  __  ________  __  ________
 72
65
 73
4
 40
3.5
 49
2.5
 49
-0.25
 49
0.5
 49
-0.25
  0
LTYPE
  2
CENTER2
 70
0
  3
Center (.5x) ____ _ ____ _ ____ _ ____ _ ____
 72
65
 73
4
 40
1.0
 49
0.625
 49
-0.125
 49
0.125
 49
-0.125
  0
LTYPE
  2
DASHED
 70
0
  3
Dashed __ __ __ __ __ __ __ __ __ __ __ __ __ _
 72
65
 73
2
 40
0.6
 49
0.5
 49
-0.1
  0
LTYPE
  2
DASHEDX2
 70
0
  3
Dashed (2x) ____  ____  ____  ____  ____  ____
 72
65
 73
2
 40
1.2
 49
1.0
 49
-0.2
  0
LTYPE
  2
DASHED2
 70
0
  3
Dashed (.5x) _ _ _ _ _ _ _ _ _ _ _ _ _ _
 72
65
 73
2
 40
0.3
 49
0.25
 49
-0.05
  0
LTYPE
  2
PHANTOM
 70
0
  3
Phantom ______  __  __  ______  __  __  ______
 72
65
 73
6
 40
2.5
 49
1.25
 49
-0.25
 49
0.25
 49
-0.25
 49
0.25
 49
-0.25
  0
LTYPE
  2
PHANTOMX2
 70
0
  3
Phantom (2x)____________    ____    ____    ____________
 72
65
 73
6
 40
4.25
 49
2.5
 49
-0.25
 49
0.5
 49
-0.25
 49
0.5
 49
-0.25
  0
LTYPE
  2
PHANTOM2
 70
0
  3
Phantom (.5x) ___ _ _ ___ _ _ ___ _ _ ___ _ _ ___
 72
65
 73
6
 40
1.25
 49
0.625
 49
-0.125
 49
0.125
 49
-0.125
 49
0.125
 49
-0.125
  0
LTYPE
  2
DASHDOT
 70
0
  3
Dash dot __ . __ . __ . __ . __ . __ . __ . __
 72
65
 73
4
 40
1.4
 49
1.0
 49
-0.2
 49
0.0
 49
-0.2
  0
LTYPE
  2
DASHDOTX2
 70
0
  3
Dash dot (2x) ____  .  ____  .  ____  .  ____
 72
65
 73
4
 40
2.4
 49
2.0
 49
-0.2
 49
0.0
 49
-0.2
  0
LTYPE
  2
DASHDOT2
 70
0
  3
Dash dot (.5x) _ . _ . _ . _ . _ . _ . _ . _
 72
65
 73
4
 40
0.7
 49
0.5
 49
-0.1
 49
0.0
 49
-0.1
  0
LTYPE
  2
DOT
 70
0
  3
Dot .  .  .  .  .  .  .  .  .  .  .  .  .  .  .  .
 72
65
 73
2
 40
0.2
 49
0.0
 49
-0.2
  0
LTYPE
  2
DOTX2
 70
0
  3
Dot (2x) .    .    .    .    .    .    .    . 
 72
65
 73
2
 40
0.4
 49
0.0
 49
-0.4
  0
LTYPE
  2
DOT2
 70
0
  3
Dot (.5) . . . . . . . . . . . . . . . . . . . 
 72
65
 73
2
 40
0.1
 49
0.0
 49
-0.1
  0
LTYPE
  2
DIVIDE
 70
0
  3
Divide __ . . __ . . __ . . __ . . __ . . __
 72
65
 73
6
 40
1.6
 49
1.0
 49
-0.2
 49
0.0
 49
-0.2
 49
0.0
 49
-0.2
  0
LTYPE
  2
DIVIDEX2
 70
0
  3
Divide (2x) ____  . .  ____  . .  ____  . .  ____
 72
65
 73
6
 40
2.6
 49
2.0
 49
-0.2
 49
0.0
 49
-0.2
 49
0.0
 49
-0.2
  0
LTYPE
  2
DIVIDE2
 70
0
  3
Divide(.5x) _ . _ . _ . _ . _ . _ . _ . _
 72
65
 73
6
 40
0.8
 49
0.5
 49
-0.1
 49
0.0
 49
-0.1
 49
0.0
 49
-0.1
  0
ENDTAB
  0
TABLE
  2
LAYER
 70
5
  0
LAYER
  2
DIMENSIONS
 70
0
 62
1
  6
CONTINUOUS
  0
LAYER
  2
TABLEBACKGROUND
 70
0
 62
1
  6
CONTINUOUS
  0
LAYER
  2
TABLECONTENT
 70
0
 62
1
  6
CONTINUOUS
  0
LAYER
  2
TABLEGRID
 70
0
 62
1
  6
CONTINUOUS
  0
LAYER
  2
VIEWPORTS
 70
0
 62
7
  6
CONTINUOUS
  0
ENDTAB
  0
TABLE
  2
STYLE
 70
12
  0
STYLE
  2
STANDARD
 70
0
 40
0.0
 41
1.0
 42
1.0
 50
0.0
 71
0
  3
arial.ttf
  4

  0
STYLE
  2
ARIAL
 70
0
 40
0.0
 41
1.0
 42
1.0
 50
0.0
 71
0
  3
arial.ttf
  4

  0
STYLE
  2
ARIAL_BOLD
 70
0
 40
0.0
 41
1.0
 42
1.0
 50
0.0
 71
0
  3
arialbd.ttf
  4

  0
STYLE
  2
ARIAL_ITALIC
 70
0
 40
0.0
 41
1.0
 42
1.0
 50
0.0
 71
0
  3
ariali.ttf
  4

  0
STYLE
  2
ARIAL_BOLD_ITALIC
 70
0
 40
0.0
 41
1.0
 42
1.0
 50
0.0
 71
0
  3
arialbi.ttf
  4

  0
STYLE
  2
ARIAL_BLACK
 70
0
 40
0.0
 41
1.0
 42
1.0
 50
0.0
 71
0
  3
ariblk.ttf
  4

  0
STYLE
  2
ISOCPEUR
 70
0
 40
0.0
 41
1.0
 42
1.0
 50
0.0
 71
0
  3
isocpeur.ttf
  4

  0
STYLE
  2
ISOCPEUR_ITALIC
 70
0
 40
0.0
 41
1.0
 42
1.0
 50
0.0
 71
0
  3
isocpeui.ttf
  4

  0
STYLE
  2
TIMES
 70
0
 40
0.0
 41
1.0
 42
1.0
 50
0.0
 71
0
  3
times.ttf
  4

  0
STYLE
  2
TIMES_BOLD
 70
0
 40
0.0
 41
1.0
 42
1.0
 50
0.0
 71
0
  3
timesbd.ttf
  4

  0
STYLE
  2
TIMES_ITALIC
 70
0
 40
0.0
 41
1.0
 42
1.0
 50
0.0
 71
0
  3
timesi.ttf
  4

  0
STYLE
  2
TIMES_BOLD_ITALIC
 70
0
 40
0.0
 41
1.0
 42
1.0
 50
0.0
 71
0
  3
timesbi.ttf
  4

  0
ENDTAB
  0
TABLE
  2
VIEW
 70
0
  0
ENDTAB
  0
TABLE
  2
APPID
 70
1
  0
APPID
  2
DXFWRITE
 70
0
  0
ENDTAB
  0
TABLE
  2
VPORT
 70
0
  0
ENDTAB
  0
TABLE
  2
UCS
 70
0
  0
ENDTAB
  0
ENDSEC
  0
SECTION
  2
BLOCKS
  0
ENDSEC
  0
SECTION
  2
ENTITIES
  0
VIEWPORT
  8
VIEWPORTS
 67
1
 10
0.0
 20
0.0
 30
0.0
 40
1.0
 41
1.0
 68
1
 69
1
1001
ACAD
1000
MVIEW
1002
{
1070
16
1010
0.0
1020
0.0
1030
0.0
1010
0.0
1020
0.0
1030
0.0
1040
0.0
1040
1.0
1040
0.0
1040
0.0
1040
50.0
1040
0.0
1040
0.0
1070
0
1070
100
1070
1
1070
3
1070
0
1070
0
1070
0
1070
0
1040
0.0
1040
0.0
1040
0.0
1040
0.1
1040
0.1
1040
0.1
1040
0.1
1070
0
1002
{
1002
}
1002
}
  0
POLYLINE
  8
0
 66
1
 10
0.0
 20
0.0
 30
0.0
 70
8
  0
VERTEX
  8
0
 10
21.505000000000006
 20
-2.415
 30
0.0
  0
VERTEX
  8
0
 10
21.505000000000006
 20
2.415
 30
0.0
  0
VERTEX
  8
0
 10
27.835000000000008
 20
2.415
 30
0.0
  0
VERTEX
  8
0
 10
27.835000000000008
 20
-2.415
 30
0.0
  0
VERTEX
  8
0
 10
21.50500000000001
 20
-2.414999999999999
 30
0.0
  0
SEQEND
  0
POLYLINE
  8
0
 66
1
 10
0.0
 20
0.0
 30
0.0
 70
8
  0
VERTEX
  8
0
 10
30.165000000000006
 20
-2.415
 30
0.0
  0
VERTEX
  8
0
 10
30.165000000000006
 20
2.415
 30
0.0
  0
VERTEX
  8
0
 10
36.495000000000005
 20
2.415
 30
0.0
  0
VERTEX
  8
0
 10
36.495000000000005
 20
-2.415
 30
0.0
  0
VERTEX
  8
0
 10
30.165000000000006
 20
-2.414999999999999
 30
0.0
  0
SEQEND
  0
POLYLINE
  8
0
 66
1
 10
0.0
 20
0.0
 30
0.0
 70
8
  0
VERTEX
  8
0
 10
20.093951350139424
 20
4.859007953509993
 30
0.0
  0
VERTEX
  8
0
 10
15.911048649860586
 20
7.274007953509992
 30
0.0
  0
VERTEX
  8
0
 10
19.07604864986059
 20
12.75594875946549
 30
0.0
  0
VERTEX
  8
0
 10
23.258951350139426
 20
10.34094875946549
 30
0.0
  0
VERTEX
  8
0
 10
20.093951350139424
 20
4.8590079535099955
 30
0.0
  0
SEQEND
  0
POLYLINE
  8
0
 66
1
 10
0.0
 20
0.0
 30
0.0
 70
8
  0
VERTEX
  8
0
 10
24.423951350139426
 20
12.358787950283231
 30
0.0
  0
VERTEX
  8
0
 10
20.241048649860588
 20
14.77378795028323
 30
0.0
  0
VERTEX
  8
0
 10
23.406048649860587
 20
20.255728756238728
 30
0.0
  0
VERTEX
  8
0
 10
27.588951350139425
 20
17.84072875623873
 30
0.0
  0
VERTEX
  8
0
 10
24.423951350139422
 20
12.358787950283233
 30
0.0
  0
SEQEND
  0
POLYLINE
  8
0
 66
1
 10
0.0
 20
0.0
 30
0.0
 70
8
  0
VERTEX
  8
0
 10
13.088951350139423
 20
7.274007953509993
 30
0.0
  0
VERTEX
  8
0
 10
8.906048649860583
 20
4.859007953509993
 30
0.0
  0
VERTEX
  8
0
 10
5.741048649860584
 20
10.34094875946549
 30
0.0
  0
VERTEX
  8
0
 10
9.923951350139422
 20
12.75594875946549
 30
0.0
  0
VERTEX
  8
0
 10
13.088951350139423
 20
7.274007953509993
 30
0.0
  0
SEQEND
  0
POLYLINE
  8
0
 66
1
 10
0.0
 20
0.0
 30
0.0
 70
8
  0
VERTEX
  8
0
 10
8.758951350139425
 20
14.773787950283232
 30
0.0
  0
VERTEX
  8
0
 10
4.576048649860586
 20
12.358787950283231
 30
0.0
  0
VERTEX
  8
0
 10
1.4110486498605868
 20
17.84072875623873
 30
0.0
  0
VERTEX
  8
0
 10
5.593951350139426
 20
20.255728756238728
 30
0.0
  0
VERTEX
  8
0
 10
8.758951350139426
 20
14.773787950283232
 30
0.0
  0
SEQEND
  0
POLYLINE
  8
0
 66
1
 10
0.0
 20
0.0
 30
0.0
 70
8
  0
VERTEX
  8
0
 10
7.495
 20
2.415000000000001
 30
0.0
  0
VERTEX
  8
0
 10
7.494999999999999
 20
-2.414999999999999
 30
0.0
  0
VERTEX
  8
0
 10
1.1649999999999991
 20
-2.4149999999999983
 30
0.0
  0
VERTEX
  8
0
 10
1.1649999999999994
 20
2.415000000000002
 30
0.0
  0
VERTEX
  8
0
 10
7.494999999999999
 20
2.4150000000000005
 30
0.0
  0
SEQEND
  0
POLYLINE
  8
0
 66
1
 10
0.0
 20
0.0
 30
0.0
 70
8
  0
VERTEX
  8
0
 10
-1.165
 20
2.415000000000002
 30
0.0
  0
VERTEX
  8
0
 10
-1.165000000000001
 20
-2.4149999999999983
 30
0.0
  0
VERTEX
  8
0
 10
-7.495000000000001
 20
-2.4149999999999974
 30
0.0
  0
VERTEX
  8
0
 10
-7.495000000000001
 20
2.4150000000000027
 30
0.0
  0
VERTEX
  8
0
 10
-1.165000000000001
 20
2.4150000000000014
 30
0.0
  0
SEQEND
  0
POLYLINE
  8
0
 66
1
 10
0.0
 20
0.0
 30
0.0
 70
8
  0
VERTEX
  8
0
 10
8.906048649860583
 20
-4.859007953509991
 30
0.0
  0
VERTEX
  8
0
 10
13.088951350139421
 20
-7.274007953509994
 30
0.0
  0
VERTEX
  8
0
 10
9.923951350139419
 20
-12.75594875946549
 30
0.0
  0
VERTEX
  8
0
 10
5.74104864986058
 20
-10.34094875946549
 30
0.0
  0
VERTEX
  8
0
 10
8.906048649860578
 20
-4.859007953509993
 30
0.0
  0
SEQEND
  0
POLYLINE
  8
0
 66
1
 10
0.0
 20
0.0
 30
0.0
 70
8
  0
VERTEX
  8
0
 10
4.57604864986058
 20
-12.358787950283228
 30
0.0
  0
VERTEX
  8
0
 10
8.758951350139416
 20
-14.77378795028323
 30
0.0
  0
VERTEX
  8
0
 10
5.593951350139413
 20
-20.255728756238724
 30
0.0
  0
VERTEX
  8
0
 10
1.4110486498605743
 20
-17.840728756238725
 30
0.0
  0
VERTEX
  8
0
 10
4.576048649860573
 20
-12.358787950283228
 30
0.0
  0
SEQEND
  0
POLYLINE
  8
0
 66
1
 10
0.0
 20
0.0
 30
0.0
 70
8
  0
VERTEX
  8
0
 10
15.911048649860586
 20
-7.274007953509992
 30
0.0
  0
VERTEX
  8
0
 10
20.093951350139424
 20
-4.859007953509993
 30
0.0
  0
VERTEX
  8
0
 10
23.258951350139426
 20
-10.34094875946549
 30
0.0
  0
VERTEX
  8
0
 10
19.07604864986059
 20
-12.75594875946549
 30
0.0
  0
VERTEX
  8
0
 10
15.91104864986059
 20
-7.274007953509993
 30
0.0
  0
SEQEND
  0
POLYLINE
  8
0
 66
1
 10
0.0
 20
0.0
 30
0.0
 70
8
  0
VERTEX
  8
0
 10
20.241048649860588
 20
-14.77378795028323
 30
0.0
  0
VERTEX
  8
0
 10
24.423951350139426
 20
-12.358787950283231
 30
0.0
  0
VERTEX
  8
0
 10
27.588951350139425
 20
-17.84072875623873
 30
0.0
  0
VERTEX
  8
0
 10
23.406048649860587
 20
-20.255728756238728
 30
0.0
  0
VERTEX
  8
0
 10
20.241048649860588
 20
-14.773787950283232
 30
0.0
  0
SEQEND
  0
POLYLINE
  8
0
 66
1
 10
0.0
 20
0.0
 30
0.0
 70
8
  0
VERTEX
  8
0
 10
50.50500000000002
 20
-2.415
 30
0.0
  0
VERTEX
  8
0
 10
50.50500000000002
 20
2.415
 30
0.0
  0
VERTEX
  8
0
 10
56.835000000000015
 20
2.415
 30
0.0
  0
VERTEX
  8
0
 10
56.835000000000015
 20
-2.415
 30
0.0
  0
VERTEX
  8
0
 10
50.50500000000002
 20
-2.414999999999999
 30
0.0
  0
SEQEND
  0
POLYLINE
  8
0
 66
1
 10
0.0
 20
0.0
 30
0.0
 70
8
  0
VERTEX
  8
0
 10
59.16500000000002
 20
-2.415
 30
0.0
  0
VERTEX
  8
0
 10
59.16500000000002
 20
2.415
 30
0.0
  0
VERTEX
  8
0
 10
65.49500000000002
 20
2.415
 30
0.0
  0
VERTEX
  8
0
 10
65.49500000000002
 20
-2.415
 30
0.0
  0
VERTEX
  8
0
 10
59.16500000000002
 20
-2.414999999999999
 30
0.0
  0
SEQEND
  0
POLYLINE
  8
0
 66
1
 10
0.0
 20
0.0
 30
0.0
 70
8
  0
VERTEX
  8
0
 10
49.093951350139434
 20
4.859007953509993
 30
0.0
  0
VERTEX
  8
0
 10
44.9110486498606
 20
7.274007953509992
 30
0.0
  0
VERTEX
  8
0
 10
48.076048649860596
 20
12.75594875946549
 30
0.0
  0
VERTEX
  8
0
 10
52.258951350139434
 20
10.34094875946549
 30
0.0
  0
VERTEX
  8
0
 10
49.093951350139434
 20
4.8590079535099955
 30
0.0
  0
SEQEND
  0
POLYLINE
  8
0
 66
1
 10
0.0
 20
0.0
 30
0.0
 70
8
  0
VERTEX
  8
0
 10
53.42395135013943
 20
12.358787950283231
 30
0.0
  0
VERTEX
  8
0
 10
49.241048649860595
 20
14.77378795028323
 30
0.0
  0
VERTEX
  8
0
 10
52.406048649860594
 20
20.255728756238728
 30
0.0
  0
VERTEX
  8
0
 10
56.58895135013943
 20
17.84072875623873
 30
0.0
  0
VERTEX
  8
0
 10
53.42395135013943
 20
12.358787950283233
 30
0.0
  0
SEQEND
  0
POLYLINE
  8
0
 66
1
 10
0.0
 20
0.0
 30
0.0
 70
8
  0
VERTEX
  8
0
 10
42.08895135013944
 20
7.274007953509993
 30
0.0
  0
VERTEX
  8
0
 10
37.9060486498606
 20
4.859007953509993
 30
0.0
  0
VERTEX
  8
0
 10
34.7410486498606
 20
10.34094875946549
 30
0.0
  0
VERTEX
  8
0
 10
38.92395135013944
 20
12.75594875946549
 30
0.0
  0
VERTEX
  8
0
 10
42.08895135013944
 20
7.274007953509993
 30
0.0
  0
SEQEND
  0
POLYLINE
  8
0
 66
1
 10
0.0
 20
0.0
 30
0.0
 70
8
  0
VERTEX
  8
0
 10
37.75895135013944
 20
14.773787950283232
 30
0.0
  0
VERTEX
  8
0
 10
33.5760486498606
 20
12.358787950283231
 30
0.0
  0
VERTEX
  8
0
 10
30.411048649860604
 20
17.84072875623873
 30
0.0
  0
VERTEX
  8
0
 10
34.59395135013944
 20
20.255728756238728
 30
0.0
  0
VERTEX
  8
0
 10
37.75895135013944
 20
14.773787950283232
 30
0.0
  0
SEQEND
  0
POLYLINE
  8
0
 66
1
 10
0.0
 20
0.0
 30
0.0
 70
8
  0
VERTEX
  8
0
 10
37.90604864986059
 20
-4.859007953509991
 30
0.0
  0
VERTEX
  8
0
 10
42.088951350139425
 20
-7.274007953509994
 30
0.0
  0
VERTEX
  8
0
 10
38.92395135013942
 20
-12.75594875946549
 30
0.0
  0
VERTEX
  8
0
 10
34.74104864986058
 20
-10.34094875946549
 30
0.0
  0
VERTEX
  8
0
 10
37.90604864986058
 20
-4.859007953509993
 30
0.0
  0
SEQEND
  0
POLYLINE
  8
0
 66
1
 10
0.0
 20
0.0
 30
0.0
 70
8
  0
VERTEX
  8
0
 10
33.57604864986058
 20
-12.358787950283228
 30
0.0
  0
VERTEX
  8
0
 10
37.75895135013942
 20
-14.77378795028323
 30
0.0
  0
VERTEX
  8
0
 10
34.59395135013942
 20
-20.255728756238724
 30
0.0
  0
VERTEX
  8
0
 10
30.411048649860582
 20
-17.840728756238725
 30
0.0
  0
VERTEX
  8
0
 10
33.57604864986058
 20
-12.358787950283228
 30
0.0
  0
SEQEND
  0
POLYLINE
  8
0
 66
1
 10
0.0
 20
0.0
 30
0.0
 70
8
  0
VERTEX
  8
0
 10
44.91104864986059
 20
-7.274007953509992
 30
0.0
  0
VERTEX
  8
0
 10
49.09395135013943
 20
-4.859007953509993
 30
0.0
  0
VERTEX
  8
0
 10
52.25895135013943
 20
-10.34094875946549
 30
0.0
  0
VERTEX
  8
0
 10
48.07604864986059
 20
-12.75594875946549
 30
0.0
  0
VERTEX
  8
0
 10
44.91104864986059
 20
-7.274007953509993
 30
0.0
  0
SEQEND
  0
POLYLINE
  8
0
 66
1
 10
0.0
 20
0.0
 30
0.0
 70
8
  0
VERTEX
  8
0
 10
49.24104864986059
 20
-14.77378795028323
 30
0.0
  0
VERTEX
  8
0
 10
53.423951350139426
 20
-12.358787950283231
 30
0.0
  0
VERTEX
  8
0
 10
56.588951350139425
 20
-17.84072875623873
 30
0.0
  0
VERTEX
  8
0
 10
52.40604864986059
 20
-20.255728756238728
 30
0.0
  0
VERTEX
  8
0
 10
49.24104864986059
 20
-14.773787950283232
 30
0.0
  0
SEQEND
  0
POLYLINE
  8
0
 66
1
 10
0.0
 20
0.0
 30
0.0
 70
8
  0
VERTEX
  8
0
 10
79.50500000000002
 20
-2.415
 30
0.0
  0
VERTEX
  8
0
 10
79.50500000000002
 20
2.415
 30
0.0
  0
VERTEX
  8
0
 10
85.83500000000002
 20
2.415
 30
0.0
  0
VERTEX
  8
0
 10
85.83500000000002
 20
-2.415
 30
0.0
  0
VERTEX
  8
0
 10
79.50500000000002
 20
-2.414999999999999
 30
0.0
  0
SEQEND
  0
POLYLINE
  8
0
 66
1
 10
0.0
 20
0.0
 30
0.0
 70
8
  0
VERTEX
  8
0
 10
88.16500000000002
 20
-2.415
 30
0.0
  0
VERTEX
  8
0
 10
88.16500000000002
 20
2.415
 30
0.0
  0
VERTEX
  8
0
 10
94.49500000000002
 20
2.415
 30
0.0
  0
VERTEX
  8
0
 10
94.49500000000002
 20
-2.415
 30
0.0
  0
VERTEX
  8
0
 10
88.16500000000002
 20
-2.414999999999999
 30
0.0
  0
SEQEND
  0
POLYLINE
  8
0
 66
1
 10
0.0
 20
0.0
 30
0.0
 70
8
  0
VERTEX
  8
0
 10
78.09395135013943
 20
4.859007953509993
 30
0.0
  0
VERTEX
  8
0
 10
73.91104864986059
 20
7.274007953509992
 30
0.0
  0
VERTEX
  8
0
 10
77.0760486498606
 20
12.75594875946549
 30
0.0
  0
VERTEX
  8
0
 10
81.25895135013944
 20
10.34094875946549
 30
0.0
  0
VERTEX
  8
0
 10
78.09395135013943
 20
4.8590079535099955
 30
0.0
  0
SEQEND
  0
POLYLINE
  8
0
 66
1
 10
0.0
 20
0.0
 30
0.0
 70
8
  0
VERTEX
  8
0
 10
82.42395135013943
 20
12.358787950283231
 30
0.0
  0
VERTEX
  8
0
 10
78.24104864986059
 20
14.77378795028323
 30
0.0
  0
VERTEX
  8
0
 10
81.4060486498606
 20
20.255728756238728
 30
0.0
  0
VERTEX
  8
0
 10
85.58895135013944
 20
17.84072875623873
 30
0.0
  0
VERTEX
  8
0
 10
82.42395135013943
 20
12.358787950283233
 30
0.0
  0
SEQEND
  0
POLYLINE
  8
0
 66
1
 10
0.0
 20
0.0
 30
0.0
 70
8
  0
VERTEX
  8
0
 10
71.08895135013944
 20
7.274007953509993
 30
0.0
  0
VERTEX
  8
0
 10
66.9060486498606
 20
4.859007953509993
 30
0.0
  0
VERTEX
  8
0
 10
63.741048649860595
 20
10.34094875946549
 30
0.0
  0
VERTEX
  8
0
 10
67.92395135013943
 20
12.75594875946549
 30
0.0
  0
VERTEX
  8
0
 10
71.08895135013944
 20
7.274007953509993
 30
0.0
  0
SEQEND
  0
POLYLINE
  8
0
 66
1
 10
0.0
 20
0.0
 30
0.0
 70
8
  0
VERTEX
  8
0
 10
66.75895135013944
 20
14.773787950283232
 30
0.0
  0
VERTEX
  8
0
 10
62.5760486498606
 20
12.358787950283231
 30
0.0
  0
VERTEX
  8
0
 10
59.411048649860604
 20
17.84072875623873
 30
0.0
  0
VERTEX
  8
0
 10
63.59395135013944
 20
20.255728756238728
 30
0.0
  0
VERTEX
  8
0
 10
66.75895135013944
 20
14.773787950283232
 30
0.0
  0
SEQEND
  0
POLYLINE
  8
0
 66
1
 10
0.0
 20
0.0
 30
0.0
 70
8
  0
VERTEX
  8
0
 10
66.9060486498606
 20
-4.859007953509991
 30
0.0
  0
VERTEX
  8
0
 10
71.08895135013942
 20
-7.274007953509994
 30
0.0
  0
VERTEX
  8
0
 10
67.92395135013942
 20
-12.75594875946549
 30
0.0
  0
VERTEX
  8
0
 10
63.74104864986058
 20
-10.34094875946549
 30
0.0
  0
VERTEX
  8
0
 10
66.90604864986058
 20
-4.859007953509993
 30
0.0
  0
SEQEND
  0
POLYLINE
  8
0
 66
1
 10
0.0
 20
0.0
 30
0.0
 70
8
  0
VERTEX
  8
0
 10
62.57604864986059
 20
-12.358787950283228
 30
0.0
  0
VERTEX
  8
0
 10
66.75895135013943
 20
-14.77378795028323
 30
0.0
  0
VERTEX
  8
0
 10
63.59395135013942
 20
-20.255728756238724
 30
0.0
  0
VERTEX
  8
0
 10
59.41104864986058
 20
-17.840728756238725
 30
0.0
  0
VERTEX
  8
0
 10
62.57604864986058
 20
-12.358787950283228
 30
0.0
  0
SEQEND
  0
POLYLINE
  8
0
 66
1
 10
0.0
 20
0.0
 30
0.0
 70
8
  0
VERTEX
  8
0
 10
73.91104864986059
 20
-7.274007953509992
 30
0.0
  0
VERTEX
  8
0
 10
78.09395135013943
 20
-4.859007953509993
 30
0.0
  0
VERTEX
  8
0
 10
81.25895135013944
 20
-10.34094875946549
 30
0.0
  0
VERTEX
  8
0
 10
77.0760486498606
 20
-12.75594875946549
 30
0.0
  0
VERTEX
  8
0
 10
73.91104864986059
 20
-7.274007953509993
 30
0.0
  0
SEQEND
  0
POLYLINE
  8
0
 66
1
 10
0.0
 20
0.0
 30
0.0
 70
8
  0
VERTEX
  8
0
 10
78.24104864986059
 20
-14.77378795028323
 30
0.0
  0
VERTEX
  8
0
 10
82.42395135013943
 20
-12.358787950283231
 30
0.0
  0
VERTEX
  8
0
 10
85.58895135013944
 20
-17.84072875623873
 30
0.0
  0
VERTEX
  8
0
 10
81.4060486498606
 20
-20.255728756238728
 30
0.0
  0
VERTEX
  8
0
 10
78.2410486498606
 20
-14.773787950283232
 30
0.0
  0
SEQEND
  0
POLYLINE
  8
0
 66
1
 10
0.0
 20
0.0
 30
0.0
 70
8
  0
VERTEX
  8
0
 10
7.0050000000000034
 20
-27.52973670974872
 30
0.0
  0
VERTEX
  8
0
 10
7.0050000000000034
 20
-22.69973670974872
 30
0.0
  0
VERTEX
  8
0
 10
13.335000000000004
 20
-22.69973670974872
 30
0.0
  0
VERTEX
  8
0
 10
13.335000000000004
 20
-27.52973670974872
 30
0.0
  0
VERTEX
  8
0
 10
7.005000000000004
 20
-27.52973670974872
 30
0.0
  0
SEQEND
  0
POLYLINE
  8
0
 66
1
 10
0.0
 20
0.0
 30
0.0
 70
8
  0
VERTEX
  8
0
 10
15.665000000000003
 20
-27.52973670974872
 30
0.0
  0
VERTEX
  8
0
 10
15.665000000000003
 20
-22.69973670974872
 30
0.0
  0
VERTEX
  8
0
 10
21.995000000000005
 20
-22.69973670974872
 30
0.0
  0
VERTEX
  8
0
 10
21.995000000000005
 20
-27.52973670974872
 30
0.0
  0
VERTEX
  8
0
 10
15.665000000000004
 20
-27.52973670974872
 30
0.0
  0
SEQEND
  0
POLYLINE
  8
0
 66
1
 10
0.0
 20
0.0
 30
0.0
 70
8
  0
VERTEX
  8
0
 10
-1.4110486498605792
 20
-17.840728756238725
 30
0.0
  0
VERTEX
  8
0
 10
-5.5939513501394185
 20
-20.255728756238724
 30
0.0
  0
VERTEX
  8
0
 10
-8.758951350139418
 20
-14.773787950283229
 30
0.0
  0
VERTEX
  8
0
 10
-4.576048649860579
 20
-12.35878795028323
 30
0.0
  0
VERTEX
  8
0
 10
-1.4110486498605779
 20
-17.840728756238725
 30
0.0
  0
SEQEND
  0
POLYLINE
  8
0
 66
1
 10
0.0
 20
0.0
 30
0.0
 70
8
  0
VERTEX
  8
0
 10
-5.741048649860577
 20
-10.340948759465487
 30
0.0
  0
VERTEX
  8
0
 10
-9.923951350139415
 20
-12.755948759465488
 30
0.0
  0
VERTEX
  8
0
 10
-13.088951350139414
 20
-7.274007953509991
 30
0.0
  0
VERTEX
  8
0
 10
-8.906048649860576
 20
-4.859007953509991
 30
0.0
  0
VERTEX
  8
0
 10
-5.741048649860575
 20
-10.340948759465487
 30
0.0
  0
SEQEND
  0
POLYLINE
  8
0
 66
1
 10
0.0
 20
0.0
 30
0.0
 70
8
  0
VERTEX
  8
0
 10
-7.0050000000000034
 20
-22.69973670974872
 30
0.0
  0
VERTEX
  8
0
 10
-7.005000000000004
 20
-27.52973670974872
 30
0.0
  0
VERTEX
  8
0
 10
-13.335000000000004
 20
-27.52973670974872
 30
0.0
  0
VERTEX
  8
0
 10
-13.335000000000004
 20
-22.69973670974872
 30
0.0
  0
VERTEX
  8
0
 10
-7.005000000000004
 20
-22.69973670974872
 30
0.0
  0
SEQEND
  0
POLYLINE
  8
0
 66
1
 10
0.0
 20
0.0
 30
0.0
 70
8
  0
VERTEX
  8
0
 10
-15.665000000000003
 20
-22.69973670974872
 30
0.0
  0
VERTEX
  8
0
 10
-15.665000000000003
 20
-27.52973670974872
 30
0.0
  0
VERTEX
  8
0
 10
-21.995000000000005
 20
-27.52973670974872
 30
0.0
  0
VERTEX
  8
0
 10
-21.995000000000005
 20
-22.69973670974872
 30
0.0
  0
VERTEX
  8
0
 10
-15.665000000000004
 20
-22.69973670974872
 30
0.0
  0
SEQEND
  0
POLYLINE
  8
0
 66
1
 10
0.0
 20
0.0
 30
0.0
 70
8
  0
VERTEX
  8
0
 10
-5.593951350139422
 20
-29.97374466325871
 30
0.0
  0
VERTEX
  8
0
 10
-1.411048649860585
 20
-32.38874466325871
 30
0.0
  0
VERTEX
  8
0
 10
-4.576048649860588
 20
-37.87068546921421
 30
0.0
  0
VERTEX
  8
0
 10
-8.758951350139426
 20
-35.45568546921421
 30
0.0
  0
VERTEX
  8
0
 10
-5.593951350139428
 20
-29.973744663258714
 30
0.0
  0
SEQEND
  0
POLYLINE
  8
0
 66
1
 10
0.0
 20
0.0
 30
0.0
 70
8
  0
VERTEX
  8
0
 10
-9.923951350139426
 20
-37.47352466003195
 30
0.0
  0
VERTEX
  8
0
 10
-5.741048649860589
 20
-39.88852466003195
 30
0.0
  0
VERTEX
  8
0
 10
-8.90604864986059
 20
-45.370465465987444
 30
0.0
  0
VERTEX
  8
0
 10
-13.088951350139428
 20
-42.955465465987444
 30
0.0
  0
VERTEX
  8
0
 10
-9.92395135013943
 20
-37.47352466003195
 30
0.0
  0
SEQEND
  0
POLYLINE
  8
0
 66
1
 10
0.0
 20
0.0
 30
0.0
 70
8
  0
VERTEX
  8
0
 10
1.411048649860581
 20
-32.38874466325871
 30
0.0
  0
VERTEX
  8
0
 10
5.59395135013942
 20
-29.973744663258714
 30
0.0
  0
VERTEX
  8
0
 10
8.758951350139421
 20
-35.45568546921421
 30
0.0
  0
VERTEX
  8
0
 10
4.576048649860582
 20
-37.87068546921421
 30
0.0
  0
VERTEX
  8
0
 10
1.4110486498605832
 20
-32.38874466325871
 30
0.0
  0
SEQEND
  0
POLYLINE
  8
0
 66
1
 10
0.0
 20
0.0
 30
0.0
 70
8
  0
VERTEX
  8
0
 10
5.741048649860582
 20
-39.88852466003195
 30
0.0
  0
VERTEX
  8
0
 10
9.923951350139422
 20
-37.47352466003195
 30
0.0
  0
VERTEX
  8
0
 10
13.088951350139423
 20
-42.955465465987444
 30
0.0
  0
VERTEX
  8
0
 10
8.906048649860583
 20
-45.370465465987444
 30
0.0
  0
VERTEX
  8
0
 10
5.741048649860584
 20
-39.88852466003195
 30
0.0
  0
SEQEND
  0
POLYLINE
  8
0
 66
1
 10
0.0
 20
0.0
 30
0.0
 70
8
  0
VERTEX
  8
0
 10
36.00500000000001
 20
-27.52973670974872
 30
0.0
  0
VERTEX
  8
0
 10
36.00500000000001
 20
-22.69973670974872
 30
0.0
  0
VERTEX
  8
0
 10
42.33500000000001
 20
-22.69973670974872
 30
0.0
  0
VERTEX
  8
0
 10
42.33500000000001
 20
-27.52973670974872
 30
0.0
  0
VERTEX
  8
0
 10
36.00500000000001
 20
-27.52973670974872
 30
0.0
  0
SEQEND
  0
POLYLINE
  8
0
 66
1
 10
0.0
 20
0.0
 30
0.0
 70
8
  0
VERTEX
  8
0
 10
44.665000000000006
 20
-27.52973670974872
 30
0.0
  0
VERTEX
  8
0
 10
44.665000000000006
 20
-22.69973670974872
 30
0.0
  0
VERTEX
  8
0
 10
50.995000000000005
 20
-22.69973670974872
 30
0.0
  0
VERTEX
  8
0
 10
50.995000000000005
 20
-27.52973670974872
 30
0.0
  0
VERTEX
  8
0
 10
44.665000000000006
 20
-27.52973670974872
 30
0.0
  0
SEQEND
  0
POLYLINE
  8
0
 66
1
 10
0.0
 20
0.0
 30
0.0
 70
8
  0
VERTEX
  8
0
 10
23.406048649860587
 20
-29.97374466325871
 30
0.0
  0
VERTEX
  8
0
 10
27.588951350139425
 20
-32.38874466325871
 30
0.0
  0
VERTEX
  8
0
 10
24.423951350139422
 20
-37.87068546921421
 30
0.0
  0
VERTEX
  8
0
 10
20.241048649860584
 20
-35.45568546921421
 30
0.0
  0
VERTEX
  8
0
 10
23.406048649860583
 20
-29.973744663258714
 30
0.0
  0
SEQEND
  0
POLYLINE
  8
0
 66
1
 10
0.0
 20
0.0
 30
0.0
 70
8
  0
VERTEX
  8
0
 10
19.07604864986058
 20
-37.47352466003195
 30
0.0
  0
VERTEX
  8
0
 10
23.25895135013942
 20
-39.88852466003195
 30
0.0
  0
VERTEX
  8
0
 10
20.093951350139417
 20
-45.370465465987444
 30
0.0
  0
VERTEX
  8
0
 10
15.911048649860579
 20
-42.955465465987444
 30
0.0
  0
VERTEX
  8
0
 10
19.076048649860578
 20
-37.47352466003195
 30
0.0
  0
SEQEND
  0
POLYLINE
  8
0
 66
1
 10
0.0
 20
0.0
 30
0.0
 70
8
  0
VERTEX
  8
0
 10
30.411048649860586
 20
-32.38874466325871
 30
0.0
  0
VERTEX
  8
0
 10
34.59395135013943
 20
-29.973744663258714
 30
0.0
  0
VERTEX
  8
0
 10
37.75895135013943
 20
-35.45568546921421
 30
0.0
  0
VERTEX
  8
0
 10
33.57604864986059
 20
-37.87068546921421
 30
0.0
  0
VERTEX
  8
0
 10
30.41104864986059
 20
-32.38874466325871
 30
0.0
  0
SEQEND
  0
POLYLINE
  8
0
 66
1
 10
0.0
 20
0.0
 30
0.0
 70
8
  0
VERTEX
  8
0
 10
34.74104864986059
 20
-39.88852466003195
 30
0.0
  0
VERTEX
  8
0
 10
38.923951350139426
 20
-37.47352466003195
 30
0.0
  0
VERTEX
  8
0
 10
42.088951350139425
 20
-42.955465465987444
 30
0.0
  0
VERTEX
  8
0
 10
37.90604864986059
 20
-45.370465465987444
 30
0.0
  0
VERTEX
  8
0
 10
34.74104864986059
 20
-39.88852466003195
 30
0.0
  0
SEQEND
  0
POLYLINE
  8
0
 66
1
 10
0.0
 20
0.0
 30
0.0
 70
8
  0
VERTEX
  8
0
 10
65.00500000000002
 20
-27.52973670974872
 30
0.0
  0
VERTEX
  8
0
 10
65.00500000000002
 20
-22.69973670974872
 30
0.0
  0
VERTEX
  8
0
 10
71.33500000000002
 20
-22.69973670974872
 30
0.0
  0
VERTEX
  8
0
 10
71.33500000000002
 20
-27.52973670974872
 30
0.0
  0
VERTEX
  8
0
 10
65.00500000000002
 20
-27.52973670974872
 30
0.0
  0
SEQEND
  0
POLYLINE
  8
0
 66
1
 10
0.0
 20
0.0
 30
0.0
 70
8
  0
VERTEX
  8
0
 10
73.66500000000002
 20
-27.52973670974872
 30
0.0
  0
VERTEX
  8
0
 10
73.66500000000002
 20
-22.69973670974872
 30
0.0
  0
VERTEX
  8
0
 10
79.99500000000002
 20
-22.69973670974872
 30
0.0
  0
VERTEX
  8
0
 10
79.99500000000002
 20
-27.52973670974872
 30
0.0
  0
VERTEX
  8
0
 10
73.66500000000002
 20
-27.52973670974872
 30
0.0
  0
SEQEND
  0
POLYLINE
  8
0
 66
1
 10
0.0
 20
0.0
 30
0.0
 70
8
  0
VERTEX
  8
0
 10
52.40604864986059
 20
-29.97374466325871
 30
0.0
  0
VERTEX
  8
0
 10
56.588951350139425
 20
-32.38874466325871
 30
0.0
  0
VERTEX
  8
0
 10
53.42395135013942
 20
-37.87068546921421
 30
0.0
  0
VERTEX
  8
0
 10
49.24104864986058
 20
-35.45568546921421
 30
0.0
  0
VERTEX
  8
0
 10
52.40604864986058
 20
-29.973744663258714
 30
0.0
  0
SEQEND
  0
POLYLINE
  8
0
 66
1
 10
0.0
 20
0.0
 30
0.0
 70
8
  0
VERTEX
  8
0
 10
48.07604864986058
 20
-37.47352466003195
 30
0.0
  0
VERTEX
  8
0
 10
52.25895135013942
 20
-39.88852466003195
 30
0.0
  0
VERTEX
  8
0
 10
49.09395135013942
 20
-45.370465465987444
 30
0.0
  0
VERTEX
  8
0
 10
44.91104864986058
 20
-42.955465465987444
 30
0.0
  0
VERTEX
  8
0
 10
48.07604864986058
 20
-37.47352466003195
 30
0.0
  0
SEQEND
  0
POLYLINE
  8
0
 66
1
 10
0.0
 20
0.0
 30
0.0
 70
8
  0
VERTEX
  8
0
 10
59.41104864986059
 20
-32.38874466325871
 30
0.0
  0
VERTEX
  8
0
 10
63.59395135013943
 20
-29.973744663258714
 30
0.0
  0
VERTEX
  8
0
 10
66.75895135013943
 20
-35.45568546921421
 30
0.0
  0
VERTEX
  8
0
 10
62.57604864986059
 20
-37.87068546921421
 30
0.0
  0
VERTEX
  8
0
 10
59.41104864986059
 20
-32.38874466325871
 30
0.0
  0
SEQEND
  0
POLYLINE
  8
0
 66
1
 10
0.0
 20
0.0
 30
0.0
 70
8
  0
VERTEX
  8
0
 10
63.74104864986059
 20
-39.88852466003195
 30
0.0
  0
VERTEX
  8
0
 10
67.92395135013943
 20
-37.47352466003195
 30
0.0
  0
VERTEX
  8
0
 10
71.08895135013944
 20
-42.955465465987444
 30
0.0
  0
VERTEX
  8
0
 10
66.9060486498606
 20
-45.370465465987444
 30
0.0
  0
VERTEX
  8
0
 10
63.741048649860595
 20
-39.88852466003195
 30
0.0
  0
SEQEND
  0
POLYLINE
  8
0
 66
1
 10
0.0
 20
0.0
 30
0.0
 70
8
  0
VERTEX
  8
0
 10
21.505000000000006
 20
-52.64447341949744
 30
0.0
  0
VERTEX
  8
0
 10
21.505000000000006
 20
-47.81447341949744
 30
0.0
  0
VERTEX
  8
0
 10
27.835000000000008
 20
-47.81447341949744
 30
0.0
  0
VERTEX
  8
0
 10
27.835000000000008
 20
-52.64447341949744
 30
0.0
  0
VERTEX
  8
0
 10
21.50500000000001
 20
-52.64447341949744
 30
0.0
  0
SEQEND
  0
POLYLINE
  8
0
 66
1
 10
0.0
 20
0.0
 30
0.0
 70
8
  0
VERTEX
  8
0
 10
30.165000000000006
 20
-52.64447341949744
 30
0.0
  0
VERTEX
  8
0
 10
30.165000000000006
 20
-47.81447341949744
 30
0.0
  0
VERTEX
  8
0
 10
36.495000000000005
 20
-47.81447341949744
 30
0.0
  0
VERTEX
  8
0
 10
36.495000000000005
 20
-52.64447341949744
 30
0.0
  0
VERTEX
  8
0
 10
30.165000000000006
 20
-52.64447341949744
 30
0.0
  0
SEQEND
  0
POLYLINE
  8
0
 66
1
 10
0.0
 20
0.0
 30
0.0
 70
8
  0
VERTEX
  8
0
 10
7.495
 20
-47.81447341949744
 30
0.0
  0
VERTEX
  8
0
 10
7.494999999999999
 20
-52.64447341949744
 30
0.0
  0
VERTEX
  8
0
 10
1.1649999999999991
 20
-52.64447341949744
 30
0.0
  0
VERTEX
  8
0
 10
1.1649999999999994
 20
-47.81447341949744
 30
0.0
  0
VERTEX
  8
0
 10
7.494999999999999
 20
-47.81447341949744
 30
0.0
  0
SEQEND
  0
POLYLINE
  8
0
 66
1
 10
0.0
 20
0.0
 30
0.0
 70
8
  0
VERTEX
  8
0
 10
-1.165
 20
-47.81447341949744
 30
0.0
  0
VERTEX
  8
0
 10
-1.165000000000001
 20
-52.64447341949744
 30
0.0
  0
VERTEX
  8
0
 10
-7.495000000000001
 20
-52.64447341949744
 30
0.0
  0
VERTEX
  8
0
 10
-7.495000000000001
 20
-47.81447341949744
 30
0.0
  0
VERTEX
  8
0
 10
-1.165000000000001
 20
-47.81447341949744
 30
0.0
  0
SEQEND
  0
POLYLINE
  8
0
 66
1
 10
0.0
 20
0.0
 30
0.0
 70
8
  0
VERTEX
  8
0
 10
8.906048649860583
 20
-55.088481373007426
 30
0.0
  0
VERTEX
  8
0
 10
13.088951350139421
 20
-57.503481373007425
 30
0.0
  0
VERTEX
  8
0
 10
9.923951350139419
 20
-62.98542217896292
 30
0.0
  0
VERTEX
  8
0
 10
5.74104864986058
 20
-60.57042217896292
 30
0.0
  0
VERTEX
  8
0
 10
8.906048649860578
 20
-55.088481373007426
 30
0.0
  0
SEQEND
  0
POLYLINE
  8
0
 66
1
 10
0.0
 20
0.0
 30
0.0
 70
8
  0
VERTEX
  8
0
 10
4.57604864986058
 20
-62.58826136978066
 30
0.0
  0
VERTEX
  8
0
 10
8.758951350139416
 20
-65.00326136978066
 30
0.0
  0
VERTEX
  8
0
 10
5.593951350139413
 20
-70.48520217573615
 30
0.0
  0
VERTEX
  8
0
 10
1.4110486498605743
 20
-68.07020217573614
 30
0.0
  0
VERTEX
  8
0
 10
4.576048649860573
 20
-62.588261369780646
 30
0.0
  0
SEQEND
  0
POLYLINE
  8
0
 66
1
 10
0.0
 20
0.0
 30
0.0
 70
8
  0
VERTEX
  8
0
 10
15.911048649860586
 20
-57.50348137300743
 30
0.0
  0
VERTEX
  8
0
 10
20.093951350139424
 20
-55.08848137300743
 30
0.0
  0
VERTEX
  8
0
 10
23.258951350139426
 20
-60.57042217896293
 30
0.0
  0
VERTEX
  8
0
 10
19.07604864986059
 20
-62.98542217896293
 30
0.0
  0
VERTEX
  8
0
 10
15.91104864986059
 20
-57.50348137300743
 30
0.0
  0
SEQEND
  0
POLYLINE
  8
0
 66
1
 10
0.0
 20
0.0
 30
0.0
 70
8
  0
VERTEX
  8
0
 10
20.241048649860588
 20
-65.00326136978067
 30
0.0
  0
VERTEX
  8
0
 10
24.423951350139426
 20
-62.588261369780675
 30
0.0
  0
VERTEX
  8
0
 10
27.588951350139425
 20
-68.07020217573617
 30
0.0
  0
VERTEX
  8
0
 10
23.406048649860587
 20
-70.48520217573618
 30
0.0
  0
VERTEX
  8
0
 10
20.241048649860588
 20
-65.00326136978067
 30
0.0
  0
SEQEND
  0
POLYLINE
  8
0
 66
1
 10
0.0
 20
0.0
 30
0.0
 70
8
  0
VERTEX
  8
0
 10
50.50500000000002
 20
-52.64447341949744
 30
0.0
  0
VERTEX
  8
0
 10
50.50500000000002
 20
-47.81447341949744
 30
0.0
  0
VERTEX
  8
0
 10
56.835000000000015
 20
-47.81447341949744
 30
0.0
  0
VERTEX
  8
0
 10
56.835000000000015
 20
-52.64447341949744
 30
0.0
  0
VERTEX
  8
0
 10
50.50500000000002
 20
-52.64447341949744
 30
0.0
  0
SEQEND
  0
POLYLINE
  8
0
 66
1
 10
0.0
 20
0.0
 30
0.0
 70
8
  0
VERTEX
  8
0
 10
59.16500000000002
 20
-52.64447341949744
 30
0.0
  0
VERTEX
  8
0
 10
59.16500000000002
 20
-47.81447341949744
 30
0.0
  0
VERTEX
  8
0
 10
65.49500000000002
 20
-47.81447341949744
 30
0.0
  0
VERTEX
  8
0
 10
65.49500000000002
 20
-52.64447341949744
 30
0.0
  0
VERTEX
  8
0
 10
59.16500000000002
 20
-52.64447341949744
 30
0.0
  0
SEQEND
  0
POLYLINE
  8
0
 66
1
 10
0.0
 20
0.0
 30
0.0
 70
8
  0
VERTEX
  8
0
 10
37.90604864986059
 20
-55.088481373007426
 30
0.0
  0
VERTEX
  8
0
 10
42.088951350139425
 20
-57.503481373007425
 30
0.0
  0
VERTEX
  8
0
 10
38.92395135013942
 20
-62.98542217896292
 30
0.0
  0
VERTEX
  8
0
 10
34.74104864986058
 20
-60.57042217896292
 30
0.0
  0
VERTEX
  8
0
 10
37.90604864986058
 20
-55.088481373007426
 30
0.0
  0
SEQEND
  0
POLYLINE
  8
0
 66
1
 10
0.0
 20
0.0
 30
0.0
 70
8
  0
VERTEX
  8
0
 10
33.57604864986058
 20
-62.58826136978066
 30
0.0
  0
VERTEX
  8
0
 10
37.75895135013942
 20
-65.00326136978066
 30
0.0
  0
VERTEX
  8
0
 10
34.59395135013942
 20
-70.48520217573615
 30
0.0
  0
VERTEX
  8
0
 10
30.411048649860582
 20
-68.07020217573614
 30
0.0
  0
VERTEX
  8
0
 10
33.57604864986058
 20
-62.588261369780646
 30
0.0
  0
SEQEND
  0
POLYLINE
  8
0
 66
1
 10
0.0
 20
0.0
 30
0.0
 70
8
  0
VERTEX
  8
0
 10
44.91104864986059
 20
-57.50348137300743
 30
0.0
  0
VERTEX
  8
0
 10
49.09395135013943
 20
-55.08848137300743
 30
0.0
  0
VERTEX
  8
0
 10
52.25895135013943
 20
-60.57042217896293
 30
0.0
  0
VERTEX
  8
0
 10
48.07604864986059
 20
-62.98542217896293
 30
0.0
  0
VERTEX
  8
0
 10
44.91104864986059
 20
-57.50348137300743
 30
0.0
  0
SEQEND
  0
POLYLINE
  8
0
 66
1
 10
0.0
 20
0.0
 30
0.0
 70
8
  0
VERTEX
  8
0
 10
49.24104864986059
 20
-65.00326136978067
 30
0.0
  0
VERTEX
  8
0
 10
53.423951350139426
 20
-62.588261369780675
 30
0.0
  0
VERTEX
  8
0
 10
56.588951350139425
 20
-68.07020217573617
 30
0.0
  0
VERTEX
  8
0
 10
52.40604864986059
 20
-70.48520217573618
 30
0.0
  0
VERTEX
  8
0
 10
49.24104864986059
 20
-65.00326136978067
 30
0.0
  0
SEQEND
  0
POLYLINE
  8
0
 66
1
 10
0.0
 20
0.0
 30
0.0
 70
8
  0
VERTEX
  8
0
 10
79.50500000000002
 20
-52.64447341949744
 30
0.0
  0
VERTEX
  8
0
 10
79.50500000000002
 20
-47.81447341949744
 30
0.0
  0
VERTEX
  8
0
 10
85.83500000000002
 20
-47.81447341949744
 30
0.0
  0
VERTEX
  8
0
 10
85.83500000000002
 20
-52.64447341949744
 30
0.0
  0
VERTEX
  8
0
 10
79.50500000000002
 20
-52.64447341949744
 30
0.0
  0
SEQEND
  0
POLYLINE
  8
0
 66
1
 10
0.0
 20
0.0
 30
0.0
 70
8
  0
VERTEX
  8
0
 10
88.16500000000002
 20
-52.64447341949744
 30
0.0
  0
VERTEX
  8
0
 10
88.16500000000002
 20
-47.81447341949744
 30
0.0
  0
VERTEX
  8
0
 10
94.49500000000002
 20
-47.81447341949744
 30
0.0
  0
VERTEX
  8
0
 10
94.49500000000002
 20
-52.64447341949744
 30
0.0
  0
VERTEX
  8
0
 10
88.16500000000002
 20
-52.64447341949744
 30
0.0
  0
SEQEND
  0
POLYLINE
  8
0
 66
1
 10
0.0
 20
0.0
 30
0.0
 70
8
  0
VERTEX
  8
0
 10
78.09395135013943
 20
-45.37046546598745
 30
0.0
  0
VERTEX
  8
0
 10
73.91104864986059
 20
-42.95546546598745
 30
0.0
  0
VERTEX
  8
0
 10
77.0760486498606
 20
-37.473524660031956
 30
0.0
  0
VERTEX
  8
0
 10
81.25895135013944
 20
-39.888524660031955
 30
0.0
  0
VERTEX
  8
0
 10
78.09395135013943
 20
-45.37046546598745
 30
0.0
  0
SEQEND
  0
POLYLINE
  8
0
 66
1
 10
0.0
 20
0.0
 30
0.0
 70
8
  0
VERTEX
  8
0
 10
82.42395135013943
 20
-37.87068546921421
 30
0.0
  0
VERTEX
  8
0
 10
78.24104864986059
 20
-35.45568546921421
 30
0.0
  0
VERTEX
  8
0
 10
81.4060486498606
 20
-29.973744663258714
 30
0.0
  0
VERTEX
  8
0
 10
85.58895135013944
 20
-32.38874466325871
 30
0.0
  0
VERTEX
  8
0
 10
82.42395135013943
 20
-37.87068546921421
 30
0.0
  0
SEQEND
  0
POLYLINE
  8
0
 66
1
 10
0.0
 20
0.0
 30
0.0
 70
8
  0
VERTEX
  8
0
 10
66.9060486498606
 20
-55.088481373007426
 30
0.0
  0
VERTEX
  8
0
 10
71.08895135013942
 20
-57.503481373007425
 30
0.0
  0
VERTEX
  8
0
 10
67.92395135013942
 20
-62.98542217896292
 30
0.0
  0
VERTEX
  8
0
 10
63.74104864986058
 20
-60.57042217896292
 30
0.0
  0
VERTEX
  8
0
 10
66.90604864986058
 20
-55.088481373007426
 30
0.0
  0
SEQEND
  0
POLYLINE
  8
0
 66
1
 10
0.0
 20
0.0
 30
0.0
 70
8
  0
VERTEX
  8
0
 10
62.57604864986059
 20
-62.58826136978066
 30
0.0
  0
VERTEX
  8
0
 10
66.75895135013943
 20
-65.00326136978066
 30
0.0
  0
VERTEX
  8
0
 10
63.59395135013942
 20
-70.48520217573615
 30
0.0
  0
VERTEX
  8
0
 10
59.41104864986058
 20
-68.07020217573614
 30
0.0
  0
VERTEX
  8
0
 10
62.57604864986058
 20
-62.588261369780646
 30
0.0
  0
SEQEND
  0
POLYLINE
  8
0
 66
1
 10
0.0
 20
0.0
 30
0.0
 70
8
  0
VERTEX
  8
0
 10
73.91104864986059
 20
-57.50348137300743
 30
0.0
  0
VERTEX
  8
0
 10
78.09395135013943
 20
-55.08848137300743
 30
0.0
  0
VERTEX
  8
0
 10
81.25895135013944
 20
-60.57042217896293
 30
0.0
  0
VERTEX
  8
0
 10
77.0760486498606
 20
-62.98542217896293
 30
0.0
  0
VERTEX
  8
0
 10
73.91104864986059
 20
-57.50348137300743
 30
0.0
  0
SEQEND
  0
POLYLINE
  8
0
 66
1
 10
0.0
 20
0.0
 30
0.0
 70
8
  0
VERTEX
  8
0
 10
78.24104864986059
 20
-65.00326136978067
 30
0.0
  0
VERTEX
  8
0
 10
82.42395135013943
 20
-62.588261369780675
 30
0.0
  0
VERTEX
  8
0
 10
85.58895135013944
 20
-68.07020217573617
 30
0.0
  0
VERTEX
  8
0
 10
81.4060486498606
 20
-70.48520217573618
 30
0.0
  0
VERTEX
  8
0
 10
78.2410486498606
 20
-65.00326136978067
 30
0.0
  0
SEQEND
  0
ENDSEC
  0
EOF
