  0
SECTION
  2
HEADER
  9
$ACADVER
  1
AC1009
  9
$INSBASE
 10
0.0
 20
0.0
 30
0.0
  9
$EXTMIN
 10
0.0
 20
0.0
 30
0.0
  9
$EXTMAX
 10
100.0
 20
100.0
 30
0.0
  9
$UNITMODE
 70
0
  9
$AUNITS
 70
0
  9
$ANGBASE
 50
0.0
  9
$ANGDIR
 70
0
  0
ENDSEC
  0
SECTION
  2
TABLES
  0
TABLE
  2
LTYPE
 70
19
  0
LTYPE
  2
CONTINUOUS
 70
0
  3
Solid
 72
65
 73
0
 40
0.0
  0
LTYPE
  2
CENTER
 70
0
  3
Center ____ _ ____ _ ____ _ ____ _ ____ _ ____
 72
65
 73
4
 40
2.0
 49
1.25
 49
-0.25
 49
0.25
 49
-0.25
  0
LTYPE
  2
CENTERX2
 70
0
  3
Center (2x) ________  __  ________  __  ________
 72
65
 73
4
 40
3.5
 49
2.5
 49
-0.25
 49
0.5
 49
-0.25
  0
LTYPE
  2
CENTER2
 70
0
  3
Center (.5x) ____ _ ____ _ ____ _ ____ _ ____
 72
65
 73
4
 40
1.0
 49
0.625
 49
-0.125
 49
0.125
 49
-0.125
  0
LTYPE
  2
DASHED
 70
0
  3
Dashed __ __ __ __ __ __ __ __ __ __ __ __ __ _
 72
65
 73
2
 40
0.6
 49
0.5
 49
-0.1
  0
LTYPE
  2
DASHEDX2
 70
0
  3
Dashed (2x) ____  ____  ____  ____  ____  ____
 72
65
 73
2
 40
1.2
 49
1.0
 49
-0.2
  0
LTYPE
  2
DASHED2
 70
0
  3
Dashed (.5x) _ _ _ _ _ _ _ _ _ _ _ _ _ _
 72
65
 73
2
 40
0.3
 49
0.25
 49
-0.05
  0
LTYPE
  2
PHANTOM
 70
0
  3
Phantom ______  __  __  ______  __  __  ______
 72
65
 73
6
 40
2.5
 49
1.25
 49
-0.25
 49
0.25
 49
-0.25
 49
0.25
 49
-0.25
  0
LTYPE
  2
PHANTOMX2
 70
0
  3
Phantom (2x)____________    ____    ____    ____________
 72
65
 73
6
 40
4.25
 49
2.5
 49
-0.25
 49
0.5
 49
-0.25
 49
0.5
 49
-0.25
  0
LTYPE
  2
PHANTOM2
 70
0
  3
Phantom (.5x) ___ _ _ ___ _ _ ___ _ _ ___ _ _ ___
 72
65
 73
6
 40
1.25
 49
0.625
 49
-0.125
 49
0.125
 49
-0.125
 49
0.125
 49
-0.125
  0
LTYPE
  2
DASHDOT
 70
0
  3
Dash dot __ . __ . __ . __ . __ . __ . __ . __
 72
65
 73
4
 40
1.4
 49
1.0
 49
-0.2
 49
0.0
 49
-0.2
  0
LTYPE
  2
DASHDOTX2
 70
0
  3
Dash dot (2x) ____  .  ____  .  ____  .  ____
 72
65
 73
4
 40
2.4
 49
2.0
 49
-0.2
 49
0.0
 49
-0.2
  0
LTYPE
  2
DASHDOT2
 70
0
  3
Dash dot (.5x) _ . _ . _ . _ . _ . _ . _ . _
 72
65
 73
4
 40
0.7
 49
0.5
 49
-0.1
 49
0.0
 49
-0.1
  0
LTYPE
  2
DOT
 70
0
  3
Dot .  .  .  .  .  .  .  .  .  .  .  .  .  .  .  .
 72
65
 73
2
 40
0.2
 49
0.0
 49
-0.2
  0
LTYPE
  2
DOTX2
 70
0
  3
Dot (2x) .    .    .    .    .    .    .    . 
 72
65
 73
2
 40
0.4
 49
0.0
 49
-0.4
  0
LTYPE
  2
DOT2
 70
0
  3
Dot (.5) . . . . . . . . . . . . . . . . . . . 
 72
65
 73
2
 40
0.1
 49
0.0
 49
-0.1
  0
LTYPE
  2
DIVIDE
 70
0
  3
Divide __ . . __ . . __ . . __ . . __ . . __
 72
65
 73
6
 40
1.6
 49
1.0
 49
-0.2
 49
0.0
 49
-0.2
 49
0.0
 49
-0.2
  0
LTYPE
  2
DIVIDEX2
 70
0
  3
Divide (2x) ____  . .  ____  . .  ____  . .  ____
 72
65
 73
6
 40
2.6
 49
2.0
 49
-0.2
 49
0.0
 49
-0.2
 49
0.0
 49
-0.2
  0
LTYPE
  2
DIVIDE2
 70
0
  3
Divide(.5x) _ . _ . _ . _ . _ . _ . _ . _
 72
65
 73
6
 40
0.8
 49
0.5
 49
-0.1
 49
0.0
 49
-0.1
 49
0.0
 49
-0.1
  0
ENDTAB
  0
TABLE
  2
LAYER
 70
5
  0
LAYER
  2
DIMENSIONS
 70
0
 62
1
  6
CONTINUOUS
  0
LAYER
  2
TABLEBACKGROUND
 70
0
 62
1
  6
CONTINUOUS
  0
LAYER
  2
TABLECONTENT
 70
0
 62
1
  6
CONTINUOUS
  0
LAYER
  2
TABLEGRID
 70
0
 62
1
  6
CONTINUOUS
  0
LAYER
  2
VIEWPORTS
 70
0
 62
7
  6
CONTINUOUS
  0
ENDTAB
  0
TABLE
  2
STYLE
 70
12
  0
STYLE
  2
STANDARD
 70
0
 40
0.0
 41
1.0
 42
1.0
 50
0.0
 71
0
  3
arial.ttf
  4

  0
STYLE
  2
ARIAL
 70
0
 40
0.0
 41
1.0
 42
1.0
 50
0.0
 71
0
  3
arial.ttf
  4

  0
STYLE
  2
ARIAL_BOLD
 70
0
 40
0.0
 41
1.0
 42
1.0
 50
0.0
 71
0
  3
arialbd.ttf
  4

  0
STYLE
  2
ARIAL_ITALIC
 70
0
 40
0.0
 41
1.0
 42
1.0
 50
0.0
 71
0
  3
ariali.ttf
  4

  0
STYLE
  2
ARIAL_BOLD_ITALIC
 70
0
 40
0.0
 41
1.0
 42
1.0
 50
0.0
 71
0
  3
arialbi.ttf
  4

  0
STYLE
  2
ARIAL_BLACK
 70
0
 40
0.0
 41
1.0
 42
1.0
 50
0.0
 71
0
  3
ariblk.ttf
  4

  0
STYLE
  2
ISOCPEUR
 70
0
 40
0.0
 41
1.0
 42
1.0
 50
0.0
 71
0
  3
isocpeur.ttf
  4

  0
STYLE
  2
ISOCPEUR_ITALIC
 70
0
 40
0.0
 41
1.0
 42
1.0
 50
0.0
 71
0
  3
isocpeui.ttf
  4

  0
STYLE
  2
TIMES
 70
0
 40
0.0
 41
1.0
 42
1.0
 50
0.0
 71
0
  3
times.ttf
  4

  0
STYLE
  2
TIMES_BOLD
 70
0
 40
0.0
 41
1.0
 42
1.0
 50
0.0
 71
0
  3
timesbd.ttf
  4

  0
STYLE
  2
TIMES_ITALIC
 70
0
 40
0.0
 41
1.0
 42
1.0
 50
0.0
 71
0
  3
timesi.ttf
  4

  0
STYLE
  2
TIMES_BOLD_ITALIC
 70
0
 40
0.0
 41
1.0
 42
1.0
 50
0.0
 71
0
  3
timesbi.ttf
  4

  0
ENDTAB
  0
TABLE
  2
VIEW
 70
0
  0
ENDTAB
  0
TABLE
  2
APPID
 70
1
  0
APPID
  2
DXFWRITE
 70
0
  0
ENDTAB
  0
TABLE
  2
VPORT
 70
0
  0
ENDTAB
  0
TABLE
  2
UCS
 70
0
  0
ENDTAB
  0
ENDSEC
  0
SECTION
  2
BLOCKS
  0
ENDSEC
  0
SECTION
  2
ENTITIES
  0
VIEWPORT
  8
VIEWPORTS
 67
1
 10
0.0
 20
0.0
 30
0.0
 40
1.0
 41
1.0
 68
1
 69
1
1001
ACAD
1000
MVIEW
1002
{
1070
16
1010
0.0
1020
0.0
1030
0.0
1010
0.0
1020
0.0
1030
0.0
1040
0.0
1040
1.0
1040
0.0
1040
0.0
1040
50.0
1040
0.0
1040
0.0
1070
0
1070
100
1070
1
1070
3
1070
0
1070
0
1070
0
1070
0
1040
0.0
1040
0.0
1040
0.0
1040
0.1
1040
0.1
1040
0.1
1040
0.1
1070
0
1002
{
1002
}
1002
}
  0
LINE
  8
0
 10
27.013422179807296
 20
0.6
 30
0.0
 11
41.531844359614595
 21
0.6
 31
0.0
  0
LINE
  8
0
 10
71.04026653942189
 20
0.6
 30
0.0
 11
56.5218443596146
 21
0.5999999999999982
 31
0.0
  0
POLYLINE
  8
0
 66
1
 10
0.0
 20
0.0
 30
0.0
 70
8
  0
VERTEX
  8
0
 10
41.531844359614595
 20
0.6
 30
0.0
  0
VERTEX
  8
0
 10
41.531844359614595
 20
2.415
 30
0.0
  0
VERTEX
  8
0
 10
47.861844359614594
 20
2.415
 30
0.0
  0
VERTEX
  8
0
 10
47.861844359614594
 20
0.6000000000000001
 30
0.0
  0
VERTEX
  8
0
 10
50.19184435961459
 20
0.6000000000000001
 30
0.0
  0
SEQEND
  0
POLYLINE
  8
0
 66
1
 10
0.0
 20
0.0
 30
0.0
 70
8
  0
VERTEX
  8
0
 10
50.19184435961459
 20
0.6000000000000001
 30
0.0
  0
VERTEX
  8
0
 10
50.19184435961459
 20
2.415
 30
0.0
  0
VERTEX
  8
0
 10
56.52184435961459
 20
2.415
 30
0.0
  0
VERTEX
  8
0
 10
56.52184435961459
 20
0.6000000000000001
 30
0.0
  0
SEQEND
  0
LINE
  8
0
 10
27.013422179807296
 20
-0.6
 30
0.0
 11
41.531844359614595
 21
-0.6
 31
0.0
  0
LINE
  8
0
 10
71.04026653942189
 20
-0.6
 30
0.0
 11
56.5218443596146
 21
-0.6000000000000018
 31
0.0
  0
POLYLINE
  8
0
 66
1
 10
0.0
 20
0.0
 30
0.0
 70
8
  0
VERTEX
  8
0
 10
41.531844359614595
 20
-0.6
 30
0.0
  0
VERTEX
  8
0
 10
41.531844359614595
 20
-2.415
 30
0.0
  0
VERTEX
  8
0
 10
47.861844359614594
 20
-2.415
 30
0.0
  0
VERTEX
  8
0
 10
47.861844359614594
 20
-0.6000000000000001
 30
0.0
  0
VERTEX
  8
0
 10
50.19184435961459
 20
-0.6000000000000001
 30
0.0
  0
SEQEND
  0
POLYLINE
  8
0
 66
1
 10
0.0
 20
0.0
 30
0.0
 70
8
  0
VERTEX
  8
0
 10
50.19184435961459
 20
-0.6000000000000001
 30
0.0
  0
VERTEX
  8
0
 10
50.19184435961459
 20
-2.415
 30
0.0
  0
VERTEX
  8
0
 10
56.52184435961459
 20
-2.415
 30
0.0
  0
VERTEX
  8
0
 10
56.52184435961459
 20
-0.6000000000000001
 30
0.0
  0
SEQEND
  0
LINE
  8
0
 10
27.013422179807296
 20
-0.6
 30
0.0
 11
25.79793805233165
 21
-0.30828380940584477
 31
0.0
  0
LINE
  8
0
 10
27.013422179807296
 20
0.6
 30
0.0
 11
25.79793805233165
 21
0.30828380940584477
 31
0.0
  0
LINE
  8
0
 10
25.79793805233165
 20
-0.30828380940584477
 30
0.0
 11
25.79793805233165
 21
0.30828380940584477
 31
0.0
  0
LINE
  8
0
 10
26.042860721792817
 20
2.066595690087735
 30
0.0
 11
30.64295760272228
 21
5.926535286255403
 31
0.0
  0
LINE
  8
0
 10
46.72606068600522
 20
19.421861151624295
 30
0.0
 11
42.125963805075756
 21
15.561921555456625
 31
0.0
  0
POLYLINE
  8
0
 66
1
 10
0.0
 20
0.0
 30
0.0
 70
8
  0
VERTEX
  8
0
 10
30.64295760272228
 20
5.926535286255403
 30
0.0
  0
VERTEX
  8
0
 10
29.47629809114121
 20
7.316905950516348
 30
0.0
  0
VERTEX
  8
0
 10
34.32535941608434
 20
11.38575151983214
 30
0.0
  0
VERTEX
  8
0
 10
35.492018927665406
 20
9.995380855571195
 30
0.0
  0
VERTEX
  8
0
 10
37.27690248013263
 20
11.493075986140832
 30
0.0
  0
SEQEND
  0
POLYLINE
  8
0
 66
1
 10
0.0
 20
0.0
 30
0.0
 70
8
  0
VERTEX
  8
0
 10
37.27690248013263
 20
11.493075986140832
 30
0.0
  0
VERTEX
  8
0
 10
36.11024296855156
 20
12.883446650401778
 30
0.0
  0
VERTEX
  8
0
 10
40.95930429349469
 20
16.95229221971757
 30
0.0
  0
VERTEX
  8
0
 10
42.125963805075756
 20
15.561921555456625
 30
0.0
  0
SEQEND
  0
LINE
  8
0
 10
26.814205853416663
 20
1.1473423583449613
 30
0.0
 11
31.414302734346126
 21
5.00728195451263
 31
0.0
  0
LINE
  8
0
 10
47.497405817629065
 20
18.502607819881522
 30
0.0
 11
42.8973089366996
 21
14.642668223713851
 31
0.0
  0
POLYLINE
  8
0
 66
1
 10
0.0
 20
0.0
 30
0.0
 70
8
  0
VERTEX
  8
0
 10
31.414302734346126
 20
5.00728195451263
 30
0.0
  0
VERTEX
  8
0
 10
32.580962245927196
 20
3.616911290251685
 30
0.0
  0
VERTEX
  8
0
 10
37.430023570870325
 20
7.685756859567478
 30
0.0
  0
VERTEX
  8
0
 10
36.26336405928926
 20
9.076127523828424
 30
0.0
  0
VERTEX
  8
0
 10
38.04824761175648
 20
10.573822654398061
 30
0.0
  0
SEQEND
  0
POLYLINE
  8
0
 66
1
 10
0.0
 20
0.0
 30
0.0
 70
8
  0
VERTEX
  8
0
 10
38.04824761175648
 20
10.573822654398061
 30
0.0
  0
VERTEX
  8
0
 10
39.21490712333755
 20
9.183451990137115
 30
0.0
  0
VERTEX
  8
0
 10
44.063968448280676
 20
13.25229755945291
 30
0.0
  0
VERTEX
  8
0
 10
42.89730893669961
 20
14.642668223713855
 30
0.0
  0
SEQEND
  0
LINE
  8
0
 10
26.814205853416663
 20
1.1473423583449613
 30
0.0
 11
25.695579439005744
 21
0.5895117882054504
 31
0.0
  0
LINE
  8
0
 10
26.042860721792817
 20
2.066595690087735
 30
0.0
 11
25.29925741309966
 21
1.0618299864032457
 31
0.0
  0
LINE
  8
0
 10
25.695579439005744
 20
0.5895117882054504
 30
0.0
 11
25.29925741309966
 21
1.0618299864032457
 31
0.0
  0
LINE
  8
0
 10
22.21263850619793
 20
1.147342358344962
 30
0.0
 11
17.612541625268467
 21
5.0072819545126315
 31
0.0
  0
LINE
  8
0
 10
1.529438541985527
 20
18.502607819881526
 30
0.0
 11
6.129535422914989
 21
14.642668223713857
 31
0.0
  0
POLYLINE
  8
0
 66
1
 10
0.0
 20
0.0
 30
0.0
 70
8
  0
VERTEX
  8
0
 10
17.612541625268467
 20
5.0072819545126315
 30
0.0
  0
VERTEX
  8
0
 10
16.445882113687396
 20
3.6169112902516867
 30
0.0
  0
VERTEX
  8
0
 10
11.596820788744267
 20
7.685756859567482
 30
0.0
  0
VERTEX
  8
0
 10
12.763480300325337
 20
9.076127523828426
 30
0.0
  0
VERTEX
  8
0
 10
10.978596747858118
 20
10.573822654398063
 30
0.0
  0
SEQEND
  0
POLYLINE
  8
0
 66
1
 10
0.0
 20
0.0
 30
0.0
 70
8
  0
VERTEX
  8
0
 10
10.978596747858118
 20
10.573822654398063
 30
0.0
  0
VERTEX
  8
0
 10
9.81193723627705
 20
9.183451990137119
 30
0.0
  0
VERTEX
  8
0
 10
4.96287591133392
 20
13.252297559452913
 30
0.0
  0
VERTEX
  8
0
 10
6.129535422914989
 20
14.642668223713857
 30
0.0
  0
SEQEND
  0
LINE
  8
0
 10
22.983983637821776
 20
2.066595690087736
 30
0.0
 11
18.383886756892313
 21
5.9265352862554055
 31
0.0
  0
LINE
  8
0
 10
2.300783673609374
 20
19.4218611516243
 30
0.0
 11
6.900880554538837
 21
15.56192155545663
 31
0.0
  0
POLYLINE
  8
0
 66
1
 10
0.0
 20
0.0
 30
0.0
 70
8
  0
VERTEX
  8
0
 10
18.383886756892313
 20
5.9265352862554055
 30
0.0
  0
VERTEX
  8
0
 10
19.550546268473383
 20
7.31690595051635
 30
0.0
  0
VERTEX
  8
0
 10
14.701484943530254
 20
11.385751519832144
 30
0.0
  0
VERTEX
  8
0
 10
13.534825431949184
 20
9.995380855571199
 30
0.0
  0
VERTEX
  8
0
 10
11.749941879481964
 20
11.493075986140836
 30
0.0
  0
SEQEND
  0
POLYLINE
  8
0
 66
1
 10
0.0
 20
0.0
 30
0.0
 70
8
  0
VERTEX
  8
0
 10
11.749941879481964
 20
11.493075986140836
 30
0.0
  0
VERTEX
  8
0
 10
12.916601391063033
 20
12.883446650401781
 30
0.0
  0
VERTEX
  8
0
 10
8.067540066119903
 20
16.952292219717577
 30
0.0
  0
VERTEX
  8
0
 10
6.900880554538834
 20
15.561921555456632
 30
0.0
  0
SEQEND
  0
LINE
  8
0
 10
22.983983637821776
 20
2.066595690087736
 30
0.0
 11
23.727586946514933
 21
1.0618299864032463
 31
0.0
  0
LINE
  8
0
 10
22.21263850619793
 20
1.147342358344962
 30
0.0
 11
23.33126492060885
 21
0.5895117882054508
 31
0.0
  0
LINE
  8
0
 10
23.727586946514933
 20
1.0618299864032463
 30
0.0
 11
23.33126492060885
 21
0.5895117882054508
 31
0.0
  0
LINE
  8
0
 10
22.013422179807296
 20
-0.5999999999999996
 30
0.0
 11
7.495000000000001
 21
-0.5999999999999979
 31
0.0
  0
LINE
  8
0
 10
-22.013422179807296
 20
-0.5999999999999943
 30
0.0
 11
-7.495000000000001
 21
-0.5999999999999943
 31
0.0
  0
POLYLINE
  8
0
 66
1
 10
0.0
 20
0.0
 30
0.0
 70
8
  0
VERTEX
  8
0
 10
7.495000000000001
 20
-0.5999999999999979
 30
0.0
  0
VERTEX
  8
0
 10
7.495000000000001
 20
-2.414999999999998
 30
0.0
  0
VERTEX
  8
0
 10
1.165000000000001
 20
-2.414999999999997
 30
0.0
  0
VERTEX
  8
0
 10
1.1650000000000016
 20
-0.599999999999997
 30
0.0
  0
VERTEX
  8
0
 10
-1.1649999999999985
 20
-0.5999999999999966
 30
0.0
  0
SEQEND
  0
POLYLINE
  8
0
 66
1
 10
0.0
 20
0.0
 30
0.0
 70
8
  0
VERTEX
  8
0
 10
-1.1649999999999985
 20
-0.5999999999999966
 30
0.0
  0
VERTEX
  8
0
 10
-1.164999999999999
 20
-2.4149999999999965
 30
0.0
  0
VERTEX
  8
0
 10
-7.494999999999999
 20
-2.4149999999999956
 30
0.0
  0
VERTEX
  8
0
 10
-7.494999999999998
 20
-0.5999999999999956
 30
0.0
  0
SEQEND
  0
LINE
  8
0
 10
22.013422179807296
 20
0.6000000000000003
 30
0.0
 11
7.495000000000001
 21
0.6000000000000021
 31
0.0
  0
LINE
  8
0
 10
-22.013422179807296
 20
0.6000000000000056
 30
0.0
 11
-7.495000000000001
 21
0.6000000000000056
 31
0.0
  0
POLYLINE
  8
0
 66
1
 10
0.0
 20
0.0
 30
0.0
 70
8
  0
VERTEX
  8
0
 10
7.495000000000001
 20
0.6000000000000021
 30
0.0
  0
VERTEX
  8
0
 10
7.495000000000001
 20
2.415000000000002
 30
0.0
  0
VERTEX
  8
0
 10
1.165000000000001
 20
2.4150000000000027
 30
0.0
  0
VERTEX
  8
0
 10
1.1650000000000005
 20
0.6000000000000028
 30
0.0
  0
VERTEX
  8
0
 10
-1.1649999999999996
 20
0.6000000000000031
 30
0.0
  0
SEQEND
  0
POLYLINE
  8
0
 66
1
 10
0.0
 20
0.0
 30
0.0
 70
8
  0
VERTEX
  8
0
 10
-1.1649999999999996
 20
0.6000000000000031
 30
0.0
  0
VERTEX
  8
0
 10
-1.1649999999999994
 20
2.415000000000003
 30
0.0
  0
VERTEX
  8
0
 10
-7.494999999999999
 20
2.415000000000004
 30
0.0
  0
VERTEX
  8
0
 10
-7.494999999999999
 20
0.6000000000000041
 30
0.0
  0
SEQEND
  0
LINE
  8
0
 10
22.013422179807296
 20
0.6000000000000003
 30
0.0
 11
23.228906307282944
 21
0.3082838094058449
 31
0.0
  0
LINE
  8
0
 10
22.013422179807296
 20
-0.5999999999999996
 30
0.0
 11
23.228906307282944
 21
-0.30828380940584454
 31
0.0
  0
LINE
  8
0
 10
23.228906307282944
 20
0.3082838094058449
 30
0.0
 11
23.228906307282944
 21
-0.30828380940584454
 31
0.0
  0
LINE
  8
0
 10
22.983983637821776
 20
-2.066595690087735
 30
0.0
 11
18.383886756892313
 21
-5.926535286255403
 31
0.0
  0
LINE
  8
0
 10
2.3007836736093705
 20
-19.421861151624295
 30
0.0
 11
6.900880554538833
 21
-15.561921555456626
 31
0.0
  0
POLYLINE
  8
0
 66
1
 10
0.0
 20
0.0
 30
0.0
 70
8
  0
VERTEX
  8
0
 10
18.383886756892313
 20
-5.926535286255403
 30
0.0
  0
VERTEX
  8
0
 10
19.550546268473383
 20
-7.3169059505163485
 30
0.0
  0
VERTEX
  8
0
 10
14.701484943530252
 20
-11.38575151983214
 30
0.0
  0
VERTEX
  8
0
 10
13.534825431949182
 20
-9.995380855571197
 30
0.0
  0
VERTEX
  8
0
 10
11.749941879481963
 20
-11.493075986140834
 30
0.0
  0
SEQEND
  0
POLYLINE
  8
0
 66
1
 10
0.0
 20
0.0
 30
0.0
 70
8
  0
VERTEX
  8
0
 10
11.749941879481963
 20
-11.493075986140834
 30
0.0
  0
VERTEX
  8
0
 10
12.91660139106303
 20
-12.88344665040178
 30
0.0
  0
VERTEX
  8
0
 10
8.0675400661199
 20
-16.952292219717574
 30
0.0
  0
VERTEX
  8
0
 10
6.90088055453883
 20
-15.56192155545663
 30
0.0
  0
SEQEND
  0
LINE
  8
0
 10
22.21263850619793
 20
-1.1473423583449613
 30
0.0
 11
17.612541625268467
 21
-5.00728195451263
 31
0.0
  0
LINE
  8
0
 10
1.5294385419855234
 20
-18.502607819881522
 30
0.0
 11
6.129535422914985
 21
-14.642668223713853
 31
0.0
  0
POLYLINE
  8
0
 66
1
 10
0.0
 20
0.0
 30
0.0
 70
8
  0
VERTEX
  8
0
 10
17.612541625268467
 20
-5.00728195451263
 30
0.0
  0
VERTEX
  8
0
 10
16.445882113687396
 20
-3.616911290251685
 30
0.0
  0
VERTEX
  8
0
 10
11.596820788744266
 20
-7.685756859567478
 30
0.0
  0
VERTEX
  8
0
 10
12.763480300325334
 20
-9.076127523828424
 30
0.0
  0
VERTEX
  8
0
 10
10.978596747858115
 20
-10.573822654398061
 30
0.0
  0
SEQEND
  0
POLYLINE
  8
0
 66
1
 10
0.0
 20
0.0
 30
0.0
 70
8
  0
VERTEX
  8
0
 10
10.978596747858115
 20
-10.573822654398061
 30
0.0
  0
VERTEX
  8
0
 10
9.811937236277046
 20
-9.183451990137115
 30
0.0
  0
VERTEX
  8
0
 10
4.962875911333915
 20
-13.25229755945291
 30
0.0
  0
VERTEX
  8
0
 10
6.129535422914984
 20
-14.642668223713855
 30
0.0
  0
SEQEND
  0
LINE
  8
0
 10
22.21263850619793
 20
-1.1473423583449613
 30
0.0
 11
23.33126492060885
 21
-0.5895117882054504
 31
0.0
  0
LINE
  8
0
 10
22.983983637821776
 20
-2.066595690087735
 30
0.0
 11
23.727586946514933
 21
-1.0618299864032457
 31
0.0
  0
LINE
  8
0
 10
23.33126492060885
 20
-0.5895117882054504
 30
0.0
 11
23.727586946514933
 21
-1.0618299864032457
 31
0.0
  0
LINE
  8
0
 10
26.814205853416663
 20
-1.1473423583449613
 30
0.0
 11
31.414302734346126
 21
-5.00728195451263
 31
0.0
  0
LINE
  8
0
 10
47.497405817629065
 20
-18.502607819881522
 30
0.0
 11
42.8973089366996
 21
-14.642668223713853
 31
0.0
  0
POLYLINE
  8
0
 66
1
 10
0.0
 20
0.0
 30
0.0
 70
8
  0
VERTEX
  8
0
 10
31.414302734346126
 20
-5.00728195451263
 30
0.0
  0
VERTEX
  8
0
 10
32.580962245927196
 20
-3.616911290251685
 30
0.0
  0
VERTEX
  8
0
 10
37.430023570870325
 20
-7.685756859567478
 30
0.0
  0
VERTEX
  8
0
 10
36.26336405928926
 20
-9.076127523828422
 30
0.0
  0
VERTEX
  8
0
 10
38.04824761175648
 20
-10.57382265439806
 30
0.0
  0
SEQEND
  0
POLYLINE
  8
0
 66
1
 10
0.0
 20
0.0
 30
0.0
 70
8
  0
VERTEX
  8
0
 10
38.04824761175648
 20
-10.57382265439806
 30
0.0
  0
VERTEX
  8
0
 10
39.21490712333755
 20
-9.183451990137113
 30
0.0
  0
VERTEX
  8
0
 10
44.063968448280676
 20
-13.252297559452906
 30
0.0
  0
VERTEX
  8
0
 10
42.89730893669961
 20
-14.642668223713851
 30
0.0
  0
SEQEND
  0
LINE
  8
0
 10
26.042860721792817
 20
-2.066595690087735
 30
0.0
 11
30.64295760272228
 21
-5.926535286255403
 31
0.0
  0
LINE
  8
0
 10
46.72606068600522
 20
-19.421861151624295
 30
0.0
 11
42.125963805075756
 21
-15.561921555456626
 31
0.0
  0
POLYLINE
  8
0
 66
1
 10
0.0
 20
0.0
 30
0.0
 70
8
  0
VERTEX
  8
0
 10
30.64295760272228
 20
-5.926535286255403
 30
0.0
  0
VERTEX
  8
0
 10
29.47629809114121
 20
-7.316905950516348
 30
0.0
  0
VERTEX
  8
0
 10
34.32535941608434
 20
-11.38575151983214
 30
0.0
  0
VERTEX
  8
0
 10
35.492018927665406
 20
-9.995380855571195
 30
0.0
  0
VERTEX
  8
0
 10
37.27690248013263
 20
-11.493075986140832
 30
0.0
  0
SEQEND
  0
POLYLINE
  8
0
 66
1
 10
0.0
 20
0.0
 30
0.0
 70
8
  0
VERTEX
  8
0
 10
37.27690248013263
 20
-11.493075986140832
 30
0.0
  0
VERTEX
  8
0
 10
36.11024296855156
 20
-12.883446650401778
 30
0.0
  0
VERTEX
  8
0
 10
40.95930429349469
 20
-16.95229221971757
 30
0.0
  0
VERTEX
  8
0
 10
42.125963805075756
 20
-15.561921555456625
 30
0.0
  0
SEQEND
  0
LINE
  8
0
 10
26.042860721792817
 20
-2.066595690087735
 30
0.0
 11
25.29925741309966
 21
-1.0618299864032457
 31
0.0
  0
LINE
  8
0
 10
26.814205853416663
 20
-1.1473423583449613
 30
0.0
 11
25.695579439005744
 21
-0.5895117882054504
 31
0.0
  0
LINE
  8
0
 10
25.29925741309966
 20
-1.0618299864032457
 30
0.0
 11
25.695579439005744
 21
-0.5895117882054504
 31
0.0
  0
LINE
  8
0
 10
76.04026653942189
 20
0.6
 30
0.0
 11
90.5586887192292
 21
0.6
 31
0.0
  0
LINE
  8
0
 10
120.06711089903649
 20
0.6
 30
0.0
 11
105.5486887192292
 21
0.5999999999999982
 31
0.0
  0
POLYLINE
  8
0
 66
1
 10
0.0
 20
0.0
 30
0.0
 70
8
  0
VERTEX
  8
0
 10
90.5586887192292
 20
0.6
 30
0.0
  0
VERTEX
  8
0
 10
90.5586887192292
 20
2.415
 30
0.0
  0
VERTEX
  8
0
 10
96.8886887192292
 20
2.415
 30
0.0
  0
VERTEX
  8
0
 10
96.8886887192292
 20
0.6000000000000001
 30
0.0
  0
VERTEX
  8
0
 10
99.21868871922919
 20
0.6000000000000001
 30
0.0
  0
SEQEND
  0
POLYLINE
  8
0
 66
1
 10
0.0
 20
0.0
 30
0.0
 70
8
  0
VERTEX
  8
0
 10
99.21868871922919
 20
0.6000000000000001
 30
0.0
  0
VERTEX
  8
0
 10
99.21868871922919
 20
2.415
 30
0.0
  0
VERTEX
  8
0
 10
105.54868871922919
 20
2.415
 30
0.0
  0
VERTEX
  8
0
 10
105.54868871922919
 20
0.6000000000000001
 30
0.0
  0
SEQEND
  0
LINE
  8
0
 10
76.04026653942189
 20
-0.6
 30
0.0
 11
90.5586887192292
 21
-0.6
 31
0.0
  0
LINE
  8
0
 10
120.06711089903649
 20
-0.6
 30
0.0
 11
105.5486887192292
 21
-0.6000000000000018
 31
0.0
  0
POLYLINE
  8
0
 66
1
 10
0.0
 20
0.0
 30
0.0
 70
8
  0
VERTEX
  8
0
 10
90.5586887192292
 20
-0.6
 30
0.0
  0
VERTEX
  8
0
 10
90.5586887192292
 20
-2.415
 30
0.0
  0
VERTEX
  8
0
 10
96.8886887192292
 20
-2.415
 30
0.0
  0
VERTEX
  8
0
 10
96.8886887192292
 20
-0.6000000000000001
 30
0.0
  0
VERTEX
  8
0
 10
99.21868871922919
 20
-0.6000000000000001
 30
0.0
  0
SEQEND
  0
POLYLINE
  8
0
 66
1
 10
0.0
 20
0.0
 30
0.0
 70
8
  0
VERTEX
  8
0
 10
99.21868871922919
 20
-0.6000000000000001
 30
0.0
  0
VERTEX
  8
0
 10
99.21868871922919
 20
-2.415
 30
0.0
  0
VERTEX
  8
0
 10
105.54868871922919
 20
-2.415
 30
0.0
  0
VERTEX
  8
0
 10
105.54868871922919
 20
-0.6000000000000001
 30
0.0
  0
SEQEND
  0
LINE
  8
0
 10
76.04026653942189
 20
-0.6
 30
0.0
 11
74.82478241194625
 21
-0.30828380940584477
 31
0.0
  0
LINE
  8
0
 10
76.04026653942189
 20
0.6
 30
0.0
 11
74.82478241194625
 21
0.30828380940584477
 31
0.0
  0
LINE
  8
0
 10
74.82478241194625
 20
-0.30828380940584477
 30
0.0
 11
74.82478241194625
 21
0.30828380940584477
 31
0.0
  0
LINE
  8
0
 10
75.0697050814074
 20
2.066595690087735
 30
0.0
 11
79.66980196233686
 21
5.926535286255403
 31
0.0
  0
LINE
  8
0
 10
95.75290504561981
 20
19.421861151624295
 30
0.0
 11
91.15280816469036
 21
15.561921555456625
 31
0.0
  0
POLYLINE
  8
0
 66
1
 10
0.0
 20
0.0
 30
0.0
 70
8
  0
VERTEX
  8
0
 10
79.66980196233686
 20
5.926535286255403
 30
0.0
  0
VERTEX
  8
0
 10
78.50314245075579
 20
7.316905950516348
 30
0.0
  0
VERTEX
  8
0
 10
83.35220377569892
 20
11.38575151983214
 30
0.0
  0
VERTEX
  8
0
 10
84.51886328728
 20
9.995380855571195
 30
0.0
  0
VERTEX
  8
0
 10
86.30374683974722
 20
11.493075986140832
 30
0.0
  0
SEQEND
  0
POLYLINE
  8
0
 66
1
 10
0.0
 20
0.0
 30
0.0
 70
8
  0
VERTEX
  8
0
 10
86.30374683974722
 20
11.493075986140832
 30
0.0
  0
VERTEX
  8
0
 10
85.13708732816615
 20
12.883446650401778
 30
0.0
  0
VERTEX
  8
0
 10
89.98614865310928
 20
16.95229221971757
 30
0.0
  0
VERTEX
  8
0
 10
91.15280816469036
 20
15.561921555456625
 30
0.0
  0
SEQEND
  0
LINE
  8
0
 10
75.84105021303127
 20
1.1473423583449613
 30
0.0
 11
80.44114709396072
 21
5.00728195451263
 31
0.0
  0
LINE
  8
0
 10
96.52425017724367
 20
18.502607819881522
 30
0.0
 11
91.92415329631422
 21
14.642668223713851
 31
0.0
  0
POLYLINE
  8
0
 66
1
 10
0.0
 20
0.0
 30
0.0
 70
8
  0
VERTEX
  8
0
 10
80.44114709396072
 20
5.00728195451263
 30
0.0
  0
VERTEX
  8
0
 10
81.6078066055418
 20
3.616911290251685
 30
0.0
  0
VERTEX
  8
0
 10
86.45686793048493
 20
7.685756859567478
 30
0.0
  0
VERTEX
  8
0
 10
85.29020841890386
 20
9.076127523828424
 30
0.0
  0
VERTEX
  8
0
 10
87.07509197137108
 20
10.573822654398061
 30
0.0
  0
SEQEND
  0
POLYLINE
  8
0
 66
1
 10
0.0
 20
0.0
 30
0.0
 70
8
  0
VERTEX
  8
0
 10
87.07509197137108
 20
10.573822654398061
 30
0.0
  0
VERTEX
  8
0
 10
88.24175148295215
 20
9.183451990137115
 30
0.0
  0
VERTEX
  8
0
 10
93.09081280789529
 20
13.25229755945291
 30
0.0
  0
VERTEX
  8
0
 10
91.92415329631422
 20
14.642668223713855
 30
0.0
  0
SEQEND
  0
LINE
  8
0
 10
75.84105021303127
 20
1.1473423583449613
 30
0.0
 11
74.72242379862034
 21
0.5895117882054518
 31
0.0
  0
LINE
  8
0
 10
75.0697050814074
 20
2.066595690087735
 30
0.0
 11
74.32610177271425
 21
1.0618299864032439
 31
0.0
  0
LINE
  8
0
 10
74.72242379862034
 20
0.5895117882054518
 30
0.0
 11
74.32610177271425
 21
1.0618299864032439
 31
0.0
  0
LINE
  8
0
 10
71.23948286581252
 20
1.147342358344962
 30
0.0
 11
66.63938598488306
 21
5.0072819545126315
 31
0.0
  0
LINE
  8
0
 10
50.55628290160012
 20
18.502607819881526
 30
0.0
 11
55.156379782529584
 21
14.642668223713857
 31
0.0
  0
POLYLINE
  8
0
 66
1
 10
0.0
 20
0.0
 30
0.0
 70
8
  0
VERTEX
  8
0
 10
66.63938598488306
 20
5.0072819545126315
 30
0.0
  0
VERTEX
  8
0
 10
65.47272647330199
 20
3.6169112902516867
 30
0.0
  0
VERTEX
  8
0
 10
60.62366514835886
 20
7.685756859567482
 30
0.0
  0
VERTEX
  8
0
 10
61.79032465993993
 20
9.076127523828426
 30
0.0
  0
VERTEX
  8
0
 10
60.005441107472706
 20
10.573822654398063
 30
0.0
  0
SEQEND
  0
POLYLINE
  8
0
 66
1
 10
0.0
 20
0.0
 30
0.0
 70
8
  0
VERTEX
  8
0
 10
60.005441107472706
 20
10.573822654398063
 30
0.0
  0
VERTEX
  8
0
 10
58.83878159589164
 20
9.183451990137119
 30
0.0
  0
VERTEX
  8
0
 10
53.98972027094851
 20
13.252297559452913
 30
0.0
  0
VERTEX
  8
0
 10
55.15637978252958
 20
14.642668223713857
 30
0.0
  0
SEQEND
  0
LINE
  8
0
 10
72.01082799743638
 20
2.066595690087736
 30
0.0
 11
67.41073111650692
 21
5.9265352862554055
 31
0.0
  0
LINE
  8
0
 10
51.32762803322397
 20
19.4218611516243
 30
0.0
 11
55.92772491415343
 21
15.56192155545663
 31
0.0
  0
POLYLINE
  8
0
 66
1
 10
0.0
 20
0.0
 30
0.0
 70
8
  0
VERTEX
  8
0
 10
67.41073111650692
 20
5.9265352862554055
 30
0.0
  0
VERTEX
  8
0
 10
68.577390628088
 20
7.31690595051635
 30
0.0
  0
VERTEX
  8
0
 10
63.72832930314487
 20
11.385751519832144
 30
0.0
  0
VERTEX
  8
0
 10
62.5616697915638
 20
9.995380855571199
 30
0.0
  0
VERTEX
  8
0
 10
60.77678623909658
 20
11.493075986140836
 30
0.0
  0
SEQEND
  0
POLYLINE
  8
0
 66
1
 10
0.0
 20
0.0
 30
0.0
 70
8
  0
VERTEX
  8
0
 10
60.77678623909658
 20
11.493075986140836
 30
0.0
  0
VERTEX
  8
0
 10
61.94344575067765
 20
12.883446650401781
 30
0.0
  0
VERTEX
  8
0
 10
57.09438442573452
 20
16.952292219717577
 30
0.0
  0
VERTEX
  8
0
 10
55.92772491415345
 20
15.561921555456632
 30
0.0
  0
SEQEND
  0
LINE
  8
0
 10
72.01082799743638
 20
2.066595690087736
 30
0.0
 11
72.75443130612953
 21
1.0618299864032446
 31
0.0
  0
LINE
  8
0
 10
71.23948286581252
 20
1.147342358344962
 30
0.0
 11
72.35810928022345
 21
0.5895117882054521
 31
0.0
  0
LINE
  8
0
 10
72.75443130612953
 20
1.0618299864032446
 30
0.0
 11
72.35810928022345
 21
0.5895117882054521
 31
0.0
  0
LINE
  8
0
 10
71.04026653942189
 20
0.6000000000000003
 30
0.0
 11
72.25575066689754
 21
0.3082838094058449
 31
0.0
  0
LINE
  8
0
 10
71.04026653942189
 20
-0.5999999999999996
 30
0.0
 11
72.25575066689754
 21
-0.30828380940584454
 31
0.0
  0
LINE
  8
0
 10
72.25575066689754
 20
0.3082838094058449
 30
0.0
 11
72.25575066689754
 21
-0.30828380940584454
 31
0.0
  0
LINE
  8
0
 10
72.01082799743638
 20
-2.066595690087735
 30
0.0
 11
67.41073111650692
 21
-5.926535286255403
 31
0.0
  0
LINE
  8
0
 10
51.32762803322397
 20
-19.421861151624295
 30
0.0
 11
55.92772491415343
 21
-15.561921555456626
 31
0.0
  0
POLYLINE
  8
0
 66
1
 10
0.0
 20
0.0
 30
0.0
 70
8
  0
VERTEX
  8
0
 10
67.41073111650692
 20
-5.926535286255403
 30
0.0
  0
VERTEX
  8
0
 10
68.577390628088
 20
-7.3169059505163485
 30
0.0
  0
VERTEX
  8
0
 10
63.72832930314487
 20
-11.38575151983214
 30
0.0
  0
VERTEX
  8
0
 10
62.5616697915638
 20
-9.995380855571197
 30
0.0
  0
VERTEX
  8
0
 10
60.77678623909658
 20
-11.493075986140834
 30
0.0
  0
SEQEND
  0
POLYLINE
  8
0
 66
1
 10
0.0
 20
0.0
 30
0.0
 70
8
  0
VERTEX
  8
0
 10
60.77678623909658
 20
-11.493075986140834
 30
0.0
  0
VERTEX
  8
0
 10
61.94344575067765
 20
-12.88344665040178
 30
0.0
  0
VERTEX
  8
0
 10
57.09438442573452
 20
-16.952292219717574
 30
0.0
  0
VERTEX
  8
0
 10
55.92772491415345
 20
-15.56192155545663
 30
0.0
  0
SEQEND
  0
LINE
  8
0
 10
71.23948286581252
 20
-1.1473423583449613
 30
0.0
 11
66.63938598488306
 21
-5.00728195451263
 31
0.0
  0
LINE
  8
0
 10
50.55628290160012
 20
-18.502607819881522
 30
0.0
 11
55.156379782529584
 21
-14.642668223713853
 31
0.0
  0
POLYLINE
  8
0
 66
1
 10
0.0
 20
0.0
 30
0.0
 70
8
  0
VERTEX
  8
0
 10
66.63938598488306
 20
-5.00728195451263
 30
0.0
  0
VERTEX
  8
0
 10
65.47272647330199
 20
-3.616911290251685
 30
0.0
  0
VERTEX
  8
0
 10
60.62366514835886
 20
-7.685756859567478
 30
0.0
  0
VERTEX
  8
0
 10
61.79032465993993
 20
-9.076127523828424
 30
0.0
  0
VERTEX
  8
0
 10
60.005441107472706
 20
-10.573822654398061
 30
0.0
  0
SEQEND
  0
POLYLINE
  8
0
 66
1
 10
0.0
 20
0.0
 30
0.0
 70
8
  0
VERTEX
  8
0
 10
60.005441107472706
 20
-10.573822654398061
 30
0.0
  0
VERTEX
  8
0
 10
58.83878159589164
 20
-9.183451990137115
 30
0.0
  0
VERTEX
  8
0
 10
53.98972027094851
 20
-13.25229755945291
 30
0.0
  0
VERTEX
  8
0
 10
55.15637978252958
 20
-14.642668223713855
 30
0.0
  0
SEQEND
  0
LINE
  8
0
 10
71.23948286581252
 20
-1.1473423583449613
 30
0.0
 11
72.35810928022345
 21
-0.5895117882054518
 31
0.0
  0
LINE
  8
0
 10
72.01082799743638
 20
-2.066595690087735
 30
0.0
 11
72.75443130612953
 21
-1.0618299864032439
 31
0.0
  0
LINE
  8
0
 10
72.35810928022345
 20
-0.5895117882054518
 30
0.0
 11
72.75443130612953
 21
-1.0618299864032439
 31
0.0
  0
LINE
  8
0
 10
75.84105021303127
 20
-1.1473423583449613
 30
0.0
 11
80.44114709396072
 21
-5.00728195451263
 31
0.0
  0
LINE
  8
0
 10
96.52425017724367
 20
-18.502607819881522
 30
0.0
 11
91.92415329631422
 21
-14.642668223713853
 31
0.0
  0
POLYLINE
  8
0
 66
1
 10
0.0
 20
0.0
 30
0.0
 70
8
  0
VERTEX
  8
0
 10
80.44114709396072
 20
-5.00728195451263
 30
0.0
  0
VERTEX
  8
0
 10
81.6078066055418
 20
-3.616911290251685
 30
0.0
  0
VERTEX
  8
0
 10
86.45686793048493
 20
-7.685756859567478
 30
0.0
  0
VERTEX
  8
0
 10
85.29020841890386
 20
-9.076127523828422
 30
0.0
  0
VERTEX
  8
0
 10
87.07509197137108
 20
-10.57382265439806
 30
0.0
  0
SEQEND
  0
POLYLINE
  8
0
 66
1
 10
0.0
 20
0.0
 30
0.0
 70
8
  0
VERTEX
  8
0
 10
87.07509197137108
 20
-10.57382265439806
 30
0.0
  0
VERTEX
  8
0
 10
88.24175148295215
 20
-9.183451990137113
 30
0.0
  0
VERTEX
  8
0
 10
93.09081280789529
 20
-13.252297559452906
 30
0.0
  0
VERTEX
  8
0
 10
91.92415329631422
 20
-14.642668223713851
 30
0.0
  0
SEQEND
  0
LINE
  8
0
 10
75.0697050814074
 20
-2.066595690087735
 30
0.0
 11
79.66980196233686
 21
-5.926535286255403
 31
0.0
  0
LINE
  8
0
 10
95.75290504561981
 20
-19.421861151624295
 30
0.0
 11
91.15280816469036
 21
-15.561921555456626
 31
0.0
  0
POLYLINE
  8
0
 66
1
 10
0.0
 20
0.0
 30
0.0
 70
8
  0
VERTEX
  8
0
 10
79.66980196233686
 20
-5.926535286255403
 30
0.0
  0
VERTEX
  8
0
 10
78.50314245075579
 20
-7.316905950516348
 30
0.0
  0
VERTEX
  8
0
 10
83.35220377569892
 20
-11.38575151983214
 30
0.0
  0
VERTEX
  8
0
 10
84.51886328728
 20
-9.995380855571195
 30
0.0
  0
VERTEX
  8
0
 10
86.30374683974722
 20
-11.493075986140832
 30
0.0
  0
SEQEND
  0
POLYLINE
  8
0
 66
1
 10
0.0
 20
0.0
 30
0.0
 70
8
  0
VERTEX
  8
0
 10
86.30374683974722
 20
-11.493075986140832
 30
0.0
  0
VERTEX
  8
0
 10
85.13708732816615
 20
-12.883446650401778
 30
0.0
  0
VERTEX
  8
0
 10
89.98614865310928
 20
-16.95229221971757
 30
0.0
  0
VERTEX
  8
0
 10
91.15280816469036
 20
-15.561921555456625
 30
0.0
  0
SEQEND
  0
LINE
  8
0
 10
75.0697050814074
 20
-2.066595690087735
 30
0.0
 11
74.32610177271425
 21
-1.0618299864032439
 31
0.0
  0
LINE
  8
0
 10
75.84105021303127
 20
-1.1473423583449613
 30
0.0
 11
74.72242379862034
 21
-0.5895117882054518
 31
0.0
  0
LINE
  8
0
 10
74.32610177271425
 20
-1.0618299864032439
 30
0.0
 11
74.72242379862034
 21
-0.5895117882054518
 31
0.0
  0
LINE
  8
0
 10
125.06711089903648
 20
0.6
 30
0.0
 11
139.58553307884378
 21
0.6
 31
0.0
  0
LINE
  8
0
 10
169.09395525865108
 20
0.6
 30
0.0
 11
154.5755330788438
 21
0.5999999999999982
 31
0.0
  0
POLYLINE
  8
0
 66
1
 10
0.0
 20
0.0
 30
0.0
 70
8
  0
VERTEX
  8
0
 10
139.58553307884378
 20
0.6
 30
0.0
  0
VERTEX
  8
0
 10
139.58553307884378
 20
2.415
 30
0.0
  0
VERTEX
  8
0
 10
145.9155330788438
 20
2.415
 30
0.0
  0
VERTEX
  8
0
 10
145.9155330788438
 20
0.6000000000000001
 30
0.0
  0
VERTEX
  8
0
 10
148.2455330788438
 20
0.6000000000000001
 30
0.0
  0
SEQEND
  0
POLYLINE
  8
0
 66
1
 10
0.0
 20
0.0
 30
0.0
 70
8
  0
VERTEX
  8
0
 10
148.2455330788438
 20
0.6000000000000001
 30
0.0
  0
VERTEX
  8
0
 10
148.2455330788438
 20
2.415
 30
0.0
  0
VERTEX
  8
0
 10
154.57553307884382
 20
2.415
 30
0.0
  0
VERTEX
  8
0
 10
154.57553307884382
 20
0.6000000000000001
 30
0.0
  0
SEQEND
  0
LINE
  8
0
 10
125.06711089903648
 20
-0.6
 30
0.0
 11
139.58553307884378
 21
-0.6
 31
0.0
  0
LINE
  8
0
 10
169.09395525865108
 20
-0.6
 30
0.0
 11
154.5755330788438
 21
-0.6000000000000018
 31
0.0
  0
POLYLINE
  8
0
 66
1
 10
0.0
 20
0.0
 30
0.0
 70
8
  0
VERTEX
  8
0
 10
139.58553307884378
 20
-0.6
 30
0.0
  0
VERTEX
  8
0
 10
139.58553307884378
 20
-2.415
 30
0.0
  0
VERTEX
  8
0
 10
145.9155330788438
 20
-2.415
 30
0.0
  0
VERTEX
  8
0
 10
145.9155330788438
 20
-0.6000000000000001
 30
0.0
  0
VERTEX
  8
0
 10
148.2455330788438
 20
-0.6000000000000001
 30
0.0
  0
SEQEND
  0
POLYLINE
  8
0
 66
1
 10
0.0
 20
0.0
 30
0.0
 70
8
  0
VERTEX
  8
0
 10
148.2455330788438
 20
-0.6000000000000001
 30
0.0
  0
VERTEX
  8
0
 10
148.2455330788438
 20
-2.415
 30
0.0
  0
VERTEX
  8
0
 10
154.57553307884382
 20
-2.415
 30
0.0
  0
VERTEX
  8
0
 10
154.57553307884382
 20
-0.6000000000000001
 30
0.0
  0
SEQEND
  0
LINE
  8
0
 10
125.06711089903648
 20
-0.6
 30
0.0
 11
123.85162677156083
 21
-0.30828380940584477
 31
0.0
  0
LINE
  8
0
 10
125.06711089903648
 20
0.6
 30
0.0
 11
123.85162677156083
 21
0.30828380940584477
 31
0.0
  0
LINE
  8
0
 10
123.85162677156083
 20
-0.30828380940584477
 30
0.0
 11
123.85162677156083
 21
0.30828380940584477
 31
0.0
  0
LINE
  8
0
 10
124.09654944102199
 20
2.066595690087735
 30
0.0
 11
128.69664632195145
 21
5.926535286255403
 31
0.0
  0
LINE
  8
0
 10
144.7797494052344
 20
19.421861151624295
 30
0.0
 11
140.17965252430494
 21
15.561921555456625
 31
0.0
  0
POLYLINE
  8
0
 66
1
 10
0.0
 20
0.0
 30
0.0
 70
8
  0
VERTEX
  8
0
 10
128.69664632195145
 20
5.926535286255403
 30
0.0
  0
VERTEX
  8
0
 10
127.52998681037037
 20
7.316905950516348
 30
0.0
  0
VERTEX
  8
0
 10
132.3790481353135
 20
11.38575151983214
 30
0.0
  0
VERTEX
  8
0
 10
133.54570764689456
 20
9.995380855571195
 30
0.0
  0
VERTEX
  8
0
 10
135.33059119936178
 20
11.493075986140832
 30
0.0
  0
SEQEND
  0
POLYLINE
  8
0
 66
1
 10
0.0
 20
0.0
 30
0.0
 70
8
  0
VERTEX
  8
0
 10
135.33059119936178
 20
11.493075986140832
 30
0.0
  0
VERTEX
  8
0
 10
134.16393168778072
 20
12.883446650401778
 30
0.0
  0
VERTEX
  8
0
 10
139.01299301272385
 20
16.95229221971757
 30
0.0
  0
VERTEX
  8
0
 10
140.1796525243049
 20
15.561921555456625
 30
0.0
  0
SEQEND
  0
LINE
  8
0
 10
124.86789457264585
 20
1.1473423583449613
 30
0.0
 11
129.4679914535753
 21
5.00728195451263
 31
0.0
  0
LINE
  8
0
 10
145.55109453685824
 20
18.502607819881522
 30
0.0
 11
140.95099765592877
 21
14.642668223713851
 31
0.0
  0
POLYLINE
  8
0
 66
1
 10
0.0
 20
0.0
 30
0.0
 70
8
  0
VERTEX
  8
0
 10
129.4679914535753
 20
5.00728195451263
 30
0.0
  0
VERTEX
  8
0
 10
130.63465096515637
 20
3.616911290251685
 30
0.0
  0
VERTEX
  8
0
 10
135.4837122900995
 20
7.685756859567478
 30
0.0
  0
VERTEX
  8
0
 10
134.31705277851844
 20
9.076127523828424
 30
0.0
  0
VERTEX
  8
0
 10
136.10193633098567
 20
10.573822654398061
 30
0.0
  0
SEQEND
  0
POLYLINE
  8
0
 66
1
 10
0.0
 20
0.0
 30
0.0
 70
8
  0
VERTEX
  8
0
 10
136.10193633098567
 20
10.573822654398061
 30
0.0
  0
VERTEX
  8
0
 10
137.26859584256673
 20
9.183451990137115
 30
0.0
  0
VERTEX
  8
0
 10
142.11765716750986
 20
13.25229755945291
 30
0.0
  0
VERTEX
  8
0
 10
140.9509976559288
 20
14.642668223713855
 30
0.0
  0
SEQEND
  0
LINE
  8
0
 10
124.86789457264585
 20
1.1473423583449613
 30
0.0
 11
123.74926815823493
 21
0.5895117882054518
 31
0.0
  0
LINE
  8
0
 10
124.09654944102199
 20
2.066595690087735
 30
0.0
 11
123.35294613232884
 21
1.0618299864032439
 31
0.0
  0
LINE
  8
0
 10
123.74926815823493
 20
0.5895117882054518
 30
0.0
 11
123.35294613232884
 21
1.0618299864032439
 31
0.0
  0
LINE
  8
0
 10
120.2663272254271
 20
1.147342358344962
 30
0.0
 11
115.66623034449765
 21
5.0072819545126315
 31
0.0
  0
LINE
  8
0
 10
99.5831272612147
 20
18.502607819881526
 30
0.0
 11
104.18322414214416
 21
14.642668223713857
 31
0.0
  0
POLYLINE
  8
0
 66
1
 10
0.0
 20
0.0
 30
0.0
 70
8
  0
VERTEX
  8
0
 10
115.66623034449765
 20
5.0072819545126315
 30
0.0
  0
VERTEX
  8
0
 10
114.49957083291658
 20
3.6169112902516867
 30
0.0
  0
VERTEX
  8
0
 10
109.65050950797344
 20
7.685756859567482
 30
0.0
  0
VERTEX
  8
0
 10
110.81716901955451
 20
9.076127523828426
 30
0.0
  0
VERTEX
  8
0
 10
109.03228546708729
 20
10.573822654398063
 30
0.0
  0
SEQEND
  0
POLYLINE
  8
0
 66
1
 10
0.0
 20
0.0
 30
0.0
 70
8
  0
VERTEX
  8
0
 10
109.03228546708729
 20
10.573822654398063
 30
0.0
  0
VERTEX
  8
0
 10
107.86562595550622
 20
9.183451990137119
 30
0.0
  0
VERTEX
  8
0
 10
103.01656463056308
 20
13.252297559452913
 30
0.0
  0
VERTEX
  8
0
 10
104.18322414214416
 20
14.642668223713857
 30
0.0
  0
SEQEND
  0
LINE
  8
0
 10
121.03767235705097
 20
2.066595690087736
 30
0.0
 11
116.43757547612151
 21
5.9265352862554055
 31
0.0
  0
LINE
  8
0
 10
100.35447239283856
 20
19.4218611516243
 30
0.0
 11
104.95456927376802
 21
15.56192155545663
 31
0.0
  0
POLYLINE
  8
0
 66
1
 10
0.0
 20
0.0
 30
0.0
 70
8
  0
VERTEX
  8
0
 10
116.43757547612151
 20
5.9265352862554055
 30
0.0
  0
VERTEX
  8
0
 10
117.60423498770258
 20
7.31690595051635
 30
0.0
  0
VERTEX
  8
0
 10
112.75517366275945
 20
11.385751519832144
 30
0.0
  0
VERTEX
  8
0
 10
111.58851415117837
 20
9.995380855571199
 30
0.0
  0
VERTEX
  8
0
 10
109.80363059871115
 20
11.493075986140836
 30
0.0
  0
SEQEND
  0
POLYLINE
  8
0
 66
1
 10
0.0
 20
0.0
 30
0.0
 70
8
  0
VERTEX
  8
0
 10
109.80363059871115
 20
11.493075986140836
 30
0.0
  0
VERTEX
  8
0
 10
110.97029011029223
 20
12.883446650401781
 30
0.0
  0
VERTEX
  8
0
 10
106.12122878534909
 20
16.952292219717577
 30
0.0
  0
VERTEX
  8
0
 10
104.95456927376802
 20
15.561921555456632
 30
0.0
  0
SEQEND
  0
LINE
  8
0
 10
121.03767235705097
 20
2.066595690087736
 30
0.0
 11
121.78127566574412
 21
1.0618299864032446
 31
0.0
  0
LINE
  8
0
 10
120.2663272254271
 20
1.147342358344962
 30
0.0
 11
121.38495363983803
 21
0.5895117882054521
 31
0.0
  0
LINE
  8
0
 10
121.78127566574412
 20
1.0618299864032446
 30
0.0
 11
121.38495363983803
 21
0.5895117882054521
 31
0.0
  0
LINE
  8
0
 10
120.06711089903648
 20
0.6000000000000003
 30
0.0
 11
121.28259502651213
 21
0.3082838094058449
 31
0.0
  0
LINE
  8
0
 10
120.06711089903648
 20
-0.5999999999999996
 30
0.0
 11
121.28259502651213
 21
-0.30828380940584454
 31
0.0
  0
LINE
  8
0
 10
121.28259502651213
 20
0.3082838094058449
 30
0.0
 11
121.28259502651213
 21
-0.30828380940584454
 31
0.0
  0
LINE
  8
0
 10
121.03767235705097
 20
-2.066595690087735
 30
0.0
 11
116.43757547612151
 21
-5.926535286255403
 31
0.0
  0
LINE
  8
0
 10
100.35447239283856
 20
-19.421861151624295
 30
0.0
 11
104.95456927376802
 21
-15.561921555456626
 31
0.0
  0
POLYLINE
  8
0
 66
1
 10
0.0
 20
0.0
 30
0.0
 70
8
  0
VERTEX
  8
0
 10
116.43757547612151
 20
-5.926535286255403
 30
0.0
  0
VERTEX
  8
0
 10
117.60423498770258
 20
-7.3169059505163485
 30
0.0
  0
VERTEX
  8
0
 10
112.75517366275945
 20
-11.38575151983214
 30
0.0
  0
VERTEX
  8
0
 10
111.58851415117837
 20
-9.995380855571197
 30
0.0
  0
VERTEX
  8
0
 10
109.80363059871115
 20
-11.493075986140834
 30
0.0
  0
SEQEND
  0
POLYLINE
  8
0
 66
1
 10
0.0
 20
0.0
 30
0.0
 70
8
  0
VERTEX
  8
0
 10
109.80363059871115
 20
-11.493075986140834
 30
0.0
  0
VERTEX
  8
0
 10
110.97029011029223
 20
-12.88344665040178
 30
0.0
  0
VERTEX
  8
0
 10
106.12122878534909
 20
-16.952292219717574
 30
0.0
  0
VERTEX
  8
0
 10
104.95456927376802
 20
-15.56192155545663
 30
0.0
  0
SEQEND
  0
LINE
  8
0
 10
120.2663272254271
 20
-1.1473423583449613
 30
0.0
 11
115.66623034449765
 21
-5.00728195451263
 31
0.0
  0
LINE
  8
0
 10
99.5831272612147
 20
-18.502607819881522
 30
0.0
 11
104.18322414214416
 21
-14.642668223713853
 31
0.0
  0
POLYLINE
  8
0
 66
1
 10
0.0
 20
0.0
 30
0.0
 70
8
  0
VERTEX
  8
0
 10
115.66623034449765
 20
-5.00728195451263
 30
0.0
  0
VERTEX
  8
0
 10
114.49957083291658
 20
-3.616911290251685
 30
0.0
  0
VERTEX
  8
0
 10
109.65050950797344
 20
-7.685756859567478
 30
0.0
  0
VERTEX
  8
0
 10
110.81716901955451
 20
-9.076127523828424
 30
0.0
  0
VERTEX
  8
0
 10
109.03228546708729
 20
-10.573822654398061
 30
0.0
  0
SEQEND
  0
POLYLINE
  8
0
 66
1
 10
0.0
 20
0.0
 30
0.0
 70
8
  0
VERTEX
  8
0
 10
109.03228546708729
 20
-10.573822654398061
 30
0.0
  0
VERTEX
  8
0
 10
107.86562595550622
 20
-9.183451990137115
 30
0.0
  0
VERTEX
  8
0
 10
103.01656463056308
 20
-13.25229755945291
 30
0.0
  0
VERTEX
  8
0
 10
104.18322414214416
 20
-14.642668223713855
 30
0.0
  0
SEQEND
  0
LINE
  8
0
 10
120.2663272254271
 20
-1.1473423583449613
 30
0.0
 11
121.38495363983803
 21
-0.5895117882054518
 31
0.0
  0
LINE
  8
0
 10
121.03767235705097
 20
-2.066595690087735
 30
0.0
 11
121.78127566574412
 21
-1.0618299864032439
 31
0.0
  0
LINE
  8
0
 10
121.38495363983803
 20
-0.5895117882054518
 30
0.0
 11
121.78127566574412
 21
-1.0618299864032439
 31
0.0
  0
LINE
  8
0
 10
124.86789457264585
 20
-1.1473423583449613
 30
0.0
 11
129.4679914535753
 21
-5.00728195451263
 31
0.0
  0
LINE
  8
0
 10
145.55109453685824
 20
-18.502607819881522
 30
0.0
 11
140.95099765592877
 21
-14.642668223713853
 31
0.0
  0
POLYLINE
  8
0
 66
1
 10
0.0
 20
0.0
 30
0.0
 70
8
  0
VERTEX
  8
0
 10
129.4679914535753
 20
-5.00728195451263
 30
0.0
  0
VERTEX
  8
0
 10
130.63465096515637
 20
-3.616911290251685
 30
0.0
  0
VERTEX
  8
0
 10
135.4837122900995
 20
-7.685756859567478
 30
0.0
  0
VERTEX
  8
0
 10
134.31705277851844
 20
-9.076127523828422
 30
0.0
  0
VERTEX
  8
0
 10
136.10193633098567
 20
-10.57382265439806
 30
0.0
  0
SEQEND
  0
POLYLINE
  8
0
 66
1
 10
0.0
 20
0.0
 30
0.0
 70
8
  0
VERTEX
  8
0
 10
136.10193633098567
 20
-10.57382265439806
 30
0.0
  0
VERTEX
  8
0
 10
137.26859584256673
 20
-9.183451990137113
 30
0.0
  0
VERTEX
  8
0
 10
142.11765716750986
 20
-13.252297559452906
 30
0.0
  0
VERTEX
  8
0
 10
140.9509976559288
 20
-14.642668223713851
 30
0.0
  0
SEQEND
  0
LINE
  8
0
 10
124.09654944102199
 20
-2.066595690087735
 30
0.0
 11
128.69664632195145
 21
-5.926535286255403
 31
0.0
  0
LINE
  8
0
 10
144.7797494052344
 20
-19.421861151624295
 30
0.0
 11
140.17965252430494
 21
-15.561921555456626
 31
0.0
  0
POLYLINE
  8
0
 66
1
 10
0.0
 20
0.0
 30
0.0
 70
8
  0
VERTEX
  8
0
 10
128.69664632195145
 20
-5.926535286255403
 30
0.0
  0
VERTEX
  8
0
 10
127.52998681037037
 20
-7.316905950516348
 30
0.0
  0
VERTEX
  8
0
 10
132.3790481353135
 20
-11.38575151983214
 30
0.0
  0
VERTEX
  8
0
 10
133.54570764689456
 20
-9.995380855571195
 30
0.0
  0
VERTEX
  8
0
 10
135.33059119936178
 20
-11.493075986140832
 30
0.0
  0
SEQEND
  0
POLYLINE
  8
0
 66
1
 10
0.0
 20
0.0
 30
0.0
 70
8
  0
VERTEX
  8
0
 10
135.33059119936178
 20
-11.493075986140832
 30
0.0
  0
VERTEX
  8
0
 10
134.16393168778072
 20
-12.883446650401778
 30
0.0
  0
VERTEX
  8
0
 10
139.01299301272385
 20
-16.95229221971757
 30
0.0
  0
VERTEX
  8
0
 10
140.1796525243049
 20
-15.561921555456625
 30
0.0
  0
SEQEND
  0
LINE
  8
0
 10
124.09654944102199
 20
-2.066595690087735
 30
0.0
 11
123.35294613232884
 21
-1.0618299864032439
 31
0.0
  0
LINE
  8
0
 10
124.86789457264585
 20
-1.1473423583449613
 30
0.0
 11
123.74926815823493
 21
-0.5895117882054518
 31
0.0
  0
LINE
  8
0
 10
123.35294613232884
 20
-1.0618299864032439
 30
0.0
 11
123.74926815823493
 21
-0.5895117882054518
 31
0.0
  0
LINE
  8
0
 10
2.5
 20
-19.969203509969255
 30
0.0
 11
17.018422179807295
 21
-19.969203509969255
 31
0.0
  0
LINE
  8
0
 10
46.52684435961459
 20
-19.969203509969255
 30
0.0
 11
32.0084221798073
 21
-19.969203509969258
 31
0.0
  0
POLYLINE
  8
0
 66
1
 10
0.0
 20
0.0
 30
0.0
 70
8
  0
VERTEX
  8
0
 10
17.018422179807295
 20
-19.969203509969255
 30
0.0
  0
VERTEX
  8
0
 10
17.018422179807295
 20
-18.154203509969253
 30
0.0
  0
VERTEX
  8
0
 10
23.348422179807294
 20
-18.154203509969253
 30
0.0
  0
VERTEX
  8
0
 10
23.348422179807294
 20
-19.969203509969255
 30
0.0
  0
VERTEX
  8
0
 10
25.678422179807292
 20
-19.969203509969255
 30
0.0
  0
SEQEND
  0
POLYLINE
  8
0
 66
1
 10
0.0
 20
0.0
 30
0.0
 70
8
  0
VERTEX
  8
0
 10
25.678422179807292
 20
-19.969203509969255
 30
0.0
  0
VERTEX
  8
0
 10
25.678422179807292
 20
-18.154203509969253
 30
0.0
  0
VERTEX
  8
0
 10
32.00842217980729
 20
-18.154203509969253
 30
0.0
  0
VERTEX
  8
0
 10
32.00842217980729
 20
-19.969203509969255
 30
0.0
  0
SEQEND
  0
LINE
  8
0
 10
2.5
 20
-21.169203509969257
 30
0.0
 11
17.018422179807295
 21
-21.169203509969257
 31
0.0
  0
LINE
  8
0
 10
46.52684435961459
 20
-21.169203509969257
 30
0.0
 11
32.0084221798073
 21
-21.16920350996926
 31
0.0
  0
POLYLINE
  8
0
 66
1
 10
0.0
 20
0.0
 30
0.0
 70
8
  0
VERTEX
  8
0
 10
17.018422179807295
 20
-21.169203509969257
 30
0.0
  0
VERTEX
  8
0
 10
17.018422179807295
 20
-22.98420350996926
 30
0.0
  0
VERTEX
  8
0
 10
23.348422179807294
 20
-22.98420350996926
 30
0.0
  0
VERTEX
  8
0
 10
23.348422179807294
 20
-21.169203509969257
 30
0.0
  0
VERTEX
  8
0
 10
25.678422179807292
 20
-21.169203509969257
 30
0.0
  0
SEQEND
  0
POLYLINE
  8
0
 66
1
 10
0.0
 20
0.0
 30
0.0
 70
8
  0
VERTEX
  8
0
 10
25.678422179807292
 20
-21.169203509969257
 30
0.0
  0
VERTEX
  8
0
 10
25.678422179807292
 20
-22.98420350996926
 30
0.0
  0
VERTEX
  8
0
 10
32.00842217980729
 20
-22.98420350996926
 30
0.0
  0
VERTEX
  8
0
 10
32.00842217980729
 20
-21.169203509969257
 30
0.0
  0
SEQEND
  0
LINE
  8
0
 10
2.5
 20
-21.169203509969257
 30
0.0
 11
1.2845158725243533
 21
-20.877487319375103
 31
0.0
  0
LINE
  8
0
 10
2.5
 20
-19.969203509969255
 30
0.0
 11
1.2845158725243533
 21
-20.26091970056341
 31
0.0
  0
LINE
  8
0
 10
1.2845158725243533
 20
-20.877487319375103
 30
0.0
 11
1.2845158725243533
 21
-20.26091970056341
 31
0.0
  0
LINE
  8
0
 10
2.3007836736093688
 20
-19.421861151624295
 30
0.0
 11
1.18215725919845
 21
-19.979691721763807
 31
0.0
  0
LINE
  8
0
 10
1.5294385419855214
 20
-18.502607819881522
 30
0.0
 11
0.7858352332923624
 21
-19.50737352356601
 31
0.0
  0
LINE
  8
0
 10
1.18215725919845
 20
-19.979691721763807
 30
0.0
 11
0.7858352332923624
 21
-19.50737352356601
 31
0.0
  0
LINE
  8
0
 10
-2.3007836736093683
 20
-19.421861151624295
 30
0.0
 11
-6.900880554538831
 21
-15.561921555456625
 31
0.0
  0
LINE
  8
0
 10
-22.98398363782177
 20
-2.0665956900877305
 30
0.0
 11
-18.383886756892306
 21
-5.926535286255399
 31
0.0
  0
POLYLINE
  8
0
 66
1
 10
0.0
 20
0.0
 30
0.0
 70
8
  0
VERTEX
  8
0
 10
-6.900880554538831
 20
-15.561921555456625
 30
0.0
  0
VERTEX
  8
0
 10
-8.0675400661199
 20
-16.95229221971757
 30
0.0
  0
VERTEX
  8
0
 10
-12.916601391063029
 20
-12.883446650401776
 30
0.0
  0
VERTEX
  8
0
 10
-11.749941879481959
 20
-11.493075986140832
 30
0.0
  0
VERTEX
  8
0
 10
-13.534825431949178
 20
-9.995380855571195
 30
0.0
  0
SEQEND
  0
POLYLINE
  8
0
 66
1
 10
0.0
 20
0.0
 30
0.0
 70
8
  0
VERTEX
  8
0
 10
-13.534825431949178
 20
-9.995380855571195
 30
0.0
  0
VERTEX
  8
0
 10
-14.701484943530247
 20
-11.38575151983214
 30
0.0
  0
VERTEX
  8
0
 10
-19.550546268473376
 20
-7.316905950516346
 30
0.0
  0
VERTEX
  8
0
 10
-18.383886756892306
 20
-5.926535286255401
 30
0.0
  0
SEQEND
  0
LINE
  8
0
 10
-1.5294385419855212
 20
-18.502607819881522
 30
0.0
 11
-6.129535422914984
 21
-14.642668223713851
 31
0.0
  0
LINE
  8
0
 10
-22.212638506197923
 20
-1.1473423583449571
 30
0.0
 11
-17.61254162526846
 21
-5.007281954512625
 31
0.0
  0
POLYLINE
  8
0
 66
1
 10
0.0
 20
0.0
 30
0.0
 70
8
  0
VERTEX
  8
0
 10
-6.129535422914984
 20
-14.642668223713851
 30
0.0
  0
VERTEX
  8
0
 10
-4.9628759113339145
 20
-13.252297559452906
 30
0.0
  0
VERTEX
  8
0
 10
-9.811937236277045
 20
-9.183451990137112
 30
0.0
  0
VERTEX
  8
0
 10
-10.978596747858113
 20
-10.573822654398057
 30
0.0
  0
VERTEX
  8
0
 10
-12.763480300325332
 20
-9.07612752382842
 30
0.0
  0
SEQEND
  0
POLYLINE
  8
0
 66
1
 10
0.0
 20
0.0
 30
0.0
 70
8
  0
VERTEX
  8
0
 10
-12.763480300325332
 20
-9.07612752382842
 30
0.0
  0
VERTEX
  8
0
 10
-11.596820788744264
 20
-7.6857568595674755
 30
0.0
  0
VERTEX
  8
0
 10
-16.445882113687393
 20
-3.6169112902516805
 30
0.0
  0
VERTEX
  8
0
 10
-17.612541625268463
 20
-5.007281954512625
 30
0.0
  0
SEQEND
  0
LINE
  8
0
 10
-1.5294385419855212
 20
-18.502607819881522
 30
0.0
 11
-0.7858352332923622
 21
-19.50737352356601
 31
0.0
  0
LINE
  8
0
 10
-2.3007836736093683
 20
-19.421861151624295
 30
0.0
 11
-1.1821572591984495
 21
-19.979691721763807
 31
0.0
  0
LINE
  8
0
 10
-0.7858352332923622
 20
-19.50737352356601
 30
0.0
 11
-1.1821572591984495
 21
-19.979691721763807
 31
0.0
  0
LINE
  8
0
 10
-2.5
 20
-21.169203509969257
 30
0.0
 11
-17.018422179807295
 21
-21.169203509969254
 31
0.0
  0
LINE
  8
0
 10
-46.52684435961459
 20
-21.16920350996925
 30
0.0
 11
-32.0084221798073
 21
-21.16920350996925
 31
0.0
  0
POLYLINE
  8
0
 66
1
 10
0.0
 20
0.0
 30
0.0
 70
8
  0
VERTEX
  8
0
 10
-17.018422179807295
 20
-21.169203509969254
 30
0.0
  0
VERTEX
  8
0
 10
-17.018422179807295
 20
-22.984203509969255
 30
0.0
  0
VERTEX
  8
0
 10
-23.348422179807294
 20
-22.984203509969255
 30
0.0
  0
VERTEX
  8
0
 10
-23.348422179807294
 20
-21.169203509969254
 30
0.0
  0
VERTEX
  8
0
 10
-25.678422179807292
 20
-21.169203509969254
 30
0.0
  0
SEQEND
  0
POLYLINE
  8
0
 66
1
 10
0.0
 20
0.0
 30
0.0
 70
8
  0
VERTEX
  8
0
 10
-25.678422179807292
 20
-21.169203509969254
 30
0.0
  0
VERTEX
  8
0
 10
-25.678422179807292
 20
-22.984203509969255
 30
0.0
  0
VERTEX
  8
0
 10
-32.00842217980729
 20
-22.984203509969255
 30
0.0
  0
VERTEX
  8
0
 10
-32.00842217980729
 20
-21.169203509969254
 30
0.0
  0
SEQEND
  0
LINE
  8
0
 10
-2.5
 20
-19.969203509969255
 30
0.0
 11
-17.018422179807295
 21
-19.96920350996925
 31
0.0
  0
LINE
  8
0
 10
-46.52684435961459
 20
-19.969203509969248
 30
0.0
 11
-32.0084221798073
 21
-19.969203509969248
 31
0.0
  0
POLYLINE
  8
0
 66
1
 10
0.0
 20
0.0
 30
0.0
 70
8
  0
VERTEX
  8
0
 10
-17.018422179807295
 20
-19.96920350996925
 30
0.0
  0
VERTEX
  8
0
 10
-17.018422179807295
 20
-18.15420350996925
 30
0.0
  0
VERTEX
  8
0
 10
-23.348422179807294
 20
-18.15420350996925
 30
0.0
  0
VERTEX
  8
0
 10
-23.348422179807294
 20
-19.96920350996925
 30
0.0
  0
VERTEX
  8
0
 10
-25.678422179807292
 20
-19.96920350996925
 30
0.0
  0
SEQEND
  0
POLYLINE
  8
0
 66
1
 10
0.0
 20
0.0
 30
0.0
 70
8
  0
VERTEX
  8
0
 10
-25.678422179807292
 20
-19.96920350996925
 30
0.0
  0
VERTEX
  8
0
 10
-25.678422179807292
 20
-18.15420350996925
 30
0.0
  0
VERTEX
  8
0
 10
-32.00842217980729
 20
-18.15420350996925
 30
0.0
  0
VERTEX
  8
0
 10
-32.00842217980729
 20
-19.96920350996925
 30
0.0
  0
SEQEND
  0
LINE
  8
0
 10
-2.5
 20
-19.969203509969255
 30
0.0
 11
-1.2845158725243533
 21
-20.26091970056341
 31
0.0
  0
LINE
  8
0
 10
-2.5
 20
-21.169203509969257
 30
0.0
 11
-1.2845158725243533
 21
-20.877487319375103
 31
0.0
  0
LINE
  8
0
 10
-1.2845158725243533
 20
-20.26091970056341
 30
0.0
 11
-1.2845158725243533
 21
-20.877487319375103
 31
0.0
  0
LINE
  8
0
 10
-1.5294385419855214
 20
-22.63579920005699
 30
0.0
 11
-6.129535422914984
 21
-26.495738796224657
 31
0.0
  0
LINE
  8
0
 10
-22.212638506197926
 20
-39.991064661593555
 30
0.0
 11
-17.612541625268463
 21
-36.131125065425884
 31
0.0
  0
POLYLINE
  8
0
 66
1
 10
0.0
 20
0.0
 30
0.0
 70
8
  0
VERTEX
  8
0
 10
-6.129535422914984
 20
-26.495738796224657
 30
0.0
  0
VERTEX
  8
0
 10
-4.962875911333915
 20
-27.886109460485603
 30
0.0
  0
VERTEX
  8
0
 10
-9.811937236277046
 20
-31.954955029801397
 30
0.0
  0
VERTEX
  8
0
 10
-10.978596747858116
 20
-30.56458436554045
 30
0.0
  0
VERTEX
  8
0
 10
-12.763480300325336
 20
-32.06227949611009
 30
0.0
  0
SEQEND
  0
POLYLINE
  8
0
 66
1
 10
0.0
 20
0.0
 30
0.0
 70
8
  0
VERTEX
  8
0
 10
-12.763480300325336
 20
-32.06227949611009
 30
0.0
  0
VERTEX
  8
0
 10
-11.596820788744267
 20
-33.45265016037103
 30
0.0
  0
VERTEX
  8
0
 10
-16.445882113687396
 20
-37.52149572968682
 30
0.0
  0
VERTEX
  8
0
 10
-17.612541625268467
 20
-36.13112506542588
 30
0.0
  0
SEQEND
  0
LINE
  8
0
 10
-2.3007836736093688
 20
-21.716545868314217
 30
0.0
 11
-6.900880554538832
 21
-25.576485464481884
 31
0.0
  0
LINE
  8
0
 10
-22.983983637821773
 20
-39.071811329850775
 30
0.0
 11
-18.38388675689231
 21
-35.211871733683104
 31
0.0
  0
POLYLINE
  8
0
 66
1
 10
0.0
 20
0.0
 30
0.0
 70
8
  0
VERTEX
  8
0
 10
-6.900880554538832
 20
-25.576485464481884
 30
0.0
  0
VERTEX
  8
0
 10
-8.0675400661199
 20
-24.18611480022094
 30
0.0
  0
VERTEX
  8
0
 10
-12.91660139106303
 20
-28.254960369536732
 30
0.0
  0
VERTEX
  8
0
 10
-11.749941879481963
 20
-29.645331033797678
 30
0.0
  0
VERTEX
  8
0
 10
-13.534825431949182
 20
-31.143026164367313
 30
0.0
  0
SEQEND
  0
POLYLINE
  8
0
 66
1
 10
0.0
 20
0.0
 30
0.0
 70
8
  0
VERTEX
  8
0
 10
-13.534825431949182
 20
-31.143026164367313
 30
0.0
  0
VERTEX
  8
0
 10
-14.70148494353025
 20
-29.752655500106368
 30
0.0
  0
VERTEX
  8
0
 10
-19.550546268473383
 20
-33.82150106942216
 30
0.0
  0
VERTEX
  8
0
 10
-18.383886756892313
 20
-35.211871733683104
 30
0.0
  0
SEQEND
  0
LINE
  8
0
 10
-2.3007836736093688
 20
-21.716545868314217
 30
0.0
 11
-1.18215725919845
 21
-21.158715298174705
 31
0.0
  0
LINE
  8
0
 10
-1.5294385419855214
 20
-22.63579920005699
 30
0.0
 11
-0.7858352332923624
 21
-21.631033496372503
 31
0.0
  0
LINE
  8
0
 10
-1.18215725919845
 20
-21.158715298174705
 30
0.0
 11
-0.7858352332923624
 21
-21.631033496372503
 31
0.0
  0
LINE
  8
0
 10
2.3007836736093688
 20
-21.716545868314217
 30
0.0
 11
6.900880554538832
 21
-25.576485464481884
 31
0.0
  0
LINE
  8
0
 10
22.983983637821773
 20
-39.071811329850775
 30
0.0
 11
18.38388675689231
 21
-35.211871733683104
 31
0.0
  0
POLYLINE
  8
0
 66
1
 10
0.0
 20
0.0
 30
0.0
 70
8
  0
VERTEX
  8
0
 10
6.900880554538832
 20
-25.576485464481884
 30
0.0
  0
VERTEX
  8
0
 10
8.0675400661199
 20
-24.18611480022094
 30
0.0
  0
VERTEX
  8
0
 10
12.91660139106303
 20
-28.254960369536732
 30
0.0
  0
VERTEX
  8
0
 10
11.749941879481963
 20
-29.645331033797678
 30
0.0
  0
VERTEX
  8
0
 10
13.534825431949182
 20
-31.143026164367313
 30
0.0
  0
SEQEND
  0
POLYLINE
  8
0
 66
1
 10
0.0
 20
0.0
 30
0.0
 70
8
  0
VERTEX
  8
0
 10
13.534825431949182
 20
-31.143026164367313
 30
0.0
  0
VERTEX
  8
0
 10
14.70148494353025
 20
-29.752655500106368
 30
0.0
  0
VERTEX
  8
0
 10
19.550546268473383
 20
-33.82150106942216
 30
0.0
  0
VERTEX
  8
0
 10
18.383886756892313
 20
-35.211871733683104
 30
0.0
  0
SEQEND
  0
LINE
  8
0
 10
1.5294385419855214
 20
-22.63579920005699
 30
0.0
 11
6.129535422914984
 21
-26.495738796224657
 31
0.0
  0
LINE
  8
0
 10
22.212638506197926
 20
-39.991064661593555
 30
0.0
 11
17.612541625268463
 21
-36.131125065425884
 31
0.0
  0
POLYLINE
  8
0
 66
1
 10
0.0
 20
0.0
 30
0.0
 70
8
  0
VERTEX
  8
0
 10
6.129535422914984
 20
-26.495738796224657
 30
0.0
  0
VERTEX
  8
0
 10
4.9628759113339145
 20
-27.886109460485603
 30
0.0
  0
VERTEX
  8
0
 10
9.811937236277046
 20
-31.954955029801397
 30
0.0
  0
VERTEX
  8
0
 10
10.978596747858115
 20
-30.56458436554045
 30
0.0
  0
VERTEX
  8
0
 10
12.763480300325334
 20
-32.06227949611009
 30
0.0
  0
SEQEND
  0
POLYLINE
  8
0
 66
1
 10
0.0
 20
0.0
 30
0.0
 70
8
  0
VERTEX
  8
0
 10
12.763480300325334
 20
-32.06227949611009
 30
0.0
  0
VERTEX
  8
0
 10
11.596820788744266
 20
-33.45265016037103
 30
0.0
  0
VERTEX
  8
0
 10
16.445882113687396
 20
-37.52149572968682
 30
0.0
  0
VERTEX
  8
0
 10
17.612541625268467
 20
-36.13112506542588
 30
0.0
  0
SEQEND
  0
LINE
  8
0
 10
1.5294385419855214
 20
-22.63579920005699
 30
0.0
 11
0.7858352332923624
 21
-21.631033496372503
 31
0.0
  0
LINE
  8
0
 10
2.3007836736093688
 20
-21.716545868314217
 30
0.0
 11
1.18215725919845
 21
-21.158715298174705
 31
0.0
  0
LINE
  8
0
 10
0.7858352332923624
 20
-21.631033496372503
 30
0.0
 11
1.18215725919845
 21
-21.158715298174705
 31
0.0
  0
LINE
  8
0
 10
51.52684435961459
 20
-19.969203509969255
 30
0.0
 11
66.04526653942189
 21
-19.969203509969255
 31
0.0
  0
LINE
  8
0
 10
95.55368871922919
 20
-19.969203509969255
 30
0.0
 11
81.03526653942188
 21
-19.969203509969258
 31
0.0
  0
POLYLINE
  8
0
 66
1
 10
0.0
 20
0.0
 30
0.0
 70
8
  0
VERTEX
  8
0
 10
66.04526653942189
 20
-19.969203509969255
 30
0.0
  0
VERTEX
  8
0
 10
66.04526653942189
 20
-18.154203509969253
 30
0.0
  0
VERTEX
  8
0
 10
72.37526653942189
 20
-18.154203509969253
 30
0.0
  0
VERTEX
  8
0
 10
72.37526653942189
 20
-19.969203509969255
 30
0.0
  0
VERTEX
  8
0
 10
74.70526653942188
 20
-19.969203509969255
 30
0.0
  0
SEQEND
  0
POLYLINE
  8
0
 66
1
 10
0.0
 20
0.0
 30
0.0
 70
8
  0
VERTEX
  8
0
 10
74.70526653942188
 20
-19.969203509969255
 30
0.0
  0
VERTEX
  8
0
 10
74.70526653942188
 20
-18.154203509969253
 30
0.0
  0
VERTEX
  8
0
 10
81.03526653942188
 20
-18.154203509969253
 30
0.0
  0
VERTEX
  8
0
 10
81.03526653942188
 20
-19.969203509969255
 30
0.0
  0
SEQEND
  0
LINE
  8
0
 10
51.52684435961459
 20
-21.169203509969257
 30
0.0
 11
66.04526653942189
 21
-21.169203509969257
 31
0.0
  0
LINE
  8
0
 10
95.55368871922919
 20
-21.169203509969257
 30
0.0
 11
81.03526653942188
 21
-21.16920350996926
 31
0.0
  0
POLYLINE
  8
0
 66
1
 10
0.0
 20
0.0
 30
0.0
 70
8
  0
VERTEX
  8
0
 10
66.04526653942189
 20
-21.169203509969257
 30
0.0
  0
VERTEX
  8
0
 10
66.04526653942189
 20
-22.98420350996926
 30
0.0
  0
VERTEX
  8
0
 10
72.37526653942189
 20
-22.98420350996926
 30
0.0
  0
VERTEX
  8
0
 10
72.37526653942189
 20
-21.169203509969257
 30
0.0
  0
VERTEX
  8
0
 10
74.70526653942188
 20
-21.169203509969257
 30
0.0
  0
SEQEND
  0
POLYLINE
  8
0
 66
1
 10
0.0
 20
0.0
 30
0.0
 70
8
  0
VERTEX
  8
0
 10
74.70526653942188
 20
-21.169203509969257
 30
0.0
  0
VERTEX
  8
0
 10
74.70526653942188
 20
-22.98420350996926
 30
0.0
  0
VERTEX
  8
0
 10
81.03526653942188
 20
-22.98420350996926
 30
0.0
  0
VERTEX
  8
0
 10
81.03526653942188
 20
-21.169203509969257
 30
0.0
  0
SEQEND
  0
LINE
  8
0
 10
51.52684435961459
 20
-21.169203509969257
 30
0.0
 11
50.311360232138945
 21
-20.877487319375103
 31
0.0
  0
LINE
  8
0
 10
51.52684435961459
 20
-19.969203509969255
 30
0.0
 11
50.311360232138945
 21
-20.26091970056341
 31
0.0
  0
LINE
  8
0
 10
50.311360232138945
 20
-20.877487319375103
 30
0.0
 11
50.311360232138945
 21
-20.26091970056341
 31
0.0
  0
LINE
  8
0
 10
51.32762803322396
 20
-19.421861151624295
 30
0.0
 11
50.20900161881304
 21
-19.979691721763807
 31
0.0
  0
LINE
  8
0
 10
50.55628290160011
 20
-18.502607819881522
 30
0.0
 11
49.81267959290695
 21
-19.50737352356601
 31
0.0
  0
LINE
  8
0
 10
50.20900161881304
 20
-19.979691721763807
 30
0.0
 11
49.81267959290695
 21
-19.50737352356601
 31
0.0
  0
LINE
  8
0
 10
47.49740581762907
 20
-18.502607819881522
 30
0.0
 11
48.24100912632223
 21
-19.50737352356601
 31
0.0
  0
LINE
  8
0
 10
46.726060686005226
 20
-19.421861151624295
 30
0.0
 11
47.844687100416145
 21
-19.979691721763807
 31
0.0
  0
LINE
  8
0
 10
48.24100912632223
 20
-19.50737352356601
 30
0.0
 11
47.844687100416145
 21
-19.979691721763807
 31
0.0
  0
LINE
  8
0
 10
46.52684435961459
 20
-19.969203509969255
 30
0.0
 11
47.74232848709024
 21
-20.26091970056341
 31
0.0
  0
LINE
  8
0
 10
46.52684435961459
 20
-21.169203509969257
 30
0.0
 11
47.74232848709024
 21
-20.877487319375103
 31
0.0
  0
LINE
  8
0
 10
47.74232848709024
 20
-20.26091970056341
 30
0.0
 11
47.74232848709024
 21
-20.877487319375103
 31
0.0
  0
LINE
  8
0
 10
47.49740581762907
 20
-22.63579920005699
 30
0.0
 11
42.89730893669961
 21
-26.495738796224657
 31
0.0
  0
LINE
  8
0
 10
26.814205853416667
 20
-39.991064661593555
 30
0.0
 11
31.41430273434613
 21
-36.131125065425884
 31
0.0
  0
POLYLINE
  8
0
 66
1
 10
0.0
 20
0.0
 30
0.0
 70
8
  0
VERTEX
  8
0
 10
42.89730893669961
 20
-26.495738796224657
 30
0.0
  0
VERTEX
  8
0
 10
44.063968448280676
 20
-27.886109460485603
 30
0.0
  0
VERTEX
  8
0
 10
39.21490712333755
 20
-31.954955029801397
 30
0.0
  0
VERTEX
  8
0
 10
38.04824761175648
 20
-30.56458436554045
 30
0.0
  0
VERTEX
  8
0
 10
36.26336405928926
 20
-32.06227949611009
 30
0.0
  0
SEQEND
  0
POLYLINE
  8
0
 66
1
 10
0.0
 20
0.0
 30
0.0
 70
8
  0
VERTEX
  8
0
 10
36.26336405928926
 20
-32.06227949611009
 30
0.0
  0
VERTEX
  8
0
 10
37.430023570870325
 20
-33.45265016037103
 30
0.0
  0
VERTEX
  8
0
 10
32.580962245927196
 20
-37.52149572968682
 30
0.0
  0
VERTEX
  8
0
 10
31.414302734346126
 20
-36.13112506542588
 30
0.0
  0
SEQEND
  0
LINE
  8
0
 10
46.726060686005226
 20
-21.716545868314217
 30
0.0
 11
42.12596380507576
 21
-25.576485464481884
 31
0.0
  0
LINE
  8
0
 10
26.04286072179282
 20
-39.071811329850775
 30
0.0
 11
30.642957602722284
 21
-35.211871733683104
 31
0.0
  0
POLYLINE
  8
0
 66
1
 10
0.0
 20
0.0
 30
0.0
 70
8
  0
VERTEX
  8
0
 10
42.12596380507576
 20
-25.576485464481884
 30
0.0
  0
VERTEX
  8
0
 10
40.9593042934947
 20
-24.18611480022094
 30
0.0
  0
VERTEX
  8
0
 10
36.11024296855157
 20
-28.254960369536732
 30
0.0
  0
VERTEX
  8
0
 10
37.276902480132634
 20
-29.645331033797678
 30
0.0
  0
VERTEX
  8
0
 10
35.49201892766541
 20
-31.143026164367313
 30
0.0
  0
SEQEND
  0
POLYLINE
  8
0
 66
1
 10
0.0
 20
0.0
 30
0.0
 70
8
  0
VERTEX
  8
0
 10
35.49201892766541
 20
-31.143026164367313
 30
0.0
  0
VERTEX
  8
0
 10
34.325359416084346
 20
-29.752655500106368
 30
0.0
  0
VERTEX
  8
0
 10
29.476298091141217
 20
-33.82150106942216
 30
0.0
  0
VERTEX
  8
0
 10
30.642957602722287
 20
-35.211871733683104
 30
0.0
  0
SEQEND
  0
LINE
  8
0
 10
46.726060686005226
 20
-21.716545868314217
 30
0.0
 11
47.844687100416145
 21
-21.158715298174705
 31
0.0
  0
LINE
  8
0
 10
47.49740581762907
 20
-22.63579920005699
 30
0.0
 11
48.24100912632223
 21
-21.631033496372503
 31
0.0
  0
LINE
  8
0
 10
47.844687100416145
 20
-21.158715298174705
 30
0.0
 11
48.24100912632223
 21
-21.631033496372503
 31
0.0
  0
LINE
  8
0
 10
51.32762803322396
 20
-21.716545868314217
 30
0.0
 11
55.92772491415342
 21
-25.576485464481884
 31
0.0
  0
LINE
  8
0
 10
72.01082799743638
 20
-39.071811329850775
 30
0.0
 11
67.41073111650692
 21
-35.211871733683104
 31
0.0
  0
POLYLINE
  8
0
 66
1
 10
0.0
 20
0.0
 30
0.0
 70
8
  0
VERTEX
  8
0
 10
55.92772491415342
 20
-25.576485464481884
 30
0.0
  0
VERTEX
  8
0
 10
57.09438442573449
 20
-24.18611480022094
 30
0.0
  0
VERTEX
  8
0
 10
61.94344575067762
 20
-28.254960369536732
 30
0.0
  0
VERTEX
  8
0
 10
60.77678623909655
 20
-29.645331033797678
 30
0.0
  0
VERTEX
  8
0
 10
62.56166979156377
 20
-31.143026164367313
 30
0.0
  0
SEQEND
  0
POLYLINE
  8
0
 66
1
 10
0.0
 20
0.0
 30
0.0
 70
8
  0
VERTEX
  8
0
 10
62.56166979156377
 20
-31.143026164367313
 30
0.0
  0
VERTEX
  8
0
 10
63.72832930314484
 20
-29.752655500106368
 30
0.0
  0
VERTEX
  8
0
 10
68.57739062808797
 20
-33.82150106942216
 30
0.0
  0
VERTEX
  8
0
 10
67.4107311165069
 20
-35.211871733683104
 30
0.0
  0
SEQEND
  0
LINE
  8
0
 10
50.55628290160011
 20
-22.63579920005699
 30
0.0
 11
55.15637978252958
 21
-26.495738796224657
 31
0.0
  0
LINE
  8
0
 10
71.23948286581252
 20
-39.991064661593555
 30
0.0
 11
66.63938598488306
 21
-36.131125065425884
 31
0.0
  0
POLYLINE
  8
0
 66
1
 10
0.0
 20
0.0
 30
0.0
 70
8
  0
VERTEX
  8
0
 10
55.15637978252958
 20
-26.495738796224657
 30
0.0
  0
VERTEX
  8
0
 10
53.98972027094851
 20
-27.886109460485603
 30
0.0
  0
VERTEX
  8
0
 10
58.83878159589164
 20
-31.954955029801397
 30
0.0
  0
VERTEX
  8
0
 10
60.005441107472706
 20
-30.56458436554045
 30
0.0
  0
VERTEX
  8
0
 10
61.79032465993993
 20
-32.06227949611009
 30
0.0
  0
SEQEND
  0
POLYLINE
  8
0
 66
1
 10
0.0
 20
0.0
 30
0.0
 70
8
  0
VERTEX
  8
0
 10
61.79032465993993
 20
-32.06227949611009
 30
0.0
  0
VERTEX
  8
0
 10
60.62366514835886
 20
-33.45265016037103
 30
0.0
  0
VERTEX
  8
0
 10
65.47272647330199
 20
-37.52149572968682
 30
0.0
  0
VERTEX
  8
0
 10
66.63938598488306
 20
-36.13112506542588
 30
0.0
  0
SEQEND
  0
LINE
  8
0
 10
50.55628290160011
 20
-22.63579920005699
 30
0.0
 11
49.81267959290695
 21
-21.631033496372503
 31
0.0
  0
LINE
  8
0
 10
51.32762803322396
 20
-21.716545868314217
 30
0.0
 11
50.20900161881304
 21
-21.158715298174705
 31
0.0
  0
LINE
  8
0
 10
49.81267959290695
 20
-21.631033496372503
 30
0.0
 11
50.20900161881304
 21
-21.158715298174705
 31
0.0
  0
LINE
  8
0
 10
100.55368871922919
 20
-19.969203509969255
 30
0.0
 11
115.07211089903649
 21
-19.969203509969255
 31
0.0
  0
LINE
  8
0
 10
144.58053307884379
 20
-19.969203509969255
 30
0.0
 11
130.0621108990365
 21
-19.969203509969258
 31
0.0
  0
POLYLINE
  8
0
 66
1
 10
0.0
 20
0.0
 30
0.0
 70
8
  0
VERTEX
  8
0
 10
115.07211089903649
 20
-19.969203509969255
 30
0.0
  0
VERTEX
  8
0
 10
115.07211089903649
 20
-18.154203509969253
 30
0.0
  0
VERTEX
  8
0
 10
121.40211089903649
 20
-18.154203509969253
 30
0.0
  0
VERTEX
  8
0
 10
121.40211089903649
 20
-19.969203509969255
 30
0.0
  0
VERTEX
  8
0
 10
123.73211089903648
 20
-19.969203509969255
 30
0.0
  0
SEQEND
  0
POLYLINE
  8
0
 66
1
 10
0.0
 20
0.0
 30
0.0
 70
8
  0
VERTEX
  8
0
 10
123.73211089903648
 20
-19.969203509969255
 30
0.0
  0
VERTEX
  8
0
 10
123.73211089903648
 20
-18.154203509969253
 30
0.0
  0
VERTEX
  8
0
 10
130.0621108990365
 20
-18.154203509969253
 30
0.0
  0
VERTEX
  8
0
 10
130.0621108990365
 20
-19.969203509969255
 30
0.0
  0
SEQEND
  0
LINE
  8
0
 10
100.55368871922919
 20
-21.169203509969257
 30
0.0
 11
115.07211089903649
 21
-21.169203509969257
 31
0.0
  0
LINE
  8
0
 10
144.58053307884379
 20
-21.169203509969257
 30
0.0
 11
130.0621108990365
 21
-21.16920350996926
 31
0.0
  0
POLYLINE
  8
0
 66
1
 10
0.0
 20
0.0
 30
0.0
 70
8
  0
VERTEX
  8
0
 10
115.07211089903649
 20
-21.169203509969257
 30
0.0
  0
VERTEX
  8
0
 10
115.07211089903649
 20
-22.98420350996926
 30
0.0
  0
VERTEX
  8
0
 10
121.40211089903649
 20
-22.98420350996926
 30
0.0
  0
VERTEX
  8
0
 10
121.40211089903649
 20
-21.169203509969257
 30
0.0
  0
VERTEX
  8
0
 10
123.73211089903648
 20
-21.169203509969257
 30
0.0
  0
SEQEND
  0
POLYLINE
  8
0
 66
1
 10
0.0
 20
0.0
 30
0.0
 70
8
  0
VERTEX
  8
0
 10
123.73211089903648
 20
-21.169203509969257
 30
0.0
  0
VERTEX
  8
0
 10
123.73211089903648
 20
-22.98420350996926
 30
0.0
  0
VERTEX
  8
0
 10
130.0621108990365
 20
-22.98420350996926
 30
0.0
  0
VERTEX
  8
0
 10
130.0621108990365
 20
-21.169203509969257
 30
0.0
  0
SEQEND
  0
LINE
  8
0
 10
100.55368871922919
 20
-21.169203509969257
 30
0.0
 11
99.33820459175354
 21
-20.877487319375103
 31
0.0
  0
LINE
  8
0
 10
100.55368871922919
 20
-19.969203509969255
 30
0.0
 11
99.33820459175354
 21
-20.26091970056341
 31
0.0
  0
LINE
  8
0
 10
99.33820459175354
 20
-20.877487319375103
 30
0.0
 11
99.33820459175354
 21
-20.26091970056341
 31
0.0
  0
LINE
  8
0
 10
100.35447239283856
 20
-19.421861151624295
 30
0.0
 11
99.23584597842763
 21
-19.979691721763803
 31
0.0
  0
LINE
  8
0
 10
99.5831272612147
 20
-18.502607819881522
 30
0.0
 11
98.83952395252155
 21
-19.507373523566013
 31
0.0
  0
LINE
  8
0
 10
99.23584597842763
 20
-19.979691721763803
 30
0.0
 11
98.83952395252155
 21
-19.507373523566013
 31
0.0
  0
LINE
  8
0
 10
96.52425017724367
 20
-18.502607819881522
 30
0.0
 11
97.26785348593683
 21
-19.507373523566013
 31
0.0
  0
LINE
  8
0
 10
95.75290504561981
 20
-19.421861151624295
 30
0.0
 11
96.87153146003074
 21
-19.979691721763803
 31
0.0
  0
LINE
  8
0
 10
97.26785348593683
 20
-19.507373523566013
 30
0.0
 11
96.87153146003074
 21
-19.979691721763803
 31
0.0
  0
LINE
  8
0
 10
95.55368871922919
 20
-19.969203509969255
 30
0.0
 11
96.76917284670483
 21
-20.26091970056341
 31
0.0
  0
LINE
  8
0
 10
95.55368871922919
 20
-21.169203509969257
 30
0.0
 11
96.76917284670483
 21
-20.877487319375103
 31
0.0
  0
LINE
  8
0
 10
96.76917284670483
 20
-20.26091970056341
 30
0.0
 11
96.76917284670483
 21
-20.877487319375103
 31
0.0
  0
LINE
  8
0
 10
96.52425017724367
 20
-22.63579920005699
 30
0.0
 11
91.92415329631422
 21
-26.495738796224657
 31
0.0
  0
LINE
  8
0
 10
75.84105021303127
 20
-39.991064661593555
 30
0.0
 11
80.44114709396072
 21
-36.131125065425884
 31
0.0
  0
POLYLINE
  8
0
 66
1
 10
0.0
 20
0.0
 30
0.0
 70
8
  0
VERTEX
  8
0
 10
91.92415329631422
 20
-26.495738796224657
 30
0.0
  0
VERTEX
  8
0
 10
93.09081280789529
 20
-27.886109460485603
 30
0.0
  0
VERTEX
  8
0
 10
88.24175148295215
 20
-31.954955029801397
 30
0.0
  0
VERTEX
  8
0
 10
87.07509197137108
 20
-30.56458436554045
 30
0.0
  0
VERTEX
  8
0
 10
85.29020841890386
 20
-32.06227949611009
 30
0.0
  0
SEQEND
  0
POLYLINE
  8
0
 66
1
 10
0.0
 20
0.0
 30
0.0
 70
8
  0
VERTEX
  8
0
 10
85.29020841890386
 20
-32.06227949611009
 30
0.0
  0
VERTEX
  8
0
 10
86.45686793048493
 20
-33.45265016037103
 30
0.0
  0
VERTEX
  8
0
 10
81.6078066055418
 20
-37.52149572968682
 30
0.0
  0
VERTEX
  8
0
 10
80.44114709396072
 20
-36.13112506542588
 30
0.0
  0
SEQEND
  0
LINE
  8
0
 10
95.75290504561981
 20
-21.716545868314217
 30
0.0
 11
91.15280816469036
 21
-25.576485464481884
 31
0.0
  0
LINE
  8
0
 10
75.0697050814074
 20
-39.071811329850775
 30
0.0
 11
79.66980196233686
 21
-35.211871733683104
 31
0.0
  0
POLYLINE
  8
0
 66
1
 10
0.0
 20
0.0
 30
0.0
 70
8
  0
VERTEX
  8
0
 10
91.15280816469036
 20
-25.576485464481884
 30
0.0
  0
VERTEX
  8
0
 10
89.98614865310928
 20
-24.18611480022094
 30
0.0
  0
VERTEX
  8
0
 10
85.13708732816615
 20
-28.254960369536732
 30
0.0
  0
VERTEX
  8
0
 10
86.30374683974722
 20
-29.645331033797678
 30
0.0
  0
VERTEX
  8
0
 10
84.51886328728
 20
-31.143026164367313
 30
0.0
  0
SEQEND
  0
POLYLINE
  8
0
 66
1
 10
0.0
 20
0.0
 30
0.0
 70
8
  0
VERTEX
  8
0
 10
84.51886328728
 20
-31.143026164367313
 30
0.0
  0
VERTEX
  8
0
 10
83.35220377569892
 20
-29.752655500106368
 30
0.0
  0
VERTEX
  8
0
 10
78.50314245075579
 20
-33.82150106942216
 30
0.0
  0
VERTEX
  8
0
 10
79.66980196233686
 20
-35.211871733683104
 30
0.0
  0
SEQEND
  0
LINE
  8
0
 10
95.75290504561981
 20
-21.716545868314217
 30
0.0
 11
96.87153146003074
 21
-21.15871529817471
 31
0.0
  0
LINE
  8
0
 10
96.52425017724367
 20
-22.63579920005699
 30
0.0
 11
97.26785348593683
 21
-21.6310334963725
 31
0.0
  0
LINE
  8
0
 10
96.87153146003074
 20
-21.15871529817471
 30
0.0
 11
97.26785348593683
 21
-21.6310334963725
 31
0.0
  0
LINE
  8
0
 10
100.35447239283856
 20
-21.716545868314217
 30
0.0
 11
104.95456927376802
 21
-25.576485464481884
 31
0.0
  0
LINE
  8
0
 10
121.03767235705097
 20
-39.071811329850775
 30
0.0
 11
116.43757547612151
 21
-35.211871733683104
 31
0.0
  0
POLYLINE
  8
0
 66
1
 10
0.0
 20
0.0
 30
0.0
 70
8
  0
VERTEX
  8
0
 10
104.95456927376802
 20
-25.576485464481884
 30
0.0
  0
VERTEX
  8
0
 10
106.12122878534909
 20
-24.18611480022094
 30
0.0
  0
VERTEX
  8
0
 10
110.97029011029223
 20
-28.254960369536732
 30
0.0
  0
VERTEX
  8
0
 10
109.80363059871115
 20
-29.645331033797678
 30
0.0
  0
VERTEX
  8
0
 10
111.58851415117837
 20
-31.143026164367313
 30
0.0
  0
SEQEND
  0
POLYLINE
  8
0
 66
1
 10
0.0
 20
0.0
 30
0.0
 70
8
  0
VERTEX
  8
0
 10
111.58851415117837
 20
-31.143026164367313
 30
0.0
  0
VERTEX
  8
0
 10
112.75517366275945
 20
-29.752655500106368
 30
0.0
  0
VERTEX
  8
0
 10
117.60423498770258
 20
-33.82150106942216
 30
0.0
  0
VERTEX
  8
0
 10
116.43757547612151
 20
-35.211871733683104
 30
0.0
  0
SEQEND
  0
LINE
  8
0
 10
99.5831272612147
 20
-22.63579920005699
 30
0.0
 11
104.18322414214416
 21
-26.495738796224657
 31
0.0
  0
LINE
  8
0
 10
120.2663272254271
 20
-39.991064661593555
 30
0.0
 11
115.66623034449765
 21
-36.131125065425884
 31
0.0
  0
POLYLINE
  8
0
 66
1
 10
0.0
 20
0.0
 30
0.0
 70
8
  0
VERTEX
  8
0
 10
104.18322414214416
 20
-26.495738796224657
 30
0.0
  0
VERTEX
  8
0
 10
103.01656463056308
 20
-27.886109460485603
 30
0.0
  0
VERTEX
  8
0
 10
107.86562595550622
 20
-31.954955029801397
 30
0.0
  0
VERTEX
  8
0
 10
109.03228546708729
 20
-30.56458436554045
 30
0.0
  0
VERTEX
  8
0
 10
110.81716901955451
 20
-32.06227949611009
 30
0.0
  0
SEQEND
  0
POLYLINE
  8
0
 66
1
 10
0.0
 20
0.0
 30
0.0
 70
8
  0
VERTEX
  8
0
 10
110.81716901955451
 20
-32.06227949611009
 30
0.0
  0
VERTEX
  8
0
 10
109.65050950797344
 20
-33.45265016037103
 30
0.0
  0
VERTEX
  8
0
 10
114.49957083291658
 20
-37.52149572968682
 30
0.0
  0
VERTEX
  8
0
 10
115.66623034449765
 20
-36.13112506542588
 30
0.0
  0
SEQEND
  0
LINE
  8
0
 10
99.5831272612147
 20
-22.63579920005699
 30
0.0
 11
98.83952395252155
 21
-21.6310334963725
 31
0.0
  0
LINE
  8
0
 10
100.35447239283856
 20
-21.716545868314217
 30
0.0
 11
99.23584597842763
 21
-21.15871529817471
 31
0.0
  0
LINE
  8
0
 10
98.83952395252155
 20
-21.6310334963725
 30
0.0
 11
99.23584597842763
 21
-21.15871529817471
 31
0.0
  0
LINE
  8
0
 10
27.013422179807296
 20
-40.53840701993851
 30
0.0
 11
41.531844359614595
 21
-40.53840701993851
 31
0.0
  0
LINE
  8
0
 10
71.04026653942189
 20
-40.53840701993851
 30
0.0
 11
56.5218443596146
 21
-40.53840701993851
 31
0.0
  0
POLYLINE
  8
0
 66
1
 10
0.0
 20
0.0
 30
0.0
 70
8
  0
VERTEX
  8
0
 10
41.531844359614595
 20
-40.53840701993851
 30
0.0
  0
VERTEX
  8
0
 10
41.531844359614595
 20
-38.72340701993851
 30
0.0
  0
VERTEX
  8
0
 10
47.861844359614594
 20
-38.72340701993851
 30
0.0
  0
VERTEX
  8
0
 10
47.861844359614594
 20
-40.53840701993851
 30
0.0
  0
VERTEX
  8
0
 10
50.19184435961459
 20
-40.53840701993851
 30
0.0
  0
SEQEND
  0
POLYLINE
  8
0
 66
1
 10
0.0
 20
0.0
 30
0.0
 70
8
  0
VERTEX
  8
0
 10
50.19184435961459
 20
-40.53840701993851
 30
0.0
  0
VERTEX
  8
0
 10
50.19184435961459
 20
-38.72340701993851
 30
0.0
  0
VERTEX
  8
0
 10
56.52184435961459
 20
-38.72340701993851
 30
0.0
  0
VERTEX
  8
0
 10
56.52184435961459
 20
-40.53840701993851
 30
0.0
  0
SEQEND
  0
LINE
  8
0
 10
27.013422179807296
 20
-41.73840701993851
 30
0.0
 11
41.531844359614595
 21
-41.73840701993851
 31
0.0
  0
LINE
  8
0
 10
71.04026653942189
 20
-41.73840701993851
 30
0.0
 11
56.5218443596146
 21
-41.73840701993851
 31
0.0
  0
POLYLINE
  8
0
 66
1
 10
0.0
 20
0.0
 30
0.0
 70
8
  0
VERTEX
  8
0
 10
41.531844359614595
 20
-41.73840701993851
 30
0.0
  0
VERTEX
  8
0
 10
41.531844359614595
 20
-43.55340701993851
 30
0.0
  0
VERTEX
  8
0
 10
47.861844359614594
 20
-43.55340701993851
 30
0.0
  0
VERTEX
  8
0
 10
47.861844359614594
 20
-41.73840701993851
 30
0.0
  0
VERTEX
  8
0
 10
50.19184435961459
 20
-41.73840701993851
 30
0.0
  0
SEQEND
  0
POLYLINE
  8
0
 66
1
 10
0.0
 20
0.0
 30
0.0
 70
8
  0
VERTEX
  8
0
 10
50.19184435961459
 20
-41.73840701993851
 30
0.0
  0
VERTEX
  8
0
 10
50.19184435961459
 20
-43.55340701993851
 30
0.0
  0
VERTEX
  8
0
 10
56.52184435961459
 20
-43.55340701993851
 30
0.0
  0
VERTEX
  8
0
 10
56.52184435961459
 20
-41.73840701993851
 30
0.0
  0
SEQEND
  0
LINE
  8
0
 10
27.013422179807296
 20
-41.73840701993851
 30
0.0
 11
25.79793805233165
 21
-41.446690829344355
 31
0.0
  0
LINE
  8
0
 10
27.013422179807296
 20
-40.53840701993851
 30
0.0
 11
25.79793805233165
 21
-40.83012321053267
 31
0.0
  0
LINE
  8
0
 10
25.79793805233165
 20
-41.446690829344355
 30
0.0
 11
25.79793805233165
 21
-40.83012321053267
 31
0.0
  0
LINE
  8
0
 10
26.814205853416663
 20
-39.991064661593555
 30
0.0
 11
25.695579439005744
 21
-40.54889523173306
 31
0.0
  0
LINE
  8
0
 10
26.042860721792817
 20
-39.071811329850775
 30
0.0
 11
25.29925741309966
 21
-40.076577033535266
 31
0.0
  0
LINE
  8
0
 10
25.695579439005744
 20
-40.54889523173306
 30
0.0
 11
25.29925741309966
 21
-40.076577033535266
 31
0.0
  0
LINE
  8
0
 10
22.983983637821776
 20
-39.071811329850775
 30
0.0
 11
23.727586946514933
 21
-40.076577033535266
 31
0.0
  0
LINE
  8
0
 10
22.21263850619793
 20
-39.991064661593555
 30
0.0
 11
23.33126492060885
 21
-40.54889523173306
 31
0.0
  0
LINE
  8
0
 10
23.727586946514933
 20
-40.076577033535266
 30
0.0
 11
23.33126492060885
 21
-40.54889523173306
 31
0.0
  0
LINE
  8
0
 10
22.013422179807296
 20
-41.73840701993851
 30
0.0
 11
7.495000000000001
 21
-41.73840701993851
 31
0.0
  0
LINE
  8
0
 10
-22.013422179807296
 20
-41.738407019938506
 30
0.0
 11
-7.495000000000001
 21
-41.738407019938506
 31
0.0
  0
POLYLINE
  8
0
 66
1
 10
0.0
 20
0.0
 30
0.0
 70
8
  0
VERTEX
  8
0
 10
7.495000000000001
 20
-41.73840701993851
 30
0.0
  0
VERTEX
  8
0
 10
7.495000000000001
 20
-43.55340701993851
 30
0.0
  0
VERTEX
  8
0
 10
1.165000000000001
 20
-43.55340701993851
 30
0.0
  0
VERTEX
  8
0
 10
1.1650000000000016
 20
-41.73840701993851
 30
0.0
  0
VERTEX
  8
0
 10
-1.1649999999999985
 20
-41.73840701993851
 30
0.0
  0
SEQEND
  0
POLYLINE
  8
0
 66
1
 10
0.0
 20
0.0
 30
0.0
 70
8
  0
VERTEX
  8
0
 10
-1.1649999999999985
 20
-41.73840701993851
 30
0.0
  0
VERTEX
  8
0
 10
-1.164999999999999
 20
-43.55340701993851
 30
0.0
  0
VERTEX
  8
0
 10
-7.494999999999999
 20
-43.55340701993851
 30
0.0
  0
VERTEX
  8
0
 10
-7.494999999999998
 20
-41.73840701993851
 30
0.0
  0
SEQEND
  0
LINE
  8
0
 10
22.013422179807296
 20
-40.53840701993851
 30
0.0
 11
7.495000000000001
 21
-40.53840701993851
 31
0.0
  0
LINE
  8
0
 10
-22.013422179807296
 20
-40.538407019938504
 30
0.0
 11
-7.495000000000001
 21
-40.538407019938504
 31
0.0
  0
POLYLINE
  8
0
 66
1
 10
0.0
 20
0.0
 30
0.0
 70
8
  0
VERTEX
  8
0
 10
7.495000000000001
 20
-40.53840701993851
 30
0.0
  0
VERTEX
  8
0
 10
7.495000000000001
 20
-38.72340701993851
 30
0.0
  0
VERTEX
  8
0
 10
1.165000000000001
 20
-38.72340701993851
 30
0.0
  0
VERTEX
  8
0
 10
1.1650000000000005
 20
-40.53840701993851
 30
0.0
  0
VERTEX
  8
0
 10
-1.1649999999999996
 20
-40.53840701993851
 30
0.0
  0
SEQEND
  0
POLYLINE
  8
0
 66
1
 10
0.0
 20
0.0
 30
0.0
 70
8
  0
VERTEX
  8
0
 10
-1.1649999999999996
 20
-40.53840701993851
 30
0.0
  0
VERTEX
  8
0
 10
-1.1649999999999994
 20
-38.72340701993851
 30
0.0
  0
VERTEX
  8
0
 10
-7.494999999999999
 20
-38.72340701993851
 30
0.0
  0
VERTEX
  8
0
 10
-7.494999999999999
 20
-40.53840701993851
 30
0.0
  0
SEQEND
  0
LINE
  8
0
 10
22.013422179807296
 20
-40.53840701993851
 30
0.0
 11
23.228906307282944
 21
-40.83012321053267
 31
0.0
  0
LINE
  8
0
 10
22.013422179807296
 20
-41.73840701993851
 30
0.0
 11
23.228906307282944
 21
-41.446690829344355
 31
0.0
  0
LINE
  8
0
 10
23.228906307282944
 20
-40.83012321053267
 30
0.0
 11
23.228906307282944
 21
-41.446690829344355
 31
0.0
  0
LINE
  8
0
 10
22.983983637821776
 20
-43.20500271002625
 30
0.0
 11
18.383886756892313
 21
-47.06494230619392
 31
0.0
  0
LINE
  8
0
 10
2.3007836736093705
 20
-60.56026817156281
 30
0.0
 11
6.900880554538833
 21
-56.70032857539514
 31
0.0
  0
POLYLINE
  8
0
 66
1
 10
0.0
 20
0.0
 30
0.0
 70
8
  0
VERTEX
  8
0
 10
18.383886756892313
 20
-47.06494230619392
 30
0.0
  0
VERTEX
  8
0
 10
19.550546268473383
 20
-48.45531297045486
 30
0.0
  0
VERTEX
  8
0
 10
14.701484943530252
 20
-52.52415853977065
 30
0.0
  0
VERTEX
  8
0
 10
13.534825431949182
 20
-51.13378787550971
 30
0.0
  0
VERTEX
  8
0
 10
11.749941879481963
 20
-52.63148300607935
 30
0.0
  0
SEQEND
  0
POLYLINE
  8
0
 66
1
 10
0.0
 20
0.0
 30
0.0
 70
8
  0
VERTEX
  8
0
 10
11.749941879481963
 20
-52.63148300607935
 30
0.0
  0
VERTEX
  8
0
 10
12.91660139106303
 20
-54.02185367034029
 30
0.0
  0
VERTEX
  8
0
 10
8.0675400661199
 20
-58.09069923965608
 30
0.0
  0
VERTEX
  8
0
 10
6.90088055453883
 20
-56.70032857539514
 30
0.0
  0
SEQEND
  0
LINE
  8
0
 10
22.21263850619793
 20
-42.28574937828347
 30
0.0
 11
17.612541625268467
 21
-46.14568897445114
 31
0.0
  0
LINE
  8
0
 10
1.5294385419855234
 20
-59.64101483982003
 30
0.0
 11
6.129535422914985
 21
-55.78107524365236
 31
0.0
  0
POLYLINE
  8
0
 66
1
 10
0.0
 20
0.0
 30
0.0
 70
8
  0
VERTEX
  8
0
 10
17.612541625268467
 20
-46.14568897445114
 30
0.0
  0
VERTEX
  8
0
 10
16.445882113687396
 20
-44.7553183101902
 30
0.0
  0
VERTEX
  8
0
 10
11.596820788744266
 20
-48.82416387950599
 30
0.0
  0
VERTEX
  8
0
 10
12.763480300325334
 20
-50.21453454376693
 30
0.0
  0
VERTEX
  8
0
 10
10.978596747858115
 20
-51.71222967433657
 30
0.0
  0
SEQEND
  0
POLYLINE
  8
0
 66
1
 10
0.0
 20
0.0
 30
0.0
 70
8
  0
VERTEX
  8
0
 10
10.978596747858115
 20
-51.71222967433657
 30
0.0
  0
VERTEX
  8
0
 10
9.811937236277046
 20
-50.32185901007563
 30
0.0
  0
VERTEX
  8
0
 10
4.962875911333915
 20
-54.39070457939142
 30
0.0
  0
VERTEX
  8
0
 10
6.129535422914984
 20
-55.78107524365236
 30
0.0
  0
SEQEND
  0
LINE
  8
0
 10
22.21263850619793
 20
-42.28574937828347
 30
0.0
 11
23.33126492060885
 21
-41.72791880814396
 31
0.0
  0
LINE
  8
0
 10
22.983983637821776
 20
-43.20500271002625
 30
0.0
 11
23.727586946514933
 21
-42.20023700634176
 31
0.0
  0
LINE
  8
0
 10
23.33126492060885
 20
-41.72791880814396
 30
0.0
 11
23.727586946514933
 21
-42.20023700634176
 31
0.0
  0
LINE
  8
0
 10
26.814205853416663
 20
-42.28574937828347
 30
0.0
 11
31.414302734346126
 21
-46.14568897445114
 31
0.0
  0
LINE
  8
0
 10
47.497405817629065
 20
-59.64101483982003
 30
0.0
 11
42.8973089366996
 21
-55.78107524365236
 31
0.0
  0
POLYLINE
  8
0
 66
1
 10
0.0
 20
0.0
 30
0.0
 70
8
  0
VERTEX
  8
0
 10
31.414302734346126
 20
-46.14568897445114
 30
0.0
  0
VERTEX
  8
0
 10
32.580962245927196
 20
-44.7553183101902
 30
0.0
  0
VERTEX
  8
0
 10
37.430023570870325
 20
-48.82416387950599
 30
0.0
  0
VERTEX
  8
0
 10
36.26336405928926
 20
-50.21453454376693
 30
0.0
  0
VERTEX
  8
0
 10
38.04824761175648
 20
-51.71222967433657
 30
0.0
  0
SEQEND
  0
POLYLINE
  8
0
 66
1
 10
0.0
 20
0.0
 30
0.0
 70
8
  0
VERTEX
  8
0
 10
38.04824761175648
 20
-51.71222967433657
 30
0.0
  0
VERTEX
  8
0
 10
39.21490712333755
 20
-50.32185901007563
 30
0.0
  0
VERTEX
  8
0
 10
44.063968448280676
 20
-54.39070457939142
 30
0.0
  0
VERTEX
  8
0
 10
42.89730893669961
 20
-55.78107524365236
 30
0.0
  0
SEQEND
  0
LINE
  8
0
 10
26.042860721792817
 20
-43.20500271002625
 30
0.0
 11
30.64295760272228
 21
-47.06494230619392
 31
0.0
  0
LINE
  8
0
 10
46.72606068600522
 20
-60.56026817156281
 30
0.0
 11
42.125963805075756
 21
-56.70032857539514
 31
0.0
  0
POLYLINE
  8
0
 66
1
 10
0.0
 20
0.0
 30
0.0
 70
8
  0
VERTEX
  8
0
 10
30.64295760272228
 20
-47.06494230619392
 30
0.0
  0
VERTEX
  8
0
 10
29.47629809114121
 20
-48.45531297045486
 30
0.0
  0
VERTEX
  8
0
 10
34.32535941608434
 20
-52.52415853977065
 30
0.0
  0
VERTEX
  8
0
 10
35.492018927665406
 20
-51.13378787550971
 30
0.0
  0
VERTEX
  8
0
 10
37.27690248013263
 20
-52.63148300607935
 30
0.0
  0
SEQEND
  0
POLYLINE
  8
0
 66
1
 10
0.0
 20
0.0
 30
0.0
 70
8
  0
VERTEX
  8
0
 10
37.27690248013263
 20
-52.63148300607935
 30
0.0
  0
VERTEX
  8
0
 10
36.11024296855156
 20
-54.02185367034029
 30
0.0
  0
VERTEX
  8
0
 10
40.95930429349469
 20
-58.09069923965608
 30
0.0
  0
VERTEX
  8
0
 10
42.125963805075756
 20
-56.70032857539514
 30
0.0
  0
SEQEND
  0
LINE
  8
0
 10
26.042860721792817
 20
-43.20500271002625
 30
0.0
 11
25.29925741309966
 21
-42.20023700634176
 31
0.0
  0
LINE
  8
0
 10
26.814205853416663
 20
-42.28574937828347
 30
0.0
 11
25.695579439005744
 21
-41.72791880814396
 31
0.0
  0
LINE
  8
0
 10
25.29925741309966
 20
-42.20023700634176
 30
0.0
 11
25.695579439005744
 21
-41.72791880814396
 31
0.0
  0
LINE
  8
0
 10
76.04026653942189
 20
-40.53840701993851
 30
0.0
 11
90.5586887192292
 21
-40.53840701993851
 31
0.0
  0
LINE
  8
0
 10
120.06711089903649
 20
-40.53840701993851
 30
0.0
 11
105.5486887192292
 21
-40.53840701993851
 31
0.0
  0
POLYLINE
  8
0
 66
1
 10
0.0
 20
0.0
 30
0.0
 70
8
  0
VERTEX
  8
0
 10
90.5586887192292
 20
-40.53840701993851
 30
0.0
  0
VERTEX
  8
0
 10
90.5586887192292
 20
-38.72340701993851
 30
0.0
  0
VERTEX
  8
0
 10
96.8886887192292
 20
-38.72340701993851
 30
0.0
  0
VERTEX
  8
0
 10
96.8886887192292
 20
-40.53840701993851
 30
0.0
  0
VERTEX
  8
0
 10
99.21868871922919
 20
-40.53840701993851
 30
0.0
  0
SEQEND
  0
POLYLINE
  8
0
 66
1
 10
0.0
 20
0.0
 30
0.0
 70
8
  0
VERTEX
  8
0
 10
99.21868871922919
 20
-40.53840701993851
 30
0.0
  0
VERTEX
  8
0
 10
99.21868871922919
 20
-38.72340701993851
 30
0.0
  0
VERTEX
  8
0
 10
105.54868871922919
 20
-38.72340701993851
 30
0.0
  0
VERTEX
  8
0
 10
105.54868871922919
 20
-40.53840701993851
 30
0.0
  0
SEQEND
  0
LINE
  8
0
 10
76.04026653942189
 20
-41.73840701993851
 30
0.0
 11
90.5586887192292
 21
-41.73840701993851
 31
0.0
  0
LINE
  8
0
 10
120.06711089903649
 20
-41.73840701993851
 30
0.0
 11
105.5486887192292
 21
-41.73840701993851
 31
0.0
  0
POLYLINE
  8
0
 66
1
 10
0.0
 20
0.0
 30
0.0
 70
8
  0
VERTEX
  8
0
 10
90.5586887192292
 20
-41.73840701993851
 30
0.0
  0
VERTEX
  8
0
 10
90.5586887192292
 20
-43.55340701993851
 30
0.0
  0
VERTEX
  8
0
 10
96.8886887192292
 20
-43.55340701993851
 30
0.0
  0
VERTEX
  8
0
 10
96.8886887192292
 20
-41.73840701993851
 30
0.0
  0
VERTEX
  8
0
 10
99.21868871922919
 20
-41.73840701993851
 30
0.0
  0
SEQEND
  0
POLYLINE
  8
0
 66
1
 10
0.0
 20
0.0
 30
0.0
 70
8
  0
VERTEX
  8
0
 10
99.21868871922919
 20
-41.73840701993851
 30
0.0
  0
VERTEX
  8
0
 10
99.21868871922919
 20
-43.55340701993851
 30
0.0
  0
VERTEX
  8
0
 10
105.54868871922919
 20
-43.55340701993851
 30
0.0
  0
VERTEX
  8
0
 10
105.54868871922919
 20
-41.73840701993851
 30
0.0
  0
SEQEND
  0
LINE
  8
0
 10
76.04026653942189
 20
-41.73840701993851
 30
0.0
 11
74.82478241194625
 21
-41.446690829344355
 31
0.0
  0
LINE
  8
0
 10
76.04026653942189
 20
-40.53840701993851
 30
0.0
 11
74.82478241194625
 21
-40.83012321053267
 31
0.0
  0
LINE
  8
0
 10
74.82478241194625
 20
-41.446690829344355
 30
0.0
 11
74.82478241194625
 21
-40.83012321053267
 31
0.0
  0
LINE
  8
0
 10
75.84105021303127
 20
-39.991064661593555
 30
0.0
 11
74.72242379862034
 21
-40.54889523173306
 31
0.0
  0
LINE
  8
0
 10
75.0697050814074
 20
-39.071811329850775
 30
0.0
 11
74.32610177271425
 21
-40.076577033535266
 31
0.0
  0
LINE
  8
0
 10
74.72242379862034
 20
-40.54889523173306
 30
0.0
 11
74.32610177271425
 21
-40.076577033535266
 31
0.0
  0
LINE
  8
0
 10
72.01082799743638
 20
-39.071811329850775
 30
0.0
 11
72.75443130612953
 21
-40.076577033535266
 31
0.0
  0
LINE
  8
0
 10
71.23948286581252
 20
-39.991064661593555
 30
0.0
 11
72.35810928022345
 21
-40.54889523173306
 31
0.0
  0
LINE
  8
0
 10
72.75443130612953
 20
-40.076577033535266
 30
0.0
 11
72.35810928022345
 21
-40.54889523173306
 31
0.0
  0
LINE
  8
0
 10
71.04026653942189
 20
-40.53840701993851
 30
0.0
 11
72.25575066689754
 21
-40.83012321053267
 31
0.0
  0
LINE
  8
0
 10
71.04026653942189
 20
-41.73840701993851
 30
0.0
 11
72.25575066689754
 21
-41.446690829344355
 31
0.0
  0
LINE
  8
0
 10
72.25575066689754
 20
-40.83012321053267
 30
0.0
 11
72.25575066689754
 21
-41.446690829344355
 31
0.0
  0
LINE
  8
0
 10
72.01082799743638
 20
-43.20500271002625
 30
0.0
 11
67.41073111650692
 21
-47.06494230619392
 31
0.0
  0
LINE
  8
0
 10
51.32762803322397
 20
-60.56026817156281
 30
0.0
 11
55.92772491415343
 21
-56.70032857539514
 31
0.0
  0
POLYLINE
  8
0
 66
1
 10
0.0
 20
0.0
 30
0.0
 70
8
  0
VERTEX
  8
0
 10
67.41073111650692
 20
-47.06494230619392
 30
0.0
  0
VERTEX
  8
0
 10
68.577390628088
 20
-48.45531297045486
 30
0.0
  0
VERTEX
  8
0
 10
63.72832930314487
 20
-52.52415853977065
 30
0.0
  0
VERTEX
  8
0
 10
62.5616697915638
 20
-51.13378787550971
 30
0.0
  0
VERTEX
  8
0
 10
60.77678623909658
 20
-52.63148300607935
 30
0.0
  0
SEQEND
  0
POLYLINE
  8
0
 66
1
 10
0.0
 20
0.0
 30
0.0
 70
8
  0
VERTEX
  8
0
 10
60.77678623909658
 20
-52.63148300607935
 30
0.0
  0
VERTEX
  8
0
 10
61.94344575067765
 20
-54.02185367034029
 30
0.0
  0
VERTEX
  8
0
 10
57.09438442573452
 20
-58.09069923965608
 30
0.0
  0
VERTEX
  8
0
 10
55.92772491415345
 20
-56.70032857539514
 30
0.0
  0
SEQEND
  0
LINE
  8
0
 10
71.23948286581252
 20
-42.28574937828347
 30
0.0
 11
66.63938598488306
 21
-46.14568897445114
 31
0.0
  0
LINE
  8
0
 10
50.55628290160012
 20
-59.64101483982003
 30
0.0
 11
55.156379782529584
 21
-55.78107524365236
 31
0.0
  0
POLYLINE
  8
0
 66
1
 10
0.0
 20
0.0
 30
0.0
 70
8
  0
VERTEX
  8
0
 10
66.63938598488306
 20
-46.14568897445114
 30
0.0
  0
VERTEX
  8
0
 10
65.47272647330199
 20
-44.7553183101902
 30
0.0
  0
VERTEX
  8
0
 10
60.62366514835886
 20
-48.82416387950599
 30
0.0
  0
VERTEX
  8
0
 10
61.79032465993993
 20
-50.21453454376693
 30
0.0
  0
VERTEX
  8
0
 10
60.005441107472706
 20
-51.71222967433657
 30
0.0
  0
SEQEND
  0
POLYLINE
  8
0
 66
1
 10
0.0
 20
0.0
 30
0.0
 70
8
  0
VERTEX
  8
0
 10
60.005441107472706
 20
-51.71222967433657
 30
0.0
  0
VERTEX
  8
0
 10
58.83878159589164
 20
-50.32185901007563
 30
0.0
  0
VERTEX
  8
0
 10
53.98972027094851
 20
-54.39070457939142
 30
0.0
  0
VERTEX
  8
0
 10
55.15637978252958
 20
-55.78107524365236
 30
0.0
  0
SEQEND
  0
LINE
  8
0
 10
71.23948286581252
 20
-42.28574937828347
 30
0.0
 11
72.35810928022345
 21
-41.72791880814396
 31
0.0
  0
LINE
  8
0
 10
72.01082799743638
 20
-43.20500271002625
 30
0.0
 11
72.75443130612953
 21
-42.20023700634176
 31
0.0
  0
LINE
  8
0
 10
72.35810928022345
 20
-41.72791880814396
 30
0.0
 11
72.75443130612953
 21
-42.20023700634176
 31
0.0
  0
LINE
  8
0
 10
75.84105021303127
 20
-42.28574937828347
 30
0.0
 11
80.44114709396072
 21
-46.14568897445114
 31
0.0
  0
LINE
  8
0
 10
96.52425017724367
 20
-59.64101483982003
 30
0.0
 11
91.92415329631422
 21
-55.78107524365236
 31
0.0
  0
POLYLINE
  8
0
 66
1
 10
0.0
 20
0.0
 30
0.0
 70
8
  0
VERTEX
  8
0
 10
80.44114709396072
 20
-46.14568897445114
 30
0.0
  0
VERTEX
  8
0
 10
81.6078066055418
 20
-44.7553183101902
 30
0.0
  0
VERTEX
  8
0
 10
86.45686793048493
 20
-48.82416387950599
 30
0.0
  0
VERTEX
  8
0
 10
85.29020841890386
 20
-50.21453454376693
 30
0.0
  0
VERTEX
  8
0
 10
87.07509197137108
 20
-51.71222967433657
 30
0.0
  0
SEQEND
  0
POLYLINE
  8
0
 66
1
 10
0.0
 20
0.0
 30
0.0
 70
8
  0
VERTEX
  8
0
 10
87.07509197137108
 20
-51.71222967433657
 30
0.0
  0
VERTEX
  8
0
 10
88.24175148295215
 20
-50.32185901007563
 30
0.0
  0
VERTEX
  8
0
 10
93.09081280789529
 20
-54.39070457939142
 30
0.0
  0
VERTEX
  8
0
 10
91.92415329631422
 20
-55.78107524365236
 30
0.0
  0
SEQEND
  0
LINE
  8
0
 10
75.0697050814074
 20
-43.20500271002625
 30
0.0
 11
79.66980196233686
 21
-47.06494230619392
 31
0.0
  0
LINE
  8
0
 10
95.75290504561981
 20
-60.56026817156281
 30
0.0
 11
91.15280816469036
 21
-56.70032857539514
 31
0.0
  0
POLYLINE
  8
0
 66
1
 10
0.0
 20
0.0
 30
0.0
 70
8
  0
VERTEX
  8
0
 10
79.66980196233686
 20
-47.06494230619392
 30
0.0
  0
VERTEX
  8
0
 10
78.50314245075579
 20
-48.45531297045486
 30
0.0
  0
VERTEX
  8
0
 10
83.35220377569892
 20
-52.52415853977065
 30
0.0
  0
VERTEX
  8
0
 10
84.51886328728
 20
-51.13378787550971
 30
0.0
  0
VERTEX
  8
0
 10
86.30374683974722
 20
-52.63148300607935
 30
0.0
  0
SEQEND
  0
POLYLINE
  8
0
 66
1
 10
0.0
 20
0.0
 30
0.0
 70
8
  0
VERTEX
  8
0
 10
86.30374683974722
 20
-52.63148300607935
 30
0.0
  0
VERTEX
  8
0
 10
85.13708732816615
 20
-54.02185367034029
 30
0.0
  0
VERTEX
  8
0
 10
89.98614865310928
 20
-58.09069923965608
 30
0.0
  0
VERTEX
  8
0
 10
91.15280816469036
 20
-56.70032857539514
 30
0.0
  0
SEQEND
  0
LINE
  8
0
 10
75.0697050814074
 20
-43.20500271002625
 30
0.0
 11
74.32610177271425
 21
-42.20023700634176
 31
0.0
  0
LINE
  8
0
 10
75.84105021303127
 20
-42.28574937828347
 30
0.0
 11
74.72242379862034
 21
-41.72791880814396
 31
0.0
  0
LINE
  8
0
 10
74.32610177271425
 20
-42.20023700634176
 30
0.0
 11
74.72242379862034
 21
-41.72791880814396
 31
0.0
  0
LINE
  8
0
 10
125.06711089903648
 20
-40.53840701993851
 30
0.0
 11
139.58553307884378
 21
-40.53840701993851
 31
0.0
  0
LINE
  8
0
 10
169.09395525865108
 20
-40.53840701993851
 30
0.0
 11
154.5755330788438
 21
-40.53840701993851
 31
0.0
  0
POLYLINE
  8
0
 66
1
 10
0.0
 20
0.0
 30
0.0
 70
8
  0
VERTEX
  8
0
 10
139.58553307884378
 20
-40.53840701993851
 30
0.0
  0
VERTEX
  8
0
 10
139.58553307884378
 20
-38.72340701993851
 30
0.0
  0
VERTEX
  8
0
 10
145.9155330788438
 20
-38.72340701993851
 30
0.0
  0
VERTEX
  8
0
 10
145.9155330788438
 20
-40.53840701993851
 30
0.0
  0
VERTEX
  8
0
 10
148.2455330788438
 20
-40.53840701993851
 30
0.0
  0
SEQEND
  0
POLYLINE
  8
0
 66
1
 10
0.0
 20
0.0
 30
0.0
 70
8
  0
VERTEX
  8
0
 10
148.2455330788438
 20
-40.53840701993851
 30
0.0
  0
VERTEX
  8
0
 10
148.2455330788438
 20
-38.72340701993851
 30
0.0
  0
VERTEX
  8
0
 10
154.57553307884382
 20
-38.72340701993851
 30
0.0
  0
VERTEX
  8
0
 10
154.57553307884382
 20
-40.53840701993851
 30
0.0
  0
SEQEND
  0
LINE
  8
0
 10
125.06711089903648
 20
-41.73840701993851
 30
0.0
 11
139.58553307884378
 21
-41.73840701993851
 31
0.0
  0
LINE
  8
0
 10
169.09395525865108
 20
-41.73840701993851
 30
0.0
 11
154.5755330788438
 21
-41.73840701993851
 31
0.0
  0
POLYLINE
  8
0
 66
1
 10
0.0
 20
0.0
 30
0.0
 70
8
  0
VERTEX
  8
0
 10
139.58553307884378
 20
-41.73840701993851
 30
0.0
  0
VERTEX
  8
0
 10
139.58553307884378
 20
-43.55340701993851
 30
0.0
  0
VERTEX
  8
0
 10
145.9155330788438
 20
-43.55340701993851
 30
0.0
  0
VERTEX
  8
0
 10
145.9155330788438
 20
-41.73840701993851
 30
0.0
  0
VERTEX
  8
0
 10
148.2455330788438
 20
-41.73840701993851
 30
0.0
  0
SEQEND
  0
POLYLINE
  8
0
 66
1
 10
0.0
 20
0.0
 30
0.0
 70
8
  0
VERTEX
  8
0
 10
148.2455330788438
 20
-41.73840701993851
 30
0.0
  0
VERTEX
  8
0
 10
148.2455330788438
 20
-43.55340701993851
 30
0.0
  0
VERTEX
  8
0
 10
154.57553307884382
 20
-43.55340701993851
 30
0.0
  0
VERTEX
  8
0
 10
154.57553307884382
 20
-41.73840701993851
 30
0.0
  0
SEQEND
  0
LINE
  8
0
 10
125.06711089903648
 20
-41.73840701993851
 30
0.0
 11
123.85162677156083
 21
-41.446690829344355
 31
0.0
  0
LINE
  8
0
 10
125.06711089903648
 20
-40.53840701993851
 30
0.0
 11
123.85162677156083
 21
-40.83012321053267
 31
0.0
  0
LINE
  8
0
 10
123.85162677156083
 20
-41.446690829344355
 30
0.0
 11
123.85162677156083
 21
-40.83012321053267
 31
0.0
  0
LINE
  8
0
 10
124.09654944102199
 20
-39.071811329850775
 30
0.0
 11
128.69664632195145
 21
-35.211871733683104
 31
0.0
  0
LINE
  8
0
 10
144.7797494052344
 20
-21.716545868314217
 30
0.0
 11
140.17965252430494
 21
-25.576485464481888
 31
0.0
  0
POLYLINE
  8
0
 66
1
 10
0.0
 20
0.0
 30
0.0
 70
8
  0
VERTEX
  8
0
 10
128.69664632195145
 20
-35.211871733683104
 30
0.0
  0
VERTEX
  8
0
 10
127.52998681037037
 20
-33.82150106942216
 30
0.0
  0
VERTEX
  8
0
 10
132.3790481353135
 20
-29.752655500106368
 30
0.0
  0
VERTEX
  8
0
 10
133.54570764689456
 20
-31.143026164367313
 30
0.0
  0
VERTEX
  8
0
 10
135.33059119936178
 20
-29.645331033797678
 30
0.0
  0
SEQEND
  0
POLYLINE
  8
0
 66
1
 10
0.0
 20
0.0
 30
0.0
 70
8
  0
VERTEX
  8
0
 10
135.33059119936178
 20
-29.645331033797678
 30
0.0
  0
VERTEX
  8
0
 10
134.16393168778072
 20
-28.254960369536732
 30
0.0
  0
VERTEX
  8
0
 10
139.01299301272385
 20
-24.18611480022094
 30
0.0
  0
VERTEX
  8
0
 10
140.1796525243049
 20
-25.576485464481884
 30
0.0
  0
SEQEND
  0
LINE
  8
0
 10
124.86789457264585
 20
-39.991064661593555
 30
0.0
 11
129.4679914535753
 21
-36.131125065425884
 31
0.0
  0
LINE
  8
0
 10
145.55109453685824
 20
-22.63579920005699
 30
0.0
 11
140.95099765592877
 21
-26.49573879622466
 31
0.0
  0
POLYLINE
  8
0
 66
1
 10
0.0
 20
0.0
 30
0.0
 70
8
  0
VERTEX
  8
0
 10
129.4679914535753
 20
-36.131125065425884
 30
0.0
  0
VERTEX
  8
0
 10
130.63465096515637
 20
-37.521495729686826
 30
0.0
  0
VERTEX
  8
0
 10
135.4837122900995
 20
-33.452650160371036
 30
0.0
  0
VERTEX
  8
0
 10
134.31705277851844
 20
-32.062279496110094
 30
0.0
  0
VERTEX
  8
0
 10
136.10193633098567
 20
-30.56458436554046
 30
0.0
  0
SEQEND
  0
POLYLINE
  8
0
 66
1
 10
0.0
 20
0.0
 30
0.0
 70
8
  0
VERTEX
  8
0
 10
136.10193633098567
 20
-30.56458436554046
 30
0.0
  0
VERTEX
  8
0
 10
137.26859584256673
 20
-31.954955029801404
 30
0.0
  0
VERTEX
  8
0
 10
142.11765716750986
 20
-27.88610946048561
 30
0.0
  0
VERTEX
  8
0
 10
140.9509976559288
 20
-26.495738796224664
 30
0.0
  0
SEQEND
  0
LINE
  8
0
 10
124.86789457264585
 20
-39.991064661593555
 30
0.0
 11
123.74926815823493
 21
-40.54889523173306
 31
0.0
  0
LINE
  8
0
 10
124.09654944102199
 20
-39.071811329850775
 30
0.0
 11
123.35294613232884
 21
-40.076577033535266
 31
0.0
  0
LINE
  8
0
 10
123.74926815823493
 20
-40.54889523173306
 30
0.0
 11
123.35294613232884
 21
-40.076577033535266
 31
0.0
  0
LINE
  8
0
 10
121.03767235705097
 20
-39.071811329850775
 30
0.0
 11
121.78127566574412
 21
-40.076577033535266
 31
0.0
  0
LINE
  8
0
 10
120.2663272254271
 20
-39.991064661593555
 30
0.0
 11
121.38495363983803
 21
-40.54889523173306
 31
0.0
  0
LINE
  8
0
 10
121.78127566574412
 20
-40.076577033535266
 30
0.0
 11
121.38495363983803
 21
-40.54889523173306
 31
0.0
  0
LINE
  8
0
 10
120.06711089903648
 20
-40.53840701993851
 30
0.0
 11
121.28259502651213
 21
-40.83012321053267
 31
0.0
  0
LINE
  8
0
 10
120.06711089903648
 20
-41.73840701993851
 30
0.0
 11
121.28259502651213
 21
-41.446690829344355
 31
0.0
  0
LINE
  8
0
 10
121.28259502651213
 20
-40.83012321053267
 30
0.0
 11
121.28259502651213
 21
-41.446690829344355
 31
0.0
  0
LINE
  8
0
 10
121.03767235705097
 20
-43.20500271002625
 30
0.0
 11
116.43757547612151
 21
-47.06494230619392
 31
0.0
  0
LINE
  8
0
 10
100.35447239283856
 20
-60.56026817156281
 30
0.0
 11
104.95456927376802
 21
-56.70032857539514
 31
0.0
  0
POLYLINE
  8
0
 66
1
 10
0.0
 20
0.0
 30
0.0
 70
8
  0
VERTEX
  8
0
 10
116.43757547612151
 20
-47.06494230619392
 30
0.0
  0
VERTEX
  8
0
 10
117.60423498770258
 20
-48.45531297045486
 30
0.0
  0
VERTEX
  8
0
 10
112.75517366275945
 20
-52.52415853977065
 30
0.0
  0
VERTEX
  8
0
 10
111.58851415117837
 20
-51.13378787550971
 30
0.0
  0
VERTEX
  8
0
 10
109.80363059871115
 20
-52.63148300607935
 30
0.0
  0
SEQEND
  0
POLYLINE
  8
0
 66
1
 10
0.0
 20
0.0
 30
0.0
 70
8
  0
VERTEX
  8
0
 10
109.80363059871115
 20
-52.63148300607935
 30
0.0
  0
VERTEX
  8
0
 10
110.97029011029223
 20
-54.02185367034029
 30
0.0
  0
VERTEX
  8
0
 10
106.12122878534909
 20
-58.09069923965608
 30
0.0
  0
VERTEX
  8
0
 10
104.95456927376802
 20
-56.70032857539514
 30
0.0
  0
SEQEND
  0
LINE
  8
0
 10
120.2663272254271
 20
-42.28574937828347
 30
0.0
 11
115.66623034449765
 21
-46.14568897445114
 31
0.0
  0
LINE
  8
0
 10
99.5831272612147
 20
-59.64101483982003
 30
0.0
 11
104.18322414214416
 21
-55.78107524365236
 31
0.0
  0
POLYLINE
  8
0
 66
1
 10
0.0
 20
0.0
 30
0.0
 70
8
  0
VERTEX
  8
0
 10
115.66623034449765
 20
-46.14568897445114
 30
0.0
  0
VERTEX
  8
0
 10
114.49957083291658
 20
-44.7553183101902
 30
0.0
  0
VERTEX
  8
0
 10
109.65050950797344
 20
-48.82416387950599
 30
0.0
  0
VERTEX
  8
0
 10
110.81716901955451
 20
-50.21453454376693
 30
0.0
  0
VERTEX
  8
0
 10
109.03228546708729
 20
-51.71222967433657
 30
0.0
  0
SEQEND
  0
POLYLINE
  8
0
 66
1
 10
0.0
 20
0.0
 30
0.0
 70
8
  0
VERTEX
  8
0
 10
109.03228546708729
 20
-51.71222967433657
 30
0.0
  0
VERTEX
  8
0
 10
107.86562595550622
 20
-50.32185901007563
 30
0.0
  0
VERTEX
  8
0
 10
103.01656463056308
 20
-54.39070457939142
 30
0.0
  0
VERTEX
  8
0
 10
104.18322414214416
 20
-55.78107524365236
 30
0.0
  0
SEQEND
  0
LINE
  8
0
 10
120.2663272254271
 20
-42.28574937828347
 30
0.0
 11
121.38495363983803
 21
-41.72791880814396
 31
0.0
  0
LINE
  8
0
 10
121.03767235705097
 20
-43.20500271002625
 30
0.0
 11
121.78127566574412
 21
-42.20023700634176
 31
0.0
  0
LINE
  8
0
 10
121.38495363983803
 20
-41.72791880814396
 30
0.0
 11
121.78127566574412
 21
-42.20023700634176
 31
0.0
  0
LINE
  8
0
 10
124.86789457264585
 20
-42.28574937828347
 30
0.0
 11
129.4679914535753
 21
-46.14568897445114
 31
0.0
  0
LINE
  8
0
 10
145.55109453685824
 20
-59.64101483982003
 30
0.0
 11
140.95099765592877
 21
-55.78107524365236
 31
0.0
  0
POLYLINE
  8
0
 66
1
 10
0.0
 20
0.0
 30
0.0
 70
8
  0
VERTEX
  8
0
 10
129.4679914535753
 20
-46.14568897445114
 30
0.0
  0
VERTEX
  8
0
 10
130.63465096515637
 20
-44.7553183101902
 30
0.0
  0
VERTEX
  8
0
 10
135.4837122900995
 20
-48.82416387950599
 30
0.0
  0
VERTEX
  8
0
 10
134.31705277851844
 20
-50.21453454376693
 30
0.0
  0
VERTEX
  8
0
 10
136.10193633098567
 20
-51.71222967433657
 30
0.0
  0
SEQEND
  0
POLYLINE
  8
0
 66
1
 10
0.0
 20
0.0
 30
0.0
 70
8
  0
VERTEX
  8
0
 10
136.10193633098567
 20
-51.71222967433657
 30
0.0
  0
VERTEX
  8
0
 10
137.26859584256673
 20
-50.32185901007563
 30
0.0
  0
VERTEX
  8
0
 10
142.11765716750986
 20
-54.39070457939142
 30
0.0
  0
VERTEX
  8
0
 10
140.9509976559288
 20
-55.78107524365236
 30
0.0
  0
SEQEND
  0
LINE
  8
0
 10
124.09654944102199
 20
-43.20500271002625
 30
0.0
 11
128.69664632195145
 21
-47.06494230619392
 31
0.0
  0
LINE
  8
0
 10
144.7797494052344
 20
-60.56026817156281
 30
0.0
 11
140.17965252430494
 21
-56.70032857539514
 31
0.0
  0
POLYLINE
  8
0
 66
1
 10
0.0
 20
0.0
 30
0.0
 70
8
  0
VERTEX
  8
0
 10
128.69664632195145
 20
-47.06494230619392
 30
0.0
  0
VERTEX
  8
0
 10
127.52998681037037
 20
-48.45531297045486
 30
0.0
  0
VERTEX
  8
0
 10
132.3790481353135
 20
-52.52415853977065
 30
0.0
  0
VERTEX
  8
0
 10
133.54570764689456
 20
-51.13378787550971
 30
0.0
  0
VERTEX
  8
0
 10
135.33059119936178
 20
-52.63148300607935
 30
0.0
  0
SEQEND
  0
POLYLINE
  8
0
 66
1
 10
0.0
 20
0.0
 30
0.0
 70
8
  0
VERTEX
  8
0
 10
135.33059119936178
 20
-52.63148300607935
 30
0.0
  0
VERTEX
  8
0
 10
134.16393168778072
 20
-54.02185367034029
 30
0.0
  0
VERTEX
  8
0
 10
139.01299301272385
 20
-58.09069923965608
 30
0.0
  0
VERTEX
  8
0
 10
140.1796525243049
 20
-56.70032857539514
 30
0.0
  0
SEQEND
  0
LINE
  8
0
 10
124.09654944102199
 20
-43.20500271002625
 30
0.0
 11
123.35294613232884
 21
-42.20023700634176
 31
0.0
  0
LINE
  8
0
 10
124.86789457264585
 20
-42.28574937828347
 30
0.0
 11
123.74926815823493
 21
-41.72791880814396
 31
0.0
  0
LINE
  8
0
 10
123.35294613232884
 20
-42.20023700634176
 30
0.0
 11
123.74926815823493
 21
-41.72791880814396
 31
0.0
  0
ENDSEC
  0
EOF
