  0
SECTION
  2
HEADER
  9
$ACADVER
  1
AC1009
  9
$INSBASE
 10
0.0
 20
0.0
 30
0.0
  9
$EXTMIN
 10
0.0
 20
0.0
 30
0.0
  9
$EXTMAX
 10
100.0
 20
100.0
 30
0.0
  9
$UNITMODE
 70
0
  9
$AUNITS
 70
0
  9
$ANGBASE
 50
0.0
  9
$ANGDIR
 70
0
  0
ENDSEC
  0
SECTION
  2
TABLES
  0
TABLE
  2
LTYPE
 70
19
  0
LTYPE
  2
CONTINUOUS
 70
0
  3
Solid
 72
65
 73
0
 40
0.0
  0
LTYPE
  2
CENTER
 70
0
  3
Center ____ _ ____ _ ____ _ ____ _ ____ _ ____
 72
65
 73
4
 40
2.0
 49
1.25
 49
-0.25
 49
0.25
 49
-0.25
  0
LTYPE
  2
CENTERX2
 70
0
  3
Center (2x) ________  __  ________  __  ________
 72
65
 73
4
 40
3.5
 49
2.5
 49
-0.25
 49
0.5
 49
-0.25
  0
LTYPE
  2
CENTER2
 70
0
  3
Center (.5x) ____ _ ____ _ ____ _ ____ _ ____
 72
65
 73
4
 40
1.0
 49
0.625
 49
-0.125
 49
0.125
 49
-0.125
  0
LTYPE
  2
DASHED
 70
0
  3
Dashed __ __ __ __ __ __ __ __ __ __ __ __ __ _
 72
65
 73
2
 40
0.6
 49
0.5
 49
-0.1
  0
LTYPE
  2
DASHEDX2
 70
0
  3
Dashed (2x) ____  ____  ____  ____  ____  ____
 72
65
 73
2
 40
1.2
 49
1.0
 49
-0.2
  0
LTYPE
  2
DASHED2
 70
0
  3
Dashed (.5x) _ _ _ _ _ _ _ _ _ _ _ _ _ _
 72
65
 73
2
 40
0.3
 49
0.25
 49
-0.05
  0
LTYPE
  2
PHANTOM
 70
0
  3
Phantom ______  __  __  ______  __  __  ______
 72
65
 73
6
 40
2.5
 49
1.25
 49
-0.25
 49
0.25
 49
-0.25
 49
0.25
 49
-0.25
  0
LTYPE
  2
PHANTOMX2
 70
0
  3
Phantom (2x)____________    ____    ____    ____________
 72
65
 73
6
 40
4.25
 49
2.5
 49
-0.25
 49
0.5
 49
-0.25
 49
0.5
 49
-0.25
  0
LTYPE
  2
PHANTOM2
 70
0
  3
Phantom (.5x) ___ _ _ ___ _ _ ___ _ _ ___ _ _ ___
 72
65
 73
6
 40
1.25
 49
0.625
 49
-0.125
 49
0.125
 49
-0.125
 49
0.125
 49
-0.125
  0
LTYPE
  2
DASHDOT
 70
0
  3
Dash dot __ . __ . __ . __ . __ . __ . __ . __
 72
65
 73
4
 40
1.4
 49
1.0
 49
-0.2
 49
0.0
 49
-0.2
  0
LTYPE
  2
DASHDOTX2
 70
0
  3
Dash dot (2x) ____  .  ____  .  ____  .  ____
 72
65
 73
4
 40
2.4
 49
2.0
 49
-0.2
 49
0.0
 49
-0.2
  0
LTYPE
  2
DASHDOT2
 70
0
  3
Dash dot (.5x) _ . _ . _ . _ . _ . _ . _ . _
 72
65
 73
4
 40
0.7
 49
0.5
 49
-0.1
 49
0.0
 49
-0.1
  0
LTYPE
  2
DOT
 70
0
  3
Dot .  .  .  .  .  .  .  .  .  .  .  .  .  .  .  .
 72
65
 73
2
 40
0.2
 49
0.0
 49
-0.2
  0
LTYPE
  2
DOTX2
 70
0
  3
Dot (2x) .    .    .    .    .    .    .    . 
 72
65
 73
2
 40
0.4
 49
0.0
 49
-0.4
  0
LTYPE
  2
DOT2
 70
0
  3
Dot (.5) . . . . . . . . . . . . . . . . . . . 
 72
65
 73
2
 40
0.1
 49
0.0
 49
-0.1
  0
LTYPE
  2
DIVIDE
 70
0
  3
Divide __ . . __ . . __ . . __ . . __ . . __
 72
65
 73
6
 40
1.6
 49
1.0
 49
-0.2
 49
0.0
 49
-0.2
 49
0.0
 49
-0.2
  0
LTYPE
  2
DIVIDEX2
 70
0
  3
Divide (2x) ____  . .  ____  . .  ____  . .  ____
 72
65
 73
6
 40
2.6
 49
2.0
 49
-0.2
 49
0.0
 49
-0.2
 49
0.0
 49
-0.2
  0
LTYPE
  2
DIVIDE2
 70
0
  3
Divide(.5x) _ . _ . _ . _ . _ . _ . _ . _
 72
65
 73
6
 40
0.8
 49
0.5
 49
-0.1
 49
0.0
 49
-0.1
 49
0.0
 49
-0.1
  0
ENDTAB
  0
TABLE
  2
LAYER
 70
5
  0
LAYER
  2
DIMENSIONS
 70
0
 62
1
  6
CONTINUOUS
  0
LAYER
  2
TABLEBACKGROUND
 70
0
 62
1
  6
CONTINUOUS
  0
LAYER
  2
TABLECONTENT
 70
0
 62
1
  6
CONTINUOUS
  0
LAYER
  2
TABLEGRID
 70
0
 62
1
  6
CONTINUOUS
  0
LAYER
  2
VIEWPORTS
 70
0
 62
7
  6
CONTINUOUS
  0
ENDTAB
  0
TABLE
  2
STYLE
 70
12
  0
STYLE
  2
STANDARD
 70
0
 40
0.0
 41
1.0
 42
1.0
 50
0.0
 71
0
  3
arial.ttf
  4

  0
STYLE
  2
ARIAL
 70
0
 40
0.0
 41
1.0
 42
1.0
 50
0.0
 71
0
  3
arial.ttf
  4

  0
STYLE
  2
ARIAL_BOLD
 70
0
 40
0.0
 41
1.0
 42
1.0
 50
0.0
 71
0
  3
arialbd.ttf
  4

  0
STYLE
  2
ARIAL_ITALIC
 70
0
 40
0.0
 41
1.0
 42
1.0
 50
0.0
 71
0
  3
ariali.ttf
  4

  0
STYLE
  2
ARIAL_BOLD_ITALIC
 70
0
 40
0.0
 41
1.0
 42
1.0
 50
0.0
 71
0
  3
arialbi.ttf
  4

  0
STYLE
  2
ARIAL_BLACK
 70
0
 40
0.0
 41
1.0
 42
1.0
 50
0.0
 71
0
  3
ariblk.ttf
  4

  0
STYLE
  2
ISOCPEUR
 70
0
 40
0.0
 41
1.0
 42
1.0
 50
0.0
 71
0
  3
isocpeur.ttf
  4

  0
STYLE
  2
ISOCPEUR_ITALIC
 70
0
 40
0.0
 41
1.0
 42
1.0
 50
0.0
 71
0
  3
isocpeui.ttf
  4

  0
STYLE
  2
TIMES
 70
0
 40
0.0
 41
1.0
 42
1.0
 50
0.0
 71
0
  3
times.ttf
  4

  0
STYLE
  2
TIMES_BOLD
 70
0
 40
0.0
 41
1.0
 42
1.0
 50
0.0
 71
0
  3
timesbd.ttf
  4

  0
STYLE
  2
TIMES_ITALIC
 70
0
 40
0.0
 41
1.0
 42
1.0
 50
0.0
 71
0
  3
timesi.ttf
  4

  0
STYLE
  2
TIMES_BOLD_ITALIC
 70
0
 40
0.0
 41
1.0
 42
1.0
 50
0.0
 71
0
  3
timesbi.ttf
  4

  0
ENDTAB
  0
TABLE
  2
VIEW
 70
0
  0
ENDTAB
  0
TABLE
  2
APPID
 70
1
  0
APPID
  2
DXFWRITE
 70
0
  0
ENDTAB
  0
TABLE
  2
VPORT
 70
0
  0
ENDTAB
  0
TABLE
  2
UCS
 70
0
  0
ENDTAB
  0
ENDSEC
  0
SECTION
  2
BLOCKS
  0
ENDSEC
  0
SECTION
  2
ENTITIES
  0
VIEWPORT
  8
VIEWPORTS
 67
1
 10
0.0
 20
0.0
 30
0.0
 40
1.0
 41
1.0
 68
1
 69
1
1001
ACAD
1000
MVIEW
1002
{
1070
16
1010
0.0
1020
0.0
1030
0.0
1010
0.0
1020
0.0
1030
0.0
1040
0.0
1040
1.0
1040
0.0
1040
0.0
1040
50.0
1040
0.0
1040
0.0
1070
0
1070
100
1070
1
1070
3
1070
0
1070
0
1070
0
1070
0
1040
0.0
1040
0.0
1040
0.0
1040
0.1
1040
0.1
1040
0.1
1040
0.1
1070
0
1002
{
1002
}
1002
}
  0
POLYLINE
  8
0
 66
1
 10
0.0
 20
0.0
 30
0.0
 70
8
  0
VERTEX
  8
0
 10
33.64340701993852
 20
-2.415
 30
0.0
  0
VERTEX
  8
0
 10
33.64340701993852
 20
2.415
 30
0.0
  0
VERTEX
  8
0
 10
39.97340701993852
 20
2.415
 30
0.0
  0
VERTEX
  8
0
 10
39.97340701993852
 20
-2.415
 30
0.0
  0
VERTEX
  8
0
 10
33.64340701993852
 20
-2.414999999999999
 30
0.0
  0
SEQEND
  0
POLYLINE
  8
0
 66
1
 10
0.0
 20
0.0
 30
0.0
 70
8
  0
VERTEX
  8
0
 10
42.30340701993852
 20
-2.415
 30
0.0
  0
VERTEX
  8
0
 10
42.30340701993852
 20
2.415
 30
0.0
  0
VERTEX
  8
0
 10
48.63340701993852
 20
2.415
 30
0.0
  0
VERTEX
  8
0
 10
48.63340701993852
 20
-2.415
 30
0.0
  0
VERTEX
  8
0
 10
42.30340701993852
 20
-2.414999999999999
 30
0.0
  0
SEQEND
  0
POLYLINE
  8
0
 66
1
 10
0.0
 20
0.0
 30
0.0
 70
8
  0
VERTEX
  8
0
 10
27.88610946048561
 20
4.962875911333915
 30
0.0
  0
VERTEX
  8
0
 10
24.186114800220945
 20
8.067540066119902
 30
0.0
  0
VERTEX
  8
0
 10
28.25496036953674
 20
12.916601391063033
 30
0.0
  0
VERTEX
  8
0
 10
31.954955029801404
 20
9.811937236277048
 30
0.0
  0
VERTEX
  8
0
 10
27.88610946048561
 20
4.962875911333918
 30
0.0
  0
SEQEND
  0
POLYLINE
  8
0
 66
1
 10
0.0
 20
0.0
 30
0.0
 70
8
  0
VERTEX
  8
0
 10
33.45265016037104
 20
11.596820788744264
 30
0.0
  0
VERTEX
  8
0
 10
29.75265550010638
 20
14.70148494353025
 30
0.0
  0
VERTEX
  8
0
 10
33.82150106942217
 20
19.550546268473383
 30
0.0
  0
VERTEX
  8
0
 10
37.52149572968683
 20
16.445882113687396
 30
0.0
  0
VERTEX
  8
0
 10
33.452650160371036
 20
11.596820788744267
 30
0.0
  0
SEQEND
  0
POLYLINE
  8
0
 66
1
 10
0.0
 20
0.0
 30
0.0
 70
8
  0
VERTEX
  8
0
 10
16.952292219717574
 20
8.0675400661199
 30
0.0
  0
VERTEX
  8
0
 10
13.25229755945291
 20
4.962875911333915
 30
0.0
  0
VERTEX
  8
0
 10
9.183451990137115
 20
9.811937236277046
 30
0.0
  0
VERTEX
  8
0
 10
12.88344665040178
 20
12.91660139106303
 30
0.0
  0
VERTEX
  8
0
 10
16.952292219717574
 20
8.0675400661199
 30
0.0
  0
SEQEND
  0
POLYLINE
  8
0
 66
1
 10
0.0
 20
0.0
 30
0.0
 70
8
  0
VERTEX
  8
0
 10
11.385751519832143
 20
14.70148494353025
 30
0.0
  0
VERTEX
  8
0
 10
7.685756859567478
 20
11.596820788744266
 30
0.0
  0
VERTEX
  8
0
 10
3.616911290251684
 20
16.445882113687396
 30
0.0
  0
VERTEX
  8
0
 10
7.3169059505163485
 20
19.550546268473383
 30
0.0
  0
VERTEX
  8
0
 10
11.38575151983214
 20
14.70148494353025
 30
0.0
  0
SEQEND
  0
POLYLINE
  8
0
 66
1
 10
0.0
 20
0.0
 30
0.0
 70
8
  0
VERTEX
  8
0
 10
7.495000000000001
 20
2.415000000000002
 30
0.0
  0
VERTEX
  8
0
 10
7.495
 20
-2.4149999999999983
 30
0.0
  0
VERTEX
  8
0
 10
1.165
 20
-2.4149999999999974
 30
0.0
  0
VERTEX
  8
0
 10
1.1650000000000003
 20
2.4150000000000027
 30
0.0
  0
VERTEX
  8
0
 10
7.495
 20
2.4150000000000014
 30
0.0
  0
SEQEND
  0
POLYLINE
  8
0
 66
1
 10
0.0
 20
0.0
 30
0.0
 70
8
  0
VERTEX
  8
0
 10
-1.1649999999999991
 20
2.4150000000000027
 30
0.0
  0
VERTEX
  8
0
 10
-1.165
 20
-2.4149999999999974
 30
0.0
  0
VERTEX
  8
0
 10
-7.495
 20
-2.4149999999999965
 30
0.0
  0
VERTEX
  8
0
 10
-7.495
 20
2.4150000000000036
 30
0.0
  0
VERTEX
  8
0
 10
-1.165
 20
2.4150000000000023
 30
0.0
  0
SEQEND
  0
POLYLINE
  8
0
 66
1
 10
0.0
 20
0.0
 30
0.0
 70
8
  0
VERTEX
  8
0
 10
13.25229755945291
 20
-4.962875911333914
 30
0.0
  0
VERTEX
  8
0
 10
16.95229221971757
 20
-8.0675400661199
 30
0.0
  0
VERTEX
  8
0
 10
12.883446650401776
 20
-12.916601391063029
 30
0.0
  0
VERTEX
  8
0
 10
9.183451990137113
 20
-9.811937236277043
 30
0.0
  0
VERTEX
  8
0
 10
13.25229755945291
 20
-4.962875911333914
 30
0.0
  0
SEQEND
  0
POLYLINE
  8
0
 66
1
 10
0.0
 20
0.0
 30
0.0
 70
8
  0
VERTEX
  8
0
 10
7.685756859567477
 20
-11.596820788744262
 30
0.0
  0
VERTEX
  8
0
 10
11.38575151983214
 20
-14.701484943530248
 30
0.0
  0
VERTEX
  8
0
 10
7.316905950516346
 20
-19.55054626847338
 30
0.0
  0
VERTEX
  8
0
 10
3.6169112902516827
 20
-16.445882113687393
 30
0.0
  0
VERTEX
  8
0
 10
7.685756859567478
 20
-11.596820788744264
 30
0.0
  0
SEQEND
  0
POLYLINE
  8
0
 66
1
 10
0.0
 20
0.0
 30
0.0
 70
8
  0
VERTEX
  8
0
 10
24.186114800220945
 20
-8.0675400661199
 30
0.0
  0
VERTEX
  8
0
 10
27.88610946048561
 20
-4.962875911333915
 30
0.0
  0
VERTEX
  8
0
 10
31.954955029801404
 20
-9.811937236277046
 30
0.0
  0
VERTEX
  8
0
 10
28.25496036953674
 20
-12.916601391063033
 30
0.0
  0
VERTEX
  8
0
 10
24.186114800220945
 20
-8.067540066119902
 30
0.0
  0
SEQEND
  0
POLYLINE
  8
0
 66
1
 10
0.0
 20
0.0
 30
0.0
 70
8
  0
VERTEX
  8
0
 10
29.75265550010638
 20
-14.70148494353025
 30
0.0
  0
VERTEX
  8
0
 10
33.45265016037104
 20
-11.596820788744266
 30
0.0
  0
VERTEX
  8
0
 10
37.52149572968683
 20
-16.445882113687396
 30
0.0
  0
VERTEX
  8
0
 10
33.82150106942217
 20
-19.550546268473383
 30
0.0
  0
VERTEX
  8
0
 10
29.752655500106375
 20
-14.701484943530252
 30
0.0
  0
SEQEND
  0
POLYLINE
  8
0
 66
1
 10
0.0
 20
0.0
 30
0.0
 70
8
  0
VERTEX
  8
0
 10
74.78181403987705
 20
-2.415
 30
0.0
  0
VERTEX
  8
0
 10
74.78181403987705
 20
2.415
 30
0.0
  0
VERTEX
  8
0
 10
81.11181403987705
 20
2.415
 30
0.0
  0
VERTEX
  8
0
 10
81.11181403987705
 20
-2.415
 30
0.0
  0
VERTEX
  8
0
 10
74.78181403987705
 20
-2.414999999999999
 30
0.0
  0
SEQEND
  0
POLYLINE
  8
0
 66
1
 10
0.0
 20
0.0
 30
0.0
 70
8
  0
VERTEX
  8
0
 10
83.44181403987704
 20
-2.415
 30
0.0
  0
VERTEX
  8
0
 10
83.44181403987704
 20
2.415
 30
0.0
  0
VERTEX
  8
0
 10
89.77181403987704
 20
2.415
 30
0.0
  0
VERTEX
  8
0
 10
89.77181403987704
 20
-2.415
 30
0.0
  0
VERTEX
  8
0
 10
83.44181403987704
 20
-2.414999999999999
 30
0.0
  0
SEQEND
  0
POLYLINE
  8
0
 66
1
 10
0.0
 20
0.0
 30
0.0
 70
8
  0
VERTEX
  8
0
 10
69.02451648042413
 20
4.962875911333915
 30
0.0
  0
VERTEX
  8
0
 10
65.32452182015946
 20
8.067540066119902
 30
0.0
  0
VERTEX
  8
0
 10
69.39336738947526
 20
12.916601391063033
 30
0.0
  0
VERTEX
  8
0
 10
73.09336204973992
 20
9.811937236277048
 30
0.0
  0
VERTEX
  8
0
 10
69.02451648042413
 20
4.962875911333918
 30
0.0
  0
SEQEND
  0
POLYLINE
  8
0
 66
1
 10
0.0
 20
0.0
 30
0.0
 70
8
  0
VERTEX
  8
0
 10
74.59105718030956
 20
11.596820788744264
 30
0.0
  0
VERTEX
  8
0
 10
70.8910625200449
 20
14.70148494353025
 30
0.0
  0
VERTEX
  8
0
 10
74.9599080893607
 20
19.550546268473383
 30
0.0
  0
VERTEX
  8
0
 10
78.65990274962536
 20
16.445882113687396
 30
0.0
  0
VERTEX
  8
0
 10
74.59105718030956
 20
11.596820788744267
 30
0.0
  0
SEQEND
  0
POLYLINE
  8
0
 66
1
 10
0.0
 20
0.0
 30
0.0
 70
8
  0
VERTEX
  8
0
 10
58.0906992396561
 20
8.0675400661199
 30
0.0
  0
VERTEX
  8
0
 10
54.39070457939143
 20
4.962875911333915
 30
0.0
  0
VERTEX
  8
0
 10
50.32185901007564
 20
9.811937236277046
 30
0.0
  0
VERTEX
  8
0
 10
54.021853670340306
 20
12.91660139106303
 30
0.0
  0
VERTEX
  8
0
 10
58.0906992396561
 20
8.0675400661199
 30
0.0
  0
SEQEND
  0
POLYLINE
  8
0
 66
1
 10
0.0
 20
0.0
 30
0.0
 70
8
  0
VERTEX
  8
0
 10
52.52415853977067
 20
14.70148494353025
 30
0.0
  0
VERTEX
  8
0
 10
48.824163879506
 20
11.596820788744266
 30
0.0
  0
VERTEX
  8
0
 10
44.755318310190205
 20
16.445882113687396
 30
0.0
  0
VERTEX
  8
0
 10
48.45531297045487
 20
19.550546268473383
 30
0.0
  0
VERTEX
  8
0
 10
52.52415853977066
 20
14.70148494353025
 30
0.0
  0
SEQEND
  0
POLYLINE
  8
0
 66
1
 10
0.0
 20
0.0
 30
0.0
 70
8
  0
VERTEX
  8
0
 10
54.39070457939143
 20
-4.962875911333914
 30
0.0
  0
VERTEX
  8
0
 10
58.0906992396561
 20
-8.0675400661199
 30
0.0
  0
VERTEX
  8
0
 10
54.0218536703403
 20
-12.916601391063029
 30
0.0
  0
VERTEX
  8
0
 10
50.321859010075634
 20
-9.811937236277043
 30
0.0
  0
VERTEX
  8
0
 10
54.39070457939143
 20
-4.962875911333914
 30
0.0
  0
SEQEND
  0
POLYLINE
  8
0
 66
1
 10
0.0
 20
0.0
 30
0.0
 70
8
  0
VERTEX
  8
0
 10
48.824163879506
 20
-11.596820788744262
 30
0.0
  0
VERTEX
  8
0
 10
52.52415853977067
 20
-14.701484943530248
 30
0.0
  0
VERTEX
  8
0
 10
48.45531297045487
 20
-19.55054626847338
 30
0.0
  0
VERTEX
  8
0
 10
44.755318310190205
 20
-16.445882113687393
 30
0.0
  0
VERTEX
  8
0
 10
48.824163879506
 20
-11.596820788744264
 30
0.0
  0
SEQEND
  0
POLYLINE
  8
0
 66
1
 10
0.0
 20
0.0
 30
0.0
 70
8
  0
VERTEX
  8
0
 10
65.32452182015948
 20
-8.0675400661199
 30
0.0
  0
VERTEX
  8
0
 10
69.02451648042414
 20
-4.962875911333915
 30
0.0
  0
VERTEX
  8
0
 10
73.09336204973994
 20
-9.811937236277046
 30
0.0
  0
VERTEX
  8
0
 10
69.39336738947527
 20
-12.916601391063033
 30
0.0
  0
VERTEX
  8
0
 10
65.32452182015948
 20
-8.067540066119902
 30
0.0
  0
SEQEND
  0
POLYLINE
  8
0
 66
1
 10
0.0
 20
0.0
 30
0.0
 70
8
  0
VERTEX
  8
0
 10
70.89106252004491
 20
-14.70148494353025
 30
0.0
  0
VERTEX
  8
0
 10
74.59105718030958
 20
-11.596820788744266
 30
0.0
  0
VERTEX
  8
0
 10
78.65990274962537
 20
-16.445882113687396
 30
0.0
  0
VERTEX
  8
0
 10
74.95990808936071
 20
-19.550546268473383
 30
0.0
  0
VERTEX
  8
0
 10
70.89106252004491
 20
-14.701484943530252
 30
0.0
  0
SEQEND
  0
POLYLINE
  8
0
 66
1
 10
0.0
 20
0.0
 30
0.0
 70
8
  0
VERTEX
  8
0
 10
115.92022105981556
 20
-2.415
 30
0.0
  0
VERTEX
  8
0
 10
115.92022105981556
 20
2.415
 30
0.0
  0
VERTEX
  8
0
 10
122.25022105981556
 20
2.415
 30
0.0
  0
VERTEX
  8
0
 10
122.25022105981556
 20
-2.415
 30
0.0
  0
VERTEX
  8
0
 10
115.92022105981556
 20
-2.414999999999999
 30
0.0
  0
SEQEND
  0
POLYLINE
  8
0
 66
1
 10
0.0
 20
0.0
 30
0.0
 70
8
  0
VERTEX
  8
0
 10
124.58022105981556
 20
-2.415
 30
0.0
  0
VERTEX
  8
0
 10
124.58022105981556
 20
2.415
 30
0.0
  0
VERTEX
  8
0
 10
130.91022105981557
 20
2.415
 30
0.0
  0
VERTEX
  8
0
 10
130.91022105981557
 20
-2.415
 30
0.0
  0
VERTEX
  8
0
 10
124.58022105981557
 20
-2.414999999999999
 30
0.0
  0
SEQEND
  0
POLYLINE
  8
0
 66
1
 10
0.0
 20
0.0
 30
0.0
 70
8
  0
VERTEX
  8
0
 10
110.16292350036264
 20
4.962875911333915
 30
0.0
  0
VERTEX
  8
0
 10
106.46292884009797
 20
8.067540066119902
 30
0.0
  0
VERTEX
  8
0
 10
110.53177440941377
 20
12.916601391063033
 30
0.0
  0
VERTEX
  8
0
 10
114.23176906967844
 20
9.811937236277048
 30
0.0
  0
VERTEX
  8
0
 10
110.16292350036264
 20
4.962875911333918
 30
0.0
  0
SEQEND
  0
POLYLINE
  8
0
 66
1
 10
0.0
 20
0.0
 30
0.0
 70
8
  0
VERTEX
  8
0
 10
115.72946420024807
 20
11.596820788744264
 30
0.0
  0
VERTEX
  8
0
 10
112.02946953998341
 20
14.70148494353025
 30
0.0
  0
VERTEX
  8
0
 10
116.09831510929921
 20
19.550546268473383
 30
0.0
  0
VERTEX
  8
0
 10
119.79830976956387
 20
16.445882113687396
 30
0.0
  0
VERTEX
  8
0
 10
115.72946420024807
 20
11.596820788744267
 30
0.0
  0
SEQEND
  0
POLYLINE
  8
0
 66
1
 10
0.0
 20
0.0
 30
0.0
 70
8
  0
VERTEX
  8
0
 10
99.2291062595946
 20
8.0675400661199
 30
0.0
  0
VERTEX
  8
0
 10
95.52911159932994
 20
4.962875911333915
 30
0.0
  0
VERTEX
  8
0
 10
91.46026603001414
 20
9.811937236277046
 30
0.0
  0
VERTEX
  8
0
 10
95.1602606902788
 20
12.91660139106303
 30
0.0
  0
VERTEX
  8
0
 10
99.2291062595946
 20
8.0675400661199
 30
0.0
  0
SEQEND
  0
POLYLINE
  8
0
 66
1
 10
0.0
 20
0.0
 30
0.0
 70
8
  0
VERTEX
  8
0
 10
93.66256555970917
 20
14.70148494353025
 30
0.0
  0
VERTEX
  8
0
 10
89.9625708994445
 20
11.596820788744266
 30
0.0
  0
VERTEX
  8
0
 10
85.8937253301287
 20
16.445882113687396
 30
0.0
  0
VERTEX
  8
0
 10
89.59371999039337
 20
19.550546268473383
 30
0.0
  0
VERTEX
  8
0
 10
93.66256555970917
 20
14.70148494353025
 30
0.0
  0
SEQEND
  0
POLYLINE
  8
0
 66
1
 10
0.0
 20
0.0
 30
0.0
 70
8
  0
VERTEX
  8
0
 10
95.52911159932995
 20
-4.962875911333914
 30
0.0
  0
VERTEX
  8
0
 10
99.22910625959462
 20
-8.0675400661199
 30
0.0
  0
VERTEX
  8
0
 10
95.16026069027882
 20
-12.916601391063029
 30
0.0
  0
VERTEX
  8
0
 10
91.46026603001415
 20
-9.811937236277043
 30
0.0
  0
VERTEX
  8
0
 10
95.52911159932995
 20
-4.962875911333914
 30
0.0
  0
SEQEND
  0
POLYLINE
  8
0
 66
1
 10
0.0
 20
0.0
 30
0.0
 70
8
  0
VERTEX
  8
0
 10
89.96257089944451
 20
-11.596820788744262
 30
0.0
  0
VERTEX
  8
0
 10
93.66256555970918
 20
-14.701484943530248
 30
0.0
  0
VERTEX
  8
0
 10
89.59371999039338
 20
-19.55054626847338
 30
0.0
  0
VERTEX
  8
0
 10
85.89372533012872
 20
-16.445882113687393
 30
0.0
  0
VERTEX
  8
0
 10
89.96257089944451
 20
-11.596820788744264
 30
0.0
  0
SEQEND
  0
POLYLINE
  8
0
 66
1
 10
0.0
 20
0.0
 30
0.0
 70
8
  0
VERTEX
  8
0
 10
106.46292884009799
 20
-8.0675400661199
 30
0.0
  0
VERTEX
  8
0
 10
110.16292350036265
 20
-4.962875911333915
 30
0.0
  0
VERTEX
  8
0
 10
114.23176906967845
 20
-9.811937236277046
 30
0.0
  0
VERTEX
  8
0
 10
110.53177440941379
 20
-12.916601391063033
 30
0.0
  0
VERTEX
  8
0
 10
106.46292884009799
 20
-8.067540066119902
 30
0.0
  0
SEQEND
  0
POLYLINE
  8
0
 66
1
 10
0.0
 20
0.0
 30
0.0
 70
8
  0
VERTEX
  8
0
 10
112.02946953998342
 20
-14.70148494353025
 30
0.0
  0
VERTEX
  8
0
 10
115.72946420024809
 20
-11.596820788744266
 30
0.0
  0
VERTEX
  8
0
 10
119.79830976956389
 20
-16.445882113687396
 30
0.0
  0
VERTEX
  8
0
 10
116.09831510929922
 20
-19.550546268473383
 30
0.0
  0
VERTEX
  8
0
 10
112.02946953998342
 20
-14.701484943530252
 30
0.0
  0
SEQEND
  0
POLYLINE
  8
0
 66
1
 10
0.0
 20
0.0
 30
0.0
 70
8
  0
VERTEX
  8
0
 10
13.074203509969259
 20
-26.928422179807296
 30
0.0
  0
VERTEX
  8
0
 10
13.074203509969259
 20
-22.098422179807294
 30
0.0
  0
VERTEX
  8
0
 10
19.404203509969257
 20
-22.098422179807294
 30
0.0
  0
VERTEX
  8
0
 10
19.404203509969257
 20
-26.928422179807292
 30
0.0
  0
VERTEX
  8
0
 10
13.074203509969257
 20
-26.928422179807292
 30
0.0
  0
SEQEND
  0
POLYLINE
  8
0
 66
1
 10
0.0
 20
0.0
 30
0.0
 70
8
  0
VERTEX
  8
0
 10
21.73420350996926
 20
-26.928422179807296
 30
0.0
  0
VERTEX
  8
0
 10
21.73420350996926
 20
-22.098422179807294
 30
0.0
  0
VERTEX
  8
0
 10
28.06420350996926
 20
-22.098422179807294
 30
0.0
  0
VERTEX
  8
0
 10
28.06420350996926
 20
-26.928422179807292
 30
0.0
  0
VERTEX
  8
0
 10
21.734203509969262
 20
-26.928422179807292
 30
0.0
  0
SEQEND
  0
POLYLINE
  8
0
 66
1
 10
0.0
 20
0.0
 30
0.0
 70
8
  0
VERTEX
  8
0
 10
-3.6169112902516853
 20
-16.445882113687393
 30
0.0
  0
VERTEX
  8
0
 10
-7.316905950516349
 20
-19.550546268473376
 30
0.0
  0
VERTEX
  8
0
 10
-11.385751519832144
 20
-14.701484943530245
 30
0.0
  0
VERTEX
  8
0
 10
-7.68575685956748
 20
-11.59682078874426
 30
0.0
  0
VERTEX
  8
0
 10
-3.6169112902516867
 20
-16.445882113687393
 30
0.0
  0
SEQEND
  0
POLYLINE
  8
0
 66
1
 10
0.0
 20
0.0
 30
0.0
 70
8
  0
VERTEX
  8
0
 10
-9.183451990137117
 20
-9.811937236277043
 30
0.0
  0
VERTEX
  8
0
 10
-12.883446650401781
 20
-12.916601391063027
 30
0.0
  0
VERTEX
  8
0
 10
-16.952292219717577
 20
-8.067540066119896
 30
0.0
  0
VERTEX
  8
0
 10
-13.252297559452913
 20
-4.962875911333912
 30
0.0
  0
VERTEX
  8
0
 10
-9.183451990137119
 20
-9.811937236277043
 30
0.0
  0
SEQEND
  0
POLYLINE
  8
0
 66
1
 10
0.0
 20
0.0
 30
0.0
 70
8
  0
VERTEX
  8
0
 10
-13.074203509969259
 20
-22.098422179807297
 30
0.0
  0
VERTEX
  8
0
 10
-13.074203509969259
 20
-26.9284221798073
 30
0.0
  0
VERTEX
  8
0
 10
-19.404203509969257
 20
-26.9284221798073
 30
0.0
  0
VERTEX
  8
0
 10
-19.404203509969257
 20
-22.0984221798073
 30
0.0
  0
VERTEX
  8
0
 10
-13.074203509969257
 20
-22.0984221798073
 30
0.0
  0
SEQEND
  0
POLYLINE
  8
0
 66
1
 10
0.0
 20
0.0
 30
0.0
 70
8
  0
VERTEX
  8
0
 10
-21.73420350996926
 20
-22.098422179807297
 30
0.0
  0
VERTEX
  8
0
 10
-21.73420350996926
 20
-26.9284221798073
 30
0.0
  0
VERTEX
  8
0
 10
-28.06420350996926
 20
-26.9284221798073
 30
0.0
  0
VERTEX
  8
0
 10
-28.06420350996926
 20
-22.0984221798073
 30
0.0
  0
VERTEX
  8
0
 10
-21.734203509969262
 20
-22.0984221798073
 30
0.0
  0
SEQEND
  0
POLYLINE
  8
0
 66
1
 10
0.0
 20
0.0
 30
0.0
 70
8
  0
VERTEX
  8
0
 10
-7.31690595051635
 20
-29.47629809114121
 30
0.0
  0
VERTEX
  8
0
 10
-3.6169112902516876
 20
-32.580962245927196
 30
0.0
  0
VERTEX
  8
0
 10
-7.685756859567483
 20
-37.430023570870325
 30
0.0
  0
VERTEX
  8
0
 10
-11.385751519832146
 20
-34.32535941608434
 30
0.0
  0
VERTEX
  8
0
 10
-7.31690595051635
 20
-29.47629809114121
 30
0.0
  0
SEQEND
  0
POLYLINE
  8
0
 66
1
 10
0.0
 20
0.0
 30
0.0
 70
8
  0
VERTEX
  8
0
 10
-12.883446650401783
 20
-36.11024296855156
 30
0.0
  0
VERTEX
  8
0
 10
-9.18345199013712
 20
-39.21490712333755
 30
0.0
  0
VERTEX
  8
0
 10
-13.252297559452916
 20
-44.063968448280676
 30
0.0
  0
VERTEX
  8
0
 10
-16.95229221971758
 20
-40.95930429349469
 30
0.0
  0
VERTEX
  8
0
 10
-12.883446650401785
 20
-36.11024296855156
 30
0.0
  0
SEQEND
  0
POLYLINE
  8
0
 66
1
 10
0.0
 20
0.0
 30
0.0
 70
8
  0
VERTEX
  8
0
 10
3.616911290251686
 20
-32.580962245927196
 30
0.0
  0
VERTEX
  8
0
 10
7.31690595051635
 20
-29.47629809114121
 30
0.0
  0
VERTEX
  8
0
 10
11.385751519832144
 20
-34.32535941608434
 30
0.0
  0
VERTEX
  8
0
 10
7.685756859567482
 20
-37.430023570870325
 30
0.0
  0
VERTEX
  8
0
 10
3.6169112902516876
 20
-32.580962245927196
 30
0.0
  0
SEQEND
  0
POLYLINE
  8
0
 66
1
 10
0.0
 20
0.0
 30
0.0
 70
8
  0
VERTEX
  8
0
 10
9.183451990137117
 20
-39.21490712333755
 30
0.0
  0
VERTEX
  8
0
 10
12.883446650401781
 20
-36.11024296855156
 30
0.0
  0
VERTEX
  8
0
 10
16.952292219717577
 20
-40.95930429349469
 30
0.0
  0
VERTEX
  8
0
 10
13.252297559452915
 20
-44.063968448280676
 30
0.0
  0
VERTEX
  8
0
 10
9.18345199013712
 20
-39.21490712333755
 30
0.0
  0
SEQEND
  0
POLYLINE
  8
0
 66
1
 10
0.0
 20
0.0
 30
0.0
 70
8
  0
VERTEX
  8
0
 10
54.21261052990778
 20
-26.928422179807296
 30
0.0
  0
VERTEX
  8
0
 10
54.21261052990778
 20
-22.098422179807294
 30
0.0
  0
VERTEX
  8
0
 10
60.542610529907776
 20
-22.098422179807294
 30
0.0
  0
VERTEX
  8
0
 10
60.542610529907776
 20
-26.928422179807292
 30
0.0
  0
VERTEX
  8
0
 10
54.21261052990778
 20
-26.928422179807292
 30
0.0
  0
SEQEND
  0
POLYLINE
  8
0
 66
1
 10
0.0
 20
0.0
 30
0.0
 70
8
  0
VERTEX
  8
0
 10
62.872610529907774
 20
-26.928422179807296
 30
0.0
  0
VERTEX
  8
0
 10
62.872610529907774
 20
-22.098422179807294
 30
0.0
  0
VERTEX
  8
0
 10
69.20261052990777
 20
-22.098422179807294
 30
0.0
  0
VERTEX
  8
0
 10
69.20261052990777
 20
-26.928422179807292
 30
0.0
  0
VERTEX
  8
0
 10
62.872610529907774
 20
-26.928422179807292
 30
0.0
  0
SEQEND
  0
POLYLINE
  8
0
 66
1
 10
0.0
 20
0.0
 30
0.0
 70
8
  0
VERTEX
  8
0
 10
33.82150106942217
 20
-29.47629809114121
 30
0.0
  0
VERTEX
  8
0
 10
37.52149572968683
 20
-32.580962245927196
 30
0.0
  0
VERTEX
  8
0
 10
33.452650160371036
 20
-37.430023570870325
 30
0.0
  0
VERTEX
  8
0
 10
29.75265550010637
 20
-34.32535941608434
 30
0.0
  0
VERTEX
  8
0
 10
33.82150106942217
 20
-29.47629809114121
 30
0.0
  0
SEQEND
  0
POLYLINE
  8
0
 66
1
 10
0.0
 20
0.0
 30
0.0
 70
8
  0
VERTEX
  8
0
 10
28.254960369536736
 20
-36.11024296855156
 30
0.0
  0
VERTEX
  8
0
 10
31.954955029801397
 20
-39.21490712333755
 30
0.0
  0
VERTEX
  8
0
 10
27.886109460485603
 20
-44.063968448280676
 30
0.0
  0
VERTEX
  8
0
 10
24.18611480022094
 20
-40.95930429349469
 30
0.0
  0
VERTEX
  8
0
 10
28.254960369536732
 20
-36.11024296855156
 30
0.0
  0
SEQEND
  0
POLYLINE
  8
0
 66
1
 10
0.0
 20
0.0
 30
0.0
 70
8
  0
VERTEX
  8
0
 10
44.755318310190205
 20
-32.580962245927196
 30
0.0
  0
VERTEX
  8
0
 10
48.45531297045487
 20
-29.47629809114121
 30
0.0
  0
VERTEX
  8
0
 10
52.52415853977067
 20
-34.32535941608434
 30
0.0
  0
VERTEX
  8
0
 10
48.824163879506
 20
-37.430023570870325
 30
0.0
  0
VERTEX
  8
0
 10
44.755318310190205
 20
-32.580962245927196
 30
0.0
  0
SEQEND
  0
POLYLINE
  8
0
 66
1
 10
0.0
 20
0.0
 30
0.0
 70
8
  0
VERTEX
  8
0
 10
50.321859010075634
 20
-39.21490712333755
 30
0.0
  0
VERTEX
  8
0
 10
54.0218536703403
 20
-36.11024296855156
 30
0.0
  0
VERTEX
  8
0
 10
58.09069923965609
 20
-40.95930429349469
 30
0.0
  0
VERTEX
  8
0
 10
54.390704579391425
 20
-44.063968448280676
 30
0.0
  0
VERTEX
  8
0
 10
50.32185901007563
 20
-39.21490712333755
 30
0.0
  0
SEQEND
  0
POLYLINE
  8
0
 66
1
 10
0.0
 20
0.0
 30
0.0
 70
8
  0
VERTEX
  8
0
 10
95.35101754984629
 20
-26.928422179807296
 30
0.0
  0
VERTEX
  8
0
 10
95.35101754984629
 20
-22.098422179807294
 30
0.0
  0
VERTEX
  8
0
 10
101.68101754984629
 20
-22.098422179807294
 30
0.0
  0
VERTEX
  8
0
 10
101.68101754984629
 20
-26.928422179807292
 30
0.0
  0
VERTEX
  8
0
 10
95.35101754984629
 20
-26.928422179807292
 30
0.0
  0
SEQEND
  0
POLYLINE
  8
0
 66
1
 10
0.0
 20
0.0
 30
0.0
 70
8
  0
VERTEX
  8
0
 10
104.01101754984629
 20
-26.928422179807296
 30
0.0
  0
VERTEX
  8
0
 10
104.01101754984629
 20
-22.098422179807294
 30
0.0
  0
VERTEX
  8
0
 10
110.34101754984628
 20
-22.098422179807294
 30
0.0
  0
VERTEX
  8
0
 10
110.34101754984628
 20
-26.928422179807292
 30
0.0
  0
VERTEX
  8
0
 10
104.01101754984629
 20
-26.928422179807292
 30
0.0
  0
SEQEND
  0
POLYLINE
  8
0
 66
1
 10
0.0
 20
0.0
 30
0.0
 70
8
  0
VERTEX
  8
0
 10
74.9599080893607
 20
-29.47629809114121
 30
0.0
  0
VERTEX
  8
0
 10
78.65990274962536
 20
-32.580962245927196
 30
0.0
  0
VERTEX
  8
0
 10
74.59105718030956
 20
-37.430023570870325
 30
0.0
  0
VERTEX
  8
0
 10
70.8910625200449
 20
-34.32535941608434
 30
0.0
  0
VERTEX
  8
0
 10
74.9599080893607
 20
-29.47629809114121
 30
0.0
  0
SEQEND
  0
POLYLINE
  8
0
 66
1
 10
0.0
 20
0.0
 30
0.0
 70
8
  0
VERTEX
  8
0
 10
69.39336738947526
 20
-36.11024296855156
 30
0.0
  0
VERTEX
  8
0
 10
73.09336204973992
 20
-39.21490712333755
 30
0.0
  0
VERTEX
  8
0
 10
69.02451648042413
 20
-44.063968448280676
 30
0.0
  0
VERTEX
  8
0
 10
65.32452182015946
 20
-40.95930429349469
 30
0.0
  0
VERTEX
  8
0
 10
69.39336738947526
 20
-36.11024296855156
 30
0.0
  0
SEQEND
  0
POLYLINE
  8
0
 66
1
 10
0.0
 20
0.0
 30
0.0
 70
8
  0
VERTEX
  8
0
 10
85.89372533012872
 20
-32.580962245927196
 30
0.0
  0
VERTEX
  8
0
 10
89.59371999039338
 20
-29.47629809114121
 30
0.0
  0
VERTEX
  8
0
 10
93.66256555970918
 20
-34.32535941608434
 30
0.0
  0
VERTEX
  8
0
 10
89.96257089944451
 20
-37.430023570870325
 30
0.0
  0
VERTEX
  8
0
 10
85.89372533012872
 20
-32.580962245927196
 30
0.0
  0
SEQEND
  0
POLYLINE
  8
0
 66
1
 10
0.0
 20
0.0
 30
0.0
 70
8
  0
VERTEX
  8
0
 10
91.46026603001415
 20
-39.21490712333755
 30
0.0
  0
VERTEX
  8
0
 10
95.16026069027882
 20
-36.11024296855156
 30
0.0
  0
VERTEX
  8
0
 10
99.22910625959462
 20
-40.95930429349469
 30
0.0
  0
VERTEX
  8
0
 10
95.52911159932995
 20
-44.063968448280676
 30
0.0
  0
VERTEX
  8
0
 10
91.46026603001415
 20
-39.21490712333755
 30
0.0
  0
SEQEND
  0
POLYLINE
  8
0
 66
1
 10
0.0
 20
0.0
 30
0.0
 70
8
  0
VERTEX
  8
0
 10
33.64340701993852
 20
-51.44184435961459
 30
0.0
  0
VERTEX
  8
0
 10
33.64340701993852
 20
-46.611844359614594
 30
0.0
  0
VERTEX
  8
0
 10
39.97340701993852
 20
-46.611844359614594
 30
0.0
  0
VERTEX
  8
0
 10
39.97340701993852
 20
-51.44184435961459
 30
0.0
  0
VERTEX
  8
0
 10
33.64340701993852
 20
-51.44184435961459
 30
0.0
  0
SEQEND
  0
POLYLINE
  8
0
 66
1
 10
0.0
 20
0.0
 30
0.0
 70
8
  0
VERTEX
  8
0
 10
42.30340701993852
 20
-51.44184435961459
 30
0.0
  0
VERTEX
  8
0
 10
42.30340701993852
 20
-46.611844359614594
 30
0.0
  0
VERTEX
  8
0
 10
48.63340701993852
 20
-46.611844359614594
 30
0.0
  0
VERTEX
  8
0
 10
48.63340701993852
 20
-51.44184435961459
 30
0.0
  0
VERTEX
  8
0
 10
42.30340701993852
 20
-51.44184435961459
 30
0.0
  0
SEQEND
  0
POLYLINE
  8
0
 66
1
 10
0.0
 20
0.0
 30
0.0
 70
8
  0
VERTEX
  8
0
 10
7.495000000000001
 20
-46.611844359614594
 30
0.0
  0
VERTEX
  8
0
 10
7.495
 20
-51.44184435961459
 30
0.0
  0
VERTEX
  8
0
 10
1.165
 20
-51.44184435961459
 30
0.0
  0
VERTEX
  8
0
 10
1.1650000000000003
 20
-46.611844359614594
 30
0.0
  0
VERTEX
  8
0
 10
7.495
 20
-46.611844359614594
 30
0.0
  0
SEQEND
  0
POLYLINE
  8
0
 66
1
 10
0.0
 20
0.0
 30
0.0
 70
8
  0
VERTEX
  8
0
 10
-1.1649999999999991
 20
-46.611844359614594
 30
0.0
  0
VERTEX
  8
0
 10
-1.165
 20
-51.44184435961459
 30
0.0
  0
VERTEX
  8
0
 10
-7.495
 20
-51.44184435961459
 30
0.0
  0
VERTEX
  8
0
 10
-7.495
 20
-46.611844359614594
 30
0.0
  0
VERTEX
  8
0
 10
-1.165
 20
-46.611844359614594
 30
0.0
  0
SEQEND
  0
POLYLINE
  8
0
 66
1
 10
0.0
 20
0.0
 30
0.0
 70
8
  0
VERTEX
  8
0
 10
13.25229755945291
 20
-53.98972027094851
 30
0.0
  0
VERTEX
  8
0
 10
16.95229221971757
 20
-57.094384425734496
 30
0.0
  0
VERTEX
  8
0
 10
12.883446650401776
 20
-61.943445750677625
 30
0.0
  0
VERTEX
  8
0
 10
9.183451990137113
 20
-58.83878159589164
 30
0.0
  0
VERTEX
  8
0
 10
13.25229755945291
 20
-53.98972027094851
 30
0.0
  0
SEQEND
  0
POLYLINE
  8
0
 66
1
 10
0.0
 20
0.0
 30
0.0
 70
8
  0
VERTEX
  8
0
 10
7.685756859567477
 20
-60.62366514835886
 30
0.0
  0
VERTEX
  8
0
 10
11.38575151983214
 20
-63.72832930314485
 30
0.0
  0
VERTEX
  8
0
 10
7.316905950516346
 20
-68.57739062808798
 30
0.0
  0
VERTEX
  8
0
 10
3.6169112902516827
 20
-65.472726473302
 30
0.0
  0
VERTEX
  8
0
 10
7.685756859567478
 20
-60.623665148358874
 30
0.0
  0
SEQEND
  0
POLYLINE
  8
0
 66
1
 10
0.0
 20
0.0
 30
0.0
 70
8
  0
VERTEX
  8
0
 10
24.186114800220945
 20
-57.09438442573449
 30
0.0
  0
VERTEX
  8
0
 10
27.88610946048561
 20
-53.9897202709485
 30
0.0
  0
VERTEX
  8
0
 10
31.954955029801404
 20
-58.83878159589163
 30
0.0
  0
VERTEX
  8
0
 10
28.25496036953674
 20
-61.94344575067762
 30
0.0
  0
VERTEX
  8
0
 10
24.186114800220945
 20
-57.09438442573449
 30
0.0
  0
SEQEND
  0
POLYLINE
  8
0
 66
1
 10
0.0
 20
0.0
 30
0.0
 70
8
  0
VERTEX
  8
0
 10
29.75265550010638
 20
-63.72832930314484
 30
0.0
  0
VERTEX
  8
0
 10
33.45265016037104
 20
-60.62366514835885
 30
0.0
  0
VERTEX
  8
0
 10
37.52149572968683
 20
-65.47272647330199
 30
0.0
  0
VERTEX
  8
0
 10
33.82150106942217
 20
-68.57739062808797
 30
0.0
  0
VERTEX
  8
0
 10
29.752655500106375
 20
-63.72832930314484
 30
0.0
  0
SEQEND
  0
POLYLINE
  8
0
 66
1
 10
0.0
 20
0.0
 30
0.0
 70
8
  0
VERTEX
  8
0
 10
74.78181403987705
 20
-51.44184435961459
 30
0.0
  0
VERTEX
  8
0
 10
74.78181403987705
 20
-46.611844359614594
 30
0.0
  0
VERTEX
  8
0
 10
81.11181403987705
 20
-46.611844359614594
 30
0.0
  0
VERTEX
  8
0
 10
81.11181403987705
 20
-51.44184435961459
 30
0.0
  0
VERTEX
  8
0
 10
74.78181403987705
 20
-51.44184435961459
 30
0.0
  0
SEQEND
  0
POLYLINE
  8
0
 66
1
 10
0.0
 20
0.0
 30
0.0
 70
8
  0
VERTEX
  8
0
 10
83.44181403987704
 20
-51.44184435961459
 30
0.0
  0
VERTEX
  8
0
 10
83.44181403987704
 20
-46.611844359614594
 30
0.0
  0
VERTEX
  8
0
 10
89.77181403987704
 20
-46.611844359614594
 30
0.0
  0
VERTEX
  8
0
 10
89.77181403987704
 20
-51.44184435961459
 30
0.0
  0
VERTEX
  8
0
 10
83.44181403987704
 20
-51.44184435961459
 30
0.0
  0
SEQEND
  0
POLYLINE
  8
0
 66
1
 10
0.0
 20
0.0
 30
0.0
 70
8
  0
VERTEX
  8
0
 10
54.39070457939143
 20
-53.98972027094851
 30
0.0
  0
VERTEX
  8
0
 10
58.0906992396561
 20
-57.094384425734496
 30
0.0
  0
VERTEX
  8
0
 10
54.0218536703403
 20
-61.943445750677625
 30
0.0
  0
VERTEX
  8
0
 10
50.321859010075634
 20
-58.83878159589164
 30
0.0
  0
VERTEX
  8
0
 10
54.39070457939143
 20
-53.98972027094851
 30
0.0
  0
SEQEND
  0
POLYLINE
  8
0
 66
1
 10
0.0
 20
0.0
 30
0.0
 70
8
  0
VERTEX
  8
0
 10
48.824163879506
 20
-60.62366514835886
 30
0.0
  0
VERTEX
  8
0
 10
52.52415853977067
 20
-63.72832930314485
 30
0.0
  0
VERTEX
  8
0
 10
48.45531297045487
 20
-68.57739062808798
 30
0.0
  0
VERTEX
  8
0
 10
44.755318310190205
 20
-65.472726473302
 30
0.0
  0
VERTEX
  8
0
 10
48.824163879506
 20
-60.623665148358874
 30
0.0
  0
SEQEND
  0
POLYLINE
  8
0
 66
1
 10
0.0
 20
0.0
 30
0.0
 70
8
  0
VERTEX
  8
0
 10
65.32452182015948
 20
-57.09438442573449
 30
0.0
  0
VERTEX
  8
0
 10
69.02451648042414
 20
-53.9897202709485
 30
0.0
  0
VERTEX
  8
0
 10
73.09336204973994
 20
-58.83878159589163
 30
0.0
  0
VERTEX
  8
0
 10
69.39336738947527
 20
-61.94344575067762
 30
0.0
  0
VERTEX
  8
0
 10
65.32452182015948
 20
-57.09438442573449
 30
0.0
  0
SEQEND
  0
POLYLINE
  8
0
 66
1
 10
0.0
 20
0.0
 30
0.0
 70
8
  0
VERTEX
  8
0
 10
70.89106252004491
 20
-63.72832930314484
 30
0.0
  0
VERTEX
  8
0
 10
74.59105718030958
 20
-60.62366514835885
 30
0.0
  0
VERTEX
  8
0
 10
78.65990274962537
 20
-65.47272647330199
 30
0.0
  0
VERTEX
  8
0
 10
74.95990808936071
 20
-68.57739062808797
 30
0.0
  0
VERTEX
  8
0
 10
70.89106252004491
 20
-63.72832930314484
 30
0.0
  0
SEQEND
  0
POLYLINE
  8
0
 66
1
 10
0.0
 20
0.0
 30
0.0
 70
8
  0
VERTEX
  8
0
 10
115.92022105981556
 20
-51.44184435961459
 30
0.0
  0
VERTEX
  8
0
 10
115.92022105981556
 20
-46.611844359614594
 30
0.0
  0
VERTEX
  8
0
 10
122.25022105981556
 20
-46.611844359614594
 30
0.0
  0
VERTEX
  8
0
 10
122.25022105981556
 20
-51.44184435961459
 30
0.0
  0
VERTEX
  8
0
 10
115.92022105981556
 20
-51.44184435961459
 30
0.0
  0
SEQEND
  0
POLYLINE
  8
0
 66
1
 10
0.0
 20
0.0
 30
0.0
 70
8
  0
VERTEX
  8
0
 10
124.58022105981556
 20
-51.44184435961459
 30
0.0
  0
VERTEX
  8
0
 10
124.58022105981556
 20
-46.611844359614594
 30
0.0
  0
VERTEX
  8
0
 10
130.91022105981557
 20
-46.611844359614594
 30
0.0
  0
VERTEX
  8
0
 10
130.91022105981557
 20
-51.44184435961459
 30
0.0
  0
VERTEX
  8
0
 10
124.58022105981557
 20
-51.44184435961459
 30
0.0
  0
SEQEND
  0
POLYLINE
  8
0
 66
1
 10
0.0
 20
0.0
 30
0.0
 70
8
  0
VERTEX
  8
0
 10
110.16292350036264
 20
-44.063968448280676
 30
0.0
  0
VERTEX
  8
0
 10
106.46292884009797
 20
-40.95930429349469
 30
0.0
  0
VERTEX
  8
0
 10
110.53177440941377
 20
-36.11024296855156
 30
0.0
  0
VERTEX
  8
0
 10
114.23176906967844
 20
-39.21490712333755
 30
0.0
  0
VERTEX
  8
0
 10
110.16292350036264
 20
-44.063968448280676
 30
0.0
  0
SEQEND
  0
POLYLINE
  8
0
 66
1
 10
0.0
 20
0.0
 30
0.0
 70
8
  0
VERTEX
  8
0
 10
115.72946420024807
 20
-37.430023570870325
 30
0.0
  0
VERTEX
  8
0
 10
112.02946953998341
 20
-34.32535941608434
 30
0.0
  0
VERTEX
  8
0
 10
116.09831510929921
 20
-29.47629809114121
 30
0.0
  0
VERTEX
  8
0
 10
119.79830976956387
 20
-32.580962245927196
 30
0.0
  0
VERTEX
  8
0
 10
115.72946420024807
 20
-37.430023570870325
 30
0.0
  0
SEQEND
  0
POLYLINE
  8
0
 66
1
 10
0.0
 20
0.0
 30
0.0
 70
8
  0
VERTEX
  8
0
 10
95.52911159932995
 20
-53.98972027094851
 30
0.0
  0
VERTEX
  8
0
 10
99.22910625959462
 20
-57.094384425734496
 30
0.0
  0
VERTEX
  8
0
 10
95.16026069027882
 20
-61.943445750677625
 30
0.0
  0
VERTEX
  8
0
 10
91.46026603001415
 20
-58.83878159589164
 30
0.0
  0
VERTEX
  8
0
 10
95.52911159932995
 20
-53.98972027094851
 30
0.0
  0
SEQEND
  0
POLYLINE
  8
0
 66
1
 10
0.0
 20
0.0
 30
0.0
 70
8
  0
VERTEX
  8
0
 10
89.96257089944451
 20
-60.62366514835886
 30
0.0
  0
VERTEX
  8
0
 10
93.66256555970918
 20
-63.72832930314485
 30
0.0
  0
VERTEX
  8
0
 10
89.59371999039338
 20
-68.57739062808798
 30
0.0
  0
VERTEX
  8
0
 10
85.89372533012872
 20
-65.472726473302
 30
0.0
  0
VERTEX
  8
0
 10
89.96257089944451
 20
-60.623665148358874
 30
0.0
  0
SEQEND
  0
POLYLINE
  8
0
 66
1
 10
0.0
 20
0.0
 30
0.0
 70
8
  0
VERTEX
  8
0
 10
106.46292884009799
 20
-57.09438442573449
 30
0.0
  0
VERTEX
  8
0
 10
110.16292350036265
 20
-53.9897202709485
 30
0.0
  0
VERTEX
  8
0
 10
114.23176906967845
 20
-58.83878159589163
 30
0.0
  0
VERTEX
  8
0
 10
110.53177440941379
 20
-61.94344575067762
 30
0.0
  0
VERTEX
  8
0
 10
106.46292884009799
 20
-57.09438442573449
 30
0.0
  0
SEQEND
  0
POLYLINE
  8
0
 66
1
 10
0.0
 20
0.0
 30
0.0
 70
8
  0
VERTEX
  8
0
 10
112.02946953998342
 20
-63.72832930314484
 30
0.0
  0
VERTEX
  8
0
 10
115.72946420024809
 20
-60.62366514835885
 30
0.0
  0
VERTEX
  8
0
 10
119.79830976956389
 20
-65.47272647330199
 30
0.0
  0
VERTEX
  8
0
 10
116.09831510929922
 20
-68.57739062808797
 30
0.0
  0
VERTEX
  8
0
 10
112.02946953998342
 20
-63.72832930314484
 30
0.0
  0
SEQEND
  0
ENDSEC
  0
EOF
